<svg width="118" height="32" viewBox="0 0 118 32" fill="none" xmlns="http://www.w3.org/2000/svg">
<path opacity="0.4" d="M12.237 6.6541L4.52468 10.2191C4.0958 10.4174 4.10025 11.098 4.53181 11.2891L12.2763 14.72C12.9567 15.0215 13.7145 15.0215 14.395 14.72L22.1395 11.289C22.571 11.098 22.5757 10.4175 22.1466 10.2192L14.4345 6.65397C13.7309 6.32872 12.9405 6.32872 12.2369 6.65397" fill="#F43F5E"/>
<path d="M14.0228 16.5933V25.1642C14.0228 25.5717 14.3907 25.851 14.7299 25.7008L23.3596 21.9588C23.4559 21.9162 23.5384 21.8422 23.5966 21.7465C23.6548 21.6509 23.6859 21.5379 23.6858 21.4222V12.8515C23.6858 12.4438 23.3179 12.1647 22.9787 12.3149L14.349 16.0569C14.2528 16.0995 14.1702 16.1735 14.112 16.2691C14.0539 16.3648 14.0228 16.4777 14.0228 16.5933Z" fill="#F43F5E"/>
<path d="M12.0076 17.0356L9.4465 18.417L9.18646 18.5574L3.78012 21.4513C3.43753 21.636 3 21.357 3 20.9317V12.8874C3 12.7335 3.07062 12.6007 3.16533 12.5007C3.20418 12.4575 3.24826 12.4206 3.29629 12.391C3.42537 12.3044 3.60964 12.2813 3.76632 12.3505L11.9646 15.9794C12.3813 16.1641 12.414 16.8164 12.0076 17.0357" fill="#F43F5E"/>
<path d="M12.0076 17.0356L9.44651 18.417L3.16534 12.5006C3.20421 12.4574 3.24828 12.4205 3.2963 12.391C3.42538 12.3044 3.60966 12.2813 3.76633 12.3505L11.9646 15.9794C12.3813 16.1641 12.414 16.8164 12.0076 17.0357" fill="#BE123C" fill-opacity="0.25"/>
<path d="M32.2455 12.749L29.5385 21H27.3578L31.0561 11.0469H32.4438L32.2455 12.749ZM34.4946 21L31.7807 12.749L31.562 11.0469H32.9633L36.6821 21H34.4946ZM34.3715 17.2949V18.9014H29.1147V17.2949H34.3715Z" fill="#1E293B"/>
<path d="M39.49 13.6035V21H37.5144V13.6035H39.49ZM37.3914 11.6758C37.3914 11.3887 37.4916 11.1517 37.6921 10.9648C37.8927 10.778 38.1615 10.6846 38.4988 10.6846C38.8315 10.6846 39.0981 10.778 39.2986 10.9648C39.5037 11.1517 39.6062 11.3887 39.6062 11.6758C39.6062 11.9629 39.5037 12.1999 39.2986 12.3867C39.0981 12.5736 38.8315 12.667 38.4988 12.667C38.1615 12.667 37.8927 12.5736 37.6921 12.3867C37.4916 12.1999 37.3914 11.9629 37.3914 11.6758Z" fill="#1E293B"/>
<path d="M43.0157 15.2168V21H41.047V13.6035H42.8995L43.0157 15.2168ZM45.2442 13.5557L45.21 15.3809C45.1143 15.3672 44.9981 15.3558 44.8614 15.3467C44.7292 15.333 44.6085 15.3262 44.4991 15.3262C44.2211 15.3262 43.9796 15.3626 43.7745 15.4355C43.574 15.5039 43.4053 15.6064 43.2686 15.7432C43.1365 15.8799 43.0362 16.0462 42.9678 16.2422C42.904 16.4382 42.8676 16.6615 42.8585 16.9121L42.462 16.7891C42.462 16.3105 42.5098 15.8708 42.6055 15.4697C42.7012 15.0641 42.8402 14.7109 43.0225 14.4102C43.2094 14.1094 43.4373 13.877 43.7061 13.7129C43.975 13.5488 44.2826 13.4668 44.629 13.4668C44.7384 13.4668 44.85 13.4759 44.9639 13.4941C45.0779 13.5078 45.1713 13.5283 45.2442 13.5557Z" fill="#1E293B"/>
<path d="M50.0687 13.6035V14.998H45.7621V13.6035H50.0687ZM46.8285 11.7783H48.7973V18.7715C48.7973 18.9857 48.8246 19.1497 48.8793 19.2637C48.9385 19.3776 49.0251 19.4574 49.1391 19.5029C49.253 19.5439 49.3965 19.5645 49.5697 19.5645C49.6928 19.5645 49.8021 19.5599 49.8979 19.5508C49.9981 19.5371 50.0824 19.5234 50.1508 19.5098L50.1576 20.959C49.989 21.0137 49.8067 21.057 49.6107 21.0889C49.4148 21.1208 49.1983 21.1367 48.9613 21.1367C48.5284 21.1367 48.1501 21.0661 47.8266 20.9248C47.5076 20.779 47.2615 20.5465 47.0883 20.2275C46.9151 19.9085 46.8285 19.4893 46.8285 18.9697V11.7783Z" fill="#1E293B"/>
<path d="M55.112 19.332V16.0371C55.112 15.8001 55.0733 15.5973 54.9958 15.4287C54.9183 15.2555 54.7976 15.1211 54.6335 15.0254C54.474 14.9297 54.2667 14.8818 54.0114 14.8818C53.7927 14.8818 53.6036 14.9206 53.4441 14.998C53.2846 15.071 53.1615 15.1781 53.0749 15.3193C52.9883 15.4561 52.945 15.6178 52.945 15.8047H50.9763C50.9763 15.4902 51.0492 15.1917 51.195 14.9092C51.3409 14.6266 51.5528 14.3783 51.8308 14.1641C52.1088 13.9453 52.4392 13.7744 52.822 13.6514C53.2094 13.5283 53.6423 13.4668 54.1208 13.4668C54.695 13.4668 55.2055 13.5625 55.6521 13.7539C56.0987 13.9453 56.4496 14.2324 56.7048 14.6152C56.9646 14.998 57.0944 15.4766 57.0944 16.0508V19.2158C57.0944 19.6214 57.1195 19.9541 57.1696 20.2139C57.2198 20.4691 57.2927 20.6924 57.3884 20.8838V21H55.3991C55.3034 20.7995 55.2305 20.5488 55.1804 20.248C55.1348 19.9427 55.112 19.6374 55.112 19.332ZM55.3718 16.4951L55.3855 17.6094H54.2849C54.0251 17.6094 53.7995 17.639 53.6081 17.6982C53.4167 17.7575 53.2595 17.8418 53.1364 17.9512C53.0134 18.056 52.9222 18.179 52.863 18.3203C52.8083 18.4616 52.781 18.6165 52.781 18.7852C52.781 18.9538 52.8197 19.1064 52.8972 19.2432C52.9747 19.3753 53.0863 19.4801 53.2321 19.5576C53.378 19.6305 53.5489 19.667 53.7448 19.667C54.0411 19.667 54.2986 19.6077 54.5173 19.4893C54.7361 19.3708 54.9047 19.2249 55.0232 19.0518C55.1462 18.8786 55.21 18.7145 55.2146 18.5596L55.7341 19.3936C55.6612 19.5804 55.5609 19.7741 55.4333 19.9746C55.3103 20.1751 55.153 20.3643 54.9616 20.542C54.7702 20.7152 54.5401 20.8587 54.2712 20.9727C54.0023 21.082 53.6833 21.1367 53.3142 21.1367C52.8448 21.1367 52.4187 21.0433 52.0359 20.8564C51.6576 20.665 51.3568 20.403 51.1335 20.0703C50.9148 19.7331 50.8054 19.3503 50.8054 18.9219C50.8054 18.5345 50.8783 18.1904 51.0241 17.8896C51.17 17.5889 51.3842 17.3359 51.6667 17.1309C51.9538 16.9212 52.3116 16.764 52.74 16.6592C53.1683 16.5498 53.6651 16.4951 54.2302 16.4951H55.3718Z" fill="#1E293B"/>
<path d="M58.542 10.5H60.5108V19.3047L60.3125 21H58.542V10.5ZM65.1934 17.2266V17.3701C65.1934 17.9215 65.1342 18.4274 65.0157 18.8877C64.9017 19.348 64.724 19.7467 64.4825 20.084C64.2409 20.4167 63.9401 20.6764 63.5801 20.8633C63.2246 21.0456 62.8054 21.1367 62.3223 21.1367C61.8711 21.1367 61.4792 21.0456 61.1465 20.8633C60.8184 20.681 60.5427 20.4235 60.3194 20.0908C60.0961 19.7581 59.9161 19.3685 59.7793 18.9219C59.6426 18.4753 59.5401 17.9876 59.4717 17.459V17.1445C59.5401 16.6159 59.6426 16.1283 59.7793 15.6816C59.9161 15.235 60.0961 14.8454 60.3194 14.5127C60.5427 14.18 60.8184 13.9225 61.1465 13.7402C61.4746 13.5579 61.862 13.4668 62.3086 13.4668C62.7963 13.4668 63.2201 13.5602 63.5801 13.7471C63.9447 13.9294 64.2455 14.1891 64.4825 14.5264C64.724 14.859 64.9017 15.2555 65.0157 15.7158C65.1342 16.1715 65.1934 16.6751 65.1934 17.2266ZM63.2246 17.3701V17.2266C63.2246 16.9258 63.2019 16.6432 63.1563 16.3789C63.1153 16.11 63.0424 15.8753 62.9375 15.6748C62.8327 15.4697 62.6892 15.3079 62.5069 15.1895C62.3291 15.071 62.099 15.0117 61.8164 15.0117C61.5476 15.0117 61.3197 15.0573 61.1329 15.1484C60.946 15.2396 60.7911 15.3672 60.668 15.5312C60.5495 15.6953 60.4607 15.8913 60.4014 16.1191C60.3422 16.3424 60.3057 16.5885 60.292 16.8574V17.7529C60.3057 18.113 60.3649 18.432 60.4698 18.71C60.5791 18.9834 60.7432 19.1999 60.962 19.3594C61.1853 19.5143 61.4746 19.5918 61.8301 19.5918C62.1081 19.5918 62.3383 19.5371 62.5205 19.4277C62.7028 19.3184 62.8441 19.1634 62.9444 18.9629C63.0492 18.7624 63.1221 18.5277 63.1631 18.2588C63.2041 17.9854 63.2246 17.6891 63.2246 17.3701Z" fill="#1E293B"/>
<path d="M68.4252 10.5V21H66.4496V10.5H68.4252Z" fill="#1E293B"/>
<path d="M73.3864 21.1367C72.8122 21.1367 72.2972 21.0456 71.8415 20.8633C71.3858 20.6764 70.9984 20.4189 70.6794 20.0908C70.3649 19.7627 70.1234 19.3822 69.9548 18.9492C69.7861 18.5117 69.7018 18.0469 69.7018 17.5547V17.2812C69.7018 16.7207 69.7816 16.208 69.9411 15.7432C70.1006 15.2783 70.3285 14.875 70.6247 14.5332C70.9255 14.1914 71.29 13.9294 71.7184 13.7471C72.1468 13.5602 72.6299 13.4668 73.1677 13.4668C73.6917 13.4668 74.1566 13.5534 74.5622 13.7266C74.9678 13.8997 75.3073 14.1458 75.5807 14.4648C75.8587 14.7839 76.0684 15.1667 76.2096 15.6133C76.3509 16.0553 76.4216 16.5475 76.4216 17.0898V17.9102H70.5427V16.5977H74.487V16.4473C74.487 16.1738 74.4369 15.93 74.3366 15.7158C74.2409 15.4971 74.0951 15.3239 73.8991 15.1963C73.7031 15.0687 73.4525 15.0049 73.1471 15.0049C72.8874 15.0049 72.6641 15.0618 72.4772 15.1758C72.2904 15.2897 72.1377 15.4492 72.0192 15.6543C71.9053 15.8594 71.8187 16.1009 71.7594 16.3789C71.7048 16.6523 71.6774 16.9531 71.6774 17.2812V17.5547C71.6774 17.8509 71.7184 18.1243 71.8005 18.375C71.8871 18.6257 72.0078 18.8421 72.1628 19.0244C72.3223 19.2067 72.5137 19.348 72.737 19.4482C72.9649 19.5485 73.2223 19.5986 73.5094 19.5986C73.8649 19.5986 74.1953 19.5303 74.5007 19.3936C74.8106 19.2523 75.0772 19.0404 75.3005 18.7578L76.2575 19.7969C76.1025 20.0202 75.8906 20.2344 75.6218 20.4395C75.3574 20.6445 75.0384 20.8132 74.6647 20.9453C74.291 21.0729 73.8649 21.1367 73.3864 21.1367Z" fill="#1E293B"/>
<path d="M85.0931 11.0469V21H83.0491V11.0469H85.0931ZM88.1556 11.0469V12.6533H80.0345V11.0469H88.1556Z" fill="#1E293B"/>
<path d="M87.6276 17.377V17.2334C87.6276 16.6911 87.705 16.1921 87.86 15.7363C88.0149 15.276 88.2405 14.8773 88.5368 14.54C88.833 14.2028 89.1976 13.9408 89.6305 13.7539C90.0634 13.5625 90.5602 13.4668 91.1207 13.4668C91.6813 13.4668 92.1803 13.5625 92.6178 13.7539C93.0553 13.9408 93.4222 14.2028 93.7184 14.54C94.0192 14.8773 94.247 15.276 94.402 15.7363C94.5569 16.1921 94.6344 16.6911 94.6344 17.2334V17.377C94.6344 17.9147 94.5569 18.4137 94.402 18.874C94.247 19.3298 94.0192 19.7285 93.7184 20.0703C93.4222 20.4076 93.0576 20.6696 92.6246 20.8564C92.1917 21.0433 91.695 21.1367 91.1344 21.1367C90.5739 21.1367 90.0748 21.0433 89.6373 20.8564C89.2044 20.6696 88.8375 20.4076 88.5368 20.0703C88.2405 19.7285 88.0149 19.3298 87.86 18.874C87.705 18.4137 87.6276 17.9147 87.6276 17.377ZM89.5963 17.2334V17.377C89.5963 17.6868 89.6237 17.9762 89.6784 18.2451C89.733 18.514 89.8196 18.751 89.9381 18.9561C90.0612 19.1566 90.2207 19.3138 90.4166 19.4277C90.6126 19.5417 90.8519 19.5986 91.1344 19.5986C91.4078 19.5986 91.6426 19.5417 91.8385 19.4277C92.0345 19.3138 92.1917 19.1566 92.3102 18.9561C92.4287 18.751 92.5153 18.514 92.57 18.2451C92.6292 17.9762 92.6588 17.6868 92.6588 17.377V17.2334C92.6588 16.9326 92.6292 16.6501 92.57 16.3857C92.5153 16.1169 92.4264 15.8799 92.3034 15.6748C92.1849 15.4652 92.0276 15.3011 91.8317 15.1826C91.6357 15.0641 91.3987 15.0049 91.1207 15.0049C90.8427 15.0049 90.6058 15.0641 90.4098 15.1826C90.2184 15.3011 90.0612 15.4652 89.9381 15.6748C89.8196 15.8799 89.733 16.1169 89.6784 16.3857C89.6237 16.6501 89.5963 16.9326 89.5963 17.2334Z" fill="#1E293B"/>
<path d="M95.4599 17.377V17.2334C95.4599 16.6911 95.5374 16.1921 95.6923 15.7363C95.8473 15.276 96.0729 14.8773 96.3691 14.54C96.6653 14.2028 97.0299 13.9408 97.4629 13.7539C97.8958 13.5625 98.3925 13.4668 98.9531 13.4668C99.5136 13.4668 100.013 13.5625 100.45 13.7539C100.888 13.9408 101.255 14.2028 101.551 14.54C101.852 14.8773 102.079 15.276 102.234 15.7363C102.389 16.1921 102.467 16.6911 102.467 17.2334V17.377C102.467 17.9147 102.389 18.4137 102.234 18.874C102.079 19.3298 101.852 19.7285 101.551 20.0703C101.255 20.4076 100.89 20.6696 100.457 20.8564C100.024 21.0433 99.5273 21.1367 98.9668 21.1367C98.4062 21.1367 97.9072 21.0433 97.4697 20.8564C97.0367 20.6696 96.6699 20.4076 96.3691 20.0703C96.0729 19.7285 95.8473 19.3298 95.6923 18.874C95.5374 18.4137 95.4599 17.9147 95.4599 17.377ZM97.4287 17.2334V17.377C97.4287 17.6868 97.456 17.9762 97.5107 18.2451C97.5654 18.514 97.652 18.751 97.7705 18.9561C97.8935 19.1566 98.053 19.3138 98.249 19.4277C98.4449 19.5417 98.6842 19.5986 98.9668 19.5986C99.2402 19.5986 99.4749 19.5417 99.6709 19.4277C99.8668 19.3138 100.024 19.1566 100.143 18.9561C100.261 18.751 100.348 18.514 100.402 18.2451C100.462 17.9762 100.491 17.6868 100.491 17.377V17.2334C100.491 16.9326 100.462 16.6501 100.402 16.3857C100.348 16.1169 100.259 15.8799 100.136 15.6748C100.017 15.4652 99.86 15.3011 99.664 15.1826C99.4681 15.0641 99.2311 15.0049 98.9531 15.0049C98.6751 15.0049 98.4381 15.0641 98.2421 15.1826C98.0507 15.3011 97.8935 15.4652 97.7705 15.6748C97.652 15.8799 97.5654 16.1169 97.5107 16.3857C97.456 16.6501 97.4287 16.9326 97.4287 17.2334Z" fill="#1E293B"/>
<path d="M105.685 10.5V21H103.709V10.5H105.685Z" fill="#1E293B"/>
<path d="M111.241 18.9561C111.241 18.8148 111.2 18.6872 111.118 18.5732C111.036 18.4593 110.883 18.3545 110.66 18.2588C110.441 18.1585 110.124 18.0674 109.71 17.9854C109.336 17.9033 108.987 17.8008 108.664 17.6777C108.345 17.5501 108.067 17.3975 107.83 17.2197C107.597 17.042 107.415 16.8324 107.283 16.5908C107.151 16.3447 107.085 16.0645 107.085 15.75C107.085 15.4401 107.151 15.1484 107.283 14.875C107.42 14.6016 107.613 14.36 107.864 14.1504C108.119 13.9362 108.429 13.7699 108.794 13.6514C109.163 13.5283 109.577 13.4668 110.038 13.4668C110.68 13.4668 111.232 13.5693 111.692 13.7744C112.157 13.9795 112.512 14.262 112.758 14.6221C113.009 14.9775 113.134 15.3831 113.134 15.8389H111.166C111.166 15.6475 111.125 15.4766 111.043 15.3262C110.965 15.1712 110.842 15.0505 110.673 14.9639C110.509 14.8727 110.295 14.8271 110.031 14.8271C109.812 14.8271 109.623 14.8659 109.463 14.9434C109.304 15.0163 109.181 15.1165 109.094 15.2441C109.012 15.3672 108.971 15.5039 108.971 15.6543C108.971 15.7682 108.994 15.8708 109.04 15.9619C109.09 16.0485 109.17 16.1283 109.279 16.2012C109.388 16.2741 109.53 16.3424 109.703 16.4062C109.88 16.4655 110.099 16.5202 110.359 16.5703C110.892 16.6797 111.368 16.8232 111.788 17.001C112.207 17.1742 112.54 17.4111 112.786 17.7119C113.032 18.0081 113.155 18.3978 113.155 18.8809C113.155 19.209 113.082 19.5098 112.936 19.7832C112.79 20.0566 112.581 20.2959 112.307 20.501C112.034 20.7015 111.706 20.8587 111.323 20.9727C110.945 21.082 110.518 21.1367 110.045 21.1367C109.356 21.1367 108.773 21.0137 108.295 20.7676C107.821 20.5215 107.461 20.2093 107.214 19.8311C106.973 19.4482 106.852 19.0563 106.852 18.6553H108.718C108.727 18.9242 108.796 19.1406 108.923 19.3047C109.056 19.4688 109.222 19.5872 109.422 19.6602C109.628 19.7331 109.849 19.7695 110.086 19.7695C110.341 19.7695 110.553 19.7354 110.721 19.667C110.89 19.5941 111.018 19.4984 111.104 19.3799C111.195 19.2568 111.241 19.1156 111.241 18.9561Z" fill="#1E293B"/>
</svg>
