<svg width="570" height="468" viewBox="0 0 570 468" fill="none" xmlns="http://www.w3.org/2000/svg">
<rect y="0.313477" width="570" height="467" rx="8" fill="#F5F3F0"/>
<path d="M495.829 25.6289H403.36C389.594 25.6289 378.434 36.7888 378.434 50.5553V161.518C378.434 175.285 389.594 186.444 403.36 186.444H495.829C509.596 186.444 520.756 175.285 520.756 161.518V50.5553C520.756 36.7888 509.596 25.6289 495.829 25.6289Z" fill="#CBC7DB"/>
<path d="M202.743 107.563C195.244 108.68 188.081 111.425 181.756 115.604C159.162 130.56 156.991 158.381 156.75 162.562" fill="#80A5AE"/>
<path d="M283.553 203.732H282.105C273.922 202.919 266.071 200.072 259.27 195.45C253.21 191.143 248.251 185.468 244.796 178.886C244.653 178.699 244.552 178.483 244.502 178.253C244.451 178.023 244.451 177.785 244.503 177.555C244.554 177.325 244.656 177.109 244.8 176.923C244.944 176.737 245.127 176.584 245.337 176.477C245.546 176.369 245.776 176.309 246.012 176.3C246.247 176.291 246.482 176.334 246.698 176.426C246.915 176.517 247.109 176.656 247.267 176.831C247.425 177.006 247.542 177.213 247.61 177.439C250.836 183.553 255.466 188.817 261.119 192.796C267.427 197.125 274.731 199.781 282.347 200.516C282.668 200.596 319.173 202.526 352.945 161.116H353.025C353.662 160.31 354.39 159.581 355.196 158.945C356.484 157.991 357.967 157.332 359.538 157.015C360.523 156.851 361.458 156.467 362.272 155.889C363.156 155.246 364.765 153.799 364.604 152.432C364.443 151.065 364.363 151.628 364.202 151.547C364.041 151.467 361.87 151.949 360.985 152.271C360.101 152.593 357.93 153.477 356.965 152.271C356 151.065 356.965 149.055 359.94 145.275C360.664 144.311 361.307 143.426 361.95 142.702C364.041 140.049 365.006 138.843 365.649 136.752C366.292 134.662 366.051 134.42 365.971 134.34C365.89 134.26 365.488 133.858 362.674 134.742C361.606 135.168 360.665 135.86 359.94 136.752C358.872 138.189 357.382 139.257 355.678 139.808C354.955 139.969 353.025 140.531 351.98 139.245C350.934 137.958 351.899 135.787 352.864 134.34C353.84 132.868 355.131 131.632 356.643 130.722C357.769 129.998 358.332 129.596 358.654 128.711C358.975 127.827 358.975 127.264 358.814 127.184C358.654 127.103 357.689 126.701 356.402 126.862C353.668 127.184 351.819 129.676 350.452 131.445C349.085 133.214 348.201 134.34 346.592 133.777C344.984 133.214 345.306 131.526 345.788 128.872C346.267 126.353 346.536 123.798 346.592 121.233C346.592 119.947 346.351 119.625 346.271 119.545C346.19 119.465 345.708 119.384 344.743 119.706C343.778 120.027 342.492 121.233 341.768 125.334V125.576C340.964 129.515 334.37 138.28 286.045 168.594C285.866 168.716 285.663 168.8 285.45 168.842C285.237 168.883 285.018 168.881 284.806 168.836C284.594 168.791 284.393 168.703 284.215 168.578C284.038 168.453 283.888 168.293 283.774 168.108C283.66 167.924 283.584 167.718 283.552 167.503C283.519 167.289 283.531 167.07 283.585 166.86C283.64 166.65 283.736 166.453 283.869 166.281C284.001 166.109 284.167 165.966 284.357 165.86C330.27 137.074 338.069 127.907 338.632 124.932V124.771C339.597 119.384 341.848 117.454 343.617 116.731C345.386 116.007 346.994 116.087 348.12 116.972C349.246 117.856 349.809 120.349 349.809 121.233C349.786 123.446 349.571 125.652 349.165 127.827C350.774 126.058 352.945 124.048 355.92 123.646C357.126 123.485 360.101 123.324 361.468 125.334C362.835 127.344 362.513 127.586 361.709 129.837C361.063 131.343 359.931 132.589 358.493 133.375C357.313 134.058 356.298 134.991 355.518 136.109L355.276 136.511C356.191 136.055 356.989 135.395 357.608 134.581C358.66 133.234 360.087 132.227 361.709 131.686C363.237 131.204 366.534 130.159 368.383 132.169C370.232 134.179 369.187 136.27 368.705 137.717C367.9 140.371 366.694 141.898 364.443 144.713L362.433 147.205L361.307 148.653C362.915 148.17 364.684 147.848 366.131 148.974C366.614 149.328 367.009 149.787 367.288 150.316C367.567 150.846 367.721 151.432 367.74 152.03C368.222 155.407 365.086 157.899 364.121 158.543C362.972 159.361 361.653 159.911 360.262 160.151C359.125 160.358 358.051 160.826 357.126 161.518C356.529 161.989 355.989 162.529 355.518 163.126V163.287C337.346 185.56 318.45 195.369 305.745 199.711C294.89 203.249 286.769 203.732 283.553 203.732Z" fill="#090909"/>
<path d="M250.747 148.572H181.757V197.565H250.747V148.572Z" fill="#80A5AE"/>
<path d="M213.812 177.197L130.863 199.733L145.542 253.763L228.491 231.226L213.812 177.197Z" fill="#CBC7DB"/>
<path d="M203.94 186.373L140.623 203.576L151.82 244.787L215.137 227.584L203.94 186.373Z" fill="#F5F3F0"/>
<path d="M159.725 158.543C156.527 163.83 154.167 169.58 152.73 175.589C143.805 213.14 176.048 246.831 178.702 249.565C178.949 249.981 179.312 250.316 179.747 250.529C180.419 250.817 181.167 250.878 181.878 250.704C182.588 250.53 183.223 250.13 183.687 249.565C184.33 248.68 184.008 247.956 184.732 247.554C185.456 247.152 185.697 247.554 186.742 247.554C187.508 247.539 188.261 247.35 188.943 247.002C189.626 246.654 190.22 246.155 190.682 245.544C191.326 244.66 191.084 244.258 191.728 243.534C192.371 242.81 193.577 243.052 194.703 242.569C197.115 241.443 198.482 236.378 197.678 232.599C197.597 231.794 197.356 231.151 197.678 230.588C197.999 230.025 200.09 230.428 202.743 229.543C203.708 229.221 205.156 228.819 205.719 227.533C206.281 226.246 205.477 224.477 204.673 223.593C203.657 222.454 202.252 221.737 200.733 221.583C195.346 220.537 188.833 206.305 186.742 190.545C185.716 182.914 185.716 175.18 186.742 167.549" fill="#F5F3F0"/>
<path d="M180.952 252.458C180.279 252.462 179.615 252.296 179.023 251.976C178.407 251.726 177.896 251.272 177.575 250.689H177.495C173.635 246.749 142.196 213.219 151.121 175.267C152.639 169.119 155.078 163.236 158.358 157.818C158.588 157.475 158.936 157.228 159.336 157.124C159.736 157.021 160.161 157.067 160.529 157.255C160.717 157.363 160.881 157.508 161.012 157.681C161.143 157.853 161.238 158.051 161.29 158.261C161.343 158.471 161.352 158.69 161.318 158.904C161.284 159.118 161.207 159.323 161.092 159.507C158.014 164.635 155.711 170.189 154.257 175.99C145.653 212.496 176.369 244.9 179.827 248.518C179.987 248.599 180.068 248.759 180.229 248.92L180.389 249.161C180.736 249.28 181.109 249.298 181.465 249.212C181.821 249.127 182.145 248.942 182.4 248.679C182.528 248.547 182.613 248.379 182.641 248.197C182.692 247.807 182.825 247.433 183.034 247.1C183.242 246.767 183.519 246.483 183.847 246.267C184.169 246.071 184.527 245.941 184.9 245.886C185.273 245.83 185.653 245.851 186.018 245.945H186.742C187.249 245.924 187.746 245.799 188.202 245.578C188.659 245.356 189.065 245.044 189.395 244.659C189.509 244.487 189.591 244.297 189.636 244.096C189.821 243.465 190.151 242.886 190.601 242.407C191.302 241.696 192.256 241.292 193.255 241.282L194.059 241.121C195.506 240.397 196.793 236.296 196.149 232.919V232.597C195.988 232.107 195.933 231.588 195.988 231.075C196.044 230.562 196.208 230.067 196.471 229.622C197.275 228.416 198.642 228.416 199.687 228.416C200.584 228.378 201.473 228.243 202.341 228.014C203.064 227.773 204.11 227.451 204.351 226.889C204.592 226.326 204.11 225.28 203.547 224.637C202.8 223.806 201.765 223.289 200.652 223.19H200.491C193.576 221.903 187.144 205.42 185.214 190.866C184.168 183.101 184.168 175.232 185.214 167.467C185.233 167.258 185.295 167.056 185.396 166.872C185.497 166.688 185.635 166.527 185.801 166.399C185.967 166.271 186.158 166.178 186.361 166.127C186.564 166.075 186.776 166.066 186.983 166.1C187.195 166.12 187.4 166.182 187.588 166.282C187.775 166.382 187.941 166.518 188.076 166.683C188.21 166.847 188.311 167.037 188.372 167.241C188.433 167.444 188.452 167.658 188.43 167.869C187.399 175.364 187.372 182.962 188.35 190.464C190.521 206.143 196.953 219.25 201.054 220.054H201.215C203.07 220.334 204.773 221.243 206.04 222.627C207.165 223.913 208.13 226.245 207.246 228.255C206.361 230.266 204.431 230.829 203.306 231.15C202.156 231.492 200.967 231.681 199.768 231.713H199.124C199.154 231.746 199.176 231.784 199.19 231.825C199.203 231.867 199.209 231.911 199.205 231.954V232.356C200.089 236.618 198.562 242.568 195.345 244.096C194.754 244.34 194.132 244.503 193.496 244.578C192.933 244.578 192.933 244.659 192.772 244.739C192.611 244.819 192.692 244.819 192.692 245.061C192.524 245.601 192.28 246.116 191.968 246.588C191.344 247.406 190.541 248.069 189.622 248.529C188.702 248.989 187.689 249.233 186.661 249.242H185.616C185.475 249.768 185.229 250.261 184.892 250.689C184.403 251.252 183.797 251.702 183.117 252.007C182.437 252.312 181.698 252.466 180.952 252.458Z" fill="#090909"/>
<path d="M275.19 150.1C279.854 153.718 286.528 159.427 291.192 163.045L275.19 150.1Z" fill="#F5F3F0"/>
<path d="M291.192 164.653C290.841 164.674 290.495 164.559 290.227 164.332C287.815 162.482 285 160.151 282.186 157.819L274.226 151.306C274.012 151.2 273.825 151.048 273.677 150.862C273.529 150.675 273.425 150.457 273.371 150.225C273.318 149.993 273.316 149.752 273.368 149.519C273.419 149.286 273.521 149.068 273.667 148.88C273.812 148.691 273.998 148.538 274.211 148.43C274.423 148.322 274.657 148.263 274.895 148.256C275.133 148.25 275.37 148.297 275.588 148.393C275.806 148.489 276 148.633 276.155 148.813C278.568 150.662 281.462 153.075 284.196 155.326L292.157 161.839C292.335 161.958 292.486 162.114 292.6 162.295C292.715 162.477 292.789 162.681 292.82 162.893C292.85 163.105 292.835 163.322 292.777 163.528C292.718 163.734 292.616 163.926 292.478 164.091C292.32 164.276 292.123 164.422 291.9 164.52C291.677 164.617 291.435 164.663 291.192 164.653Z" fill="#090909"/>
<path d="M189.717 168.593C183.588 166.259 177.226 164.588 170.741 163.608C161.896 162.241 159.001 164.412 157.715 162.563C153.695 156.773 177.978 132.41 199.688 110.619C200.009 110.298 202.261 106.76 202.743 107.564C203.708 109.574 204.271 114.077 206.683 118.58C210.221 124.932 220.513 129.756 223.73 126.621C226.946 123.485 228.715 117.615 226.705 108.609C226.624 108.207 228.313 108.529 228.715 108.609C231.208 108.931 240.535 110.861 246.726 114.559C252.918 118.258 265.873 130.451 276.326 149.267" fill="#80A5AE"/>
<path d="M260.298 137.516L234.283 169.527L249.802 182.139L276.326 149.266L260.298 137.516Z" fill="#80A5AE"/>
<path d="M250.184 164.654C249.81 164.66 249.444 164.547 249.139 164.332C248.822 164.053 248.627 163.661 248.597 163.24C248.567 162.818 248.704 162.402 248.978 162.081L267.954 139.084C268.078 138.898 268.239 138.739 268.427 138.618C268.616 138.497 268.828 138.417 269.049 138.383C269.27 138.349 269.496 138.361 269.712 138.419C269.928 138.477 270.13 138.58 270.304 138.721C270.479 138.861 270.622 139.037 270.724 139.235C270.827 139.434 270.887 139.653 270.9 139.876C270.914 140.1 270.88 140.323 270.802 140.533C270.724 140.743 270.603 140.934 270.447 141.095L251.47 164.091C251.313 164.276 251.115 164.423 250.892 164.521C250.669 164.618 250.427 164.664 250.184 164.654Z" fill="#CBC7DB"/>
<path d="M220.353 128.791C217.575 128.671 214.868 127.87 212.473 126.459C202.341 120.991 199.205 106.196 200.653 94.8588C200.733 93.9743 203.708 71.4601 216.975 69.5303C223.167 68.6458 229.197 72.6662 232.494 77.1691C235.791 81.6719 237.64 90.0343 235.791 97.0298C234.424 101.935 231.69 105.794 228.152 107.885C230.243 114.639 229.358 124.529 225.097 127.424C223.685 128.338 222.034 128.813 220.353 128.791ZM218.744 72.5858H217.458C206.522 74.194 203.869 95.0196 203.789 95.1804C202.502 105.794 205.558 118.981 214 123.564C216.895 125.172 220.915 126.298 223.328 124.69C225.74 123.082 226.866 115.041 225.177 109.091C219.146 110.779 212.955 107.885 210.382 106.437C210.018 106.205 209.757 105.842 209.653 105.424C209.548 105.005 209.607 104.562 209.819 104.186C210.036 103.828 210.385 103.569 210.79 103.464C211.196 103.359 211.626 103.416 211.99 103.623C214.322 104.99 220.353 107.804 225.579 105.553C228.876 104.106 231.449 100.648 232.655 96.0649C234.263 90.1147 233.137 83.3604 229.921 78.938C226.705 74.5156 223.167 72.5858 218.744 72.5858Z" fill="#090909"/>
<path d="M239.329 419.224L231.69 418.983V416.249L200.251 417.053V418.983L200.09 442.221C200.069 442.868 200.177 443.512 200.41 444.116C200.643 444.72 200.995 445.271 201.445 445.737C201.895 446.202 202.434 446.572 203.03 446.824C203.626 447.076 204.267 447.206 204.915 447.206L251.712 447.769C252.708 447.77 253.666 447.385 254.386 446.696C255.105 446.006 255.53 445.066 255.571 444.07C255.973 430.401 253.24 419.385 239.329 419.224Z" fill="#090909"/>
<path d="M240.213 441.016C238.338 438.083 237.675 434.537 238.364 431.126C239.972 423.567 247.45 420.673 247.932 420.512" fill="#090909"/>
<path d="M198.16 443.186C200.975 439.809 205.317 443.267 208.694 443.669C210.199 443.859 211.728 443.637 213.116 443.025C216.976 441.658 220.112 440.854 224.132 442.141C226.544 442.865 228.394 443.749 230.967 443.669C236.756 443.347 241.259 439.809 247.048 442.06C252.838 444.312 255.25 442.865 259.753 440.694C261.12 440.05 259.914 437.96 258.466 438.603C257.019 439.246 253.159 441.176 250.023 440.613C248.979 440.281 247.958 439.878 246.968 439.407C245.013 438.699 242.908 438.505 240.857 438.844C238.525 439.246 236.274 440.131 234.022 440.694C230.082 441.658 227.831 440.613 224.132 439.568C221.875 438.98 219.519 438.87 217.217 439.246C213.92 439.729 211.508 441.819 208.05 441.096C204.593 440.372 199.768 437.477 196.391 441.498C195.426 442.704 197.115 444.392 198.16 443.186Z" fill="#F5F3F0"/>
<path d="M224.694 434.582L236.916 425.657L235.067 424.612C235.147 427.506 234.424 431.446 235.469 434.1C235.563 434.414 235.773 434.681 236.057 434.845C236.341 435.01 236.677 435.059 236.997 434.984C239.811 434.18 242.706 431.366 245.118 429.677C247.474 428.216 249.59 426.399 251.39 424.29C252.355 423.003 250.264 421.797 249.299 423.003C248.334 424.21 245.037 426.783 242.706 428.391C240.374 429.999 238.524 432.09 236.353 432.652L237.801 433.456C236.916 431.125 237.56 427.104 237.479 424.612C237.479 423.808 236.434 423.003 235.71 423.566L223.488 432.492C222.282 433.376 223.408 435.467 224.694 434.582Z" fill="#F5F3F0"/>
<path d="M239.329 419.224L231.69 418.983V416.249L200.251 417.053V418.983L200.09 442.221C200.069 442.868 200.177 443.512 200.41 444.116C200.643 444.72 200.995 445.271 201.445 445.737C201.895 446.202 202.434 446.572 203.03 446.824C203.626 447.076 204.267 447.206 204.915 447.206L251.712 447.769C252.708 447.77 253.666 447.385 254.386 446.696C255.105 446.006 255.53 445.066 255.571 444.07C255.973 430.401 253.24 419.385 239.329 419.224Z" fill="#090909"/>
<path d="M240.213 441.016C238.338 438.083 237.675 434.537 238.364 431.126C239.972 423.567 247.45 420.673 247.932 420.512" fill="#090909"/>
<path d="M104.082 400.65L100.866 393.735L103.278 392.528L90.8956 364.145L87.1968 365.914L65.8084 376.045C65.2256 376.328 64.7047 376.723 64.2756 377.209C63.8465 377.694 63.5179 378.259 63.3085 378.872C63.0992 379.485 63.0134 380.134 63.056 380.78C63.0987 381.427 63.2689 382.058 63.557 382.638L84.2217 424.611C84.656 425.5 85.4213 426.183 86.3533 426.513C87.2853 426.844 88.3098 426.796 89.207 426.38C101.67 420.51 110.193 413.113 104.082 400.65Z" fill="#090909"/>
<path d="M84.7046 411.425C86.6413 408.442 89.5776 406.247 92.9866 405.233C100.545 403.223 106.415 408.61 106.817 408.932" fill="#090909"/>
<path d="M450.399 170.604C486.858 170.604 516.414 141.048 516.414 104.589C516.414 68.13 486.858 38.5742 450.399 38.5742C413.94 38.5742 384.384 68.13 384.384 104.589C384.384 141.048 413.94 170.604 450.399 170.604Z" fill="#80A5AE"/>
<path d="M450.399 120.349C459.103 120.349 466.159 113.293 466.159 104.589C466.159 95.8851 459.103 88.8291 450.399 88.8291C441.695 88.8291 434.639 95.8851 434.639 104.589C434.639 113.293 441.695 120.349 450.399 120.349Z" fill="#F5F3F0"/>
<path d="M450.399 143.426C442.718 143.426 435.209 141.148 428.822 136.881C422.436 132.613 417.458 126.548 414.518 119.451C411.579 112.355 410.81 104.546 412.308 97.0122C413.807 89.4786 417.506 82.5585 422.937 77.127C428.369 71.6956 435.289 67.9967 442.822 66.4982C450.356 64.9997 458.165 65.7688 465.261 68.7083C472.358 71.6477 478.423 76.6256 482.691 83.0123C486.958 89.399 489.236 96.9077 489.236 104.589C489.215 114.883 485.116 124.749 477.837 132.027C470.559 139.306 460.693 143.405 450.399 143.426ZM450.399 68.9683C443.354 68.9683 436.467 71.0574 430.609 74.9714C424.751 78.8855 420.186 84.4487 417.49 90.9575C414.794 97.4663 414.088 104.628 415.463 111.538C416.837 118.448 420.23 124.795 425.211 129.777C430.193 134.758 436.54 138.151 443.45 139.525C450.36 140.9 457.522 140.194 464.03 137.498C470.539 134.802 476.102 130.236 480.016 124.379C483.931 118.521 486.02 111.634 486.02 104.589C485.998 95.1483 482.239 86.1003 475.563 79.4248C468.888 72.7492 459.84 68.9895 450.399 68.9683Z" fill="#F5F3F0"/>
<path d="M226.705 174.624C227.815 174.624 228.715 173.724 228.715 172.614C228.715 171.504 227.815 170.604 226.705 170.604C225.594 170.604 224.694 171.504 224.694 172.614C224.694 173.724 225.594 174.624 226.705 174.624Z" fill="#CBC7DB"/>
<path d="M226.705 158.623C227.815 158.623 228.715 157.723 228.715 156.613C228.715 155.503 227.815 154.603 226.705 154.603C225.594 154.603 224.694 155.503 224.694 156.613C224.694 157.723 225.594 158.623 226.705 158.623Z" fill="#CBC7DB"/>
<path d="M450.399 160.713C418.396 160.713 392.344 135.545 392.344 104.588C392.344 73.6315 418.396 48.4639 450.399 48.4639C482.401 48.4639 508.533 73.6315 508.533 104.588C508.533 135.545 482.481 160.713 450.399 160.713ZM450.399 51.6802C420.165 51.6802 395.561 75.4005 395.561 104.588C395.561 133.776 420.165 157.497 450.399 157.497C480.632 157.497 505.317 133.776 505.317 104.588C505.317 75.4005 480.632 51.6802 450.399 51.6802Z" fill="#F5F3F0"/>
<path d="M441.313 103.544C441.086 103.576 440.855 103.518 440.67 103.383L412.366 90.6785C411.987 90.5029 411.69 90.1865 411.54 89.7962C411.39 89.4059 411.398 88.9725 411.562 88.5879C411.64 88.3927 411.758 88.2157 411.908 88.0681C412.057 87.9204 412.236 87.8052 412.432 87.7298C412.628 87.6543 412.838 87.6201 413.048 87.6294C413.258 87.6387 413.464 87.6913 413.653 87.7838L441.956 100.488C442.28 100.644 442.542 100.905 442.701 101.227C442.859 101.55 442.905 101.916 442.831 102.268C442.757 102.62 442.567 102.936 442.292 103.168C442.017 103.399 441.672 103.531 441.313 103.544Z" fill="#CBC7DB"/>
<path d="M416.709 92.4476C416.347 92.4454 415.995 92.327 415.706 92.1099C415.416 91.8927 415.204 91.5883 415.101 91.2414L413.492 85.05C413.417 84.6359 413.498 84.2084 413.722 83.8514C413.945 83.4944 414.293 83.2337 414.698 83.1202C415.103 83.0213 415.531 83.0833 415.891 83.2933C416.251 83.5033 416.515 83.8448 416.628 84.2459L418.236 90.4374C418.338 90.8527 418.279 91.2912 418.07 91.6643C417.861 92.0374 417.518 92.3173 417.111 92.4476H416.709Z" fill="#CBC7DB"/>
<path d="M421.211 94.5381C420.856 94.546 420.509 94.4299 420.23 94.2098C419.951 93.9897 419.758 93.6793 419.683 93.332L418.075 87.1406C418.015 86.9399 417.996 86.729 418.021 86.5209C418.046 86.3128 418.113 86.112 418.218 85.931C418.324 85.75 418.466 85.5927 418.635 85.4688C418.804 85.3449 418.996 85.2571 419.201 85.2108C419.406 85.1498 419.623 85.1306 419.836 85.1545C420.049 85.1783 420.256 85.2446 420.443 85.3496C420.631 85.4545 420.795 85.5959 420.927 85.7654C421.059 85.9349 421.155 86.1291 421.211 86.3365L422.819 92.5279C422.867 92.7338 422.873 92.9471 422.838 93.1556C422.804 93.364 422.728 93.5636 422.616 93.7428C422.504 93.922 422.358 94.0774 422.186 94.2001C422.013 94.3227 421.819 94.4103 421.613 94.4577L421.211 94.5381Z" fill="#CBC7DB"/>
<path d="M410.999 95.4222C410.701 95.4156 410.41 95.3303 410.156 95.1749C409.902 95.0196 409.693 94.7997 409.552 94.5377C409.455 94.3479 409.398 94.1409 409.382 93.9286C409.366 93.7163 409.393 93.503 409.46 93.301C409.527 93.0991 409.634 92.9125 409.774 92.7521C409.914 92.5917 410.084 92.4607 410.275 92.3667L415.984 89.4721C416.345 89.3623 416.732 89.3826 417.079 89.5294C417.426 89.6761 417.71 89.94 417.883 90.275C418.055 90.61 418.104 90.9949 418.022 91.3625C417.939 91.73 417.731 92.057 417.432 92.2863L411.723 95.2614L410.999 95.4222Z" fill="#CBC7DB"/>
<path d="M416.467 97.8343C416.206 97.8293 415.95 97.7694 415.715 97.6586C415.479 97.5477 415.269 97.3884 415.1 97.191C414.977 97.0172 414.89 96.8208 414.844 96.6131C414.798 96.4055 414.793 96.1908 414.831 95.9814C414.868 95.772 414.947 95.5721 415.062 95.3933C415.177 95.2144 415.327 95.0602 415.502 94.9396L420.326 91.6429C420.496 91.5088 420.692 91.4122 420.901 91.3595C421.111 91.3069 421.33 91.2993 421.542 91.3373C421.755 91.3753 421.957 91.458 422.136 91.58C422.314 91.702 422.465 91.8604 422.578 92.0449C422.698 92.2123 422.784 92.4024 422.829 92.6037C422.874 92.805 422.878 93.0134 422.84 93.2163C422.803 93.4192 422.725 93.6123 422.61 93.7841C422.496 93.9559 422.348 94.1028 422.176 94.2159L417.351 97.593C417.086 97.7576 416.779 97.8414 416.467 97.8343Z" fill="#CBC7DB"/>
<path d="M500.252 140.531C500.025 140.549 499.8 140.492 499.608 140.37L471.385 127.746C471.187 127.66 471.009 127.534 470.86 127.377C470.712 127.22 470.597 127.034 470.522 126.832C470.447 126.629 470.413 126.413 470.424 126.197C470.434 125.981 470.487 125.77 470.581 125.575C470.659 125.38 470.777 125.203 470.927 125.055C471.076 124.908 471.255 124.793 471.451 124.717C471.647 124.642 471.857 124.607 472.067 124.617C472.277 124.626 472.483 124.679 472.672 124.771L500.975 137.476C501.355 137.651 501.651 137.968 501.801 138.358C501.951 138.748 501.943 139.182 501.779 139.566C501.642 139.855 501.426 140.099 501.155 140.27C500.885 140.441 500.571 140.531 500.252 140.531Z" fill="#CBC7DB"/>
<path d="M498.242 145.115C497.886 145.123 497.54 145.007 497.261 144.786C496.982 144.566 496.789 144.256 496.714 143.909L495.106 137.717C495.004 137.504 494.95 137.27 494.949 137.033C494.947 136.797 494.998 136.563 495.098 136.348C495.197 136.133 495.343 135.943 495.525 135.791C495.706 135.639 495.919 135.529 496.148 135.469C496.376 135.409 496.616 135.4 496.849 135.443C497.081 135.486 497.302 135.579 497.494 135.717C497.687 135.855 497.846 136.034 497.961 136.241C498.077 136.447 498.145 136.677 498.161 136.913L499.769 143.104C499.83 143.305 499.848 143.516 499.823 143.724C499.799 143.932 499.731 144.133 499.626 144.314C499.52 144.495 499.379 144.652 499.21 144.776C499.041 144.9 498.848 144.988 498.644 145.034L498.242 145.115Z" fill="#CBC7DB"/>
<path d="M493.658 143.024C493.303 143.032 492.956 142.916 492.677 142.696C492.398 142.476 492.205 142.165 492.13 141.818L490.522 135.627C490.423 135.222 490.485 134.794 490.695 134.434C490.905 134.074 491.247 133.81 491.648 133.697C492.063 133.595 492.502 133.655 492.875 133.864C493.248 134.073 493.528 134.415 493.658 134.823L495.266 141.014C495.365 141.44 495.294 141.888 495.069 142.263C494.844 142.637 494.482 142.911 494.06 143.024H493.658Z" fill="#CBC7DB"/>
<path d="M496.633 138.923C496.335 138.916 496.045 138.831 495.791 138.675C495.536 138.52 495.328 138.3 495.186 138.038C495.09 137.848 495.032 137.641 495.016 137.429C495 137.217 495.027 137.004 495.094 136.802C495.161 136.6 495.268 136.413 495.408 136.253C495.548 136.092 495.719 135.961 495.91 135.867L501.619 132.973C501.801 132.862 502.004 132.79 502.216 132.763C502.427 132.735 502.642 132.752 502.847 132.813C503.051 132.874 503.241 132.976 503.403 133.115C503.566 133.253 503.697 133.424 503.79 133.616C503.886 133.806 503.944 134.013 503.96 134.225C503.975 134.437 503.949 134.651 503.881 134.853C503.814 135.055 503.707 135.241 503.567 135.401C503.427 135.562 503.257 135.693 503.066 135.787L497.357 138.762L496.633 138.923Z" fill="#CBC7DB"/>
<path d="M492.05 136.832C491.802 136.827 491.557 136.766 491.335 136.655C491.113 136.543 490.918 136.384 490.764 136.189C490.641 136.015 490.554 135.819 490.508 135.611C490.462 135.404 490.457 135.189 490.495 134.98C490.532 134.77 490.611 134.57 490.726 134.391C490.841 134.213 490.991 134.058 491.166 133.938L495.91 130.561C496.084 130.438 496.28 130.351 496.488 130.305C496.695 130.259 496.91 130.254 497.119 130.292C497.329 130.329 497.529 130.408 497.708 130.523C497.886 130.638 498.041 130.787 498.161 130.963C498.284 131.136 498.371 131.333 498.417 131.541C498.463 131.748 498.468 131.963 498.43 132.172C498.393 132.382 498.314 132.582 498.199 132.76C498.084 132.939 497.934 133.093 497.759 133.214L493.015 136.591C492.717 136.745 492.386 136.828 492.05 136.832Z" fill="#CBC7DB"/>
<path d="M339.838 160.794C339.558 160.798 339.283 160.725 339.042 160.583C338.801 160.441 338.604 160.236 338.471 159.99C338.256 159.635 338.187 159.212 338.277 158.807C338.366 158.403 338.609 158.049 338.954 157.819L374.494 136.189C374.862 136.001 375.286 135.954 375.686 136.058C376.086 136.162 376.435 136.409 376.665 136.752C376.782 136.924 376.862 137.119 376.902 137.323C376.941 137.528 376.938 137.738 376.892 137.942C376.847 138.145 376.761 138.337 376.639 138.506C376.517 138.674 376.361 138.816 376.182 138.923L340.642 160.553C340.402 160.706 340.123 160.79 339.838 160.794Z" fill="#CBC7DB"/>
<path d="M344.422 157.98H343.859L335.818 155.086C335.616 155.014 335.43 154.903 335.272 154.758C335.113 154.613 334.985 154.438 334.895 154.244C334.805 154.049 334.755 153.838 334.748 153.624C334.741 153.409 334.777 153.195 334.853 152.995C334.999 152.606 335.289 152.287 335.664 152.108C336.039 151.928 336.469 151.9 336.863 152.03L344.985 155.005C345.374 155.151 345.692 155.441 345.872 155.816C346.052 156.191 346.08 156.621 345.95 157.015C345.812 157.304 345.596 157.549 345.326 157.719C345.055 157.89 344.742 157.981 344.422 157.98Z" fill="#CBC7DB"/>
<path d="M350.13 154.522H349.567L341.527 151.547C341.3 151.498 341.088 151.401 340.903 151.262C340.717 151.124 340.564 150.947 340.454 150.743C340.344 150.54 340.278 150.315 340.263 150.085C340.247 149.854 340.281 149.623 340.363 149.406C340.445 149.19 340.572 148.994 340.737 148.831C340.901 148.669 341.099 148.544 341.316 148.464C341.534 148.385 341.765 148.354 341.996 148.372C342.227 148.391 342.45 148.459 342.652 148.572L350.693 151.467C351.062 151.587 351.376 151.837 351.575 152.17C351.774 152.503 351.846 152.898 351.778 153.28C351.709 153.662 351.505 154.007 351.202 154.25C350.899 154.493 350.518 154.618 350.13 154.603V154.522Z" fill="#CBC7DB"/>
<path d="M343.295 166.503H343.134C342.923 166.483 342.717 166.421 342.53 166.321C342.342 166.221 342.176 166.085 342.042 165.92C341.907 165.756 341.807 165.566 341.746 165.363C341.685 165.159 341.665 164.945 341.687 164.734L342.813 156.211C342.872 155.792 343.087 155.41 343.415 155.142C343.743 154.874 344.159 154.739 344.582 154.764C345.007 154.841 345.39 155.073 345.656 155.413C345.923 155.754 346.056 156.181 346.029 156.613L344.903 165.136C344.845 165.52 344.65 165.869 344.355 166.12C344.059 166.372 343.683 166.507 343.295 166.503Z" fill="#CBC7DB"/>
<path d="M350.211 162.322C349.785 162.322 349.376 162.152 349.074 161.851C348.772 161.549 348.603 161.14 348.603 160.713V152.914C348.603 152.487 348.772 152.078 349.074 151.777C349.376 151.475 349.785 151.306 350.211 151.306C350.638 151.306 351.047 151.475 351.348 151.777C351.65 152.078 351.819 152.487 351.819 152.914V160.713C351.819 161.14 351.65 161.549 351.348 161.851C351.047 162.152 350.638 162.322 350.211 162.322Z" fill="#CBC7DB"/>
<path d="M448.71 106.68C448.382 106.673 448.062 106.571 447.79 106.385C447.519 106.2 447.308 105.939 447.183 105.635L436.086 76.6879C436.01 76.4875 435.974 76.2737 435.981 76.0593C435.988 75.8448 436.038 75.634 436.128 75.4392C436.218 75.2444 436.346 75.0695 436.504 74.9249C436.663 74.7803 436.849 74.6689 437.051 74.5973C437.457 74.4637 437.898 74.4891 438.286 74.6681C438.674 74.8472 438.98 75.1667 439.142 75.5622L450.238 104.509C450.315 104.709 450.351 104.923 450.343 105.138C450.336 105.352 450.286 105.563 450.196 105.758C450.106 105.952 449.978 106.127 449.82 106.272C449.661 106.416 449.475 106.528 449.273 106.6L448.71 106.68Z" fill="#CBC7DB"/>
<path d="M439.062 81.4315C438.783 81.467 438.501 81.4105 438.258 81.2707C437.88 81.0513 437.602 80.6943 437.482 80.2746C437.363 79.8548 437.41 79.4049 437.614 79.0192L440.911 73.5515C440.995 73.3332 441.125 73.1357 441.292 72.9727C441.46 72.8098 441.661 72.6853 441.882 72.608C442.102 72.5307 442.337 72.5025 442.57 72.5252C442.802 72.5479 443.027 72.6211 443.229 72.7396C443.43 72.8581 443.603 73.0191 443.736 73.2114C443.869 73.4037 443.959 73.6227 443.998 73.8531C444.038 74.0834 444.027 74.3197 443.966 74.5453C443.905 74.771 443.795 74.9806 443.645 75.1597L440.429 80.7078C440.28 80.9336 440.077 81.1183 439.838 81.2448C439.599 81.3713 439.332 81.4355 439.062 81.4315Z" fill="#CBC7DB"/>
<path d="M440.831 86.095C440.553 86.12 440.274 86.0641 440.027 85.9341C439.839 85.8265 439.674 85.6819 439.543 85.509C439.412 85.3362 439.318 85.1387 439.265 84.9284C439.213 84.7181 439.203 84.4994 439.237 84.2853C439.271 84.0712 439.349 83.8663 439.464 83.6827L442.68 78.215C442.78 78.0294 442.917 77.8665 443.082 77.7364C443.248 77.6063 443.439 77.5119 443.643 77.459C443.847 77.4062 444.059 77.3961 444.267 77.4293C444.475 77.4625 444.674 77.5384 444.851 77.6521C445.223 77.8561 445.499 78.1987 445.62 78.6053C445.74 79.0119 445.695 79.4496 445.494 79.8231L442.198 85.3713C442.055 85.6026 441.853 85.7917 441.613 85.9189C441.372 86.0461 441.102 86.1069 440.831 86.095Z" fill="#CBC7DB"/>
<path d="M439.062 81.4315H438.579L432.468 79.4213C432.262 79.3673 432.069 79.2705 431.902 79.1374C431.735 79.0042 431.598 78.8376 431.499 78.6482C431.401 78.4588 431.343 78.2508 431.33 78.0377C431.317 77.8247 431.348 77.6112 431.423 77.4111C431.552 77.0069 431.836 76.6701 432.213 76.4743C432.589 76.2785 433.028 76.2395 433.433 76.3658L439.544 78.2956C439.943 78.4574 440.269 78.7589 440.461 79.1437C440.654 79.5285 440.699 79.9702 440.589 80.3862C440.464 80.6903 440.253 80.9512 439.981 81.1368C439.71 81.3225 439.39 81.4249 439.062 81.4315Z" fill="#CBC7DB"/>
<path d="M440.831 86.0945H440.59L434.8 85.1296C434.38 85.0331 434.013 84.7794 433.773 84.4206C433.534 84.0617 433.441 83.625 433.514 83.1999C433.592 82.7859 433.83 82.4192 434.176 82.1786C434.521 81.9381 434.948 81.8428 435.363 81.9133L441.072 82.9586C441.284 82.988 441.489 83.0595 441.673 83.1689C441.857 83.2783 442.017 83.4234 442.145 83.5957C442.272 83.768 442.364 83.964 442.414 84.1722C442.465 84.3803 442.473 84.5965 442.439 84.808C442.38 85.1844 442.182 85.525 441.884 85.763C441.587 86.001 441.211 86.1192 440.831 86.0945Z" fill="#CBC7DB"/>
<path d="M468.973 79.3418C468.631 79.3096 468.301 79.1995 468.009 79.0201C467.667 78.7642 467.442 78.3833 467.381 77.961C467.321 77.5388 467.431 77.1099 467.687 76.7687L486.422 52.0835C486.692 51.737 487.087 51.5095 487.523 51.4494C487.958 51.3894 488.4 51.5015 488.754 51.7619C489.083 52.0296 489.292 52.4163 489.338 52.838C489.383 53.2596 489.26 53.6821 488.995 54.0133L470.26 78.6985C470.106 78.8938 469.911 79.0528 469.689 79.164C469.466 79.2752 469.222 79.3359 468.973 79.3418Z" fill="#CBC7DB"/>
<path d="M485.296 57.7912C484.889 57.7736 484.502 57.6092 484.206 57.3284C483.91 57.0476 483.726 56.6693 483.688 56.2634C483.706 55.8348 483.879 55.4273 484.174 55.1167C484.47 54.8061 484.869 54.6135 485.296 54.5749L491.648 54.4141H491.729C492.155 54.4141 492.564 54.5835 492.866 54.8851C493.167 55.1867 493.337 55.5957 493.337 56.0222C493.337 56.4487 493.167 56.8578 492.866 57.1593C492.564 57.4609 492.155 57.6304 491.729 57.6304L485.377 57.7912H485.296Z" fill="#CBC7DB"/>
<path d="M482.321 61.8128C481.894 61.8128 481.485 61.6434 481.184 61.3418C480.882 61.0402 480.713 60.6312 480.713 60.2047C480.702 59.9974 480.733 59.7901 480.805 59.5953C480.877 59.4006 480.988 59.2225 481.131 59.072C481.274 58.9215 481.446 58.8018 481.636 58.72C481.827 58.6383 482.033 58.5962 482.24 58.5965L488.673 58.4357C488.88 58.4248 489.088 58.4562 489.282 58.5281C489.477 58.6 489.655 58.7108 489.806 58.8537C489.956 58.9967 490.076 59.1688 490.158 59.3596C490.239 59.5504 490.281 59.7559 490.281 59.9635C490.304 60.1772 490.281 60.3933 490.214 60.5976C490.148 60.8019 490.039 60.9899 489.895 61.1493C489.751 61.3086 489.574 61.4358 489.378 61.5224C489.181 61.6091 488.968 61.6532 488.753 61.652L482.321 61.8128Z" fill="#CBC7DB"/>
<path d="M485.295 57.7914C484.94 57.7993 484.593 57.6832 484.315 57.4631C484.036 57.243 483.842 56.9326 483.768 56.5853L482.24 50.3939C482.18 50.1932 482.161 49.9823 482.186 49.7742C482.211 49.5661 482.278 49.3653 482.383 49.1843C482.489 49.0033 482.631 48.846 482.8 48.7221C482.969 48.5982 483.161 48.5103 483.366 48.4641C483.566 48.4038 483.777 48.3854 483.985 48.41C484.193 48.4347 484.394 48.5019 484.575 48.6075C484.756 48.7131 484.914 48.8548 485.037 49.0238C485.161 49.1928 485.249 49.3854 485.295 49.5898L486.904 55.7812C487.002 56.2072 486.931 56.6548 486.706 57.0297C486.481 57.4046 486.12 57.6777 485.697 57.7914H485.295Z" fill="#CBC7DB"/>
<path d="M482.321 61.8118C481.992 61.8052 481.672 61.7028 481.401 61.5171C481.13 61.3314 480.918 61.0705 480.793 60.7665L478.622 55.3792C478.463 54.9846 478.467 54.543 478.632 54.1512C478.798 53.7593 479.113 53.4491 479.507 53.2886C479.901 53.1295 480.343 53.1332 480.735 53.299C481.126 53.4647 481.437 53.7791 481.597 54.173L483.768 59.5604C483.927 59.955 483.924 60.3965 483.758 60.7884C483.592 61.1802 483.278 61.4904 482.884 61.651L482.321 61.8118Z" fill="#CBC7DB"/>
<path d="M130.456 49.7509C127.32 49.7509 126.034 44.5244 125.551 40.5844C121.772 40.1823 115.661 39.0566 115.661 35.5991C115.661 32.1416 121.692 31.0159 125.39 30.6138C125.712 26.5934 126.918 20 130.456 20C133.994 20 135.2 26.5934 135.602 30.6138C139.301 31.0159 145.332 32.222 145.332 35.5991C145.332 38.9762 139.14 40.1823 135.441 40.5844C134.879 44.5244 133.672 49.7509 130.456 49.7509ZM119.038 35.5991C119.762 36.162 122.335 37.2073 127.159 37.5289H128.446L128.607 38.8958C129.009 43.2378 129.893 45.4893 130.456 46.2129C131.019 45.4893 131.903 43.2378 132.386 38.8958V37.6093H133.753C138.577 37.2877 141.07 36.2424 141.874 35.6795C141.07 35.1167 138.577 34.0714 133.833 33.7497L132.466 33.5889V32.1416C132.145 26.9151 131.099 24.1812 130.456 23.3771C129.893 24.1812 128.768 26.9151 128.526 32.1416L128.366 33.5085L126.999 33.6693C122.255 33.991 119.762 35.0363 119.038 35.5991Z" fill="#090909"/>
<path d="M420.407 240.638C417.271 240.638 415.984 235.492 415.502 231.552C411.723 231.15 405.531 229.944 405.531 226.567C405.531 223.19 411.562 221.984 415.341 221.501C415.663 217.561 416.788 210.968 420.407 210.968C424.025 210.968 425.151 217.561 425.553 221.501C429.252 221.984 435.282 223.19 435.282 226.567C435.282 229.944 429.091 231.15 425.312 231.552C424.829 235.492 423.623 240.638 420.407 240.638ZM408.989 226.567C409.712 227.13 412.286 228.095 417.03 228.497H418.396L418.557 229.864C418.959 234.206 419.844 236.457 420.407 237.181C420.97 236.457 421.854 234.206 422.256 229.864L422.417 228.497H423.784C428.528 228.095 431.101 227.13 431.905 226.567C431.101 226.004 428.608 224.959 423.864 224.637L422.497 224.476V223.109C422.176 218.124 421.13 215.229 420.487 214.345C419.844 215.229 418.799 218.124 418.477 223.109V224.476L417.11 224.637C412.205 224.959 409.712 226.004 408.989 226.567Z" fill="#CBC7DB"/>
<path d="M379.64 279.154C377.228 279.154 376.183 275.858 375.7 272.641C372.564 272.239 368.544 271.274 368.544 268.621C368.544 265.968 372.484 264.922 375.62 264.601C375.941 261.224 376.906 256.962 379.64 256.962C382.374 256.962 383.419 261.224 383.741 264.601C386.877 264.922 390.817 265.968 390.817 268.621C390.817 271.274 386.716 272.239 383.58 272.641C383.178 275.858 382.133 279.154 379.64 279.154ZM372.404 268.621C373.991 269.137 375.641 269.434 377.308 269.506H378.675V270.872C378.797 272.35 379.094 273.807 379.56 275.214C380.063 273.813 380.387 272.355 380.525 270.872V269.506H381.892C383.534 269.446 385.159 269.148 386.716 268.621C385.204 268.023 383.598 267.696 381.972 267.656H380.605V266.209C380.55 264.395 380.197 262.602 379.56 260.902C379.001 262.619 378.677 264.405 378.595 266.209V267.656H377.228C375.578 267.709 373.947 268.035 372.404 268.621Z" fill="#090909"/>
<path d="M413.17 389.634H264.175C263.748 389.634 263.339 389.465 263.037 389.163C262.736 388.862 262.566 388.453 262.566 388.026C262.566 387.6 262.736 387.191 263.037 386.889C263.339 386.587 263.748 386.418 264.175 386.418H413.17C413.597 386.418 414.006 386.587 414.307 386.889C414.609 387.191 414.778 387.6 414.778 388.026C414.778 388.453 414.609 388.862 414.307 389.163C414.006 389.465 413.597 389.634 413.17 389.634Z" fill="#090909"/>
<path d="M446.137 401.615H315.153C314.727 401.615 314.317 401.445 314.016 401.144C313.714 400.842 313.545 400.433 313.545 400.007C313.545 399.58 313.714 399.171 314.016 398.869C314.317 398.568 314.727 398.398 315.153 398.398H446.137C446.564 398.398 446.973 398.568 447.274 398.869C447.576 399.171 447.745 399.58 447.745 400.007C447.745 400.433 447.576 400.842 447.274 401.144C446.973 401.445 446.564 401.615 446.137 401.615Z" fill="#090909"/>
<path d="M59.2153 382.639H44.2595C43.833 382.639 43.4239 382.47 43.1224 382.168C42.8208 381.867 42.6514 381.458 42.6514 381.031C42.6514 380.604 42.8208 380.195 43.1224 379.894C43.4239 379.592 43.833 379.423 44.2595 379.423H59.2153C59.6419 379.423 60.0509 379.592 60.3525 379.894C60.654 380.195 60.8235 380.604 60.8235 381.031C60.8235 381.458 60.654 381.867 60.3525 382.168C60.0509 382.47 59.6419 382.639 59.2153 382.639Z" fill="#090909"/>
<path d="M60.5821 390.68H25.6047C25.1782 390.68 24.7692 390.511 24.4676 390.209C24.166 389.908 23.9966 389.499 23.9966 389.072C23.9966 388.646 24.166 388.236 24.4676 387.935C24.7692 387.633 25.1782 387.464 25.6047 387.464H60.5821C61.0086 387.464 61.4176 387.633 61.7192 387.935C62.0208 388.236 62.1903 388.646 62.1903 389.072C62.1903 389.499 62.0208 389.908 61.7192 390.209C61.4176 390.511 61.0086 390.68 60.5821 390.68Z" fill="#090909"/>
<path d="M207.976 195.173L203.166 196.48L208.409 215.778L213.22 214.471L207.976 195.173Z" fill="#CBC7DB"/>
<path d="M219.87 129.596H219.387C214.129 128.846 209.37 126.077 206.12 121.877C202.941 117.809 201.063 112.877 200.733 107.725C200.711 107.461 200.741 107.195 200.822 106.943C200.903 106.69 201.034 106.456 201.206 106.255C201.377 106.053 201.588 105.887 201.824 105.767C202.06 105.647 202.318 105.574 202.582 105.554C203.111 105.53 203.629 105.708 204.032 106.051C204.435 106.394 204.692 106.877 204.753 107.403C204.976 111.743 206.55 115.904 209.256 119.304C210.525 121.014 212.126 122.452 213.964 123.529C215.801 124.607 217.837 125.303 219.95 125.575C221.606 125.339 223.12 124.511 224.212 123.244C224.453 122.922 225.257 122.037 225.739 119.223C226.222 116.409 226.302 115.283 225.257 110.459C225.15 109.926 225.26 109.372 225.561 108.92C225.863 108.467 226.332 108.153 226.865 108.047C227.398 107.94 227.952 108.049 228.404 108.351C228.857 108.653 229.171 109.122 229.277 109.655C230.242 114.64 230.162 117.213 229.679 119.947C229.197 122.681 228.071 124.932 227.267 125.897C225.386 128.058 222.727 129.387 219.87 129.596Z" fill="#CBC7DB"/>
<path d="M211.748 145.677H198.24C197.813 145.677 197.404 145.508 197.103 145.206C196.801 144.905 196.632 144.496 196.632 144.069C196.632 143.643 196.801 143.234 197.103 142.932C197.404 142.63 197.813 142.461 198.24 142.461H211.748C212.175 142.461 212.584 142.63 212.886 142.932C213.187 143.234 213.357 143.643 213.357 144.069C213.357 144.496 213.187 144.905 212.886 145.206C212.584 145.508 212.175 145.677 211.748 145.677Z" fill="#F5F3F0"/>
<path d="M198.24 159.186C197.813 159.186 197.404 159.016 197.103 158.715C196.801 158.413 196.632 158.004 196.632 157.578V144.069C196.632 143.643 196.801 143.234 197.103 142.932C197.404 142.63 197.813 142.461 198.24 142.461C198.667 142.461 199.076 142.63 199.377 142.932C199.679 143.234 199.848 143.643 199.848 144.069V157.578C199.848 158.004 199.679 158.413 199.377 158.715C199.076 159.016 198.667 159.186 198.24 159.186Z" fill="#F5F3F0"/>
<path d="M211.749 159.186C211.534 159.198 211.32 159.164 211.12 159.087C210.919 159.011 210.737 158.893 210.586 158.741C210.434 158.589 210.316 158.407 210.239 158.207C210.162 158.006 210.129 157.792 210.14 157.578V144.069C210.129 143.855 210.162 143.641 210.239 143.44C210.316 143.24 210.434 143.058 210.586 142.906C210.737 142.755 210.919 142.637 211.12 142.56C211.32 142.483 211.534 142.45 211.749 142.461C212.175 142.461 212.584 142.631 212.886 142.932C213.187 143.234 213.357 143.643 213.357 144.069V157.578C213.357 158.004 213.187 158.413 212.886 158.715C212.584 159.017 212.175 159.186 211.749 159.186Z" fill="#F5F3F0"/>
<path d="M211.748 159.186H198.24C197.813 159.186 197.404 159.017 197.103 158.715C196.801 158.413 196.632 158.004 196.632 157.578C196.632 157.151 196.801 156.742 197.103 156.441C197.404 156.139 197.813 155.97 198.24 155.97H211.748C212.175 155.97 212.584 156.139 212.886 156.441C213.187 156.742 213.357 157.151 213.357 157.578C213.357 158.004 213.187 158.413 212.886 158.715C212.584 159.017 212.175 159.186 211.748 159.186Z" fill="#F5F3F0"/>
<path d="M211.749 148.653H198.24C198.026 148.664 197.812 148.631 197.611 148.554C197.411 148.477 197.229 148.359 197.077 148.208C196.926 148.056 196.808 147.874 196.731 147.674C196.654 147.473 196.621 147.259 196.632 147.045C196.632 146.618 196.802 146.209 197.103 145.908C197.405 145.606 197.814 145.437 198.24 145.437H211.749C212.175 145.437 212.584 145.606 212.886 145.908C213.187 146.209 213.357 146.618 213.357 147.045C213.369 147.259 213.335 147.473 213.258 147.674C213.181 147.874 213.063 148.056 212.912 148.208C212.76 148.359 212.578 148.477 212.378 148.554C212.177 148.631 211.963 148.664 211.749 148.653Z" fill="#F5F3F0"/>
<path d="M250.184 199.711C249.758 199.711 249.349 199.541 249.047 199.24C248.745 198.938 248.576 198.529 248.576 198.103L247.611 151.145C247.6 150.933 247.631 150.722 247.702 150.523C247.773 150.324 247.883 150.14 248.025 149.983C248.166 149.827 248.338 149.699 248.529 149.609C248.72 149.518 248.927 149.466 249.139 149.456H249.219C249.646 149.456 250.055 149.625 250.356 149.927C250.658 150.229 250.827 150.638 250.827 151.064L251.792 198.022C251.794 198.444 251.638 198.85 251.356 199.163C251.073 199.475 250.684 199.671 250.264 199.711H250.184Z" fill="#090909"/>
<path d="M186.179 174.705H186.018C185.806 174.675 185.601 174.604 185.417 174.494C185.233 174.385 185.073 174.24 184.945 174.068C184.818 173.895 184.726 173.699 184.676 173.491C184.625 173.283 184.617 173.067 184.651 172.855C184.675 172.45 184.729 172.047 184.812 171.649C185.133 168.755 185.777 163.287 186.661 160.553C187.887 157.116 189.681 153.909 191.968 151.065C192.092 150.878 192.253 150.719 192.441 150.599C192.63 150.478 192.842 150.398 193.063 150.364C193.284 150.329 193.51 150.342 193.726 150.4C193.942 150.458 194.144 150.561 194.318 150.701C194.493 150.842 194.636 151.017 194.738 151.216C194.841 151.415 194.901 151.633 194.914 151.857C194.927 152.08 194.894 152.304 194.816 152.514C194.738 152.724 194.617 152.915 194.461 153.075C192.426 155.639 190.824 158.518 189.717 161.598C188.913 164.011 188.269 169.237 187.948 172.051C187.867 172.534 187.867 172.936 187.787 173.257C187.747 173.655 187.56 174.024 187.263 174.292C186.965 174.56 186.579 174.707 186.179 174.705Z" fill="#090909"/>
<path d="M223.971 264.52C220.352 290.17 211.99 314.775 203.547 339.138L203.386 339.379C198.16 348.144 189.235 352.727 181.676 359.16C174.118 365.592 166.399 372.186 159.323 379.262C152.247 386.338 146.699 394.298 140.106 401.695C136.711 405.387 133.028 408.802 129.09 411.907C125.632 414.561 121.531 418.661 117.189 420.189L88.725 354.416L88.5642 354.174C88.0013 349.511 92.1825 346.697 95.5596 344.445L104.967 338.173C110.757 334.314 116.787 330.535 122.496 326.434C128.205 322.333 131.421 317.991 136.648 314.935C140.347 312.684 144.448 311.88 147.342 308.744L147.986 308.342C156.107 301.507 157.152 289.285 159.805 279.636C162.459 269.988 169.213 259.937 170.098 249.001C170.258 246.669 166.64 246.75 166.479 249.001C165.675 259.052 159.564 267.736 156.75 277.305C153.936 286.873 153.292 298.291 146.136 305.126C145.687 305.225 145.287 305.482 145.01 305.849C143.081 308.583 139.703 309.307 136.889 310.754C134.517 311.907 132.323 313.397 130.376 315.177C124.468 320.254 118.266 324.98 111.802 329.328C105.209 333.67 98.6151 337.852 92.1825 342.354C87.6797 345.49 84.3026 349.43 85.1066 355.22C85.1159 355.519 85.2231 355.807 85.412 356.04C85.6008 356.272 85.8608 356.436 86.1519 356.506L114.455 421.878C114.398 422.186 114.416 422.504 114.509 422.803C114.602 423.103 114.766 423.375 114.988 423.597C115.21 423.819 115.482 423.983 115.781 424.076C116.081 424.168 116.399 424.187 116.707 424.129C121.21 423.164 124.828 419.626 128.446 416.892C132.381 413.953 136.14 410.785 139.703 407.404C147.423 399.766 153.212 390.599 160.851 382.88C168.489 375.161 176.209 368.567 184.249 361.733C192.29 354.898 199.848 350.958 205.397 342.917C205.641 342.816 205.861 342.662 206.042 342.468C206.222 342.274 206.359 342.043 206.442 341.792C215.126 316.865 223.73 291.778 227.509 265.485C227.83 263.233 224.292 262.268 223.971 264.52Z" fill="#090909"/>
<path d="M252.837 382.72C251.872 367.844 253.078 353.13 253.802 338.174C255.41 307.699 254.927 277.225 254.204 246.75C253.802 230.428 253.418 214.304 252.132 197.981C251.971 195.649 248.352 195.649 248.594 197.981C250.604 225.642 250.907 253.263 251.148 280.924C251.309 295.558 251.229 310.112 250.746 324.665C250.264 339.219 248.816 353.049 248.656 367.282C248.575 375.001 249.138 382.8 249.781 390.519L250.746 402.902C250.907 405.877 252.354 412.31 249.54 414.561C230.564 414.803 211.748 418.099 192.853 416.974L188.832 356.989C188.791 356.577 188.593 356.196 188.278 355.927C187.964 355.657 187.557 355.519 187.144 355.542C186.929 355.541 186.716 355.585 186.519 355.672C186.323 355.758 186.146 355.885 186.002 356.045C185.858 356.204 185.749 356.392 185.683 356.596C185.616 356.801 185.593 357.017 185.616 357.231L189.636 417.215C189.629 417.406 189.657 417.596 189.717 417.778C189.589 418.06 189.529 418.369 189.54 418.678C189.551 418.988 189.634 419.291 189.782 419.564C189.93 419.837 190.139 420.071 190.393 420.249C190.646 420.428 190.938 420.545 191.244 420.592C210.864 422.039 230.323 418.421 249.862 418.26H250.505C250.733 418.262 250.957 418.204 251.155 418.091C251.353 417.978 251.517 417.814 251.631 417.617C255.41 414.803 254.686 409.656 254.445 405.395C254.043 397.756 253.319 390.278 252.837 382.72Z" fill="#090909"/>
<path d="M199.286 354.014C201.403 371.865 202.397 389.831 202.261 407.807C202.261 408.127 202.388 408.434 202.614 408.66C202.84 408.886 203.147 409.013 203.467 409.013C203.787 409.013 204.093 408.886 204.32 408.66C204.546 408.434 204.673 408.127 204.673 407.807C204.809 389.831 203.815 371.865 201.698 354.014C201.537 352.486 199.125 352.406 199.286 354.014Z" fill="#CBC7DB"/>
<path d="M217.86 318.876C219.95 333.43 219.87 348.225 220.272 362.939L221.478 406.762C221.478 407.081 221.605 407.388 221.831 407.614C222.057 407.841 222.364 407.968 222.684 407.968C223.004 407.968 223.311 407.841 223.537 407.614C223.763 407.388 223.89 407.081 223.89 406.762C223.488 391.645 223.086 376.448 222.604 361.331C222.121 346.214 222.202 332.465 220.191 318.233C220.031 316.624 217.699 317.348 217.86 318.876Z" fill="#CBC7DB"/>
<path d="M235.147 207.35C238.189 240.305 239.424 273.402 238.846 306.492C238.283 339.62 236.193 372.829 237.158 405.957C237.238 407.485 239.65 407.485 239.57 405.957C238.605 372.829 240.696 339.62 241.258 306.492C241.836 273.402 240.601 240.305 237.56 207.35C237.479 205.742 235.067 205.742 235.147 207.35Z" fill="#CBC7DB"/>
<path d="M118.797 402.5C139.413 385.732 158.15 366.779 174.681 345.973C183.124 335.36 191.084 324.424 196.954 312.122C202.823 299.819 207.165 286.793 211.347 273.848C216.225 258.57 220.54 243.078 224.292 227.372C224.378 227.063 224.337 226.732 224.178 226.453C224.02 226.174 223.757 225.97 223.448 225.884C223.139 225.799 222.808 225.84 222.529 225.998C222.25 226.157 222.046 226.419 221.961 226.729C215.608 253.504 208.13 280.923 197.034 306.172C185.938 331.42 168.168 351.682 149.835 370.739C139.512 381.382 128.585 391.423 117.109 400.811C115.903 401.776 117.591 403.465 118.797 402.5Z" fill="#CBC7DB"/>
<path d="M111.078 382.156C148.075 354.579 177.753 318.359 197.517 276.661C200.452 270.709 203.03 264.588 205.236 258.328C207.728 251.092 207.648 243.051 210.704 236.136C211.347 234.688 209.256 233.482 208.613 234.93C206.281 240.156 206.04 245.704 204.753 251.172C203.467 256.64 200.653 263.957 197.919 270.068C193.293 280.461 188.03 290.558 182.159 300.301C170.324 319.904 156.148 337.995 139.945 354.174C130.548 363.508 120.498 372.16 109.872 380.066C108.666 381.031 109.872 383.121 111.078 382.156Z" fill="#CBC7DB"/>
<path d="M104.002 358.758C122.175 344.204 140.668 329.168 155.785 311.317C169.133 295.557 181.355 275.375 181.355 253.986C181.355 253.667 181.228 253.36 181.001 253.134C180.775 252.907 180.468 252.78 180.149 252.78C179.829 252.78 179.522 252.907 179.296 253.134C179.07 253.36 178.942 253.667 178.942 253.986C178.942 276.018 165.595 296.683 151.523 312.604C137.452 328.524 119.521 343.239 102.314 357.069C101.108 358.034 102.796 359.723 104.002 358.758Z" fill="#CBC7DB"/>
<path d="M198.16 443.186C200.975 439.809 205.317 443.267 208.694 443.669C210.199 443.859 211.728 443.637 213.116 443.025C216.976 441.658 220.112 440.854 224.132 442.141C226.544 442.865 228.394 443.749 230.967 443.669C236.756 443.347 241.259 439.809 247.048 442.06C252.838 444.312 255.25 442.865 259.753 440.694C261.12 440.05 259.914 437.96 258.466 438.603C257.019 439.246 253.159 441.176 250.023 440.613C248.979 440.281 247.958 439.878 246.968 439.407C245.013 438.699 242.908 438.505 240.857 438.844C238.525 439.246 236.274 440.131 234.022 440.694C230.082 441.658 227.831 440.613 224.132 439.568C221.875 438.98 219.519 438.87 217.217 439.246C213.92 439.729 211.508 441.819 208.05 441.096C204.593 440.372 199.768 437.477 196.391 441.498C195.426 442.704 197.115 444.392 198.16 443.186Z" fill="#F5F3F0"/>
<path d="M67.8988 375.563C74.5727 377.895 70.0698 385.373 74.9747 389.233C79.8796 393.092 80.6837 393.655 79.8796 399.283C79.6384 401.133 79.558 402.741 80.4425 404.43C82.8547 408.691 89.1265 409.093 89.1265 414.722C89.1265 420.35 89.609 423.567 93.7098 426.863C94.9159 427.828 96.6044 426.14 95.3983 425.175C91.78 422.2 91.5387 419.064 91.5387 414.722C91.6504 413.041 91.1976 411.372 90.2522 409.978C88.9657 408.128 86.9555 407.083 85.2669 405.796C83.5784 404.51 83.0959 404.349 82.5331 403.223C81.9702 402.098 82.6135 398.962 82.6939 396.871C82.8217 394.667 82.1349 392.492 80.7641 390.76C78.4323 387.866 75.1355 387.785 74.5727 383.363C74.3315 380.95 74.8943 379.262 73.5274 377.011C72.3871 375.18 70.6122 373.835 68.5421 373.231C67.0948 372.749 66.4515 375.081 67.8988 375.563Z" fill="#F5F3F0"/>
<path d="M285.563 402.339H301.645C301.964 402.339 302.271 402.212 302.497 401.986C302.724 401.76 302.851 401.453 302.851 401.133C302.851 400.813 302.724 400.506 302.497 400.28C302.271 400.054 301.964 399.927 301.645 399.927H285.563C285.243 399.927 284.936 400.054 284.71 400.28C284.484 400.506 284.357 400.813 284.357 401.133C284.357 401.453 284.484 401.76 284.71 401.986C284.936 402.212 285.243 402.339 285.563 402.339Z" fill="#090909"/>
<path d="M454.821 401.937C455.141 401.937 455.448 401.81 455.674 401.583C455.9 401.357 456.027 401.05 456.027 400.731C456.027 400.411 455.9 400.104 455.674 399.878C455.448 399.651 455.141 399.524 454.821 399.524C454.501 399.524 454.195 399.651 453.968 399.878C453.742 400.104 453.615 400.411 453.615 400.731C453.615 401.05 453.742 401.357 453.968 401.583C454.195 401.81 454.501 401.937 454.821 401.937Z" fill="#090909"/>
<path d="M90.8156 398.64L95.8008 399.203L96.6853 399.363H97.0874C96.4797 399.489 95.8869 399.678 95.3184 399.926C93.7907 400.73 91.7805 401.936 91.7001 403.947C91.6197 405.957 93.1474 405.796 94.5143 406.037C97.3886 406.522 100.288 406.844 103.198 407.002C104.726 407.163 104.726 404.751 103.198 404.59L98.7759 404.188C98.5347 404.188 93.9515 403.866 93.7907 403.464C93.6298 403.062 99.0171 400.73 99.4996 399.846C101.59 396.228 92.5845 396.308 90.8156 396.147C89.0466 395.986 89.2878 398.479 90.8156 398.559V398.64Z" fill="#F5F3F0"/>
<path d="M224.694 434.582L236.916 425.657L235.067 424.612C235.147 427.506 234.424 431.446 235.469 434.1C235.563 434.414 235.773 434.681 236.057 434.845C236.341 435.01 236.677 435.059 236.997 434.984C239.811 434.18 242.706 431.366 245.118 429.677C247.474 428.216 249.59 426.399 251.39 424.29C252.355 423.003 250.264 421.797 249.299 423.003C248.334 424.21 245.037 426.783 242.706 428.391C240.374 429.999 238.524 432.09 236.353 432.652L237.801 433.456C236.916 431.125 237.56 427.104 237.479 424.612C237.479 423.808 236.434 423.003 235.71 423.566L223.488 432.492C222.282 433.376 223.408 435.467 224.694 434.582Z" fill="#F5F3F0"/>
<path d="M163.907 136.672C160.53 143.506 155.946 150.582 154.419 158.14C154.097 159.668 153.213 162.724 154.419 164.091C155.625 165.458 158.359 164.493 159.645 163.528C159.841 163.408 159.998 163.235 160.099 163.03C160.2 162.824 160.24 162.593 160.215 162.366C160.189 162.138 160.1 161.922 159.956 161.743C159.812 161.565 159.621 161.431 159.404 161.357L157.876 161.116C156.831 160.311 157.233 158.864 157.957 157.578L155.786 157.336C156.348 158.784 155.786 160.633 156.831 162C157.876 163.367 158.921 162.965 159.002 163.206L159.484 161.518L157.555 162.161C156.027 162.322 156.027 164.734 157.555 164.573C158.66 164.499 159.734 164.168 160.69 163.608C160.827 163.534 160.947 163.432 161.043 163.308C161.138 163.185 161.207 163.044 161.245 162.892C161.282 162.741 161.288 162.584 161.262 162.43C161.236 162.277 161.178 162.13 161.092 162C160.771 161.196 160.288 161.357 159.886 160.874C159.484 160.392 158.68 158.221 158.117 156.693C158.038 156.473 157.901 156.279 157.719 156.131C157.538 155.983 157.32 155.887 157.089 155.854C156.857 155.821 156.621 155.852 156.405 155.943C156.19 156.034 156.003 156.182 155.866 156.372C154.981 157.899 153.856 160.472 154.901 162.241C155.946 164.01 157.152 163.206 158.761 163.689L158.439 161.437L156.429 161.276L156.75 158.784C156.916 157.854 157.158 156.94 157.474 156.05C158.252 153.671 159.22 151.359 160.369 149.135C162.218 145.356 164.148 141.657 165.997 137.878C166.721 136.511 164.63 135.305 163.907 136.672Z" fill="#80A5AE"/>
<path d="M186.259 159.106H186.098L156.187 155.407C155.951 155.421 155.715 155.382 155.496 155.294C155.276 155.206 155.079 155.071 154.918 154.898C154.757 154.725 154.636 154.519 154.564 154.294C154.491 154.069 154.469 153.831 154.499 153.597C154.529 153.363 154.611 153.138 154.737 152.939C154.864 152.739 155.033 152.57 155.233 152.444C155.432 152.317 155.657 152.236 155.891 152.206C156.126 152.176 156.364 152.199 156.589 152.271L186.42 155.889C186.631 155.91 186.837 155.971 187.024 156.071C187.212 156.171 187.378 156.308 187.512 156.472C187.647 156.637 187.748 156.826 187.809 157.03C187.869 157.233 187.889 157.447 187.867 157.658C187.827 158.057 187.64 158.425 187.343 158.693C187.046 158.961 186.659 159.108 186.259 159.106Z" fill="#CBC7DB"/>
<path d="M235.791 61.1682L232.896 63.9021C232.735 61.5703 232.655 59.2384 232.494 56.9066C232.503 56.6373 232.423 56.3726 232.264 56.1547C232.106 55.9367 231.879 55.7781 231.62 55.704C231.361 55.63 231.084 55.6449 230.835 55.7462C230.585 55.8476 230.377 56.0297 230.242 56.2633C228.96 58.3423 227.536 60.3304 225.981 62.2135C225.338 58.9168 224.533 55.5397 223.649 52.243C223.581 51.9857 223.43 51.7582 223.219 51.596C223.008 51.4337 222.749 51.3457 222.483 51.3457C222.217 51.3457 221.958 51.4337 221.747 51.596C221.537 51.7582 221.385 51.9857 221.317 52.243C220.495 54.6147 219.301 56.8404 217.779 58.8364C217.067 55.2247 215.556 51.818 213.357 48.8658C213.199 48.6465 212.971 48.4867 212.711 48.4121C212.451 48.3374 212.174 48.3523 211.923 48.4544C211.673 48.5564 211.464 48.7397 211.33 48.9747C211.197 49.2097 211.146 49.4829 211.186 49.7503C211.909 54.7356 212.392 59.6405 211.025 64.4649C208.783 62.4025 206.299 60.6204 203.627 59.158C203.42 59.0371 203.181 58.9808 202.942 58.9964C202.702 59.012 202.472 59.0988 202.283 59.2456C202.093 59.3924 201.951 59.5926 201.875 59.8205C201.8 60.0485 201.794 60.2937 201.858 60.525C202.18 61.7311 202.502 62.9372 202.743 64.1433C203.306 76.5261 200.652 89.2305 194.059 99.8444C193.963 100.027 193.915 100.23 193.92 100.436C193.925 100.642 193.982 100.844 194.087 101.021C194.192 101.198 194.34 101.346 194.519 101.45C194.697 101.553 194.898 101.61 195.104 101.613H195.185C197.034 102.659 199.848 101.935 201.858 101.774C203.869 101.613 203.547 99.7639 202.18 99.3619L201.054 99.1207C201.232 98.9683 201.37 98.7752 201.456 98.5578C201.66 98.5008 201.843 98.3876 201.986 98.2311C202.128 98.0747 202.223 97.8814 202.261 97.6734L202.421 97.2713C202.471 97.1343 202.491 96.9885 202.481 96.8433C202.47 96.698 202.43 96.5565 202.362 96.4278C202.294 96.2991 202.199 96.1861 202.085 96.0959C201.971 96.0058 201.839 95.9405 201.698 95.9044C201.778 95.2611 201.939 94.6178 202.019 93.8942C203.021 92.1707 203.881 90.369 204.592 88.5069C204.914 87.6224 204.11 87.0595 203.386 87.0595C202.663 87.0595 203.869 84.9689 204.19 83.9236C204.375 84.0322 204.584 84.0928 204.798 84.1C205.013 84.1072 205.225 84.0608 205.417 83.9649C205.609 83.869 205.774 83.7268 205.896 83.5511C206.019 83.3753 206.096 83.1717 206.12 82.9587C206.281 81.431 206.361 79.9032 206.442 78.3755C206.603 78.3289 206.751 78.2469 206.876 78.1356C207.001 78.0244 207.1 77.8865 207.165 77.7322C207.348 77.8284 207.551 77.8763 207.757 77.8714C207.963 77.8664 208.165 77.8088 208.342 77.704C208.519 77.5991 208.667 77.4506 208.771 77.2726C208.874 77.0946 208.931 76.8929 208.934 76.6869V74.7571C209.122 74.7968 209.316 74.7881 209.499 74.7318C209.682 74.6755 209.847 74.5735 209.98 74.4355C211.165 73.3432 212.293 72.1891 213.357 70.978C216.883 70.4395 220.486 70.7146 223.89 71.782C227.911 72.9882 229.68 74.7571 232.172 78.0539C232.325 78.2314 232.518 78.3693 232.735 78.4559L232.494 80.1445C232.253 81.6722 234.504 82.3155 234.745 80.7877C235.791 74.5963 236.755 68.4853 237.801 62.2939C237.962 61.2486 236.675 60.2837 235.791 61.1682Z" fill="#090909"/>
<path d="M209.738 83.201C210.141 80.5475 207.407 78.8589 204.994 79.9042C202.582 80.9495 201.859 84.8091 203.065 86.4977C203.412 86.9293 203.883 87.2451 204.414 87.4031C204.946 87.561 205.513 87.5537 206.04 87.3822C207.407 87.1409 207.728 85.9348 207.809 84.6483C207.889 83.3618 207.648 81.7536 206.201 81.7536C204.753 81.7536 204.19 83.603 203.949 84.7287C203.708 85.8544 205.959 86.8997 206.281 85.372C206.603 83.8442 206.442 84.1659 206.763 84.005H206.04L205.236 83.201C205.328 83.5423 205.382 83.8929 205.396 84.2463C205.416 84.464 205.389 84.6833 205.316 84.8895C205.236 85.2112 205.236 85.2112 205.396 84.8895H205.075C204.914 84.8895 204.914 84.8091 204.994 84.7287C205.075 84.6483 205.155 83.9246 205.155 83.6834C205.155 83.4422 205.557 82.1557 206.04 81.9144C206.522 81.6732 207.487 81.9144 207.407 82.3969C207.326 82.8793 209.497 84.5679 209.738 83.0401V83.201Z" fill="#F5F3F0"/>
<path d="M404.968 26.6738C414.2 27.3168 423.46 27.4779 432.709 27.1563C433.029 27.1563 433.335 27.0292 433.562 26.803C433.788 26.5768 433.915 26.27 433.915 25.9502C433.915 25.6303 433.788 25.3235 433.562 25.0973C433.335 24.8711 433.029 24.744 432.709 24.744C423.46 25.0656 414.2 24.9046 404.968 24.2616C403.44 24.1008 403.44 26.513 404.968 26.6738Z" fill="#090909"/>
<path d="M443.162 26.4327H451.605C451.925 26.4327 452.232 26.3057 452.458 26.0795C452.684 25.8533 452.811 25.5465 452.811 25.2266C452.811 24.9067 452.684 24.6 452.458 24.3738C452.232 24.1476 451.925 24.0205 451.605 24.0205H443.162C442.842 24.0205 442.536 24.1476 442.309 24.3738C442.083 24.6 441.956 24.9067 441.956 25.2266C441.956 25.5465 442.083 25.8533 442.309 26.0795C442.536 26.3057 442.842 26.4327 443.162 26.4327Z" fill="#090909"/>
<path d="M445.574 187.248H483.366C483.686 187.248 483.993 187.121 484.219 186.895C484.445 186.669 484.572 186.362 484.572 186.042C484.572 185.722 484.445 185.415 484.219 185.189C483.993 184.963 483.686 184.836 483.366 184.836H445.574C445.254 184.836 444.948 184.963 444.721 185.189C444.495 185.415 444.368 185.722 444.368 186.042C444.368 186.362 444.495 186.669 444.721 186.895C444.948 187.121 445.254 187.248 445.574 187.248Z" fill="#090909"/>
<path d="M493.417 188.053H497.035C497.355 188.053 497.662 187.926 497.888 187.7C498.114 187.473 498.242 187.167 498.242 186.847C498.242 186.527 498.114 186.22 497.888 185.994C497.662 185.768 497.355 185.641 497.035 185.641H493.417C493.097 185.641 492.79 185.768 492.564 185.994C492.338 186.22 492.211 186.527 492.211 186.847C492.211 187.167 492.338 187.473 492.564 187.7C492.79 187.926 493.097 188.053 493.417 188.053Z" fill="#090909"/>
<path d="M387.922 155.085C387.841 160.392 388.485 164.654 392.023 168.835C395.723 172.918 400.281 176.131 405.37 178.243C406.818 178.886 408.024 176.795 406.576 176.233C402.489 174.522 398.754 172.068 395.561 168.996C391.299 164.895 390.254 160.875 390.334 155.085C390.415 153.558 388.002 153.558 387.922 155.085Z" fill="#F5F3F0"/>
<path d="M410.999 178.644C412.713 179.193 414.538 179.304 416.306 178.966C417.753 178.725 417.11 176.393 415.663 176.634C414.316 176.85 412.937 176.74 411.642 176.312C410.195 175.83 409.552 178.162 410.999 178.644Z" fill="#F5F3F0"/>
<path d="M202.019 186.605C202.743 188.615 203.949 191.027 204.19 193.198C204.431 195.369 203.708 194.726 202.903 196.334C202.099 197.942 203.386 203.249 204.029 205.983C204.672 208.717 204.994 213.863 207.567 216.114C208.371 216.838 209.095 216.838 210.14 217.16C213.598 218.125 214.804 221.582 214.965 225.04C214.965 225.36 215.092 225.666 215.318 225.892C215.544 226.119 215.851 226.246 216.171 226.246C216.491 226.246 216.797 226.119 217.024 225.892C217.25 225.666 217.377 225.36 217.377 225.04C217.216 221.904 216.251 218.366 213.919 216.114C213.2 215.522 212.384 215.06 211.507 214.747C208.21 213.3 207.889 211.612 207.085 208.154C206.281 204.696 205.879 203.41 205.396 200.998C204.914 198.585 204.833 198.666 206.12 196.414C206.281 196.173 206.683 196.093 206.843 195.771C207.728 192.957 205.235 188.695 204.351 185.961C203.868 184.434 201.536 185.077 202.019 186.605Z" fill="#090909"/>
<path d="M131.421 228.015C131.663 235.091 134.638 242.89 137.05 249.484C137.613 250.931 139.945 250.288 139.382 248.841C137.05 242.488 134.075 234.85 133.834 228.015C133.753 226.487 131.341 226.487 131.421 228.015Z" fill="#090909"/>
<path d="M138.337 253.103C138.836 255.055 139.771 256.87 141.071 258.41C142.036 259.616 143.724 257.927 142.759 256.721C141.75 255.476 141.035 254.02 140.669 252.459C140.267 251.012 137.935 251.655 138.337 253.103Z" fill="#090909"/>
<path d="M186.017 246.669C184.329 244.981 181.836 243.935 180.791 241.684C179.746 239.433 178.057 241.523 178.7 242.89C179.344 244.257 182.399 246.508 184.248 248.358C184.472 248.592 184.78 248.728 185.104 248.736C185.429 248.743 185.743 248.622 185.977 248.398C186.212 248.174 186.348 247.866 186.355 247.542C186.363 247.218 186.241 246.904 186.017 246.669Z" fill="#090909"/>
<path d="M193.335 242.247C192.451 241.202 191.164 240.559 190.119 239.755C188.93 238.807 187.851 237.728 186.903 236.538C185.857 235.412 184.169 237.101 185.214 238.307C186.178 239.431 187.226 240.48 188.35 241.443C189.515 242.183 190.618 243.016 191.647 243.936C192.692 245.142 194.381 243.373 193.335 242.247Z" fill="#090909"/>
<path d="M523.57 442.543H485.698C484.176 442.531 482.711 441.959 481.583 440.936C480.456 439.912 479.745 438.509 479.587 436.995L473.396 374.759C473.318 373.907 473.418 373.048 473.689 372.236C473.96 371.424 474.396 370.677 474.97 370.042C475.545 369.407 476.244 368.899 477.025 368.548C477.806 368.197 478.651 368.012 479.507 368.005H528.314C529.159 368.002 529.995 368.175 530.77 368.512C531.545 368.848 532.241 369.342 532.815 369.962C533.39 370.581 533.829 371.313 534.106 372.111C534.383 372.909 534.492 373.756 534.425 374.598L529.681 436.834C529.579 438.384 528.89 439.837 527.755 440.897C526.62 441.958 525.124 442.546 523.57 442.543Z" fill="#80A5AE"/>
<path d="M471.788 385.051H530.245C530.565 385.051 530.871 384.924 531.098 384.698C531.324 384.471 531.451 384.165 531.451 383.845C531.451 383.525 531.324 383.218 531.098 382.992C530.871 382.766 530.565 382.639 530.245 382.639H471.788C471.468 382.639 471.161 382.766 470.935 382.992C470.709 383.218 470.582 383.525 470.582 383.845C470.582 384.165 470.709 384.471 470.935 384.698C471.161 384.924 471.468 385.051 471.788 385.051Z" fill="#F5F3F0"/>
<path d="M469.296 383.925C480.312 376.849 492.212 370.336 502.343 361.974C503.549 361.009 501.861 359.32 500.655 360.285C490.684 368.487 478.864 374.839 468.09 381.834C466.723 382.719 467.929 384.81 469.296 383.925Z" fill="#F5F3F0"/>
<path d="M472.19 402.418C475.808 397.594 482.161 394.78 486.985 391.322C491.81 387.865 495.991 384.568 500.252 380.95C504.514 377.331 508.293 373.23 512.474 369.612C516.656 365.994 520.837 365.19 523.571 361.169C524.455 359.883 522.365 358.677 521.48 359.963C518.666 364.064 513.037 365.672 509.419 369.13C505.801 372.587 500.896 377.251 496.312 381.03C491.6 384.977 486.688 388.68 481.598 392.126C477.497 394.86 473.155 397.192 470.1 401.132C469.135 402.418 471.225 403.625 472.19 402.418Z" fill="#F5F3F0"/>
<path d="M533.139 368.084C528.074 371.703 523.651 375.884 519.068 380.065C513.853 384.666 508.376 388.962 502.665 392.93C492.373 400.167 481.839 407.002 473.075 416.007C472.936 416.111 472.822 416.243 472.739 416.395C472.657 416.547 472.608 416.714 472.595 416.887C472.583 417.059 472.608 417.232 472.668 417.394C472.729 417.556 472.823 417.703 472.946 417.825C473.068 417.947 473.215 418.042 473.377 418.102C473.539 418.163 473.712 418.188 473.884 418.175C474.056 418.163 474.224 418.114 474.376 418.031C474.527 417.949 474.66 417.834 474.763 417.696C483.689 408.529 494.544 401.614 504.997 394.217C509.746 390.935 514.31 387.392 518.666 383.603C523.892 379.1 528.717 374.195 534.345 370.175C535.552 369.21 534.345 367.119 533.139 368.084Z" fill="#F5F3F0"/>
<path d="M532.334 390.117C527.108 394.539 522.123 398.881 516.333 402.419C511.338 405.401 506.507 408.649 501.86 412.149C497.116 415.928 492.854 420.189 488.432 424.29C484.009 428.391 477.014 432.572 470.822 436.03C469.456 436.753 470.662 438.844 472.029 438.12C477.577 435.065 483.125 431.929 488.03 427.828C492.935 423.727 497.357 418.822 502.423 414.802C507.488 410.782 514.082 406.842 520.032 402.982C525.982 399.122 529.44 395.745 534.023 391.805C535.149 390.84 533.46 389.071 532.334 390.117Z" fill="#F5F3F0"/>
<path d="M532.898 402.981C526.787 410.781 518.746 416.892 511.268 423.324C503.79 429.757 495.75 437.155 486.824 442.381C485.458 443.105 486.664 445.195 488.031 444.391C496.715 439.326 504.193 432.571 511.831 426.058C519.47 419.545 528.154 412.872 534.587 404.67C535.551 403.464 533.863 401.775 532.898 402.981Z" fill="#F5F3F0"/>
<path d="M470.26 411.666C476.612 417.857 481.437 424.853 486.341 432.089C490.362 438.04 494.623 443.668 500.413 447.93C501.699 448.895 502.905 446.804 501.619 445.839C495.186 441.095 490.764 434.341 486.341 427.747C482.202 421.32 477.376 415.362 471.949 409.977C470.823 408.932 469.134 410.621 470.26 411.666Z" fill="#F5F3F0"/>
<path d="M469.295 394.137C476.21 404.429 483.929 414.239 491.648 423.968C498.322 432.331 505.478 440.452 515.288 445.116C516.735 445.759 517.941 443.668 516.575 443.025C506.926 438.442 499.85 430.481 493.337 422.199C485.698 412.631 478.22 402.982 471.385 392.851C470.501 391.564 468.41 392.77 469.295 394.137Z" fill="#F5F3F0"/>
<path d="M476.21 384.729C484.412 395.825 492.935 406.761 501.78 417.375C510.625 427.989 519.55 438.361 530.003 447.286C531.209 448.251 532.898 446.563 531.692 445.517C521.641 436.914 512.957 426.943 504.433 416.812C495.91 406.68 486.663 394.861 478.301 383.523C477.336 382.317 475.245 383.523 476.21 384.729Z" fill="#F5F3F0"/>
<path d="M493.9 384.487C497.84 387.704 499.85 392.126 502.423 396.227C505.134 400.34 508.289 404.142 511.831 407.564C519.872 415.686 527.51 423.324 533.3 433.295C534.023 434.662 536.114 433.456 535.31 432.089C529.762 422.359 522.445 414.64 514.484 406.841C510.325 402.86 506.679 398.376 503.629 393.493C501.297 389.633 499.207 385.694 495.669 382.799C494.463 381.834 492.694 383.523 493.9 384.487Z" fill="#F5F3F0"/>
<path d="M512.153 384.89C522.928 393.976 531.451 405.314 539.813 416.571C540.698 417.777 542.788 416.651 541.904 415.365C533.381 403.867 524.857 392.449 513.841 383.202C512.716 382.156 510.947 383.925 512.153 384.89Z" fill="#F5F3F0"/>
<path d="M496.151 382.719C491.568 379.583 488.754 374.598 484.975 370.578C481.481 366.954 477.628 363.694 473.476 360.848C472.19 359.964 470.984 362.055 472.27 362.939C476.987 366.171 481.282 369.98 485.055 374.277C488.271 377.975 490.844 381.996 494.945 384.81C496.232 385.694 497.438 383.604 496.151 382.719Z" fill="#F5F3F0"/>
<path d="M477.899 383.202C473.502 378.24 468.687 373.667 463.506 369.532C462.3 368.567 460.531 370.256 461.737 371.221C466.943 375.356 471.785 379.929 476.21 384.89C477.256 386.016 478.944 384.327 477.899 383.202Z" fill="#F5F3F0"/>
<path d="M515.047 383.845C510.625 380.226 508.052 375.08 504.353 370.899C500.654 366.718 495.186 361.411 490.523 356.828C490.299 356.593 489.991 356.457 489.667 356.45C489.343 356.442 489.029 356.564 488.794 356.787C488.559 357.011 488.423 357.319 488.416 357.644C488.408 357.968 488.53 358.282 488.754 358.516C493.417 363.099 498.322 367.602 502.664 372.588C507.006 377.573 508.936 381.915 513.359 385.533C514.484 386.498 516.253 384.81 515.047 383.845Z" fill="#F5F3F0"/>
<path d="M535.471 382.478C531.048 377.815 526.867 372.91 522.203 368.648C517.54 364.387 512.635 361.974 508.534 357.793C507.408 356.667 505.72 358.436 506.845 359.482C510.946 363.663 516.173 366.397 520.434 370.337C524.696 374.277 529.36 379.503 533.702 384.167C533.925 384.401 534.233 384.537 534.558 384.545C534.882 384.553 535.196 384.431 535.43 384.207C535.665 383.983 535.801 383.675 535.809 383.351C535.816 383.027 535.695 382.713 535.471 382.478Z" fill="#F5F3F0"/>
</svg>
