<svg width="370" height="477" viewBox="0 0 370 477" fill="none" xmlns="http://www.w3.org/2000/svg">
<path d="M81.6331 443.71L75.427 438.841L80.6783 431.775L55.1856 412.68L49.9344 419.745L35.2308 439.413C34.8221 439.95 34.5247 440.562 34.3561 441.215C34.1875 441.868 34.151 442.548 34.2489 443.215C34.3467 443.882 34.5768 444.523 34.9258 445.1C35.2748 445.677 35.7355 446.178 36.281 446.574L74.8542 475.409C75.2582 475.725 75.7217 475.956 76.2171 476.089C76.7125 476.222 77.2295 476.253 77.7375 476.182C78.2454 476.111 78.7337 475.938 79.1734 475.674C79.613 475.41 79.9949 475.06 80.2964 474.645C88.7939 463.283 93.0905 452.207 81.6331 443.71Z" fill="#090909"/>
<path d="M135.388 400.935L144.076 399.503L138.825 367.995L130.137 369.428L105.981 373.438C104.635 373.672 103.434 374.421 102.632 375.526C101.83 376.631 101.49 378.005 101.684 379.357L110.277 430.724L114.001 430.056C128.132 427.765 137.775 414.971 135.388 400.935Z" fill="#090909"/>
<path d="M223.706 256.287C216.545 256.287 209.48 255.236 203.465 252.181C202.025 251.278 200.488 250.541 198.882 249.985C189.758 244.232 184.978 241.413 181.709 231.134L139.515 292.724L134.182 290.938L55.5692 404.564C51.4636 408.288 48.2173 412.775 52.1319 418.122C54.5189 421.464 59.5793 422.609 63.2074 424.042L67.4084 425.569L89.5594 440.846C90.303 441.409 91.1447 441.83 92.0419 442.087L92.5192 442.373C94.9062 443.805 99.9665 446.383 102.831 444.76C105.695 443.137 107.127 435.69 107.605 432.444C107.6 432.392 107.607 432.34 107.623 432.29C107.639 432.241 107.666 432.196 107.7 432.157L134.816 392.916L135.58 399.79C135.455 400.066 135.359 400.354 135.293 400.649C135.293 400.745 135.389 401.986 135.58 403.132C135.622 403.87 135.718 404.604 135.866 405.328C135.007 406.283 136.153 407.81 137.394 407.619C138.127 407.898 138.931 407.932 139.685 407.715C140.843 407.55 141.938 407.084 142.859 406.363C143.781 405.643 144.497 404.693 144.937 403.609L146.369 402.845L224.852 390.147C237.55 388.81 248.244 376.684 248.244 363.317L248.912 249.507C242.133 253.709 232.299 256.287 223.706 256.287ZM103.404 438.841V438.363L103.786 437.695C103.69 438.077 103.499 438.459 103.404 438.841Z" fill="#CBC7DB"/>
<path d="M93.0911 422.609C92.6768 422.617 92.2724 422.482 91.9454 422.227C91.7336 422.086 91.554 421.901 91.4183 421.685C91.2826 421.47 91.1939 421.228 91.1579 420.976C91.1219 420.724 91.1393 420.467 91.2092 420.222C91.2791 419.977 91.3998 419.749 91.5635 419.554L192.293 283.02C192.597 282.62 193.041 282.348 193.536 282.26C194.032 282.172 194.542 282.273 194.966 282.543C195.371 282.847 195.639 283.299 195.711 283.8C195.783 284.302 195.652 284.811 195.348 285.216L94.6187 421.845C94.436 422.077 94.2044 422.266 93.9404 422.398C93.6763 422.53 93.3863 422.602 93.0911 422.609Z" fill="#F5F3F0"/>
<path d="M159.482 312.797L90.8519 273.173C87.8379 271.433 83.9839 272.466 82.2438 275.48L55.6531 321.536C53.913 324.55 54.9457 328.404 57.9597 330.144L126.589 369.768C129.603 371.508 133.457 370.475 135.197 367.461L161.788 321.405C163.528 318.391 162.496 314.537 159.482 312.797Z" fill="#F5F3F0"/>
<path d="M129.754 372.483C128.306 372.488 126.885 372.091 125.648 371.337L57.095 331.714C56.1579 331.185 55.3369 330.473 54.6807 329.62C54.0246 328.767 53.5468 327.79 53.2759 326.749C52.702 324.66 52.9766 322.43 54.0397 320.543L80.5827 274.522C81.7027 272.615 83.5152 271.213 85.643 270.608C87.7446 270.073 89.9719 270.381 91.8491 271.467L160.498 311.09C161.435 311.619 162.256 312.332 162.912 313.185C163.568 314.038 164.046 315.014 164.317 316.055C164.605 317.109 164.678 318.211 164.53 319.294C164.383 320.377 164.018 321.418 163.458 322.357L136.915 368.377C136.19 369.633 135.145 370.674 133.888 371.395C132.63 372.116 131.204 372.492 129.754 372.483ZM87.7435 274.14L86.5978 274.331C86.0304 274.476 85.4995 274.737 85.0391 275.099C84.5787 275.461 84.199 275.915 83.9244 276.432L57.3814 322.452C57.0781 322.95 56.8791 323.504 56.7966 324.081C56.7141 324.658 56.7499 325.246 56.9018 325.808C57.0536 326.371 57.3183 326.897 57.6798 327.354C58.0413 327.811 58.492 328.19 59.0046 328.467L127.558 367.995C128.049 368.307 128.601 368.511 129.177 368.593C129.754 368.676 130.341 368.635 130.9 368.473C132.02 368.183 132.981 367.462 133.573 366.468L160.211 320.447C160.777 319.415 160.924 318.205 160.622 317.067C160.32 315.93 159.592 314.952 158.588 314.337L89.9395 274.809C89.2761 274.403 88.5204 274.173 87.7435 274.14Z" fill="#090909"/>
<path d="M115.034 324.72L119.092 317.692C120.041 316.048 119.478 313.946 117.834 312.997L108.466 307.588C106.822 306.639 104.719 307.202 103.77 308.846L99.7123 315.874C98.7631 317.518 99.3265 319.62 100.97 320.57L110.339 325.978C111.983 326.928 114.085 326.364 115.034 324.72Z" fill="#80A5AE"/>
<path d="M238.026 181.431C237.222 181.43 236.421 181.334 235.639 181.145C232.011 180.477 228.287 176.944 227.428 174.461C225.996 170.165 224.468 165.677 230.197 151.356C232.393 145.818 232.107 141.903 231.725 136.557C231.534 134.361 231.438 131.783 231.438 128.918C231.438 120.421 232.393 119.084 235.066 117.27C235.929 116.802 236.705 116.189 237.358 115.456C240.126 112.429 243.76 110.329 247.765 109.441C255.785 107.34 267.338 109.154 274.021 116.793C274.222 116.974 274.382 117.196 274.491 117.443C274.6 117.691 274.655 117.959 274.652 118.23C274.649 118.5 274.589 118.767 274.476 119.012C274.362 119.258 274.198 119.477 273.993 119.654C273.789 119.831 273.549 119.963 273.29 120.04C273.031 120.118 272.758 120.139 272.49 120.103C272.222 120.068 271.964 119.975 271.734 119.832C271.505 119.69 271.308 119.5 271.157 119.275C265.524 112.878 255.403 111.35 248.72 113.069C245.455 113.852 242.476 115.54 240.127 117.938C239.28 118.946 238.281 119.816 237.167 120.516C235.83 121.376 235.257 121.758 235.257 128.918C235.257 131.687 235.353 133.979 235.544 136.27C235.926 141.712 236.308 146.391 233.73 152.788C228.574 165.773 229.72 169.401 231.056 173.22C232.219 175.268 234.139 176.776 236.403 177.421C243.755 178.949 249.197 170.165 250.725 167.492C252.252 164.818 252.825 160.999 253.207 156.034C253.219 155.787 253.281 155.545 253.389 155.323C253.498 155.101 253.651 154.903 253.839 154.742C254.027 154.581 254.245 154.46 254.481 154.387C254.718 154.314 254.966 154.289 255.212 154.316C255.463 154.328 255.709 154.389 255.936 154.497C256.163 154.604 256.367 154.755 256.535 154.942C256.704 155.128 256.834 155.346 256.918 155.582C257.002 155.819 257.039 156.07 257.026 156.321C256.74 160.235 255.976 165.773 254.067 169.306C249.77 177.039 243.946 181.431 238.026 181.431Z" fill="#090909"/>
<path d="M278.796 122.999C278.803 117.566 277.007 112.284 273.69 107.981C270.372 103.679 265.72 100.599 260.464 99.2247C260.755 98.4564 260.947 97.6543 261.037 96.8377C261.653 94.7607 261.751 92.5644 261.323 90.4406C261.195 88.8113 260.671 87.238 259.795 85.8577C258.029 82.5462 255.299 79.8491 251.966 78.1239C245.283 74.6867 237.74 75.737 230.865 73.0636C228.765 72.2043 228.288 71.2496 227.237 69.1491C225.677 65.7965 223.356 62.8542 220.458 60.556C219.068 59.4988 217.563 58.602 215.971 57.8826C213.003 56.1344 209.572 55.3348 206.137 55.5911C204.574 55.7057 203.032 56.0268 201.554 56.5459L200.694 56.8324C193.438 58.8374 190.192 64.3751 185.609 69.7219C183.618 72.2068 181.109 74.2271 178.257 75.6415C175.584 76.6918 172.815 76.4054 170.141 76.7873C167.83 77.0046 165.6 77.7558 163.628 78.9819C161.657 80.2081 159.997 81.8754 158.779 83.8526C157.563 86.1595 156.847 88.6973 156.679 91.2999C155.514 92.0709 154.517 93.0685 153.746 94.2332C152.975 95.3978 152.446 96.7056 152.192 98.0788C151.362 100.465 151.395 103.067 152.287 105.431C153.337 107.627 155.533 108.677 157.825 109.059C159.094 109.709 160.504 110.037 161.93 110.014C163.323 109.985 164.706 109.76 166.036 109.345C167.754 109.059 169.95 108.677 171.574 109.154C172.254 109.618 172.811 110.241 173.197 110.968C173.363 111.236 173.491 111.525 173.579 111.828C173.674 112.019 173.674 112.21 173.77 112.401L174.151 113.26C174.49 114.368 174.972 115.427 175.584 116.411C180.358 122.903 189.428 122.33 194.488 116.793L195.539 115.647C197.83 113.928 200.122 111.923 202.508 110.777C204.895 109.632 207.76 112.687 210.242 113.546C215.453 115.445 221.194 115.275 226.283 113.069C228.288 112.21 230.102 111.064 232.107 110.205L233.634 110.014C231.179 113.898 229.886 118.403 229.911 122.999C229.911 128.25 231.343 133.788 234.207 137.798C235.735 125.767 246.333 115.647 258.745 115.933C262.829 115.936 266.838 117.025 270.362 119.088C273.885 121.152 276.796 124.117 278.796 127.677C278.891 126.119 278.891 124.557 278.796 122.999Z" fill="#090909"/>
<path d="M256.072 157.466C251.543 157.343 247.181 155.733 243.659 152.883C243.269 152.566 243.02 152.106 242.966 151.606C242.912 151.105 243.059 150.603 243.373 150.21C243.522 150.005 243.712 149.834 243.932 149.707C244.151 149.581 244.394 149.501 244.646 149.474C244.898 149.447 245.153 149.473 245.394 149.551C245.635 149.628 245.857 149.755 246.046 149.924C249.128 152.456 253.043 153.75 257.026 153.552C263.232 153.17 267.147 148.587 269.248 146.104C277.363 136.652 276.504 125.004 276.313 123.667C276.284 123.165 276.445 122.671 276.763 122.282C277.081 121.893 277.534 121.637 278.032 121.567C278.283 121.54 278.536 121.564 278.778 121.636C279.02 121.708 279.245 121.828 279.44 121.988C279.636 122.148 279.797 122.345 279.916 122.567C280.035 122.79 280.108 123.034 280.132 123.285C280.323 125.672 281.182 138.084 272.207 148.587C269.916 151.26 265.047 156.893 257.217 157.371L256.072 157.466Z" fill="#090909"/>
<path d="M115.816 283.975C114.584 284.024 113.372 283.654 112.379 282.925C108.75 280.06 110.946 273.186 111.71 271.181C112.134 270.122 112.645 269.1 113.238 268.126C114.67 266.025 117.057 261.156 120.112 255.045C126.796 241.583 136.916 221.15 148.66 204.06C163.268 182.959 181.314 156.703 211.198 151.547C217.703 150.381 224.363 150.381 230.867 151.547C231.119 151.582 231.361 151.667 231.58 151.797C231.799 151.926 231.989 152.099 232.141 152.303C232.292 152.508 232.401 152.741 232.461 152.988C232.521 153.235 232.531 153.492 232.49 153.743C232.397 154.241 232.118 154.685 231.711 154.986C231.304 155.287 230.797 155.423 230.294 155.366C224.207 154.202 217.954 154.202 211.867 155.366C183.605 160.14 165.942 185.728 151.811 206.256C140.258 223.155 130.233 243.301 123.55 256.764C120.303 263.256 117.916 267.935 116.484 270.226C116.016 270.944 115.632 271.713 115.338 272.518C114.193 275.477 113.62 279.106 114.67 279.869C115.72 280.633 116.675 280.251 118.298 279.583C118.78 279.424 119.304 279.454 119.765 279.667C120.226 279.88 120.589 280.259 120.781 280.729C120.872 280.967 120.914 281.22 120.906 281.475C120.897 281.73 120.838 281.98 120.731 282.211C120.624 282.443 120.472 282.65 120.284 282.822C120.096 282.994 119.875 283.126 119.635 283.211C118.419 283.695 117.125 283.954 115.816 283.975Z" fill="#090909"/>
<path d="M122.403 289.226C121.392 289.244 120.393 288.998 119.506 288.512C118.619 288.027 117.873 287.318 117.343 286.457C115.624 283.688 117.152 280.824 117.247 280.538C117.475 280.082 117.875 279.735 118.358 279.574C118.842 279.413 119.369 279.45 119.825 279.678C120.281 279.906 120.627 280.306 120.789 280.789C120.95 281.273 120.912 281.8 120.684 282.256C120.486 282.585 120.373 282.958 120.356 283.342C120.339 283.726 120.419 284.107 120.589 284.452C120.91 284.884 121.368 285.194 121.888 285.333C122.408 285.471 122.96 285.43 123.453 285.216C123.722 285.044 123.95 284.816 124.122 284.548C124.24 284.327 124.402 284.134 124.599 283.979C124.796 283.825 125.022 283.713 125.264 283.65C125.506 283.587 125.759 283.575 126.006 283.615C126.253 283.654 126.489 283.744 126.699 283.879C127.141 284.121 127.469 284.528 127.612 285.011C127.755 285.494 127.702 286.014 127.463 286.457C126.94 287.315 126.22 288.035 125.363 288.558C124.432 288.981 123.425 289.209 122.403 289.226Z" fill="#090909"/>
<path d="M123.93 285.885V285.694C123.904 285.443 123.928 285.189 124 284.947C124.072 284.705 124.192 284.48 124.352 284.285C124.511 284.09 124.708 283.928 124.931 283.809C125.154 283.69 125.398 283.617 125.649 283.593C125.895 283.553 126.146 283.563 126.388 283.624C126.629 283.685 126.855 283.795 127.052 283.948C127.249 284.1 127.413 284.291 127.533 284.509C127.653 284.728 127.727 284.968 127.749 285.216L125.84 285.503L127.749 285.312L125.84 285.598L123.93 285.885Z" fill="#090909"/>
<path d="M129.372 291.899C128.612 291.917 127.859 291.754 127.176 291.422C126.044 290.887 125.111 290.008 124.511 288.91C123.911 287.812 123.674 286.552 123.834 285.311C123.846 285.064 123.908 284.822 124.016 284.6C124.125 284.378 124.278 284.18 124.465 284.019C124.653 283.858 124.872 283.737 125.108 283.664C125.344 283.591 125.593 283.567 125.839 283.593C126.086 283.605 126.328 283.667 126.55 283.775C126.773 283.884 126.97 284.037 127.131 284.224C127.292 284.412 127.413 284.631 127.486 284.867C127.56 285.103 127.584 285.352 127.558 285.598C127.534 286.06 127.627 286.52 127.827 286.937C128.027 287.354 128.328 287.714 128.703 287.985C129.248 288.169 129.843 288.132 130.361 287.882C130.878 287.632 131.277 287.189 131.472 286.648C131.682 286.21 132.051 285.868 132.505 285.692C132.958 285.516 133.461 285.52 133.912 285.703C134.363 285.886 134.727 286.233 134.93 286.675C135.133 287.117 135.16 287.619 135.005 288.08C134.734 288.796 134.324 289.45 133.8 290.007C133.276 290.564 132.647 291.013 131.95 291.327C131.148 291.719 130.264 291.915 129.372 291.899Z" fill="#090909"/>
<path d="M137.297 294.669C136.47 294.649 135.656 294.454 134.91 294.096C133.724 293.458 132.755 292.482 132.126 291.292C131.496 290.102 131.236 288.751 131.377 287.412C131.425 286.914 131.657 286.452 132.028 286.116C132.399 285.781 132.882 285.596 133.382 285.598C133.633 285.61 133.879 285.672 134.106 285.779C134.333 285.887 134.537 286.038 134.705 286.224C134.874 286.411 135.004 286.628 135.088 286.865C135.173 287.101 135.209 287.352 135.196 287.603C135.099 288.187 135.174 288.787 135.411 289.329C135.649 289.872 136.038 290.334 136.533 290.659C136.822 290.787 137.136 290.845 137.452 290.828C137.767 290.811 138.074 290.721 138.347 290.563C138.954 290.221 139.426 289.682 139.684 289.035C140.448 287.317 147.418 276.528 199.071 202.723C199.363 202.305 199.808 202.02 200.309 201.931C200.811 201.841 201.327 201.955 201.745 202.246C202.163 202.537 202.448 202.982 202.537 203.484C202.627 203.985 202.513 204.501 202.222 204.919C154.769 272.613 143.885 288.844 143.121 290.468C142.584 291.988 141.493 293.25 140.066 294C139.206 294.431 138.259 294.66 137.297 294.669Z" fill="#090909"/>
<path d="M248.243 251.99C248.051 252 247.86 251.971 247.679 251.905C247.499 251.84 247.333 251.738 247.193 251.608C246.988 251.473 246.812 251.299 246.677 251.095C246.541 250.891 246.448 250.662 246.403 250.421C246.359 250.18 246.363 249.932 246.417 249.693C246.471 249.454 246.572 249.228 246.715 249.03C252.911 240.375 257.86 230.894 261.419 220.864C262.374 218.286 262.947 216.281 263.52 214.276C264.473 210.933 265.62 207.65 266.957 204.441C270.519 196.008 275.174 188.079 280.801 180.858C290.253 168.255 316.892 134.742 352.983 91.0134C353.129 90.7917 353.321 90.6032 353.545 90.4599C353.768 90.3165 354.02 90.2214 354.283 90.1807C354.545 90.1401 354.813 90.1547 355.07 90.2237C355.327 90.2927 355.566 90.4146 355.773 90.5814C355.98 90.7483 356.15 90.9566 356.272 91.1928C356.394 91.4291 356.465 91.6882 356.481 91.9536C356.497 92.2189 356.457 92.4846 356.364 92.7338C356.272 92.9829 356.128 93.2099 355.942 93.4003C319.852 137.129 293.213 170.642 283.856 183.15C278.449 190.123 273.957 197.76 270.489 205.874C269.17 208.981 268.054 212.17 267.148 215.421C266.575 217.426 266.002 219.431 265.047 222.105C261.35 232.464 256.241 242.263 249.866 251.226C249.674 251.47 249.427 251.667 249.145 251.799C248.863 251.932 248.554 251.997 248.243 251.99Z" fill="#090909"/>
<path d="M278.319 123.763C277.815 123.756 277.335 123.55 276.982 123.19C276.797 123.02 276.649 122.813 276.548 122.583C276.447 122.353 276.395 122.105 276.395 121.853C276.395 121.602 276.447 121.353 276.548 121.123C276.649 120.893 276.797 120.686 276.982 120.517C316.606 80.4157 333.601 63.1342 336.656 59.6015L339.52 56.7372C344.103 52.6316 348.113 49.3854 351.264 51.0085C351.962 51.4514 352.543 52.0555 352.959 52.7701C353.374 53.4846 353.611 54.2885 353.651 55.114H353.842C354.797 54.7321 357.47 53.7774 359.666 55.305C360.574 56.0671 361.233 57.0842 361.556 58.2247C361.88 59.3653 361.853 60.5767 361.48 61.702C364.249 61.0337 366.35 61.1292 367.782 62.084C368.626 62.7099 369.206 63.6297 369.405 64.6618C369.882 67.5262 367.018 71.2498 364.345 74.687L363.008 76.4057C364.046 76.3977 365.078 76.559 366.063 76.8831C366.636 77.1695 369.691 78.5062 369.978 81.1796C370.264 83.853 367.782 85.5715 363.676 88.4359C359.571 91.3002 358.234 92.1595 355.465 93.8781C355.056 94.0304 354.606 94.0377 354.192 93.8985C353.777 93.7593 353.423 93.4823 353.189 93.1135C352.954 92.7448 352.853 92.3067 352.902 91.8724C352.952 91.4381 353.149 91.034 353.46 90.7274L361.576 85.2851C363.199 84.1393 365.968 82.2299 366.159 81.5615C365.734 81.0786 365.214 80.6885 364.631 80.4157C363.688 80.1595 362.69 80.1927 361.767 80.5112C360.908 80.7021 359.475 81.084 358.425 79.9383C357.375 78.7926 358.616 75.8327 361.289 72.3955C362.722 70.5814 365.872 66.3804 365.586 65.2347C365.299 64.0889 364.154 64.8528 361.767 65.5211L359.475 66.4759C358.33 66.9533 356.706 67.6216 355.656 66.1894C354.606 64.7573 355.752 63.4206 356.42 62.7523C357.088 62.0839 358.043 60.8427 357.948 59.697C357.955 59.4688 357.916 59.2415 357.834 59.0283C357.752 58.8152 357.628 58.6205 357.47 58.4557C356.897 58.0738 355.561 58.5513 355.083 58.7422C353.999 59.1583 353.02 59.8106 352.219 60.6518C351.987 60.9307 351.694 61.1531 351.363 61.302C351.033 61.4509 350.672 61.5224 350.309 61.5111H349.546L348.973 60.9381C348.4 60.3653 348.018 59.4105 349.068 57.9783C349.433 57.5688 349.695 57.0777 349.832 56.5462C349.908 56.2036 349.914 55.849 349.848 55.5042C349.782 55.1594 349.647 54.8318 349.45 54.5412C348.591 54.2547 346.108 56.0688 342.098 59.697L339.52 62.2749C336.465 65.7121 321.189 81.275 279.656 123.285C279.288 123.61 278.809 123.781 278.319 123.763Z" fill="#090909"/>
<path d="M302.761 156.703C302.327 156.716 301.902 156.582 301.555 156.322C301.208 156.061 300.96 155.69 300.852 155.27C299.801 151.069 296.555 145.436 290.254 136.843C286.485 131.816 282.089 127.292 277.173 123.381C276.972 123.23 276.803 123.042 276.676 122.826C276.548 122.61 276.464 122.371 276.428 122.123C276.393 121.875 276.407 121.622 276.469 121.379C276.531 121.136 276.641 120.908 276.791 120.707C276.942 120.507 277.13 120.338 277.346 120.21C277.562 120.082 277.8 119.998 278.049 119.963C278.297 119.927 278.55 119.941 278.793 120.003C279.036 120.065 279.264 120.175 279.465 120.325C284.714 124.473 289.4 129.288 293.404 134.647C300.088 143.718 303.43 149.637 304.575 154.316C304.692 154.821 304.608 155.353 304.341 155.798C304.074 156.243 303.644 156.567 303.143 156.703H302.761Z" fill="#090909"/>
<path d="M222.751 259.246C220.737 259.226 218.727 259.066 216.736 258.769C198.69 256.286 189.047 246.261 179.977 232.035C179.722 231.614 179.639 231.111 179.746 230.631C179.852 230.151 180.14 229.73 180.55 229.457C180.985 229.197 181.503 229.111 181.999 229.217C182.495 229.323 182.933 229.614 183.223 230.03C191.911 243.683 200.6 252.658 217.213 255.045C233.826 257.432 245.857 249.412 247.289 248.457C247.71 248.202 248.212 248.119 248.693 248.226C249.173 248.333 249.594 248.621 249.867 249.03C250.127 249.465 250.213 249.983 250.107 250.48C250 250.976 249.71 251.413 249.294 251.703C241.26 256.501 232.107 259.102 222.751 259.246Z" fill="#090909"/>
<path d="M187.041 224.779C186.767 224.79 186.493 224.735 186.244 224.619C185.995 224.503 185.777 224.328 185.609 224.11C181.122 219.05 173.865 213.417 166.8 208.07C162.97 205.135 158.952 202.456 154.77 200.05C154.546 199.922 154.351 199.75 154.196 199.545C154.04 199.34 153.928 199.105 153.866 198.856C153.803 198.606 153.792 198.346 153.832 198.092C153.873 197.838 153.964 197.594 154.101 197.376C154.375 196.969 154.788 196.676 155.263 196.552C155.738 196.429 156.242 196.485 156.679 196.708C160.982 199.221 165.127 201.995 169.091 205.015C176.348 210.457 183.7 216.281 188.473 221.628C188.799 222.009 188.962 222.504 188.926 223.004C188.89 223.504 188.659 223.97 188.282 224.301C187.935 224.597 187.497 224.765 187.041 224.779Z" fill="#090909"/>
<path d="M239.459 126.914C241.727 126.914 243.565 125.075 243.565 122.808C243.565 120.541 241.727 118.702 239.459 118.702C237.192 118.702 235.354 120.541 235.354 122.808C235.354 125.075 237.192 126.914 239.459 126.914Z" fill="#F5F3F0"/>
<path d="M275.455 235.758C275.04 235.766 274.636 235.631 274.309 235.377C273.918 235.059 273.669 234.599 273.615 234.099C273.562 233.598 273.708 233.096 274.022 232.703L332.837 160.617C333.172 160.22 333.647 159.969 334.164 159.915C334.68 159.862 335.197 160.011 335.606 160.331C335.982 160.662 336.213 161.128 336.249 161.628C336.285 162.129 336.122 162.623 335.797 163.004L276.982 235.09C276.795 235.31 276.56 235.484 276.295 235.6C276.031 235.716 275.743 235.77 275.455 235.758Z" fill="#CBC7DB"/>
<path d="M296.459 228.788C296.043 228.813 295.632 228.676 295.314 228.407C295.113 228.256 294.944 228.068 294.816 227.852C294.688 227.636 294.604 227.397 294.569 227.149C294.534 226.901 294.547 226.648 294.61 226.405C294.672 226.162 294.781 225.934 294.932 225.733L341.716 166.537C341.858 166.325 342.042 166.145 342.258 166.01C342.474 165.874 342.715 165.785 342.967 165.749C343.22 165.713 343.477 165.731 343.722 165.801C343.967 165.87 344.194 165.991 344.389 166.155C344.78 166.473 345.029 166.932 345.083 167.433C345.136 167.933 344.99 168.435 344.676 168.828L297.987 228.025C297.804 228.257 297.573 228.445 297.309 228.577C297.045 228.709 296.755 228.781 296.459 228.788Z" fill="#CBC7DB"/>
<path d="M353.365 177.898C352.942 177.864 352.541 177.697 352.22 177.421L323.003 155.079C322.592 154.758 322.322 154.289 322.25 153.772C322.179 153.255 322.312 152.731 322.621 152.31C322.939 151.92 323.398 151.67 323.899 151.617C324.4 151.563 324.901 151.709 325.295 152.024L354.607 174.461C354.997 174.779 355.246 175.238 355.3 175.739C355.354 176.24 355.207 176.741 354.893 177.135C354.71 177.367 354.479 177.555 354.215 177.687C353.95 177.819 353.66 177.891 353.365 177.898Z" fill="#CBC7DB"/>
<path d="M324.053 154.889C323.648 154.887 323.254 154.757 322.927 154.516C322.601 154.276 322.36 153.938 322.239 153.552C322.084 153.083 322.117 152.573 322.331 152.128C322.544 151.683 322.922 151.338 323.384 151.165L356.515 139.517C356.753 139.426 357.007 139.383 357.262 139.392C357.516 139.4 357.767 139.46 357.998 139.566C358.229 139.673 358.437 139.825 358.609 140.013C358.78 140.202 358.913 140.422 358.998 140.662C359.151 141.156 359.107 141.691 358.876 142.153C358.645 142.616 358.244 142.971 357.756 143.145L324.721 154.793L324.053 154.889Z" fill="#CBC7DB"/>
<path d="M353.461 176.944H353.27C353.019 176.92 352.775 176.846 352.552 176.728C352.329 176.609 352.132 176.447 351.973 176.252C351.813 176.057 351.693 175.831 351.621 175.59C351.549 175.348 351.525 175.094 351.551 174.843L355.466 141.33C355.537 140.84 355.796 140.397 356.188 140.094C356.58 139.791 357.074 139.652 357.567 139.707C357.818 139.731 358.062 139.805 358.285 139.923C358.507 140.042 358.704 140.204 358.864 140.399C359.024 140.594 359.143 140.819 359.216 141.061C359.288 141.303 359.312 141.557 359.285 141.808L355.371 175.225C355.323 175.698 355.101 176.136 354.748 176.454C354.395 176.771 353.936 176.946 353.461 176.944Z" fill="#CBC7DB"/>
<path d="M277.841 445.333C274.881 445.333 273.544 441.132 273.067 437.026C269.152 436.644 264.092 435.403 264.092 432.157C264.092 428.911 269.057 427.669 272.876 427.192C273.258 423.086 274.499 417.644 277.841 417.644C281.182 417.644 282.519 423.086 282.901 427.192C286.72 427.669 291.685 428.911 291.685 432.157C291.685 435.403 286.625 436.644 282.71 437.026C282.137 441.132 280.896 445.333 277.841 445.333ZM268.484 432.157C270.53 432.932 272.693 433.352 274.881 433.398H276.504L276.695 435.021C276.795 436.976 277.181 438.906 277.841 440.75C278.545 438.915 278.964 436.983 279.082 435.021L279.273 433.398H280.896C283.053 433.356 285.186 432.936 287.198 432.157C285.215 431.376 283.119 430.925 280.991 430.82H279.273V429.197C279.082 425.569 278.509 423.373 277.936 422.227C277.148 424.468 276.729 426.822 276.695 429.197L276.504 430.82H274.881C272.692 430.931 270.534 431.382 268.484 432.157Z" fill="#090909"/>
<path d="M102.257 179.904C98.9154 179.904 97.5788 174.652 97.1014 170.738C92.8049 170.26 87.0762 168.924 87.0762 165.391C87.0762 161.858 92.7094 160.617 96.9104 160.14C97.2923 156.034 98.5335 149.542 102.257 149.542C105.981 149.542 107.318 156.034 107.699 160.14C111.9 160.617 117.438 161.954 117.438 165.391C117.438 168.828 111.805 170.26 107.508 170.738C106.936 174.652 105.599 179.904 102.257 179.904ZM91.3727 165.391C92.4229 165.964 94.9053 166.728 98.9154 167.11H100.539L100.73 168.733C100.826 171.066 101.344 173.363 102.257 175.512C102.83 174.557 103.498 172.361 103.88 168.733L104.071 167.11H105.599C109.704 166.728 112.187 165.964 113.237 165.391C112.187 164.818 109.8 164.054 105.79 163.768H104.071V161.954C103.785 157.562 103.021 154.889 102.353 153.743C101.78 154.889 100.92 157.562 100.73 161.954V163.673H98.82C94.8099 164.054 92.4229 164.818 91.3727 165.391Z" fill="#090909"/>
<path d="M255.691 158.899C255.51 158.64 255.28 158.421 255.014 158.252C254.748 158.083 254.45 157.969 254.14 157.916C253.829 157.862 253.511 157.871 253.204 157.942C252.896 158.012 252.606 158.142 252.349 158.326C250.08 160.039 247.258 160.855 244.425 160.617C239.842 160.14 235.832 156.512 234.209 151.356C234.014 150.801 233.629 150.334 233.122 150.037C232.615 149.739 232.019 149.632 231.44 149.733C230.962 147.823 229.148 144.672 226.57 141.521C222.751 136.843 218.741 133.883 217.595 134.838C216.45 135.793 218.55 140.28 222.369 144.959C225.043 148.205 227.812 150.687 229.626 151.547C229.532 151.955 229.532 152.38 229.626 152.788C231.822 159.758 237.455 164.627 243.947 165.391H245.475C248.957 165.384 252.341 164.245 255.118 162.145C255.373 161.973 255.591 161.751 255.759 161.493C255.926 161.235 256.04 160.946 256.094 160.643C256.147 160.34 256.139 160.03 256.07 159.73C256.001 159.43 255.872 159.147 255.691 158.899Z" fill="#CBC7DB"/>
<path d="M1.90958 453.448C1.49526 453.456 1.09091 453.321 0.76383 453.067C0.563217 452.916 0.394216 452.728 0.266451 452.512C0.138687 452.296 0.0546535 452.057 0.0191896 451.809C-0.0162742 451.561 -0.00248651 451.308 0.0597492 451.065C0.121985 450.822 0.231492 450.594 0.381953 450.393L65.2116 363.508C65.5154 363.103 65.9678 362.835 66.4692 362.763C66.9706 362.692 67.4798 362.822 67.8849 363.126C68.2901 363.43 68.558 363.882 68.6296 364.384C68.7012 364.885 68.5707 365.394 68.2669 365.799L3.43721 452.685C3.25452 452.917 3.0229 453.105 2.75882 453.237C2.49475 453.369 2.20475 453.441 1.90958 453.448Z" fill="#090909"/>
<path d="M34.5628 384.036C34.1485 384.043 33.7442 383.908 33.4171 383.654C33.2053 383.512 33.0257 383.328 32.89 383.112C32.7544 382.896 32.6656 382.655 32.6295 382.403C32.5935 382.15 32.6111 381.893 32.6809 381.648C32.7508 381.403 32.8715 381.176 33.0351 380.981L63.8746 339.066C64.0179 338.858 64.2009 338.68 64.4133 338.543C64.6256 338.407 64.863 338.313 65.1116 338.269C65.3603 338.225 65.6153 338.23 65.8618 338.285C66.1084 338.34 66.3416 338.443 66.548 338.588C66.9158 338.918 67.1557 339.367 67.2255 339.855C67.2953 340.344 67.1907 340.842 66.9299 341.262L36.0905 383.272C35.9078 383.504 35.6761 383.693 35.412 383.825C35.1479 383.957 34.858 384.029 34.5628 384.036Z" fill="#090909"/>
<path d="M344.962 104.953C344.592 104.963 344.227 104.87 343.906 104.684C343.586 104.499 343.324 104.228 343.148 103.903C340.497 98.1035 336.953 92.7555 332.645 88.0537C329.457 84.5933 325.903 81.4881 322.047 78.7924C321.84 78.6482 321.664 78.4646 321.528 78.2523C321.392 78.0399 321.299 77.8027 321.255 77.5545C321.165 77.0531 321.278 76.5367 321.57 76.1189C321.861 75.7011 322.306 75.4161 322.807 75.3266C323.309 75.2371 323.825 75.3503 324.243 75.6415C328.312 78.5051 332.058 81.8026 335.414 85.4758C339.994 90.4776 343.793 96.143 346.68 102.28C346.879 102.75 346.892 103.279 346.714 103.758C346.537 104.237 346.183 104.631 345.725 104.858L344.962 104.953Z" fill="#80A5AE"/>
<path d="M58.6229 410.865C60.8189 412.488 63.3014 413.348 65.7838 414.493C68.4563 415.853 70.8522 417.699 72.8491 419.936C73.9949 421.368 76.0954 419.363 74.8542 417.931C72.9351 415.729 70.6397 413.886 68.0752 412.488C65.4019 411.056 62.5375 410.197 60.0551 408.383C57.5727 406.569 57.0953 409.719 58.6229 410.865Z" fill="#090909"/>
<path d="M77.0513 422.418C77.7173 423.036 78.495 423.523 79.3428 423.85C79.5182 423.908 79.7037 423.929 79.8876 423.912C80.0716 423.894 80.2499 423.839 80.4114 423.749C80.5728 423.66 80.714 423.537 80.8259 423.39C80.9377 423.243 81.018 423.075 81.0614 422.895C81.1203 422.714 81.1422 422.522 81.1258 422.332C81.1095 422.141 81.0552 421.956 80.9662 421.787C80.8772 421.618 80.7554 421.469 80.6077 421.347C80.4601 421.226 80.2897 421.136 80.1066 421.081H79.9157L79.5337 420.89H79.4383L79.1518 420.508C79.0312 420.311 78.8675 420.144 78.673 420.02C78.4785 419.895 78.2582 419.816 78.0288 419.789C77.7994 419.762 77.5668 419.787 77.3486 419.863C77.1303 419.938 76.9321 420.062 76.7687 420.226C76.6054 420.389 76.4812 420.587 76.4056 420.806C76.3299 421.024 76.3047 421.257 76.3319 421.486C76.3591 421.715 76.438 421.935 76.5626 422.13C76.6872 422.324 76.8543 422.488 77.0513 422.609V422.418Z" fill="#090909"/>
<path d="M28.6437 441.037C30.5533 440.559 33.4176 439.222 35.3272 439.413C39.5282 439.986 37.9051 442.564 38.1915 444.665C38.2643 445.479 38.5495 446.261 39.0186 446.931C39.4877 447.601 40.1243 448.136 40.8649 448.484C43.7292 449.916 47.7393 448.293 50.3172 449.821C52.8951 451.348 52.8951 455.74 55.1866 457.936C57.4781 460.132 58.6238 459.273 60.5334 459.368C62.443 459.464 66.644 458.127 67.9807 461.564C68.1232 462.418 68.2188 463.278 68.2671 464.142C68.3709 465.132 68.7113 466.083 69.2597 466.914C69.8081 467.745 70.5483 468.431 71.4179 468.916C74.2822 470.539 81.3476 469.107 82.1114 473.595C82.3979 475.409 85.1668 474.645 84.8803 472.831C84.5939 471.017 82.5888 468.439 79.9155 467.675C77.2421 466.911 76.5737 467.484 74.9506 467.007C71.2269 465.861 71.4179 463.665 70.7495 460.514C70.0812 457.363 69.6038 457.268 67.5988 456.599C66.0855 456.328 64.5391 456.296 63.0158 456.504C61.8069 456.616 60.589 456.584 59.3877 456.409C57.4781 455.931 57.0962 454.404 56.3323 452.494C55.5685 450.584 54.8047 448.675 52.3223 447.529C50.5836 446.874 48.7377 446.55 46.88 446.574C43.0609 446.288 41.3423 445.333 41.1513 441.514C40.7694 434.258 32.2719 437.122 27.8799 438.268C26.1613 438.65 26.9251 441.418 28.6437 441.037Z" fill="#F5F3F0"/>
<path d="M167.756 189.547C169.952 195.18 174.63 197.567 180.454 197.758C182.841 197.853 185.992 198.235 187.997 196.708C190.002 195.18 190.67 192.125 190.384 189.547C189.811 184.2 186.66 179.617 181.027 180.094C175.394 180.572 168.806 182.386 168.042 188.687C167.756 190.502 170.62 190.502 170.906 188.687C171.384 184.582 177.59 182.959 181.027 182.959C184.464 182.959 188.474 187.351 187.52 191.743C186.565 196.135 182.077 195.18 178.831 194.798C175.585 194.416 171.957 192.602 170.524 188.783C169.856 187.064 167.087 187.828 167.756 189.547Z" fill="#80A5AE"/>
<path d="M214.062 167.873C206.52 172.361 213.012 187.924 221.796 183.818C230.58 179.713 224.183 165.295 215.208 167.587C214.841 167.688 214.529 167.931 214.341 168.262C214.153 168.594 214.104 168.986 214.206 169.353C214.307 169.72 214.55 170.032 214.881 170.22C215.212 170.408 215.605 170.457 215.972 170.356C221.605 168.924 226.379 178.376 220.65 181.145C214.922 183.914 210.912 173.125 215.59 170.356C215.919 170.153 216.155 169.828 216.244 169.452C216.334 169.076 216.27 168.68 216.067 168.351C215.865 168.021 215.54 167.786 215.164 167.697C214.788 167.607 214.392 167.671 214.062 167.873Z" fill="#80A5AE"/>
<path d="M275.455 163.004C272.877 161.954 267.435 160.14 265.907 163.481C264.379 166.823 263.329 171.215 266.48 172.743C269.631 174.271 273.354 174.366 275.646 172.074C276.66 171.1 277.294 169.796 277.434 168.396C277.574 166.996 277.211 165.593 276.41 164.436C275.359 162.909 272.877 164.341 273.927 165.868C274.345 166.417 274.572 167.088 274.572 167.778C274.572 168.468 274.345 169.139 273.927 169.688C272.782 171.215 269.917 171.12 268.294 170.356C266.671 169.592 267.53 168.637 267.721 167.587C267.912 166.537 268.008 165.296 268.485 164.818C268.962 164.341 273.45 165.2 274.691 165.773C275.932 166.346 277.173 163.672 275.455 163.004Z" fill="#80A5AE"/>
<path d="M256.358 199.572C250.534 203.105 255.499 214.753 262.183 211.602C268.866 208.452 264.092 197.662 257.218 199.381C256.851 199.482 256.539 199.725 256.351 200.057C256.163 200.388 256.114 200.78 256.215 201.148C256.316 201.515 256.56 201.827 256.891 202.015C257.222 202.203 257.614 202.251 257.982 202.15C261.514 201.195 264.57 207.21 261.037 209.024C257.504 210.839 254.926 203.773 257.791 202.055C260.655 200.336 257.886 198.617 256.358 199.572Z" fill="#80A5AE"/>
<path d="M209.383 215.326C206.615 226.783 226.951 231.462 229.625 219.527C232.298 207.592 215.017 205.205 210.147 214.18C209.192 215.803 211.675 217.235 212.534 215.612C215.589 210.265 226.569 209.502 227.047 217.235C227.524 227.261 210.052 224.587 212.152 216.09C212.534 214.276 209.765 213.512 209.383 215.326Z" fill="#80A5AE"/>
<path d="M230.866 241.105C232.871 248.171 246.334 246.548 245.188 238.623C244.042 230.698 231.153 232.417 230.866 240.151C230.866 240.531 231.017 240.895 231.286 241.163C231.554 241.432 231.919 241.583 232.298 241.583C232.678 241.583 233.042 241.432 233.311 241.163C233.58 240.895 233.731 240.531 233.731 240.151C233.921 235.759 242.133 234.517 242.419 239.291C242.705 244.065 234.59 243.97 233.635 240.342C233.534 239.974 233.291 239.663 232.959 239.475C232.628 239.287 232.236 239.238 231.869 239.339C231.502 239.44 231.19 239.683 231.002 240.015C230.814 240.346 230.765 240.738 230.866 241.105Z" fill="#80A5AE"/>
<path d="M116.292 265.07C108.559 266.025 101.684 267.839 97.3876 274.904C96.4328 276.432 98.9152 277.96 99.87 276.337C103.594 270.226 109.609 268.794 116.292 267.934C118.106 267.743 118.106 264.879 116.292 265.07Z" fill="#090909"/>
<path d="M145.51 283.593C147.992 289.608 149.806 297.819 145.51 303.452C144.459 304.98 146.942 306.412 147.992 304.885C152.957 298.392 150.856 289.035 147.897 282.161C147.228 280.442 144.746 281.97 145.51 283.593Z" fill="#090909"/>
<path d="M70.9401 294.382C73.0406 298.965 79.4377 302.498 83.4478 304.98C88.6231 308.237 94.1681 310.865 99.9655 312.809C101.684 313.478 102.448 310.709 100.729 310.136C95.7085 308.365 90.8786 306.094 86.3121 303.357C82.1111 300.874 75.5231 297.533 73.4226 292.95C72.6588 291.327 70.1763 292.759 70.9401 294.382Z" fill="#090909"/>
<path d="M135.388 334.292C139.684 336.488 143.599 338.206 147.132 341.644C148.373 342.885 150.473 340.88 149.137 339.639C145.509 336.01 141.307 334.101 136.82 331.809C135.197 331.046 133.765 333.528 135.388 334.292Z" fill="#090909"/>
<path d="M117.152 323.503L125.554 327.322C127.272 328.086 128.705 325.604 126.986 324.84L118.584 321.021C116.865 320.257 115.433 322.739 117.152 323.503Z" fill="#090909"/>
<path d="M218.836 280.06C216.613 283.335 213.238 285.653 209.383 286.552C206.901 287.221 204.61 287.316 202.509 289.035C198.976 291.804 197.64 296.482 195.921 300.397C190.192 313.382 183.509 325.889 176.921 338.302C173.997 343.98 170.713 349.466 167.087 354.724C162.981 360.453 157.921 365.417 152.956 370.287C144.649 378.402 136.629 386.709 132.81 397.88C132.237 399.599 135.006 400.362 135.579 398.644C139.875 385.945 150.092 377.257 159.257 368.091C168.423 358.925 174.248 349.186 180.167 338.206C186.087 327.226 192.961 314.337 198.403 301.924C199.361 299.375 200.478 296.888 201.745 294.477C203.941 290.754 206.328 290.276 210.147 289.321C214.735 288.237 218.733 285.435 221.318 281.492C222.368 279.964 219.886 278.532 218.836 280.06Z" fill="#090909"/>
<path d="M81.6337 440.082C77.1462 440.273 72.6588 440.559 68.8396 443.137C67.312 444.092 68.7441 446.574 70.2718 445.619C73.709 443.328 77.6236 443.042 81.6337 442.946C83.4478 442.851 83.4478 439.986 81.6337 440.082Z" fill="#F5F3F0"/>
<path d="M87.8388 448.484C83.4599 448.147 79.0555 448.436 74.7583 449.343C72.9442 449.725 73.708 452.398 75.4266 452.112C79.5088 451.285 83.686 451.028 87.8388 451.348C89.6529 451.444 89.6529 448.579 87.8388 448.484Z" fill="#F5F3F0"/>
<path d="M291.017 231.175C290.637 231.175 290.273 231.326 290.004 231.595C289.736 231.864 289.585 232.228 289.585 232.608C289.585 232.987 289.736 233.352 290.004 233.62C290.273 233.889 290.637 234.04 291.017 234.04C291.397 234.04 291.761 233.889 292.03 233.62C292.298 233.352 292.449 232.987 292.449 232.608C292.449 232.228 292.298 231.864 292.03 231.595C291.761 231.326 291.397 231.175 291.017 231.175Z" fill="#CBC7DB"/>
<path d="M352.41 0.882295C351.073 -0.645355 348.399 0.213924 346.681 0.500359C343 1.07936 339.364 1.90874 335.796 2.98277C332.932 3.84207 327.203 4.79688 330.45 8.616C331.889 10.2643 333.6 11.653 335.51 12.7215L294.454 56.0686C294.149 56.3923 293.911 56.7737 293.755 57.1905C293.599 57.6073 293.528 58.0511 293.546 58.4957C293.563 58.9404 293.67 59.377 293.859 59.78C294.048 60.183 294.315 60.5443 294.645 60.8425L295.791 61.8927C296.108 62.2041 296.485 62.4492 296.898 62.6132C297.311 62.7773 297.753 62.8572 298.198 62.8483C298.643 62.8394 299.081 62.7419 299.487 62.5614C299.894 62.3809 300.26 62.1211 300.565 61.7973L342.193 17.7819L343.721 18.9276C345.535 20.1688 346.967 21.7919 348.972 22.7467C349.182 22.8582 349.416 22.9161 349.653 22.9149C349.89 22.9137 350.123 22.8535 350.331 22.7399C350.54 22.6263 350.716 22.4629 350.846 22.2641C350.975 22.0653 351.053 21.8374 351.073 21.601C351.168 21.41 351.264 21.3146 351.264 21.1236C351.837 16.8271 352.314 12.626 352.696 8.32952C352.887 6.229 354.033 2.69638 352.41 0.882295Z" fill="#80A5AE"/>
<path d="M317.082 262.492C315.746 260.965 313.072 261.824 311.354 262.11C307.673 262.689 304.037 263.519 300.469 264.593C297.605 265.452 291.876 266.407 295.122 270.226C296.561 271.874 298.273 273.263 300.183 274.332L259.127 317.679C258.822 318.002 258.584 318.384 258.428 318.801C258.272 319.217 258.201 319.661 258.218 320.106C258.236 320.55 258.343 320.987 258.532 321.39C258.72 321.793 258.988 322.154 259.318 322.453L260.464 323.503C260.781 323.814 261.158 324.059 261.571 324.223C261.984 324.387 262.426 324.467 262.871 324.458C263.316 324.449 263.754 324.352 264.16 324.171C264.567 323.991 264.933 323.731 265.238 323.407L306.866 279.392L308.394 280.538C310.208 281.779 311.64 283.402 313.645 284.357C313.855 284.468 314.088 284.526 314.326 284.525C314.563 284.524 314.796 284.464 315.004 284.35C315.213 284.236 315.389 284.073 315.519 283.874C315.648 283.675 315.726 283.447 315.746 283.211C315.841 283.02 315.937 282.925 315.937 282.734C316.51 278.437 316.987 274.236 317.369 269.94C317.56 267.839 318.705 264.306 317.082 262.492Z" fill="#80A5AE"/>
<path d="M351.359 2.02815C351.454 4.35538 351.358 6.68654 351.073 8.9981C350.786 10.8122 353.555 11.5759 353.841 9.76186C354.207 7.2012 354.334 4.61232 354.223 2.02815C354.128 0.214066 351.264 0.214066 351.359 2.02815Z" fill="#090909"/>
<path d="M350.596 14.249V14.6308C350.596 15.0107 350.747 15.3749 351.015 15.6435C351.284 15.9121 351.648 16.063 352.028 16.063C352.4 16.0404 352.752 15.8823 353.016 15.6185C353.279 15.3546 353.437 15.0033 353.46 14.6308V14.249C353.46 13.8692 353.309 13.5049 353.041 13.2363C352.772 12.9677 352.408 12.8168 352.028 12.8168C351.655 12.8395 351.304 12.9975 351.04 13.2614C350.777 13.5252 350.618 13.8766 350.596 14.249Z" fill="#090909"/>
<path d="M288.726 55.4957L284.716 59.9832C283.475 61.3199 285.48 63.325 286.721 61.9883L290.731 57.5962C291.972 56.164 289.967 54.159 288.726 55.4957Z" fill="#090909"/>
<path d="M280.61 64.7571L277.937 67.3351C277.658 67.6009 277.497 67.9665 277.488 68.3515C277.479 68.7365 277.623 69.1093 277.889 69.3879C278.155 69.6664 278.521 69.8279 278.905 69.8368C279.29 69.8458 279.663 69.7014 279.942 69.4355L282.615 66.8577C282.894 66.5918 283.055 66.2261 283.064 65.8411C283.073 65.4561 282.929 65.0834 282.663 64.8049C282.397 64.5263 282.031 64.3648 281.646 64.3558C281.261 64.3468 280.889 64.4912 280.61 64.7571Z" fill="#090909"/>
<path d="M297.318 48.8125C302.481 42.9981 308.066 37.5729 314.027 32.5812C315.364 31.4355 313.359 29.4305 311.927 30.5762C305.995 35.5684 300.442 40.9937 295.313 46.8075C294.072 48.2397 296.077 50.2447 297.318 48.8125Z" fill="#090909"/>
<path d="M258.746 336.583L267.721 328.372C269.153 327.131 267.053 325.126 265.716 326.367L256.741 334.483C255.309 335.724 257.409 337.825 258.746 336.583Z" fill="#090909"/>
<path d="M272.018 323.503C272.498 322.785 273.114 322.169 273.832 321.689C274.124 321.478 274.332 321.171 274.419 320.821C274.507 320.472 274.468 320.103 274.309 319.779C274.11 319.448 273.792 319.204 273.42 319.097C273.048 318.991 272.649 319.03 272.304 319.206C271.174 319.936 270.227 320.916 269.535 322.071C269.346 322.4 269.294 322.791 269.393 323.158C269.491 323.525 269.731 323.838 270.061 324.028C270.39 324.218 270.781 324.269 271.148 324.171C271.515 324.072 271.828 323.832 272.018 323.503Z" fill="#090909"/>
<path d="M293.117 273.091L278.318 287.03C276.981 288.272 278.986 290.277 280.323 289.035L295.122 275.191C295.4 274.925 295.562 274.56 295.571 274.175C295.58 273.79 295.436 273.417 295.17 273.138C294.904 272.86 294.538 272.698 294.153 272.689C293.768 272.68 293.395 272.825 293.117 273.091Z" fill="#090909"/>
</svg>
