<svg width="570" height="468" viewBox="0 0 570 468" fill="none" xmlns="http://www.w3.org/2000/svg">
<rect y="0.00195312" width="570" height="467" rx="8" fill="#F5F3F0"/>
<path d="M500.551 412.355H230.372C222.368 412.337 214.698 409.519 209.039 404.518C203.38 399.517 200.191 392.74 200.171 385.667V86.3556C200.191 79.2831 203.38 72.5055 209.039 67.5046C214.698 62.5036 222.368 59.686 230.372 59.668H500.551C508.555 59.686 516.225 62.5036 521.884 67.5046C527.543 72.5055 530.732 79.2831 530.752 86.3556V385.667C530.732 392.74 527.543 399.517 521.884 404.518C516.225 409.519 508.555 412.337 500.551 412.355ZM230.372 63.7738C223.594 63.7738 217.094 66.1529 212.302 70.3878C207.51 74.6227 204.817 80.3665 204.817 86.3556V385.667C204.817 391.656 207.51 397.4 212.302 401.635C217.094 405.87 223.594 408.249 230.372 408.249H500.551C507.329 408.249 513.829 405.87 518.621 401.635C523.413 397.4 526.106 391.656 526.106 385.667V86.3556C526.106 80.3665 523.413 74.6227 518.621 70.3878C513.829 66.1529 507.329 63.7738 500.551 63.7738H230.372Z" fill="#090909"/>
<path d="M100.401 438.76L94.9037 438.605V432.488L72.759 432.333V455.562C72.759 456.506 73.1343 457.412 73.8022 458.08C74.4702 458.748 75.3761 459.123 76.3207 459.123L112.558 459.356V456.646C112.48 446.735 110.312 438.76 100.401 438.76Z" fill="#090909"/>
<path d="M112.79 453.317C108.918 452.466 103.963 450.452 99.9366 451.227C97.9234 451.614 96.0652 453.163 93.8972 452.93C91.7291 452.698 90.1032 451.072 88.0126 450.762C86.6737 450.628 85.3253 450.898 84.1411 451.536C81.6634 452.698 80.2696 453.163 77.4048 452.62C74.5399 452.078 71.5976 451.614 69.3521 454.014C68.5004 454.943 70.049 456.182 70.9007 455.253C73.6881 452.311 78.5662 455.64 81.9731 454.711C83.2119 454.401 84.1411 453.627 85.3026 453.162C87.7029 452.078 89.716 453.627 91.9614 454.401C94.2069 455.176 96.3748 454.401 99.0849 453.55C103.111 452.233 108.454 454.401 112.558 455.253C113.796 455.485 114.029 453.55 112.79 453.317Z" fill="white"/>
<path d="M148.407 443.328L142.987 443.174V437.057H120.765V460.285C120.765 461.23 121.14 462.136 121.808 462.804C122.476 463.472 123.382 463.847 124.327 463.847L160.486 464.002V461.369C160.486 451.304 158.395 443.406 148.407 443.328Z" fill="#090909"/>
<path d="M160.873 457.885C156.924 457.111 151.969 455.098 148.02 455.795C145.93 456.182 144.149 457.808 141.981 457.498C139.813 457.189 138.187 455.717 136.096 455.408C134.765 455.245 133.415 455.488 132.225 456.105C129.747 457.343 128.353 457.808 125.488 457.189C122.623 456.569 119.681 456.259 117.436 458.66C116.507 459.589 118.055 460.75 118.984 459.899C121.772 456.879 126.65 460.208 130.057 459.357C131.295 459.047 132.225 458.273 133.386 457.808C135.786 456.647 137.799 458.195 140.045 459.047C142.29 459.899 144.458 458.969 147.168 458.118C151.195 456.879 156.537 458.969 160.564 459.821C161.802 460.131 162.112 458.118 160.873 457.885Z" fill="white"/>
<path d="M175.894 261.836C176.514 258.119 174.965 254.402 171.094 253.318C169.79 253.018 168.431 253.067 167.152 253.462C165.874 253.856 164.723 254.581 163.815 255.564C162.398 255.07 160.875 254.963 159.402 255.254L139.038 258.661C135.864 259.203 132.689 259.9 129.514 260.287L128.198 260.442H128.043C126.73 259.655 125.288 259.104 123.785 258.816C123.624 257.379 123.047 256.021 122.126 254.907C121.204 253.793 119.978 252.972 118.597 252.544C114.648 251.46 111.474 253.86 110.08 257.345C105.589 268.572 100.711 279.722 96.6846 291.026C92.6583 302.331 90.5677 313.635 88.8643 325.25C87.1608 336.864 85.7671 348.866 82.4376 360.325C79.1082 371.785 74.1527 382.238 71.2878 393.697C68.0358 406.628 66.255 419.868 64.3967 433.031C63.8547 437.135 66.1002 442.013 71.0556 441.78L101.795 440.077C106.673 445.032 115.887 443.561 122.546 443.484L150.188 442.864C154.369 442.787 159.789 443.561 163.583 441.548C167.377 439.535 169.235 435.354 169.158 431.018C169.081 426.682 167.764 423.352 167.145 419.636C166.525 415.919 165.983 411.196 165.674 407.015C164.899 398.265 164.28 389.438 163.661 380.689C162.422 362.493 161.415 344.297 160.951 326.024V324.088C163.273 314.952 165.674 305.815 167.997 296.679C170.939 285.064 174.114 273.605 175.894 261.836ZM88.6319 412.512C88.3997 412.667 88.3223 412.667 88.4771 412.512C87.548 413.751 87.7028 411.815 88.6319 412.512ZM105.434 311.7H105.124C105.202 311.235 105.357 310.848 105.434 310.461V311.7Z" fill="#80A5AE"/>
<path d="M125.411 177.902C116.727 184.209 109.733 192.56 105.047 202.215C102.492 207.558 91.884 229.702 102.414 246.35C108.996 256.802 120.765 259.977 128.74 262.145C147.71 267.255 164.977 262.3 186.038 256.26C186.038 256.26 198.813 255.951 207.098 248.982C207.982 248.308 208.654 247.394 209.034 246.35C209.808 244.259 208.569 242.865 208.415 239.768C208.26 236.671 208.802 237.6 209.034 234.503C209.421 230.167 209.576 227.999 208.415 226.605C205.55 223.276 197.11 227.147 195.871 224.592C195.752 224.161 195.752 223.706 195.871 223.276C196.413 220.179 196.723 213.675 193.935 210.81C192.387 209.261 189.599 208.487 187.973 209.493C186.347 210.5 186.425 211.894 186.038 215.378C184.799 225.366 185.031 226.605 184.024 227.921C181.392 231.251 174.423 229.78 171.481 229.238C163.273 227.612 151.04 226.295 133.308 227.225" fill="white"/>
<path d="M145 265.784C139.379 265.821 133.778 265.092 128.353 263.616C120.223 261.448 107.989 258.196 101.098 247.201C96.0652 239.226 92.4261 224.902 103.653 201.595C108.45 191.683 115.601 183.097 124.482 176.586C124.649 176.468 124.838 176.384 125.038 176.34C125.238 176.295 125.445 176.291 125.647 176.327C125.848 176.363 126.041 176.439 126.213 176.549C126.385 176.66 126.534 176.804 126.65 176.973C126.896 177.302 127.002 177.715 126.944 178.121C126.886 178.528 126.669 178.895 126.34 179.141C117.854 185.308 111.019 193.473 106.441 202.912C95.833 224.979 99.085 238.219 103.731 245.498C110.002 255.486 121.075 258.506 129.127 260.674C147.71 265.629 164.435 260.829 185.573 254.712H185.96C186.115 254.634 198.349 254.325 206.092 247.821C206.772 247.311 207.284 246.61 207.563 245.807C207.873 245.033 207.718 244.491 207.408 243.252C207.102 242.14 206.921 240.997 206.866 239.845C206.799 238.884 206.878 237.918 207.098 236.98C207.325 236.12 207.455 235.237 207.486 234.348C207.795 230.554 207.95 228.463 207.253 227.612C206.556 226.76 203.382 226.682 201.136 226.915C198.891 227.147 195.484 227.457 194.478 225.289C194.202 224.627 194.148 223.893 194.323 223.198V223.043C194.942 219.791 195.019 214.061 192.774 211.893C190.529 209.725 189.599 210.345 188.748 210.809C187.896 211.274 187.896 212.59 187.509 215.61C187.122 218.63 186.967 220.72 186.812 222.346C186.347 226.45 186.27 227.612 185.263 228.85C182.089 232.877 174.888 231.483 171.481 230.786H171.249C160.486 228.696 147.788 227.999 133.386 228.773C133.183 228.783 132.979 228.754 132.787 228.685C132.595 228.617 132.419 228.511 132.268 228.375C132.117 228.238 131.994 228.073 131.907 227.889C131.82 227.705 131.77 227.505 131.76 227.302C131.758 226.896 131.908 226.504 132.18 226.204C132.452 225.903 132.827 225.714 133.231 225.676C147.865 224.902 160.796 225.598 171.791 227.689H172.101C174.501 228.154 180.85 229.392 182.786 226.837C183.25 226.373 183.328 225.676 183.715 221.882C183.87 220.333 184.102 218.088 184.489 215.145C184.876 212.203 185.186 209.261 187.199 208.099C189.212 206.938 193.161 207.79 195.019 209.648C199.046 213.674 197.575 222.501 197.42 223.508V223.818C198.578 223.983 199.755 223.956 200.904 223.74C203.846 223.508 207.563 223.121 209.654 225.521C211.744 227.921 211.047 229.934 210.66 234.503C210.584 235.545 210.428 236.581 210.196 237.6C210.02 238.256 209.968 238.938 210.041 239.613C210.094 240.556 210.25 241.491 210.505 242.4C210.815 243.717 211.202 245.11 210.583 246.736C210.1 248.044 209.27 249.195 208.182 250.066C200.052 256.88 188.128 257.654 186.347 257.654C171.559 261.99 158.318 265.784 145 265.784Z" fill="#090909"/>
<path d="M174.501 228.54C174.81 223.198 175.043 217.778 174.346 212.435C173.649 207.092 171.868 203.066 169.778 198.575C165.906 190.213 161.725 181.773 154.447 175.966C153.285 175.037 151.582 176.663 152.743 177.592C159.634 183.089 163.583 190.755 167.222 198.575C169.39 203.221 171.326 207.712 172.023 212.745C172.72 217.778 172.487 223.275 172.178 228.54C172.1 230.011 174.423 230.011 174.501 228.54Z" fill="#090909"/>
<path d="M157.853 271.591C152.82 287.929 158.937 304.576 158.705 321.146C158.705 321.454 158.827 321.749 159.045 321.967C159.263 322.185 159.558 322.307 159.866 322.307C160.174 322.307 160.47 322.185 160.688 321.967C160.906 321.749 161.028 321.454 161.028 321.146C161.26 304.808 155.143 288.316 160.099 272.211C160.181 271.913 160.141 271.595 159.989 271.326C159.836 271.057 159.584 270.86 159.286 270.778C158.988 270.696 158.67 270.736 158.401 270.888C158.133 271.041 157.935 271.293 157.853 271.591V271.591Z" fill="#090909"/>
<path d="M140.2 427.843C145.234 427.238 150.311 427.057 155.376 427.301C156.847 427.378 156.847 425.055 155.376 424.978C150.311 424.734 145.234 424.915 140.2 425.52C138.806 425.675 138.729 427.998 140.2 427.843Z" fill="#090909"/>
<path d="M161.338 427.611H165.287C165.595 427.611 165.89 427.489 166.108 427.271C166.326 427.053 166.448 426.758 166.448 426.45C166.448 426.141 166.326 425.846 166.108 425.628C165.89 425.41 165.595 425.288 165.287 425.288H161.338C161.03 425.288 160.734 425.41 160.516 425.628C160.299 425.846 160.176 426.141 160.176 426.45C160.176 426.758 160.299 427.053 160.516 427.271C160.734 427.489 161.03 427.611 161.338 427.611Z" fill="#090909"/>
<path d="M103.189 438.374C101.718 434.734 105.202 431.947 106.751 429.082C107.728 427.065 108.332 424.888 108.531 422.656C109.099 416.424 109.125 410.154 108.609 403.918C107.68 390.368 105.202 376.972 103.963 363.422C101.408 336.245 102.802 308.757 103.111 281.58C103.189 280.109 100.866 280.109 100.789 281.58C100.479 309.532 99.0076 337.793 101.872 365.668C103.266 379.373 105.744 393.078 106.441 406.86C106.751 413.287 107.757 422.036 104.737 427.921C102.647 431.947 99.1625 434.657 101.176 439.535C101.795 440.929 103.808 439.69 103.189 438.374Z" fill="#090909"/>
<path d="M68.7328 427.457C72.6901 429.021 76.9669 429.605 81.1988 429.16C85.922 428.541 90.3354 426.683 95.136 426.605C95.4441 426.605 95.7395 426.483 95.9573 426.265C96.1751 426.047 96.2975 425.752 96.2975 425.444C96.2975 425.136 96.1751 424.84 95.9573 424.622C95.7395 424.405 95.4441 424.282 95.136 424.282C91.1871 424.36 87.548 425.521 83.6765 426.295C78.9038 427.415 73.902 427.036 69.3521 425.211C67.9584 424.669 67.3391 426.915 68.7328 427.457Z" fill="#090909"/>
<path d="M144.071 443.329C142.245 444.681 140.536 446.183 138.961 447.82C138.828 447.92 138.717 448.047 138.638 448.193C138.558 448.339 138.511 448.501 138.499 448.667C138.487 448.833 138.511 448.999 138.569 449.155C138.628 449.311 138.719 449.452 138.836 449.57C138.954 449.688 139.095 449.779 139.251 449.837C139.407 449.895 139.574 449.919 139.74 449.907C139.906 449.896 140.067 449.848 140.213 449.769C140.36 449.689 140.487 449.579 140.587 449.446C142.024 447.957 143.578 446.585 145.232 445.342C146.471 444.49 145.31 442.477 144.071 443.329Z" fill="white"/>
<path d="M148.639 443.948C146.79 445.242 145.123 446.778 143.684 448.516C142.755 449.6 144.381 451.304 145.387 450.142C146.644 448.538 148.131 447.129 149.801 445.961C150.962 445.109 149.801 443.019 148.639 443.948Z" fill="white"/>
<path d="M96.9169 440.618C94.8712 441.53 93.0678 442.909 91.6517 444.644C90.7226 445.806 92.3485 447.432 93.2777 446.27C94.5917 444.72 96.2307 443.477 98.0783 442.631C99.3946 442.012 98.2332 439.999 96.9169 440.618Z" fill="white"/>
<path d="M101.95 441.084C100.259 442.168 98.6775 443.412 97.2264 444.8C96.2198 445.884 97.8459 447.51 98.8525 446.426C100.149 445.167 101.576 444.051 103.111 443.097C104.427 442.245 103.266 440.232 101.95 441.084Z" fill="white"/>
<path d="M173.726 211.506C181.314 204.46 186.734 195.4 190.76 185.877C194.787 176.353 197.419 166.365 200.052 156.376C201.955 149.904 203.404 143.306 204.388 136.632C205.085 130.825 205.704 127.65 208.027 112.397C208.259 110.925 208.801 108.603 209.343 103.802C209.576 102.021 209.73 100.395 208.724 99.1563C207.717 97.9174 205.937 97.9174 205.395 97.84C200.904 97.6851 197.729 103.415 197.497 103.802" fill="white"/>
<path d="M174.578 212.28C191.999 195.788 197.962 170.856 203.382 148.324C205.085 140.891 205.937 133.303 207.176 125.715C207.872 121.146 208.492 116.501 209.266 111.932C209.886 108.526 211.666 103.26 210.428 99.8535C207.64 92.4203 198.736 99.2341 196.49 103.183C195.794 104.499 197.807 105.661 198.504 104.422C200.672 100.55 208.26 94.9755 208.182 103.802C208.182 108.603 206.634 114.023 205.937 118.746C204.853 125.56 203.924 132.374 202.84 139.187C200.749 152.041 197.032 165.049 192.774 177.36C188.515 189.671 182.553 201.518 172.952 210.654C171.868 211.661 173.494 213.364 174.578 212.28V212.28Z" fill="#090909"/>
<path d="M155.066 164.197C161.028 161.719 165.287 156.377 168.616 151.034C172.869 144.216 176.572 137.07 179.688 129.664C183.173 121.533 185.418 112.861 187.973 104.422C190.528 95.9819 192.774 83.2836 203.072 79.8767C204.543 79.4121 203.924 77.1667 202.452 77.6313C194.71 80.1864 191.535 86.3033 189.057 93.5816C186.038 102.176 183.715 111.003 180.927 119.675C178.14 128.347 173.649 137.097 169.158 145.459C165.829 151.731 161.26 159.164 154.446 161.951C153.053 162.493 153.672 164.739 155.066 164.197V164.197Z" fill="#090909"/>
<path d="M134.315 226.993C133.308 223.509 132.689 219.405 130.598 216.385C129.747 215.146 127.733 216.308 128.585 217.547C130.521 220.334 131.14 224.36 132.069 227.612C132.152 227.91 132.349 228.163 132.617 228.315C132.886 228.468 133.204 228.507 133.502 228.425C133.8 228.343 134.053 228.146 134.205 227.877C134.358 227.609 134.397 227.291 134.315 226.993V226.993Z" fill="#090909"/>
<path d="M100.246 237.832C103.576 233.651 109.305 231.018 114.106 228.773C119.636 226.241 125.426 224.32 131.373 223.043C132.844 222.734 132.224 220.488 130.753 220.798C124.627 222.164 118.659 224.162 112.945 226.76C107.989 229.083 102.027 231.793 98.5428 236.206C97.6137 237.368 99.3171 239.071 100.246 237.832V237.832Z" fill="#090909"/>
<path d="M165.674 155.138C171.636 159.474 175.197 166.675 178.14 173.257C181.217 180.239 183.427 187.572 184.721 195.091C184.953 196.563 187.199 195.943 186.967 194.472C185.539 186.307 183.04 178.367 179.534 170.856C176.514 164.275 172.875 157.461 166.835 153.125C165.674 152.196 164.512 154.209 165.674 155.138V155.138Z" fill="#090909"/>
<path d="M106.363 212.28C105.279 215.223 105.434 218.862 109.228 219.249C113.022 219.636 115.809 219.714 116.971 216.229C118.132 212.745 116.352 210.422 113.796 208.951C111.241 207.48 108.376 209.338 106.828 211.971C106.053 213.287 108.067 214.448 108.763 213.21C109.46 211.971 110.854 209.88 112.867 211.119C113.573 211.505 114.144 212.098 114.504 212.817C114.863 213.537 114.995 214.349 114.88 215.145C114.416 217.313 112.558 217.081 110.854 217.004C109.151 216.926 108.531 217.236 108.067 215.997C107.602 214.758 108.299 213.829 108.609 212.9C108.918 211.971 106.828 210.887 106.363 212.28V212.28Z" fill="#CBC7DB"/>
<path d="M156.072 206.474C153.827 207.326 153.595 210.423 154.214 212.514C154.834 214.604 158.395 215.379 160.718 214.837C163.041 214.295 164.202 211.197 163.506 208.797C162.809 206.397 159.712 205.623 157.079 206.01C155.608 206.165 156.227 208.41 157.698 208.255C159.17 208.1 160.718 207.868 161.26 209.417C161.802 210.965 161.338 212.359 159.789 212.591C158.24 212.824 156.847 212.901 156.382 211.662C155.918 210.423 156.072 208.952 156.692 208.72C157.311 208.488 157.466 205.932 156.072 206.474V206.474Z" fill="#CBC7DB"/>
<path d="M134.16 188.587C131.45 189.826 130.134 193 130.289 195.865C130.444 198.73 133.773 200.975 136.793 201.13C139.813 201.285 141.748 198.885 142.058 195.71C142.368 192.536 138.651 189.826 135.631 188.664C134.238 188.122 133.618 190.368 135.012 190.91C136.406 191.452 139.58 192.923 139.735 195.013C139.777 196.145 139.39 197.252 138.651 198.11C137.799 199.04 137.025 198.962 135.786 198.652C134.547 198.343 132.302 196.562 132.767 194.162C132.873 193.406 133.161 192.687 133.606 192.066C134.051 191.446 134.64 190.943 135.322 190.6C136.715 189.98 135.554 187.967 134.16 188.587V188.587Z" fill="#CBC7DB"/>
<path d="M172.642 173.412C171.403 173.489 170.087 173.179 168.926 173.876C168.432 174.2 168.022 174.635 167.726 175.146C167.43 175.657 167.258 176.229 167.222 176.819C166.835 179.296 166.912 182.239 169.622 183.245C172.332 184.252 174.5 182.239 174.965 179.761C175.43 177.283 175.972 173.334 173.184 173.257C172.876 173.257 172.581 173.379 172.363 173.597C172.145 173.815 172.023 174.11 172.023 174.418C172.023 174.726 172.145 175.022 172.363 175.24C172.581 175.457 172.876 175.58 173.184 175.58C172.487 175.58 172.874 176.664 172.874 177.206C172.904 177.855 172.851 178.505 172.72 179.141C172.487 180.458 171.094 182.006 169.777 180.613C168.461 179.219 169.235 177.748 169.545 176.819C169.855 175.889 171.403 175.812 172.642 175.735C173.881 175.657 174.191 173.334 172.642 173.412Z" fill="#CBC7DB"/>
<path d="M139.967 224.127C139.89 222.269 141.826 221.65 143.374 221.495C144.923 221.34 144.845 221.34 145.465 222.037C146.084 222.734 145.852 223.818 145.775 224.592C145.775 224.9 145.897 225.195 146.115 225.413C146.333 225.631 146.628 225.753 146.936 225.753C147.244 225.753 147.539 225.631 147.757 225.413C147.975 225.195 148.097 224.9 148.097 224.592C148.175 221.417 146.936 218.862 143.374 219.172C139.813 219.482 137.49 220.875 137.645 224.127C137.722 225.599 140.045 225.599 139.967 224.127V224.127Z" fill="#CBC7DB"/>
<path d="M132.689 143.136C134.083 139.42 143.916 140.891 146.394 142.052C151.272 144.375 153.13 149.64 153.517 154.751C153.905 159.861 154.292 164.739 150.962 167.914C147.633 171.088 142.522 172.637 137.799 172.559C136.096 172.559 136.096 175.269 137.799 175.269C143.761 175.347 149.956 173.256 153.905 168.688C155.84 166.442 156.15 164.042 156.227 161.1C156.305 158.158 156.46 153.357 155.376 149.64C153.827 143.911 149.801 139.42 143.761 138.491C139.658 137.794 131.837 137.561 130.134 142.439C129.514 144.065 132.147 144.762 132.689 143.136V143.136Z" fill="#090909"/>
<path d="M147.865 140.117C143.064 138.103 138.961 136.555 133.928 136.942C132.147 134.929 132.689 129.896 131.76 127.651C130.84 125.394 129.312 123.438 127.346 121.998C125.14 120.505 122.626 119.526 119.991 119.133C118.055 118.824 115.035 118.282 113.177 119.211C111.319 120.14 111.396 121.456 111.241 123.082C110.699 127.186 109.228 129.896 105.434 131.987C101.64 134.077 99.472 134.155 96.5297 135.316C93.4173 136.44 90.4114 137.839 87.5479 139.497C83.6764 141.743 78.9533 144.84 78.4887 149.795C78.0241 154.751 84.5282 158.235 84.9153 163.578C84.9928 165.591 84.9927 165.513 83.599 166.907C82.2053 168.301 82.5924 167.836 82.1278 168.378C81.1677 169.365 80.2875 170.427 79.4953 171.553C78.0884 173.564 77.4059 175.994 77.5596 178.444C77.6917 180.183 78.3691 181.836 79.4953 183.167C81.5085 185.413 85.9218 185.645 85.6121 189.516C85.3798 191.994 83.5216 193.852 84.3733 196.485C84.7464 197.357 85.3079 198.135 86.0174 198.764C86.7269 199.393 87.5669 199.858 88.4771 200.124C94.2068 202.37 101.021 200.821 106.053 197.646C106.241 197.54 106.393 197.38 106.49 197.187C106.587 196.994 106.623 196.776 106.595 196.562L107.602 195.865C110.963 193.104 113.485 189.456 114.88 185.335C114.992 185.471 115.135 185.578 115.298 185.646C115.46 185.714 115.636 185.742 115.811 185.727C115.987 185.711 116.156 185.654 116.304 185.558C116.452 185.463 116.575 185.333 116.661 185.18C117.978 183.167 119.371 180.999 119.526 178.521C119.681 176.044 118.055 173.953 117.668 171.475C117.281 168.998 120.61 166.907 121.772 164.12C121.936 163.718 122.065 163.304 122.159 162.881C123.552 165.978 125.798 168.456 129.205 169.307C129.433 169.378 129.679 169.37 129.903 169.286C130.127 169.202 130.317 169.046 130.444 168.843C130.696 168.74 130.903 168.552 131.031 168.311C131.158 168.07 131.197 167.793 131.14 167.526C129.872 161.842 130.554 155.897 133.076 150.647C134.231 148.186 135.924 146.016 138.032 144.298C140.896 142.13 144.226 142.672 147.555 142.362C147.818 142.34 148.066 142.229 148.258 142.048C148.449 141.866 148.573 141.625 148.609 141.363C148.645 141.102 148.591 140.836 148.456 140.609C148.321 140.383 148.112 140.209 147.865 140.117V140.117ZM124.327 122.85L125.178 123.315L124.327 122.85ZM126.185 164.662C126.262 164.816 126.262 164.971 126.34 165.126L125.875 164.662H126.185ZM142.445 140.349H141.593C141.593 140.271 141.671 140.117 141.671 140.039L142.445 140.349ZM138.883 139.42C138.02 139.754 137.191 140.169 136.406 140.659C136.225 140.161 135.934 139.711 135.554 139.342V139.187H135.864C136.875 139.185 137.884 139.263 138.883 139.42V139.42Z" fill="#090909"/>
<path d="M126.418 178.289C127.653 177.612 128.732 176.683 129.585 175.563C130.439 174.443 131.048 173.156 131.373 171.785C132.07 168.301 130.444 165.358 128.585 162.648C127.579 161.255 125.256 162.571 126.263 163.965C127.269 165.358 129.205 168.378 128.74 171.011C128.545 172.067 128.108 173.064 127.463 173.924C126.818 174.784 125.983 175.483 125.024 175.966C123.553 176.74 124.869 179.063 126.418 178.289V178.289Z" fill="#090909"/>
<path d="M145.387 174.108C146.239 176.973 148.407 179.915 146.239 182.857C144.071 185.8 138.651 184.019 136.096 181.851C133.541 179.683 129.514 176.74 125.101 176.508C123.63 176.431 123.63 178.754 125.101 178.831C132.612 179.141 136.56 189.361 144.303 186.651C146.394 185.877 148.485 184.561 149.259 182.47C150.033 180.38 148.485 176.353 147.633 173.488C147.168 172.095 144.923 172.637 145.387 174.108Z" fill="#090909"/>
<path d="M139.116 292.033C140.587 311.622 143.607 331.057 146.471 350.491L155.221 410.499C155.453 411.97 157.699 411.351 157.466 409.879L148.949 351.343C146.084 331.599 142.987 311.932 141.439 292.033C141.361 290.484 139.038 290.484 139.116 292.033Z" fill="white"/>
<path d="M430.401 28.7792C427.691 28.7792 426.607 24.598 426.143 21.346C422.658 20.9589 418.013 19.8749 418.013 17.01C418.013 14.1451 422.581 13.1385 426.065 12.674C426.375 9.34451 427.382 4.00195 430.401 4.00195C433.421 4.00195 434.505 9.34451 434.815 12.674C438.299 13.1385 442.79 14.1451 442.79 17.01C442.79 19.8749 438.144 20.9589 434.66 21.346C434.195 24.598 433.111 28.7792 430.401 28.7792ZM421.497 17.01C422.349 17.4746 424.362 18.094 427.691 18.4037H429.008V19.72C429.13 21.6391 429.575 23.5238 430.324 25.2949C430.788 24.5206 431.33 22.7397 431.64 19.72L431.795 18.4037H433.111C436.441 18.094 438.454 17.4746 439.306 17.01C438.454 16.5454 436.441 15.926 433.189 15.6937L431.795 15.5388V14.2225C431.563 10.5059 430.943 8.33797 430.401 7.48626C429.937 8.33797 429.24 10.5059 429.008 14.2225V15.5388L427.691 15.6937C424.284 15.926 422.349 16.5454 421.497 17.01Z" fill="#80A5AE"/>
<path d="M133.076 154.674C131.76 153.59 130.289 152.429 128.508 152.893C126.727 153.358 126.34 154.442 126.185 155.913C125.875 160.326 130.444 161.952 132.379 157.771C132.999 156.378 133.308 154.752 131.682 153.977C131.054 153.696 130.355 153.613 129.677 153.737C129 153.861 128.376 154.188 127.888 154.674C127.65 154.919 127.468 155.214 127.356 155.538C127.244 155.862 127.206 156.206 127.243 156.546C127.28 156.887 127.392 157.214 127.57 157.507C127.749 157.799 127.99 158.048 128.276 158.236C129.979 159.242 130.289 157.771 131.295 156.997L129.359 156.532C129.979 158.313 129.669 160.249 130.211 162.107C130.753 163.966 131.76 165.514 132.612 167.14C133.463 168.766 135.322 167.295 134.625 165.979C133.928 164.662 132.457 162.34 132.224 160.172C132.176 158.734 131.968 157.305 131.605 155.913C131.554 155.716 131.453 155.535 131.31 155.39C131.168 155.244 130.989 155.139 130.793 155.084C130.597 155.029 130.39 155.027 130.193 155.077C129.996 155.127 129.815 155.229 129.669 155.371C129.514 155.526 129.205 155.681 129.205 155.913C129.205 156.145 129.205 156.3 129.824 156.145C130.444 155.99 130.831 156.3 130.056 157.229C129.282 158.158 128.276 156.765 128.508 155.913C128.74 155.061 130.753 155.681 131.373 156.3C131.992 156.92 134.16 155.681 133.076 154.674V154.674Z" fill="white"/>
<path d="M178.14 230.167C177.443 234.658 180.076 239.072 180.385 243.563C180.607 246.31 180.223 249.072 179.26 251.654C178.296 254.237 176.778 256.576 174.81 258.506C174.677 258.606 174.567 258.733 174.488 258.88C174.408 259.026 174.361 259.187 174.349 259.353C174.337 259.519 174.361 259.686 174.419 259.842C174.477 259.998 174.568 260.139 174.686 260.257C174.804 260.374 174.945 260.465 175.101 260.524C175.257 260.582 175.424 260.606 175.59 260.594C175.756 260.582 175.917 260.535 176.063 260.455C176.209 260.376 176.337 260.266 176.436 260.132C179.768 256.893 181.945 252.649 182.631 248.053C182.837 245.992 182.811 243.914 182.553 241.859C182.089 238.375 179.843 234.194 180.385 230.787C180.618 229.316 178.45 228.696 178.14 230.167Z" fill="#80A5AE"/>
<path d="M146.239 174.419C146.269 174.232 146.252 174.041 146.191 173.862C146.13 173.684 146.027 173.522 145.889 173.393C145.752 173.263 145.585 173.169 145.403 173.118C145.222 173.068 145.03 173.062 144.845 173.102C139.271 174.806 133.386 174.573 127.656 173.876C122.546 168.766 111.706 177.903 108.764 182.007C108.652 182.184 108.59 182.388 108.585 182.598C108.58 182.808 108.632 183.015 108.735 183.198C108.838 183.38 108.989 183.532 109.171 183.635C109.353 183.739 109.56 183.792 109.77 183.787C112.978 183.884 116.17 183.304 119.139 182.084C122.081 180.768 124.327 178.135 127.346 176.741H127.656C131.141 177.903 134.702 177.98 138.341 177.825C141.981 177.67 143.684 177.516 145.929 175.89C146.135 175.712 146.277 175.472 146.333 175.206C146.389 174.941 146.356 174.664 146.239 174.419Z" fill="#80A5AE"/>
<path d="M431.023 106.126H247.129C237.721 106.126 230.095 113.753 230.095 123.16V131.887C230.095 141.294 237.721 148.921 247.129 148.921H431.023C440.431 148.921 448.057 141.294 448.057 131.887V123.16C448.057 113.753 440.431 106.126 431.023 106.126Z" fill="#CBC7DB"/>
<path d="M431.023 178.521H247.129C237.721 178.521 230.095 186.148 230.095 195.556V204.282C230.095 213.69 237.721 221.316 247.129 221.316H431.023C440.431 221.316 448.057 213.69 448.057 204.282V195.556C448.057 186.148 440.431 178.521 431.023 178.521Z" fill="#CBC7DB"/>
<path d="M431.023 252.234H247.129C237.721 252.234 230.095 259.861 230.095 269.269V277.995C230.095 287.403 237.721 295.029 247.129 295.029H431.023C440.431 295.029 448.057 287.403 448.057 277.995V269.269C448.057 259.861 440.431 252.234 431.023 252.234Z" fill="#CBC7DB"/>
<path d="M431.023 343.136H247.129C237.721 343.136 230.095 350.762 230.095 360.17V368.896C230.095 378.304 237.721 385.931 247.129 385.931H431.023C440.431 385.931 448.057 378.304 448.057 368.896V360.17C448.057 350.762 440.431 343.136 431.023 343.136Z" fill="#CBC7DB"/>
<path d="M503.032 104.81H474.693C468.706 104.81 463.853 109.663 463.853 115.65V134.132C463.853 140.119 468.706 144.972 474.693 144.972H503.032C509.018 144.972 513.872 140.119 513.872 134.132V115.65C513.872 109.663 509.018 104.81 503.032 104.81Z" fill="#80A5AE"/>
<path d="M503.032 146.466H474.693C471.407 146.466 468.256 145.161 465.933 142.838C463.609 140.514 462.304 137.363 462.304 134.077V115.649C462.304 112.364 463.609 109.213 465.933 106.889C468.256 104.566 471.407 103.261 474.693 103.261H503.032C506.318 103.261 509.469 104.566 511.792 106.889C514.115 109.213 515.421 112.364 515.421 115.649V134.077C515.431 135.707 515.117 137.323 514.498 138.831C513.879 140.338 512.967 141.708 511.815 142.86C510.662 144.013 509.293 144.925 507.785 145.544C506.277 146.163 504.662 146.476 503.032 146.466V146.466ZM474.693 106.358C472.229 106.358 469.865 107.337 468.123 109.079C466.38 110.822 465.401 113.185 465.401 115.649V134.077C465.401 136.542 466.38 138.905 468.123 140.648C469.865 142.39 472.229 143.369 474.693 143.369H503.032C505.496 143.369 507.859 142.39 509.602 140.648C511.344 138.905 512.323 136.542 512.323 134.077V115.649C512.323 113.185 511.344 110.822 509.602 109.079C507.859 107.337 505.496 106.358 503.032 106.358H474.693Z" fill="#090909"/>
<path d="M503.032 340.503H474.693C468.706 340.503 463.853 345.356 463.853 351.343V369.825C463.853 375.812 468.706 380.665 474.693 380.665H503.032C509.018 380.665 513.872 375.812 513.872 369.825V351.343C513.872 345.356 509.018 340.503 503.032 340.503Z" fill="#80A5AE"/>
<path d="M503.032 382.237H474.693C471.407 382.237 468.256 380.932 465.933 378.608C463.609 376.285 462.304 373.134 462.304 369.848V351.343C462.304 348.057 463.609 344.906 465.933 342.583C468.256 340.259 471.407 338.954 474.693 338.954H503.032C506.318 338.954 509.469 340.259 511.792 342.583C514.115 344.906 515.421 348.057 515.421 351.343V369.848C515.421 373.134 514.115 376.285 511.792 378.608C509.469 380.932 506.318 382.237 503.032 382.237ZM474.693 342.051C472.229 342.051 469.865 343.03 468.123 344.773C466.38 346.515 465.401 348.878 465.401 351.343V369.848C465.401 372.313 466.38 374.676 468.123 376.418C469.865 378.161 472.229 379.14 474.693 379.14H503.032C505.496 379.14 507.859 378.161 509.602 376.418C511.344 374.676 512.323 372.313 512.323 369.848V351.343C512.323 348.878 511.344 346.515 509.602 344.773C507.859 343.03 505.496 342.051 503.032 342.051H474.693Z" fill="#090909"/>
<path d="M503.032 253.627H474.693C468.706 253.627 463.853 258.48 463.853 264.467V282.949C463.853 288.936 468.706 293.789 474.693 293.789H503.032C509.018 293.789 513.872 288.936 513.872 282.949V264.467C513.872 258.48 509.018 253.627 503.032 253.627Z" fill="#80A5AE"/>
<path d="M503.032 295.285H474.693C471.407 295.285 468.256 293.979 465.933 291.656C463.609 289.333 462.304 286.182 462.304 282.896V264.468C462.304 261.182 463.609 258.031 465.933 255.708C468.256 253.385 471.407 252.079 474.693 252.079H503.032C504.662 252.069 506.277 252.382 507.785 253.001C509.293 253.62 510.662 254.533 511.815 255.685C512.967 256.837 513.879 258.207 514.498 259.715C515.117 261.223 515.431 262.838 515.421 264.468V282.896C515.421 286.182 514.115 289.333 511.792 291.656C509.469 293.979 506.318 295.285 503.032 295.285ZM474.693 255.177C472.229 255.177 469.865 256.155 468.123 257.898C466.38 259.64 465.401 262.004 465.401 264.468V282.896C465.401 285.36 466.38 287.724 468.123 289.466C469.865 291.209 472.229 292.188 474.693 292.188H503.032C505.496 292.188 507.859 291.209 509.602 289.466C511.344 287.724 512.323 285.36 512.323 282.896V264.468C512.323 262.004 511.344 259.64 509.602 257.898C507.859 256.155 505.496 255.177 503.032 255.177H474.693Z" fill="#090909"/>
<path d="M503.032 182.471H474.693C468.706 182.471 463.853 187.324 463.853 193.311V211.793C463.853 217.78 468.706 222.633 474.693 222.633H503.032C509.018 222.633 513.872 217.78 513.872 211.793V193.311C513.872 187.324 509.018 182.471 503.032 182.471Z" fill="#80A5AE"/>
<path d="M503.032 224.205H474.693C471.407 224.205 468.256 222.899 465.933 220.576C463.609 218.253 462.304 215.102 462.304 211.816V193.311C462.304 190.025 463.609 186.874 465.933 184.55C468.256 182.227 471.407 180.922 474.693 180.922H503.032C506.318 180.922 509.469 182.227 511.792 184.55C514.115 186.874 515.421 190.025 515.421 193.311V211.816C515.421 215.102 514.115 218.253 511.792 220.576C509.469 222.899 506.318 224.205 503.032 224.205ZM474.693 184.019C472.229 184.019 469.865 184.998 468.123 186.74C466.38 188.483 465.401 190.846 465.401 193.311V211.816C465.401 214.28 466.38 216.644 468.123 218.386C469.865 220.129 472.229 221.108 474.693 221.108H503.032C505.496 221.108 507.859 220.129 509.602 218.386C511.344 216.644 512.323 214.28 512.323 211.816V193.311C512.323 190.846 511.344 188.483 509.602 186.74C507.859 184.998 505.496 184.019 503.032 184.019H474.693Z" fill="#090909"/>
<path d="M473.299 125.329C476.599 126.201 479.631 127.877 482.126 130.207C483.365 131.368 484.371 133.846 485.842 134.62C489.094 136.246 490.798 130.129 492.037 128.271C498.85 117.663 509.148 109.456 518.362 101.016C519.446 100.009 517.82 98.3834 516.659 99.39C508.529 106.901 499.625 114.179 492.811 123.006C491.276 125.069 489.854 127.215 488.552 129.432L487.546 131.213C487.313 132.607 486.926 132.839 486.617 131.91C486.307 130.981 485.378 130.284 484.991 129.82C482.039 126.538 478.189 124.196 473.918 123.083C473.62 123.001 473.302 123.041 473.034 123.193C472.765 123.346 472.568 123.598 472.486 123.896C472.404 124.194 472.443 124.512 472.596 124.781C472.748 125.049 473.001 125.247 473.299 125.329V125.329Z" fill="#090909"/>
<path d="M473.067 126.721C479.726 125.327 480.655 136.322 487.081 135.858C489.249 135.703 490.566 134.231 491.65 132.528C493.471 129.694 495.435 126.955 497.534 124.321C505.664 114.952 516.892 108.99 524.557 99.0013C527.267 95.4396 521.228 92.0327 518.518 95.517C511.317 104.886 500.322 110.461 492.579 119.443C490.802 121.438 489.171 123.56 487.701 125.792L486.307 127.96C485.223 129.276 485.455 129.431 487.159 128.502C487.236 128.192 484.836 125.637 484.681 125.405C481.119 121.378 476.628 118.901 471.208 119.985C465.788 121.069 468.653 127.573 473.067 126.721Z" fill="#090909"/>
<path d="M475.777 204.538C478.466 204.918 481.063 205.784 483.442 207.093C485.455 208.255 486.927 209.958 488.862 211.197C492.656 213.675 496.838 212.823 499.935 209.726C503.032 206.629 506.516 200.667 509.536 196.253L520.918 179.761C523.473 176.044 517.434 172.56 514.878 176.199C509.071 184.716 503.342 193.234 497.457 201.673C496.45 203.144 494.979 206.164 492.811 205.467C490.643 204.77 490.101 203.222 488.94 202.448C485.594 200.023 481.719 198.431 477.635 197.802C473.299 197.105 471.363 203.841 475.777 204.538V204.538Z" fill="#090909"/>
<path d="M476.164 273.217C480.577 275.231 483.52 278.87 487.159 281.889C490.798 284.909 493.353 284.987 496.218 281.657C502.799 273.837 506.98 264.236 513.562 256.338C516.427 252.931 511.549 247.976 508.606 251.382C503.264 257.886 499.238 265.242 494.592 272.133C493.508 273.759 491.65 275.463 490.875 277.244C492.192 277.244 492.501 277.011 491.65 276.547L490.798 275.773L488.63 273.837C485.92 271.282 483.132 268.727 479.725 267.178C476.319 265.629 472.137 271.359 476.164 273.217V273.217Z" fill="#090909"/>
<path d="M476.938 362.571C481.352 363.268 483.674 369.307 487.081 371.707C490.488 374.108 494.127 370.236 496.605 367.526C504.425 358.777 512.168 350.027 519.834 341.123C522.776 337.716 517.821 332.761 514.878 336.168C508.065 344.143 501.173 351.963 494.205 359.783L491.727 362.571C491.03 363.345 489.327 364.584 489.172 365.436C489.017 366.287 488.475 366.365 489.946 366.055C491.417 365.745 491.65 366.133 490.256 365.126C488.862 364.119 488.63 363.345 488.01 362.648C485.378 359.783 482.823 356.531 478.796 355.912C474.77 355.293 472.525 361.951 476.938 362.571V362.571Z" fill="#090909"/>
<path d="M246.123 120.837H288.244C288.552 120.837 288.847 120.714 289.065 120.496C289.283 120.279 289.405 119.983 289.405 119.675C289.405 119.367 289.283 119.072 289.065 118.854C288.847 118.636 288.552 118.514 288.244 118.514H246.123C245.815 118.514 245.519 118.636 245.301 118.854C245.084 119.072 244.961 119.367 244.961 119.675C244.961 119.983 245.084 120.279 245.301 120.496C245.519 120.714 245.815 120.837 246.123 120.837Z" fill="#80A5AE"/>
<path d="M247.903 131.445H390.14C390.448 131.445 390.744 131.323 390.961 131.105C391.179 130.887 391.302 130.592 391.302 130.284C391.302 129.975 391.179 129.68 390.961 129.462C390.744 129.244 390.448 129.122 390.14 129.122H247.903C247.595 129.122 247.3 129.244 247.082 129.462C246.864 129.68 246.742 129.975 246.742 130.284C246.742 130.592 246.864 130.887 247.082 131.105C247.3 131.323 247.595 131.445 247.903 131.445V131.445Z" fill="#80A5AE"/>
<path d="M350.187 140.195H412.053C412.361 140.195 412.656 140.073 412.874 139.855C413.092 139.637 413.214 139.342 413.214 139.034C413.214 138.725 413.092 138.43 412.874 138.212C412.656 137.994 412.361 137.872 412.053 137.872H350.187C349.879 137.872 349.584 137.994 349.366 138.212C349.148 138.43 349.026 138.725 349.026 139.034C349.026 139.342 349.148 139.637 349.366 139.855C349.584 140.073 349.879 140.195 350.187 140.195Z" fill="#80A5AE"/>
<path d="M252.704 194.628H389.211C389.519 194.628 389.815 194.505 390.032 194.287C390.25 194.07 390.373 193.774 390.373 193.466C390.373 193.158 390.25 192.863 390.032 192.645C389.815 192.427 389.519 192.305 389.211 192.305H252.704C252.396 192.305 252.1 192.427 251.883 192.645C251.665 192.863 251.542 193.158 251.542 193.466C251.542 193.774 251.665 194.07 251.883 194.287C252.1 194.505 252.396 194.628 252.704 194.628V194.628Z" fill="#80A5AE"/>
<path d="M278.643 213.055H416.853C417.161 213.055 417.457 212.933 417.675 212.715C417.892 212.497 418.015 212.202 418.015 211.894C418.015 211.586 417.892 211.29 417.675 211.073C417.457 210.855 417.161 210.732 416.853 210.732H278.643C278.335 210.732 278.039 210.855 277.821 211.073C277.604 211.29 277.481 211.586 277.481 211.894C277.481 212.202 277.604 212.497 277.821 212.715C278.039 212.933 278.335 213.055 278.643 213.055Z" fill="#80A5AE"/>
<path d="M259.285 267.953H359.401C359.709 267.953 360.005 267.83 360.222 267.613C360.44 267.395 360.563 267.099 360.563 266.791C360.563 266.483 360.44 266.188 360.222 265.97C360.005 265.752 359.709 265.63 359.401 265.63H259.285C258.977 265.63 258.682 265.752 258.464 265.97C258.246 266.188 258.124 266.483 258.124 266.791C258.124 267.099 258.246 267.395 258.464 267.613C258.682 267.83 258.977 267.953 259.285 267.953V267.953Z" fill="#80A5AE"/>
<path d="M260.214 282.819H384.875C385.183 282.819 385.478 282.697 385.696 282.479C385.914 282.261 386.036 281.966 386.036 281.658C386.036 281.349 385.914 281.054 385.696 280.836C385.478 280.618 385.183 280.496 384.875 280.496H260.214C259.906 280.496 259.611 280.618 259.393 280.836C259.175 281.054 259.053 281.349 259.053 281.658C259.053 281.966 259.175 282.261 259.393 282.479C259.611 282.697 259.906 282.819 260.214 282.819V282.819Z" fill="#80A5AE"/>
<path d="M385.727 267.024H403.303C403.611 267.024 403.907 266.902 404.124 266.684C404.342 266.466 404.465 266.171 404.465 265.863C404.465 265.555 404.342 265.259 404.124 265.041C403.907 264.824 403.611 264.701 403.303 264.701H385.727C385.419 264.701 385.123 264.824 384.906 265.041C384.688 265.259 384.565 265.555 384.565 265.863C384.565 266.171 384.688 266.466 384.906 266.684C385.123 266.902 385.419 267.024 385.727 267.024Z" fill="#80A5AE"/>
<path d="M253.169 356.221C275.881 356.066 298.568 356.763 321.229 358.311C322.7 358.389 322.7 356.066 321.229 355.989C298.568 354.44 275.881 353.743 253.169 353.898C252.86 353.898 252.565 354.02 252.347 354.238C252.129 354.456 252.007 354.751 252.007 355.06C252.007 355.368 252.129 355.663 252.347 355.881C252.565 356.099 252.86 356.221 253.169 356.221Z" fill="#80A5AE"/>
<path d="M335.708 356.763C355.581 356.505 375.481 356.453 395.406 356.608C395.714 356.608 396.009 356.486 396.227 356.268C396.445 356.05 396.567 355.755 396.567 355.447C396.567 355.139 396.445 354.843 396.227 354.626C396.009 354.408 395.714 354.285 395.406 354.285C375.532 354.131 355.633 354.182 335.708 354.44C335.4 354.44 335.104 354.563 334.887 354.78C334.669 354.998 334.546 355.294 334.546 355.602C334.546 355.91 334.669 356.205 334.887 356.423C335.104 356.641 335.4 356.763 335.708 356.763Z" fill="#80A5AE"/>
<path d="M259.285 372.016C288.14 371.448 316.97 371.861 345.773 373.255C347.244 373.332 347.244 371.009 345.773 370.932C316.97 369.538 288.14 369.125 259.285 369.693C257.814 369.77 257.814 372.093 259.285 372.016Z" fill="#80A5AE"/>
<path d="M387.043 374.339C395.792 374.03 404.619 374.029 413.369 374.184C413.677 374.184 413.972 374.062 414.19 373.844C414.408 373.626 414.53 373.331 414.53 373.023C414.53 372.715 414.408 372.419 414.19 372.202C413.972 371.984 413.677 371.861 413.369 371.861C404.619 371.707 395.792 371.707 387.043 372.016C386.735 372.016 386.44 372.139 386.222 372.357C386.004 372.574 385.882 372.87 385.882 373.178C385.882 373.486 386.004 373.781 386.222 373.999C386.44 374.217 386.735 374.339 387.043 374.339V374.339Z" fill="#80A5AE"/>
<path d="M64.1645 322.772C61.1448 322.772 59.9834 318.436 59.5188 314.874C55.8796 314.487 52.163 313.325 52.163 310.538C52.0856 307.75 55.8796 306.512 59.5962 305.97C60.0608 302.563 61.1448 299.078 63.8548 299.001C66.5648 299.001 67.7263 302.408 68.3457 305.815C72.0623 306.279 75.8563 307.363 75.8563 310.151C75.8563 312.938 72.2171 314.177 68.5779 314.719C68.2682 318.281 67.2617 322.772 64.1645 322.772V322.772ZM57.3507 310.46C58.6937 310.808 60.0689 311.015 61.4545 311.08H63.1579L63.3128 312.861C63.4021 314.433 63.6617 315.991 64.0871 317.507C64.5096 315.966 64.7436 314.38 64.784 312.783V311.08L66.4874 310.925C67.8718 310.803 69.2442 310.57 70.5912 310.228C69.2244 309.856 67.8236 309.622 66.41 309.531H64.7065L64.5517 307.905C64.3928 306.679 64.16 305.464 63.8548 304.266C63.5445 305.459 63.3373 306.677 63.2354 307.905V309.609H61.5319C60.1169 309.776 58.7183 310.061 57.3507 310.46V310.46Z" fill="#090909"/>
<path d="M181.547 399.581C178.837 399.581 177.753 395.4 177.288 392.148C173.804 391.761 169.158 390.677 169.158 387.812C169.158 384.947 173.649 383.94 177.133 383.476C177.443 380.146 178.449 374.804 181.547 374.804C184.644 374.804 185.573 380.146 185.883 383.476C189.367 383.94 193.935 384.947 193.935 387.812C193.935 390.677 189.289 391.761 185.805 392.148C185.341 395.4 184.257 399.581 181.547 399.581ZM172.565 387.812C173.417 388.276 175.43 388.896 178.837 389.205H180.075L180.23 390.522C180.54 393.542 181.082 395.322 181.547 396.097C182.295 394.326 182.741 392.441 182.863 390.522V389.205H184.179C187.586 388.896 189.522 388.276 190.374 387.812C189.599 387.347 187.586 386.728 184.257 386.495L182.94 386.341V385.024C182.708 381.308 182.011 379.14 181.547 378.288C181.082 379.14 180.385 381.308 180.153 385.024V386.341L178.759 386.495C175.43 386.728 173.417 387.347 172.565 387.812Z" fill="#80A5AE"/>
<path d="M165.519 90.4074C162.499 90.4074 161.415 85.994 160.95 82.4322C157.311 82.0451 153.595 80.9611 153.517 78.0962C153.517 75.3088 157.234 74.0699 160.95 73.5279C161.415 70.121 162.577 66.6367 165.209 66.6367H165.286C167.919 66.6367 169.158 70.0436 169.7 73.4505C173.417 73.8376 177.211 74.9216 177.288 77.7865C177.365 80.6514 173.649 81.8128 170.01 82.3548C169.622 85.8391 168.616 90.33 165.596 90.4074H165.519ZM158.782 78.0188C160.117 78.4048 161.497 78.6131 162.886 78.6382L164.59 78.7931L164.745 80.4965C164.834 82.0686 165.093 83.6263 165.519 85.1423C165.915 83.6249 166.123 82.0646 166.138 80.4965V78.7156L167.842 78.5608C169.227 78.4462 170.6 78.2131 171.945 77.8639C170.585 77.4729 169.179 77.2646 167.764 77.2445L166.138 77.0896L165.906 75.4636C165.834 74.2506 165.599 73.0527 165.209 71.9019C164.886 73.0631 164.704 74.2589 164.667 75.4636L164.512 77.167L162.886 77.3219C161.502 77.4422 160.129 77.6753 158.782 78.0188V78.0188Z" fill="#090909"/>
<path d="M40.1614 407.79H59.9058C60.2138 407.79 60.5093 407.667 60.7271 407.449C60.9449 407.232 61.0672 406.936 61.0672 406.628C61.0672 406.32 60.9449 406.025 60.7271 405.807C60.5093 405.589 60.2138 405.467 59.9058 405.467H40.1614C39.8534 405.467 39.558 405.589 39.3402 405.807C39.1224 406.025 39 406.32 39 406.628C39 406.936 39.1224 407.232 39.3402 407.449C39.558 407.667 39.8534 407.79 40.1614 407.79Z" fill="#090909"/>
<path d="M53.0146 396.949H67.8035C68.1115 396.949 68.4069 396.826 68.6248 396.609C68.8426 396.391 68.9649 396.095 68.9649 395.787C68.9649 395.479 68.8426 395.184 68.6248 394.966C68.4069 394.748 68.1115 394.626 67.8035 394.626H53.0146C52.7066 394.626 52.4111 394.748 52.1933 394.966C51.9755 395.184 51.8531 395.479 51.8531 395.787C51.8531 396.095 51.9755 396.391 52.1933 396.609C52.4111 396.826 52.7066 396.949 53.0146 396.949Z" fill="#090909"/>
<path d="M335.775 446.691H366.437C366.745 446.691 367.04 446.569 367.258 446.351C367.476 446.133 367.598 445.838 367.598 445.53C367.598 445.222 367.476 444.926 367.258 444.708C367.04 444.491 366.745 444.368 366.437 444.368H335.775C335.467 444.368 335.172 444.491 334.954 444.708C334.736 444.926 334.614 445.222 334.614 445.53C334.614 445.838 334.736 446.133 334.954 446.351C335.172 446.569 335.467 446.691 335.775 446.691Z" fill="#090909"/>
<path d="M343.673 438.794H373.328C373.636 438.794 373.932 438.671 374.149 438.453C374.367 438.236 374.49 437.94 374.49 437.632C374.49 437.324 374.367 437.029 374.149 436.811C373.932 436.593 373.636 436.471 373.328 436.471H343.673C343.365 436.471 343.069 436.593 342.852 436.811C342.634 437.029 342.511 437.324 342.511 437.632C342.511 437.94 342.634 438.236 342.852 438.453C343.069 438.671 343.365 438.794 343.673 438.794V438.794Z" fill="#090909"/>
<path d="M200.517 231.871C201.13 234.78 200.833 237.808 199.665 240.543C199.123 241.937 201.369 242.556 201.911 241.162C203.193 238.021 203.49 234.565 202.762 231.251C202.452 229.78 200.207 230.4 200.517 231.871Z" fill="#090909"/>
<path d="M200.052 247.434C200.36 247.434 200.656 247.312 200.873 247.094C201.091 246.876 201.213 246.581 201.213 246.273C201.213 245.965 201.091 245.669 200.873 245.451C200.656 245.234 200.36 245.111 200.052 245.111C199.744 245.111 199.449 245.234 199.231 245.451C199.013 245.669 198.891 245.965 198.891 246.273C198.891 246.581 199.013 246.876 199.231 247.094C199.449 247.312 199.744 247.434 200.052 247.434V247.434Z" fill="#090909"/>
</svg>
