<svg width="410" height="386" viewBox="0 0 410 386" fill="none" xmlns="http://www.w3.org/2000/svg">
<path d="M70.2932 349.514C71.9166 348.526 73.4616 347.415 74.9145 346.19C75.9544 345.129 76.5368 343.703 76.5368 342.217C76.5368 340.732 75.9544 339.305 74.9145 338.245C73.8439 337.224 72.4212 336.654 70.9418 336.654C69.4623 336.654 68.0398 337.224 66.9691 338.245L66.2394 338.812C65.9962 336.055 64.4558 333.299 63.3207 330.948C61.456 327.218 59.7534 323.083 57.3211 319.759C56.6535 318.945 55.9214 318.186 55.132 317.489C57.8075 313.435 52.9429 306.706 47.4298 309.625C43.9435 311.489 39.4033 314.165 35.917 317.57C32.1065 319.03 29.1066 323.164 27.4851 326.732C24.8096 332.813 28.8635 338.731 33.4037 342.623C35.5117 344.487 38.2682 345.704 40.0519 347.974C41.8356 350.244 44.349 354.379 46.3759 357.541C48.4027 360.703 50.6728 364.513 53.5105 367.189C55.1357 369.151 56.9557 370.944 58.9426 372.54C61.0506 375.215 65.9152 376.107 68.5907 372.459C71.2662 368.81 73.9416 361.513 72.1579 355.757C71.4213 353.796 70.3818 351.963 69.0771 350.325L69.3203 350.163L70.2932 349.514ZM66.6448 338.569L66.2394 338.812L66.6448 338.569Z" fill="#090909"/>
<path d="M122.911 340.595C117.478 344.081 116.668 351.216 115.695 357.053C114.722 362.891 113.425 371.404 114.803 377.971C116.181 384.538 123.478 385.349 129.559 384.944C137.018 384.376 144.477 384.052 152.017 383.808C159.557 383.565 167.016 383.565 174.475 383.727C177.799 383.808 180.88 383.646 182.907 380.728C184.934 377.809 184.609 374.079 183.069 371.161C180.069 365.566 172.691 362.648 166.773 361.594C160.854 360.54 152.584 360.053 146.017 361.35C139.45 362.648 135.802 372.296 143.098 376.268C146.585 378.133 151.125 377.403 154.854 377.485C158.584 377.566 163.53 377.971 167.827 378.376C172.124 378.782 175.367 371.809 171.718 368.809C169.832 367.35 167.793 366.1 165.638 365.08C164.016 364.35 162.151 363.539 161.097 361.918C160.043 360.296 159.476 356.972 158.422 354.783C157.287 352.012 155.636 349.481 153.557 347.324C149.666 343.352 145.287 343.433 140.099 343.433C134.91 343.433 127.451 342.217 122.505 344.649C117.56 347.081 117.641 353.567 118.776 358.432C119.359 360.456 119.819 362.514 120.154 364.593C120.559 367.593 119.911 370.674 120.803 373.593C122.424 378.701 127.289 380.646 132.234 380.565C137.18 380.484 144.639 379.592 147.639 375.295C150.639 370.998 151.206 364.35 151.044 359.81C150.72 353.405 145.936 351.784 140.423 351.54C134.91 351.297 131.018 351.135 128.099 355.27C125.181 359.405 125.1 366.215 127.451 370.431C128.673 372.467 130.507 374.064 132.691 374.996C134.874 375.928 137.297 376.146 139.612 375.62C144.639 374.647 149.666 369.945 147.801 364.431C145.936 358.918 140.585 358.432 135.964 357.945C131.342 357.459 124.856 356.567 122.424 361.432C118.938 368.242 127.613 372.62 133.126 369.944C134.35 369.361 135.437 368.527 136.316 367.495C137.195 366.464 137.847 365.258 138.23 363.958C138.612 362.658 138.717 361.291 138.536 359.948C138.355 358.605 137.893 357.314 137.18 356.162C136.513 355.075 135.63 354.137 134.585 353.405C134.092 353.03 133.545 352.729 132.964 352.513C130.856 351.378 131.018 351.946 133.288 354.297C133.531 353.81 132.802 351.783 132.64 351.216L131.099 343.919C129.64 336.947 118.857 339.865 120.316 346.919L122.1 355.108C122.261 356.335 122.589 357.535 123.073 358.675C123.908 359.983 125.049 361.068 126.397 361.837L128.181 362.567C127.289 360.864 127.613 359.891 129.153 359.567L132.477 362.08L132.072 361.432V367.026L131.018 368.161L128.181 368.972C130.286 368.796 132.404 368.823 134.504 369.053C135.414 369.214 136.337 369.296 137.261 369.296C139.288 369.215 137.829 370.755 137.18 368.161V365.161C137.747 364.675 137.747 364.512 137.18 364.756C136.612 364.999 136.612 364.675 137.261 365.08C137.91 365.485 137.828 361.756 137.423 361.35C134.91 362.567 134.585 362.972 136.612 362.729C137.475 362.648 138.344 362.648 139.207 362.729H141.72C142.855 362.81 142.45 362.486 140.504 361.675L139.774 358.837C139.922 360.712 139.785 362.598 139.369 364.431C139.207 365.485 138.72 366.701 138.558 367.755L138.234 369.134L139.855 367.755L134.099 369.134L131.748 369.296C129.721 369.539 131.667 369.134 131.505 369.701C132.396 366.296 131.099 361.107 130.288 357.864L129.559 355.351C129.316 354.135 129.802 352.675 128.424 353.892C127.045 355.108 128.91 354.54 129.883 354.54H133.45C136.856 354.54 141.234 353.81 144.558 354.621C145.287 354.783 146.26 355.837 147.071 357.053C148.032 358.619 148.768 360.311 149.26 362.08C150.395 365.729 151.855 368.972 154.773 371.404C157.692 373.836 161.178 374.566 163.854 376.755L167.827 367.188C164.178 366.864 160.611 366.539 157.044 366.377H149.098C147.395 366.134 147.639 366.539 149.666 367.512V370.512C148.855 372.701 146.828 372.458 149.747 372.215L153.882 371.971C156.423 371.863 158.968 371.918 161.503 372.134C163.742 372.311 165.948 372.774 168.07 373.512C169.186 373.915 170.271 374.403 171.313 374.971L172.367 375.701C172.934 376.593 173.259 376.431 173.259 375.133L176.583 372.62C175.772 372.944 173.502 372.62 172.367 372.62H156.395C149.098 372.782 141.882 373.025 134.585 373.512C131.586 373.674 127.937 373.431 124.937 374.16C123.235 373.917 123.478 374.404 125.748 375.701C125.667 374.809 125.667 373.917 125.667 372.944C125.667 371.971 125.667 369.296 125.748 367.512C125.922 364.356 126.301 361.214 126.883 358.107C127.208 356.243 127.532 354.459 128.018 352.675C128.099 352.351 128.991 350.081 128.586 350.324C134.586 346.433 128.991 336.703 122.911 340.595Z" fill="#090909"/>
<path d="M350.004 0.969727H130.207C125.64 0.969727 121.938 4.67218 121.938 9.23943V179.912C121.938 184.48 125.64 188.182 130.207 188.182H350.004C354.571 188.182 358.274 184.48 358.274 179.912V9.23943C358.274 4.67218 354.571 0.969727 350.004 0.969727Z" fill="#80A5AE"/>
<path d="M191.825 219.712C190.69 214.523 188.339 209.74 186.231 204.875C184.318 200.002 182.694 195.021 181.366 189.957C178.366 179.093 175.691 168.229 170.826 157.932C168.799 153.554 162.476 152.5 158.584 154.77C154.692 157.04 151.774 158.905 148.044 160.202C144.315 161.5 140.423 161.743 136.369 161.824L111.479 161.662L110.263 161.175C105.317 159.797 100.858 162.878 99.2363 167.418C92.0206 187.606 99.8039 208.118 103.858 228.063C104.263 230.171 104.668 232.279 104.912 234.387C104.555 238.306 103.986 242.204 103.209 246.062L102.723 248.494L99.6417 251.332C92.8313 258.223 85.6967 264.871 78.3188 271.276C70.9409 277.681 63.9683 282.87 56.5094 288.545C52.2934 291.707 48.4017 295.518 47.0234 300.95C45.6451 306.382 46.9423 311.976 49.4557 316.922C51.9691 321.868 54.7257 325.03 56.8337 329.489C58.9417 333.948 60.2388 338.245 62.8332 342.137C68.4275 350.65 77.9944 356.487 88.3721 353.487C94.3717 351.704 96.7229 347.406 100.128 342.785C103.533 338.164 106.857 337.029 110.425 334.678L122.343 326.894C121.604 328.817 120.681 330.663 119.586 332.408C117.073 336.461 113.749 339.785 113.587 344.893C113.506 351.947 118.938 356.244 125.505 356.892C135.575 357.73 145.702 357.595 155.746 356.487C160.773 356.001 166.935 356.082 171.475 353.73C176.015 351.379 178.772 346.109 178.853 340.677C178.934 335.245 178.366 331.678 178.772 327.056C179.177 322.435 180.312 316.922 181.123 311.814C182.582 301.599 182.015 291.14 183.555 280.924C186.636 260.331 196.609 241.035 191.825 219.712ZM125.667 280.6C125.91 281.086 125.991 282.384 125.667 280.6V280.6ZM127.532 339.137C125.991 339.056 126.721 338.731 127.532 339.137V339.137Z" fill="#CBC7DB"/>
<path d="M231.553 123.151H200.339V147.717H231.553V123.151Z" fill="#CBC7DB"/>
<path d="M89.1022 111.477C94.1289 96.7212 106.371 89.019 109.695 86.911C130.694 73.7767 162.071 76.9386 181.367 93.5592C191.501 102.315 205.041 120.557 199.284 134.097C196.771 140.016 192.717 142.043 192.717 142.043C190.042 143.259 187.447 143.097 184.691 142.691C181.934 142.286 178.123 142.124 174.313 140.178C173.826 139.935 170.34 138.232 168.151 138.719C167.728 138.787 167.349 139.02 167.097 139.367C166.854 139.691 166.773 140.34 167.421 142.043C168.783 145.416 169.038 149.135 168.151 152.664C167.439 155.4 166.044 157.91 164.097 159.96C162.557 161.744 158.827 165.068 138.234 167.257C129.883 168.149 125.667 168.554 120.316 167.906C111.641 166.852 106.128 167.014 103.696 163.284C100.291 158.096 104.75 149.339 103.047 148.691C101.345 148.042 101.831 150.393 100.372 150.637C96.399 151.528 88.0482 139.367 87.1563 126.152C86.8134 121.179 87.4752 116.188 89.1022 111.477Z" fill="#F5F3F0"/>
<path d="M125.506 168.635C123.744 168.648 121.983 168.54 120.236 168.311L116.263 167.905C109.777 167.176 105.561 166.77 103.372 163.527C101.183 160.284 102.075 155.744 102.642 152.42C102.886 151.042 103.291 149.177 102.885 149.096L102.399 149.582C101.958 150.297 101.263 150.818 100.453 151.041C99.5614 151.285 98.5074 150.879 97.2912 149.988C92.751 146.582 87.4 136.529 86.7513 126.151C86.4384 121.153 87.0993 116.142 88.6972 111.395C92.1024 101.504 99.0749 93.1532 109.453 86.5861C130.37 73.4518 162.071 76.3706 181.691 93.2344C192.069 102.234 205.528 120.638 199.69 134.259C198.344 137.641 195.96 140.508 192.88 142.447C190.042 143.745 187.285 143.501 184.691 143.096L183.151 142.934C180.032 142.706 176.982 141.909 174.151 140.583C172.935 139.934 170.097 138.637 168.233 139.123C168.07 139.141 167.914 139.194 167.774 139.278C167.634 139.362 167.514 139.475 167.422 139.61C167.26 139.772 167.179 140.258 167.827 141.88C169.159 145.348 169.386 149.142 168.476 152.744C167.8 155.542 166.402 158.114 164.422 160.203C163.044 161.825 159.72 165.392 138.316 167.662C134.065 168.2 129.789 168.525 125.506 168.635ZM102.885 148.285H103.21C104.183 148.69 103.94 150.231 103.453 152.582C102.967 154.933 102.075 160.041 104.021 163.041C105.966 166.041 110.101 166.446 116.344 167.095L120.398 167.5C125.506 168.148 129.559 167.743 138.235 166.851C159.395 164.662 162.638 161.014 163.855 159.717C165.674 157.663 167.005 155.224 167.746 152.582C168.575 149.136 168.349 145.52 167.098 142.204C166.449 140.583 166.368 139.61 166.773 139.042C167.116 138.708 167.533 138.458 167.989 138.313C170.178 137.826 173.259 139.204 174.476 139.853C177.239 141.117 180.203 141.885 183.232 142.123L184.772 142.285C187.367 142.691 189.88 142.934 192.474 141.637C192.555 141.637 196.528 139.61 198.96 133.934C204.555 120.719 191.339 102.72 181.124 93.8829C161.828 77.2624 130.532 74.3437 109.939 87.3158C99.6425 93.7208 92.751 101.909 89.5079 111.639C87.9111 116.273 87.2497 121.178 87.5621 126.07C88.2107 136.205 93.3996 146.096 97.7777 149.339C98.469 149.959 99.3628 150.304 100.291 150.312C100.893 150.07 101.404 149.645 101.75 149.096C102.075 148.69 102.48 148.285 102.885 148.285Z" fill="#F5F3F0"/>
<path d="M181.042 140.42C183.879 142.528 187.366 142.447 191.014 142.366C202.284 142.123 209.175 133.772 210.31 132.394C211.445 131.016 212.986 128.097 215.58 121.124C222.147 103.207 225.471 94.2882 226.85 87.2346C228.958 76.7758 227.985 74.83 230.822 70.0465C232.849 66.6413 235.687 63.7226 236.822 58.0473C237.957 52.372 236.498 51.1559 236.173 50.7505C235.849 50.3451 233.66 49.5344 230.822 47.4264C229.262 46.3612 227.915 45.0138 226.85 43.4536C225.133 40.6678 224.445 37.3697 224.904 34.1299C225.228 31.8598 226.12 30.8058 225.552 30.1572C224.985 29.5086 221.985 30.3193 220.201 31.5354C216.229 34.1299 214.85 38.508 214.283 40.1296C212.661 44.832 205.689 55.2096 191.663 75.9651L190.365 77.992C186.415 84.2805 183.717 91.2731 182.42 98.5853C177.393 123.313 174.88 135.718 181.042 140.42Z" fill="#F5F3F0"/>
<path d="M120.64 40.1292C125.18 34.616 134.018 32.1837 141.233 34.8592C153.557 39.3184 153.8 56.02 153.881 58.0469C153.962 60.0738 153.881 67.776 149.827 70.0461C148.611 70.6947 147.314 70.6947 146.503 71.9919C145.693 73.2891 147.476 76.9376 146.503 78.6402C145.53 80.3428 138.558 80.586 133.937 78.6402C121.37 73.3703 111.56 51.2366 120.64 40.1292Z" fill="#F5F3F0"/>
<path d="M147.315 73.4516C155.017 69.9653 156.071 61.6956 155.017 54.0744C153.963 46.4533 150.72 38.589 143.991 36.0756C142.531 35.5892 141.883 37.9403 143.342 38.4268C149.017 40.5347 151.774 49.0477 152.585 54.4798C153.396 59.9119 152.828 68.3438 146.099 71.3437C144.72 71.9923 145.937 74.1002 147.315 73.4516Z" fill="#090909"/>
<path d="M145.287 72.6419V79.4523C145.287 79.7749 145.415 80.0842 145.643 80.3123C145.871 80.5403 146.181 80.6685 146.503 80.6685C146.826 80.6685 147.135 80.5403 147.363 80.3123C147.591 80.0842 147.719 79.7749 147.719 79.4523V72.6419C147.719 72.3194 147.591 72.01 147.363 71.782C147.135 71.5539 146.826 71.4258 146.503 71.4258C146.181 71.4258 145.871 71.5539 145.643 71.782C145.415 72.01 145.287 72.3194 145.287 72.6419Z" fill="#090909"/>
<path d="M147.639 131.016L167.179 139.772C172.367 142.124 177.556 144.637 183.394 144.637C193.852 144.637 205.041 141.637 211.284 132.719C214.608 128.016 216.473 122.503 218.5 117.233C220.526 111.963 223.04 104.423 225.148 97.9372C227.141 91.6382 228.739 85.2207 229.931 78.7223C231.229 71.5065 234.553 65.0204 237.877 58.6154C238.606 57.2371 236.498 56.021 235.769 57.3993C233.131 62.2125 230.881 67.228 229.039 72.3983C227.256 77.8304 226.931 83.5868 225.31 89.0999C221.905 100.937 218.094 113.017 213.149 124.287C210.797 129.557 207.716 134.502 202.771 137.583C197.825 140.664 190.772 141.88 184.853 142.124C178.934 142.367 172.286 139.448 166.287 136.692L148.855 128.908C147.396 128.26 146.18 130.368 147.639 131.016Z" fill="#090909"/>
<path d="M237.877 57.8045C238.688 54.3182 238.931 50.4266 235.12 48.724C233.418 47.9943 232.364 48.3997 231.472 46.3728C231.148 45.7242 231.148 44.9945 230.823 44.4269C230.647 43.9139 230.37 43.4416 230.008 43.0377C229.646 42.6338 229.206 42.3067 228.715 42.0757C228.334 41.893 227.921 41.7831 227.499 41.7515C225.716 41.265 225.229 40.3731 226.121 39.157C227.013 37.9409 227.013 36.1572 227.175 34.7789C227.447 33.2564 227.307 31.6889 226.77 30.2387C225.148 26.9145 221.662 28.0497 219.473 29.9955C215.419 33.4817 213.23 39.3192 210.879 43.9405C207.967 49.5637 204.718 55.0057 201.15 60.2367C197.501 65.4256 193.285 70.2901 190.204 75.7222C187.124 81.1543 184.853 87.1539 181.691 92.6671C180.881 94.0454 182.989 95.2615 183.718 93.8832C186.19 89.751 188.41 85.4732 190.367 81.0733C192.312 76.452 195.15 72.5603 198.15 68.5065C204.061 60.4925 209.346 52.0356 213.96 43.2108C215.176 41.0217 219.311 30.6441 222.392 30.8873L224.824 32.9953C224.89 34.1453 224.752 35.2979 224.418 36.4004C224.175 37.5355 223.608 38.5894 223.364 39.6434C223.121 40.6974 222.959 41.8325 223.689 42.8054C224.418 43.7783 225.229 43.6162 226.121 44.0216C227.013 44.4269 228.148 44.508 228.878 46.1295C229.077 46.7132 229.24 47.309 229.364 47.9132C230.986 51.8049 236.985 51.2374 235.526 57.1559C235.201 58.6963 237.553 59.3449 237.877 57.8045Z" fill="#090909"/>
<path d="M100.535 108.962V153.068C100.535 156.878 100.454 160.445 102.075 164.013C102.643 165.472 104.751 164.256 104.102 162.797C102.319 158.662 102.967 153.473 102.967 149.095V108.962C102.967 108.64 102.839 108.33 102.611 108.102C102.383 107.874 102.074 107.746 101.751 107.746C101.428 107.746 101.119 107.874 100.891 108.102C100.663 108.33 100.535 108.64 100.535 108.962Z" fill="#090909"/>
<path d="M167.017 139.529C167.422 144.606 167.341 149.71 166.773 154.771C166.611 156.311 169.044 156.311 169.206 154.771C169.773 149.71 169.854 144.606 169.449 139.529C169.368 137.988 166.935 137.907 167.017 139.529Z" fill="#090909"/>
<path d="M100.697 153.311C100.333 153.302 99.9864 153.157 99.7239 152.906C95.3458 149.338 87.8058 141.474 85.8599 129.394C84.1573 118.611 87.4004 107.909 95.508 97.5309C106.696 83.1805 122.993 80.0997 128.344 79.0457C160.531 72.8028 187.124 95.9905 192.15 100.693C192.459 100.985 192.64 101.387 192.655 101.811C192.67 102.236 192.518 102.649 192.232 102.963C191.925 103.277 191.51 103.46 191.072 103.475C190.634 103.49 190.207 103.336 189.88 103.044C185.097 98.5039 159.639 76.289 128.911 82.2076C123.885 83.1805 108.48 86.1803 98.0213 99.5578C95.1837 103.125 86.6707 114.07 89.0219 128.826C90.8056 139.934 97.7781 147.149 101.751 150.392C102.088 150.677 102.302 151.08 102.347 151.519C102.392 151.957 102.266 152.396 101.994 152.744C101.648 153.089 101.185 153.292 100.697 153.311Z" fill="#090909"/>
<path d="M145.369 36.5619C143.445 34.7014 141.153 33.2651 138.64 32.3458C133.451 29.5082 126.397 29.8325 121.046 32.1837C119.749 29.3461 118.452 26.5895 117.073 23.8329C115.695 21.0763 113.668 17.509 110.263 16.0496C103.858 13.3741 95.102 14.9146 92.9129 22.1303C92.2643 24.1572 92.1021 25.049 89.9941 25.8598C87.8861 26.6705 86.8322 26.4273 85.2918 26.6705C81.3013 27.2115 77.5102 28.7447 74.2655 31.1297C68.2659 35.8321 66.1578 43.4533 69.2387 50.4258C70.6981 53.831 73.5358 57.2362 72.3196 61.2089C71.1035 65.1817 67.2929 68.0192 64.5364 70.8569C58.8611 76.6944 57.2395 83.9913 57.8881 92.0178C58.5367 100.044 66.0768 103.449 73.9412 103.368C81.8055 103.287 89.5888 101.26 92.5886 94.5311C93.5615 92.3421 93.5615 89.7477 95.183 87.964C96.8045 86.1803 98.345 85.6938 99.8854 84.8831C102.966 83.3426 106.047 81.8021 108.236 78.9645C110.425 76.1268 111.641 70.938 113.101 66.8031C113.587 67.6139 114.074 68.4246 114.641 69.2354C115.927 71.0381 117.622 72.5106 119.587 73.5324C121.938 74.7486 124.614 75.0729 126.884 76.289C129.154 77.5052 129.235 79.1267 130.856 80.0996C131.714 80.5983 132.698 80.8404 133.689 80.7973C134.681 80.7542 135.639 80.4277 136.451 79.8564C139.937 77.5052 140.342 72.4785 138.315 69.0733C136.289 65.6681 134.829 65.7492 132.802 64.1277C130.775 62.5061 131.019 58.4523 131.1 55.8579C131.181 53.2634 131.424 50.0204 133.208 47.6692C134.991 45.318 138.153 43.9397 140.91 42.7236L141.721 42.1561L142.207 41.9939C143.991 41.4264 144.802 40.0481 145.207 38.3455C145.341 38.2433 145.452 38.1144 145.533 37.967C145.614 37.8196 145.664 37.657 145.68 37.4893C145.695 37.3216 145.675 37.1526 145.622 36.993C145.568 36.8333 145.482 36.6865 145.369 36.5619Z" fill="#090909"/>
<path d="M159.477 133.205C158.666 116.341 168.395 105.071 180.07 94.2071C181.205 93.1531 179.503 91.4505 178.368 92.5045C172.449 98.0177 166.368 103.612 162.315 110.666C158.413 117.51 156.583 125.34 157.045 133.205C157.126 134.826 159.558 134.826 159.477 133.205Z" fill="#090909"/>
<path d="M86.8328 116.665C87.5944 118.921 89.1504 120.823 91.2108 122.017C94.1295 124.125 97.2105 126.151 100.21 128.178C101.507 129.07 102.724 126.962 101.426 126.07L94.8592 121.611C92.5891 120.071 90.0757 118.773 89.1839 116.017C88.292 113.26 86.3463 115.125 86.8328 116.665Z" fill="#090909"/>
<path d="M117.723 110.342C117.155 114.233 120.479 117.801 124.047 118.855C127.614 119.909 131.1 117.233 131.668 113.341C132.235 109.45 129.722 107.342 125.992 107.099C122.263 106.855 117.155 105.963 117.642 110.99C117.804 112.531 120.236 112.531 120.074 110.99C119.912 109.45 123.398 109.45 124.939 109.531C126.479 109.612 129.722 109.936 129.235 113.098C128.749 116.26 127.29 117.314 124.695 116.503C122.101 115.693 119.669 113.503 120.074 110.99C120.479 108.477 117.966 108.801 117.723 110.342Z" fill="#80A5AE"/>
<path d="M146.017 90.3964C142.045 88.0452 137.666 90.9639 136.856 95.0988C136.045 99.2336 139.693 103.936 144.071 105.233C145.855 105.801 149.098 106.53 150.882 105.558C152.666 104.585 152.99 102.558 153.233 100.855C153.476 99.1525 153.638 95.6663 152.422 93.5583C151.206 91.4503 148.206 91.7747 145.855 90.3964C145.717 90.3112 145.563 90.2541 145.402 90.2284C145.242 90.2026 145.078 90.2088 144.92 90.2465C144.762 90.2841 144.613 90.3525 144.481 90.4478C144.349 90.5431 144.238 90.6634 144.153 90.8018C144.067 90.9402 144.01 91.094 143.985 91.2545C143.959 91.415 143.965 91.579 144.003 91.7371C144.04 91.8952 144.109 92.0442 144.204 92.1759C144.299 92.3076 144.42 92.4192 144.558 92.5044C145.366 92.9312 146.245 93.2061 147.152 93.3151C149.422 93.8016 150.801 95.0988 150.963 97.531C151.003 98.7253 150.922 99.9206 150.72 101.098C150.233 103.206 149.422 103.531 147.396 103.369C145.369 103.206 141.477 102.071 139.937 99.4769C138.396 96.8824 140.504 89.9099 144.72 92.5044C145 92.6764 145.336 92.7303 145.655 92.6543C145.975 92.5783 146.251 92.3785 146.423 92.099C146.595 91.8195 146.649 91.483 146.573 91.1637C146.497 90.8444 146.297 90.5684 146.017 90.3964Z" fill="#80A5AE"/>
<path d="M130.613 139.852C129.008 139.251 127.239 139.247 125.631 139.843C124.023 140.438 122.683 141.593 121.857 143.095C120.317 145.852 120.884 150.149 123.722 152.014C126.559 153.879 130.451 153.149 131.992 150.798C133.532 148.446 133.532 142.771 130.775 140.663C129.559 139.69 127.857 141.393 129.073 142.366C130.289 143.339 131.1 146.338 130.37 148.284C129.64 150.23 128.83 150.311 127.208 150.392C126.724 150.449 126.233 150.398 125.771 150.244C125.309 150.09 124.886 149.836 124.533 149.5C123.154 148.122 123.154 145.609 124.127 143.987C125.1 142.366 127.776 141.393 129.965 142.204C132.154 143.014 132.073 140.339 130.613 139.852Z" fill="#80A5AE"/>
<path d="M104.183 114.233C106.128 113.098 105.885 117.8 105.804 118.449C105.804 120.638 104.831 121.124 102.885 121.692C100.94 122.259 102.075 124.53 103.534 124.043C104.993 123.557 106.777 122.989 107.669 121.692C108.561 120.395 108.318 118.043 108.318 116.503C108.155 113.665 106.128 110.422 102.966 112.125C101.588 112.855 102.804 114.963 104.183 114.233Z" fill="#80A5AE"/>
<path d="M152.423 135.069C151.693 138.799 152.017 143.42 155.909 145.285C159.801 147.15 163.935 146.825 166.773 143.988C167.827 142.934 166.125 141.15 165.071 142.285C164.017 143.42 160.287 144.312 157.774 143.42C155.26 142.528 154.206 138.718 154.774 135.718C155.098 134.177 152.747 133.529 152.423 135.069Z" fill="#80A5AE"/>
<path d="M120.235 84.4783C119.668 86.5052 119.343 88.9375 121.289 90.3969C123.235 91.8563 125.667 91.4508 127.451 91.0454C128.473 90.888 129.424 90.424 130.176 89.7146C130.929 89.0052 131.449 88.0839 131.667 87.0727C132.153 85.1269 131.91 82.6947 130.126 81.5596C129.988 81.4744 129.834 81.4173 129.674 81.3916C129.513 81.3658 129.349 81.372 129.191 81.4097C129.033 81.4473 128.884 81.5157 128.752 81.611C128.621 81.7063 128.509 81.8266 128.424 81.965C128.339 82.1034 128.281 82.2572 128.256 82.4177C128.23 82.5781 128.236 82.7421 128.274 82.9002C128.311 83.0584 128.38 83.2074 128.475 83.3391C128.57 83.4707 128.691 83.5824 128.829 83.6676C129.802 84.3162 129.478 86.1809 129.153 87.0727C128.829 87.9645 127.37 88.6943 126.072 88.7754C125.239 88.8974 124.392 88.8974 123.559 88.7754C121.694 88.2889 122.181 86.5053 122.586 85.127C122.672 84.8152 122.631 84.482 122.471 84.2007C122.312 83.9194 122.047 83.713 121.735 83.627C121.423 83.541 121.09 83.5823 120.809 83.742C120.527 83.9016 120.321 84.1665 120.235 84.4783Z" fill="#80A5AE"/>
<path d="M105.156 150.069C104.183 150.798 104.183 152.258 104.345 153.393C104.423 154.695 105.005 155.916 105.967 156.798C106.444 157.164 106.99 157.432 107.571 157.585C108.153 157.739 108.76 157.775 109.356 157.692C109.952 157.609 110.525 157.409 111.043 157.102C111.561 156.795 112.012 156.389 112.372 155.906C113.588 154.204 113.993 150.474 111.642 149.501C109.291 148.528 106.291 147.555 105.399 150.474C104.994 151.934 107.264 152.582 107.75 151.123C108.237 149.663 110.426 151.528 110.669 151.771C110.912 152.015 110.669 154.285 110.182 154.69C109.87 155.038 109.439 155.257 108.973 155.302C108.508 155.347 108.042 155.215 107.669 154.933C107.409 154.766 107.192 154.539 107.037 154.271C106.882 154.003 106.793 153.702 106.777 153.393C106.696 153.069 106.615 152.015 106.858 151.771C107.102 151.528 106.372 149.096 105.156 150.069Z" fill="#80A5AE"/>
<path d="M59.1843 292.761C63.9678 296.085 63.2382 302.895 65.8326 307.517C68.427 312.138 72.2376 315.381 75.4807 319.03C76.5346 320.165 78.2372 318.462 77.1832 317.327C72.9673 312.543 67.9406 308.084 66.238 301.679C65.1029 297.382 64.2922 293.41 60.4816 290.653C59.1844 289.761 57.9682 291.869 59.1843 292.761Z" fill="#090909"/>
<path d="M77.5084 321.544C78.906 323.161 80.029 324.996 80.8325 326.976C81.3189 328.436 83.6701 327.787 83.1837 326.328C82.6972 324.869 80.8325 321.869 79.2109 319.842C77.5894 317.815 76.5355 320.328 77.5084 321.544Z" fill="#090909"/>
<path d="M138.072 345.379C143.017 346.028 147.963 346.676 152.909 345.784C157.854 344.892 163.043 340.92 168.637 340.19C170.178 340.028 170.178 337.596 168.637 337.758C164.34 338.325 160.773 340.352 156.8 341.974C150.963 344.406 144.882 343.838 138.72 343.028C137.261 342.784 136.531 345.136 138.072 345.379Z" fill="#090909"/>
<path d="M128.425 345.948H132.398C132.72 345.948 133.03 345.82 133.258 345.592C133.486 345.364 133.614 345.054 133.614 344.732C133.614 344.409 133.486 344.1 133.258 343.872C133.03 343.644 132.72 343.516 132.398 343.516H128.425C128.103 343.516 127.793 343.644 127.565 343.872C127.337 344.1 127.209 344.409 127.209 344.732C127.209 345.054 127.337 345.364 127.565 345.592C127.793 345.82 128.103 345.948 128.425 345.948Z" fill="#090909"/>
<path d="M112.29 184.12C110.345 206.984 127.695 224.253 137.181 243.306C137.911 244.684 140.018 243.468 139.289 242.008C129.965 223.442 112.777 206.497 114.723 184.12C114.885 182.58 112.453 182.58 112.29 184.12Z" fill="#090909"/>
<path d="M125.667 323.409C135.072 299.167 137.504 273.142 139.288 247.44C139.369 245.9 136.937 245.9 136.856 247.44C135.153 272.979 132.64 298.68 123.316 322.76C122.749 324.219 125.1 324.868 125.667 323.409Z" fill="#090909"/>
<path d="M102.318 164.093C105.804 168.147 111.561 169.444 116.749 169.931C124.25 170.525 131.784 170.552 139.289 170.012C145.694 169.607 152.585 168.796 158.341 165.796C161.017 164.418 163.368 162.391 165.719 160.526C168.07 158.661 169.53 157.688 169.449 155.013C169.368 152.337 166.935 153.473 167.016 155.013C167.098 156.553 161.747 160.688 160.044 161.904C157.647 163.556 154.988 164.789 152.18 165.553C146.752 166.972 141.169 167.708 135.559 167.742C130.289 167.904 124.938 167.904 119.668 167.661C114.398 167.418 107.75 166.688 104.021 162.31C102.967 161.175 101.264 162.877 102.318 164.093Z" fill="#090909"/>
<path d="M326.655 30.1562H302.333C296.959 30.1562 292.604 34.5121 292.604 39.8854V49.6388C292.604 55.012 296.959 59.3679 302.333 59.3679H326.655C332.029 59.3679 336.384 55.012 336.384 49.6388V39.8854C336.384 34.5121 332.029 30.1562 326.655 30.1562Z" fill="#CBC7DB"/>
<path d="M290.575 78.5603H262.685C262.362 78.5603 262.053 78.4322 261.825 78.2041C261.597 77.9761 261.469 77.6667 261.469 77.3442V62.7505C261.469 62.428 261.597 62.1186 261.825 61.8906C262.053 61.6625 262.362 61.5344 262.685 61.5344H290.575C290.738 61.5223 290.901 61.5454 291.054 61.6023C291.207 61.6591 291.346 61.7483 291.462 61.8637C291.577 61.9792 291.666 62.1182 291.723 62.2712C291.78 62.4242 291.803 62.5877 291.791 62.7505V77.3442C291.791 77.6667 291.663 77.9761 291.435 78.2041C291.207 78.4322 290.898 78.5603 290.575 78.5603ZM263.901 76.128H289.359V63.9667H263.901V76.128Z" fill="#090909"/>
<path d="M279.954 94.7751H333.383C333.706 94.7751 334.015 94.6469 334.243 94.4189C334.471 94.1908 334.6 93.8815 334.6 93.5589C334.6 93.2364 334.471 92.927 334.243 92.699C334.015 92.4709 333.706 92.3428 333.383 92.3428H279.954C279.632 92.3428 279.323 92.4709 279.094 92.699C278.866 92.927 278.738 93.2364 278.738 93.5589C278.738 93.8815 278.866 94.1908 279.094 94.4189C279.323 94.6469 279.632 94.7751 279.954 94.7751Z" fill="#090909"/>
<path d="M296.252 107.422H336.385C336.707 107.422 337.017 107.293 337.245 107.065C337.473 106.837 337.601 106.528 337.601 106.205C337.601 105.883 337.473 105.574 337.245 105.345C337.017 105.117 336.707 104.989 336.385 104.989H296.252C295.93 104.989 295.62 105.117 295.392 105.345C295.164 105.574 295.036 105.883 295.036 106.205C295.036 106.528 295.164 106.837 295.392 107.065C295.62 107.293 295.93 107.422 296.252 107.422Z" fill="#090909"/>
<path d="M259.037 80.7484L257.092 84.0725C256.281 85.3697 258.389 86.6669 259.199 85.2886L261.145 81.9646C261.307 81.685 261.35 81.3529 261.267 81.0412C261.183 80.7295 260.979 80.4637 260.699 80.3025C260.42 80.1412 260.088 80.0976 259.776 80.1812C259.464 80.2648 259.199 80.4689 259.037 80.7484Z" fill="#090909"/>
<path d="M254.174 95.5853V99.558C254.174 99.8806 254.302 100.19 254.53 100.418C254.758 100.646 255.067 100.774 255.39 100.774C255.713 100.774 256.022 100.646 256.25 100.418C256.478 100.19 256.606 99.8806 256.606 99.558V95.5853C256.606 95.2627 256.478 94.9534 256.25 94.7253C256.022 94.4973 255.713 94.3691 255.39 94.3691C255.067 94.3691 254.758 94.4973 254.53 94.7253C254.302 94.9534 254.174 95.2627 254.174 95.5853Z" fill="#090909"/>
<path d="M255.308 112.125C256.098 113.5 256.776 114.937 257.335 116.422C257.822 117.962 260.173 117.314 259.605 115.773C259.043 114.082 258.309 112.452 257.416 110.909C257.255 110.629 256.989 110.425 256.678 110.341C256.366 110.258 256.034 110.301 255.754 110.463C255.475 110.624 255.271 110.89 255.187 111.201C255.103 111.513 255.147 111.845 255.308 112.125Z" fill="#090909"/>
<path d="M266.496 124.286L269.82 127.286C270.956 128.34 272.658 126.637 271.523 125.583L268.199 122.584C267.064 121.53 265.361 123.232 266.496 124.286Z" fill="#090909"/>
<path d="M284.495 134.583L286.522 136.528C286.749 136.751 287.055 136.876 287.373 136.876C287.692 136.876 287.997 136.751 288.225 136.528C288.345 136.422 288.442 136.291 288.508 136.144C288.575 135.997 288.609 135.838 288.609 135.677C288.609 135.516 288.575 135.357 288.508 135.21C288.442 135.063 288.345 134.932 288.225 134.826L286.198 132.88C285.963 132.704 285.674 132.619 285.382 132.64C285.09 132.661 284.815 132.786 284.608 132.993C284.401 133.2 284.276 133.475 284.255 133.767C284.234 134.059 284.319 134.348 284.495 134.583Z" fill="#090909"/>
<path d="M299.575 146.501C300.082 146.75 300.531 147.102 300.894 147.535C301.257 147.968 301.526 148.472 301.683 149.014C301.769 149.326 301.975 149.591 302.256 149.751C302.538 149.91 302.871 149.952 303.183 149.866C303.494 149.78 303.759 149.573 303.919 149.292C304.078 149.011 304.12 148.678 304.034 148.366C303.766 147.427 303.282 146.563 302.62 145.845C301.959 145.127 301.138 144.574 300.223 144.231C300.069 144.181 299.906 144.162 299.745 144.176C299.583 144.19 299.426 144.236 299.282 144.312C299.139 144.387 299.012 144.491 298.909 144.616C298.806 144.742 298.729 144.886 298.683 145.042C298.609 145.353 298.662 145.682 298.829 145.955C298.996 146.228 299.264 146.424 299.575 146.501Z" fill="#090909"/>
<path d="M275.902 59.7491C275.801 58.5565 276.085 57.3631 276.713 56.344C277.604 55.0468 275.496 53.8306 274.686 55.1278C273.767 56.4854 273.338 58.1153 273.469 59.7491C273.551 61.2896 275.983 61.2896 275.902 59.7491Z" fill="#090909"/>
<path d="M281.496 49.0482C283.308 47.8325 285.236 46.8004 287.253 45.9672C288.712 45.3997 288.063 43.0485 286.604 43.616C284.399 44.5295 282.283 45.6421 280.28 46.9401C278.983 47.8319 280.199 49.94 281.496 49.0482Z" fill="#090909"/>
<path d="M156.8 29.9138L195.311 29.3463C195.634 29.3463 195.943 29.2182 196.171 28.9901C196.399 28.7621 196.527 28.4527 196.527 28.1302C196.527 27.8077 196.399 27.4983 196.171 27.2703C195.943 27.0422 195.634 26.9141 195.311 26.9141L156.8 27.4816C156.478 27.4816 156.168 27.6097 155.94 27.8377C155.712 28.0658 155.584 28.3752 155.584 28.6977C155.584 29.0202 155.712 29.3296 155.94 29.5576C156.168 29.7857 156.478 29.9138 156.8 29.9138Z" fill="#090909"/>
<path d="M158.18 40.6969H194.664C194.987 40.6969 195.296 40.5688 195.524 40.3407C195.752 40.1127 195.88 39.8033 195.88 39.4808C195.88 39.1582 195.752 38.8489 195.524 38.6208C195.296 38.3928 194.987 38.2646 194.664 38.2646H158.18C157.857 38.2646 157.548 38.3928 157.32 38.6208C157.092 38.8489 156.964 39.1582 156.964 39.4808C156.964 39.8033 157.092 40.1127 157.32 40.3407C157.548 40.5688 157.857 40.6969 158.18 40.6969Z" fill="#090909"/>
<path d="M336.464 141.718H309.223V158.314H336.464V141.718Z" fill="#CBC7DB"/>
<path d="M237.067 136.367C238.386 135.593 239.611 134.668 240.715 133.61C241.851 132.556 240.067 130.772 239.013 131.907C238.049 132.806 236.989 133.595 235.851 134.259C235.571 134.42 235.367 134.686 235.284 134.997C235.2 135.309 235.244 135.641 235.405 135.921C235.566 136.2 235.832 136.404 236.144 136.488C236.455 136.571 236.788 136.528 237.067 136.367Z" fill="#090909"/>
<path d="M247.12 127.367C247.763 126.101 248.613 124.95 249.633 123.962C250.768 122.908 249.066 121.205 247.931 122.259C246.732 123.371 245.744 124.689 245.012 126.151C244.364 127.529 246.471 128.745 247.12 127.367Z" fill="#090909"/>
<path d="M230.823 29.7516H253.767C254.09 29.7516 254.399 29.6235 254.627 29.3954C254.855 29.1674 254.983 28.858 254.983 28.5355C254.983 28.2129 254.855 27.9036 254.627 27.6755C254.399 27.4475 254.09 27.3193 253.767 27.3193H230.823C230.5 27.3193 230.191 27.4475 229.963 27.6755C229.735 27.9036 229.606 28.2129 229.606 28.5355C229.606 28.858 229.735 29.1674 229.963 29.3954C230.191 29.6235 230.5 29.7516 230.823 29.7516Z" fill="#090909"/>
<path d="M257.416 29.4264H267.064C267.387 29.4264 267.696 29.2983 267.924 29.0702C268.152 28.8422 268.281 28.5328 268.281 28.2103C268.281 27.8877 268.152 27.5784 267.924 27.3503C267.696 27.1223 267.387 26.9941 267.064 26.9941H257.416C257.094 26.9941 256.784 27.1223 256.556 27.3503C256.328 27.5784 256.2 27.8877 256.2 28.2103C256.2 28.5328 256.328 28.8422 256.556 29.0702C256.784 29.2983 257.094 29.4264 257.416 29.4264Z" fill="#090909"/>
<path d="M240.791 188.509L233.495 188.611L236.1 375.165L243.396 375.063L240.791 188.509Z" fill="#090909"/>
<path d="M276.307 378.701H203.987C203.02 378.701 202.092 378.317 201.407 377.633C200.723 376.948 200.339 376.02 200.339 375.053C200.339 374.085 200.723 373.157 201.407 372.473C202.092 371.789 203.02 371.404 203.987 371.404H276.307C277.275 371.404 278.203 371.789 278.887 372.473C279.571 373.157 279.955 374.085 279.955 375.053C279.955 376.02 279.571 376.948 278.887 377.633C278.203 378.317 277.275 378.701 276.307 378.701Z" fill="#090909"/>
<path d="M19.7015 137.015C15.5666 137.015 14.0262 129.232 13.4587 124.692C8.51305 124.205 0 122.746 0 118.287C0 113.827 8.35086 112.53 13.2154 111.963C13.6208 107.341 14.9991 97.6123 19.7015 97.6123C24.4039 97.6123 25.7011 107.341 26.1065 111.963C30.971 112.53 39.403 113.99 39.403 118.287C39.403 122.584 30.8089 124.205 25.8632 124.692C25.3768 129.232 23.8364 137.015 19.7015 137.015ZM3.24304 118.287C3.56734 119.016 6.81045 120.962 15.0802 121.53L16.3774 121.692L16.5395 122.989C17.2692 130.529 19.0529 133.448 19.7015 133.772C20.3501 134.097 22.1338 130.529 22.7824 122.989L22.9445 121.692L24.3228 121.53C32.5114 120.962 35.8356 119.016 36.1599 118.287C36.4842 117.557 32.5926 115.773 24.485 115.125L23.0256 114.963V113.584C22.5391 105.396 20.6744 101.261 19.7825 100.855C18.8907 100.45 16.9449 105.396 16.4584 113.584V114.963L15.0802 115.125C6.72938 115.773 3.56734 117.638 3.24304 118.287Z" fill="#80A5AE"/>
<path d="M51.1597 208.28C48.241 208.28 47.1059 203.74 46.6194 200.254C42.8899 199.849 37.9443 198.713 37.9443 195.714C37.9443 192.714 42.8089 191.579 46.4573 191.092C46.7816 187.525 47.9167 181.85 51.1597 181.85C54.4028 181.85 55.4567 187.525 55.781 191.092C59.4294 191.579 64.294 192.633 64.294 195.714C64.294 198.794 59.3484 199.849 55.6189 200.254C55.1325 203.74 53.9974 208.28 51.1597 208.28ZM41.5117 195.714C42.4035 196.2 44.5925 196.93 48.2409 197.173H49.5382L49.7003 198.551C50.0246 201.875 50.6733 203.74 51.1597 204.551C51.9588 202.644 52.4249 200.615 52.538 198.551L52.7001 197.173H54.0785C57.7269 196.93 59.8348 196.2 60.7266 195.714C59.8348 195.227 57.7269 194.497 54.1595 194.254L52.7001 194.092V192.714C52.4569 188.66 51.7273 186.39 51.2408 185.417C50.6733 186.39 49.9436 188.66 49.7003 192.714V194.092L48.2409 194.254C44.5114 194.497 42.4035 195.227 41.5117 195.714Z" fill="#090909"/>
<path d="M388.354 66.8028C385.516 66.8028 384.3 62.3437 383.895 58.8574C380.165 58.452 375.22 57.317 375.22 54.3172C375.22 51.3174 380.003 50.1012 383.733 49.6958C384.057 46.1285 385.111 40.4531 388.354 40.4531C391.597 40.4531 392.651 46.1285 393.056 49.6958C396.705 50.1012 401.569 51.2363 401.569 54.3172C401.569 57.3981 396.624 58.452 392.894 58.8574C392.408 62.3437 391.273 66.8028 388.354 66.8028ZM378.787 54.3172C379.679 54.8036 381.787 55.4522 385.435 55.7765H386.814L386.976 57.1548C387.089 59.2188 387.555 61.248 388.354 63.1544C388.84 62.3436 389.489 60.4789 389.813 57.1548V55.7765H391.192C394.84 55.4522 397.029 54.8036 397.921 54.3172C397.029 53.8307 394.921 53.101 391.273 52.7767H389.894V51.3984C389.651 47.3446 388.922 44.9934 388.354 44.1015C387.868 44.9934 387.057 47.3446 386.895 51.3984L386.732 52.7767H385.354C381.787 53.101 379.679 53.8307 378.787 54.3172Z" fill="#090909"/>
<path d="M242.578 182.336L339.464 179.499C339.787 179.499 340.096 179.371 340.324 179.142C340.552 178.914 340.68 178.605 340.68 178.283C340.68 177.96 340.552 177.651 340.324 177.423C340.096 177.195 339.787 177.066 339.464 177.066L242.578 179.904C242.256 179.904 241.947 180.032 241.718 180.26C241.49 180.488 241.362 180.798 241.362 181.12C241.362 181.443 241.49 181.752 241.718 181.98C241.947 182.208 242.256 182.336 242.578 182.336Z" fill="#090909"/>
<path d="M220.04 181.848H226.202C226.525 181.848 226.834 181.72 227.062 181.492C227.29 181.264 227.418 180.955 227.418 180.632C227.418 180.31 227.29 180 227.062 179.772C226.834 179.544 226.525 179.416 226.202 179.416H220.04C219.718 179.416 219.408 179.544 219.18 179.772C218.952 180 218.824 180.31 218.824 180.632C218.824 180.955 218.952 181.264 219.18 181.492C219.408 181.72 219.718 181.848 220.04 181.848Z" fill="#090909"/>
<path d="M133.938 23.1847C133.503 20.4195 133.232 17.631 133.127 14.8339C133.127 13.4556 132.721 11.5908 134.343 10.7801C135.964 9.96931 136.775 10.699 137.586 10.618H154.369C165.395 10.7801 176.34 10.8612 187.285 10.2126C188.826 10.1315 188.826 7.69923 187.285 7.7803C173.421 8.59106 159.476 8.10461 145.531 8.18568C142.369 8.18568 139.126 8.18564 135.964 8.34779C134.424 8.42887 132.64 8.18566 131.586 9.48288C130.532 10.7801 130.695 13.2934 130.695 14.9149C130.783 17.9318 131.081 20.9389 131.586 23.9144C131.911 25.4549 134.262 24.8062 133.938 23.2658V23.1847Z" fill="#090909"/>
<path d="M198.312 10.6188H208.041C208.363 10.6188 208.673 10.4907 208.901 10.2626C209.129 10.0345 209.257 9.7252 209.257 9.40266C209.257 9.08012 209.129 8.77079 208.901 8.54272C208.673 8.31464 208.363 8.18652 208.041 8.18652H198.312C197.989 8.18652 197.68 8.31464 197.452 8.54272C197.224 8.77079 197.096 9.08012 197.096 9.40266C197.096 9.7252 197.224 10.0345 197.452 10.2626C197.68 10.4907 197.989 10.6188 198.312 10.6188Z" fill="#090909"/>
<path d="M346.357 178.526C354.707 176.823 351.302 166.283 352.437 160.608C352.762 159.149 350.41 158.5 350.086 159.959C349.194 164.581 352.275 174.877 345.708 176.174C344.168 176.499 344.816 178.85 346.357 178.526Z" fill="#090909"/>
<path d="M296.576 11.9965C312.63 11.8343 328.764 11.8343 344.817 12.0775C345.139 12.0775 345.449 11.9494 345.677 11.7213C345.905 11.4933 346.033 11.1839 346.033 10.8614C346.033 10.5388 345.905 10.2295 345.677 10.0014C345.449 9.77337 345.139 9.64525 344.817 9.64525C328.764 9.40202 312.63 9.40204 296.576 9.56419C296.254 9.56419 295.945 9.69231 295.717 9.92038C295.488 10.1485 295.36 10.4578 295.36 10.7803C295.36 11.1029 295.488 11.4122 295.717 11.6403C295.945 11.8683 296.254 11.9965 296.576 11.9965Z" fill="#F5F3F0"/>
<path d="M349.275 21.806C349.681 26.1841 349.843 30.6434 349.843 35.0215C349.762 36.643 352.194 36.643 352.275 35.0215C352.275 30.6434 352.113 26.1841 351.708 21.806C351.545 20.2656 349.113 20.1845 349.275 21.806Z" fill="#F5F3F0"/>
<path d="M206.662 57.7228C212.257 57.5607 216.067 58.939 220.121 62.8307C223.13 65.8151 225.599 69.2989 227.418 73.1273C228.066 74.5866 230.174 73.3705 229.526 71.9111C227.296 67.0949 224.029 62.8312 219.959 59.4254C215.824 56.0202 212.013 55.1284 206.662 55.2906C205.041 55.3716 205.041 57.8039 206.662 57.7228Z" fill="#80A5AE"/>
<path d="M170.908 65.5067C170.92 65.2851 170.862 65.0653 170.742 64.8786C170.622 64.6919 170.446 64.5479 170.24 64.467C170.033 64.3861 169.806 64.3726 169.591 64.4282C169.376 64.4839 169.184 64.6059 169.043 64.777C164.584 69.074 159.152 70.2902 153.233 71.5063C149.99 72.1549 147.153 73.29 145.693 76.2898C140.55 76.1821 135.405 76.3987 130.289 76.9384C128.829 77.0194 128.829 79.2896 130.289 79.1275C134.748 78.7221 139.207 78.4788 143.666 78.4788L145.369 79.5329C148.531 82.1273 156.801 79.1275 159.719 77.9924C164.341 76.2087 171.719 71.4252 170.908 65.5067Z" fill="#CBC7DB"/>
<path d="M116.992 378.215C120.397 375.62 122.911 374.728 127.289 375.782C129.651 376.463 132.064 376.951 134.505 377.242C141.315 377.485 146.909 371.404 153.557 374.809C157.53 376.836 162.557 376.836 166.854 375.863C171.151 374.89 172.854 373.269 176.826 374.242C179.259 374.809 180.799 375.62 183.312 375.215C185.826 374.809 184.204 372.62 182.664 372.863C179.502 373.35 176.664 371.08 173.421 371.404C170.178 371.728 168.232 373.188 165.557 373.674C161.762 374.372 157.846 373.949 154.287 372.458C152.26 371.566 150.639 370.918 148.288 371.161C145.936 371.404 143.342 372.62 140.91 373.512C136.856 375.053 133.289 374.809 129.235 373.755C123.722 372.377 120.397 372.62 115.695 376.107C114.479 376.998 115.695 379.187 116.992 378.215Z" fill="#F5F3F0"/>
<path d="M152.422 366.621C154.698 366.146 156.905 365.383 158.989 364.351C160.367 363.621 159.151 361.513 157.773 362.243C155.877 363.195 153.858 363.877 151.773 364.27C150.233 364.594 150.882 366.946 152.422 366.621Z" fill="#F5F3F0"/>
<path d="M162.394 367.351C163.617 366.785 164.784 366.106 165.881 365.324C166.101 365.132 166.245 364.868 166.287 364.579C166.329 364.29 166.265 363.996 166.108 363.75C165.95 363.504 165.71 363.323 165.43 363.24C165.15 363.157 164.85 363.177 164.583 363.297C163.495 364.023 162.357 364.673 161.178 365.243C159.719 365.972 161.016 368.08 162.394 367.351Z" fill="#F5F3F0"/>
<path d="M29.2678 325.759C32.4298 326.57 33.6459 326.976 35.1052 330.543C35.4295 331.354 35.1052 331.921 35.6727 332.732C36.2402 333.543 39.4833 334.11 41.348 334.435C46.699 335.326 43.0507 339.218 43.6182 342.542C44.1857 345.866 46.0505 346.028 48.0774 347.569C50.1043 349.109 50.9961 351.217 51.2393 353.812C51.1898 354.914 51.355 356.015 51.7258 357.055C52.6176 358.919 53.9149 359.001 55.6175 359.73C59.5091 361.271 57.4821 363.298 59.509 365.73C61.5359 368.162 65.5897 367.514 66.4005 371.243C66.7248 372.783 69.076 372.135 68.7517 370.594C68.4274 369.054 66.4816 366.865 64.2925 365.73C62.1035 364.595 62.5089 365 61.6982 363.379C61.3281 362.513 61.0297 361.618 60.8062 360.703C60.6364 359.824 60.1803 359.026 59.509 358.433C58.6172 357.784 57.7254 357.784 56.7524 357.46C54.3202 356.568 53.9148 355.271 53.6716 352.839C53.4287 350.292 52.2081 347.938 50.2664 346.272C47.9152 344.245 45.564 342.218 46.7802 338.813C47.2157 337.962 47.4119 337.009 47.3477 336.056C47.0234 334.029 45.2397 332.813 43.3749 332.327C41.5102 331.84 38.6726 332.327 37.5375 330.543C36.4024 328.759 37.2943 328.354 36.8078 327.462C35.3484 324.949 32.5108 324.057 29.9163 323.408C27.3219 322.76 27.8084 325.354 29.2678 325.759Z" fill="#F5F3F0"/>
<path d="M60.5637 351.46C62.9149 351.865 65.185 352.352 67.4551 352.919C67.7669 353.005 68.1001 352.964 68.3814 352.804C68.6627 352.644 68.869 352.38 68.955 352.068C69.041 351.756 68.9997 351.423 68.84 351.142C68.6804 350.86 68.4155 350.654 68.1037 350.568C65.8335 350 63.5634 349.514 61.2122 349.109C58.861 348.703 59.0232 351.217 60.5637 351.46Z" fill="#F5F3F0"/>
<path d="M64.1312 356.081L70.293 357.946C70.6048 358.032 70.9379 357.991 71.2192 357.831C71.5005 357.671 71.7068 357.406 71.7929 357.095C71.8789 356.783 71.8375 356.45 71.6779 356.168C71.5182 355.887 71.2533 355.681 70.9415 355.595L64.7798 353.73C63.3204 353.243 62.6719 355.595 64.1312 356.081Z" fill="#F5F3F0"/>
<path d="M229.688 47.8323V52.0483C229.688 52.3708 229.816 52.6801 230.044 52.9082C230.272 53.1363 230.581 53.2644 230.904 53.2644C231.226 53.2644 231.536 53.1363 231.764 52.9082C231.992 52.6801 232.12 52.3708 232.12 52.0483V47.8323C232.12 47.5098 231.992 47.2005 231.764 46.9724C231.536 46.7443 231.226 46.6162 230.904 46.6162C230.581 46.6162 230.272 46.7443 230.044 46.9724C229.816 47.2005 229.688 47.5098 229.688 47.8323Z" fill="#090909"/>
<path d="M223.364 41.6693C223.439 43.0605 223.101 44.4429 222.391 45.642C221.581 46.9392 223.689 48.1554 224.499 46.8581C225.438 45.2961 225.89 43.4894 225.796 41.6693C225.715 40.0477 223.283 40.0477 223.364 41.6693Z" fill="#090909"/>
<path d="M129.559 58.5332C131.574 58.5332 133.207 56.8997 133.207 54.8847C133.207 52.8698 131.574 51.2363 129.559 51.2363C127.544 51.2363 125.91 52.8698 125.91 54.8847C125.91 56.8997 127.544 58.5332 129.559 58.5332Z" fill="#F5F3F0"/>
</svg>
