<svg width="120" height="40" viewBox="0 0 120 40" fill="none" xmlns="http://www.w3.org/2000/svg">
<g clip-path="url(#clip0_1_13)">
<path fill-rule="evenodd" clip-rule="evenodd" d="M39.3846 19.6189C39.3692 8.72575 30.2762 -0.255517 19.6834 0.00555163C9.23897 -0.171054 0 8.47748 0 19.5729C0 30.7092 8.70663 39.258 19.6066 39.3834C30.3914 39.5062 39.4 30.5454 39.3846 19.6189ZM26.4597 13.5486C25.6942 13.5507 24.9051 13.553 24.0828 13.553C26.1838 15.3344 27.2715 17.3615 27.2409 19.7342C27.2075 22.1145 26.0917 24.1262 24.0238 25.8538C24.9005 25.8538 25.7509 25.8535 26.584 25.8532C28.2006 25.8528 29.7522 25.8522 31.3025 25.8538C32.8457 25.8538 32.9174 25.9154 32.0958 27.2745C29.8283 31.024 26.45 33.2252 22.1863 34.0186C15.4785 35.2677 9.43346 31.7074 6.66179 26.0689C4.14346 20.9448 4.51455 15.772 7.95165 11.1317C12.9013 4.45395 21.4851 3.15885 28.2902 7.93486C29.9715 9.11478 31.3102 10.671 32.3697 12.4472C32.8431 13.2407 32.6717 13.5811 31.6966 13.5658C29.9969 13.5386 28.296 13.5434 26.4597 13.5486ZM15.2635 31.9172C20.4818 33.9163 26.9363 32.0888 30.3197 27.1311H30.2715C26.7548 27.1311 23.4174 27.1311 20.0775 27.1285C15.65 27.1285 12.2231 23.86 12.2308 19.6548C12.2384 15.5314 15.8418 12.0275 19.9777 12.245C22.3165 12.3672 24.6625 12.3375 27.0252 12.3076C28.078 12.2942 29.134 12.2809 30.1943 12.2809C28.6458 8.89466 22.9438 6.00754 18.1017 6.71397C11.6856 7.64818 6.85628 12.5803 6.70528 19.5448C6.60035 24.3718 8.9728 29.5088 15.2635 31.9172Z" fill="#F99901"/>
<path d="M48.1379 17.6714H48.2708C50.4419 17.6714 51.904 16.1797 51.904 14.0086H50.2055C50.2055 14.6289 50.0431 15.1163 49.7034 15.456C49.3342 15.8252 48.8025 16.0025 48.1969 15.9729C47.5914 15.9877 47.0892 15.8105 46.7348 15.456C46.3803 15.1015 46.2031 14.6142 46.2179 13.9791V10.7594C46.2031 10.1243 46.3803 9.62216 46.7348 9.26769C47.0892 8.91323 47.6062 8.736 48.2265 8.76554H48.3003C49.5557 8.76554 50.2055 9.504 50.2055 10.7298H51.904C51.904 8.51446 50.4271 7.08185 48.2265 7.08185C47.1483 7.08185 46.2031 7.40677 45.5237 8.08616C44.8591 8.75077 44.5046 9.696 44.5194 10.7594V13.9643C44.4899 16.1354 45.952 17.6714 48.1379 17.6714ZM56.1923 17.6418C56.5172 17.6862 56.8274 17.6714 57.108 17.6123C57.6249 17.5089 58.1714 17.2578 58.5111 16.8295C58.5554 17.2283 58.8951 17.5385 59.3086 17.5385H60.8446V15.9138H60.1209V10.4049H58.4963V14.5255C58.5111 15.2788 58.1566 15.7514 57.5659 15.9729C57.4034 16.032 57.2409 16.0468 57.0489 16.0615C56.2219 16.0615 55.4095 15.6775 55.4095 14.7175V10.4049H53.7849V14.8357C53.7849 16.2388 54.7892 17.4498 56.1923 17.6418ZM63.3459 12.0295H64.7932V15.9138H63.3606V17.5385H68.6037V15.9138H66.4179V13.4178C66.4179 12.384 67.0086 11.8818 67.9834 11.8818C68.4412 11.8818 68.8991 12.0148 69.1649 12.3397L70.2283 11.0252C69.6966 10.5378 69.0911 10.272 68.3674 10.272C67.6289 10.272 66.9052 10.5526 66.4031 11.1138C66.3588 10.7151 66.0191 10.4049 65.6055 10.4049H63.3459V12.0295ZM72.3602 12.0295H73.8075V15.9138H72.3749V17.5385H77.618V15.9138H75.4322V13.4178C75.4322 12.384 76.0229 11.8818 76.9977 11.8818C77.4555 11.8818 77.9134 12.0148 78.1792 12.3397L79.2426 11.0252C78.7109 10.5378 78.1054 10.272 77.3817 10.272C76.6432 10.272 75.9195 10.5526 75.4174 11.1138C75.3731 10.7151 75.0334 10.4049 74.6199 10.4049H72.3602V12.0295ZM81.5814 16.6523C82.246 17.3169 83.1469 17.6566 84.1955 17.6566H84.2546C85.7168 17.6566 86.9869 17.0511 87.6072 15.7071L86.1599 14.9538C85.8054 15.7809 85.126 16.0468 84.2546 16.0468C83.0731 16.0468 82.3494 15.4855 82.2165 14.304H87.9469C87.9469 14.2006 87.9617 14.0825 87.9617 13.9791C87.9617 11.7932 86.5586 10.2868 84.3432 10.2868H84.2842C82.0688 10.2572 80.5475 11.7342 80.5771 13.9643C80.5623 15.0425 80.9168 15.9877 81.5814 16.6523ZM82.3937 12.96C82.7334 12.1772 83.4128 11.8966 84.2399 11.8966H84.2842C85.126 11.8966 85.8054 12.1772 86.1451 12.96H82.3937ZM90.3595 12.0295V17.5385H91.9842V13.4178C91.9694 12.6646 92.3239 12.192 92.9146 11.9705C93.0771 11.9114 93.2395 11.8966 93.4315 11.8818C94.2586 11.8818 95.0709 12.2658 95.0709 13.2258V17.5385H96.6955V13.1077C96.6955 11.7046 95.6912 10.4935 94.2882 10.3015C93.9632 10.2572 93.6531 10.272 93.3725 10.3311C92.8555 10.4345 92.3091 10.6855 91.9694 11.1138C91.9251 10.7151 91.5854 10.4049 91.1719 10.4049H89.6358V12.0295H90.3595ZM102.357 17.6566H102.49C104.085 17.6566 105.37 16.8738 105.917 15.3674L104.396 14.7618C104.115 15.7071 103.362 16.0468 102.416 16.0468C101.796 16.0468 101.25 15.8695 100.895 15.5151C100.526 15.1458 100.349 14.6289 100.364 13.9643C100.349 13.3145 100.526 12.7828 100.895 12.4283C101.25 12.0886 101.752 11.8966 102.402 11.8966H102.446C103.391 11.8966 104.115 12.2658 104.396 13.1815L105.917 12.576C105.356 11.04 104.071 10.2868 102.446 10.2868C100.245 10.2572 98.7094 11.7489 98.7389 13.9643C98.7094 16.1354 100.172 17.6566 102.357 17.6566ZM108.034 14.8357C108.108 16.224 108.979 17.5089 110.441 17.6418C111.076 17.7009 111.652 17.5975 112.199 17.2874C112.406 17.1692 112.583 17.0068 112.745 16.8443V18.8529C112.745 19.0006 112.612 19.1188 112.465 19.1188H109.393V20.7434H112.465C113.513 20.7434 114.355 19.9015 114.355 18.8529V10.4049H112.745V14.5255C112.775 15.4855 112.154 16.0615 111.298 16.0615C110.294 16.0615 109.732 15.6037 109.658 14.7175L109.644 10.4049H108.034V14.8357ZM45.0954 32.3077H51.2985V30.6092H49.0535V23.6677H51.2985V21.9692H45.0954V23.6677H47.3551V30.6092H45.0954V32.3077ZM57.2852 32.4259H57.4182C59.0132 32.4259 60.2982 31.6431 60.8446 30.1366L59.3234 29.5311C59.0428 30.4763 58.2895 30.816 57.3443 30.816C56.724 30.816 56.1775 30.6388 55.8231 30.2843C55.4539 29.9151 55.2766 29.3982 55.2914 28.7335C55.2766 28.0837 55.4539 27.552 55.8231 27.1975C56.1775 26.8579 56.6797 26.6659 57.3295 26.6659H57.3739C58.3191 26.6659 59.0428 27.0351 59.3234 27.9508L60.8446 27.3452C60.2834 25.8092 58.9985 25.056 57.3739 25.056C55.1732 25.0265 53.6372 26.5182 53.6668 28.7335C53.6372 30.9046 55.0994 32.4259 57.2852 32.4259ZM63.5526 31.4215C64.2172 32.0862 65.1182 32.4259 66.1668 32.4259H66.2259C67.304 32.4406 68.2492 32.1009 68.9286 31.4215C69.5932 30.7569 69.9477 29.8265 69.9329 28.7483C69.9477 27.6554 69.5932 26.7249 68.9286 26.0603C68.2492 25.3809 67.304 25.0412 66.2554 25.056C65.1625 25.056 64.2172 25.3662 63.5526 26.0603C62.888 26.7397 62.5335 27.6702 62.5483 28.7335C62.5335 29.8117 62.888 30.7569 63.5526 31.4215ZM64.1729 28.7335C64.1582 28.0837 64.3354 27.5668 64.7046 27.1975C65.0591 26.8431 65.6055 26.6511 66.2554 26.6659C66.8905 26.6363 67.4222 26.8431 67.7766 27.1975C68.1459 27.5668 68.3231 28.0837 68.3083 28.7335V28.7483C68.3231 29.3982 68.1459 29.9151 67.7766 30.2843C67.4222 30.6388 66.8905 30.8455 66.2259 30.816C65.5908 30.8308 65.0591 30.6388 64.7046 30.2843C64.3354 29.9151 64.1582 29.3982 64.1729 28.7335ZM72.3306 26.7988V32.3077H73.9552V28.1871C73.9405 27.4339 74.2949 26.9612 74.8857 26.7397C75.0482 26.6806 75.2106 26.6659 75.4026 26.6511C76.2297 26.6511 77.042 27.0351 77.042 27.9951V32.3077H78.6666V27.8769C78.6666 26.4739 77.6623 25.2628 76.2592 25.0708C75.9343 25.0265 75.6242 25.0412 75.3435 25.1003C74.8266 25.2037 74.2802 25.4548 73.9405 25.8831C73.8962 25.4843 73.5565 25.1742 73.1429 25.1742H71.6069V26.7988H72.3306ZM81.094 30.6979C81.6552 31.8055 82.822 32.4259 84.2842 32.4259H84.3875C85.6134 32.4259 86.5439 32.0419 87.046 31.3772C87.4448 30.8455 87.5482 30.1957 87.3562 29.5902C87.1789 29.0142 86.7063 28.4677 85.8202 28.2609C85.2294 28.128 84.8897 28.0394 84.4023 27.936C83.1912 27.6849 82.9549 27.4634 82.9254 27.2271C82.8663 26.784 83.4423 26.592 84.1512 26.592C84.742 26.592 85.51 26.7102 85.8645 27.2862L87.1789 26.5034C86.7802 25.8388 85.9235 25.056 84.1512 25.056C83.1322 25.056 82.3199 25.3957 81.8177 25.9717C81.4485 26.4 81.3155 26.9612 81.4189 27.5225C81.6552 28.8369 82.9845 29.1619 84.0331 29.4277C84.5057 29.5311 84.9783 29.6197 85.4214 29.7526C85.7759 29.8412 85.9974 30.1957 85.8054 30.4763C85.6725 30.6683 85.2146 30.9046 84.3728 30.9046H84.2989C83.4128 30.9046 82.7629 30.5797 82.4675 30.0037L81.094 30.6979Z" fill="black"/>
</g>
<defs>
<clipPath id="clip0_1_13">
<rect width="120" height="39.3846" fill="white"/>
</clipPath>
</defs>
</svg>
