<?xml version="1.0" encoding="UTF-8"?>
<svg width="309px" height="84px" viewBox="0 0 309 84" version="1.1" xmlns="http://www.w3.org/2000/svg" xmlns:xlink="http://www.w3.org/1999/xlink">
    <title>Logo | Ecommerce' Checklist</title>
    <g id="Logo-|-Ecommerce'-Checklist" stroke="none" stroke-width="1" fill="none" fill-rule="evenodd">
        <g id="Ecommerce'-Checklist" transform="translate(6.000000, 6.000000)">
            <g id="Shop">
                <rect id="Rectangle" fill="#4ADE80" x="0" y="0" width="72" height="72" rx="22"></rect>
                <path d="M20.0095661,33.6666667 L20.0095661,47.6666667 C20.0095661,52.0664 20.0095661,54.2662667 21.3764094,55.6331333 C22.7432294,57 24.9431194,57 29.3428994,57 L43.3428994,57 C47.7426328,57 49.9424994,57 51.3093661,55.6331333 C52.6762328,54.2662667 52.6762328,52.0664 52.6762328,47.6666667 L52.6762328,33.6666667" id="Path" stroke="#FFFFFF" stroke-width="4.5" fill="#BBF7D0"></path>
                <path d="M42.1762328,57 L42.1762328,45.3333333 C42.1762328,44.0446333 41.1315994,43 39.8428994,43 L32.8428994,43 C31.5542461,43 30.5095661,44.0446333 30.5095661,45.3333333 L30.5095661,57" id="Path" stroke="#FFFFFF" stroke-width="4.5" stroke-linecap="round" stroke-linejoin="round"></path>
                <path d="M19.1258628,18.5348367 C19.5502728,16.8371967 19.7624661,15.9883767 20.3954061,15.4941767 C21.0283694,15 21.9032994,15 23.6531828,15 L49.0324994,15 C50.7824994,15 51.6574994,15 52.2902994,15.4941767 C52.9233328,15.9883767 53.1354328,16.8371967 53.5598661,18.5348367 L56.3682661,29.7685533 C56.5943661,30.6724167 56.7072994,31.12436 56.6823328,31.4915333 C56.6176994,32.4433 55.9802328,33.2599667 55.0723328,33.5535 C54.7223328,33.6666667 54.2456328,33.6666667 53.2924661,33.6666667 L53.2924661,33.6666667 C52.0483328,33.6666667 51.4264994,33.6666667 50.9040661,33.5448667 C49.4405994,33.2039667 48.2307661,32.1791667 47.6537328,30.7915567 C47.4479328,30.2962833 47.3478328,29.69664 47.1480994,28.49733 L47.1480994,28.49733 C47.0920994,28.1617733 47.0640994,27.9940067 47.0323661,27.94986 C46.9392661,27.8202433 46.7465328,27.8202433 46.6534328,27.94986 C46.6216994,27.9940067 46.5936994,28.1617733 46.5376994,28.49733 L46.3475328,29.63889 C46.3274661,29.75992 46.3171994,29.8204233 46.3071661,29.8734367 C45.8953328,32.0345 44.0302994,33.6146333 41.8308994,33.6655 C41.7769994,33.6666667 41.7156328,33.6666667 41.5928994,33.6666667 L41.5928994,33.6666667 C41.4701661,33.6666667 41.4087994,33.6666667 41.3548994,33.6655 C39.1554994,33.6146333 37.2904661,32.0345 36.8786328,29.8734367 C36.8685994,29.8204233 36.8583328,29.75992 36.8382661,29.63889 L36.6480994,28.49733 C36.5920994,28.1617733 36.5640994,27.9940067 36.5323661,27.94986 C36.4392661,27.8202433 36.2465328,27.8202433 36.1534328,27.94986 C36.1216994,27.9940067 36.0936994,28.1617733 36.0376994,28.49733 L35.8475328,29.63889 C35.8274661,29.75992 35.8171994,29.8204233 35.8071661,29.8734367 C35.3953328,32.0345 33.5302994,33.6146333 31.3308761,33.6655 C31.2769294,33.6666667 31.2155861,33.6666667 31.0928994,33.6666667 L31.0928994,33.6666667 C30.9702128,33.6666667 30.9088694,33.6666667 30.8549228,33.6655 C28.6555228,33.6146333 26.7903728,32.0345 26.3786328,29.8734367 C26.3685294,29.8204233 26.3584494,29.75992 26.3382661,29.63889 L26.1480061,28.49733 C26.0920761,28.1617733 26.0641228,27.9940067 26.0324128,27.94986 C25.9393128,27.8202433 25.7464861,27.8202433 25.6533861,27.94986 C25.6216761,27.9940067 25.5937228,28.1617733 25.5377928,28.49733 L25.5377928,28.49733 C25.3378961,29.69664 25.2379594,30.2962833 25.0320428,30.7915567 C24.4551261,32.1791667 23.2453161,33.2039667 21.7817561,33.5448667 C21.2593694,33.6666667 20.6373494,33.6666667 19.3933561,33.6666667 L19.3933561,33.6666667 C18.4400961,33.6666667 17.9634428,33.6666667 17.6133728,33.5535 C16.7056361,33.2599667 16.0680528,32.4433 16.0033961,31.4915333 C15.9784761,31.12436 16.0914561,30.6724167 16.3174161,29.7685533 L19.1258628,18.5348367 Z" id="Path" stroke="#FFFFFF" stroke-width="4.5" fill="#BBF7D0"></path>
            </g>
            <path d="M88.16,33.288 C89.792,33.288 91.268,32.988 92.588,32.388 C93.908,31.788 95.006,30.96 95.882,29.904 C96.758,28.848 97.364,27.66 97.7,26.34 L97.7,26.34 L91.148,26.34 C90.548,27.636 89.48,28.284 87.944,28.284 C86.912,28.284 86.042,27.954 85.334,27.294 C84.626,26.634 84.224,25.68 84.128,24.432 L84.128,24.432 L98.06,24.432 C98.132,23.808 98.168,23.208 98.168,22.632 C98.168,20.616 97.742,18.852 96.89,17.34 C96.038,15.828 94.856,14.664 93.344,13.848 C91.832,13.032 90.104,12.624 88.16,12.624 C86.168,12.624 84.404,13.044 82.868,13.884 C81.332,14.724 80.138,15.924 79.286,17.484 C78.434,19.044 78.008,20.868 78.008,22.956 C78.008,25.044 78.44,26.868 79.304,28.428 C80.168,29.988 81.368,31.188 82.904,32.028 C84.44,32.868 86.192,33.288 88.16,33.288 Z M91.868,21.012 L84.164,21.012 C84.332,19.908 84.77,19.056 85.478,18.456 C86.186,17.856 87.056,17.556 88.088,17.556 C89.168,17.556 90.068,17.868 90.788,18.492 C91.508,19.116 91.868,19.956 91.868,21.012 L91.868,21.012 Z M108.656857,33.288 C111.152857,33.288 113.252857,32.616 114.956857,31.272 C116.660857,29.928 117.776857,28.08 118.304857,25.728 L118.304857,25.728 L111.752857,25.728 C111.200857,27.264 110.132857,28.032 108.548857,28.032 C107.420857,28.032 106.520857,27.594 105.848857,26.718 C105.176857,25.842 104.840857,24.588 104.840857,22.956 C104.840857,21.324 105.176857,20.07 105.848857,19.194 C106.520857,18.318 107.420857,17.88 108.548857,17.88 C110.132857,17.88 111.200857,18.648 111.752857,20.184 L111.752857,20.184 L118.304857,20.184 C117.776857,17.784 116.666857,15.924 114.974857,14.604 C113.282857,13.284 111.176857,12.624 108.656857,12.624 C106.688857,12.624 104.942857,13.044 103.418857,13.884 C101.894857,14.724 100.706857,15.924 99.8548571,17.484 C99.0028571,19.044 98.5768571,20.868 98.5768571,22.956 C98.5768571,25.044 99.0028571,26.868 99.8548571,28.428 C100.706857,29.988 101.894857,31.188 103.418857,32.028 C104.942857,32.868 106.688857,33.288 108.656857,33.288 Z M129.117714,33.288 C131.085714,33.288 132.867714,32.868 134.463714,32.028 C136.059714,31.188 137.319714,29.982 138.243714,28.41 C139.167714,26.838 139.629714,25.02 139.629714,22.956 C139.629714,20.892 139.173714,19.074 138.261714,17.502 C137.349714,15.93 136.101714,14.724 134.517714,13.884 C132.933714,13.044 131.157714,12.624 129.189714,12.624 C127.221714,12.624 125.445714,13.044 123.861714,13.884 C122.277714,14.724 121.029714,15.93 120.117714,17.502 C119.205714,19.074 118.749714,20.892 118.749714,22.956 C118.749714,25.044 119.199714,26.868 120.099714,28.428 C120.999714,29.988 122.235714,31.188 123.807714,32.028 C125.379714,32.868 127.149714,33.288 129.117714,33.288 Z M129.117714,27.96 C127.941714,27.96 126.963714,27.528 126.183714,26.664 C125.403714,25.8 125.013714,24.564 125.013714,22.956 C125.013714,21.324 125.409714,20.082 126.201714,19.23 C126.993714,18.378 127.989714,17.952 129.189714,17.952 C130.365714,17.952 131.355714,18.384 132.159714,19.248 C132.963714,20.112 133.365714,21.348 133.365714,22.956 C133.365714,24.564 132.951714,25.8 132.123714,26.664 C131.295714,27.528 130.293714,27.96 129.117714,27.96 Z M147.454571,33 L147.454571,22.092 C147.454571,20.796 147.796571,19.794 148.480571,19.086 C149.164571,18.378 150.106571,18.024 151.306571,18.024 C152.506571,18.024 153.448571,18.378 154.132571,19.086 C154.816571,19.794 155.158571,20.796 155.158571,22.092 L155.158571,22.092 L155.158571,33 L161.278571,33 L161.278571,22.092 C161.278571,20.796 161.620571,19.794 162.304571,19.086 C162.988571,18.378 163.930571,18.024 165.130571,18.024 C166.330571,18.024 167.272571,18.378 167.956571,19.086 C168.640571,19.794 168.982571,20.796 168.982571,22.092 L168.982571,22.092 L168.982571,33 L175.102571,33 L175.102571,21.264 C175.102571,18.576 174.364571,16.476 172.888571,14.964 C171.412571,13.452 169.426571,12.696 166.930571,12.696 C165.514571,12.696 164.206571,13.044 163.006571,13.74 C161.806571,14.436 160.858571,15.336 160.162571,16.44 C159.490571,15.24 158.560571,14.316 157.372571,13.668 C156.184571,13.02 154.834571,12.696 153.322571,12.696 C152.050571,12.696 150.910571,12.942 149.902571,13.434 C148.894571,13.926 148.078571,14.592 147.454571,15.432 L147.454571,15.432 L147.454571,12.912 L141.298571,12.912 L141.298571,33 L147.454571,33 Z M183.971429,33 L183.971429,22.092 C183.971429,20.796 184.313429,19.794 184.997429,19.086 C185.681429,18.378 186.623429,18.024 187.823429,18.024 C189.023429,18.024 189.965429,18.378 190.649429,19.086 C191.333429,19.794 191.675429,20.796 191.675429,22.092 L191.675429,22.092 L191.675429,33 L197.795429,33 L197.795429,22.092 C197.795429,20.796 198.137429,19.794 198.821429,19.086 C199.505429,18.378 200.447429,18.024 201.647429,18.024 C202.847429,18.024 203.789429,18.378 204.473429,19.086 C205.157429,19.794 205.499429,20.796 205.499429,22.092 L205.499429,22.092 L205.499429,33 L211.619429,33 L211.619429,21.264 C211.619429,18.576 210.881429,16.476 209.405429,14.964 C207.929429,13.452 205.943429,12.696 203.447429,12.696 C202.031429,12.696 200.723429,13.044 199.523429,13.74 C198.323429,14.436 197.375429,15.336 196.679429,16.44 C196.007429,15.24 195.077429,14.316 193.889429,13.668 C192.701429,13.02 191.351429,12.696 189.839429,12.696 C188.567429,12.696 187.427429,12.942 186.419429,13.434 C185.411429,13.926 184.595429,14.592 183.971429,15.432 L183.971429,15.432 L183.971429,12.912 L177.815429,12.912 L177.815429,33 L183.971429,33 Z M223.260286,33.288 C224.892286,33.288 226.368286,32.988 227.688286,32.388 C229.008286,31.788 230.106286,30.96 230.982286,29.904 C231.858286,28.848 232.464286,27.66 232.800286,26.34 L232.800286,26.34 L226.248286,26.34 C225.648286,27.636 224.580286,28.284 223.044286,28.284 C222.012286,28.284 221.142286,27.954 220.434286,27.294 C219.726286,26.634 219.324286,25.68 219.228286,24.432 L219.228286,24.432 L233.160286,24.432 C233.232286,23.808 233.268286,23.208 233.268286,22.632 C233.268286,20.616 232.842286,18.852 231.990286,17.34 C231.138286,15.828 229.956286,14.664 228.444286,13.848 C226.932286,13.032 225.204286,12.624 223.260286,12.624 C221.268286,12.624 219.504286,13.044 217.968286,13.884 C216.432286,14.724 215.238286,15.924 214.386286,17.484 C213.534286,19.044 213.108286,20.868 213.108286,22.956 C213.108286,25.044 213.540286,26.868 214.404286,28.428 C215.268286,29.988 216.468286,31.188 218.004286,32.028 C219.540286,32.868 221.292286,33.288 223.260286,33.288 Z M226.968286,21.012 L219.264286,21.012 C219.432286,19.908 219.870286,19.056 220.578286,18.456 C221.286286,17.856 222.156286,17.556 223.188286,17.556 C224.268286,17.556 225.168286,17.868 225.888286,18.492 C226.608286,19.116 226.968286,19.956 226.968286,21.012 L226.968286,21.012 Z M241.057143,33 L241.057143,23.676 C241.057143,22.02 241.441143,20.862 242.209143,20.202 C242.977143,19.542 244.129143,19.212 245.665143,19.212 L245.665143,19.212 L247.357143,19.212 L247.357143,12.696 C246.037143,12.696 244.837143,13.014 243.757143,13.65 C242.677143,14.286 241.777143,15.156 241.057143,16.26 L241.057143,16.26 L241.057143,12.912 L234.901143,12.912 L234.901143,33 L241.057143,33 Z M257.558,33.288 C260.054,33.288 262.154,32.616 263.858,31.272 C265.562,29.928 266.678,28.08 267.206,25.728 L267.206,25.728 L260.654,25.728 C260.102,27.264 259.034,28.032 257.45,28.032 C256.322,28.032 255.422,27.594 254.75,26.718 C254.078,25.842 253.742,24.588 253.742,22.956 C253.742,21.324 254.078,20.07 254.75,19.194 C255.422,18.318 256.322,17.88 257.45,17.88 C259.034,17.88 260.102,18.648 260.654,20.184 L260.654,20.184 L267.206,20.184 C266.678,17.784 265.568,15.924 263.876,14.604 C262.184,13.284 260.078,12.624 257.558,12.624 C255.59,12.624 253.844,13.044 252.32,13.884 C250.796,14.724 249.608,15.924 248.756,17.484 C247.904,19.044 247.478,20.868 247.478,22.956 C247.478,25.044 247.904,26.868 248.756,28.428 C249.608,29.988 250.796,31.188 252.32,32.028 C253.844,32.868 255.59,33.288 257.558,33.288 Z M277.802857,33.288 C279.434857,33.288 280.910857,32.988 282.230857,32.388 C283.550857,31.788 284.648857,30.96 285.524857,29.904 C286.400857,28.848 287.006857,27.66 287.342857,26.34 L287.342857,26.34 L280.790857,26.34 C280.190857,27.636 279.122857,28.284 277.586857,28.284 C276.554857,28.284 275.684857,27.954 274.976857,27.294 C274.268857,26.634 273.866857,25.68 273.770857,24.432 L273.770857,24.432 L287.702857,24.432 C287.774857,23.808 287.810857,23.208 287.810857,22.632 C287.810857,20.616 287.384857,18.852 286.532857,17.34 C285.680857,15.828 284.498857,14.664 282.986857,13.848 C281.474857,13.032 279.746857,12.624 277.802857,12.624 C275.810857,12.624 274.046857,13.044 272.510857,13.884 C270.974857,14.724 269.780857,15.924 268.928857,17.484 C268.076857,19.044 267.650857,20.868 267.650857,22.956 C267.650857,25.044 268.082857,26.868 268.946857,28.428 C269.810857,29.988 271.010857,31.188 272.546857,32.028 C274.082857,32.868 275.834857,33.288 277.802857,33.288 Z M281.510857,21.012 L273.806857,21.012 C273.974857,19.908 274.412857,19.056 275.120857,18.456 C275.828857,17.856 276.698857,17.556 277.730857,17.556 C278.810857,17.556 279.710857,17.868 280.430857,18.492 C281.150857,19.116 281.510857,19.956 281.510857,21.012 L281.510857,21.012 Z M293.115714,17.376 L297.147714,7.728 L290.847714,7.728 L288.975714,17.376 L293.115714,17.376 Z M87.472,66.272 C89.8293333,66.272 91.8126667,65.6373333 93.422,64.368 C95.0313333,63.0986667 96.0853333,61.3533333 96.584,59.132 L96.584,59.132 L90.396,59.132 C89.8746667,60.5826667 88.866,61.308 87.37,61.308 C86.3046667,61.308 85.4546667,60.8943333 84.82,60.067 C84.1853333,59.2396667 83.868,58.0553333 83.868,56.514 C83.868,54.9726667 84.1853333,53.7883333 84.82,52.961 C85.4546667,52.1336667 86.3046667,51.72 87.37,51.72 C88.866,51.72 89.8746667,52.4453333 90.396,53.896 L90.396,53.896 L96.584,53.896 C96.0853333,51.6293333 95.037,49.8726667 93.439,48.626 C91.841,47.3793333 89.852,46.756 87.472,46.756 C85.6133333,46.756 83.9643333,47.1526667 82.525,47.946 C81.0856667,48.7393333 79.9636667,49.8726667 79.159,51.346 C78.3543333,52.8193333 77.952,54.542 77.952,56.514 C77.952,58.486 78.3543333,60.2086667 79.159,61.682 C79.9636667,63.1553333 81.0856667,64.2886667 82.525,65.082 C83.9643333,65.8753333 85.6133333,66.272 87.472,66.272 Z M103.992,66 L103.992,55.698 C103.992,54.4286667 104.320667,53.4426667 104.978,52.74 C105.635333,52.0373333 106.519333,51.686 107.63,51.686 C108.740667,51.686 109.624667,52.0373333 110.282,52.74 C110.939333,53.4426667 111.268,54.4286667 111.268,55.698 L111.268,55.698 L111.268,66 L117.048,66 L117.048,54.916 C117.048,52.4 116.390667,50.4223333 115.076,48.983 C113.761333,47.5436667 112.016,46.824 109.84,46.824 C108.570667,46.824 107.426,47.0733333 106.406,47.572 C105.386,48.0706667 104.581333,48.7393333 103.992,49.578 L103.992,49.578 L103.992,40.84 L98.178,40.84 L98.178,66 L103.992,66 Z M128.026,66.272 C129.567333,66.272 130.961333,65.9886667 132.208,65.422 C133.454667,64.8553333 134.491667,64.0733333 135.319,63.076 C136.146333,62.0786667 136.718667,60.9566667 137.036,59.71 L137.036,59.71 L130.848,59.71 C130.281333,60.934 129.272667,61.546 127.822,61.546 C126.847333,61.546 126.025667,61.2343333 125.357,60.611 C124.688333,59.9876667 124.308667,59.0866667 124.218,57.908 L124.218,57.908 L137.376,57.908 C137.444,57.3186667 137.478,56.752 137.478,56.208 C137.478,54.304 137.075667,52.638 136.271,51.21 C135.466333,49.782 134.35,48.6826667 132.922,47.912 C131.494,47.1413333 129.862,46.756 128.026,46.756 C126.144667,46.756 124.478667,47.1526667 123.028,47.946 C121.577333,48.7393333 120.449667,49.8726667 119.645,51.346 C118.840333,52.8193333 118.438,54.542 118.438,56.514 C118.438,58.486 118.846,60.2086667 119.662,61.682 C120.478,63.1553333 121.611333,64.2886667 123.062,65.082 C124.512667,65.8753333 126.167333,66.272 128.026,66.272 Z M131.528,54.678 L124.252,54.678 C124.410667,53.6353333 124.824333,52.8306667 125.493,52.264 C126.161667,51.6973333 126.983333,51.414 127.958,51.414 C128.978,51.414 129.828,51.7086667 130.508,52.298 C131.188,52.8873333 131.528,53.6806667 131.528,54.678 L131.528,54.678 Z M147.402,66.272 C149.759333,66.272 151.742667,65.6373333 153.352,64.368 C154.961333,63.0986667 156.015333,61.3533333 156.514,59.132 L156.514,59.132 L150.326,59.132 C149.804667,60.5826667 148.796,61.308 147.3,61.308 C146.234667,61.308 145.384667,60.8943333 144.75,60.067 C144.115333,59.2396667 143.798,58.0553333 143.798,56.514 C143.798,54.9726667 144.115333,53.7883333 144.75,52.961 C145.384667,52.1336667 146.234667,51.72 147.3,51.72 C148.796,51.72 149.804667,52.4453333 150.326,53.896 L150.326,53.896 L156.514,53.896 C156.015333,51.6293333 154.967,49.8726667 153.369,48.626 C151.771,47.3793333 149.782,46.756 147.402,46.756 C145.543333,46.756 143.894333,47.1526667 142.455,47.946 C141.015667,48.7393333 139.893667,49.8726667 139.089,51.346 C138.284333,52.8193333 137.882,54.542 137.882,56.514 C137.882,58.486 138.284333,60.2086667 139.089,61.682 C139.893667,63.1553333 141.015667,64.2886667 142.455,65.082 C143.894333,65.8753333 145.543333,66.272 147.402,66.272 Z M163.922,66 L163.922,58.044 L169.702,66 L176.91,66 L168.954,56.548 L176.842,47.028 L169.668,47.028 L163.922,54.746 L163.922,40.84 L158.108,40.84 L158.108,66 L163.922,66 Z M183.434,66 L183.434,40.84 L177.62,40.84 L177.62,66 L183.434,66 Z M189.074,45.056 C190.071333,45.056 190.893,44.7556667 191.539,44.155 C192.185,43.5543333 192.508,42.812 192.508,41.928 C192.508,41.0213333 192.185,40.2676667 191.539,39.667 C190.893,39.0663333 190.071333,38.766 189.074,38.766 C188.054,38.766 187.221,39.0663333 186.575,39.667 C185.929,40.2676667 185.606,41.0213333 185.606,41.928 C185.606,42.812 185.929,43.5543333 186.575,44.155 C187.221,44.7556667 188.054,45.056 189.074,45.056 Z M191.964,66 L191.964,47.028 L186.15,47.028 L186.15,66 L191.964,66 Z M202.398,66.272 C203.939333,66.272 205.293667,66.0226667 206.461,65.524 C207.628333,65.0253333 208.523667,64.3396667 209.147,63.467 C209.770333,62.5943333 210.082,61.6026667 210.082,60.492 C210.059333,59.1773333 209.713667,58.129 209.045,57.347 C208.376333,56.565 207.6,55.9983333 206.716,55.647 C205.832,55.2956667 204.687333,54.9386667 203.282,54.576 C202.058,54.304 201.157,54.032 200.579,53.76 C200.001,53.488 199.712,53.08 199.712,52.536 C199.712,52.0826667 199.893333,51.7256667 200.256,51.465 C200.618667,51.2043333 201.14,51.074 201.82,51.074 C202.613333,51.074 203.253667,51.2666667 203.741,51.652 C204.228333,52.0373333 204.517333,52.5586667 204.608,53.216 L204.608,53.216 L209.98,53.216 C209.776,51.2666667 208.988333,49.7026667 207.617,48.524 C206.245667,47.3453333 204.37,46.756 201.99,46.756 C200.380667,46.756 198.992333,47.0166667 197.825,47.538 C196.657667,48.0593333 195.773667,48.7676667 195.173,49.663 C194.572333,50.5583333 194.272,51.55 194.272,52.638 C194.272,53.93 194.600667,54.9556667 195.258,55.715 C195.915333,56.4743333 196.697333,57.0296667 197.604,57.381 C198.510667,57.7323333 199.644,58.0666667 201.004,58.384 C202.273333,58.7013333 203.191333,58.9903333 203.758,59.251 C204.324667,59.5116667 204.608,59.914 204.608,60.458 C204.608,60.9113333 204.409667,61.2796667 204.013,61.563 C203.616333,61.8463333 203.055333,61.988 202.33,61.988 C201.536667,61.988 200.868,61.784 200.324,61.376 C199.78,60.968 199.474,60.4353333 199.406,59.778 L199.406,59.778 L193.66,59.778 C193.750667,61.002 194.17,62.107 194.918,63.093 C195.666,64.079 196.686,64.8553333 197.978,65.422 C199.27,65.9886667 200.743333,66.272 202.398,66.272 Z M222.726,66 L222.726,61.07 L220.652,61.07 C220.017333,61.07 219.564,60.9453333 219.292,60.696 C219.02,60.4466667 218.884,60.0386667 218.884,59.472 L218.884,59.472 L218.884,51.856 L222.692,51.856 L222.692,47.028 L218.884,47.028 L218.884,42.404 L213.07,42.404 L213.07,47.028 L210.758,47.028 L210.758,51.856 L213.07,51.856 L213.07,59.404 C213.07,61.7386667 213.659333,63.4216667 214.838,64.453 C216.016667,65.4843333 217.66,66 219.768,66 L219.768,66 L222.726,66 Z" id="ecommerce’checklist" fill="#335546" fill-rule="nonzero"></path>
        </g>
    </g>
</svg>