<svg width="470" height="388" viewBox="0 0 470 388" fill="none" xmlns="http://www.w3.org/2000/svg">
<path d="M52.156 353.405L50.882 379.123C50.8391 379.82 50.9354 380.518 51.1653 381.177C51.3952 381.836 51.7541 382.443 52.2211 382.962C52.6881 383.481 53.2538 383.901 53.8851 384.199C54.5165 384.497 55.2008 384.666 55.8982 384.696L106.299 387.324C106.828 387.356 107.359 387.282 107.859 387.107C108.359 386.931 108.82 386.657 109.213 386.301C109.606 385.945 109.924 385.514 110.148 385.033C110.372 384.553 110.498 384.032 110.519 383.502C111.315 368.613 108.687 356.511 93.7183 355.714L52.156 353.405Z" fill="#090909"/>
<path d="M51.68 377.61C50.4857 378.805 52.3966 380.477 53.6705 379.282C57.572 375.381 63.7029 380.079 68.3209 379.043C69.9133 378.645 71.2669 377.69 72.7797 377.053C76.1238 375.62 78.5921 377.849 81.5381 378.964C84.484 380.079 87.2708 379.123 90.9334 378.088C96.3477 376.496 103.195 379.601 108.45 380.875C110.122 381.273 110.6 378.645 109.008 378.247C103.912 376.973 97.542 374.107 92.2074 374.903C89.5002 375.381 86.9524 377.451 84.086 377.053C81.2196 376.655 79.3087 374.425 76.6016 373.948C73.8944 373.47 73.1778 374.027 71.4262 374.744C68.0821 376.257 66.1711 376.814 62.5085 375.938C58.8459 375.062 54.8648 374.425 51.68 377.61Z" fill="white"/>
<path d="M87.4306 355.953C84.5894 357.801 81.9241 359.907 79.4682 362.243C78.3535 363.278 80.0256 365.03 81.1403 363.915C83.4575 361.735 85.9621 359.764 88.625 358.023C89.8989 357.147 88.7046 355.077 87.4306 355.953Z" fill="white"/>
<path d="M94.1169 357.147C91.3717 358.988 88.8587 361.154 86.6324 363.597C85.5972 364.711 87.2693 366.384 88.3044 365.269C90.4017 362.961 92.7829 360.927 95.391 359.217C96.665 358.342 95.4705 356.271 94.1169 357.147Z" fill="white"/>
<path d="M141.334 352.052L141.175 377.77C141.175 379.184 141.737 380.541 142.737 381.542C143.738 382.542 145.095 383.104 146.509 383.104L196.99 383.423C198.06 383.402 199.081 382.968 199.838 382.211C200.595 381.454 201.03 380.433 201.05 379.362C201.13 364.473 197.865 352.529 182.976 352.45L141.334 352.052Z" fill="#090909"/>
<path d="M141.971 376.098C141.861 376.228 141.778 376.379 141.726 376.542C141.675 376.705 141.656 376.876 141.671 377.046C141.686 377.216 141.734 377.382 141.813 377.533C141.891 377.685 141.999 377.819 142.13 377.929C142.261 378.039 142.412 378.122 142.574 378.173C142.737 378.224 142.908 378.243 143.078 378.228C143.249 378.214 143.414 378.166 143.565 378.087C143.717 378.008 143.851 377.9 143.961 377.77C147.783 373.55 154.232 378.008 158.85 376.655C160.443 376.177 161.717 375.062 163.23 374.346C166.574 372.753 169.201 374.824 172.147 375.859C175.093 376.894 178.039 375.62 181.622 374.346C187.036 372.435 194.123 375.222 199.457 376.257C201.129 376.575 201.527 373.868 199.855 373.47C194.76 372.515 188.231 369.887 182.817 371.081C180.109 371.639 177.641 373.948 174.695 373.709C171.749 373.47 169.758 371.241 166.972 370.922C165.161 370.723 163.336 371.144 161.796 372.116C158.452 373.868 156.621 374.505 152.799 373.789C148.977 373.072 145.076 372.674 141.971 376.098Z" fill="white"/>
<path d="M176.686 352.928C173.924 354.87 171.363 357.084 169.042 359.536C168.905 359.639 168.792 359.77 168.71 359.92C168.628 360.07 168.58 360.237 168.567 360.407C168.555 360.578 168.58 360.749 168.64 360.909C168.7 361.07 168.793 361.215 168.914 361.336C169.035 361.457 169.181 361.551 169.341 361.611C169.501 361.671 169.673 361.695 169.843 361.683C170.014 361.671 170.18 361.622 170.33 361.541C170.481 361.459 170.612 361.345 170.714 361.208C172.952 358.945 175.347 356.843 177.88 354.918C179.075 354.042 177.88 351.972 176.686 352.928Z" fill="white"/>
<path d="M183.454 353.804C180.778 355.764 178.346 358.036 176.208 360.572C175.253 361.766 176.925 363.438 177.88 362.244C179.877 359.861 182.149 357.723 184.648 355.874C185.922 354.998 184.728 352.848 183.454 353.804Z" fill="white"/>
<path d="M188.071 271.395C190.858 284.453 195.954 296.635 197.308 310.171C197.932 317.293 198.038 324.451 197.626 331.589C197.387 337.799 197.626 345.125 193.884 349.743C190.142 354.361 185.126 355.157 179.393 356.033C173.66 356.908 168.007 356.909 162.035 357.068C156.064 357.227 150.092 357.466 144.12 357.545C141.652 357.625 139.184 357.625 137.193 355.236C135.203 352.848 135.044 349.583 134.964 346.398C134.884 337.959 135.442 328.723 134.168 321.079C132.894 313.435 132.177 305.712 131.54 298.068C131.316 295.755 131.162 293.442 131.013 291.195L130.983 290.743C130.505 295.361 129.948 300.059 129.072 304.597C127.639 311.763 125.011 318.372 123.021 325.299C121.958 328.7 121.212 332.191 120.791 335.729C120.314 339.232 120.154 342.736 119.04 346C115.536 356.749 105.902 359.775 97.3029 360.253C85.7578 360.81 73.8942 359.456 62.4287 357.625C57.7311 356.908 52.7149 355.714 49.6893 351.096C46.6637 346.478 46.3452 340.507 48.0969 334.615C49.8485 328.723 53.5908 324.582 55.6609 318.531C57.7311 312.48 58.1292 305.632 59.0847 299.263C63.1734 271.506 71.3775 243.905 78.9428 218.454L79.2289 217.491C86.8725 191.773 92.6496 170.205 93.9005 149.19C103.574 149.857 98.2369 153.193 129.426 148.523C139.183 145.103 141.768 142.768 148.523 140.1C158.874 133.332 155.778 136.014 160.865 132.094C161.731 132.346 162.401 130.154 162.866 130.927C163.363 131.28 166.663 127.721 166.953 128.258C169.182 127.86 171.664 122.7 172.54 125.089C178.377 145.437 179.791 165.578 181.065 194.321C182.18 220.119 182.737 246.235 188.071 271.395Z" fill="#80A5AE"/>
<path d="M139.979 49.8876C138.346 49.8594 136.72 49.6728 135.122 49.3303C134.902 49.3069 134.688 49.2376 134.496 49.1268C134.303 49.016 134.136 48.8661 134.005 48.6868C133.874 48.5076 133.781 48.3028 133.734 48.0858C133.687 47.8688 133.685 47.6443 133.73 47.4267C133.775 47.2091 133.864 47.0032 133.993 46.8224C134.122 46.6415 134.288 46.4896 134.479 46.3764C134.67 46.2633 134.882 46.1913 135.103 46.1652C135.324 46.1392 135.547 46.1595 135.759 46.225C142.129 47.5786 148.26 45.8269 151.525 41.7662C156.461 35.4761 153.276 25.2845 147.384 20.0295C141.492 14.7745 132.734 14.1376 125.329 18.1187C124.956 18.2977 124.529 18.3316 124.132 18.2139C123.734 18.0962 123.395 17.8353 123.179 17.4817C122.995 17.0963 122.959 16.6571 123.076 16.2465C123.194 15.836 123.457 15.4823 123.816 15.2522C132.415 10.7138 142.766 11.6692 149.534 17.6409C156.302 23.6125 160.124 35.9539 153.993 43.6772C150.888 47.6582 145.712 49.8876 139.979 49.8876Z" fill="#090909"/>
<path d="M155.426 54.8246C156.62 56.0985 163.707 58.9649 162.433 57.6909C159.327 54.5061 164.901 46.0662 165.697 42.4833C166.493 38.9003 166.812 35.7154 165.936 32.5306C165.06 29.3457 163.706 28.4699 162.194 26.6386C161.099 25.4822 160.187 24.1668 159.487 22.7371C159.132 20.8195 158.946 18.8748 158.929 16.9248C159.009 15.5712 159.168 14.2972 159.168 13.0233C158.929 7.44979 153.435 6.25549 148.579 5.77776C145.553 5.53889 142.925 6.01658 139.9 4.74264C138.148 3.94642 136.715 2.67252 135.043 1.79668C132.623 0.432049 129.85 -0.178017 127.081 0.0449481C121.029 0.68192 114.66 5.14071 111.156 10.0772C109.647 12.1236 108.737 14.5498 108.529 17.084C108.21 21.3039 110.519 25.1258 110.758 29.3457C110.79 30.1982 110.736 31.0516 110.599 31.8936C110.44 32.6102 110.201 33.4064 109.962 34.2026C107.733 39.4576 101.283 40.8112 97.7003 45.7477C94.1173 50.6843 94.3562 55.4615 94.3562 60.8758C93.9138 61.9466 93.9138 63.1491 94.3562 64.2199C94.4358 65.4142 94.4359 66.6086 94.4359 67.6436C94.4359 68.6787 97.3023 69.4749 97.2226 67.6436V66.6085C98.2192 66.8612 99.2748 66.7185 100.169 66.2104H100.248C100.727 66.0135 101.155 65.7105 101.5 65.3244C101.844 64.9382 102.097 64.479 102.239 63.9811C103.354 62.8664 105.424 61.8313 106.459 61.1147C108.382 59.7483 110.436 58.5749 112.59 57.6113C115.854 56.417 119.437 56.417 122.065 54.1876C122.173 54.4081 122.338 54.5951 122.545 54.7285C122.751 54.8619 122.99 54.9366 123.235 54.9448C123.48 54.953 123.723 54.8943 123.938 54.7749C124.153 54.6556 124.331 54.48 124.453 54.2672C127.718 48.7733 126.603 41.4482 126.603 35.3969C126.603 31.2566 126.205 26.559 127.479 22.5779C129.23 16.8451 134.008 16.2081 139.183 15.9693C139.511 15.9555 139.825 15.8294 140.071 15.612C140.318 15.3945 140.482 15.099 140.537 14.7749C141.268 15.1073 142.047 15.3223 142.846 15.4119C143.274 15.7777 143.758 16.0733 144.279 16.2878C145.345 16.5685 146.346 17.0554 147.225 17.721L148.419 18.756H148.499C148.499 18.7771 148.507 18.7973 148.522 18.8123C148.537 18.8272 148.557 18.8356 148.579 18.8356C148.579 18.9152 148.658 18.9949 148.658 19.1541C148.802 19.6906 149.052 20.1927 149.394 20.6304C149.736 21.0681 150.163 21.4326 150.649 21.7021C150.728 22.4187 150.888 23.1352 150.967 23.5333C151.531 26.3374 152.669 28.9942 154.311 31.3362C154.213 31.5906 154.159 31.8599 154.152 32.1325C153.957 32.8946 153.998 33.6979 154.268 34.4367C154.538 35.1756 155.025 35.8156 155.665 36.2727L155.426 36.8302C154.869 37.8652 153.833 38.741 153.276 39.8557C152.719 40.9704 152.559 42.2444 151.843 43.1999C151.126 44.1553 149.375 44.7922 148.26 45.4292C144.358 47.4198 146.429 52.5155 149.852 53.0729C150.886 53.2895 151.88 53.6656 152.799 54.1876C153.378 54.5222 154.04 54.6877 154.709 54.6653L155.426 54.8246Z" fill="#090909"/>
<path d="M127.957 27.4343C124.931 26.24 120.95 26.7177 120.392 30.5397C120.233 32.0525 120.233 33.4858 121.905 34.0432C122.662 34.3472 123.477 34.4764 124.291 34.4213C125.104 34.3661 125.895 34.128 126.603 33.7246C127.171 33.3595 127.608 32.8234 127.851 32.1937C128.095 31.564 128.131 30.8732 127.957 30.2212C127.479 28.7083 125.648 28.151 124.214 28.2306C122.781 28.3102 121.428 29.425 121.746 30.9378C121.835 31.2704 122.005 31.5756 122.241 31.8259C122.478 32.0761 122.773 32.2634 123.1 32.371C123.976 32.6895 124.852 32.371 125.727 32.5303C126.603 32.6895 127.877 30.46 126.364 30.2212C125.694 29.9844 124.964 29.9844 124.294 30.2212H124.055C123.896 30.6193 124.055 30.7785 124.374 30.6193C124.692 30.46 125.011 30.6193 125.25 30.6989C125.488 30.7785 125.727 31.4952 125.25 31.8137C124.589 32.0764 123.858 32.1045 123.179 31.8933C122.542 31.8136 122.702 31.8136 122.702 31.1766C122.719 30.6253 122.914 30.0945 123.259 29.6638C124.214 28.7084 126.285 29.3453 127.32 29.7435C128.355 30.1416 129.39 27.9917 127.957 27.4343Z" fill="white"/>
<path d="M123.976 50.9228C122.782 51.0821 124.136 51.3209 124.613 51.7191C125.271 52.2418 125.963 52.7206 126.684 53.1523C129.054 54.3498 131.613 55.1308 134.248 55.4614C136.423 55.9114 138.662 55.9654 140.857 55.6207C141.892 55.4614 145.554 53.4708 146.271 53.6301L144.599 52.2764C145.714 51.2413 145.953 50.8432 145.156 51.082L144.042 51.3209L142.21 51.7191C139.901 52.1172 140.857 55.6207 143.086 55.1429C145.316 54.6652 149.217 54.4263 148.023 51.3209C147.894 50.9563 147.658 50.6392 147.345 50.4118C147.032 50.1843 146.658 50.0571 146.271 50.047C144.519 49.8081 143.007 51.4005 141.414 51.8783C138.229 52.7541 134.885 52.1968 131.78 51.2413C128.674 50.2859 127.798 49.41 125.808 48.2156C125.019 47.5946 124.018 47.3086 123.021 47.4194C120.791 47.7379 121.747 51.2413 123.976 50.9228Z" fill="#80A5AE"/>
<path d="M126.445 50.1264C124.693 47.1803 122.942 43.5972 119.359 42.7213C115.776 41.8455 109.804 43.438 105.663 44.075C105.483 44.1182 105.317 44.2091 105.184 44.3383C105.051 44.4675 104.954 44.6302 104.906 44.8093C104.857 44.9884 104.857 45.1773 104.906 45.3563C104.956 45.5353 105.052 45.6978 105.186 45.8267C110.361 49.8079 117.925 55.1427 124.694 51.7985C124.853 51.7985 124.932 51.6393 125.012 51.5597C125.092 51.48 127.003 51.0819 126.445 50.1264Z" fill="#80A5AE"/>
<path d="M216.417 55.9388C218.726 53.7094 224.538 49.8079 221.672 45.8268C219.92 43.1993 215.382 44.6325 213.311 45.9861C207.897 49.2506 204.633 54.9037 199.378 58.3274C194.123 61.7512 188.071 64.299 182.339 66.8469C156.382 78.1532 130.107 88.8225 103.752 99.3325C102.319 99.8899 102.956 102.199 104.389 101.641C126.205 92.9627 148.022 84.1247 169.679 74.8886C179.632 70.5891 189.982 66.6877 199.378 61.1142C203.359 58.7255 206.145 55.3814 209.41 52.2761C211.4 50.2856 214.824 46.3046 217.85 46.8619C222.548 47.6581 216.018 52.9927 214.745 54.1871C214.512 54.4088 214.378 54.7137 214.37 55.0348C214.363 55.3558 214.483 55.6667 214.705 55.8989C214.927 56.1312 215.231 56.266 215.552 56.2734C215.873 56.2809 216.184 56.1605 216.417 55.9388Z" fill="#090909"/>
<path d="M70.2316 106.817C64.8174 116.77 63.0657 130.385 70.5501 139.86C79.4677 151.246 97.1436 151.644 110.281 151.724C118.084 151.803 125.33 151.087 132.814 148.698C140.299 146.309 146.429 142.408 152.879 138.506C167.001 129.99 180.687 120.768 193.884 110.878C205.509 102.04 215.7 91.5297 226.847 82.0548C227.962 81.0197 226.29 79.3477 225.095 80.3031C216.257 87.8672 207.977 96.0681 199.139 103.553C188.629 112.55 177.004 120.273 165.539 127.758C154.073 135.242 141.174 144.319 127.081 147.902C119.836 149.653 112.431 149.494 105.026 149.255C97.6215 149.016 89.2612 148.22 82.0953 145.274C66.5691 138.905 64.9766 121.467 72.3018 108.011C73.0184 106.658 70.9482 105.463 70.2316 106.817Z" fill="#090909"/>
<path d="M72.3819 107.693C81.5384 97.422 99.931 92.0874 112.989 97.422C114.343 97.9793 114.979 95.6703 113.626 95.1129C106.141 92.0077 96.6665 92.8835 88.9432 94.7944C85.201 95.7499 82.1753 97.9794 78.7516 99.731C75.682 101.313 72.9292 103.445 70.6303 106.021C69.6748 107.136 71.3468 108.888 72.3819 107.693Z" fill="#090909"/>
<path d="M150.729 153.953C151.446 160.084 149.057 164.862 144.678 169.002C143.201 170.302 142.008 171.891 141.173 173.672C140.337 175.453 139.877 177.386 139.821 179.353C138.865 191.216 139.582 203.239 139.662 215.103C139.741 226.966 137.671 240.184 135.442 252.684L128.913 289.867C128.674 291.38 130.983 292.017 131.222 290.504L137.91 252.605C139.98 240.582 142.05 228.877 142.05 216.695C142.05 204.513 141.413 192.65 142.13 180.627C142.369 177.044 142.926 174.177 145.474 171.47C148.022 168.763 148.579 168.763 149.853 167.011C152.567 163.234 153.735 158.563 153.118 153.953C152.958 152.441 150.57 152.441 150.729 153.953Z" fill="#090909"/>
<path d="M51.2018 338.835C53.909 341.622 57.3329 341.94 60.9956 341.94C66.9674 342.02 73.0188 341.781 78.9906 341.701C80.5034 341.622 80.5034 339.233 78.9906 339.312L65.5341 339.551C61.3937 339.551 56.0588 340.427 52.9535 337.163C51.8388 336.048 50.1667 337.8 51.2018 338.835Z" fill="#090909"/>
<path d="M88.5438 342.896C91.4297 343.437 94.371 343.624 97.3023 343.453C98.8948 343.373 98.8948 340.985 97.3023 341.064C94.5857 341.223 91.8599 341.063 89.1807 340.587C87.6678 340.348 87.0309 342.657 88.5438 342.896Z" fill="#090909"/>
<path d="M161.876 342.179C168.803 337.243 176.765 338.755 184.17 335.809C190.142 333.421 190.62 327.688 189.903 322.034C189.744 320.521 187.355 320.442 187.515 322.034C187.913 325.379 188.47 329.599 185.763 332.147C183.056 334.694 179.791 334.535 176.845 334.933C171.112 335.73 165.459 336.685 160.681 340.109C159.487 340.985 160.602 343.055 161.876 342.179Z" fill="#090909"/>
<path d="M115.775 177.203C111.688 199.815 108.37 222.561 105.822 245.439C105.584 247.031 107.972 246.951 108.211 245.439C110.759 222.826 114.103 200.293 118.084 177.84C118.403 176.327 116.094 175.69 115.775 177.203Z" fill="white"/>
<path d="M102.717 264.07C99.5292 277.053 97.2939 290.253 96.0291 303.562C95.8699 305.075 98.2585 305.075 98.4177 303.562C99.6562 290.464 101.865 277.477 105.026 264.707C105.345 263.194 103.036 262.557 102.717 264.07Z" fill="white"/>
<path d="M160.442 177.521C162.385 220.193 168.925 262.531 179.95 303.801C180.034 304.107 180.237 304.367 180.513 304.524C180.789 304.68 181.117 304.721 181.423 304.637C181.729 304.552 181.989 304.35 182.146 304.073C182.303 303.797 182.343 303.47 182.259 303.164C171.255 262.109 164.741 219.981 162.831 177.521C162.751 176.008 160.363 176.008 160.442 177.521Z" fill="white"/>
<path d="M122.861 52.9933C116.81 54.5061 110.679 56.0986 105.185 59.2834C99.6915 62.4683 95.3919 67.7233 91.3312 72.7395C87.0506 77.9634 83.0888 83.4407 79.4676 89.1415C76.0438 94.5558 71.6646 100.05 69.6741 106.101C69.1963 107.614 71.5054 108.171 71.9831 106.738C73.8144 101.085 77.9547 95.9094 81.1396 90.9728C84.7672 85.2254 88.7286 79.6955 93.0032 74.4115C96.7454 69.7935 100.647 64.7773 105.822 61.6721C110.998 58.5668 117.447 56.8152 123.498 55.3024C123.804 55.2179 124.065 55.0153 124.221 54.739C124.378 54.4628 124.419 54.1356 124.334 53.8294C124.25 53.5232 124.047 53.263 123.771 53.1063C123.495 52.9495 123.167 52.9089 122.861 52.9933Z" fill="#090909"/>
<path d="M177.324 69.2363C174.218 64.6977 168.963 62.946 164.823 59.5222C163.078 57.8454 161.124 56.4003 159.01 55.2225C155.985 53.7096 152.561 53.2319 150.411 50.3655C149.456 49.0915 147.385 50.2858 148.341 51.5598C151.605 55.9391 157.338 56.2576 161.399 59.6814C163.232 61.2988 165.174 62.7885 167.212 64.1403C170.158 65.9717 173.263 67.4845 175.254 70.4306C176.129 71.7046 178.2 70.5103 177.324 69.2363Z" fill="#090909"/>
<path d="M122.144 54.8246C124.273 58.1233 127.104 60.9113 130.435 62.9896C133.766 65.0679 137.514 66.3853 141.413 66.8478C144.28 67.2459 147.385 67.4849 148.977 64.698C150.57 61.9112 150.172 54.6654 150.251 50.4453C150.251 50.1286 150.126 49.8248 149.902 49.6008C149.678 49.3768 149.374 49.251 149.057 49.251C148.74 49.251 148.436 49.3768 148.213 49.6008C147.989 49.8248 147.863 50.1286 147.863 50.4453C147.783 53.7895 148.022 57.2133 147.624 60.5575C147.067 65.4942 142.687 64.9369 138.865 63.9814C132.84 62.5272 127.598 58.824 124.214 53.6303C123.338 52.3563 121.268 53.5507 122.144 54.8246Z" fill="#090909"/>
<path d="M89.3402 86.6737C89.2606 94.7157 102.558 94.7157 103.911 87.3903C104.548 84.0461 101.443 82.2147 98.4968 81.9758C96.8846 81.7961 95.2537 82.0478 93.7707 82.7054C92.2878 83.3629 91.0061 84.4026 90.0568 85.7181C89.181 86.9921 91.2511 88.1068 92.1269 86.9125C92.6381 86.2231 93.2816 85.6426 94.0199 85.2051C94.7583 84.7676 95.5766 84.4818 96.4267 84.3645C97.7007 84.2053 100.408 84.2053 101.284 85.4793C103.911 89.4605 91.6493 93.7602 91.7289 86.6737C91.7289 86.3569 91.6031 86.0531 91.3791 85.8291C91.1551 85.6051 90.8513 85.4793 90.5346 85.4793C90.2178 85.4793 89.914 85.6051 89.69 85.8291C89.466 86.0531 89.3402 86.3569 89.3402 86.6737Z" fill="#CBC7DB"/>
<path d="M100.488 68.4401C101.841 70.6695 106.062 69.9529 108.052 68.9178C109.284 68.275 110.258 67.2276 110.809 65.9515C111.36 64.6755 111.455 63.2487 111.078 61.911C110.993 61.6048 110.791 61.3446 110.515 61.1878C110.238 61.031 109.911 60.9904 109.605 61.0749C109.299 61.1593 109.039 61.362 108.882 61.6382C108.725 61.9145 108.684 62.2417 108.769 62.5479C108.998 63.3457 108.95 64.1979 108.632 64.9646C108.313 65.7313 107.744 66.3672 107.017 66.768C106.346 67.1805 105.575 67.4008 104.788 67.4049C104.39 67.4845 102.797 67.5642 102.558 67.1661C102.389 66.8916 102.118 66.6954 101.804 66.6207C101.491 66.5461 101.16 66.5991 100.886 66.768C100.611 66.9369 100.415 67.208 100.341 67.5216C100.266 67.8351 100.319 68.1655 100.488 68.4401Z" fill="#CBC7DB"/>
<path d="M125.33 73.6154C124.065 73.9193 122.957 74.682 122.221 75.7558C121.486 76.8296 121.175 78.1382 121.349 79.428C121.667 82.2149 124.295 84.285 127.002 84.4443C129.709 84.6035 131.78 82.5333 131.62 79.5872C131.461 76.6411 130.665 72.4211 127.082 72.8192C125.569 72.8988 125.569 75.2875 127.082 75.2079C128.595 75.1283 131.222 83.3295 126.365 81.9759C123.499 81.1001 122.464 76.7208 125.967 75.9246C127.4 75.6061 126.763 73.2969 125.33 73.6154Z" fill="#CBC7DB"/>
<path d="M155.983 75.6061C151.604 74.3321 154.789 67.9622 157.814 67.3252C160.84 66.6882 163.866 70.1917 164.503 73.5359C164.821 75.0488 167.13 74.4117 166.812 72.8989C166.175 69.8732 165.14 67.0067 162.114 65.5735C160.994 65.0565 159.765 64.8157 158.532 64.8711C157.299 64.9265 156.097 65.2766 155.028 65.892C150.967 68.44 149.852 76.3227 155.346 77.9152C156.779 78.3133 157.416 76.0042 155.983 75.6061Z" fill="#CBC7DB"/>
<path d="M343.015 90.7344C343.331 90.7344 343.635 90.6086 343.859 90.3846C344.083 90.1606 344.209 89.8568 344.209 89.5401C344.209 89.2233 344.083 88.9195 343.859 88.6955C343.635 88.4715 343.331 88.3457 343.015 88.3457C342.698 88.3457 342.394 88.4715 342.17 88.6955C341.946 88.9195 341.82 89.2233 341.82 89.5401C341.82 89.8568 341.946 90.1606 342.17 90.3846C342.394 90.6086 342.698 90.7344 343.015 90.7344Z" fill="#CBC7DB"/>
<path d="M467.782 55.9394C463.801 49.3308 456.635 49.1715 449.867 50.764C416.745 58.6465 384.817 70.112 353.048 82.2145C346.996 82.931 339.512 83.2495 337.044 89.8581C334.575 96.4667 340.228 101.164 346.678 101.244C354.958 101.324 363.239 101.085 371.52 101.085C373.749 101.085 377.332 100.766 379.243 102.279C381.154 103.792 380.198 109.843 380.039 112.471C379.237 120.958 377.907 129.388 376.058 137.711C374.466 145.195 370.723 153.874 372.475 161.597C372.765 163.038 373.539 164.337 374.669 165.279C375.798 166.22 377.216 166.747 378.686 166.772C382.269 166.852 385.135 164.623 388.001 162.632C394.769 157.775 401.298 152.6 407.668 147.186C419.691 136.914 432.589 126.643 442.542 114.222C447.418 108.023 451.835 101.477 455.759 94.6354C459.661 88.1064 463.801 81.6571 467.066 74.8096C470.33 67.9622 471.285 61.9906 467.782 55.9394Z" fill="#CBC7DB"/>
<path d="M387.841 100.767C395.89 97.2535 403.616 93.0441 410.932 88.1862C412.206 87.3103 411.012 85.24 409.738 86.1159C402.412 90.9575 394.687 95.1662 386.647 98.6965C385.214 99.3335 386.408 101.404 387.841 100.767Z" fill="#090909"/>
<path d="M420.248 82.6925C427.955 77.6306 435.988 73.0823 444.293 69.0773C451.539 65.5739 459.103 62.7871 465.314 57.4524C466.508 56.497 464.756 54.825 463.641 55.7804C457.192 61.1947 449.15 63.9814 441.746 67.644C433.915 71.4857 426.335 75.8205 419.053 80.6224C417.779 81.4982 418.974 83.5684 420.248 82.6925Z" fill="#090909"/>
<path d="M357.506 108.808C332.481 129.674 305.918 148.625 278.044 165.498C277.77 165.667 277.574 165.938 277.499 166.252C277.424 166.565 277.477 166.896 277.646 167.17C277.815 167.445 278.086 167.641 278.4 167.716C278.713 167.79 279.044 167.737 279.318 167.568C307.31 150.496 334.026 131.416 359.258 110.48C360.452 109.524 358.701 107.852 357.506 108.808Z" fill="#090909"/>
<path d="M355.118 122.742C352.968 126.086 349.226 128.395 346.121 130.784L335.133 139.383L313.715 156.103C312.521 157.059 314.272 158.731 315.466 157.775L338.079 140.179L349.067 131.58C352.013 129.271 355.118 127.121 357.188 123.936C358.064 122.662 355.994 121.468 355.118 122.742Z" fill="#090909"/>
<path d="M308.938 160.482C306.296 161.252 303.852 162.582 301.772 164.384C300.577 165.419 302.329 167.091 303.444 166.056C305.24 164.556 307.328 163.445 309.575 162.791C309.881 162.707 310.141 162.504 310.298 162.228C310.455 161.952 310.495 161.624 310.411 161.318C310.326 161.012 310.124 160.752 309.847 160.595C309.571 160.438 309.244 160.398 308.938 160.482Z" fill="#090909"/>
<path d="M458.625 104.906C453.131 116.133 447.239 127.2 441.188 138.188C440.392 139.462 442.462 140.736 443.258 139.383C449.309 128.395 455.122 117.301 460.695 106.101C461.412 104.747 459.342 103.553 458.625 104.906Z" fill="#090909"/>
<path d="M435.057 151.884C431.713 156.581 428.13 161.279 424.467 165.818C423.511 167.012 425.183 168.684 426.139 167.49C429.961 162.792 433.624 158.015 437.127 153.078C438.083 151.804 436.012 150.61 435.057 151.884Z" fill="#090909"/>
<path d="M317.456 84.842C331.682 80.0647 346.067 75.5528 360.611 71.3064C362.045 70.8286 361.408 68.5196 359.974 68.9973C345.483 73.2173 331.152 77.7557 316.82 82.533C315.386 83.0107 316.023 85.3197 317.456 84.842Z" fill="#090909"/>
<path d="M367.857 69.4751C369.614 68.7086 371.515 68.3284 373.431 68.3604C374.944 68.2808 374.944 65.892 373.431 65.9717C371.089 65.9508 368.773 66.4685 366.663 67.4845C365.309 68.0419 366.504 70.1121 367.857 69.4751Z" fill="#090909"/>
<path d="M382.269 137.711C380.769 142.17 379.546 146.717 378.606 151.326C378.208 153.397 377.173 156.502 379.004 158.094C380.836 159.687 383.702 158.652 385.454 157.617C389.355 155.308 392.7 151.884 396.203 149.097C397.397 148.062 395.646 146.39 394.451 147.345L388.161 152.521C387.128 153.552 385.979 154.46 384.737 155.228C384.394 155.586 383.942 155.819 383.452 155.891C382.961 155.963 382.461 155.87 382.03 155.626C380.199 155.945 379.721 155.228 380.676 153.397C381.583 148.286 382.887 143.255 384.578 138.348C385.056 136.914 382.747 136.277 382.269 137.711Z" fill="white"/>
<path d="M402.253 144.876L404.641 142.726C404.865 142.49 404.99 142.176 404.99 141.85C404.99 141.525 404.865 141.211 404.641 140.975C404.418 140.756 404.118 140.633 403.805 140.633C403.493 140.633 403.193 140.756 402.969 140.975L400.501 143.125C400.352 143.369 400.289 143.656 400.322 143.94C400.356 144.224 400.484 144.488 400.687 144.691C400.889 144.893 401.153 145.021 401.438 145.055C401.722 145.088 402.009 145.026 402.253 144.876Z" fill="white"/>
<path d="M343.731 94.5557H360.93C366.663 94.5557 373.351 93.6798 378.765 95.9888C380.118 96.6258 381.313 94.5556 379.959 93.9187C374.863 91.6893 369.37 92.167 363.955 92.167H343.731C343.415 92.167 343.111 92.2929 342.887 92.5168C342.663 92.7408 342.537 93.0446 342.537 93.3614C342.537 93.6781 342.663 93.9819 342.887 94.2059C343.111 94.4298 343.415 94.5557 343.731 94.5557Z" fill="white"/>
<path d="M386.727 104.747V109.684C386.727 110.001 386.852 110.304 387.076 110.528C387.3 110.752 387.604 110.878 387.921 110.878C388.238 110.878 388.542 110.752 388.766 110.528C388.99 110.304 389.115 110.001 389.115 109.684V104.747C389.115 104.43 388.99 104.127 388.766 103.903C388.542 103.679 388.238 103.553 387.921 103.553C387.604 103.553 387.3 103.679 387.076 103.903C386.852 104.127 386.727 104.43 386.727 104.747Z" fill="white"/>
<path d="M463.323 61.1939C463.291 66.8713 461.927 72.4619 459.342 77.5168C458.625 78.8704 460.695 80.0647 461.412 78.7111C464.186 73.2849 465.658 67.2875 465.712 61.1939C465.712 60.8771 465.586 60.5733 465.362 60.3493C465.138 60.1253 464.834 59.9995 464.517 59.9995C464.201 59.9995 463.897 60.1253 463.673 60.3493C463.449 60.5733 463.323 60.8771 463.323 61.1939Z" fill="white"/>
<path d="M141.572 183.414C112.924 196.937 85.8044 213.486 60.677 232.779C48.3953 242.18 36.6212 252.227 25.4046 262.876C19.6719 268.29 13.7799 273.784 8.60452 279.756C4.78269 284.215 0.244222 290.186 0.00535697 296.317C-0.233508 302.448 7.56942 303.324 12.6652 303.642C22.8183 304.24 33.0057 303.84 43.0807 302.448C44.5935 302.289 44.5935 299.9 43.0807 300.059C35.2763 301.173 27.3944 301.652 19.5126 301.492C15.7102 301.505 11.9098 301.319 8.12681 300.935C5.81779 300.696 3.66802 300.378 2.87181 297.909C2.07559 295.441 3.03105 293.212 4.06613 290.903C7.01213 284.135 12.5856 278.88 17.761 273.705C22.9364 268.529 27.5544 264.07 32.6502 259.373C53.5607 240.243 76.2496 223.153 100.408 208.335C114.112 199.971 128.251 192.343 142.767 185.484C144.12 184.847 142.926 182.777 141.572 183.414Z" fill="#090909"/>
<path d="M197.228 252.365C230.572 238.701 261.553 219.864 289.031 196.551C290.226 195.595 288.554 193.923 287.359 194.879C260.176 217.907 229.548 236.526 196.591 250.056C195.237 250.614 195.794 252.923 197.228 252.365Z" fill="#090909"/>
<path d="M180.428 169.798C206.384 156.183 226.608 134.685 241.338 109.445C242.055 108.091 239.984 106.897 239.268 108.251C224.777 133.093 204.871 154.272 179.154 167.728C177.8 168.445 178.994 170.515 180.428 169.798Z" fill="#090909"/>
<path d="M246.593 47.6585C251.291 49.3306 256.944 51.2416 259.413 55.9394C262.757 62.1501 258.298 68.9977 254.954 74.0936C254.078 75.3676 256.148 76.5619 257.024 75.2879C260.766 69.6346 264.907 62.6278 261.96 55.7005C259.014 48.7732 252.883 47.34 247.23 45.429C245.797 44.8716 245.16 47.1808 246.593 47.6585Z" fill="#090909"/>
<path d="M241.259 35.2378C248.867 35.5206 256.353 37.25 263.314 40.3337C264.748 40.891 265.942 38.8208 264.509 38.2635C257.173 34.9986 249.282 33.1611 241.259 32.8491C239.746 32.7695 239.746 35.1582 241.259 35.2378Z" fill="#090909"/>
<path d="M168.962 72.8984C169.233 80.5937 171.495 88.0871 175.529 94.6463C179.562 101.206 185.228 106.606 191.973 110.321C193.326 111.037 194.521 108.967 193.167 108.25C186.8 104.728 181.449 99.6244 177.628 93.4325C173.806 87.2405 171.645 80.1686 171.351 72.8984C171.351 72.5817 171.225 72.2779 171.001 72.0539C170.777 71.8299 170.473 71.7041 170.156 71.7041C169.839 71.7041 169.536 71.8299 169.312 72.0539C169.088 72.2779 168.962 72.5817 168.962 72.8984Z" fill="#CBC7DB"/>
<path d="M41.2492 75.0493C39.0994 75.0493 38.1438 72.2625 37.7457 69.4756C34.72 69.0775 31.6943 68.2016 31.6943 65.8925C31.6943 63.5835 34.6404 62.7076 37.5865 62.3095C37.905 59.443 38.7809 55.8599 41.2492 55.8599C43.7175 55.8599 44.5934 59.443 44.9119 62.3095C47.858 62.7076 50.8837 63.5835 50.8837 65.8925C50.8837 68.2016 47.858 69.0775 44.8323 69.4756C44.4342 72.2625 43.4787 75.0493 41.2492 75.0493ZM35.9144 65.8925C37.0089 66.1841 38.1287 66.3707 39.2586 66.4499H40.6122L40.7715 67.8034C40.8322 68.7989 40.9922 69.7859 41.2492 70.7496C41.5416 69.7908 41.7285 68.8028 41.8065 67.8034V66.4499H43.1602C44.3153 66.3621 45.4607 66.1757 46.584 65.8925C45.4966 65.569 44.3733 65.3817 43.2398 65.3351H41.8862V63.9019C41.7799 62.6126 41.5668 61.3342 41.2492 60.08C40.9262 61.3301 40.7394 62.6116 40.6919 63.9019V65.3351H39.2586C38.1243 65.3739 37 65.5613 35.9144 65.8925Z" fill="#090909"/>
<path d="M21.5034 46.9419C17.6019 46.9419 16.1688 39.6964 15.6115 35.3968C11.0731 34.9987 3.03125 33.5655 3.03125 29.4252C3.03125 25.2849 10.9138 23.9313 15.4522 23.4536C15.8503 19.0744 17.1242 10.0771 21.5034 10.0771C25.8826 10.0771 27.2362 19.0744 27.5547 23.4536C32.1728 23.9313 39.9757 25.3645 39.9757 29.4252C39.9757 33.4859 32.0135 34.9987 27.3954 35.3968C26.8381 39.6964 25.4049 46.9419 21.5034 46.9419ZM6.29571 29.4252C6.69382 30.0622 9.79912 31.8138 17.2039 32.3712H18.5574L18.7167 33.7248C19.274 40.3334 20.8664 43.2794 21.5034 43.6775C22.1404 44.0756 23.7329 40.3334 24.3699 33.7248V32.3712H25.7234C33.1282 31.8138 36.2335 30.0622 36.7112 29.4252C37.1889 28.7882 33.2078 27.1162 25.8826 26.5589L24.5291 26.3996V25.046C24.0513 17.6412 22.3792 13.7397 21.5034 13.262C20.6276 12.7843 18.9556 17.6412 18.5574 25.046V26.3996L17.1242 26.5589C9.71942 27.1162 6.69382 28.7882 6.29571 29.4252Z" fill="#CBC7DB"/>
<path d="M373.033 220.915C370.883 220.915 369.928 218.129 369.529 215.342C366.504 214.944 363.398 213.988 363.398 211.679C363.398 209.37 366.424 208.494 369.37 208.096C369.689 205.23 370.564 201.646 373.033 201.646C375.501 201.646 376.377 205.23 376.696 208.096C379.642 208.494 382.667 209.45 382.667 211.679C382.667 213.909 379.562 214.944 376.536 215.342C376.138 218.129 375.183 220.915 373.033 220.915ZM367.618 211.679C368.738 211.996 369.884 212.209 371.042 212.316H372.396V213.67C372.49 214.667 372.677 215.653 372.953 216.616C373.196 215.649 373.356 214.664 373.431 213.67L373.59 212.316H374.944C376.102 212.209 377.248 211.996 378.368 211.679C377.267 211.435 376.149 211.275 375.023 211.201L373.59 211.042V209.688C373.549 208.398 373.362 207.115 373.033 205.866C372.703 207.115 372.516 208.398 372.475 209.688V211.042L371.042 211.201C369.89 211.271 368.745 211.431 367.618 211.679Z" fill="#090909"/>
<path d="M235.604 291.937C231.703 291.937 230.269 284.612 229.712 280.392C225.174 279.915 217.132 278.481 217.132 274.421C217.132 270.36 225.014 268.927 229.553 268.449C229.951 263.99 231.225 254.993 235.604 254.993C239.983 254.993 241.337 263.99 241.655 268.449C246.273 268.927 254.076 270.28 254.076 274.421C254.076 278.561 246.114 279.915 241.496 280.392C240.939 284.612 239.506 291.937 235.604 291.937ZM220.396 274.421C220.795 275.058 223.9 276.73 231.305 277.287L232.658 277.446V278.72C233.295 285.409 234.888 288.275 235.524 288.673C236.161 289.071 237.754 285.409 238.391 278.72V277.446L239.744 277.287C247.149 276.73 250.255 275.058 250.732 274.421C251.21 273.784 247.229 272.032 239.904 271.475H238.55V270.042C238.072 262.716 236.4 258.815 235.524 258.258C234.649 257.7 232.977 262.716 232.579 270.042V271.475H231.145C223.82 272.032 220.795 273.704 220.396 274.421Z" fill="#CBC7DB"/>
<path d="M409.818 40.3339C407.668 40.3339 406.712 37.547 406.314 34.7602C403.288 34.4417 400.263 33.4862 400.263 31.1771C400.263 28.868 403.209 27.9922 406.155 27.594C406.473 24.7276 407.349 21.1445 409.818 21.1445C412.286 21.1445 413.162 24.7276 413.48 27.594C416.426 27.9922 419.452 28.9476 419.452 31.1771C419.452 33.4066 416.426 34.4417 413.401 34.7602C413.003 37.547 412.047 40.3339 409.818 40.3339ZM404.483 31.1771C405.568 31.5083 406.693 31.6958 407.827 31.7345H409.181L409.34 33.0881C409.401 34.0836 409.561 35.0706 409.818 36.0343C410.11 35.0754 410.297 34.0875 410.375 33.0881V31.7345H411.729C412.888 31.6865 414.038 31.4993 415.153 31.1771C414.056 30.8926 412.937 30.7061 411.808 30.6198H410.455V29.1865C410.357 27.9223 410.144 26.6696 409.818 25.4442C409.487 26.6657 409.3 27.9216 409.26 29.1865V30.6198H407.907C406.75 30.6939 405.603 30.8805 404.483 31.1771Z" fill="#090909"/>
<path d="M201.05 315.027H297.71C298.027 315.027 298.331 314.901 298.555 314.678C298.779 314.454 298.905 314.15 298.905 313.833C298.905 313.516 298.779 313.212 298.555 312.988C298.331 312.764 298.027 312.639 297.71 312.639H201.05C200.733 312.639 200.429 312.764 200.205 312.988C199.981 313.212 199.855 313.516 199.855 313.833C199.855 314.15 199.981 314.454 200.205 314.678C200.429 314.901 200.733 315.027 201.05 315.027Z" fill="#090909"/>
<path d="M311.485 312.48C321.015 311.618 330.594 311.431 340.15 311.922C341.742 312.002 341.662 309.613 340.15 309.534C330.594 309.043 321.015 309.229 311.485 310.091C309.972 310.25 309.893 312.639 311.485 312.48Z" fill="#090909"/>
<path d="M252.008 330.474C303.709 331.695 355.41 332.226 407.111 332.067C407.427 332.067 407.731 331.941 407.955 331.717C408.179 331.493 408.305 331.189 408.305 330.872C408.305 330.555 408.179 330.252 407.955 330.028C407.731 329.804 407.427 329.678 407.111 329.678C355.357 329.784 303.656 329.253 252.008 328.085C251.691 328.085 251.387 328.211 251.163 328.435C250.939 328.659 250.813 328.963 250.813 329.28C250.813 329.597 250.939 329.9 251.163 330.124C251.387 330.348 251.691 330.474 252.008 330.474Z" fill="#090909"/>
<path d="M184.807 115.894C189.107 130.624 199.537 142.169 213.471 148.539C215.462 149.415 220.558 151.724 218.487 155.068C217.373 156.74 214.586 156.581 212.914 156.501C211.242 156.421 207.818 156.023 206.624 158.412C205.429 160.801 207.818 162.632 209.41 164.304C211.003 165.976 213.471 168.444 212.675 170.912C211.879 173.381 206.624 173.062 204.474 171.072L203.041 172.983C205.509 174.177 206.942 176.247 203.598 177.68C201.528 178.556 199.06 177.362 197.786 175.69L196.114 177.282C197.149 177.999 198.821 179.273 198.423 180.706C198.025 182.139 196.034 182.378 194.521 181.024C193.008 179.671 191.257 177.282 189.744 175.451C186.081 170.833 182.737 165.976 180.747 160.402C180.269 158.969 177.96 159.527 178.438 161.04C180.327 166.024 182.957 170.695 186.241 174.894C188.55 177.84 191.257 182.537 194.84 184.209C196.91 185.165 199.936 185.006 200.732 182.458C201.528 179.91 199.856 176.884 197.308 175.212C196.353 174.575 194.999 175.929 195.716 176.884C198.184 180.069 202.722 181.502 206.305 179.193C209.888 176.884 207.738 172.585 204.235 170.912C203.12 170.355 201.767 171.788 202.802 172.823C204.032 173.99 205.553 174.804 207.206 175.182C208.858 175.56 210.582 175.488 212.197 174.973C214.825 174.018 216.815 172.266 215.86 169.479C214.988 167.457 213.776 165.599 212.277 163.985C211.879 163.428 209.968 161.915 209.809 161.358C208.614 157.934 211.64 158.81 212.914 158.89C215.621 159.049 218.965 158.81 220.557 156.262C222.15 153.714 220.717 150.37 218.328 148.539C215.939 146.708 210.127 144.478 206.464 142.01C197.113 135.601 190.274 126.146 187.116 115.257C187.075 115.106 187.003 114.964 186.907 114.839C186.81 114.715 186.69 114.612 186.553 114.534C186.416 114.456 186.266 114.406 186.109 114.387C185.953 114.368 185.795 114.379 185.644 114.421C185.492 114.463 185.35 114.534 185.226 114.631C185.102 114.727 184.998 114.848 184.92 114.984C184.843 115.121 184.793 115.272 184.773 115.428C184.754 115.584 184.766 115.742 184.807 115.894Z" fill="#090909"/>
<path d="M216.337 56.8149C218.339 56.1306 220.433 55.7547 222.548 55.7002C224.778 55.7002 226.609 57.1335 227.963 58.7259C229.316 60.3184 229.714 62.8663 229.396 65.0161C229.333 66.2752 228.858 67.4786 228.042 68.44C226.848 69.5547 225.176 69.7139 224.698 67.803C224.22 65.892 225.096 63.583 222.946 61.9905C220.796 60.398 218.248 61.4331 216.099 61.7516C213.949 62.0701 215.223 64.2199 216.735 64.0607C218.248 63.9014 222.23 63.1848 222.389 66.4494C222.468 67.4845 222.15 68.5196 222.469 69.5548C222.641 70.1283 222.971 70.6417 223.422 71.036C223.872 71.4304 224.425 71.6897 225.016 71.7842C228.52 72.5804 231.147 68.9974 231.705 65.9717C232.262 62.946 231.307 58.2482 228.042 55.541C224.778 52.8338 220.08 53.3115 215.701 54.5058C214.267 54.904 214.904 57.2131 216.337 56.8149Z" fill="#090909"/>
<path d="M208.614 69.6346C208.6 71.9092 208.224 74.1669 207.499 76.3231C207.022 77.7563 209.331 78.3932 209.808 76.96C210.597 74.5982 211.001 72.1248 211.003 69.6346C211.082 68.1218 208.694 68.1218 208.614 69.6346Z" fill="#090909"/>
<path d="M229.713 56.975C231.491 55.9397 233.356 55.0606 235.286 54.3475C238.471 53.392 241.975 54.7456 241.338 58.5675C240.701 62.3895 235.764 64.7782 232.738 66.8484C231.464 67.7243 232.659 69.7945 233.933 68.9186C238.232 65.9725 245.797 62.071 243.488 55.6215C241.179 49.1719 232.977 52.6754 228.439 54.9048C227.085 55.6214 228.279 57.6916 229.713 56.975Z" fill="#090909"/>
<path d="M226.449 82.0557C232.022 79.8262 239.587 78.8708 242.135 72.6601C242.931 70.7491 243.17 68.2011 241.498 66.8475C239.826 65.4939 235.287 66.2105 232.898 67.0067C230.51 67.803 232.102 69.7936 233.535 69.3159C234.744 68.7903 236.04 68.4934 237.357 68.44C238.313 68.44 239.905 68.8382 240.383 69.8733C240.861 70.9084 237.914 74.6507 236.641 75.447C233.456 77.6764 229.395 78.3133 225.812 79.7466C224.379 80.3039 225.016 82.613 226.449 82.0557Z" fill="#090909"/>
</svg>
