<svg width="370" height="378" viewBox="0 0 370 378" fill="none" xmlns="http://www.w3.org/2000/svg">
<rect width="370" height="378" fill="#F5F3F0"/>
<path d="M278.913 358.694L284.731 358.43L284.4 352.745L307.934 352.216L308.265 357.901L309.322 373.767C309.455 375.551 307.868 377.072 305.753 377.138L270.121 377.997C268.601 378.064 267.212 376.94 267.146 375.618C266.551 366.363 268.336 358.959 278.913 358.694Z" fill="#CBC7DB"/>
<path d="M231.581 357.373L237.001 357.174L236.803 351.357L258.684 351.026L258.883 356.844L259.411 373.04C259.43 373.496 259.354 373.952 259.188 374.377C259.022 374.803 258.769 375.189 258.446 375.512C258.123 375.835 257.737 376.088 257.311 376.254C256.886 376.42 256.43 376.496 255.974 376.477L222.921 377.006C222.235 377.008 221.574 376.75 221.071 376.284C220.568 375.818 220.26 375.178 220.21 374.494C219.88 365.041 221.731 357.505 231.581 357.373Z" fill="#CBC7DB"/>
<path d="M221.136 372.049C228.873 370.574 236.797 370.35 244.604 371.387C246.653 371.718 248.835 372.511 250.686 371.586C252.537 370.66 252.074 369.735 252.801 368.347C253.989 366.25 255.854 364.618 258.09 363.719C258.211 363.667 258.342 363.639 258.474 363.638C258.606 363.636 258.738 363.661 258.86 363.71C258.983 363.759 259.095 363.832 259.19 363.924C259.284 364.016 259.36 364.126 259.412 364.248C259.464 364.37 259.492 364.5 259.493 364.632C259.495 364.765 259.47 364.896 259.421 365.019C259.372 365.141 259.299 365.253 259.207 365.348C259.115 365.443 259.005 365.518 258.883 365.57C256.868 366.399 255.239 367.957 254.322 369.933C253.925 370.859 254.057 372.643 253.33 373.437C252.603 374.23 248.438 374.032 246.786 373.767C238.345 372.422 229.737 372.534 221.335 374.098C220.012 374.296 219.814 372.313 221.136 372.049Z" fill="#090909"/>
<path d="M268.798 372.775C272.037 374.163 275.673 373.105 279.044 372.642C282.416 372.18 285.06 371.783 288.101 371.452C292.702 370.922 297.355 371.056 301.917 371.849C302.115 368.478 303.768 365.569 306.809 363.321C307.933 362.528 309.387 364.048 308.263 364.842C305.421 366.891 303.966 369.668 304.165 372.973C304.231 373.766 303.57 374.229 302.644 374.031C296.1 372.444 289.555 373.171 283.011 374.097C278.317 374.692 272.632 376.543 267.938 374.626C267.817 374.569 267.708 374.489 267.617 374.391C267.526 374.292 267.456 374.177 267.41 374.051C267.364 373.925 267.343 373.791 267.349 373.657C267.354 373.523 267.386 373.392 267.443 373.27C267.499 373.149 267.579 373.04 267.677 372.949C267.776 372.858 267.892 372.788 268.017 372.742C268.143 372.696 268.277 372.675 268.411 372.681C268.545 372.686 268.676 372.718 268.798 372.775Z" fill="#090909"/>
<path d="M284.335 359.488C287.574 360.215 290.747 361.141 292.863 363.521C293.722 364.578 292.003 365.834 291.078 364.777C289.293 362.595 286.384 361.934 283.542 361.339C282.154 361.009 282.947 359.158 284.335 359.488Z" fill="#090909"/>
<path d="M273.955 359.025C278.318 359.885 282.681 360.81 285.854 363.917C286.846 364.843 285.061 366.099 284.069 365.107C281.425 362.463 277.524 361.736 273.756 361.008C272.302 360.744 272.5 358.761 273.955 359.025Z" fill="#090909"/>
<path d="M235.349 357.769L244.736 362.066C245.926 362.661 245.067 364.512 243.877 363.917L234.49 359.62C233.3 359.091 234.159 357.24 235.349 357.769Z" fill="#090909"/>
<path d="M229.73 359.158C232.105 359.587 234.308 360.688 236.076 362.331C237.002 363.256 235.746 364.843 234.754 363.917C233.281 362.486 231.419 361.52 229.4 361.141C229.137 361.097 228.902 360.951 228.747 360.734C228.592 360.517 228.529 360.247 228.573 359.984C228.617 359.721 228.764 359.486 228.981 359.331C229.197 359.176 229.467 359.114 229.73 359.158Z" fill="#090909"/>
<path d="M54.4145 350.564L49.5886 350.432V345.077L30.1533 344.945V365.372C30.1533 366.196 30.4807 366.986 31.0633 367.569C31.646 368.151 32.4363 368.479 33.2603 368.479L65.0576 368.677V366.297C64.9915 357.571 63.1405 350.63 54.4145 350.564Z" fill="#090909"/>
<path d="M65.3224 363.322C61.8849 362.661 57.5218 360.876 54.0182 361.537C52.2333 361.868 50.6467 363.256 48.7296 363.057C46.8125 362.859 45.3582 361.405 43.5733 361.14C42.4077 360.994 41.226 361.226 40.2019 361.801C37.9543 362.859 36.7644 363.256 34.2523 362.727C31.7402 362.198 29.1621 361.868 27.1789 363.983C26.3856 364.842 27.7738 365.9 28.501 365.107C30.947 362.462 35.2439 365.371 38.2848 364.644C39.3425 364.38 40.2019 363.652 41.1274 363.256C43.3089 362.264 45.0938 363.652 47.077 364.38C49.0602 365.107 50.9112 364.314 53.291 363.586C56.7946 362.463 61.5543 364.313 65.058 365.041C66.1818 365.305 66.3801 363.586 65.3224 363.322Z" fill="white"/>
<path d="M96.5902 354.596L91.7645 354.464V349.109H72.3291V369.47C72.3289 370.3 72.6541 371.097 73.235 371.69C73.8159 372.284 74.6061 372.626 75.4361 372.643L107.233 372.775V370.395C107.233 361.669 105.316 354.662 96.5902 354.596Z" fill="#090909"/>
<path d="M107.499 367.42C104.061 366.693 99.7641 364.908 96.2604 365.57C94.4094 365.9 92.8229 367.288 90.9058 367.09C88.9887 366.892 87.6004 365.503 85.7495 365.173C84.5851 365.057 83.4124 365.287 82.378 365.834C80.1965 366.892 78.9405 367.288 76.4945 366.759C74.0486 366.231 71.3382 365.966 69.355 368.082C68.5618 368.875 69.95 369.933 70.7433 369.139C73.1892 366.561 77.4861 369.47 80.4609 368.677C81.5186 368.412 82.378 367.751 83.3696 367.288C85.4851 366.363 87.2699 367.685 89.2531 368.412C91.2363 369.139 93.0873 368.346 95.4671 367.619C99.0369 366.495 103.73 368.346 107.3 369.139C108.358 369.338 108.622 367.619 107.499 367.42Z" fill="white"/>
<path d="M120.72 195.214C121.249 191.974 119.927 188.735 116.489 187.743C115.35 187.498 114.167 187.551 113.055 187.899C111.942 188.246 110.939 188.876 110.143 189.727C108.887 189.303 107.544 189.212 106.243 189.462L88.3938 192.503C85.5512 192.966 82.7747 193.561 79.9982 193.891L78.8083 194.024H78.6761C77.5341 193.331 76.2821 192.839 74.9741 192.569C74.8183 191.314 74.3058 190.13 73.4973 189.158C72.6888 188.185 71.6183 187.465 70.4128 187.082C66.9091 186.091 64.1987 188.272 62.9427 191.313C58.9763 201.163 54.7455 210.881 51.1097 220.863C47.4738 230.845 45.755 240.695 44.3006 250.941C42.8463 261.188 41.5903 271.699 38.6155 281.681C35.6407 291.663 31.4099 300.984 28.8978 311.032C26.0552 322.403 24.4026 333.971 22.816 345.54C22.2871 349.176 24.2704 353.473 28.6995 353.208L55.671 351.688C59.9018 356.051 67.9668 354.861 73.8503 354.729L98.1114 354.2C101.813 354.134 106.573 354.795 109.878 353.01C113.184 351.225 114.903 347.589 114.836 343.821C114.77 340.053 113.58 337.078 113.052 333.839C112.523 330.6 112.06 326.435 111.729 322.733C111.068 314.999 110.539 307.33 110.011 299.596C108.887 283.598 108.027 267.6 107.631 251.602C107.642 251.029 107.62 250.455 107.565 249.884C109.68 241.885 111.729 233.886 113.779 225.821C116.357 215.64 119.133 205.592 120.72 195.214ZM44.1023 327.493C43.904 327.691 43.8379 327.691 43.9701 327.559C43.1107 328.617 43.3091 326.964 44.1023 327.493ZM58.8441 238.976H58.5797C58.6458 238.646 58.778 238.249 58.8441 237.918V238.976Z" fill="#80A5AE"/>
<path d="M76.429 121.504C68.7753 127.049 62.6193 134.409 58.514 142.922C56.2664 147.616 46.9454 166.985 56.2003 181.661C62.0177 190.85 72.2642 193.626 79.2715 195.543C95.9965 200.039 111.135 195.676 129.579 190.321C129.579 190.321 140.883 190.056 148.089 183.975C148.87 183.382 149.466 182.58 149.807 181.661C150.468 179.744 149.411 178.62 149.278 175.844C149.146 173.067 149.609 173.993 149.807 171.216C150.006 168.44 150.27 165.531 149.278 164.275C146.766 161.432 139.296 164.804 138.239 162.556C138.137 162.188 138.137 161.8 138.239 161.432C138.767 158.656 139.032 152.905 136.52 150.393C135.198 149.07 132.752 148.409 131.364 149.269C129.975 150.128 129.975 151.384 129.579 154.491C128.587 163.217 128.785 164.275 127.86 165.465C125.546 168.373 119.398 167.117 116.886 166.589C109.614 165.2 98.9052 164.01 83.3702 164.87" fill="white"/>
<path d="M93.5512 198.717C88.6184 198.722 83.7063 198.077 78.9417 196.8C71.8683 194.883 61.159 191.974 55.0772 182.322C50.6481 175.381 47.4749 162.821 57.3248 142.328C61.52 133.629 67.8127 126.109 75.6364 120.447C75.9169 120.236 76.2695 120.146 76.6166 120.195C76.9638 120.245 77.277 120.43 77.4873 120.711C77.6817 120.997 77.7624 121.345 77.7135 121.688C77.6646 122.03 77.4897 122.342 77.2229 122.562C69.7345 127.957 63.7128 135.138 59.7047 143.452C50.3837 162.887 53.2923 174.522 57.3248 180.934C62.8117 189.726 72.5293 192.304 79.6689 194.222C95.9972 198.651 110.673 194.42 129.249 189.065H129.579C129.645 189.065 140.487 188.735 147.23 182.983C147.851 182.575 148.317 181.97 148.552 181.265C148.816 180.604 148.684 180.075 148.42 178.951C148.16 177.979 148.005 176.981 147.957 175.976C147.9 175.155 147.967 174.331 148.155 173.53C148.337 172.771 148.447 171.996 148.486 171.216C148.816 167.845 148.949 165.994 148.288 165.201C147.626 164.407 144.85 164.407 142.867 164.606C140.884 164.804 137.975 165.069 137.049 163.218C136.818 162.628 136.772 161.983 136.917 161.367V161.234C137.446 158.326 137.512 153.368 135.529 151.384C134.537 150.459 132.752 149.996 131.959 150.459C131.166 150.922 131.166 151.979 130.835 154.69C130.505 157.4 130.373 159.185 130.174 160.573C129.844 164.275 129.712 165.201 128.852 166.325C126.076 169.828 119.796 168.572 116.821 168.043H116.556C107.103 166.192 95.9311 165.663 83.3708 166.325C83.1951 166.343 83.0175 166.324 82.8495 166.27C82.6815 166.215 82.5269 166.125 82.3959 166.007C82.2649 165.888 82.1604 165.743 82.0891 165.582C82.0179 165.42 81.9816 165.245 81.9826 165.069C81.9737 164.895 81.9991 164.721 82.0575 164.557C82.1158 164.393 82.2059 164.243 82.3226 164.114C82.4393 163.985 82.5802 163.88 82.7374 163.806C82.8946 163.731 83.0649 163.689 83.2386 163.68C95.9972 163.019 107.434 163.548 117.085 165.465H117.284C119.399 165.862 125.018 166.986 126.737 164.738C127.133 164.275 127.2 163.548 127.596 160.375C127.728 158.965 127.927 156.981 128.191 154.425C128.588 151.318 128.852 149.269 130.571 148.277C132.29 147.286 135.793 148.013 137.38 149.6C140.95 153.169 139.694 160.904 139.495 161.763V161.895C139.495 161.962 139.429 162.028 139.429 162.094C140.462 162.234 141.51 162.212 142.536 162.028C145.181 161.829 148.42 161.499 150.205 163.548C151.989 165.597 151.395 167.448 151.064 171.481C151.027 172.374 150.894 173.261 150.667 174.125C150.514 174.707 150.469 175.312 150.535 175.91C150.582 176.759 150.714 177.6 150.932 178.422C151.196 179.546 151.527 180.736 150.998 182.19C150.566 183.332 149.836 184.336 148.882 185.099C141.809 191.048 131.298 191.71 129.712 191.776C116.953 195.345 105.318 198.717 93.5512 198.717Z" fill="#090909"/>
<path d="M119.464 165.993C119.728 161.233 119.993 156.408 119.266 151.648C118.538 146.888 117.15 143.583 115.299 139.683C111.928 132.345 108.292 124.941 101.813 119.851C100.822 119.057 99.4335 120.446 100.425 121.239C106.441 126.065 109.944 132.874 113.184 139.749C115.167 143.98 116.952 148.144 117.481 152.838C117.844 157.215 117.844 161.616 117.481 165.993C117.415 167.315 119.398 167.315 119.464 165.993Z" fill="#090909"/>
<path d="M104.853 203.807C100.49 218.152 105.845 232.762 105.647 247.305C105.647 247.568 105.751 247.821 105.937 248.007C106.123 248.193 106.375 248.297 106.638 248.297C106.901 248.297 107.153 248.193 107.339 248.007C107.525 247.821 107.63 247.568 107.63 247.305C107.828 232.96 102.473 218.483 106.77 204.336C107.167 203.08 105.25 202.617 104.853 203.807Z" fill="#090909"/>
<path d="M89.3844 340.978C93.8129 340.426 98.2819 340.271 102.738 340.515C103.994 340.581 103.994 338.598 102.738 338.532C98.2819 338.288 93.8129 338.443 89.3844 338.994C88.1284 339.127 88.1284 341.176 89.3844 340.978Z" fill="#090909"/>
<path d="M107.896 340.78H111.4C111.663 340.78 111.915 340.676 112.101 340.49C112.287 340.304 112.391 340.051 112.391 339.788C112.391 339.525 112.287 339.273 112.101 339.087C111.915 338.901 111.663 338.797 111.4 338.797H107.896C107.633 338.797 107.381 338.901 107.195 339.087C107.009 339.273 106.904 339.525 106.904 339.788C106.904 340.051 107.009 340.304 107.195 340.49C107.381 340.676 107.633 340.78 107.896 340.78Z" fill="#090909"/>
<path d="M56.8611 350.233C55.5389 347.06 58.646 344.614 59.9681 342.102C60.8338 340.317 61.3712 338.392 61.5547 336.417C62.2157 330.731 61.9513 324.848 61.5547 319.097C60.6953 307.528 58.646 296.026 57.5221 284.457C55.2745 260.592 56.5306 236.464 56.795 212.599C56.795 212.336 56.6905 212.084 56.5046 211.898C56.3186 211.712 56.0664 211.607 55.8034 211.607C55.5404 211.607 55.2882 211.712 55.1022 211.898C54.9163 212.084 54.8118 212.336 54.8118 212.599C54.4813 237.125 53.2252 261.915 55.7373 286.374C56.9272 298.141 59.0426 309.842 59.7037 321.675C60.0342 327.228 60.6953 333.971 58.9765 339.325C57.5883 343.622 53.093 346.399 55.1423 351.225C55.6712 352.414 57.3238 351.423 56.8611 350.233Z" fill="#090909"/>
<path d="M26.5845 340.647C30.0617 342.048 33.8362 342.548 37.5582 342.102C41.7229 341.573 45.5571 339.92 49.7879 339.92C50.0509 339.92 50.3031 339.816 50.489 339.63C50.675 339.444 50.7795 339.192 50.7795 338.929C50.7795 338.666 50.675 338.413 50.489 338.227C50.3031 338.041 50.0509 337.937 49.7879 337.937C46.2842 337.937 42.9789 339.061 39.5414 339.788C35.3848 340.664 31.0621 340.296 27.1133 338.73C25.9234 338.268 25.4606 340.185 26.5845 340.647Z" fill="#090909"/>
<path d="M92.824 354.662C91.1856 355.818 89.6586 357.123 88.2626 358.562C87.4032 359.488 88.7915 360.876 89.6509 359.951C90.929 358.638 92.3228 357.443 93.8156 356.381C94.8072 355.588 93.8156 353.869 92.824 354.662Z" fill="white"/>
<path d="M96.7897 355.191C95.1888 356.318 93.744 357.651 92.4927 359.157C91.6994 360.149 93.0877 361.537 93.8809 360.545C95.016 359.168 96.3274 357.945 97.7813 356.909C98.7729 356.116 97.7813 354.397 96.7897 355.191Z" fill="white"/>
<path d="M51.3731 352.282C49.5807 353.077 47.9968 354.276 46.7457 355.786C45.9524 356.777 47.3406 358.165 48.1339 357.174C49.2835 355.807 50.7308 354.722 52.3647 354.001C53.5546 353.472 52.4969 351.753 51.3731 352.282Z" fill="white"/>
<path d="M55.8033 352.613C54.3364 353.584 52.9642 354.691 51.7047 355.919C51.5119 356.103 51.4 356.356 51.3938 356.622C51.3876 356.889 51.4876 357.147 51.6717 357.34C51.8558 357.533 52.1089 357.645 52.3755 357.651C52.642 357.657 52.9001 357.557 53.093 357.373C54.2017 356.216 55.4445 355.195 56.7949 354.332C57.0229 354.201 57.1892 353.984 57.2574 353.73C57.3256 353.476 57.29 353.205 57.1585 352.977C57.027 352.749 56.8104 352.583 56.5562 352.514C56.3021 352.446 56.0313 352.482 55.8033 352.613Z" fill="white"/>
<path d="M119.53 151.715C130.438 141.336 136.057 127.255 140.156 113.042C142.469 105.044 144.849 96.9125 146.237 88.7153C147.626 80.5181 147.229 71.7259 148.948 63.3964C149.212 62.1404 147.295 61.6116 147.031 62.8676C145.444 70.6021 145.709 78.4687 144.585 86.2693C143.461 94.0699 141.081 102.267 138.9 110.134C134.867 124.809 129.446 139.617 118.142 150.327C117.217 151.186 118.605 152.574 119.53 151.715Z" fill="#090909"/>
<path d="M102.409 109.472C111.597 105.704 116.093 94.9949 120.323 86.7977C126.868 74.1713 130.372 60.2889 134.602 46.8032C134.999 45.5472 133.082 45.0183 132.685 46.2743C128.785 58.7685 125.678 71.9237 119.729 83.6246C115.63 91.7557 110.936 103.853 101.88 107.555C100.69 108.018 101.219 109.935 102.409 109.472Z" fill="#090909"/>
<path d="M84.163 164.672C83.3036 161.565 82.7747 157.929 80.9237 155.285C80.1966 154.293 78.4778 155.285 79.205 156.343C80.9238 158.789 81.4526 162.292 82.2459 165.201C82.5764 166.391 84.4935 165.862 84.163 164.672Z" fill="#090909"/>
<path d="M54.2169 174.191C57.1917 170.423 62.348 168.11 66.5788 166.126C71.4009 163.913 76.4568 162.25 81.6511 161.168C82.9072 160.838 82.3783 158.987 81.1223 159.251C75.7717 160.399 70.5624 162.128 65.5872 164.408C61.1581 166.457 55.9357 168.837 52.8287 172.737C52.0354 173.729 53.4236 175.183 54.2169 174.191Z" fill="#090909"/>
<path d="M111.796 101.474C117.018 105.374 120.258 111.852 122.836 117.67C125.455 123.754 127.363 130.12 128.521 136.642C128.719 137.898 130.636 137.369 130.438 136.113C129.198 129.033 127.043 122.145 124.026 115.62C121.315 109.737 118.076 103.655 112.788 99.7548C111.73 99.0276 110.738 100.746 111.796 101.474Z" fill="#090909"/>
<path d="M59.7037 151.715C58.7782 154.293 58.9104 157.466 62.2157 157.863C65.521 158.259 67.967 158.193 68.9586 155.219C69.309 154.003 69.2233 152.703 68.7162 151.544C68.2092 150.385 67.3127 149.44 66.1821 148.872C63.4717 147.286 61.4224 149.203 60.1003 151.517C59.4392 152.574 61.158 153.566 61.7529 152.508C62.3479 151.45 63.6039 149.533 65.3888 150.657C66.002 151.013 66.4977 151.541 66.8148 152.175C67.132 152.81 67.2567 153.523 67.1737 154.227C66.7771 156.144 65.1244 155.946 63.6039 155.946C62.0835 155.946 61.5546 156.078 61.158 155.02C60.7613 153.962 61.2902 153.037 61.6207 152.244C61.9513 151.45 60.1003 150.525 59.7037 151.715Z" fill="#CBC7DB"/>
<path d="M103.334 146.624C101.351 147.417 101.153 150.128 101.682 151.913C102.211 153.698 105.384 154.425 107.367 153.896C109.35 153.367 110.408 150.789 109.813 148.674C109.218 146.558 106.508 145.897 104.194 146.228C102.938 146.36 103.467 148.277 104.723 148.145C105.979 148.012 107.433 147.814 107.896 149.202C108.358 150.591 107.962 151.781 106.64 152.045C105.318 152.309 103.995 152.309 103.599 151.186C103.202 150.062 103.268 148.806 103.797 148.541C104.326 148.277 104.524 146.161 103.334 146.624Z" fill="#CBC7DB"/>
<path d="M84.0977 130.958C81.7178 132.015 80.594 134.792 80.7263 137.304C80.8585 139.816 83.701 141.733 86.4114 141.931C89.1218 142.13 90.7084 139.948 90.9728 137.172C91.2372 134.395 87.998 132.015 85.3537 131.024C84.1638 130.561 83.635 132.478 84.8249 132.941C86.0148 133.404 88.8574 134.726 88.9896 136.577C89.0231 137.067 88.9584 137.56 88.7995 138.025C88.6406 138.49 88.3906 138.92 88.0641 139.287C87.2708 140.147 86.6098 140.08 85.4859 139.75C84.3621 139.419 82.3789 137.965 82.8417 135.784C82.9231 135.118 83.172 134.484 83.565 133.94C83.9581 133.397 84.4825 132.962 85.0893 132.677C86.2792 132.148 85.2876 130.429 84.0977 130.958Z" fill="#CBC7DB"/>
<path d="M117.878 117.604C116.82 117.67 115.63 117.406 114.639 118.001C114.188 118.283 113.813 118.671 113.548 119.132C113.283 119.594 113.135 120.113 113.118 120.645C112.788 122.76 112.854 125.338 115.234 126.198C117.614 127.057 119.465 125.338 119.861 123.157C120.258 120.975 120.787 117.538 118.341 117.538C117.019 117.472 117.019 119.455 118.341 119.521C117.812 119.455 118.076 120.513 118.076 120.975C118.098 121.529 118.053 122.084 117.944 122.628C117.746 123.818 116.49 125.206 115.366 123.95C114.242 122.694 114.837 121.438 115.102 120.579C115.366 119.719 116.754 119.719 117.878 119.587C119.002 119.455 119.134 117.538 117.878 117.604Z" fill="#CBC7DB"/>
<path d="M89.1215 162.094C89.0554 160.441 90.7742 159.912 92.1624 159.78C93.5506 159.648 93.4845 159.648 94.0134 160.243C94.5422 160.838 94.3439 161.829 94.3439 162.556C94.3439 162.819 94.4484 163.072 94.6343 163.257C94.8203 163.443 95.0725 163.548 95.3355 163.548C95.5985 163.548 95.8507 163.443 96.0367 163.257C96.2227 163.072 96.3271 162.819 96.3271 162.556C96.3271 159.714 95.2694 157.532 92.1624 157.797C89.0554 158.061 87.0722 159.251 87.1383 162.094C87.2044 163.416 89.1876 163.416 89.1215 162.094Z" fill="#CBC7DB"/>
<path d="M82.7762 91.0287C83.9661 87.7233 92.6261 88.9794 94.8737 90.0371C99.1706 92.0203 100.757 96.7138 101.154 101.209C101.55 105.704 101.749 110.001 98.8401 112.778C95.9314 115.554 91.4362 116.942 87.2714 116.876C85.8171 116.876 85.8171 119.19 87.2714 119.19C92.4939 119.256 97.9146 117.405 101.352 113.439C103.071 111.456 103.335 109.34 103.401 106.828C103.468 104.316 103.6 99.953 102.674 96.7138C101.286 91.6897 97.7824 87.7894 92.4939 86.93C88.9241 86.4012 82.1151 86.1368 80.5947 90.3676C80.0658 91.7558 82.3135 92.3508 82.7762 91.0287Z" fill="#090909"/>
<path d="M96.1277 88.3185C91.8969 86.5998 88.3271 85.2776 83.8319 85.5421C82.3114 83.7572 82.7741 79.328 81.9809 77.411C81.1449 75.4408 79.7985 73.7293 78.0806 72.453C76.1428 71.1289 73.926 70.2693 71.6021 69.9409C69.8834 69.6764 67.3052 69.1476 65.6526 70.007C63.9999 70.8664 64.066 71.9902 63.9338 73.3784C63.471 77.0143 62.215 79.3941 58.8435 81.179C55.4721 82.9639 53.6211 83.1622 51.043 84.0877C48.3302 85.1193 45.7003 86.3569 43.1763 87.7897C39.7388 89.7729 35.574 92.5493 35.1774 96.8463C34.7807 101.143 40.532 104.25 40.7964 108.944C40.9287 110.729 40.8625 110.663 39.6726 111.852C38.4827 113.042 38.8132 112.712 38.3505 113.175C37.5303 114.04 36.7788 114.969 36.1029 115.951C34.8541 117.723 34.2477 119.869 34.3841 122.033C34.4878 123.571 35.0913 125.034 36.1029 126.198C37.8217 128.115 41.722 128.313 41.3914 131.684C41.1931 133.866 39.6065 135.519 40.3998 137.832C41.1931 140.146 42.383 140.477 43.9696 141.072C48.9276 143.055 55.0094 141.667 59.3724 138.89C59.545 138.795 59.6828 138.648 59.766 138.47C59.8492 138.292 59.8734 138.092 59.8351 137.899L60.7607 137.304C63.6808 134.882 65.8767 131.703 67.1069 128.115C67.221 128.221 67.356 128.302 67.5033 128.354C67.6506 128.405 67.8069 128.425 67.9623 128.412C68.1178 128.4 68.2689 128.355 68.4062 128.281C68.5434 128.207 68.6638 128.106 68.7595 127.983C69.8833 126.198 71.0733 124.281 71.2055 122.099C71.3377 119.917 69.8834 118.066 69.619 115.885C69.3545 113.703 72.1971 111.852 73.1887 109.407C73.3289 109.064 73.4395 108.71 73.5192 108.349C74.7091 111.059 76.6924 113.175 79.7333 113.968C79.9286 114.028 80.1383 114.021 80.3296 113.95C80.521 113.878 80.6832 113.745 80.7909 113.571C81.0149 113.495 81.2014 113.337 81.312 113.128C81.4226 112.919 81.4491 112.675 81.3859 112.447C80.2891 107.458 80.8942 102.245 83.1047 97.6396C84.1109 95.458 85.6035 93.5358 87.4677 92.0205C89.9798 90.1034 92.8884 90.6323 95.8632 90.3017C96.1262 90.3368 96.3924 90.266 96.6032 90.1048C96.8139 89.9436 96.952 89.7053 96.9871 89.4423C97.0221 89.1793 96.9513 88.9132 96.7901 88.7025C96.629 88.4917 96.3907 88.3536 96.1277 88.3185ZM75.4363 73.1801L76.1635 73.6429C75.898 73.5284 75.6525 73.3722 75.4363 73.1801ZM77.089 109.935C77.1022 110.076 77.1475 110.212 77.2212 110.332L76.8246 109.935H77.089ZM91.368 88.5829H90.5747C90.6408 88.5168 90.6408 88.3846 90.7069 88.2524L91.368 88.5829ZM88.1949 87.7236C87.4418 88.0455 86.7127 88.4211 86.0134 88.8474C85.8762 88.3953 85.6259 87.9858 85.2862 87.6575V87.5253H85.6167C86.4799 87.5255 87.3418 87.5918 88.1949 87.7236Z" fill="#090909"/>
<path d="M77.2226 121.835C78.3215 121.264 79.2818 120.459 80.0356 119.477C80.7895 118.494 81.3186 117.359 81.5856 116.149C82.1805 113.108 80.7923 110.53 79.1396 108.15C78.3463 106.961 76.3631 108.084 77.1564 109.274C77.9497 110.464 79.8007 113.175 79.3379 115.488C79.1833 116.421 78.8088 117.302 78.2455 118.061C77.6822 118.82 76.9463 119.434 76.0987 119.851C74.7766 120.512 75.9665 122.496 77.2226 121.835Z" fill="#090909"/>
<path d="M93.9478 118.199C94.7411 120.711 96.5921 123.355 94.675 125.933C92.7579 128.512 87.9982 126.925 85.7506 125.008C83.5029 123.091 79.9993 120.513 76.099 120.314C75.836 120.314 75.5838 120.419 75.3978 120.605C75.2119 120.791 75.1074 121.043 75.1074 121.306C75.1074 121.569 75.2119 121.821 75.3978 122.007C75.5838 122.193 75.836 122.298 76.099 122.298C82.6436 122.628 86.2133 131.619 93.0223 129.173C94.8072 128.512 96.5921 127.388 97.3192 125.537C98.0464 123.686 96.6581 120.182 95.8649 117.67C95.4682 116.48 93.5512 116.943 93.9478 118.199Z" fill="#090909"/>
<path d="M256.504 100.68C253.401 100.786 250.368 99.7516 247.976 97.7718C243.679 94.0698 243.812 88.6491 243.878 85.3438V85.0132C244.006 80.025 245.904 75.2448 249.232 71.5275C249.337 71.372 249.473 71.2405 249.632 71.1416C249.791 71.0427 249.969 70.9788 250.155 70.954C250.341 70.9292 250.53 70.9441 250.709 70.9978C250.888 71.0515 251.054 71.1427 251.196 71.2654C251.337 71.388 251.451 71.5394 251.53 71.7094C251.609 71.8794 251.65 72.0641 251.652 72.2514C251.654 72.4387 251.616 72.6242 251.541 72.7958C251.466 72.9673 251.355 73.1208 251.216 73.2462C248.306 76.5147 246.644 80.7053 246.522 85.0793V85.4099C246.456 88.3847 246.39 92.8799 249.695 95.7886C253 98.6973 258.421 97.9701 259.413 97.7718C259.753 97.7096 260.105 97.7768 260.398 97.9602C260.692 98.1436 260.906 98.4301 260.999 98.7634C261.062 99.1039 260.994 99.4553 260.811 99.7488C260.627 100.042 260.341 100.257 260.008 100.35C258.855 100.585 257.68 100.696 256.504 100.68Z" fill="#090909"/>
<path d="M235.943 191.643C235.645 191.634 235.359 191.525 235.131 191.333C234.903 191.141 234.746 190.877 234.687 190.585C234.422 189.329 234.092 187.809 233.695 186.09C231.712 177.298 228.671 164.011 227.746 152.839C226.291 136.378 230.721 123.752 234.753 114.629C234.824 114.466 234.928 114.319 235.057 114.197C235.186 114.076 235.338 113.981 235.505 113.919C235.672 113.857 235.849 113.83 236.026 113.838C236.204 113.847 236.378 113.891 236.538 113.968C236.85 114.112 237.094 114.372 237.217 114.693C237.34 115.014 237.334 115.37 237.199 115.687C233.299 124.545 229.002 136.775 230.324 152.64C231.316 163.614 234.29 176.769 236.273 185.495C236.67 187.214 237.001 188.734 237.265 190.057C237.304 190.222 237.308 190.393 237.279 190.56C237.25 190.727 237.187 190.887 237.094 191.029C237.001 191.171 236.881 191.293 236.74 191.387C236.599 191.481 236.44 191.546 236.273 191.577L235.943 191.643Z" fill="#090909"/>
<path d="M227.284 141.336L226.755 141.204C214.658 135.585 192.512 122.297 179.886 96.6479C174.296 85.3004 171.101 72.9244 170.499 60.2893C170.49 60.1157 170.516 59.942 170.574 59.7783C170.632 59.6146 170.723 59.464 170.839 59.3351C170.956 59.2061 171.097 59.1015 171.254 59.027C171.411 58.9525 171.581 58.9097 171.755 58.9011C171.928 58.8924 172.102 58.918 172.266 58.9764C172.429 59.0348 172.58 59.1249 172.709 59.2416C172.838 59.3582 172.943 59.4991 173.017 59.6561C173.092 59.8132 173.134 59.9834 173.143 60.1571C173.697 72.4302 176.804 84.453 182.266 95.458C194.562 120.38 216.112 133.337 227.879 138.824C228.034 138.895 228.173 138.996 228.287 139.122C228.402 139.247 228.489 139.395 228.545 139.556C228.601 139.717 228.623 139.887 228.611 140.057C228.599 140.226 228.552 140.392 228.474 140.543C228.389 140.786 228.226 140.995 228.012 141.138C227.797 141.281 227.542 141.351 227.284 141.336Z" fill="#090909"/>
<path d="M248.769 104.052C244.081 104.078 239.418 103.364 234.952 101.937C225.698 98.8295 219.748 93.0782 210.096 81.3113C200.927 70.1996 192.407 58.5674 184.579 46.4731C184.483 46.3314 184.417 46.1716 184.385 46.0034C184.353 45.8352 184.355 45.6622 184.392 45.495C184.429 45.3279 184.5 45.1701 184.601 45.0313C184.701 44.8926 184.829 44.7758 184.976 44.6882C185.114 44.5891 185.27 44.5188 185.435 44.4816C185.601 44.4445 185.772 44.4413 185.939 44.4722C186.106 44.503 186.265 44.5674 186.406 44.6614C186.547 44.7553 186.668 44.8769 186.761 45.0188C194.551 57.0218 203.026 68.5656 212.146 79.5925C221.467 90.9628 227.152 96.5158 235.812 99.4245C243.414 102.003 251.479 101.342 253.727 101.143C253.912 101.084 254.107 101.065 254.3 101.09C254.493 101.114 254.677 101.181 254.841 101.285C255.005 101.389 255.144 101.528 255.249 101.692C255.353 101.856 255.42 102.041 255.444 102.233C255.469 102.426 255.451 102.622 255.391 102.807C255.332 102.991 255.232 103.161 255.1 103.303C254.968 103.445 254.806 103.556 254.625 103.628C254.445 103.701 254.251 103.733 254.057 103.721C252.302 103.933 250.536 104.043 248.769 104.052Z" fill="#090909"/>
<path d="M257.363 117.075C257.061 117.078 256.768 116.974 256.538 116.779C256.307 116.585 256.154 116.315 256.106 116.017L252.603 99.2258C252.543 98.8763 252.619 98.5172 252.816 98.2222C253.013 97.9272 253.315 97.7186 253.661 97.6393C254.002 97.5813 254.353 97.6596 254.637 97.8574C254.921 98.0552 255.117 98.3566 255.181 98.697L258.685 115.488C258.743 115.83 258.664 116.18 258.467 116.464C258.269 116.749 257.967 116.944 257.627 117.008L257.363 117.075Z" fill="#090909"/>
<path d="M257.363 117.074C257.056 117.096 256.751 117.009 256.501 116.83C256.251 116.65 256.071 116.389 255.993 116.092C255.914 115.794 255.942 115.479 256.072 115.199C256.201 114.92 256.424 114.695 256.702 114.562L278.649 101.87C278.958 101.696 279.322 101.647 279.667 101.733C280.011 101.819 280.309 102.034 280.5 102.333C280.668 102.65 280.707 103.02 280.609 103.365C280.51 103.71 280.281 104.003 279.971 104.184L258.024 116.876C257.83 117.01 257.598 117.079 257.363 117.074Z" fill="#090909"/>
<path d="M279.64 102.465C277.921 100.812 278.252 98.2999 278.252 96.0523V89.3095C278.252 89.0465 278.147 88.7943 277.962 88.6083C277.776 88.4223 277.523 88.3179 277.26 88.3179C276.997 88.3179 276.745 88.4223 276.559 88.6083C276.373 88.7943 276.269 89.0465 276.269 89.3095C276.269 92.4826 276.137 95.6557 276.335 98.7627C276.467 100.746 276.864 102.465 278.318 103.919C278.511 104.103 278.769 104.203 279.036 104.197C279.302 104.191 279.555 104.079 279.739 103.886C279.923 103.693 280.023 103.435 280.017 103.168C280.011 102.902 279.899 102.649 279.706 102.465H279.64Z" fill="#090909"/>
<path d="M256.569 122.1L252.933 120.381C252.778 120.301 252.642 120.188 252.536 120.05C252.429 119.912 252.354 119.752 252.316 119.581C252.279 119.411 252.279 119.234 252.317 119.064C252.355 118.894 252.43 118.734 252.536 118.596L256.04 114.431C256.206 114.235 256.435 114.102 256.687 114.054C256.94 114.005 257.201 114.045 257.428 114.167L257.825 114.299C258.027 114.408 258.196 114.57 258.312 114.768C258.429 114.967 258.489 115.193 258.486 115.423L258.221 121.108C258.205 121.295 258.145 121.476 258.045 121.636C257.945 121.795 257.809 121.929 257.648 122.026C257.487 122.122 257.305 122.18 257.117 122.192C256.93 122.205 256.742 122.173 256.569 122.1Z" fill="#80A5AE"/>
<path d="M250.421 177.43C249.72 177.442 249.035 177.221 248.473 176.802C247.911 176.384 247.503 175.791 247.314 175.116C243.583 163.803 242.742 151.735 244.868 140.014C246.133 133.244 248.382 126.696 251.545 120.578C251.941 119.8 252.629 119.21 253.459 118.937C254.289 118.665 255.193 118.732 255.974 119.124C256.757 119.533 257.348 120.234 257.62 121.074C257.892 121.915 257.823 122.829 257.428 123.619C254.534 129.144 252.483 135.071 251.346 141.204C249.452 151.869 250.224 162.838 253.594 173.133C253.727 173.541 253.778 173.971 253.744 174.399C253.709 174.827 253.59 175.244 253.393 175.625C253.197 176.006 252.926 176.345 252.597 176.62C252.269 176.896 251.888 177.104 251.479 177.232L250.421 177.43Z" fill="#80A5AE"/>
<path d="M248.9 141.534C248.834 147.55 248.305 153.632 249.891 159.515C250.746 162.563 251.761 165.564 252.932 168.506C254.254 171.943 253.792 175.05 253.461 178.62L254.916 177.76L250.685 175.315C249.561 174.72 248.569 176.438 249.627 177.033L253.924 179.479C254.075 179.575 254.25 179.628 254.429 179.632C254.608 179.636 254.785 179.592 254.941 179.504C255.097 179.416 255.226 179.287 255.315 179.131C255.403 178.976 255.448 178.799 255.444 178.62C255.709 175.909 256.304 173.067 255.709 170.423C255.114 167.778 253.461 164.407 252.47 161.366C250.42 154.822 250.817 148.277 250.883 141.534C250.949 140.212 248.966 140.212 248.9 141.534Z" fill="#80A5AE"/>
<path d="M251.942 176.901C252.418 177.399 253.046 177.724 253.727 177.826C253.94 177.893 254.168 177.886 254.376 177.807C254.583 177.727 254.759 177.581 254.873 177.39C254.987 177.199 255.034 176.976 255.006 176.755C254.978 176.535 254.877 176.33 254.719 176.174C253.529 174.719 254.785 171.216 254.322 169.299C253.859 167.382 252.405 163.614 251.414 160.837C251.083 159.978 249.629 159.779 249.496 160.837C248.835 164.737 250.819 168.704 251.81 172.406C252.075 173.662 253.992 173.133 253.661 171.877C252.868 168.704 250.819 164.671 251.414 161.366H249.496C250.752 165.002 252.934 169.034 252.405 172.935C252.207 174.719 252.141 176.108 253.331 177.562L254.256 175.909L253.331 175.447C252.339 174.653 250.951 176.042 251.942 176.901Z" fill="#80A5AE"/>
<path d="M214.857 340.78H226.756C227.019 340.78 227.271 340.676 227.457 340.49C227.643 340.304 227.748 340.051 227.748 339.788C227.748 339.525 227.643 339.273 227.457 339.087C227.271 338.901 227.019 338.797 226.756 338.797H214.857C214.594 338.797 214.342 338.901 214.156 339.087C213.97 339.273 213.865 339.525 213.865 339.788C213.865 340.051 213.97 340.304 214.156 340.49C214.342 340.676 214.594 340.78 214.857 340.78Z" fill="white"/>
<path d="M237.133 341.308H240.042C240.305 341.308 240.557 341.204 240.743 341.018C240.929 340.832 241.033 340.58 241.033 340.317C241.033 340.054 240.929 339.802 240.743 339.616C240.557 339.43 240.305 339.325 240.042 339.325H237.133C236.87 339.325 236.618 339.43 236.432 339.616C236.246 339.802 236.142 340.054 236.142 340.317C236.142 340.58 236.246 340.832 236.432 341.018C236.618 341.204 236.87 341.308 237.133 341.308Z" fill="white"/>
<path d="M277.921 346.266C284.598 345.87 291.407 346.861 298.084 346.002C304.761 345.143 311.9 342.366 318.775 344.812C319.965 345.275 320.494 343.358 319.304 342.961C313.222 340.779 307.074 342.432 300.926 343.556C293.258 344.944 285.59 343.887 277.921 344.283C276.599 344.349 276.599 346.332 277.921 346.266Z" fill="white"/>
<path d="M276.269 129.041H262.783C261.396 129.041 260.271 130.165 260.271 131.553V136.934C260.271 138.321 261.396 139.446 262.783 139.446H276.269C277.657 139.446 278.781 138.321 278.781 136.934V131.553C278.781 130.165 277.657 129.041 276.269 129.041Z" fill="#CBC7DB"/>
<path d="M292.267 169.101C292.201 161.829 291.804 154.492 291.011 147.22C290.879 145.964 288.896 145.964 289.028 147.22C289.821 154.492 290.218 161.829 290.284 169.101C290.35 170.357 292.333 170.357 292.267 169.101Z" fill="#090909"/>
<path d="M285.392 145.236C291.678 148.608 297.124 153.353 301.323 159.119C302.117 160.11 303.836 159.119 303.042 158.061C301.059 155.417 299.208 152.64 296.498 150.525C293.787 148.409 289.953 145.434 286.383 143.517C285.26 142.922 284.268 144.641 285.392 145.236Z" fill="#090909"/>
<path d="M257.692 115.554C259.407 118.079 260.743 120.841 261.659 123.752C261.708 123.949 261.816 124.126 261.97 124.259C262.123 124.392 262.313 124.475 262.515 124.497C262.717 124.518 262.92 124.478 263.098 124.38C263.276 124.282 263.42 124.132 263.51 123.95C265.823 120.116 269.591 117.141 272.897 114.1C276.202 111.059 279.97 107.82 283.54 104.713C284.465 103.92 283.077 102.531 282.086 103.325C278.251 106.696 274.417 110.068 270.583 113.571C266.749 117.075 264.038 119.256 261.791 122.958L263.576 123.223C262.593 120.158 261.192 117.244 259.411 114.563C258.684 113.505 256.965 114.497 257.692 115.554Z" fill="#090909"/>
<path d="M248.503 102.994C248.691 108.278 248.382 113.568 247.578 118.794C247.508 119.048 247.541 119.32 247.672 119.549C247.802 119.778 248.018 119.947 248.272 120.017C248.526 120.087 248.798 120.053 249.027 119.923C249.257 119.793 249.425 119.577 249.495 119.323C249.693 118.662 252.404 117.868 252.999 117.604L257.428 115.488C258.552 114.96 257.56 113.241 256.37 113.77L249.759 116.877C248.702 117.472 247.974 117.67 247.578 118.794L249.495 119.323C250.321 113.921 250.652 108.456 250.487 102.994C250.42 101.738 248.437 101.738 248.503 102.994Z" fill="#090909"/>
<path d="M283.012 98.4327C284.202 96.0529 277.657 95.3918 274.55 91.8221C268.336 84.8148 269.46 83.0299 265.56 79.0635C258.618 72.0562 252.47 75.2954 240.505 66.5032C237.464 64.2556 234.423 61.5452 233.696 57.5127C232.969 53.4802 234.093 50.3071 234.754 50.3071C235.415 50.3071 235.084 51.6293 235.745 52.8192C237.662 56.2567 244.736 56.0584 248.702 56.0584C252.669 56.0584 262.783 56.1906 269.79 58.6365C278.913 61.8758 285.986 70.5357 287.044 79.2618C287.771 85.4097 285.524 92.1526 284.995 93.7391C284.434 95.3441 283.771 96.9118 283.012 98.4327Z" fill="#090909"/>
<path d="M162.697 64.6519L163.094 64.2553C163.644 63.6885 163.952 62.9298 163.953 62.1398C163.96 61.7475 163.887 61.3578 163.74 60.9943C163.592 60.6307 163.372 60.3008 163.094 60.0244C162.527 59.474 161.768 59.1658 160.978 59.165C160.218 59.2117 159.495 59.5146 158.929 60.0244L158.532 60.4211C157.982 60.9878 157.674 61.7465 157.673 62.5365C157.687 63.3238 157.993 64.0778 158.532 64.6519C158.804 64.9369 159.133 65.1609 159.498 65.3091C159.862 65.4573 160.254 65.5262 160.648 65.5113C161.411 65.4754 162.137 65.171 162.697 64.6519Z" fill="#CBC7DB"/>
<path d="M141.544 55.6612C140.618 56.4545 139.891 58.3054 141.147 59.1648C141.441 59.3536 141.774 59.4714 142.122 59.5088C142.469 59.5462 142.82 59.5022 143.147 59.3803C143.474 59.2584 143.768 59.062 144.007 58.8065C144.245 58.5511 144.42 58.2438 144.518 57.9088C145.841 54.0085 139.693 55.1985 141.61 58.1071L142.469 56.6528C142.8 56.5867 143.857 53.4797 144.056 52.8847C144.254 52.2897 144.783 48.72 145.18 48.5878H144.188C145.047 48.9183 144.585 52.3558 144.585 53.083C144.51 54.7159 143.933 56.2859 142.932 57.5783L144.783 58.1071C144.518 55.5951 145.51 53.2152 145.576 50.7032C145.576 49.4472 143.659 49.4472 143.593 50.7032C143.527 51.9592 143.593 54.2069 143.262 54.6035C142.932 55.0001 142.205 55.2645 141.742 55.529C141.279 55.7934 141.676 57.9088 142.734 57.2478C143.491 56.934 144.185 56.4861 144.783 55.9256C145.708 54.8018 145.444 52.0914 145.576 50.7032H143.593C143.527 53.2152 142.535 55.5951 142.8 58.1071C142.792 58.3285 142.858 58.5462 142.989 58.7254C143.119 58.9046 143.305 59.035 143.518 59.0958C143.731 59.1567 143.958 59.1445 144.164 59.0611C144.369 58.9778 144.54 58.8281 144.651 58.636C146.502 55.7934 146.568 53.4136 146.568 50.1082C146.568 48.7861 145.841 45.4808 143.725 47.0673C142.932 47.6623 142.998 49.0505 142.8 49.976C142.485 51.7375 141.882 53.435 141.015 55.0001C140.089 56.7189 139.759 58.7682 142.469 58.636C142.641 58.6214 142.806 58.5651 142.951 58.4722C143.095 58.3792 143.215 58.2523 143.3 58.1025C143.385 57.9527 143.432 57.7846 143.437 57.6126C143.442 57.4406 143.404 57.27 143.329 57.1155C142.667 56.6308 142.535 56.6308 142.932 57.1155C143.923 56.2562 142.535 54.8679 141.544 55.6612Z" fill="white"/>
<path d="M143.791 49.5142C143.924 50.5058 143.263 51.7618 142.932 52.6873L142.007 55.4638L143.924 55.9926L145.708 49.5142C145.779 49.2599 145.745 48.9883 145.615 48.7589C145.485 48.5296 145.269 48.3613 145.014 48.2912C144.76 48.221 144.488 48.2548 144.259 48.385C144.03 48.5151 143.861 48.7311 143.791 48.9853L142.007 55.4638C141.936 55.718 141.97 55.9896 142.1 56.219C142.23 56.4483 142.446 56.6166 142.701 56.6867C142.955 56.7568 143.227 56.7231 143.456 56.5929C143.685 56.4628 143.853 56.2468 143.924 55.9926C144.651 53.8111 146.039 51.2991 145.708 48.9853C145.51 47.7293 143.593 48.2581 143.791 49.5142Z" fill="white"/>
<path d="M185.504 44.2913C184.909 40.391 182.397 36.689 178.233 36.2924C177.483 36.1659 176.714 36.2111 175.985 36.4246L175.787 36.0941C176.448 34.5736 175.72 32.3921 173.539 32.3921H150.203C148.088 32.3921 147.361 34.4414 147.89 35.9619V36.6229C144.849 36.4246 141.808 37.1518 140.023 39.9283C138.238 42.7047 136.056 48.3238 138.304 52.4885C139.604 54.7375 141.387 56.6694 143.525 58.1443C145.663 59.6192 148.102 60.6001 150.666 61.0162C151.529 62.646 152.751 64.0583 154.24 65.1463C155.728 66.2342 157.445 66.9695 159.26 67.2964C159.194 73.5765 159.194 79.8566 159.194 86.1368C158.435 86.2046 157.683 86.3373 156.946 86.5334C154.037 87.3267 154.765 91.4914 157.673 91.6897C160.454 91.8436 163.243 91.733 166.003 91.3592C167.391 91.227 168.647 90.3015 168.647 88.781C168.647 87.2606 167.391 86.0046 166.003 86.2029L164.416 86.3351C164.35 80.055 164.416 73.8409 164.482 67.5608C168.449 66.9659 172.085 64.6521 173.737 60.8179C176.91 59.8924 179.621 57.7109 181.934 55.1989C184.248 52.6868 186.231 48.7204 185.504 44.2913ZM145.113 52.6868C142.667 50.4392 141.808 48.2577 143.13 45.0846C143.791 43.5641 144.254 42.242 146.039 41.8453C146.603 41.7247 147.185 41.7023 147.757 41.7792C147.691 46.0762 147.691 50.7697 148.551 55.0006C147.303 54.3927 146.146 53.614 145.113 52.6868ZM180.348 48.5882C179.819 50.307 178.166 51.7613 176.91 52.9513C176.393 53.4523 175.841 53.9161 175.258 54.3395C175.456 52.819 175.588 51.3647 175.72 49.9103C176.028 47.4092 176.205 44.8938 176.249 42.3742C176.976 41.3165 178.034 40.986 179.29 42.3742C180.546 43.7625 180.943 46.8033 180.348 48.5882Z" fill="#CBC7DB"/>
<path d="M157.806 37.3499H171.226C171.489 37.3499 171.741 37.2454 171.927 37.0595C172.113 36.8735 172.217 36.6213 172.217 36.3583C172.217 36.0953 172.113 35.8431 171.927 35.6571C171.741 35.4712 171.489 35.3667 171.226 35.3667H157.806C157.543 35.3667 157.291 35.4712 157.105 35.6571C156.919 35.8431 156.814 36.0953 156.814 36.3583C156.814 36.6213 156.919 36.8735 157.105 37.0595C157.291 37.2454 157.543 37.3499 157.806 37.3499Z" fill="white"/>
<path d="M168.778 45.0185C168.778 49.9103 169.505 55.0666 167.06 59.4958C166.928 59.7237 166.892 59.9945 166.961 60.2487C167.029 60.5028 167.195 60.7195 167.423 60.851C167.651 60.9824 167.922 61.018 168.176 60.9498C168.43 60.8817 168.647 60.7153 168.778 60.4874C171.423 55.7277 170.762 50.307 170.762 45.0185C170.762 44.7555 170.657 44.5032 170.471 44.3173C170.285 44.1313 170.033 44.0269 169.77 44.0269C169.507 44.0269 169.255 44.1313 169.069 44.3173C168.883 44.5032 168.778 44.7555 168.778 45.0185Z" fill="white"/>
<path d="M165.607 62.9339C165.87 62.9339 166.122 62.8294 166.308 62.6435C166.494 62.4575 166.598 62.2053 166.598 61.9423C166.598 61.6793 166.494 61.4271 166.308 61.2411C166.122 61.0551 165.87 60.9507 165.607 60.9507C165.344 60.9507 165.092 61.0551 164.906 61.2411C164.72 61.4271 164.615 61.6793 164.615 61.9423C164.615 62.2053 164.72 62.4575 164.906 62.6435C165.092 62.8294 165.344 62.9339 165.607 62.9339Z" fill="white"/>
<path d="M150.864 37.2181H151.855C152.118 37.2181 152.37 37.1136 152.556 36.9276C152.742 36.7417 152.847 36.4895 152.847 36.2265C152.847 35.9635 152.742 35.7113 152.556 35.5253C152.37 35.3394 152.118 35.2349 151.855 35.2349H150.864C150.601 35.2349 150.348 35.3394 150.162 35.5253C149.977 35.7113 149.872 35.9635 149.872 36.2265C149.872 36.4895 149.977 36.7417 150.162 36.9276C150.348 37.1136 150.601 37.2181 150.864 37.2181Z" fill="white"/>
<path d="M166.07 87.8561H165.012C164.749 87.8561 164.497 87.9605 164.311 88.1465C164.125 88.3325 164.021 88.5847 164.021 88.8477C164.021 89.1107 164.125 89.3629 164.311 89.5488C164.497 89.7348 164.749 89.8393 165.012 89.8393H166.07C166.599 89.7732 167.128 89.3765 167.061 88.8477C167.071 88.7149 167.052 88.5816 167.006 88.4568C166.96 88.332 166.887 88.2187 166.793 88.1246C166.699 88.0305 166.585 87.9577 166.461 87.9114C166.336 87.865 166.203 87.8462 166.07 87.8561Z" fill="white"/>
<path d="M178.828 39.135C181.34 39.3995 182.398 41.9115 182.794 44.093C183.191 46.2745 184.843 44.8202 184.645 43.5642C184.182 40.3911 182.265 37.4824 178.828 37.1518C177.572 37.0196 177.572 39.0028 178.828 39.135Z" fill="white"/>
<path d="M179.952 45.3495C179.005 45.7199 178.24 46.4454 177.821 47.3715C177.401 48.2977 177.359 49.3512 177.705 50.3075C178.234 51.3509 178.854 52.3463 179.556 53.2823C180.085 54.0756 180.68 55.1333 181.671 55.3977C182.663 55.6621 184.382 53.8772 184.051 52.3568C183.731 51.22 183.311 50.1139 182.795 49.0515C182.332 47.9938 182.068 46.7377 181.01 46.1428C180.779 46.0146 180.509 45.9775 180.252 46.0387C179.995 46.0998 179.77 46.2548 179.622 46.4733C178.101 49.0515 179.688 51.1669 181.076 53.4806C181.473 54.1417 182.729 54.1417 182.861 53.2162C183.014 52.3488 182.955 51.4575 182.69 50.6176C182.426 49.7776 181.963 49.0137 181.341 48.3904C180.481 47.4649 179.093 48.8531 179.952 49.7786C180.346 50.1435 180.642 50.6002 180.815 51.1079C180.988 51.6156 181.032 52.1583 180.944 52.6873L182.795 52.489C181.936 51.0347 180.283 49.2498 181.341 47.531L180.019 47.8616C180.547 48.1921 180.812 49.4481 181.076 50.1092C181.341 50.7702 182.332 52.3568 182.068 53.1501C181.803 53.9434 181.473 52.5551 181.275 52.2246C181.076 51.894 180.68 51.4313 180.415 50.9686C180.151 50.5058 178.63 47.9276 180.481 47.2666C182.332 46.6055 181.142 44.8868 179.952 45.3495Z" fill="white"/>
<path d="M146.435 54.6038C146.595 55.5816 146.931 56.5223 147.426 57.3803C147.889 58.3719 147.955 59.6279 146.501 59.5618C146.236 59.5618 146.303 59.8262 146.369 59.4957C146.434 59.2225 146.571 58.9715 146.765 58.7685C147.096 58.438 147.492 58.2397 147.757 57.9092C147.998 57.5679 148.158 57.1766 148.227 56.7646C148.296 56.3525 148.271 55.9303 148.153 55.5293C147.889 54.2733 145.972 54.8021 146.236 56.0581C146.389 56.5743 146.478 57.1071 146.501 57.6447C146.501 57.9091 146.303 58.5702 146.633 58.5041H147.426L147.162 58.3719L147.625 58.9668V59.4957C148.55 58.2397 148.682 56.4548 148.682 54.9344H146.699C146.831 56.587 147.823 58.0413 148.484 59.4957C149.145 60.95 150.732 59.8262 150.335 58.7685L148.484 54.0088C148.021 52.8189 146.104 53.3478 146.567 54.5377L148.418 59.2974L150.203 58.5041C149.674 57.4464 148.815 56.1243 148.682 54.9344C148.682 54.6714 148.578 54.4191 148.392 54.2332C148.206 54.0472 147.954 53.9428 147.691 53.9428C147.428 53.9428 147.176 54.0472 146.99 54.2332C146.804 54.4191 146.699 54.6714 146.699 54.9344C146.709 55.6919 146.62 56.4474 146.435 57.182C146.369 57.7769 146.104 57.9752 145.906 58.5041C145.822 58.68 145.777 58.8724 145.776 59.0674C145.775 59.2625 145.817 59.4554 145.899 59.6323C145.981 59.8092 146.101 59.9658 146.251 60.0907C146.401 60.2157 146.576 60.306 146.765 60.3551C149.343 60.8839 148.55 56.6531 148.286 55.4632L146.369 55.992C146.567 56.7853 145.443 57.2481 145.046 57.9092C144.636 58.5342 144.45 59.2799 144.518 60.0245C144.716 61.545 146.236 61.7433 147.559 61.4128C148.19 61.2583 148.756 60.9053 149.173 60.4056C149.589 59.9058 149.834 59.2857 149.872 58.6363C150.004 56.9836 148.682 55.6615 148.484 54.0088C148.286 52.3562 146.236 53.3478 146.435 54.6038Z" fill="white"/>
<path d="M143.131 40.655C143.941 40.0348 144.959 39.7507 145.973 39.8617C147.229 39.9279 147.229 37.9447 145.973 37.8786C144.61 37.758 143.248 38.1336 142.139 38.9363C141.921 39.0847 141.766 39.3093 141.705 39.5662C141.643 39.8231 141.681 40.0936 141.809 40.3245C141.945 40.5381 142.158 40.6914 142.404 40.7529C142.65 40.8144 142.91 40.7793 143.131 40.655Z" fill="white"/>
<path d="M186.497 22.8061L194.892 17.8481C195.12 17.7166 195.287 17.5 195.355 17.2458C195.423 16.9917 195.387 16.7209 195.256 16.4929C195.124 16.265 194.908 16.0987 194.654 16.0305C194.399 15.9623 194.129 15.9979 193.901 16.1294L185.505 21.0874C185.277 21.2189 185.111 21.4355 185.043 21.6896C184.974 21.9438 185.01 22.2146 185.142 22.4425C185.273 22.6705 185.49 22.8368 185.744 22.905C185.998 22.9732 186.269 22.9376 186.497 22.8061Z" fill="#090909"/>
<path d="M171.755 20.7581C172.151 19.1054 173.143 17.3867 173.87 15.8001L176.25 10.7099C176.845 9.51998 175.126 8.52838 174.597 9.7183L171.821 15.5357C171.009 17.0322 170.345 18.6041 169.838 20.2293C169.767 20.4835 169.801 20.7552 169.931 20.9845C170.062 21.2139 170.277 21.3821 170.532 21.4522C170.786 21.5224 171.058 21.4886 171.287 21.3585C171.516 21.2283 171.685 21.0123 171.755 20.7581Z" fill="#090909"/>
<path d="M156.617 20.0303C155.947 17.8523 154.967 15.7818 153.708 13.8824C153.047 12.8247 151.328 13.8163 151.99 14.874C153.143 16.6394 154.054 18.5515 154.7 20.5592C154.77 20.8134 154.938 21.0293 155.168 21.1595C155.397 21.2897 155.669 21.3234 155.923 21.2533C156.177 21.1831 156.393 21.0149 156.523 20.7855C156.653 20.5562 156.687 20.2845 156.617 20.0303Z" fill="#090909"/>
<path d="M140.155 24.6579C137.011 22.7416 133.603 21.294 130.041 20.361C129.787 20.2909 129.515 20.3246 129.286 20.4548C129.056 20.585 128.888 20.8009 128.818 21.0551C128.748 21.3094 128.782 21.581 128.912 21.8104C129.042 22.0397 129.258 22.208 129.512 22.2781C132.919 23.1447 136.174 24.5268 139.164 26.3767C140.221 27.0378 141.213 25.319 140.155 24.6579Z" fill="#090909"/>
<path d="M144.386 145.698L145.51 143.98C145.619 143.756 145.646 143.5 145.586 143.258C145.525 143.016 145.381 142.803 145.179 142.657C145.067 142.586 144.942 142.537 144.81 142.515C144.679 142.493 144.545 142.497 144.415 142.528C144.285 142.559 144.163 142.615 144.056 142.694C143.949 142.773 143.859 142.873 143.791 142.988L142.667 144.707C142.595 144.819 142.547 144.944 142.525 145.076C142.502 145.207 142.507 145.341 142.538 145.471C142.569 145.601 142.625 145.723 142.704 145.83C142.783 145.937 142.883 146.027 142.998 146.095C143.236 146.217 143.512 146.244 143.77 146.17C144.028 146.097 144.248 145.928 144.386 145.698Z" fill="#090909"/>
<path d="M147.428 152.376C149.708 150.982 152.15 149.872 154.7 149.07C155.956 148.674 155.427 146.757 154.171 147.153C151.454 148.016 148.856 149.215 146.436 150.723C146.293 150.768 146.162 150.844 146.053 150.947C145.943 151.05 145.859 151.176 145.805 151.317C145.752 151.457 145.731 151.608 145.744 151.757C145.757 151.907 145.804 152.051 145.882 152.18C145.959 152.309 146.064 152.418 146.19 152.5C146.316 152.582 146.458 152.635 146.607 152.653C146.756 152.672 146.907 152.657 147.05 152.609C147.192 152.561 147.321 152.481 147.428 152.376Z" fill="#090909"/>
<path d="M147.163 61.4135C147.031 62.4051 146.899 63.3967 146.7 64.3883C146.502 65.3799 148.353 66.1731 148.617 64.9171C148.853 63.759 149.03 62.5896 149.146 61.4135C149.279 60.0913 147.295 60.0913 147.163 61.4135Z" fill="#090909"/>
<path d="M143.131 47.332C143.253 48.1838 143.138 49.0529 142.8 49.8441C142.271 51.2984 141.742 52.6205 141.147 54.0088L139.957 56.9175C139.627 57.6447 139.363 58.5701 139.891 59.1651C140.243 59.471 140.683 59.6563 141.147 59.6939C142.073 59.8923 143.131 60.0245 143.924 59.4295C144.236 59.183 144.485 58.8658 144.651 58.504C145.645 56.8346 146.234 54.9553 146.37 53.0172" fill="white"/>
<path d="M142.139 47.3322C142.337 50.5053 140.023 53.7445 138.966 56.6532C138.503 58.1737 138.437 59.6941 140.089 60.4213C145.113 62.735 146.964 56.7854 147.361 53.0174C147.493 51.7613 145.51 51.7613 145.378 53.0174C145.246 54.2734 144.915 56.9176 143.791 57.9753C141.874 60.0247 140.75 58.5703 140.883 57.1821C141.05 56.5486 141.318 55.9461 141.676 55.3972C142.668 52.8851 144.32 50.1087 144.122 47.3322C144.056 46.0762 142.073 46.0101 142.139 47.3322Z" fill="#090909"/>
<path d="M143.393 58.7694C143.253 59.2095 143.213 59.6754 143.276 60.133C143.339 60.5906 143.503 61.0285 143.756 61.4148C144.009 61.801 144.345 62.126 144.74 62.3659C145.135 62.6059 145.578 62.7548 146.037 62.8019C146.975 62.8249 147.898 62.5664 148.688 62.0598C149.477 61.5531 150.097 60.8215 150.467 59.9593C150.929 58.7694 149.277 57.7778 148.748 58.9677C148.595 59.3679 148.356 59.7295 148.048 60.0266C147.739 60.3237 147.369 60.549 146.963 60.6864C145.971 61.017 144.98 60.4881 145.31 59.2982C145.641 58.1083 143.658 57.5794 143.393 58.7694Z" fill="#090909"/>
<path d="M178.298 50.968C178.155 50.6719 177.906 50.44 177.6 50.3177C177.294 50.1954 176.954 50.1916 176.646 50.307C175.786 50.5714 175.522 51.563 175.456 52.3562C175.404 53.373 175.592 54.3877 176.006 55.318C176.419 56.2483 177.046 57.0681 177.836 57.7109C178.959 58.6364 181.207 58.9669 181.405 56.9837C181.437 56.5116 181.357 56.0386 181.174 55.6025C180.99 55.1665 180.707 54.7792 180.348 54.4717C179.428 53.5951 178.607 52.6196 177.902 51.563C177.241 50.4391 175.72 51.4307 176.183 52.5546L177.505 55.5294C177.836 56.1904 178.034 57.1159 178.695 57.5126C179.356 57.9092 180.612 56.521 180.612 55.4633C180.612 54.4056 178.563 54.2072 178.629 55.4633C178.672 55.751 178.65 56.0449 178.563 56.3226L179.025 55.7277L178.827 55.8599H179.819C179.488 55.6616 179.092 54.2733 178.959 53.8767L177.902 51.563L176.183 52.5546C176.63 53.2638 177.115 53.948 177.637 54.6039C177.836 54.8022 179.29 56.3887 179.356 56.3887C179.422 56.3887 177.968 54.7361 177.836 54.4717C177.634 54.078 177.5 53.6535 177.439 53.2156C177.373 53.0003 177.373 52.7699 177.439 52.5546C177.637 52.0257 177.505 51.8935 177.042 52.224L176.447 51.7613L176.58 51.9596C177.241 53.0173 178.959 52.0257 178.298 50.968Z" fill="white"/>
<path d="M179.554 46.5394C180.943 48.5226 182.794 49.9108 183.19 52.4229C183.389 53.8772 183.256 55.3316 181.472 54.0095C180.385 53.1517 179.598 51.9713 179.224 50.638C178.761 49.4481 176.844 49.977 177.307 51.1669C178.1 53.4145 181.67 58.8352 184.579 55.7943C185.702 54.6705 185.306 52.489 184.975 51.1669C184.314 48.787 182.662 47.4649 181.207 45.5478C179.753 43.6307 178.761 45.5478 179.554 46.5394Z" fill="#090909"/>
<path d="M180.481 56.2569C180.679 56.8518 180.877 57.6451 180.216 57.9756C179.555 58.3062 178.96 57.9095 178.497 57.5129C177.814 56.5875 177.279 55.5617 176.911 54.472C176.382 53.2821 174.465 53.8109 174.994 55.0008C175.523 56.1908 176.845 59.8266 179.225 60.0249C179.754 60.1195 180.298 60.0782 180.807 59.9048C181.316 59.7313 181.772 59.4315 182.133 59.0333C182.86 58.0417 182.662 56.8518 182.398 55.728C182.328 55.4738 182.159 55.2578 181.93 55.1277C181.701 54.9975 181.429 54.9638 181.175 55.0339C180.92 55.104 180.705 55.2723 180.574 55.5017C180.444 55.731 180.41 56.0027 180.481 56.2569Z" fill="#090909"/>
<path d="M134.471 46.8038C134.669 44.2917 134.074 41.5813 134.669 39.1354C135 37.8794 136.123 35.4996 137.247 37.4166C137.71 38.2099 137.71 39.9287 137.842 40.8542C137.974 41.7796 139.958 41.5813 139.759 40.3253C139.561 39.0693 138.834 32.1942 135 34.8385C131.165 37.4827 132.752 43.1018 132.488 46.8038C132.421 48.0598 134.405 48.0598 134.471 46.8038Z" fill="#090909"/>
<path d="M88.4596 221.721C89.7818 238.909 92.426 255.898 94.8719 272.887L102.606 325.773C102.805 327.029 104.722 326.5 104.524 325.244L96.9874 273.681C94.4753 256.427 91.765 239.107 90.4428 221.721C90.3767 220.465 88.3935 220.465 88.4596 221.721Z" fill="white"/>
<path d="M19.8415 216.764C17.5277 216.764 16.5361 213.062 16.2056 210.219C13.0986 209.888 9 208.963 9 206.451C9 203.939 13.0325 203.013 16.0734 202.683C16.3378 199.708 17.1972 195.081 19.8415 195.081C22.4857 195.081 23.4112 199.708 23.6757 202.683C26.7166 203.013 30.749 203.939 30.749 206.451C30.749 208.963 26.6505 209.888 23.5435 210.219C23.2129 213.062 22.2213 216.764 19.8415 216.764ZM11.9087 206.451C12.6358 206.848 14.4207 207.443 17.4616 207.641L18.5855 207.773L18.7177 208.831C18.7726 210.561 19.1539 212.266 19.8415 213.855C20.2381 213.194 20.767 211.607 21.0314 208.831L21.1636 207.773L22.2874 207.641C25.3283 207.443 27.1132 206.848 27.7743 206.451C27.1132 206.054 25.3283 205.459 22.3535 205.195H21.2297V204.005C21.0314 200.7 20.3703 198.783 19.9076 198.055C19.511 198.783 18.8499 200.7 18.6515 204.005V205.195H17.5277C14.4207 205.459 12.6358 206.054 11.9087 206.451Z" fill="#CBC7DB"/>
<path d="M67.8342 34.9704C63.5373 34.9704 62.083 27.5003 61.5541 22.8068C56.6622 22.2779 50.1838 20.8897 50.1177 16.9233C50.0516 12.8908 56.5961 11.3043 61.5541 10.6432C62.083 6.08183 63.5373 0.0661066 67.3715 0C71.2057 0 72.7922 5.94961 73.4533 10.511C78.4113 10.9737 85.0219 12.3619 85.0881 16.3944C85.1542 20.4269 78.7418 21.9474 73.8499 22.6085C73.4533 27.302 72.1973 34.9043 67.9003 34.9704H67.8342ZM54.8112 16.8572C55.935 17.4521 58.7776 18.3776 63.6034 18.7082H65.4544L65.6527 20.5592C66.0494 25.9138 67.1071 29.0208 67.8342 30.2107C68.4953 29.0208 69.4869 25.9138 69.6852 20.493V18.6421L71.5362 18.5098C76.362 18.0471 79.2046 17.0555 80.3284 16.3944C79.1385 15.7334 76.2959 14.8079 71.404 14.5435L69.553 14.4112L69.3547 12.6264C68.8919 8.19724 67.9665 5.68517 67.3715 4.62746C66.7765 5.68517 65.9171 8.26333 65.5866 12.6925L65.4544 14.4774L63.6034 14.6757C58.7776 15.1384 55.935 16.1961 54.8112 16.8572Z" fill="#CBC7DB"/>
<path d="M350.969 269.516C348.391 269.516 347.399 265.682 347.003 262.575C343.763 262.244 340.524 261.252 340.458 258.807C340.458 256.361 343.763 255.303 347.003 254.84C347.399 251.865 348.391 248.824 350.705 248.758H350.771C353.084 248.758 354.142 251.733 354.605 254.708C357.844 255.105 361.215 256.03 361.215 258.542C361.215 261.054 358.042 261.98 354.869 262.442C354.539 265.549 353.679 269.516 351.035 269.516H350.969ZM344.887 258.74C346.11 259.111 347.378 259.311 348.655 259.335L350.11 259.468L350.242 260.922C350.299 262.358 350.544 263.78 350.969 265.153C351.341 263.75 351.541 262.307 351.564 260.856V259.401L353.018 259.269C354.296 259.197 355.561 258.975 356.786 258.608C355.539 258.245 354.251 258.045 352.952 258.013L351.498 257.881L351.366 256.493C351.283 255.368 351.061 254.258 350.705 253.187C350.404 254.266 350.227 255.375 350.176 256.493L350.043 257.947L348.655 258.079C347.378 258.152 346.113 258.374 344.887 258.74Z" fill="#090909"/>
<path d="M322.147 78.0062C319.238 78.0062 318.048 73.4449 317.585 70.0073C313.817 69.5446 308.793 68.4207 308.793 65.3798C308.793 62.3389 313.685 61.149 317.453 60.7524C317.784 57.1165 318.841 51.3652 322.147 51.3652C325.452 51.3652 326.443 57.1165 326.84 60.7524C330.542 61.149 335.434 62.2728 335.434 65.3798C335.434 68.4869 330.41 69.5446 326.642 70.0073C326.179 73.4449 325.055 78.0062 322.147 78.0062ZM312.363 65.3798C313.222 65.8426 315.404 66.5698 319.172 66.9003H320.56L320.692 68.2885C320.957 71.66 321.684 73.577 322.147 74.3703C322.609 73.577 323.27 71.66 323.601 68.2885L323.733 66.9003H325.055C328.823 66.5698 331.005 65.8426 331.864 65.3798C331.005 64.851 328.823 64.1238 325.187 63.8594L323.733 63.7272V62.3389C323.469 58.2403 322.741 55.8605 322.213 54.935C321.684 55.8605 320.89 58.2403 320.626 62.3389V63.7272L319.172 63.8594C315.404 64.1238 313.222 64.851 312.363 65.3798Z" fill="#CBC7DB"/>
<path d="M315.801 343.622C314.545 341.242 312.627 339.458 311.702 336.946C310.872 334.499 310.296 331.974 309.983 329.409C309.124 323.691 307.797 318.053 306.017 312.552C305.29 310.172 304.364 307.859 303.439 305.545L296.167 269.715L292.465 206.187C291.672 191.709 279.508 180.603 265.295 181.397L245.133 182.521L234.093 180.471L216.442 275.599H216.31L211.286 337.012L209.567 340.714C208.179 343.688 205.601 347.589 205.931 351.026C206.262 354.464 208.84 355.521 211.947 355.455C213.229 355.435 214.509 355.347 215.781 355.191L249.562 357.835C252.735 359.356 256.305 360.215 259.742 358.761C263.18 357.306 262.386 352.414 260.602 349.44C260.834 349.172 260.998 348.851 261.078 348.505C261.159 348.16 261.154 347.8 261.064 347.456C261.005 347.159 260.87 346.881 260.674 346.65C260.477 346.418 260.225 346.241 259.94 346.134L260.403 340.515L262.254 349.836C262.254 351.886 262.254 353.935 262.386 355.984C262.176 356.355 262.082 356.78 262.118 357.205C262.153 357.629 262.316 358.034 262.585 358.364C262.981 360.017 263.973 360.942 266.221 360.876C269.473 360.561 272.66 359.759 275.674 358.496C277.128 358.232 278.583 357.901 280.103 357.769C282.681 357.571 285.127 357.703 287.639 356.976C289.406 356.476 291.131 355.835 292.795 355.059L302.579 353.142C305.818 353.142 309.058 353.406 312.165 352.348C315.272 351.291 317.718 347.258 315.801 343.622Z" fill="#090909"/>
<path d="M264.039 362.33C263.681 362.322 263.336 362.195 263.06 361.966C262.784 361.738 262.593 361.424 262.518 361.073L245.132 265.021C245.062 264.617 245.155 264.203 245.391 263.868C245.626 263.533 245.985 263.306 246.388 263.236C246.791 263.166 247.206 263.259 247.541 263.494C247.875 263.73 248.103 264.089 248.173 264.492L265.493 360.479C265.541 360.674 265.548 360.878 265.513 361.077C265.479 361.276 265.403 361.465 265.291 361.633C265.179 361.801 265.033 361.943 264.863 362.052C264.693 362.161 264.503 362.233 264.303 362.263L264.039 362.33Z" fill="white"/>
<path d="M246.654 266.277C246.25 266.277 245.864 266.117 245.579 265.832C245.293 265.547 245.133 265.16 245.133 264.757C245.133 251.602 245.067 242.942 245.001 234.612C244.935 226.283 244.803 217.623 244.803 204.402C244.877 204.044 245.072 203.724 245.355 203.493C245.638 203.263 245.991 203.137 246.356 203.137C246.721 203.137 247.075 203.263 247.358 203.493C247.641 203.724 247.836 204.044 247.91 204.402C247.91 217.557 247.976 226.217 248.042 234.546C248.108 242.876 248.174 251.602 248.174 264.757C248.174 264.957 248.135 265.154 248.058 265.339C247.982 265.523 247.87 265.691 247.729 265.832C247.588 265.973 247.42 266.085 247.236 266.162C247.051 266.238 246.853 266.277 246.654 266.277Z" fill="white"/>
<path d="M268.865 271.963C268.462 271.963 268.075 271.803 267.79 271.518C267.505 271.233 267.345 270.846 267.345 270.443V212.996C267.345 212.593 267.505 212.206 267.79 211.921C268.075 211.636 268.462 211.476 268.865 211.476C269.268 211.476 269.655 211.636 269.94 211.921C270.225 212.206 270.386 212.593 270.386 212.996V270.443C270.369 270.841 270.204 271.218 269.922 271.5C269.641 271.781 269.263 271.947 268.865 271.963Z" fill="white"/>
<path d="M269.328 282.672C269.395 281.35 271.576 281.35 271.444 282.672C270.915 291.133 272.7 299.331 274.485 307.528L279.641 331.458C279.905 332.781 277.79 333.376 277.526 331.987C275.741 323.592 273.89 315.13 272.105 306.735C270.32 298.339 268.733 290.869 269.328 282.672Z" fill="white"/>
<path d="M234.159 242.413C234.49 241.091 236.605 241.62 236.275 242.942C229.802 268.99 225.839 295.598 224.442 322.402C224.376 323.791 222.194 323.791 222.26 322.402C223.642 295.418 227.627 268.631 234.159 242.413Z" fill="white"/>
<path d="M277.062 183.512C274.087 184.305 270.319 187.809 271.443 190.519C274.814 198.782 278.714 205.129 285.986 207.641C287.176 208.037 291.803 207.971 293.258 205.129C296.166 199.179 284.994 181.462 277.062 183.512Z" fill="white"/>
<path d="M270.648 191.71C281.82 175.382 299.603 165.135 313.221 151.054C314.08 150.129 312.692 148.741 311.833 149.666C298.083 163.879 280.234 174.192 268.93 190.652C268.202 191.71 269.921 192.701 270.648 191.71Z" fill="#090909"/>
<path d="M289.754 210.682C289.554 210.69 289.355 210.652 289.172 210.572C288.989 210.492 288.826 210.371 288.696 210.219C288.479 209.947 288.377 209.599 288.414 209.253C288.451 208.906 288.624 208.588 288.894 208.368L295.571 203.079C303.57 196.799 314.61 188.139 322.344 180.669C333.979 169.497 340.987 162.754 342.243 157.598C343.829 151.252 340.92 143.055 334.111 134.527C320.427 117.537 295.902 103.919 279.375 104.316C279.201 104.32 279.029 104.291 278.867 104.228C278.705 104.166 278.556 104.072 278.431 103.952C278.305 103.833 278.204 103.689 278.133 103.531C278.063 103.372 278.024 103.201 278.02 103.027C278.016 102.853 278.045 102.681 278.108 102.519C278.17 102.357 278.264 102.208 278.384 102.082C278.504 101.957 278.647 101.856 278.806 101.785C278.964 101.715 279.135 101.676 279.309 101.672H279.97C297.224 101.672 322.212 115.554 336.161 132.874C343.631 142.195 346.606 150.921 344.821 158.259C343.366 164.143 336.557 170.687 324.195 182.586C316.329 190.123 305.289 198.849 297.158 205.195L290.613 210.417C290.362 210.594 290.061 210.687 289.754 210.682Z" fill="#090909"/>
<path d="M262.254 195.94C264.398 200.665 267.251 205.034 270.716 208.897C273.691 212.4 278.582 215.904 282.945 217.292C284.135 217.623 284.664 215.706 283.474 215.375C278.979 213.921 274.285 210.219 271.443 206.649C268.416 203.119 265.901 199.18 263.973 194.948C263.51 193.758 261.791 194.75 262.254 195.94Z" fill="white"/>
<path d="M267.608 81.3768C267.741 80.0546 269.459 79.7902 270.187 80.7157C270.78 81.5869 271.039 82.6436 270.914 83.6905C270.715 84.4177 270.253 84.616 269.526 84.6821C268.798 84.7482 268.468 84.2854 268.534 83.5583C268.6 82.8311 268.666 82.4344 269.129 82.3022L270.253 82.4345L269.988 82.1039C269.856 81.4429 269.393 80.9801 269.592 80.2529L268.864 80.914H269.129L268.402 80.7818L268.666 80.9801L268.203 80.3852C268.346 81.0359 268.391 81.7044 268.336 82.3684L268.468 84.5499L269.724 83.6244C269.393 83.4922 269.592 81.9056 269.526 81.7073C269.442 81.1059 269.163 80.5486 268.732 80.1207C267.807 79.2613 266.352 80.6496 267.344 81.5089C268.336 82.3683 267.542 83.2939 267.741 84.021C267.85 84.369 268.038 84.6871 268.291 84.9507C268.543 85.2143 268.852 85.4165 269.195 85.5415C269.344 85.5701 269.498 85.5663 269.645 85.5303C269.793 85.4943 269.931 85.427 270.05 85.3329C270.169 85.2388 270.266 85.1202 270.336 84.9851C270.405 84.85 270.444 84.7015 270.451 84.5499C270.385 83.36 270.385 82.17 270.319 80.9801C270.253 79.7902 270.12 79.4597 269.393 79.1291C267.476 78.2697 267.41 80.914 267.741 81.9717C268.071 83.0294 269.393 85.1448 270.914 84.4177C272.434 83.6905 271.905 81.6412 270.848 80.8479C267.608 78.4019 264.766 84.5499 267.608 86.3348C268.327 86.6827 269.128 86.8238 269.922 86.742C270.716 86.6603 271.471 86.359 272.104 85.872C273.227 84.8143 272.963 82.5666 272.566 81.1784C272.17 79.7902 270.848 78.2036 269.063 78.2036C268.189 78.2176 267.352 78.5576 266.716 79.1569C266.08 79.7562 265.691 80.5715 265.625 81.4429C265.427 82.765 267.41 82.6989 267.608 81.4429V81.3768Z" fill="white"/>
<path d="M83.1054 101.143C81.9816 100.218 80.6595 99.1602 79.0729 99.5569C77.4864 99.9535 77.222 100.945 77.0898 102.267C76.8253 106.035 80.7917 107.49 82.4444 103.854C83.0393 102.598 83.3038 101.21 81.8494 100.548C81.3126 100.309 80.7158 100.237 80.1375 100.343C79.5592 100.45 79.0267 100.728 78.6102 101.143C78.3939 101.353 78.2282 101.609 78.1257 101.892C78.0231 102.175 77.9863 102.478 78.0182 102.777C78.05 103.077 78.1497 103.365 78.3095 103.62C78.4694 103.876 78.6852 104.091 78.9407 104.25C80.3951 105.11 80.7256 103.854 81.585 103.193L79.9323 102.73C80.3951 104.317 80.1306 106.035 80.5934 107.688C81.1641 109.204 81.8722 110.664 82.7088 112.051C83.3038 113.175 85.0225 112.183 84.4276 111.059C83.8326 109.936 82.5105 107.82 82.3121 105.969C82.2884 104.701 82.1334 103.438 81.8494 102.201C81.7979 102.038 81.7051 101.891 81.5799 101.774C81.4548 101.658 81.3016 101.575 81.1352 101.535C80.9689 101.496 80.795 101.499 80.6306 101.546C80.4661 101.594 80.3167 101.682 80.1968 101.804C79.9984 101.871 79.734 102.069 79.734 102.267C79.734 102.466 82.3783 102.267 80.4612 103.391C79.8001 103.788 78.8746 102.994 79.0729 102.267C79.2713 101.54 81.0561 102.003 81.6511 102.532C82.246 103.061 84.0309 102.003 83.1054 101.143Z" fill="white"/>
<path d="M122.768 167.448C122.107 171.348 124.421 175.249 124.685 179.149C124.895 181.577 124.566 184.022 123.72 186.307C122.874 188.593 121.533 190.664 119.793 192.37C118.868 193.23 120.256 194.684 121.182 193.759C124.024 190.784 126.074 187.346 126.602 183.248C126.824 181.223 126.78 179.179 126.47 177.166C126.008 174.323 124.223 170.82 124.685 167.977C124.884 166.721 122.967 166.192 122.768 167.448Z" fill="#CBC7DB"/>
<path d="M93.3521 118.067C89.9145 120.711 82.7089 119.917 78.8748 118.661C77.6187 118.265 77.156 120.182 78.3459 120.579C81.4529 121.57 84.5599 121.636 87.733 121.504C90.9061 121.372 92.4266 121.24 94.3437 119.785C96.2608 118.331 94.4098 117.339 93.3521 118.067Z" fill="#80A5AE"/>
<path d="M79.0734 118.926C75.0409 112.58 64.5299 121.372 61.8195 125.206C61.3568 125.801 61.9518 126.661 62.6789 126.661C65.4816 126.736 68.2705 126.242 70.8761 125.206C73.4543 124.016 75.4375 121.769 78.0818 120.513C79.2717 119.918 78.214 118.199 77.0902 118.794C75.2486 119.691 73.5181 120.801 71.9339 122.099C69.2896 124.215 65.9843 124.678 62.6789 124.678L63.4722 126.198C65.1248 123.95 74.512 115.423 77.4207 119.918C78.0818 120.976 79.8005 119.984 79.0734 118.926Z" fill="#80A5AE"/>
<path d="M76.8258 118C71.9339 117.934 68.232 120.842 64.6622 123.751C64.1333 124.148 64.3978 124.941 64.8605 125.271C65.3233 125.602 68.1658 124.941 69.2897 124.412C71.3606 123.56 73.3153 122.45 75.107 121.107C75.2581 121.02 75.3835 120.894 75.4708 120.744C75.558 120.593 75.6039 120.422 75.6039 120.247C75.6039 120.073 75.558 119.902 75.4708 119.751C75.3835 119.6 75.2581 119.475 75.107 119.388C73.1899 118.264 70.0829 120.049 68.4302 121.041C66.7776 122.032 68.3641 123.42 69.4218 122.759C70.4795 122.098 73.0577 120.512 74.1154 121.107V119.388C72.9093 120.257 71.6509 121.052 70.3473 121.768C69.8185 122.032 66.4471 124.015 65.8521 123.553L66.0504 125.139C69.2235 122.561 72.4628 119.917 76.8258 119.983C77.0888 119.983 77.341 119.878 77.527 119.692C77.7129 119.506 77.8174 119.254 77.8174 118.991C77.8174 118.728 77.7129 118.476 77.527 118.29C77.341 118.104 77.0888 118 76.8258 118Z" fill="#80A5AE"/>
<path d="M93.4849 117.339C88.1963 118.926 82.5773 118.595 77.2226 117.868C75.9666 117.67 75.4377 119.587 76.6938 119.719C82.445 120.579 88.3946 120.975 94.0137 119.257C95.2036 118.926 94.6748 117.009 93.4849 117.339Z" fill="#80A5AE"/>
<path d="M175.456 76.2869C183.479 74.0686 190.833 69.9145 196.875 64.1894C197.8 63.33 196.412 61.9418 195.487 62.8012C189.716 68.3261 182.645 72.3052 174.928 74.3698C173.738 74.7004 174.266 76.6175 175.456 76.2869Z" fill="#090909"/>
<path d="M277.392 181.991C283.54 190.056 289.291 196.997 299.075 200.699C300.265 201.162 300.794 199.245 299.604 198.782C290.349 195.345 284.928 188.602 279.111 181C278.317 180.008 276.598 181 277.392 181.991Z" fill="#090909"/>
<path d="M287.705 203.278C290.283 203.278 290.283 199.312 287.705 199.312C285.127 199.312 285.193 203.278 287.705 203.278Z" fill="#CBC7DB"/>
<path d="M156.219 33.6485C159.26 33.7146 162.301 33.6485 165.408 33.5163C168.515 33.3841 173.671 31.8636 174.729 35.235C175.126 36.4911 177.043 35.9622 176.646 34.7062C175.721 31.7975 174.266 31.0042 171.291 31.2025C166.267 31.5331 161.243 31.7314 156.219 31.6653C155.956 31.6653 155.704 31.7698 155.518 31.9557C155.332 32.1417 155.228 32.3939 155.228 32.6569C155.228 32.9199 155.332 33.1721 155.518 33.3581C155.704 33.544 155.956 33.6485 156.219 33.6485Z" fill="#090909"/>
<path d="M152.319 33.4495H153.31C153.573 33.4495 153.826 33.345 154.012 33.159C154.197 32.9731 154.302 32.7209 154.302 32.4579C154.302 32.1949 154.197 31.9427 154.012 31.7567C153.826 31.5708 153.573 31.4663 153.31 31.4663H152.319C152.056 31.4663 151.804 31.5708 151.618 31.7567C151.432 31.9427 151.327 32.1949 151.327 32.4579C151.343 32.7158 151.452 32.959 151.635 33.1416C151.818 33.3243 152.061 33.4338 152.319 33.4495Z" fill="#090909"/>
<path d="M158.202 66.1723C157.012 66.4367 155.955 65.5773 155.029 64.8502L152.451 62.8008C151.459 62.0075 150.071 63.3958 151.063 64.1891C153.178 65.9079 155.756 68.8165 158.731 68.0894C158.985 68.0192 159.201 67.851 159.332 67.6216C159.462 67.3923 159.495 67.1206 159.425 66.8664C159.355 66.6122 159.187 66.3962 158.958 66.2661C158.728 66.1359 158.457 66.1022 158.202 66.1723Z" fill="#090909"/>
<path d="M157.872 67.164C157.872 71.4609 158.07 75.7578 158.401 80.0548C158.533 81.3108 160.516 81.3769 160.384 80.0548C160.054 75.7578 159.855 71.4609 159.855 67.164C159.855 66.901 159.751 66.6488 159.565 66.4628C159.379 66.2768 159.127 66.1724 158.864 66.1724C158.601 66.1724 158.348 66.2768 158.162 66.4628C157.977 66.6488 157.872 66.901 157.872 67.164Z" fill="#090909"/>
<path d="M159.393 84.4844L156.418 85.7404C156.305 85.8016 156.207 85.8856 156.128 85.9869C156.05 86.0882 155.993 86.2046 155.962 86.3289C155.931 86.4532 155.926 86.5826 155.948 86.7089C155.969 86.8351 156.017 86.9556 156.087 87.0625C156.148 87.1751 156.232 87.2737 156.334 87.3521C156.435 87.4305 156.551 87.4871 156.676 87.5181C156.8 87.5492 156.929 87.5541 157.056 87.5326C157.182 87.511 157.302 87.4636 157.409 87.3931L159.921 86.4015C161.111 86.0048 160.582 84.0877 159.393 84.4844Z" fill="#090909"/>
<path d="M149.014 168.704C149.014 170.092 146.238 170.886 145.246 171.216C143.956 171.649 142.628 171.959 141.28 172.142C140.024 172.274 140.024 174.257 141.28 174.125C144.189 173.728 150.931 172.67 150.998 168.704C151.064 167.382 149.08 167.382 149.014 168.704Z" fill="#090909"/>
<path d="M149.079 177.496C146.424 179.654 143.171 180.946 139.758 181.198C138.502 181.33 138.502 183.313 139.758 183.181C143.675 182.893 147.412 181.417 150.468 178.95C151.459 178.157 150.071 176.702 149.079 177.496Z" fill="#090909"/>
</svg>
