<svg width="470" height="440" viewBox="0 0 470 440" fill="none" xmlns="http://www.w3.org/2000/svg">
<path d="M441.135 390.291H182.906C175.256 390.274 167.926 387.581 162.517 382.801C157.108 378.021 154.061 371.543 154.041 364.784V78.7112C154.061 71.9516 157.108 65.4738 162.517 60.6941C167.926 55.9143 175.256 53.2214 182.906 53.2041H441.135C448.784 53.2214 456.115 55.9143 461.524 60.6941C466.933 65.4738 469.98 71.9516 470 78.7112V364.784C469.98 371.543 466.933 378.021 461.524 382.801C456.115 387.581 448.784 390.274 441.135 390.291ZM182.906 57.1283C176.428 57.1283 170.216 59.4022 165.635 63.4498C161.055 67.4974 158.482 72.9871 158.482 78.7112V364.784C158.482 370.508 161.055 375.997 165.635 380.045C170.216 384.093 176.428 386.367 182.906 386.367H441.135C447.613 386.367 453.825 384.093 458.405 380.045C462.986 375.997 465.559 370.508 465.559 364.784V78.7112C465.559 72.9871 462.986 67.4974 458.405 63.4498C453.825 59.4022 447.613 57.1283 441.135 57.1283H182.906Z" fill="#090909"/>
<path d="M58.6851 415.528L53.4308 415.38V409.533L32.2656 409.385V431.587C32.2656 432.49 32.6243 433.355 33.2627 433.994C33.9011 434.632 34.7669 434.991 35.6698 434.991L70.3037 435.213V432.623C70.2297 423.15 68.1577 415.528 58.6851 415.528Z" fill="#090909"/>
<path d="M70.5267 429.441C66.8265 428.627 62.0902 426.703 58.242 427.443C56.3179 427.813 54.5418 429.293 52.4697 429.071C50.3976 428.849 48.8435 427.295 46.8454 426.999C45.5658 426.87 44.277 427.128 43.1452 427.739C40.7771 428.849 39.4449 429.293 36.7068 428.775C33.9686 428.257 31.1565 427.813 29.0103 430.107C28.1963 430.995 29.6764 432.179 30.4904 431.291C33.1546 428.479 37.8169 431.661 41.0731 430.773C42.2571 430.477 43.1452 429.737 44.2553 429.293C46.5494 428.257 48.4735 429.737 50.6196 430.477C52.7657 431.217 54.8378 430.477 57.4279 429.663C61.2761 428.405 66.3824 430.477 70.3047 431.291C71.4887 431.513 71.7108 429.663 70.5267 429.441Z" fill="white"/>
<path d="M104.568 419.894L99.3877 419.746V413.9H78.1484V436.101C78.1484 437.004 78.5071 437.87 79.1455 438.508C79.7839 439.146 80.6498 439.505 81.5526 439.505L116.113 439.653V437.137C116.113 427.516 114.114 419.968 104.568 419.894Z" fill="#090909"/>
<path d="M116.483 433.807C112.709 433.067 107.973 431.142 104.199 431.808C102.201 432.179 100.499 433.733 98.4264 433.437C96.3543 433.141 94.8003 431.734 92.8022 431.438C91.5298 431.283 90.2401 431.515 89.1019 432.105C86.7338 433.289 85.4017 433.733 82.6635 433.141C79.9254 432.549 77.1133 432.253 74.9672 434.547C74.0791 435.435 75.5592 436.545 76.4473 435.731C79.1114 432.845 83.7736 436.027 87.0298 435.213C88.2139 434.917 89.1019 434.177 90.212 433.733C92.5061 432.623 94.4302 434.103 96.5763 434.917C98.7225 435.731 100.795 434.843 103.385 434.029C107.233 432.845 112.339 434.843 116.187 435.657C117.371 435.953 117.668 434.029 116.483 433.807Z" fill="white"/>
<path d="M130.839 246.429C131.431 242.876 129.951 239.324 126.25 238.288C125.005 238.001 123.705 238.048 122.483 238.425C121.262 238.802 120.161 239.495 119.294 240.434C117.939 239.962 116.483 239.86 115.076 240.138L95.6127 243.394C92.5786 243.912 89.5444 244.578 86.5103 244.948L85.2522 245.096H85.1042C83.8488 244.344 82.4712 243.818 81.034 243.542C80.8799 242.169 80.3288 240.871 79.4482 239.806C78.5675 238.742 77.3956 237.957 76.0757 237.548C72.3015 236.512 69.2674 238.806 67.9353 242.136C63.643 252.867 58.9808 263.523 55.1325 274.328C51.2843 285.133 49.2862 295.937 47.6581 307.038C46.0301 318.138 44.698 329.609 41.5158 340.562C38.3336 351.514 33.5973 361.505 30.8592 372.458C27.751 384.816 26.049 397.471 24.2729 410.052C23.7549 413.974 25.901 418.636 30.6372 418.414L60.0168 416.786C64.6791 421.522 73.4856 420.116 79.8499 420.042L106.269 419.45C110.266 419.376 115.446 420.116 119.072 418.192C122.698 416.268 124.474 412.272 124.4 408.127C124.326 403.983 123.068 400.801 122.476 397.249C121.884 393.697 121.366 389.182 121.07 385.186C120.33 376.824 119.738 368.387 119.146 360.025C117.962 342.634 117 325.243 116.556 307.778V305.928C118.776 297.195 121.07 288.463 123.29 279.73C126.102 268.63 129.137 257.677 130.839 246.429ZM47.4361 390.44C47.2141 390.588 47.1401 390.588 47.2881 390.44C46.4001 391.625 46.5481 389.774 47.4361 390.44ZM63.495 294.087H63.199C63.273 293.643 63.421 293.273 63.495 292.903V294.087Z" fill="#CBC7DB"/>
<path d="M82.5892 166.208C74.2898 172.236 67.6049 180.217 63.1262 189.446C60.684 194.552 50.5455 215.717 60.61 231.628C66.9004 241.618 78.149 244.653 85.7714 246.725C103.902 251.609 120.405 246.873 140.534 241.1C140.534 241.1 152.745 240.804 160.663 234.144C161.508 233.5 162.15 232.626 162.514 231.628C163.254 229.63 162.07 228.298 161.922 225.337C161.774 222.377 162.292 223.265 162.514 220.305C162.884 216.161 163.032 214.089 161.922 212.757C159.183 209.575 151.117 213.275 149.933 210.833C149.819 210.421 149.819 209.986 149.933 209.575C150.451 206.614 150.747 200.398 148.083 197.66C146.603 196.18 143.939 195.44 142.385 196.402C140.83 197.364 140.904 198.696 140.534 202.026C139.35 211.573 139.572 212.757 138.61 214.015C136.094 217.197 129.434 215.791 126.622 215.273C118.777 213.719 107.085 212.461 90.1377 213.349" fill="white"/>
<path d="M101.312 250.203C95.9387 250.238 90.5858 249.541 85.4009 248.131C77.6305 246.059 65.9378 242.95 59.3514 232.442C54.5412 224.819 51.063 211.129 61.7936 188.853C66.3783 179.38 73.2131 171.173 81.7007 164.95C81.8607 164.837 82.0414 164.757 82.2325 164.715C82.4236 164.672 82.6213 164.668 82.814 164.702C83.0068 164.737 83.1907 164.809 83.3552 164.915C83.5198 165.021 83.6617 165.159 83.7728 165.32C84.0083 165.634 84.1095 166.029 84.054 166.417C83.9985 166.806 83.7909 167.157 83.4768 167.392C75.3657 173.286 68.8332 181.09 64.4577 190.111C54.3192 211.203 57.4273 223.857 61.8676 230.814C67.8619 240.36 78.4445 243.246 86.141 245.318C103.902 250.055 119.887 245.467 140.09 239.62H140.46C140.608 239.546 152.301 239.25 159.701 233.034C160.351 232.547 160.841 231.877 161.107 231.11C161.403 230.37 161.255 229.852 160.959 228.668C160.667 227.605 160.493 226.513 160.441 225.411C160.377 224.493 160.452 223.57 160.663 222.673C160.88 221.851 161.004 221.007 161.033 220.157C161.329 216.531 161.477 214.533 160.811 213.719C160.145 212.905 157.111 212.831 154.965 213.053C152.819 213.275 149.562 213.571 148.6 211.499C148.337 210.866 148.285 210.165 148.452 209.501V209.353C149.044 206.244 149.118 200.768 146.972 198.696C144.826 196.624 143.938 197.216 143.124 197.66C142.31 198.104 142.31 199.362 141.94 202.248C141.57 205.134 141.422 207.132 141.274 208.686C140.83 212.609 140.756 213.719 139.794 214.903C136.76 218.751 129.877 217.419 126.621 216.753H126.399C116.113 214.755 103.976 214.089 90.2112 214.829C90.0168 214.839 89.8223 214.81 89.6389 214.745C89.4555 214.68 89.2868 214.579 89.1424 214.448C88.9981 214.318 88.8809 214.16 88.7976 213.984C88.7143 213.808 88.6666 213.617 88.6571 213.423C88.6554 213.035 88.7986 212.661 89.0588 212.373C89.3189 212.085 89.6771 211.906 90.0631 211.869C104.05 211.129 116.409 211.795 126.917 213.793H127.213C129.507 214.237 135.576 215.421 137.426 212.979C137.87 212.535 137.944 211.869 138.314 208.242C138.462 206.762 138.684 204.616 139.054 201.804C139.424 198.992 139.72 196.18 141.644 195.07C143.568 193.96 147.342 194.774 149.118 196.55C152.967 200.398 151.561 208.834 151.413 209.797V210.093C152.519 210.25 153.644 210.225 154.743 210.019C157.555 209.797 161.107 209.427 163.105 211.721C165.103 214.015 164.437 215.939 164.067 220.305C163.994 221.302 163.846 222.291 163.623 223.265C163.455 223.892 163.405 224.544 163.475 225.189C163.526 226.091 163.675 226.984 163.919 227.854C164.215 229.112 164.585 230.444 163.993 231.998C163.532 233.247 162.739 234.347 161.699 235.18C153.929 241.692 142.532 242.432 140.83 242.432C126.695 246.577 114.041 250.203 101.312 250.203Z" fill="#090909"/>
<path d="M129.506 214.607C129.802 209.501 130.024 204.32 129.358 199.214C128.692 194.108 126.99 190.26 124.992 185.967C121.292 177.975 117.295 169.908 110.339 164.358C109.229 163.47 107.601 165.024 108.711 165.912C115.297 171.167 119.072 178.493 122.55 185.967C124.622 190.408 126.472 194.7 127.138 199.51C127.804 204.32 127.582 209.575 127.286 214.607C127.212 216.013 129.432 216.013 129.506 214.607Z" fill="#090909"/>
<path d="M113.598 255.753C108.787 271.368 114.634 287.279 114.412 303.116C114.412 303.41 114.529 303.693 114.737 303.901C114.945 304.109 115.227 304.226 115.522 304.226C115.816 304.226 116.099 304.109 116.307 303.901C116.515 303.693 116.632 303.41 116.632 303.116C116.854 287.501 111.008 271.738 115.744 256.345C115.822 256.061 115.785 255.756 115.639 255.5C115.493 255.243 115.251 255.055 114.967 254.976C114.682 254.898 114.378 254.935 114.121 255.081C113.865 255.227 113.676 255.469 113.598 255.753Z" fill="#090909"/>
<path d="M96.7223 405.093C101.534 404.516 106.386 404.342 111.227 404.575C112.633 404.649 112.633 402.429 111.227 402.355C106.386 402.122 101.534 402.295 96.7223 402.873C95.3902 403.021 95.3162 405.241 96.7223 405.093Z" fill="#090909"/>
<path d="M116.926 404.871H120.701C120.995 404.871 121.277 404.755 121.486 404.546C121.694 404.338 121.811 404.056 121.811 403.761C121.811 403.467 121.694 403.185 121.486 402.976C121.277 402.768 120.995 402.651 120.701 402.651H116.926C116.632 402.651 116.35 402.768 116.142 402.976C115.933 403.185 115.816 403.467 115.816 403.761C115.816 404.056 115.933 404.338 116.142 404.546C116.35 404.755 116.632 404.871 116.926 404.871Z" fill="#090909"/>
<path d="M61.3497 415.158C59.9436 411.68 63.2738 409.016 64.7538 406.277C65.6885 404.35 66.2652 402.269 66.456 400.135C66.9986 394.179 67.0234 388.187 66.5299 382.226C65.6419 369.275 63.2738 356.473 62.0897 343.522C59.6476 317.547 60.9797 291.275 61.2757 265.3C61.3497 263.894 59.1296 263.894 59.0556 265.3C58.7595 292.015 57.3534 319.027 60.0915 345.668C61.4236 358.767 63.7918 371.866 64.4578 385.038C64.7538 391.181 65.7159 399.543 62.8297 405.167C60.8316 409.016 57.5015 411.606 59.4256 416.268C60.0176 417.6 61.9417 416.416 61.3497 415.158Z" fill="#090909"/>
<path d="M28.4188 404.723C32.2012 406.218 36.2888 406.777 40.3335 406.351C44.8477 405.759 49.066 403.983 53.6542 403.909C53.9486 403.909 54.231 403.792 54.4392 403.584C54.6473 403.376 54.7643 403.093 54.7643 402.799C54.7643 402.505 54.6473 402.222 54.4392 402.014C54.231 401.806 53.9486 401.689 53.6542 401.689C49.88 401.763 46.4018 402.873 42.7016 403.613C38.14 404.683 33.3595 404.321 29.0108 402.577C27.6788 402.059 27.0868 404.205 28.4188 404.723Z" fill="#090909"/>
<path d="M100.424 419.894C98.6792 421.186 97.0455 422.622 95.5397 424.186C95.4125 424.282 95.3072 424.403 95.2311 424.543C95.155 424.683 95.1098 424.837 95.0985 424.996C95.0872 425.154 95.1102 425.314 95.1658 425.463C95.2214 425.612 95.3084 425.747 95.4208 425.859C95.5333 425.972 95.6686 426.059 95.8176 426.114C95.9666 426.17 96.1258 426.193 96.2844 426.182C96.4431 426.17 96.5975 426.125 96.7371 426.049C96.8768 425.973 96.9983 425.868 97.0938 425.741C98.4677 424.318 99.9525 423.006 101.534 421.818C102.718 421.004 101.608 419.08 100.424 419.894Z" fill="white"/>
<path d="M104.79 420.487C103.022 421.723 101.429 423.192 100.054 424.853C99.1655 425.889 100.72 427.517 101.682 426.407C102.882 424.873 104.304 423.527 105.9 422.411C107.01 421.597 105.9 419.599 104.79 420.487Z" fill="white"/>
<path d="M55.3561 417.304C53.4009 418.176 51.6773 419.494 50.3238 421.152C49.4357 422.262 50.9898 423.817 51.8778 422.707C53.1337 421.225 54.7002 420.037 56.4661 419.228C57.7242 418.636 56.6141 416.712 55.3561 417.304Z" fill="white"/>
<path d="M60.1647 417.748C58.5491 418.784 57.0373 419.974 55.6504 421.3C54.6883 422.336 56.2425 423.891 57.2045 422.854C58.4434 421.651 59.808 420.584 61.2747 419.672C62.5328 418.858 61.4228 416.934 60.1647 417.748Z" fill="white"/>
<path d="M128.768 198.326C136.02 191.591 141.2 182.933 145.048 173.83C148.897 164.728 151.413 155.181 153.929 145.635C155.748 139.449 157.133 133.143 158.073 126.764C158.739 121.214 159.331 118.179 161.551 103.601C161.773 102.194 162.291 99.9743 162.809 95.3861C163.031 93.684 163.179 92.1299 162.217 90.9458C161.255 89.7618 159.553 89.7618 159.035 89.6878C154.743 89.5398 151.709 95.0161 151.487 95.3861" fill="white"/>
<path d="M129.581 199.066C146.232 183.303 151.931 159.474 157.111 137.939C158.739 130.834 159.553 123.582 160.737 116.33C161.403 111.963 161.995 107.523 162.735 103.157C163.327 99.9006 165.029 94.8683 163.845 91.6122C161.181 84.5078 152.671 91.0201 150.524 94.7943C149.858 96.0524 151.783 97.1624 152.449 95.9784C154.521 92.2782 161.773 86.9499 161.699 95.3864C161.699 99.9746 160.219 105.155 159.553 109.669C158.517 116.181 157.629 122.694 156.593 129.206C154.595 141.491 151.042 153.924 146.972 165.69C142.902 177.457 137.204 188.78 128.027 197.512C126.991 198.474 128.545 200.102 129.581 199.066Z" fill="#090909"/>
<path d="M110.931 153.109C116.629 150.741 120.699 145.635 123.882 140.529C127.947 134.013 131.485 127.183 134.464 120.104C137.794 112.333 139.94 104.045 142.383 95.9783C144.825 87.9118 146.971 75.7751 156.813 72.519C158.219 72.0749 157.627 69.9288 156.221 70.3729C148.821 72.815 145.787 78.6613 143.419 85.6177C140.532 93.8321 138.312 102.269 135.648 110.557C132.984 118.846 128.692 127.208 124.4 135.2C121.217 141.195 116.851 148.299 110.339 150.963C109.007 151.481 109.599 153.627 110.931 153.109Z" fill="#090909"/>
<path d="M91.0988 213.127C90.1367 209.797 89.5447 205.875 87.5466 202.988C86.7326 201.804 84.8084 202.914 85.6225 204.098C87.4726 206.763 88.0646 210.611 88.9526 213.719C89.0312 214.004 89.2196 214.245 89.4763 214.391C89.7331 214.537 90.0372 214.575 90.3218 214.496C90.6064 214.418 90.8481 214.229 90.9938 213.972C91.1395 213.716 91.1773 213.412 91.0988 213.127Z" fill="#090909"/>
<path d="M58.5374 223.488C61.7196 219.491 67.1959 216.975 71.7841 214.829C77.0698 212.41 82.6035 210.573 88.2871 209.353C89.6932 209.057 89.1011 206.911 87.695 207.207C81.8397 208.513 76.1356 210.422 70.6741 212.905C65.9378 215.125 60.2395 217.715 56.9093 221.933C56.0213 223.044 57.6494 224.672 58.5374 223.488Z" fill="#090909"/>
<path d="M121.069 144.451C126.767 148.595 130.172 155.478 132.984 161.768C135.925 168.442 138.037 175.45 139.274 182.637C139.496 184.043 141.642 183.451 141.42 182.045C140.056 174.241 137.667 166.652 134.316 159.474C131.43 153.184 127.952 146.671 122.179 142.527C121.069 141.639 119.959 143.563 121.069 144.451Z" fill="#090909"/>
<path d="M64.3846 199.066C63.3485 201.878 63.4965 205.356 67.1227 205.726C70.7489 206.096 73.413 206.17 74.5231 202.84C75.6331 199.51 73.9311 197.29 71.4889 195.884C69.0468 194.478 66.3086 196.254 64.8286 198.77C64.0885 200.028 66.0126 201.138 66.6787 199.954C67.3447 198.77 68.6768 196.772 70.6009 197.956C71.2754 198.325 71.8212 198.891 72.165 199.579C72.5089 200.267 72.6345 201.043 72.525 201.804C72.081 203.876 70.3049 203.654 68.6768 203.58C67.0487 203.506 66.4566 203.802 66.0126 202.618C65.5686 201.434 66.2347 200.546 66.5307 199.658C66.8267 198.77 64.8286 197.734 64.3846 199.066Z" fill="#80A5AE"/>
<path d="M111.895 193.516C109.749 194.33 109.527 197.29 110.119 199.288C110.711 201.286 114.115 202.026 116.335 201.508C118.555 200.99 119.666 198.03 119 195.736C118.333 193.442 115.373 192.702 112.857 193.072C111.451 193.22 112.043 195.366 113.449 195.218C114.855 195.07 116.335 194.848 116.853 196.328C117.371 197.808 116.927 199.14 115.447 199.362C113.967 199.584 112.635 199.658 112.191 198.474C111.747 197.29 111.895 195.884 112.487 195.662C113.079 195.44 113.227 192.998 111.895 193.516Z" fill="#80A5AE"/>
<path d="M90.9502 176.421C88.36 177.605 87.102 180.639 87.25 183.377C87.398 186.115 90.5802 188.262 93.4663 188.41C96.3525 188.558 98.2025 186.263 98.4986 183.229C98.7946 180.195 95.2424 177.605 92.3563 176.495C91.0242 175.977 90.4321 178.123 91.7642 178.641C93.0963 179.159 96.1304 180.565 96.2784 182.563C96.3188 183.645 95.9487 184.703 95.2424 185.523C94.4283 186.411 93.6883 186.337 92.5042 186.041C91.3202 185.745 89.174 184.043 89.6181 181.749C89.7197 181.027 89.995 180.339 90.4204 179.747C90.8457 179.154 91.4084 178.673 92.0602 178.345C93.3923 177.753 92.2823 175.829 90.9502 176.421Z" fill="#80A5AE"/>
<path d="M127.731 161.916C126.547 161.99 125.289 161.694 124.179 162.36C123.708 162.67 123.315 163.085 123.032 163.573C122.75 164.062 122.585 164.609 122.551 165.172C122.181 167.54 122.255 170.352 124.845 171.314C127.435 172.276 129.507 170.352 129.951 167.984C130.395 165.616 130.913 161.842 128.249 161.768C127.955 161.768 127.672 161.885 127.464 162.093C127.256 162.301 127.139 162.583 127.139 162.878C127.139 163.172 127.256 163.455 127.464 163.663C127.672 163.871 127.955 163.988 128.249 163.988C127.583 163.988 127.953 165.024 127.953 165.542C127.981 166.162 127.931 166.784 127.805 167.392C127.583 168.65 126.251 170.13 124.993 168.798C123.735 167.466 124.475 166.06 124.771 165.172C125.067 164.284 126.547 164.21 127.731 164.136C128.915 164.062 129.211 161.842 127.731 161.916Z" fill="#80A5AE"/>
<path d="M96.5025 210.389C96.4285 208.612 98.2786 208.02 99.7587 207.872C101.239 207.724 101.165 207.724 101.757 208.39C102.349 209.056 102.127 210.093 102.053 210.833C102.053 211.127 102.17 211.409 102.378 211.618C102.586 211.826 102.868 211.943 103.163 211.943C103.457 211.943 103.74 211.826 103.948 211.618C104.156 211.409 104.273 211.127 104.273 210.833C104.347 207.798 103.163 205.356 99.7587 205.652C96.3545 205.948 94.1344 207.28 94.2824 210.389C94.3564 211.795 96.5765 211.795 96.5025 210.389Z" fill="#80A5AE"/>
<path d="M89.5454 132.98C90.8775 129.428 100.276 130.834 102.644 131.944C107.306 134.164 109.083 139.197 109.453 144.081C109.823 148.965 110.193 153.627 107.01 156.662C103.828 159.696 98.9439 161.176 94.4297 161.102C92.8016 161.102 92.8016 163.692 94.4297 163.692C100.128 163.766 106.048 161.768 109.823 157.402C111.673 155.256 111.969 152.961 112.043 150.149C112.117 147.337 112.265 142.749 111.229 139.197C109.749 133.72 105.9 129.428 100.128 128.54C96.2058 127.874 88.7314 127.652 87.1033 132.314C86.5112 133.868 89.0274 134.534 89.5454 132.98Z" fill="#090909"/>
<path d="M104.05 130.094C99.4617 128.17 95.5395 126.69 90.7292 127.06C89.0271 125.136 89.5452 120.326 88.6572 118.18C87.7782 116.023 86.3178 114.153 84.4389 112.777C82.3298 111.35 79.9273 110.414 77.4085 110.039C75.5584 109.743 72.6723 109.225 70.8962 110.113C69.1201 111.001 69.1941 112.259 69.0461 113.813C68.528 117.736 67.122 120.326 63.4958 122.324C59.8696 124.322 57.7975 124.396 54.9853 125.506C52.0106 126.58 49.1376 127.917 46.4008 129.502C42.7006 131.648 38.1863 134.609 37.7423 139.345C37.2983 144.081 43.5147 147.411 43.8847 152.518C43.9587 154.442 43.9586 154.368 42.6266 155.7C41.2945 157.032 41.6645 156.588 41.2205 157.106C40.3028 158.049 39.4615 159.064 38.7044 160.14C37.3597 162.063 36.7075 164.385 36.8543 166.726C36.9805 168.388 37.628 169.968 38.7044 171.241C40.6285 173.387 44.8467 173.609 44.5507 177.309C44.3286 179.677 42.5526 181.453 43.3666 183.969C43.7233 184.802 44.2599 185.546 44.938 186.148C45.6161 186.749 46.419 187.193 47.2889 187.447C52.7652 189.594 59.2775 188.113 64.0878 185.079C64.2675 184.978 64.4128 184.825 64.5051 184.64C64.5974 184.456 64.6325 184.248 64.6058 184.043L65.5678 183.377C68.7806 180.737 71.1903 177.251 72.5242 173.313C72.6311 173.443 72.7679 173.545 72.923 173.61C73.078 173.675 73.2467 173.701 73.4142 173.687C73.5818 173.672 73.7433 173.617 73.8848 173.526C74.0263 173.435 74.1436 173.311 74.2264 173.165C75.4844 171.241 76.8165 169.168 76.9645 166.8C77.1125 164.432 75.5584 162.434 75.1884 160.066C74.8183 157.698 78.0006 155.7 79.1106 153.036C79.2675 152.652 79.3913 152.256 79.4806 151.851C80.8127 154.812 82.9588 157.18 86.215 157.994C86.4337 158.061 86.6684 158.054 86.8826 157.973C87.0968 157.893 87.2784 157.744 87.399 157.55C87.6399 157.451 87.8386 157.271 87.9603 157.042C88.082 156.812 88.1191 156.546 88.0651 156.292C86.8532 150.859 87.5048 145.176 89.9152 140.159C91.0187 137.806 92.6374 135.732 94.6515 134.09C97.3896 132.018 100.572 132.536 103.754 132.24C104.005 132.219 104.242 132.113 104.425 131.94C104.608 131.766 104.727 131.536 104.761 131.286C104.796 131.036 104.744 130.782 104.615 130.565C104.485 130.349 104.286 130.183 104.05 130.094ZM81.5527 113.591L82.3668 114.035L81.5527 113.591ZM83.3288 153.554C83.4028 153.702 83.4029 153.85 83.4769 153.998L83.0328 153.554H83.3288ZM98.8697 130.316H98.0556C98.0556 130.242 98.1296 130.094 98.1296 130.02L98.8697 130.316ZM95.4655 129.428C94.6408 129.748 93.848 130.144 93.0974 130.612C92.9251 130.137 92.6467 129.706 92.2833 129.354V129.206H92.5793C93.5457 129.204 94.5108 129.278 95.4655 129.428Z" fill="#090909"/>
<path d="M83.5499 166.578C84.7304 165.931 85.7618 165.044 86.5777 163.973C87.3935 162.902 87.9756 161.672 88.2862 160.362C88.9523 157.032 87.3981 154.22 85.622 151.629C84.66 150.297 82.4398 151.555 83.4019 152.888C84.3639 154.22 86.2141 157.106 85.7701 159.622C85.5832 160.632 85.1654 161.585 84.5492 162.406C83.933 163.228 83.135 163.896 82.2178 164.358C80.8118 165.098 82.0699 167.318 83.5499 166.578Z" fill="#090909"/>
<path d="M101.682 162.582C102.496 165.32 104.568 168.132 102.496 170.944C100.424 173.756 95.2436 172.054 92.8015 169.982C90.3593 167.91 86.5111 165.098 82.2928 164.876C80.8868 164.802 80.8868 167.022 82.2928 167.096C89.4712 167.392 93.2455 177.161 100.646 174.57C102.644 173.83 104.642 172.572 105.382 170.574C106.122 168.576 104.642 164.728 103.828 161.99C103.384 160.658 101.238 161.176 101.682 162.582Z" fill="#090909"/>
<path d="M95.6874 275.29C97.0934 294.013 99.9796 312.588 102.718 331.163L111.08 388.516C111.302 389.923 113.448 389.331 113.226 387.924L105.086 331.977C102.348 313.106 99.3876 294.309 97.9075 275.29C97.8335 273.81 95.6134 273.81 95.6874 275.29Z" fill="white"/>
<path d="M374.091 23.6813C371.501 23.6813 370.464 19.6851 370.02 16.5769C366.69 16.2069 362.25 15.1708 362.25 12.4327C362.25 9.69452 366.616 8.73244 369.946 8.28842C370.242 5.10624 371.204 0 374.091 0C376.977 0 378.013 5.10624 378.309 8.28842C381.639 8.73244 385.931 9.69452 385.931 12.4327C385.931 15.1708 381.491 16.2069 378.161 16.5769C377.717 19.6851 376.681 23.6813 374.091 23.6813ZM365.58 12.4327C366.394 12.8767 368.318 13.4687 371.501 13.7647H372.759V15.0228C372.876 16.857 373.301 18.6583 374.017 20.3511C374.461 19.6111 374.979 17.909 375.275 15.0228L375.423 13.7647H376.681C379.863 13.4687 381.787 12.8767 382.601 12.4327C381.787 11.9887 379.863 11.3966 376.755 11.1746L375.423 11.0266V9.7685C375.201 6.21631 374.609 4.14423 374.091 3.33018C373.647 4.14423 372.981 6.21631 372.759 9.7685V11.0266L371.501 11.1746C368.244 11.3966 366.394 11.9887 365.58 12.4327Z" fill="#CBC7DB"/>
<path d="M89.9152 144.007C88.6571 142.971 87.251 141.861 85.5489 142.305C83.8468 142.749 83.4768 143.785 83.3288 145.191C83.0328 149.409 87.399 150.963 89.2491 146.967C89.8411 145.635 90.1371 144.081 88.5831 143.341C87.9821 143.072 87.314 142.992 86.6666 143.111C86.0193 143.23 85.4232 143.542 84.9569 144.007C84.7286 144.241 84.5548 144.523 84.4482 144.833C84.3415 145.142 84.3045 145.471 84.3398 145.796C84.3752 146.121 84.482 146.435 84.6527 146.714C84.8233 146.993 85.0536 147.231 85.327 147.411C86.955 148.373 87.251 146.967 88.213 146.227L86.3629 145.783C86.955 147.485 86.659 149.335 87.1771 151.111C87.6951 152.887 88.6571 154.368 89.4712 155.922C90.2852 157.476 92.0613 156.07 91.3953 154.812C90.7292 153.553 89.3232 151.333 89.1011 149.261C89.0545 147.887 88.8559 146.522 88.5091 145.191C88.4606 145.003 88.3634 144.83 88.2272 144.691C88.0911 144.552 87.9208 144.451 87.7333 144.399C87.5459 144.346 87.348 144.344 87.1594 144.392C86.9709 144.44 86.7983 144.537 86.659 144.673C86.511 144.821 86.215 144.969 86.215 145.191C86.215 145.413 86.215 145.561 86.807 145.413C87.3991 145.265 87.769 145.561 87.029 146.449C86.289 147.337 85.3269 146.005 85.5489 145.191C85.7709 144.377 87.6951 144.969 88.2871 145.561C88.8791 146.153 90.9512 144.969 89.9152 144.007Z" fill="white"/>
<path d="M132.986 216.161C132.319 220.453 134.836 224.671 135.132 228.964C135.344 231.589 134.977 234.229 134.056 236.698C133.135 239.166 131.683 241.401 129.803 243.246C129.676 243.342 129.571 243.463 129.495 243.603C129.419 243.743 129.373 243.897 129.362 244.056C129.351 244.214 129.374 244.374 129.429 244.523C129.485 244.672 129.572 244.807 129.684 244.919C129.797 245.032 129.932 245.119 130.081 245.174C130.23 245.23 130.389 245.253 130.548 245.242C130.707 245.23 130.861 245.185 131.001 245.109C131.14 245.033 131.262 244.928 131.357 244.801C134.542 241.705 136.622 237.649 137.278 233.256C137.475 231.286 137.45 229.3 137.204 227.336C136.76 224.005 134.614 220.009 135.132 216.753C135.354 215.347 133.282 214.755 132.986 216.161Z" fill="#CBC7DB"/>
<path d="M102.497 162.878C102.525 162.7 102.509 162.517 102.451 162.347C102.393 162.176 102.294 162.022 102.163 161.898C102.031 161.774 101.872 161.684 101.698 161.635C101.524 161.587 101.341 161.582 101.165 161.62C95.8366 163.248 90.2123 163.026 84.736 162.36C79.8517 157.476 69.4911 166.208 66.679 170.131C66.572 170.3 66.513 170.496 66.5081 170.696C66.5033 170.896 66.5528 171.094 66.6515 171.269C66.7502 171.444 66.8943 171.588 67.0685 171.687C67.2427 171.787 67.4406 171.837 67.6411 171.833C70.7071 171.925 73.7582 171.37 76.5955 170.205C79.4077 168.946 81.5538 166.43 84.4399 165.098H84.736C88.0662 166.208 91.4704 166.282 94.9486 166.134C98.4268 165.986 100.055 165.838 102.201 164.284C102.398 164.115 102.533 163.885 102.587 163.631C102.64 163.377 102.609 163.113 102.497 162.878Z" fill="#CBC7DB"/>
<path d="M374.683 97.6064H198.923C189.932 97.6064 182.643 104.896 182.643 113.887V122.228C182.643 131.219 189.932 138.509 198.923 138.509H374.683C383.675 138.509 390.964 131.219 390.964 122.228V113.887C390.964 104.896 383.675 97.6064 374.683 97.6064Z" fill="#80A5AE"/>
<path d="M374.683 166.8H198.923C189.932 166.8 182.643 174.089 182.643 183.081V191.421C182.643 200.413 189.932 207.702 198.923 207.702H374.683C383.675 207.702 390.964 200.413 390.964 191.421V183.081C390.964 174.089 383.675 166.8 374.683 166.8Z" fill="#80A5AE"/>
<path d="M374.683 237.252H198.923C189.932 237.252 182.643 244.541 182.643 253.533V261.873C182.643 270.865 189.932 278.154 198.923 278.154H374.683C383.675 278.154 390.964 270.865 390.964 261.873V253.533C390.964 244.541 383.675 237.252 374.683 237.252Z" fill="#80A5AE"/>
<path d="M374.683 324.133H198.923C189.932 324.133 182.643 331.422 182.643 340.414V348.754C182.643 357.746 189.932 365.035 198.923 365.035H374.683C383.675 365.035 390.964 357.746 390.964 348.754V340.414C390.964 331.422 383.675 324.133 374.683 324.133Z" fill="#80A5AE"/>
<path d="M443.507 96.3484H416.421C410.699 96.3484 406.061 100.987 406.061 106.709V124.374C406.061 130.096 410.699 134.734 416.421 134.734H443.507C449.229 134.734 453.867 130.096 453.867 124.374V106.709C453.867 100.987 449.229 96.3484 443.507 96.3484Z" fill="#CBC7DB"/>
<path d="M443.506 136.163H416.421C413.28 136.163 410.269 134.915 408.048 132.695C405.828 130.474 404.58 127.462 404.58 124.322V106.709C404.58 103.569 405.828 100.557 408.048 98.3364C410.269 96.1159 413.28 94.8684 416.421 94.8684H443.506C446.647 94.8684 449.658 96.1159 451.879 98.3364C454.099 100.557 455.347 103.569 455.347 106.709V124.322C455.357 125.88 455.057 127.424 454.466 128.865C453.874 130.306 453.002 131.615 451.901 132.717C450.799 133.818 449.49 134.69 448.049 135.281C446.608 135.873 445.064 136.173 443.506 136.163ZM416.421 97.8286C414.065 97.8286 411.807 98.7642 410.141 100.43C408.476 102.095 407.54 104.354 407.54 106.709V124.322C407.54 126.677 408.476 128.936 410.141 130.601C411.807 132.267 414.065 133.203 416.421 133.203H443.506C445.862 133.203 448.12 132.267 449.786 130.601C451.451 128.936 452.387 126.677 452.387 124.322V106.709C452.387 104.354 451.451 102.095 449.786 100.43C448.12 98.7642 445.862 97.8286 443.506 97.8286H416.421Z" fill="#090909"/>
<path d="M443.507 321.617H416.421C410.699 321.617 406.061 326.255 406.061 331.977V349.642C406.061 355.364 410.699 360.003 416.421 360.003H443.507C449.229 360.003 453.867 355.364 453.867 349.642V331.977C453.867 326.255 449.229 321.617 443.507 321.617Z" fill="#CBC7DB"/>
<path d="M443.506 361.505H416.421C413.28 361.505 410.269 360.258 408.048 358.037C405.828 355.816 404.58 352.805 404.58 349.664V331.977C404.58 328.837 405.828 325.825 408.048 323.605C410.269 321.384 413.28 320.137 416.421 320.137H443.506C446.647 320.137 449.658 321.384 451.879 323.605C454.099 325.825 455.347 328.837 455.347 331.977V349.664C455.347 352.805 454.099 355.816 451.879 358.037C449.658 360.258 446.647 361.505 443.506 361.505ZM416.421 323.097C414.065 323.097 411.807 324.033 410.141 325.698C408.476 327.363 407.54 329.622 407.54 331.977V349.664C407.54 352.02 408.476 354.278 410.141 355.944C411.807 357.609 414.065 358.545 416.421 358.545H443.506C445.862 358.545 448.12 357.609 449.786 355.944C451.451 354.278 452.387 352.02 452.387 349.664V331.977C452.387 329.622 451.451 327.363 449.786 325.698C448.12 324.033 445.862 323.097 443.506 323.097H416.421Z" fill="#090909"/>
<path d="M443.507 238.584H416.421C410.699 238.584 406.061 243.223 406.061 248.945V266.61C406.061 272.332 410.699 276.97 416.421 276.97H443.507C449.229 276.97 453.867 272.332 453.867 266.61V248.945C453.867 243.223 449.229 238.584 443.507 238.584Z" fill="#CBC7DB"/>
<path d="M443.506 278.399H416.421C413.28 278.399 410.269 277.151 408.048 274.93C405.828 272.71 404.58 269.698 404.58 266.558V248.945C404.58 245.805 405.828 242.793 408.048 240.572C410.269 238.352 413.28 237.104 416.421 237.104H443.506C445.064 237.094 446.608 237.394 448.049 237.986C449.49 238.577 450.799 239.449 451.901 240.55C453.002 241.652 453.874 242.961 454.466 244.402C455.057 245.843 455.357 247.387 455.347 248.945V266.558C455.347 269.698 454.099 272.71 451.879 274.93C449.658 277.151 446.647 278.399 443.506 278.399ZM416.421 240.064C414.065 240.064 411.807 241 410.141 242.665C408.476 244.331 407.54 246.59 407.54 248.945V266.558C407.54 268.913 408.476 271.172 410.141 272.837C411.807 274.503 414.065 275.438 416.421 275.438H443.506C445.862 275.438 448.12 274.503 449.786 272.837C451.451 271.172 452.387 268.913 452.387 266.558V248.945C452.387 246.59 451.451 244.331 449.786 242.665C448.12 241 445.862 240.064 443.506 240.064H416.421Z" fill="#090909"/>
<path d="M443.507 170.575H416.421C410.699 170.575 406.061 175.213 406.061 180.935V198.6C406.061 204.322 410.699 208.961 416.421 208.961H443.507C449.229 208.961 453.867 204.322 453.867 198.6V180.935C453.867 175.213 449.229 170.575 443.507 170.575Z" fill="#CBC7DB"/>
<path d="M443.506 210.463H416.421C413.28 210.463 410.269 209.215 408.048 206.995C405.828 204.774 404.58 201.762 404.58 198.622V180.935C404.58 177.795 405.828 174.783 408.048 172.563C410.269 170.342 413.28 169.094 416.421 169.094H443.506C446.647 169.094 449.658 170.342 451.879 172.563C454.099 174.783 455.347 177.795 455.347 180.935V198.622C455.347 201.762 454.099 204.774 451.879 206.995C449.658 209.215 446.647 210.463 443.506 210.463ZM416.421 172.055C414.065 172.055 411.807 172.99 410.141 174.656C408.476 176.321 407.54 178.58 407.54 180.935V198.622C407.54 200.977 408.476 203.236 410.141 204.902C411.807 206.567 414.065 207.503 416.421 207.503H443.506C445.862 207.503 448.12 206.567 449.786 204.902C451.451 203.236 452.387 200.977 452.387 198.622V180.935C452.387 178.58 451.451 176.321 449.786 174.656C448.12 172.99 445.862 172.055 443.506 172.055H416.421Z" fill="#090909"/>
<path d="M415.089 115.959C418.243 116.793 421.141 118.395 423.525 120.622C424.709 121.732 425.671 124.1 427.077 124.84C430.185 126.394 431.814 120.548 432.998 118.771C439.51 108.633 449.353 100.789 458.159 92.7221C459.195 91.76 457.641 90.2059 456.531 91.168C448.761 98.3463 440.25 105.303 433.738 113.739C432.271 115.711 430.912 117.762 429.667 119.882L428.705 121.584C428.483 122.916 428.113 123.138 427.817 122.25C427.521 121.362 426.633 120.696 426.263 120.252C423.442 117.115 419.763 114.877 415.681 113.813C415.396 113.735 415.092 113.772 414.835 113.918C414.578 114.064 414.39 114.306 414.312 114.59C414.233 114.875 414.271 115.179 414.417 115.436C414.562 115.692 414.804 115.881 415.089 115.959Z" fill="#090909"/>
<path d="M414.866 117.292C421.23 115.959 422.118 126.468 428.26 126.024C430.332 125.876 431.591 124.47 432.627 122.842C434.367 120.134 436.245 117.515 438.251 114.997C446.021 106.043 456.752 100.345 464.078 90.7981C466.668 87.3939 460.896 84.1377 458.306 87.4679C451.424 96.4224 440.915 101.751 433.515 110.335C431.816 112.243 430.258 114.271 428.852 116.404L427.52 118.476C426.484 119.734 426.706 119.882 428.334 118.994C428.408 118.698 426.114 116.256 425.966 116.034C422.562 112.185 418.27 109.817 413.089 110.853C407.909 111.889 410.647 118.106 414.866 117.292Z" fill="#090909"/>
<path d="M417.457 191.666C420.027 192.028 422.51 192.856 424.784 194.108C426.708 195.218 428.114 196.846 429.964 198.03C433.59 200.398 437.586 199.584 440.547 196.624C443.507 193.664 446.837 187.965 449.723 183.747L460.602 167.984C463.044 164.432 457.271 161.102 454.829 164.58C449.279 172.721 443.803 180.861 438.178 188.927C437.216 190.334 435.81 193.22 433.738 192.554C431.666 191.888 431.148 190.408 430.038 189.667C426.84 187.35 423.136 185.828 419.233 185.227C415.089 184.561 413.239 191 417.457 191.666Z" fill="#090909"/>
<path d="M417.828 257.307C422.046 259.231 424.859 262.709 428.337 265.596C431.815 268.482 434.257 268.556 436.995 265.374C443.286 257.899 447.282 248.723 453.572 241.174C456.31 237.918 451.648 233.182 448.836 236.438C443.73 242.654 439.881 249.685 435.441 256.271C434.405 257.825 432.629 259.453 431.889 261.155C433.147 261.155 433.443 260.933 432.629 260.489L431.815 259.749L429.743 257.899C427.153 255.457 424.489 253.015 421.232 251.535C417.976 250.055 413.98 255.531 417.828 257.307Z" fill="#090909"/>
<path d="M418.568 342.708C422.786 343.374 425.006 349.146 428.262 351.44C431.519 353.734 434.997 350.034 437.365 347.444C444.839 339.082 452.24 330.719 459.566 322.209C462.378 318.952 457.642 314.216 454.83 317.472C448.317 325.095 441.731 332.569 435.071 340.044L432.703 342.708C432.037 343.448 430.409 344.632 430.261 345.446C430.112 346.26 429.594 346.334 431.001 346.038C432.407 345.742 432.629 346.112 431.297 345.15C429.965 344.188 429.742 343.448 429.15 342.782C426.634 340.044 424.192 336.935 420.344 336.343C416.496 335.751 414.35 342.116 418.568 342.708Z" fill="#090909"/>
<path d="M197.962 111.667H238.22C238.514 111.667 238.797 111.55 239.005 111.342C239.213 111.134 239.33 110.852 239.33 110.557C239.33 110.263 239.213 109.981 239.005 109.772C238.797 109.564 238.514 109.447 238.22 109.447H197.962C197.667 109.447 197.385 109.564 197.177 109.772C196.969 109.981 196.852 110.263 196.852 110.557C196.852 110.852 196.969 111.134 197.177 111.342C197.385 111.55 197.667 111.667 197.962 111.667Z" fill="#CBC7DB"/>
<path d="M199.661 121.806H335.606C335.901 121.806 336.183 121.689 336.391 121.481C336.599 121.273 336.716 120.99 336.716 120.696C336.716 120.401 336.599 120.119 336.391 119.911C336.183 119.703 335.901 119.586 335.606 119.586H199.661C199.366 119.586 199.084 119.703 198.876 119.911C198.668 120.119 198.551 120.401 198.551 120.696C198.551 120.99 198.668 121.273 198.876 121.481C199.084 121.689 199.366 121.806 199.661 121.806Z" fill="#CBC7DB"/>
<path d="M297.423 130.168H356.552C356.846 130.168 357.129 130.051 357.337 129.843C357.545 129.635 357.662 129.353 357.662 129.058C357.662 128.764 357.545 128.482 357.337 128.273C357.129 128.065 356.846 127.948 356.552 127.948H297.423C297.128 127.948 296.846 128.065 296.638 128.273C296.429 128.482 296.312 128.764 296.312 129.058C296.312 129.353 296.429 129.635 296.638 129.843C296.846 130.051 297.128 130.168 297.423 130.168Z" fill="#CBC7DB"/>
<path d="M204.251 182.193H334.72C335.014 182.193 335.297 182.076 335.505 181.868C335.713 181.66 335.83 181.378 335.83 181.083C335.83 180.789 335.713 180.506 335.505 180.298C335.297 180.09 335.014 179.973 334.72 179.973H204.251C203.956 179.973 203.674 180.09 203.466 180.298C203.258 180.506 203.141 180.789 203.141 181.083C203.141 181.378 203.258 181.66 203.466 181.868C203.674 182.076 203.956 182.193 204.251 182.193Z" fill="#CBC7DB"/>
<path d="M229.042 199.806H361.139C361.433 199.806 361.716 199.689 361.924 199.481C362.132 199.273 362.249 198.991 362.249 198.696C362.249 198.402 362.132 198.12 361.924 197.911C361.716 197.703 361.433 197.586 361.139 197.586H229.042C228.747 197.586 228.465 197.703 228.257 197.911C228.049 198.12 227.932 198.402 227.932 198.696C227.932 198.991 228.049 199.273 228.257 199.481C228.465 199.689 228.747 199.806 229.042 199.806Z" fill="#CBC7DB"/>
<path d="M210.542 252.275H306.229C306.523 252.275 306.806 252.158 307.014 251.95C307.222 251.742 307.339 251.459 307.339 251.165C307.339 250.871 307.222 250.588 307.014 250.38C306.806 250.172 306.523 250.055 306.229 250.055H210.542C210.247 250.055 209.965 250.172 209.757 250.38C209.549 250.588 209.432 250.871 209.432 251.165C209.432 251.459 209.549 251.742 209.757 251.95C209.965 252.158 210.247 252.275 210.542 252.275Z" fill="#CBC7DB"/>
<path d="M211.428 266.484H330.575C330.869 266.484 331.152 266.367 331.36 266.158C331.568 265.95 331.685 265.668 331.685 265.373C331.685 265.079 331.568 264.797 331.36 264.589C331.152 264.38 330.869 264.263 330.575 264.263H211.428C211.134 264.263 210.852 264.38 210.643 264.589C210.435 264.797 210.318 265.079 210.318 265.373C210.318 265.668 210.435 265.95 210.643 266.158C210.852 266.367 211.134 266.484 211.428 266.484Z" fill="#CBC7DB"/>
<path d="M331.389 251.387H348.188C348.483 251.387 348.765 251.27 348.973 251.062C349.181 250.854 349.298 250.571 349.298 250.277C349.298 249.983 349.181 249.7 348.973 249.492C348.765 249.284 348.483 249.167 348.188 249.167H331.389C331.095 249.167 330.813 249.284 330.604 249.492C330.396 249.7 330.279 249.983 330.279 250.277C330.279 250.571 330.396 250.854 330.604 251.062C330.813 251.27 331.095 251.387 331.389 251.387Z" fill="#CBC7DB"/>
<path d="M204.696 336.639C226.404 336.491 248.087 337.157 269.746 338.638C271.152 338.712 271.152 336.491 269.746 336.417C248.087 334.937 226.404 334.271 204.696 334.419C204.402 334.419 204.119 334.536 203.911 334.744C203.703 334.953 203.586 335.235 203.586 335.529C203.586 335.824 203.703 336.106 203.911 336.314C204.119 336.523 204.402 336.639 204.696 336.639Z" fill="#CBC7DB"/>
<path d="M283.583 337.158C302.577 336.911 321.596 336.862 340.64 337.01C340.934 337.01 341.217 336.893 341.425 336.685C341.633 336.476 341.75 336.194 341.75 335.9C341.75 335.605 341.633 335.323 341.425 335.115C341.217 334.907 340.934 334.79 340.64 334.79C321.646 334.642 302.626 334.691 283.583 334.938C283.288 334.938 283.006 335.054 282.798 335.263C282.59 335.471 282.473 335.753 282.473 336.048C282.473 336.342 282.59 336.624 282.798 336.833C283.006 337.041 283.288 337.158 283.583 337.158Z" fill="#CBC7DB"/>
<path d="M210.541 351.737C238.12 351.194 265.674 351.589 293.203 352.921C294.609 352.995 294.609 350.774 293.203 350.7C265.674 349.368 238.12 348.974 210.541 349.516C209.135 349.59 209.135 351.811 210.541 351.737Z" fill="#CBC7DB"/>
<path d="M332.647 353.957C341.01 353.661 349.446 353.661 357.809 353.809C358.103 353.809 358.385 353.692 358.593 353.483C358.802 353.275 358.919 352.993 358.919 352.698C358.919 352.404 358.802 352.122 358.593 351.914C358.385 351.705 358.103 351.588 357.809 351.588C349.446 351.44 341.01 351.44 332.647 351.736C332.353 351.736 332.07 351.853 331.862 352.062C331.654 352.27 331.537 352.552 331.537 352.847C331.537 353.141 331.654 353.423 331.862 353.631C332.07 353.84 332.353 353.957 332.647 353.957Z" fill="#CBC7DB"/>
<path d="M24.0518 304.67C21.1657 304.67 20.0556 300.526 19.6116 297.122C16.1334 296.752 12.5812 295.642 12.5812 292.978C12.5072 290.313 16.1334 289.129 19.6856 288.611C20.1296 285.355 21.1656 282.025 23.7558 281.951C26.3459 281.951 27.456 285.207 28.0481 288.463C31.6003 288.907 35.2264 289.943 35.2264 292.608C35.2264 295.272 31.7482 296.456 28.27 296.974C27.974 300.378 27.012 304.67 24.0518 304.67ZM17.5394 292.904C18.8229 293.236 20.1374 293.434 21.4617 293.496H23.0897L23.2378 295.198C23.3231 296.7 23.5712 298.189 23.9778 299.638C24.3816 298.166 24.6053 296.65 24.6439 295.124V293.496L26.2719 293.348C27.5951 293.231 28.9068 293.009 30.1942 292.682C28.8879 292.326 27.549 292.103 26.198 292.016H24.5698L24.4218 290.461C24.27 289.29 24.0475 288.128 23.7558 286.983C23.4592 288.124 23.2612 289.287 23.1638 290.461V292.089H21.5357C20.1832 292.249 18.8465 292.521 17.5394 292.904Z" fill="#090909"/>
<path d="M136.241 378.082C133.651 378.082 132.615 374.086 132.171 370.978C128.841 370.608 124.4 369.572 124.4 366.833C124.4 364.095 128.693 363.133 132.023 362.689C132.319 359.507 133.281 354.401 136.241 354.401C139.201 354.401 140.089 359.507 140.385 362.689C143.715 363.133 148.082 364.095 148.082 366.833C148.082 369.572 143.641 370.608 140.311 370.978C139.867 374.086 138.831 378.082 136.241 378.082ZM127.657 366.833C128.471 367.277 130.395 367.869 133.651 368.165H134.835L134.983 369.423C135.279 372.31 135.797 374.012 136.241 374.752C136.957 373.059 137.382 371.258 137.499 369.423V368.165H138.757C142.013 367.869 143.863 367.277 144.678 366.833C143.937 366.389 142.013 365.797 138.831 365.575L137.573 365.427V364.169C137.351 360.617 136.685 358.545 136.241 357.731C135.797 358.545 135.131 360.617 134.909 364.169V365.427L133.577 365.575C130.395 365.797 128.471 366.389 127.657 366.833Z" fill="#CBC7DB"/>
<path d="M120.922 82.5835C118.036 82.5835 117 78.3653 116.556 74.9611C113.077 74.5911 109.525 73.555 109.451 70.8169C109.451 68.1527 113.003 66.9687 116.556 66.4506C117 63.1945 118.11 59.8643 120.626 59.8643H120.7C123.216 59.8643 124.4 63.1204 124.918 66.3766C128.47 66.7466 132.096 67.7827 132.17 70.5209C132.244 73.259 128.692 74.369 125.214 74.8871C124.844 78.2173 123.882 82.5095 120.996 82.5835H120.922ZM114.483 70.7429C115.759 71.1119 117.078 71.3109 118.406 71.3349L120.034 71.4829L120.182 73.111C120.267 74.6135 120.515 76.1023 120.922 77.5512C121.3 76.101 121.499 74.6098 121.514 73.111V71.4089L123.142 71.2609C124.466 71.1514 125.778 70.9286 127.064 70.5948C125.764 70.2211 124.42 70.022 123.068 70.0028L121.514 69.8548L121.292 68.3007C121.223 67.1414 120.999 65.9965 120.626 64.8965C120.317 66.0064 120.143 67.1493 120.108 68.3007L119.96 69.9288L118.406 70.0768C117.082 70.1918 115.771 70.4146 114.483 70.7429Z" fill="#090909"/>
<path d="M1.11006 385.926H19.9811C20.2755 385.926 20.5579 385.809 20.766 385.601C20.9742 385.393 21.0912 385.111 21.0912 384.816C21.0912 384.522 20.9742 384.239 20.766 384.031C20.5579 383.823 20.2755 383.706 19.9811 383.706H1.11006C0.815655 383.706 0.5333 383.823 0.325123 384.031C0.116946 384.239 0 384.522 0 384.816C0 385.111 0.116946 385.393 0.325123 385.601C0.5333 385.809 0.815655 385.926 1.11006 385.926Z" fill="#090909"/>
<path d="M13.3933 375.566H27.528C27.8224 375.566 28.1048 375.449 28.313 375.241C28.5211 375.033 28.6381 374.75 28.6381 374.456C28.6381 374.161 28.5211 373.879 28.313 373.671C28.1048 373.463 27.8224 373.346 27.528 373.346H13.3933C13.0989 373.346 12.8165 373.463 12.6083 373.671C12.4001 373.879 12.2832 374.161 12.2832 374.456C12.2832 374.75 12.4001 375.033 12.6083 375.241C12.8165 375.449 13.0989 375.566 13.3933 375.566Z" fill="#090909"/>
<path d="M283.647 423.108H312.953C313.247 423.108 313.53 422.991 313.738 422.783C313.946 422.575 314.063 422.292 314.063 421.998C314.063 421.704 313.946 421.421 313.738 421.213C313.53 421.005 313.247 420.888 312.953 420.888H283.647C283.353 420.888 283.07 421.005 282.862 421.213C282.654 421.421 282.537 421.704 282.537 421.998C282.537 422.292 282.654 422.575 282.862 422.783C283.07 422.991 283.353 423.108 283.647 423.108Z" fill="#090909"/>
<path d="M291.196 415.559H319.54C319.834 415.559 320.116 415.443 320.325 415.234C320.533 415.026 320.65 414.744 320.65 414.449C320.65 414.155 320.533 413.873 320.325 413.664C320.116 413.456 319.834 413.339 319.54 413.339H291.196C290.902 413.339 290.619 413.456 290.411 413.664C290.203 413.873 290.086 414.155 290.086 414.449C290.086 414.744 290.203 415.026 290.411 415.234C290.619 415.443 290.902 415.559 291.196 415.559Z" fill="#090909"/>
<path d="M154.371 217.789C154.957 220.57 154.673 223.464 153.557 226.078C153.039 227.41 155.185 228.002 155.703 226.67C156.929 223.668 157.212 220.364 156.517 217.197C156.221 215.791 154.075 216.383 154.371 217.789Z" fill="#090909"/>
<path d="M153.929 232.665C154.223 232.665 154.506 232.548 154.714 232.339C154.922 232.131 155.039 231.849 155.039 231.554C155.039 231.26 154.922 230.977 154.714 230.769C154.506 230.561 154.223 230.444 153.929 230.444C153.634 230.444 153.352 230.561 153.144 230.769C152.935 230.977 152.818 231.26 152.818 231.554C152.818 231.849 152.935 232.131 153.144 232.339C153.352 232.548 153.634 232.665 153.929 232.665Z" fill="#090909"/>
</svg>
