<svg width="470" height="449" viewBox="0 0 470 449" fill="none" xmlns="http://www.w3.org/2000/svg">
<path d="M259.38 87.2566C258.23 84.734 256.766 82.3668 255.023 80.2112C254.384 79.4468 253.796 78.6416 253.261 77.8009C249.09 71.6825 242.044 67.0475 234.906 64.9154L233.608 64.4518C230.846 63.4292 227.99 62.6839 225.08 62.227C223.782 61.9489 223.133 63.8028 224.06 64.3591C221.743 65.7496 221.001 68.9942 221.928 71.5899C220.905 72.7165 220.285 74.1514 220.167 75.6688C219.61 80.582 210.989 80.3965 207.93 78.6352C204.871 76.8739 202.924 73.9074 200.792 71.7752C198.66 69.6431 196.806 67.9745 196.157 65.1934C196.006 64.2252 195.574 63.3226 194.915 62.5976C194.256 61.8725 193.398 61.3568 192.449 61.1145C193.005 60.3729 192.356 58.9824 191.244 59.3532C187.911 60.488 184.684 61.915 181.603 63.6175C180.37 64.2214 179.1 64.7476 177.802 65.1934C175.18 66.1922 172.785 67.7051 170.756 69.6431L168.995 71.1264C165.472 73.9074 162.877 77.5228 160.374 81.4163C156.641 87.2785 153.297 93.3791 150.362 99.6787C149.65 100.994 149.031 102.357 148.508 103.757C148.322 104.314 148.044 104.87 147.859 105.333C147.112 106.956 146.582 108.671 146.283 110.432C145.078 118.497 145.078 126.933 144.522 134.998C144.429 136.945 143.965 138.892 145.541 140.189C147.117 141.487 151.938 143.063 154.626 144.176C161.023 146.864 168.902 146.03 175.762 146.215C176.504 158.081 176.967 169.947 179.285 181.627C178.997 181.649 178.726 181.773 178.522 181.977C178.318 182.181 178.194 182.452 178.173 182.74C178.105 183.013 178.073 183.293 178.08 183.574C178.004 185.722 178.35 187.864 179.1 189.878C179.125 190.026 179.19 190.165 179.288 190.279C179.386 190.393 179.513 190.479 179.656 190.527C179.671 190.778 179.639 191.029 179.563 191.268C179.1 194.328 178.543 197.201 178.914 200.353L179.192 200.909C179.099 201.057 179.042 201.224 179.025 201.397C179.008 201.57 179.032 201.745 179.095 201.908C179.159 202.07 179.259 202.215 179.388 202.332C179.518 202.448 179.673 202.533 179.841 202.578C191.8 205.452 204.037 205.174 216.273 204.247C228.51 203.32 238.614 202.949 248.626 197.943C248.757 197.903 248.877 197.832 248.974 197.735C249.071 197.638 249.143 197.518 249.183 197.387C250.851 196.46 251.037 194.42 251.037 192.195C251.037 186.355 250.851 180.422 250.758 174.582L250.295 142.785L250.573 139.726C254.467 137.038 258.823 136.296 263.273 134.627C263.551 134.535 263.737 134.257 263.922 134.071C264.13 134.036 264.323 133.936 264.472 133.787C264.622 133.637 264.721 133.445 264.756 133.237C267.167 117.848 265.591 101.625 259.38 87.2566ZM181.324 200.539V200.353C181.324 200.168 181.324 200.075 181.232 199.982L181.603 200.539H181.324ZM197.176 202.485H198.196L198.474 202.671L197.176 202.485ZM206.725 202.485L207.188 202.3H206.725V202.485ZM262.532 132.402L261.326 132.866L262.532 131.939V132.402Z" fill="#80A5AE"/>
<path d="M151.291 247.167C151.383 266.264 148.324 284.804 145.172 303.623C142.02 322.442 138.776 341.538 135.439 360.449C133.955 368.978 131.452 377.321 130.155 385.757C129.543 389.684 129.202 393.649 129.135 397.623C129.135 399.755 129.32 401.887 129.228 404.019C129.135 406.152 128.022 409.396 126.91 412.27C125.149 416.998 126.076 421.818 131.731 422.653C140.815 423.95 150.456 423.487 159.634 423.858L175.115 424.507C178.638 424.599 183.366 425.526 186.703 423.858C193.378 420.335 190.318 411.158 191.06 405.317C191.245 403.556 188.464 403.556 188.279 405.317C187.908 408.655 188.557 411.899 188.372 415.236C188.186 418.574 187.723 419.223 185.776 420.706C183.829 422.189 180.77 421.911 177.896 421.818L154.165 420.798L142.299 420.335L135.902 420.057C135.007 420.167 134.099 420.136 133.214 419.964L128.949 414.866L129.969 412.177C132.658 405.874 131.638 399.941 132.101 393.266C132.565 386.591 134.79 377.692 136.458 369.905C138.127 362.118 139.239 354.702 140.537 347.1L148.788 298.895C151.662 281.653 154.164 264.688 154.072 247.167C154.072 246.799 153.925 246.445 153.664 246.184C153.404 245.923 153.05 245.777 152.681 245.777C152.312 245.777 151.959 245.923 151.698 246.184C151.437 246.445 151.291 246.799 151.291 247.167Z" fill="#090909"/>
<path d="M190.596 406.058C194.119 389.186 198.105 372.222 201.071 355.257C204.038 338.293 204.501 322.997 206.911 306.959C208.024 299.172 209.136 291.293 211.269 283.691C213.401 276.089 216.553 269.415 217.943 261.999C219.334 254.582 218.036 245.961 223.32 239.194C227.028 234.559 231.199 230.573 230.087 224.083C229.809 222.322 227.121 223.064 227.399 224.732C228.697 232.427 219.519 237.433 217.387 244.293C215.255 251.153 216.182 258.847 214.142 265.985C212.103 273.123 209.414 279.334 207.746 286.194C206.077 293.054 204.872 301.861 203.667 309.648C201.442 325.129 200.979 340.888 198.105 356.184C195.231 371.48 191.338 388.908 187.908 405.316C187.629 407.078 190.225 407.819 190.596 406.058Z" fill="#090909"/>
<path d="M190.04 419.778C206.17 421.168 225.452 425.34 240.748 418.016C247.515 414.772 251.316 410.044 250.945 402.35C250.482 392.245 249.462 382.233 249.647 372.129C250.018 351.641 254.282 331.71 256.6 311.409C258.918 291.107 257.249 271.547 258.269 251.616C259.288 231.685 257.805 213.423 252.336 194.882C252.328 194.671 252.273 194.465 252.174 194.278C252.074 194.092 251.934 193.931 251.763 193.807C251.593 193.683 251.396 193.599 251.188 193.562C250.98 193.526 250.767 193.537 250.564 193.595C250.361 193.653 250.174 193.756 250.017 193.897C249.86 194.038 249.737 194.213 249.658 194.408C249.578 194.604 249.544 194.815 249.559 195.026C249.573 195.236 249.635 195.441 249.74 195.624C254.3 210.987 256.396 226.975 255.951 242.995C255.673 252.172 255.117 261.257 255.117 270.342C255.117 279.426 255.302 288.789 254.839 298.06C254.004 316.6 249.833 334.677 247.979 353.125C247.053 362.457 246.681 371.837 246.866 381.213C246.959 385.756 247.144 390.298 247.515 394.748C247.886 399.198 249.184 404.667 247.144 409.024C242.973 418.202 227.77 419.314 219.148 419.129C210.527 418.943 199.681 417.831 190.04 416.996C188.278 416.811 188.278 419.592 190.04 419.778Z" fill="#090909"/>
<path d="M174.558 134.255C174.558 148.995 175.577 163.827 176.226 178.567C176.875 193.307 178.451 208.232 177.246 222.879C177.061 225.196 176.134 231.036 172.426 230.202C168.718 229.368 170.386 227.421 169.645 225.752C168.903 224.084 165.658 221.581 163.341 223.991C161.023 226.401 161.301 227.977 160.467 229.646C159.633 231.314 157.686 235.115 156.203 237.804C154.72 240.492 153.236 244.849 151.104 246.24C147.211 248.835 146.84 241.975 145.264 240.677C143.688 239.38 141.834 240.677 140.351 240.121L138.867 238.916C137.57 238.545 137.106 237.711 137.57 236.506C138.033 235.301 137.57 235.301 137.291 234.744C137.11 234.277 136.824 233.859 136.454 233.521C136.084 233.183 135.641 232.936 135.159 232.798C134.602 232.783 134.043 232.813 133.491 232.89C130.153 232.334 129.875 230.573 129.69 227.236C129.041 215.37 145.264 210.456 147.952 199.239C150.084 190.34 148.323 179.587 147.86 170.595C147.396 161.602 146.654 151.034 146.84 141.301C146.84 140.932 146.693 140.578 146.433 140.317C146.172 140.057 145.818 139.91 145.449 139.91C145.081 139.91 144.727 140.057 144.466 140.317C144.205 140.578 144.059 140.932 144.059 141.301C143.873 150.571 144.615 159.934 145.078 169.297C145.357 174.488 145.542 179.679 145.727 184.871C145.913 190.062 146.562 196.366 144.337 201.094C141.37 207.397 134.881 211.847 130.431 216.946C125.982 222.044 126.445 224.733 127.187 229.831C127.465 231.5 127.651 234.096 129.134 235.393C130.617 236.691 131.451 235.764 132.749 235.857C135.623 236.135 134.14 238.082 135.067 240.121C135.454 240.783 135.976 241.356 136.598 241.803C137.221 242.251 137.931 242.562 138.682 242.717C139.702 242.995 140.722 242.717 141.741 242.902C142.761 243.088 142.946 243.088 143.688 244.571C144.43 246.054 144.522 247.815 146.469 249.113C149.992 251.431 152.958 248.743 154.812 245.776C156.763 242.717 158.558 239.561 160.189 236.32C161.023 234.837 161.765 233.261 162.507 231.778C163.248 230.295 164.268 226.772 165.009 226.494C167.327 225.66 167.698 229.646 168.532 230.758C168.978 231.392 169.558 231.92 170.231 232.304C170.904 232.689 171.653 232.92 172.426 232.983C180.12 233.725 180.12 222.6 180.213 217.595C180.213 209.251 179.934 201.001 179.564 192.75C178.822 173.283 177.339 153.723 177.339 134.255C177.339 133.886 177.192 133.533 176.932 133.272C176.671 133.011 176.317 132.865 175.948 132.865C175.58 132.865 175.226 133.011 174.965 133.272C174.704 133.533 174.558 133.886 174.558 134.255Z" fill="#090909"/>
<path d="M262.254 133.514C260.771 144.731 259.473 155.948 258.546 167.257C257.619 178.567 255.95 188.023 260.029 197.386C261.775 201.225 264.122 204.761 266.982 207.861L269.485 210.457C271.061 212.218 273.1 213.145 271.061 215.277C269.022 217.409 267.816 215.926 265.777 216.76C264.649 217.262 263.723 218.13 263.151 219.224C262.578 220.318 262.393 221.573 262.625 222.786C262.903 224.547 264.108 225.938 264.479 227.699C265.221 231.686 262.347 232.705 259.288 230.944C259.129 230.853 258.955 230.793 258.774 230.77C258.592 230.746 258.408 230.758 258.232 230.805C258.055 230.853 257.89 230.934 257.745 231.046C257.6 231.157 257.479 231.295 257.387 231.454C257.296 231.612 257.237 231.787 257.213 231.968C257.189 232.149 257.201 232.333 257.249 232.51C257.296 232.686 257.378 232.851 257.489 232.996C257.6 233.141 257.739 233.263 257.897 233.354C262.532 236.043 268.28 233.91 267.538 227.885C267.446 227.328 267.26 226.68 267.167 226.123C265.591 223.898 266.055 221.581 268.373 219.171H269.856C271.246 218.8 272.173 218.985 273.471 217.966C274.769 216.946 275.14 212.682 273.286 210.364C269.856 205.822 265.591 202.484 262.996 197.2C260.4 191.916 260.122 183.944 260.586 177.084C261.513 162.715 262.996 148.439 264.943 134.163C265.221 132.401 262.532 131.66 262.254 133.421V133.514Z" fill="#090909"/>
<path d="M208.395 57.499C211.176 61.2071 219.055 61.9487 222.671 58.5187L208.395 57.499Z" fill="white"/>
<path d="M216.366 62.5974H215.068C211.546 62.3193 208.579 60.836 207.003 58.7038C206.844 58.5142 206.727 58.2934 206.659 58.0555C206.591 57.8176 206.575 57.5681 206.61 57.3232C206.644 57.0784 206.731 56.8437 206.862 56.6343C206.994 56.4249 207.168 56.2457 207.374 56.1082C207.556 55.951 207.769 55.8348 208 55.7677C208.23 55.7006 208.473 55.684 208.711 55.7192C208.948 55.7544 209.176 55.8405 209.377 55.9716C209.578 56.1027 209.749 56.2758 209.877 56.4789C210.897 57.7768 212.936 58.7038 215.347 58.982C216.411 59.1189 217.493 59.0418 218.528 58.7553C219.562 58.4688 220.529 57.9785 221.372 57.3133C221.729 57.0455 222.171 56.9156 222.616 56.9472C223.061 56.9788 223.48 57.1699 223.796 57.4855C224.111 57.8011 224.302 58.2199 224.334 58.6651C224.366 59.1103 224.236 59.5519 223.968 59.909C221.869 61.7403 219.15 62.7018 216.366 62.5974Z" fill="#090909"/>
<path d="M220.26 65.7481C221.651 69.827 221.651 74.3695 218.406 77.614C215.162 80.8586 209.507 80.766 205.706 78.3557C199.959 74.7403 195.602 65.7482 194.026 59.3518C193.927 58.9953 193.691 58.6924 193.37 58.5098C193.048 58.3273 192.667 58.28 192.311 58.3783C191.954 58.4767 191.651 58.7126 191.469 59.0342C191.286 59.3558 191.239 59.7368 191.337 60.0933C193.562 68.9 200.144 81.6929 210.341 82.898C220.539 84.1031 225.915 73.906 222.949 65.0066C222.393 63.3379 219.704 63.9868 220.26 65.7481Z" fill="#80A5AE"/>
<path d="M223.412 7.80965C223.365 7.56929 223.245 7.34919 223.069 7.17855C222.894 7.00791 222.67 6.89485 222.428 6.85457C222.187 6.81429 221.938 6.84863 221.717 6.95302C221.495 7.05741 221.311 7.22697 221.188 7.43894C220.446 8.73677 219.612 10.0346 218.777 11.3324C217.943 8.73672 217.109 6.14106 216.182 3.4527C215.811 2.24757 214.328 2.71113 213.957 3.73085C213.146 6.391 212.155 8.99262 210.99 11.5177C209.322 7.90236 207.468 4.47244 205.521 1.04246C205.382 0.860629 205.194 0.72214 204.979 0.643229C204.764 0.564318 204.531 0.548207 204.308 0.596833C204.084 0.645458 203.879 0.756764 203.716 0.917759C203.553 1.07876 203.44 1.28283 203.389 1.50597C203.238 4.44993 202.547 7.34096 201.349 10.0345C199.51 6.25106 196.85 2.92567 193.562 0.300801C193.373 0.122989 193.127 0.0172851 192.867 0.00194073C192.608 -0.0134036 192.351 0.0626117 192.142 0.216835C191.932 0.371058 191.784 0.593699 191.722 0.846128C191.659 1.09856 191.687 1.36482 191.801 1.59865C193.933 6.88268 196.065 12.1667 195.787 17.9142C192.788 16.1798 189.535 14.9284 186.146 14.2061C185.928 14.1805 185.707 14.2151 185.507 14.3062C185.307 14.3972 185.135 14.5412 185.011 14.7226C184.887 14.904 184.815 15.1158 184.803 15.3353C184.79 15.5547 184.838 15.7733 184.941 15.9675C185.63 17.0709 186.25 18.2164 186.795 19.3974C190.967 32.5611 191.616 47.0227 187.537 60.1864C187.465 60.3414 187.438 60.5132 187.458 60.6827C187.478 60.8522 187.544 61.013 187.65 61.1472C187.755 61.2815 187.896 61.3839 188.056 61.4434C188.216 61.5029 188.389 61.517 188.556 61.4842C188.611 61.5807 188.693 61.6587 188.792 61.7083C188.891 61.7578 189.003 61.7767 189.113 61.7624C191.338 62.4113 194.119 60.7426 196.251 60.001C196.547 59.8905 196.796 59.6824 196.958 59.4111C197.12 59.1398 197.185 58.8214 197.142 58.5084C197.099 58.1954 196.95 57.9064 196.721 57.689C196.491 57.4717 196.195 57.3389 195.88 57.3126C195.11 57.3916 194.336 57.4226 193.562 57.4053L194.119 56.8491C194.304 56.8759 194.493 56.8622 194.672 56.8091C194.852 56.7559 195.018 56.6646 195.159 56.5413C195.3 56.418 195.412 56.2658 195.489 56.0949C195.565 55.924 195.604 55.7385 195.602 55.5513V55.0878C195.598 54.8503 195.533 54.6178 195.413 54.4125C195.294 54.2073 195.123 54.0361 194.919 53.9153C194.714 53.7945 194.482 53.7279 194.245 53.7222C194.007 53.7165 193.773 53.7718 193.562 53.8827C194.514 51.0224 195.167 48.071 195.509 45.076C195.602 43.3147 192.913 43.4074 192.728 45.076C192.543 46.7446 192.45 47.2081 192.265 48.3206C192.728 43.759 192.728 39.1622 192.265 34.6006C192.632 36.0969 192.911 37.6138 193.099 39.143C193.377 40.6263 195.695 40.4409 195.416 38.9577C195.166 37.1802 194.826 35.4165 194.397 33.6736C194.897 32.6771 195.668 31.8417 196.622 31.2634L196.065 29.1312C196.305 29.1361 196.542 29.079 196.753 28.9653C196.964 28.8516 197.143 28.6852 197.271 28.4823C197.827 27.3699 199.31 25.5158 199.959 23.8472C203.842 22.1699 208.068 21.439 212.288 21.715C216.46 22.0858 218.963 23.8472 222.207 26.2574C222.384 26.4244 222.614 26.5231 222.856 26.5356C222.949 27.1845 222.949 27.9261 223.042 28.575C223.134 29.2239 225.545 29.8728 225.359 28.3896L223.412 7.80965ZM220.91 18.8412H221.002C220.988 18.8331 220.972 18.8288 220.956 18.8288C220.94 18.8288 220.924 18.8331 220.91 18.8412Z" fill="#090909"/>
<path d="M219.704 60.372C233.424 55.9223 229.994 33.3956 220.353 25.6086C216.459 22.3641 209.414 19.4903 203.481 21.9932C191.244 27.1846 194.025 50.8236 194.118 51.7506C195.23 60.2792 196.806 70.94 204.408 76.5948C206.262 78.0781 210.526 80.8591 214.79 80.4883C219.055 80.1175 225.915 68.4371 219.704 60.372Z" fill="white"/>
<path d="M214.977 81.9718C217.573 81.7864 220.539 78.82 222.301 74.8338C224.062 70.8476 224.247 65.0073 222.023 61.1138C226.194 59.0744 228.975 55.1809 229.995 49.8969C231.664 40.9048 227.863 29.6878 221.374 24.4038C216.646 20.603 209.137 18.0074 202.926 20.603C189.391 26.2579 192.451 50.9167 192.636 52.0291C193.748 60.2796 195.232 71.682 203.482 77.893C206.356 80.0252 210.62 82.4353 214.977 81.9718ZM207.283 22.6424C211.547 22.2716 216.275 24.2184 219.427 26.814C225.082 31.3564 228.419 41.461 226.936 49.3407C226.287 52.7707 224.433 57.2204 219.241 58.8891L217.109 59.5379L218.5 61.2993C222.115 66.0271 220.354 71.4038 219.427 73.5359C218.5 75.6681 215.904 78.82 214.699 78.9127C212.011 79.1908 208.673 77.8929 205.336 75.39C198.105 70.0133 196.715 59.3526 195.695 51.5656C195.695 51.3802 192.729 28.2046 204.131 23.4768C205.125 23.0165 206.192 22.7341 207.283 22.6424Z" fill="#090909"/>
<path d="M198.939 37.0115C198.661 34.3231 196.343 33.4888 193.933 34.2304C191.523 34.972 191.245 38.0312 191.615 40.256C191.986 42.4809 192.172 42.4809 193.377 42.8517C193.904 43.0071 194.459 43.0462 195.004 42.9662C195.548 42.8861 196.068 42.689 196.529 42.3882C198.29 41.1831 197.085 37.9385 196.343 36.4553C196.236 36.2283 196.065 36.0374 195.851 35.9058C195.637 35.7741 195.389 35.7075 195.138 35.7137C193.191 35.621 193.006 38.9582 193.099 40.256C193.191 41.5539 195.972 42.0174 195.88 40.256C195.819 39.6985 195.85 39.1348 195.972 38.5875C195.972 38.4948 196.25 37.7532 196.065 38.124L195.045 38.4948H195.138L193.933 37.8458C194.118 38.1239 194.304 38.9582 194.489 39.329C194.675 39.6998 194.582 39.7926 194.582 39.978C194.582 40.1634 194.675 40.6269 194.675 40.1634C194.675 39.6999 194.396 40.6269 194.304 39.6072C194.211 38.5874 194.118 37.475 194.582 37.0115C195.045 36.548 196.065 36.3626 196.158 37.0115C196.25 37.6604 199.124 38.8655 198.939 37.0115Z" fill="white"/>
<path d="M193.098 61.2067C196.435 71.4039 200.885 82.7136 213.585 82.5282C224.524 82.4355 226.378 71.1257 224.987 62.5044C224.431 58.9818 219.054 60.4651 219.611 63.9878C220.63 70.2915 219.425 78.1711 211.268 76.7806C203.11 75.3901 200.699 66.676 198.475 59.7234C197.362 56.3861 191.985 57.7767 193.098 61.2067Z" fill="#CBC7DB"/>
<path d="M221.095 58.425C217.465 59.8454 213.439 59.8784 209.786 58.5177C208.117 57.9614 207.375 60.6498 209.044 61.206C213.183 62.7021 217.72 62.6691 221.837 61.1132C223.506 60.4643 222.857 57.7761 221.095 58.425Z" fill="#090909"/>
<path d="M245.567 107.558C247.885 122.669 249.368 137.779 248.904 153.075C248.441 168.371 247.514 181.535 250.109 195.718C250.48 197.479 253.169 196.738 252.798 194.976C250.017 179.959 251.5 164.663 251.778 149.552C252.056 134.442 250.388 120.907 248.255 106.817C247.977 105.055 245.289 105.797 245.567 107.558Z" fill="#090909"/>
<path d="M220.168 115.623C220.537 115.623 220.89 115.476 221.151 115.216C221.412 114.955 221.558 114.601 221.558 114.232C221.558 113.864 221.412 113.51 221.151 113.249C220.89 112.988 220.537 112.842 220.168 112.842C219.799 112.842 219.445 112.988 219.185 113.249C218.924 113.51 218.777 113.864 218.777 114.232C218.777 114.601 218.924 114.955 219.185 115.216C219.445 115.476 219.799 115.623 220.168 115.623Z" fill="#80A5AE"/>
<path d="M217.572 117.384C222.856 117.384 222.948 109.041 217.572 109.041C212.195 109.041 212.195 117.384 217.572 117.384Z" fill="#CBC7DB"/>
<path d="M219.056 145.566C224.433 145.566 224.433 137.223 219.056 137.223C213.679 137.223 213.679 145.566 219.056 145.566Z" fill="#CBC7DB"/>
<path d="M220.538 181.441C225.915 181.441 225.915 173.098 220.538 173.098C215.162 173.098 215.162 181.441 220.538 181.441Z" fill="#CBC7DB"/>
<path d="M239.265 219.541C242.509 248.835 239.357 278.222 236.484 307.515C233.61 336.809 231.941 366.289 232.868 395.861C232.961 397.715 235.742 397.715 235.649 395.861C234.722 366.289 236.298 336.902 239.265 307.515C242.231 278.129 245.29 248.835 242.046 219.541C241.86 217.78 239.079 217.687 239.265 219.541Z" fill="#CBC7DB"/>
<path d="M229.717 237.34C226.009 262.555 221.188 287.863 220.539 313.449C220.261 326.334 221.003 339.312 220.076 352.198C219.149 365.084 217.202 378.247 215.626 391.226C215.441 392.987 218.222 392.987 218.407 391.226C219.89 378.804 221.652 366.382 222.764 353.959C223.877 341.537 223.135 328.188 223.32 315.21C223.784 289.346 228.604 263.575 232.405 238.082C232.683 236.32 229.995 235.579 229.717 237.34Z" fill="#CBC7DB"/>
<path d="M205.707 385.756C204.502 374.539 209.137 363.693 208.117 352.476C207.932 350.714 205.151 350.714 205.336 352.476C206.356 363.693 201.721 374.539 202.926 385.756C203.112 387.517 205.893 387.517 205.707 385.756Z" fill="#CBC7DB"/>
<path d="M208.58 335.326V311.409C208.58 311.04 208.433 310.687 208.173 310.426C207.912 310.165 207.558 310.019 207.189 310.019C206.821 310.019 206.467 310.165 206.206 310.426C205.945 310.687 205.799 311.04 205.799 311.409V335.326C205.799 335.695 205.945 336.049 206.206 336.31C206.467 336.57 206.821 336.717 207.189 336.717C207.558 336.717 207.912 336.57 208.173 336.31C208.433 336.049 208.58 335.695 208.58 335.326Z" fill="#CBC7DB"/>
<path d="M142.946 396.696C144.151 384.088 149.25 372.593 152.495 360.542C155.739 348.491 156.388 336.532 157.13 324.388C158.807 298.127 162.12 271.996 167.049 246.148C167.42 244.386 164.731 243.645 164.453 245.406C159.525 270.912 156.212 296.704 154.534 322.627C153.607 335.976 152.958 349.232 149.157 362.211C145.82 373.613 141.278 384.737 140.165 396.696C139.98 398.457 142.761 398.457 142.946 396.696Z" fill="#CBC7DB"/>
<path d="M159.17 395.862C160.561 381.494 166.308 368.144 169.275 354.146C172.241 340.148 171.407 326.521 172.334 312.801C174.433 282.544 178.959 252.505 185.868 222.973C185.967 222.616 185.919 222.235 185.737 221.914C185.554 221.592 185.251 221.356 184.895 221.258C184.538 221.159 184.157 221.207 183.836 221.389C183.514 221.572 183.278 221.875 183.18 222.231C176.341 251.429 171.846 281.126 169.738 311.04C168.718 325.687 169.46 340.705 166.216 355.073C162.971 369.442 157.78 381.772 156.389 395.862C156.296 397.624 159.077 397.624 159.17 395.862Z" fill="#CBC7DB"/>
<path d="M179.565 395.954C179.008 388.445 181.419 381.492 183.829 374.447C186.314 367.627 188.115 360.578 189.206 353.403C191.338 338.942 190.874 324.202 191.431 309.555C191.987 294.908 195.231 279.242 199.681 264.316C204.131 249.391 207.654 235.486 208.488 220.283C208.581 218.522 205.799 218.522 205.707 220.283C204.78 236.135 200.701 250.875 196.251 265.985C191.917 280.136 189.364 294.772 188.65 309.555C188.093 324.758 188.65 340.147 186.147 355.165C183.829 368.792 175.857 381.956 176.784 395.954C176.876 397.715 179.657 397.715 179.565 395.954Z" fill="#CBC7DB"/>
<path d="M131.36 421.724L131.082 441.192C131.057 441.84 131.163 442.487 131.394 443.093C131.625 443.7 131.976 444.253 132.426 444.721C132.876 445.188 133.416 445.56 134.014 445.814C134.611 446.067 135.253 446.198 135.902 446.198L182.439 446.754C182.933 446.766 183.426 446.679 183.886 446.499C184.347 446.318 184.767 446.047 185.121 445.701C185.475 445.355 185.756 444.942 185.949 444.486C186.141 444.03 186.24 443.54 186.239 443.046C186.61 429.233 186.239 422.651 172.427 422.558L131.36 421.724Z" fill="#090909"/>
<path d="M130.895 445.457C133.861 442.212 138.867 446.105 142.019 446.198C145.171 446.291 145.727 445.178 147.767 444.53C153.7 442.583 158.149 446.476 163.804 446.013C169.459 445.549 173.631 442.305 179.749 444.622C182.994 445.92 184.106 446.291 187.073 444.715C190.039 443.139 187.258 441.007 185.497 442.027C183.735 443.046 182.159 442.027 179.656 441.192C177.738 440.457 175.677 440.172 173.631 440.358C171.237 440.79 168.881 441.41 166.585 442.212C162.785 443.232 160.652 442.49 157.13 441.378C154.911 440.699 152.577 440.479 150.27 440.729C147.211 441.099 144.059 443.232 141 442.861C136.457 442.212 132.564 438.967 128.67 443.232C127.372 444.715 129.597 447.033 130.895 445.457Z" fill="white"/>
<path d="M157.223 436.835L169.367 427.843L167.049 426.452C167.049 429.234 166.4 433.498 167.42 436.093C167.474 436.295 167.567 436.484 167.694 436.649C167.821 436.814 167.98 436.953 168.161 437.056C168.342 437.16 168.542 437.226 168.749 437.252C168.956 437.278 169.166 437.262 169.367 437.206C171.962 436.557 174.465 434.054 176.69 432.478C178.915 430.902 181.696 429.048 183.643 426.545C185.59 424.042 182.716 422.744 181.418 424.32C180.12 425.896 177.432 428.121 175.022 429.79C172.611 431.458 170.665 433.59 168.533 434.147L170.479 435.259C169.552 432.942 170.201 428.955 170.201 426.452C170.211 426.167 170.143 425.884 170.004 425.634C169.865 425.384 169.661 425.176 169.414 425.033C169.166 424.89 168.884 424.818 168.598 424.823C168.312 424.828 168.033 424.91 167.791 425.062L155.647 434.054C154.071 435.259 155.647 438.04 157.223 436.835Z" fill="white"/>
<path d="M397.785 326.241H320.935C316.225 326.241 312.406 330.059 312.406 334.769V385.858C312.406 390.568 316.225 394.386 320.935 394.386H397.785C402.495 394.386 406.314 390.568 406.314 385.858V334.769C406.314 330.059 402.495 326.241 397.785 326.241Z" fill="#80A5AE"/>
<path d="M193.192 419.407L193.007 442.86C192.994 443.506 193.109 444.147 193.345 444.748C193.581 445.349 193.932 445.897 194.38 446.362C194.828 446.827 195.363 447.199 195.954 447.457C196.546 447.715 197.182 447.854 197.827 447.866L244.364 448.423C245.356 448.423 246.309 448.035 247.019 447.342C247.729 446.649 248.14 445.706 248.165 444.714C248.535 430.809 245.94 417.831 232.034 419.592L193.192 419.407Z" fill="#090909"/>
<path d="M193.749 440.173C196.622 436.928 201.628 440.729 204.873 440.822C208.117 440.915 208.488 439.895 210.62 439.153C216.461 437.207 220.91 441.193 226.565 440.637C232.22 440.08 236.484 437.021 242.603 439.339C247.052 441.007 250.76 439.71 254.839 437.67C256.693 436.836 255.117 434.055 253.263 434.982C251.409 435.909 247.979 437.485 245.198 436.928C243.808 436.65 242.417 435.723 241.027 435.353C239.298 434.921 237.498 434.858 235.743 435.167C233.332 435.538 231.108 436.465 228.697 437.021C226.287 437.577 222.672 436.743 219.242 435.816C217.154 435.276 214.981 435.15 212.845 435.445C209.786 435.816 206.912 437.67 203.853 437.577C200.794 437.485 198.662 435.26 195.695 435.631C194.865 435.711 194.06 435.957 193.327 436.356C192.595 436.754 191.95 437.295 191.431 437.948C190.133 439.431 192.358 441.656 193.749 440.173Z" fill="white"/>
<path d="M229.808 421.169V428.029C229.808 429.327 229.53 431.366 231.199 431.923C232.868 432.479 234.351 430.718 235.463 429.883L241.489 425.712C243.157 424.506 241.582 421.818 239.913 422.931L235.371 426.082L233.238 427.566L232.033 428.4C231.384 428.863 231.199 428.956 231.662 428.771L233.053 429.605C232.96 429.976 232.96 429.883 232.96 429.049V421.169C232.96 420.751 232.794 420.35 232.499 420.055C232.203 419.759 231.802 419.593 231.384 419.593C230.966 419.593 230.566 419.759 230.27 420.055C229.974 420.35 229.808 420.751 229.808 421.169Z" fill="white"/>
<path d="M220.075 431.458C224.061 428.491 228.14 425.432 232.219 422.558C233.795 421.353 232.219 418.572 230.55 419.777L218.406 428.77C216.83 429.975 218.406 432.663 220.075 431.458Z" fill="white"/>
<path d="M182.995 108.391H195.139C197.828 108.391 199.404 108.298 200.423 110.987C201.443 113.675 201.258 116.085 201.258 118.403C201.258 120.72 201.258 120.257 201.258 121.184C201.258 122.111 201.721 122.296 200.794 122.76C199.867 123.223 196.252 122.76 194.861 122.76C190.692 122.513 186.511 122.544 182.346 122.853C180.585 123.038 180.585 125.819 182.346 125.634C185.771 125.387 189.206 125.325 192.636 125.448C195.51 125.541 198.755 126.097 201.536 125.541C204.317 124.985 204.224 120.535 204.039 117.661C203.853 114.787 203.946 107.557 201.072 105.795C198.199 104.034 195.696 105.61 193.656 105.61H182.995C182.627 105.61 182.273 105.756 182.012 106.017C181.751 106.278 181.605 106.632 181.605 107C181.605 107.369 181.751 107.723 182.012 107.984C182.273 108.245 182.627 108.391 182.995 108.391Z" fill="white"/>
<path d="M180.677 107.371C180.492 112.841 180.492 118.31 180.584 123.779C180.677 125.541 183.458 125.541 183.365 123.779C183.273 118.31 183.273 112.841 183.458 107.371C183.551 105.517 180.77 105.61 180.677 107.371Z" fill="white"/>
<path d="M182.346 114.603L201.257 114.139C201.626 114.139 201.979 113.993 202.24 113.732C202.501 113.471 202.647 113.118 202.647 112.749C202.647 112.38 202.501 112.026 202.24 111.766C201.979 111.505 201.626 111.358 201.257 111.358L182.346 111.822C180.492 111.915 180.492 114.696 182.346 114.603Z" fill="white"/>
<path d="M251.779 128.415L264.943 122.39C266.612 121.648 265.221 119.238 263.552 119.979L250.296 126.005C248.72 126.747 250.111 129.157 251.779 128.415Z" fill="#CBC7DB"/>
<path d="M173.539 137.593C163.898 136.11 154.906 134.812 146.656 129.064C145.172 128.045 143.782 130.455 145.265 131.474C153.701 137.315 162.878 138.705 172.798 140.281C174.559 140.559 175.3 137.871 173.539 137.593Z" fill="#CBC7DB"/>
<path d="M390.739 330.97H327.98C323.27 330.97 319.451 334.789 319.451 339.499V380.334C319.451 385.044 323.27 388.863 327.98 388.863H390.739C395.449 388.863 399.268 385.044 399.268 380.334V339.499C399.268 334.789 395.449 330.97 390.739 330.97Z" fill="#CBC7DB"/>
<path d="M395.559 393.543L316.206 392.801C315.816 392.78 315.428 392.877 315.094 393.079L277.457 415.513C277.086 415.765 276.804 416.128 276.651 416.55C276.498 416.972 276.482 417.431 276.605 417.862C276.729 418.293 276.985 418.675 277.337 418.952C277.69 419.229 278.121 419.388 278.569 419.407H359.869C362.119 419.416 364.319 418.737 366.173 417.46L396.672 397.344C397.066 397.114 397.372 396.76 397.541 396.336C397.71 395.913 397.732 395.445 397.604 395.007C397.476 394.57 397.205 394.188 396.834 393.922C396.464 393.657 396.015 393.523 395.559 393.543Z" fill="#80A5AE"/>
<path d="M325.941 342.464H367.843C369.604 342.557 369.604 339.776 367.843 339.683H325.941C325.573 339.683 325.219 339.83 324.958 340.09C324.697 340.351 324.551 340.705 324.551 341.074C324.551 341.442 324.697 341.796 324.958 342.057C325.219 342.318 325.573 342.464 325.941 342.464Z" fill="#090909"/>
<path d="M325.756 356.394H387.588C387.957 356.394 388.311 356.247 388.571 355.987C388.832 355.726 388.979 355.372 388.979 355.003C388.979 354.635 388.832 354.281 388.571 354.02C388.311 353.759 387.957 353.613 387.588 353.613H325.756C325.387 353.613 325.033 353.759 324.773 354.02C324.512 354.281 324.365 354.635 324.365 355.003C324.365 355.372 324.512 355.726 324.773 355.987C325.033 356.247 325.387 356.394 325.756 356.394Z" fill="#090909"/>
<path d="M326.127 370.196H392.224C392.592 370.196 392.946 370.05 393.207 369.789C393.467 369.528 393.614 369.174 393.614 368.806C393.614 368.437 393.467 368.083 393.207 367.822C392.946 367.562 392.592 367.415 392.224 367.415H326.127C325.758 367.415 325.404 367.562 325.144 367.822C324.883 368.083 324.736 368.437 324.736 368.806C324.736 369.174 324.883 369.528 325.144 369.789C325.404 370.05 325.758 370.196 326.127 370.196Z" fill="#090909"/>
<path d="M300.725 415.514L340.865 416.627C342.627 416.719 342.627 413.938 340.865 413.846L300.725 412.733C298.964 412.641 298.964 415.422 300.725 415.514Z" fill="white"/>
<path d="M319.73 397.808H324.18C324.549 397.808 324.903 397.662 325.163 397.401C325.424 397.14 325.571 396.787 325.571 396.418C325.571 396.049 325.424 395.695 325.163 395.435C324.903 395.174 324.549 395.027 324.18 395.027H319.73C319.362 395.027 319.008 395.174 318.747 395.435C318.486 395.695 318.34 396.049 318.34 396.418C318.34 396.787 318.486 397.14 318.747 397.401C319.008 397.662 319.362 397.808 319.73 397.808Z" fill="white"/>
<path d="M331.781 398.272L342.998 398.643C343.367 398.643 343.72 398.496 343.981 398.235C344.242 397.975 344.389 397.621 344.389 397.252C344.389 396.883 344.242 396.53 343.981 396.269C343.72 396.008 343.367 395.862 342.998 395.862L331.781 395.491C331.412 395.491 331.059 395.637 330.798 395.898C330.537 396.159 330.391 396.512 330.391 396.881C330.391 397.25 330.537 397.604 330.798 397.865C331.059 398.125 331.412 398.272 331.781 398.272Z" fill="white"/>
<path d="M351.063 399.29C353.126 399.074 355.205 399.043 357.274 399.197C359.128 399.29 359.128 396.509 357.274 396.416C355.205 396.262 353.126 396.293 351.063 396.509C349.302 396.602 349.209 399.383 351.063 399.29Z" fill="white"/>
<path d="M367.751 399.198C370.098 399.043 372.454 399.074 374.796 399.29C376.557 399.476 376.557 396.695 374.796 396.509C372.454 396.293 370.098 396.262 367.751 396.416C365.989 396.509 365.989 399.29 367.751 399.198Z" fill="white"/>
<path d="M320.564 404.111H325.756C326.124 404.111 326.478 403.965 326.739 403.704C327 403.443 327.146 403.089 327.146 402.721C327.146 402.352 327 401.998 326.739 401.737C326.478 401.477 326.124 401.33 325.756 401.33H320.564C320.196 401.33 319.842 401.477 319.581 401.737C319.32 401.998 319.174 402.352 319.174 402.721C319.174 403.089 319.32 403.443 319.581 403.704C319.842 403.965 320.196 404.111 320.564 404.111Z" fill="white"/>
<path d="M337.991 404.113C340.314 403.909 342.655 404.034 344.944 404.484C346.705 404.854 347.446 402.166 345.685 401.795C343.163 401.224 340.564 401.067 337.991 401.332C336.23 401.517 336.23 404.298 337.991 404.113Z" fill="white"/>
<path d="M358.573 405.594L364.135 405.872C365.896 405.965 365.896 403.184 364.135 403.091L358.573 402.813C356.812 402.72 356.812 405.501 358.573 405.594Z" fill="white"/>
<path d="M305.176 407.45H310.923C311.292 407.45 311.646 407.303 311.907 407.042C312.167 406.781 312.314 406.428 312.314 406.059C312.314 405.69 312.167 405.337 311.907 405.076C311.646 404.815 311.292 404.668 310.923 404.668H305.176C304.807 404.668 304.453 404.815 304.192 405.076C303.932 405.337 303.785 405.69 303.785 406.059C303.785 406.428 303.932 406.781 304.192 407.042C304.453 407.303 304.807 407.45 305.176 407.45Z" fill="white"/>
<path d="M326.033 408.561H334.654C335.023 408.561 335.377 408.415 335.638 408.154C335.898 407.893 336.045 407.54 336.045 407.171C336.045 406.802 335.898 406.448 335.638 406.188C335.377 405.927 335.023 405.78 334.654 405.78H326.033C325.664 405.78 325.311 405.927 325.05 406.188C324.789 406.448 324.643 406.802 324.643 407.171C324.643 407.54 324.789 407.893 325.05 408.154C325.311 408.415 325.664 408.561 326.033 408.561Z" fill="white"/>
<path d="M353.103 411.621H359.407C359.776 411.621 360.13 411.475 360.391 411.214C360.651 410.953 360.798 410.6 360.798 410.231C360.798 409.862 360.651 409.508 360.391 409.248C360.13 408.987 359.776 408.84 359.407 408.84H353.103C352.735 408.84 352.381 408.987 352.12 409.248C351.859 409.508 351.713 409.862 351.713 410.231C351.713 410.6 351.859 410.953 352.12 411.214C352.381 411.475 352.735 411.621 353.103 411.621Z" fill="white"/>
<path d="M378.317 336.903C381.747 336.532 385.084 337.088 388.514 337.552C390.276 337.83 391.017 335.141 389.256 334.863C385.64 334.4 381.932 333.751 378.317 334.122C376.556 334.214 376.556 336.995 378.317 336.903Z" fill="white"/>
<path d="M392.871 337.46H393.427C393.796 337.46 394.15 337.313 394.41 337.053C394.671 336.792 394.818 336.438 394.818 336.069C394.818 335.7 394.671 335.347 394.41 335.086C394.15 334.825 393.796 334.679 393.427 334.679H392.871C392.502 334.679 392.148 334.825 391.888 335.086C391.627 335.347 391.48 335.7 391.48 336.069C391.48 336.438 391.627 336.792 391.888 337.053C392.148 337.313 392.502 337.46 392.871 337.46Z" fill="white"/>
<path d="M400.102 333.01C400.819 334.141 401.145 335.476 401.029 336.81C400.937 338.664 403.718 338.664 403.81 336.81C403.947 334.972 403.456 333.143 402.42 331.619C401.493 330.136 399.083 331.526 400.102 333.01Z" fill="white"/>
<path d="M401.865 342.928V356.833C401.865 357.202 402.012 357.555 402.273 357.816C402.533 358.077 402.887 358.224 403.256 358.224C403.625 358.224 403.978 358.077 404.239 357.816C404.5 357.555 404.646 357.202 404.646 356.833V342.928C404.646 342.559 404.5 342.205 404.239 341.944C403.978 341.684 403.625 341.537 403.256 341.537C402.887 341.537 402.533 341.684 402.273 341.944C402.012 342.205 401.865 342.559 401.865 342.928Z" fill="white"/>
<path d="M313.982 372.408C313.796 376.765 313.889 381.029 314.075 385.386C314.167 387.147 316.948 387.147 316.856 385.386C316.67 381.029 316.578 376.765 316.763 372.408C316.763 372.039 316.616 371.685 316.356 371.424C316.095 371.164 315.741 371.017 315.372 371.017C315.004 371.017 314.65 371.164 314.389 371.424C314.128 371.685 313.982 372.039 313.982 372.408Z" fill="white"/>
<path d="M314.91 389.28L315.745 390.392C315.84 390.553 315.966 390.693 316.116 390.804C316.267 390.915 316.438 390.994 316.62 391.037C316.801 391.081 316.99 391.087 317.174 391.056C317.358 391.024 317.534 390.957 317.691 390.856C317.991 390.665 318.206 390.366 318.292 390.021C318.378 389.676 318.329 389.311 318.155 389.002L317.321 387.889C317.129 387.59 316.831 387.375 316.486 387.289C316.141 387.202 315.776 387.251 315.467 387.426C315.301 387.503 315.154 387.615 315.034 387.753C314.915 387.891 314.826 388.053 314.773 388.228C314.721 388.403 314.706 388.588 314.73 388.769C314.753 388.95 314.815 389.124 314.91 389.28Z" fill="white"/>
<path d="M275.604 419.222C275.293 420.511 275.357 421.862 275.789 423.116C275.897 423.478 276.14 423.786 276.467 423.975C276.795 424.165 277.182 424.222 277.55 424.135C277.728 424.083 277.894 423.995 278.037 423.877C278.18 423.759 278.299 423.614 278.385 423.45C278.471 423.286 278.524 423.106 278.54 422.921C278.556 422.737 278.535 422.55 278.478 422.374C278.185 421.605 278.12 420.768 278.292 419.964C278.353 419.609 278.284 419.244 278.096 418.937C277.909 418.631 277.616 418.402 277.272 418.295C277.102 418.239 276.922 418.218 276.743 418.235C276.565 418.252 276.392 418.306 276.235 418.393C276.078 418.48 275.941 418.599 275.832 418.741C275.724 418.884 275.646 419.048 275.604 419.222Z" fill="#090909"/>
<path d="M279.961 424.876L322.048 425.896C335.86 426.174 349.766 426.823 363.486 425.062C365.247 424.876 365.247 422.095 363.486 422.281C349.766 424.042 335.86 423.393 322.048 423.115L279.961 422.095C279.592 422.095 279.238 422.242 278.978 422.502C278.717 422.763 278.57 423.117 278.57 423.486C278.57 423.855 278.717 424.208 278.978 424.469C279.238 424.73 279.592 424.876 279.961 424.876Z" fill="#090909"/>
<path d="M369.325 422.653C372.013 420.613 374.701 418.759 377.482 416.905C380.264 415.051 377.575 413.475 376.092 414.495C374.609 415.515 370.622 418.203 367.934 420.243C365.246 422.282 367.934 423.673 369.325 422.653Z" fill="#090909"/>
<path d="M384.992 412.176C387.959 408.838 392.594 406.984 396.116 404.203C399.552 401.54 402.473 398.273 404.738 394.562C405.665 393.079 403.254 391.688 402.327 393.172C399.749 397.231 396.413 400.756 392.501 403.554C389.349 405.779 385.641 407.262 383.045 410.136C381.84 411.527 383.787 413.473 384.992 412.176Z" fill="#090909"/>
<path d="M321.4 49.2479C321.107 50.775 321.044 52.3373 321.214 53.883C321.771 61.5773 329.187 66.8613 335.954 69.1788C342.721 71.4964 351.343 70.7548 358.481 70.0132C366.689 69.3834 374.723 67.3123 382.212 63.8947C388.238 61.021 395.469 57.4056 399.826 52.1216C404.183 46.8376 404.646 37.2893 400.289 30.7074C395.932 24.1256 390.648 18.9342 383.603 18.378C375.571 17.9608 367.521 18.0538 359.5 18.6561C351.25 19.027 343.834 20.6029 337.159 25.7015C333.182 28.9202 329.658 32.6623 326.684 36.8258C323.952 40.4828 322.139 44.7433 321.4 49.2479Z" fill="#CBC7DB"/>
<path d="M324.83 59.1671C331.319 48.4137 339.847 40.8122 352.548 39.0508C354.309 38.7727 353.567 36.0843 351.806 36.3624C338.457 38.2165 329.279 46.4669 322.419 57.7766C321.492 59.2598 323.903 60.6504 324.83 59.1671Z" fill="#090909"/>
<path d="M345.129 30.3357C350.181 35.5554 353.901 41.9148 355.975 48.8761C356.532 50.6374 359.22 49.8958 358.664 48.1344C356.47 40.7056 352.492 33.9267 347.076 28.3889C345.871 27.0911 343.924 29.0378 345.129 30.3357Z" fill="#090909"/>
<path d="M358.201 54.9943C358.697 56.7807 359.008 58.6136 359.128 60.4638C359.313 62.2251 362.095 62.2251 361.909 60.4638C361.803 58.3617 361.461 56.2784 360.89 54.2528C360.519 52.4914 357.83 53.233 358.201 54.9943Z" fill="#090909"/>
<path d="M338.363 62.5031C349.195 65.1422 360.559 64.595 371.087 60.9272C380.543 57.5899 391.204 51.3789 396.117 42.2941C396.208 42.1358 396.267 41.9611 396.291 41.78C396.315 41.5988 396.303 41.4147 396.255 41.2383C396.208 41.0618 396.127 40.8964 396.015 40.7515C395.904 40.6065 395.765 40.4849 395.607 40.3936C395.449 40.3023 395.274 40.2432 395.093 40.2194C394.912 40.1956 394.728 40.2077 394.551 40.255C394.375 40.3024 394.209 40.384 394.064 40.4953C393.919 40.6065 393.798 40.7453 393.707 40.9035C388.979 49.7103 378.318 55.7359 368.955 58.7023C359.304 61.8503 348.964 62.2357 339.105 59.8148C338.929 59.7661 338.744 59.7526 338.562 59.7752C338.381 59.7978 338.205 59.8559 338.046 59.9463C337.887 60.0367 337.747 60.1575 337.634 60.302C337.522 60.4464 337.439 60.6116 337.39 60.7881C337.341 60.9646 337.328 61.149 337.35 61.3307C337.373 61.5125 337.431 61.688 337.521 61.8472C337.612 62.0065 337.733 62.1463 337.877 62.2589C338.022 62.3714 338.187 62.4544 338.363 62.5031Z" fill="white"/>
<path d="M329.092 58.9823L331.873 60.3728C332.207 60.544 332.594 60.5817 332.956 60.4785C333.317 60.3752 333.626 60.1387 333.819 59.8166C333.915 59.6608 333.976 59.4866 334 59.3055C334.024 59.1243 334.009 58.9401 333.956 58.7651C333.904 58.5901 333.815 58.4281 333.695 58.2898C333.576 58.1515 333.429 58.04 333.263 57.9626L330.575 56.572C330.24 56.4009 329.853 56.363 329.492 56.4662C329.13 56.5695 328.822 56.8061 328.628 57.1282C328.454 57.438 328.405 57.8027 328.491 58.1475C328.577 58.4923 328.792 58.791 329.092 58.9823Z" fill="white"/>
<path d="M330.02 41.5533C331.616 39.1708 333.663 37.1238 336.046 35.5277C337.529 34.508 336.138 32.0977 334.655 33.1175C331.908 35.0304 329.523 37.4158 327.61 40.1628C326.59 41.6461 329 43.0366 330.02 41.5533Z" fill="white"/>
<path d="M302.674 400.496C304.561 393.238 305.001 385.679 303.967 378.251C302.933 370.823 300.446 363.671 296.648 357.204C288.398 343.206 274.678 334.492 259.196 330.599C241.212 326.149 222.301 327.076 203.946 327.076C193.192 327.169 182.346 327.261 171.593 327.169C160.839 327.076 150.735 326.334 141.557 321.514C132.38 316.693 125.056 308.35 125.149 297.875C125.334 284.618 136.737 275.163 149.622 275.997C151.384 276.09 151.384 273.309 149.622 273.216C132.936 272.104 119.123 287.214 123.017 303.808C126.91 320.401 144.802 327.725 160.098 329.301C170.944 330.506 181.975 329.95 192.914 329.95C203.853 329.95 214.885 329.764 225.916 329.95C245.291 330.135 266.798 331.896 282.465 344.782C298.131 357.668 305.269 380.009 299.985 399.755C299.887 400.111 299.934 400.492 300.117 400.814C300.299 401.135 300.602 401.371 300.959 401.469C301.315 401.568 301.696 401.521 302.018 401.338C302.339 401.155 302.575 400.853 302.674 400.496Z" fill="#090909"/>
<path d="M145.821 110.895C130.154 111.822 115.878 125.45 116.156 141.58C116.342 149.367 121.255 154.187 128.578 156.041C138.776 158.637 150.085 158.266 160.468 158.359C185.127 158.452 209.786 155.949 234.444 156.412C244.271 156.505 254.561 157.246 263.553 161.418C274.028 166.331 279.405 175.601 282.927 186.262C287.099 198.87 289.973 212.775 285.894 225.753C281.815 238.732 271.062 247.816 257.342 248.558C255.58 248.651 255.58 251.432 257.342 251.339C276.716 250.319 289.139 234.56 290.529 216.112C291.271 205.266 288.675 194.235 285.152 184.037C282.186 175.694 278.107 167.722 270.784 162.438C254.746 150.85 231.292 153.26 212.752 153.816C188.742 154.651 164.732 156.69 140.63 154.836C134.882 154.373 127.93 154.187 123.109 150.572C118.288 146.956 118.381 138.799 120.421 133.051C122.325 127.71 125.738 123.036 130.247 119.597C134.756 116.157 140.166 114.101 145.821 113.676C147.582 113.584 147.582 110.803 145.821 110.895Z" fill="#090909"/>
<path d="M323.346 57.7769C316.115 56.3864 309.162 58.3332 302.58 61.3923C295.999 64.4515 290.251 67.8815 286.543 73.4436C282.835 79.0057 282.093 84.5679 285.06 89.7592C288.026 94.9505 293.866 97.9169 298.872 100.976C305.64 105.055 312.407 110.617 314.446 118.59C315.45 122.555 315.216 126.734 313.774 130.562C312.332 134.391 309.752 137.686 306.381 140.004C303.053 142.107 299.184 143.192 295.248 143.126C291.312 143.06 287.481 141.846 284.225 139.633C280.146 136.759 277.458 132.309 274.677 128.231C271.896 124.152 269.578 120.722 266.983 116.921C265.963 115.438 263.553 116.828 264.573 118.312C272.36 129.807 279.776 146.122 295.906 145.844C308.606 145.751 318.618 134.72 317.876 122.02C317.413 115.623 314.075 109.968 309.626 105.519C305.176 101.069 297.204 97.6389 291.456 92.9111C271.896 76.8736 308.421 57.7769 322.604 60.4653C324.365 60.7434 325.107 58.055 323.346 57.7769Z" fill="#090909"/>
<path d="M107.164 31.3553C114.581 39.4204 116.435 49.8958 119.03 60.2785C119.129 60.635 119.365 60.9377 119.686 61.1203C120.008 61.3028 120.389 61.3501 120.745 61.2518C121.102 61.1534 121.405 60.9175 121.587 60.5959C121.77 60.2743 121.817 59.8933 121.719 59.5368C119.03 48.598 116.991 37.8445 109.111 29.4086C107.906 28.0181 105.959 30.0575 107.164 31.3553Z" fill="#090909"/>
<path d="M114.302 25.1453C123.572 30.6147 126.075 41.1828 128.3 51.0092C128.67 52.6779 131.359 51.9362 130.988 50.2676C128.67 39.6995 125.611 28.5753 115.692 22.7351C115.372 22.5507 114.993 22.5007 114.636 22.5963C114.28 22.692 113.976 22.9252 113.792 23.2449C113.607 23.5645 113.557 23.9443 113.653 24.3007C113.749 24.6571 113.982 24.9609 114.302 25.1453Z" fill="#090909"/>
<path d="M105.403 43.0367C113.375 38.4943 121.44 34.2301 129.691 30.2439C131.267 29.4095 129.876 26.9993 128.3 27.8336C120.05 31.8198 111.985 36.0841 104.012 40.6265C103.693 40.8109 103.46 41.1147 103.364 41.4711C103.268 41.8275 103.318 42.2073 103.503 42.5269C103.687 42.8465 103.991 43.0798 104.347 43.1754C104.703 43.271 105.083 43.2211 105.403 43.0367Z" fill="#090909"/>
<path d="M109.852 48.5054C117.204 45.6094 124.357 42.2339 131.266 38.4009C131.425 38.3035 131.562 38.176 131.671 38.0254C131.78 37.8749 131.858 37.7043 131.901 37.5235C131.944 37.3428 131.951 37.1552 131.922 36.9718C131.893 36.7883 131.827 36.6124 131.73 36.4542C131.632 36.2959 131.505 36.1584 131.354 36.0495C131.204 35.9406 131.033 35.8623 130.852 35.8192C130.672 35.7762 130.484 35.7692 130.301 35.7986C130.117 35.828 129.941 35.8933 129.783 35.9907C123.123 39.7303 116.216 43.0133 109.11 45.8171C107.442 46.466 108.184 49.1544 109.852 48.5054Z" fill="#090909"/>
<path d="M299.52 292.405C298.46 281.031 300.21 269.571 304.619 259.032C305.268 257.364 302.579 256.622 301.93 258.291C297.49 269.081 295.709 280.782 296.739 292.405C296.924 294.166 299.705 294.166 299.52 292.405Z" fill="#090909"/>
<path d="M315.28 287.121C314.167 280.91 316.3 274.977 318.246 269.136L323.438 253.841C323.994 252.079 321.306 251.43 320.749 253.099C318.617 259.31 316.485 265.521 314.446 271.732C312.406 277.943 311.572 282.3 312.591 287.862C312.87 289.624 315.558 288.882 315.28 287.121Z" fill="#090909"/>
<path d="M292.011 291.201L328.721 271.085C330.297 270.25 328.906 267.84 327.33 268.674L290.62 288.791C289.044 289.718 290.528 292.035 292.011 291.201Z" fill="#090909"/>
<path d="M291.826 277.018C302.659 271.168 313.799 265.908 325.199 261.258C326.775 260.517 326.126 257.828 324.457 258.57C312.869 263.391 301.56 268.675 290.435 274.608C288.859 275.442 290.25 277.852 291.826 277.018Z" fill="#090909"/>
<path d="M348.282 212.033C349.156 205.701 350.363 199.42 351.897 193.214C352.524 190.455 353.392 187.756 354.493 185.149C355.047 183.687 355.697 182.262 356.44 180.885C356.996 179.865 358.572 178.104 358.664 176.992C358.757 175.879 356.625 174.767 355.513 175.694C354.4 176.621 354.307 178.66 353.844 179.587L349.394 188.394C346.43 194.23 342.988 199.811 339.104 205.08C336.694 208.047 336.231 211.94 339.104 214.907C341.978 217.873 346.613 217.781 348.931 214.907C355.095 206.775 360.377 198.012 364.69 188.765C366.915 184.5 369.789 179.68 369.603 174.674C369.418 169.668 366.73 165.218 362.28 163.364C351.804 159.007 345.408 171.151 342.071 178.938C338.085 188.301 336.509 198.313 334.933 208.325C334.284 212.033 335.86 215.741 339.753 216.853C343.647 217.966 347.725 215.741 348.282 212.033Z" fill="#CBC7DB"/>
<path d="M334.655 237.805C343.554 237.805 343.554 223.899 334.655 223.899C325.755 223.899 325.663 237.805 334.655 237.805Z" fill="#CBC7DB"/>
<path d="M79.8159 128.509C75.7748 125.731 72.8253 121.634 71.4727 116.921C70.4917 113.914 69.8694 110.803 69.6187 107.651C69.4333 105.889 69.3405 104.128 69.2478 102.459V100.698C69.4332 98.9365 69.1551 99.1219 68.3208 101.161L64.7982 102.181H66.0033L62.4806 101.254C66.1887 103.108 67.3939 111.915 67.9501 115.53C68.9698 121.37 69.2478 127.396 69.7113 133.236C70.3603 142.136 84.2656 142.228 83.6167 133.236C82.9678 124.244 82.597 113.027 79.3524 103.572C76.7567 95.97 68.4135 81.8793 58.9579 90.686C55.6206 93.7452 55.2499 98.1949 55.4353 102.459C55.5692 107.702 56.2212 112.919 57.382 118.033C59.6996 127.303 64.7982 135.461 72.8632 140.56C80.9283 145.658 87.5102 133.329 79.9086 128.509H79.8159Z" fill="#090909"/>
<path d="M82.6913 161.139C91.6835 161.139 91.6835 147.233 82.6913 147.233C73.6992 147.233 73.6992 161.139 82.6913 161.139Z" fill="#090909"/>
<path d="M34.6704 360.264C34.186 360.241 33.7274 360.038 33.3845 359.696C33.0415 359.353 32.839 358.894 32.8164 358.41C32.8164 357.918 33.0118 357.446 33.3595 357.099C33.7072 356.751 34.1787 356.556 34.6704 356.556L137.199 355.721C137.691 355.721 138.162 355.917 138.51 356.264C138.858 356.612 139.053 357.084 139.053 357.575C139.053 358.067 138.858 358.539 138.51 358.886C138.162 359.234 137.691 359.429 137.199 359.429L34.7631 360.264H34.6704Z" fill="#090909"/>
<path d="M371.086 310.945H255.301C254.81 310.945 254.338 310.75 253.99 310.402C253.643 310.055 253.447 309.583 253.447 309.091C253.447 308.6 253.643 308.128 253.99 307.78C254.338 307.433 254.81 307.237 255.301 307.237H371.086C371.578 307.237 372.05 307.433 372.397 307.78C372.745 308.128 372.94 308.6 372.94 309.091C372.94 309.583 372.745 310.055 372.397 310.402C372.05 310.75 371.578 310.945 371.086 310.945Z" fill="#090909"/>
<path d="M133.307 377.414H62.1119C61.6201 377.414 61.1486 377.218 60.8009 376.871C60.4532 376.523 60.2578 376.051 60.2578 375.56C60.2578 375.068 60.4532 374.596 60.8009 374.249C61.1486 373.901 61.6201 373.706 62.1119 373.706H133.307C133.799 373.706 134.27 373.901 134.618 374.249C134.966 374.596 135.161 375.068 135.161 375.56C135.161 376.051 134.966 376.523 134.618 376.871C134.27 377.218 133.799 377.414 133.307 377.414Z" fill="#090909"/>
<path d="M85.565 313.263C85.0889 313.264 84.6309 313.082 84.2857 312.754C83.9406 312.426 83.7348 311.978 83.711 311.502C83.7088 311.016 83.8882 310.547 84.2141 310.187C84.54 309.827 84.9887 309.602 85.4722 309.555L141.835 307.238C142.079 307.225 142.322 307.261 142.552 307.343C142.782 307.425 142.993 307.551 143.174 307.715C143.355 307.878 143.502 308.076 143.606 308.296C143.71 308.517 143.77 308.756 143.782 308.999C143.784 309.485 143.605 309.954 143.279 310.314C142.953 310.674 142.504 310.9 142.021 310.946L85.6577 313.263H85.565Z" fill="#090909"/>
<path d="M460.36 377.414H413.36C412.868 377.414 412.397 377.218 412.049 376.871C411.701 376.523 411.506 376.051 411.506 375.56C411.506 375.068 411.701 374.596 412.049 374.249C412.397 373.901 412.868 373.706 413.36 373.706H460.36C460.852 373.706 461.323 373.901 461.671 374.249C462.019 374.596 462.214 375.068 462.214 375.56C462.214 376.051 462.019 376.523 461.671 376.871C461.323 377.218 460.852 377.414 460.36 377.414Z" fill="#090909"/>
<path d="M468.146 385.294H428.284C427.792 385.294 427.32 385.099 426.973 384.751C426.625 384.403 426.43 383.932 426.43 383.44C426.43 382.948 426.625 382.477 426.973 382.129C427.32 381.781 427.792 381.586 428.284 381.586H468.146C468.637 381.586 469.109 381.781 469.457 382.129C469.804 382.477 470 382.948 470 383.44C470 383.932 469.804 384.403 469.457 384.751C469.109 385.099 468.637 385.294 468.146 385.294Z" fill="#090909"/>
<path d="M406.315 310.945H378.133C377.642 310.945 377.17 310.75 376.822 310.402C376.475 310.055 376.279 309.583 376.279 309.091C376.279 308.6 376.475 308.128 376.822 307.78C377.17 307.433 377.642 307.237 378.133 307.237H406.315C406.807 307.237 407.278 307.433 407.626 307.78C407.974 308.128 408.169 308.6 408.169 309.091C408.169 309.583 407.974 310.055 407.626 310.402C407.278 310.75 406.807 310.945 406.315 310.945Z" fill="#090909"/>
<path d="M76.2017 313.263H59.7935C59.3018 313.263 58.8302 313.068 58.4825 312.72C58.1348 312.372 57.9395 311.9 57.9395 311.409C57.9395 310.917 58.1348 310.445 58.4825 310.098C58.8302 309.75 59.3018 309.555 59.7935 309.555H76.2017C76.6935 309.555 77.1651 309.75 77.5128 310.098C77.8605 310.445 78.0558 310.917 78.0558 311.409C78.0558 311.9 77.8605 312.372 77.5128 312.72C77.1651 313.068 76.6935 313.263 76.2017 313.263Z" fill="#090909"/>
<path d="M52.7472 377.414H43.2915C42.7998 377.414 42.3283 377.218 41.9806 376.871C41.6329 376.523 41.4375 376.051 41.4375 375.56C41.4375 375.068 41.6329 374.596 41.9806 374.249C42.3283 373.901 42.7998 373.706 43.2915 373.706H52.7472C53.239 373.706 53.7105 373.901 54.0582 374.249C54.4059 374.596 54.6013 375.068 54.6013 375.56C54.6013 376.051 54.4059 376.523 54.0582 376.871C53.7105 377.218 53.239 377.414 52.7472 377.414Z" fill="#090909"/>
<path d="M89.3653 216.482L84.174 199.517C83.8359 198.42 83.2841 197.4 82.5505 196.516C81.8169 195.633 80.916 194.903 79.8994 194.369C78.8829 193.835 77.7708 193.507 76.6271 193.404C75.4834 193.301 74.3307 193.425 73.2351 193.77L40.604 203.781C39.4996 204.109 38.4719 204.654 37.5817 205.385C36.6915 206.116 35.9568 207.018 35.4211 208.037C34.8853 209.057 34.5592 210.174 34.4622 211.322C34.3653 212.469 34.4993 213.625 34.8564 214.72L40.0477 231.685C40.7137 233.855 42.2006 235.68 44.1917 236.771C46.1828 237.861 48.5208 238.132 50.7084 237.525C51.5266 237.519 52.3297 237.744 53.026 238.174C54.31 239.028 55.5195 239.99 56.6414 241.048C56.8097 241.209 57.0212 241.319 57.2504 241.362C57.4796 241.406 57.7166 241.382 57.9326 241.294C58.1485 241.206 58.3342 241.056 58.467 240.865C58.5999 240.673 58.6742 240.447 58.6809 240.213C58.6877 238.344 59.0332 236.491 59.7006 234.744L83.6177 227.328C84.7116 227 85.7295 226.458 86.6122 225.733C87.4949 225.008 88.2247 224.116 88.7594 223.106C89.2942 222.097 89.6231 220.992 89.7271 219.855C89.8311 218.718 89.7081 217.571 89.3653 216.482Z" fill="#CBC7DB"/>
<path d="M58.7731 215.742C56.1774 214.629 55.4358 209.531 57.9387 208.14C60.4417 206.749 64.057 208.325 64.1497 211.292C64.2424 214.258 62.6666 215 61.925 217.039C61.3236 218.718 61.3236 220.552 61.925 222.231C62.3885 223.899 65.0768 223.158 64.6132 221.489C64.1497 219.82 65.5403 216.947 66.4673 214.351C67.0244 212.677 67.1205 210.884 66.7454 209.16C66.1892 206.008 62.2957 204.803 59.4219 204.988C56.5482 205.174 54.0453 206.657 53.6745 209.623C53.3036 212.59 54.3234 216.854 57.2899 218.152C60.2563 219.45 60.349 216.483 58.7731 215.742Z" fill="#090909"/>
<path d="M65.078 228.348C65.4468 228.348 65.8005 228.201 66.0613 227.941C66.3221 227.68 66.4686 227.326 66.4686 226.957C66.4686 226.589 66.3221 226.235 66.0613 225.974C65.8005 225.713 65.4468 225.567 65.078 225.567C64.7092 225.567 64.3555 225.713 64.0948 225.974C63.834 226.235 63.6875 226.589 63.6875 226.957C63.6875 227.326 63.834 227.68 64.0948 227.941C64.3555 228.201 64.7092 228.348 65.078 228.348Z" fill="#090909"/>
<path d="M291.919 402.906C290.181 399.415 287.734 396.325 284.732 393.835C281.731 391.344 278.243 389.509 274.491 388.445C272.73 387.889 271.988 390.577 273.749 391.133C277.169 392.093 280.343 393.773 283.061 396.059C285.779 398.345 287.977 401.185 289.509 404.39C290.343 405.966 292.753 404.575 291.919 402.906Z" fill="#090909"/>
<path d="M414.751 323.183L419.293 315.303C419.49 314.984 419.551 314.599 419.465 314.234C419.378 313.869 419.149 313.553 418.83 313.356C418.51 313.16 418.125 313.098 417.76 313.185C417.395 313.272 417.08 313.5 416.883 313.82L412.341 321.792C412.156 322.112 412.106 322.492 412.202 322.848C412.297 323.204 412.531 323.508 412.85 323.693C413.17 323.877 413.55 323.927 413.906 323.831C414.263 323.736 414.566 323.502 414.751 323.183Z" fill="#090909"/>
<path d="M420.776 324.573L427.821 322.997C429.583 322.534 428.841 319.938 427.08 320.309L420.035 321.885C418.273 322.256 419.015 324.944 420.776 324.573Z" fill="#090909"/>
<path d="M414.75 30.2442C416.546 35.2283 417.237 40.5434 416.773 45.821C416.31 51.0985 414.704 56.212 412.067 60.8069C409.43 65.4018 405.825 69.368 401.502 72.4305C397.179 75.493 392.242 77.5784 387.032 78.542C385.271 78.9129 386.013 81.6012 387.774 81.2304C393.336 80.1664 398.602 77.913 403.212 74.6247C407.823 71.3364 411.668 67.0909 414.485 62.1786C417.302 57.2663 419.025 51.8033 419.534 46.1635C420.044 40.5237 419.329 34.8404 417.439 29.5026C416.883 27.8339 414.194 28.5756 414.75 30.2442Z" fill="#090909"/>
<path d="M424.206 60.742C422.445 71.2174 413.174 78.6335 404.646 84.1029C395.726 89.8816 385.832 93.9961 375.445 96.2469C373.683 96.6177 374.425 99.3061 376.186 98.9353C387.87 96.4259 398.933 91.6033 408.725 84.7518C416.79 79.0042 425.133 71.7735 426.894 61.4836C427.265 59.7222 424.577 58.9807 424.206 60.742Z" fill="#090909"/>
<path d="M121.997 213.515L135.253 208.046C136.922 207.397 136.18 204.709 134.511 205.358L121.255 210.827C119.586 211.569 120.328 214.257 121.997 213.515Z" fill="#090909"/>
<path d="M127.002 202.484H135.623C135.992 202.484 136.346 202.337 136.606 202.076C136.867 201.816 137.014 201.462 137.014 201.093C137.014 200.724 136.867 200.371 136.606 200.11C136.346 199.849 135.992 199.703 135.623 199.703H127.002C126.633 199.703 126.279 199.849 126.019 200.11C125.758 200.371 125.611 200.724 125.611 201.093C125.611 201.462 125.758 201.816 126.019 202.076C126.279 202.337 126.633 202.484 127.002 202.484Z" fill="#090909"/>
<path d="M360.703 173.468C357.915 180.916 354.374 188.06 350.135 194.789C349.951 195.109 349.901 195.489 349.997 195.845C350.092 196.202 350.326 196.505 350.645 196.69C350.965 196.874 351.345 196.924 351.701 196.829C352.057 196.733 352.361 196.5 352.546 196.18C356.895 189.242 360.529 181.881 363.392 174.209C364.041 172.541 361.352 171.799 360.703 173.468Z" fill="white"/>
<path d="M335.953 232.983C336.322 232.983 336.676 232.837 336.936 232.576C337.197 232.315 337.344 231.961 337.344 231.593C337.344 231.224 337.197 230.87 336.936 230.609C336.676 230.349 336.322 230.202 335.953 230.202C335.584 230.202 335.231 230.349 334.97 230.609C334.709 230.87 334.562 231.224 334.562 231.593C334.562 231.961 334.709 232.315 334.97 232.576C335.231 232.837 335.584 232.983 335.953 232.983Z" fill="white"/>
<path d="M66.6515 102.273L71.7501 118.496C72.3063 120.257 74.9947 119.515 74.4385 117.754L69.3399 101.531C68.7837 99.7697 66.0953 100.511 66.6515 102.273Z" fill="white"/>
<path d="M83.246 154.001C83.6148 154.001 83.9685 153.855 84.2293 153.594C84.49 153.333 84.6365 152.98 84.6365 152.611C84.6365 152.242 84.49 151.888 84.2293 151.627C83.9685 151.367 83.6148 151.22 83.246 151.22C82.8772 151.22 82.5235 151.367 82.2627 151.627C82.002 151.888 81.8555 152.242 81.8555 152.611C81.8555 152.98 82.002 153.333 82.2627 153.594C82.5235 153.855 82.8772 154.001 83.246 154.001Z" fill="white"/>
<path d="M64.0562 202.484L70.638 200.445C72.8629 199.796 75.8294 198.405 78.2397 198.869C80.6499 199.332 80.7426 196.458 78.9812 196.18C77.2199 195.902 74.4388 196.458 72.0286 197.107L63.3146 199.796C62.9581 199.894 62.6553 200.13 62.4727 200.452C62.2902 200.773 62.2429 201.154 62.3412 201.511C62.4396 201.867 62.6755 202.17 62.9971 202.353C63.3187 202.535 63.6997 202.582 64.0562 202.484Z" fill="white"/>
<path d="M80.0024 203.04L80.3731 204.152C80.4813 204.515 80.7239 204.823 81.0513 205.012C81.3787 205.202 81.7662 205.259 82.1345 205.172C82.3123 205.119 82.4778 205.032 82.6211 204.914C82.7644 204.796 82.8828 204.651 82.9692 204.487C83.0556 204.323 83.1082 204.143 83.1241 203.958C83.14 203.773 83.1186 203.587 83.0615 203.411L82.6907 202.298C82.6028 201.943 82.3783 201.637 82.0659 201.446C81.7535 201.255 81.3785 201.195 81.0221 201.279C80.6596 201.387 80.352 201.63 80.1624 201.957C79.9729 202.284 79.9157 202.672 80.0024 203.04Z" fill="white"/>
<path d="M23.082 334.214V330.506C23.8236 330.228 25.9558 326.89 26.8828 317.805V316.229H28.4587C37.6362 315.488 42.086 313.263 42.4568 312.336H46.1649C46.1649 317.527 35.4114 319.196 30.3127 319.752C29.7565 325.036 27.9025 334.214 23.082 334.214Z" fill="#CBC7DB"/>
<path d="M23.0829 334.214C18.2624 334.214 16.501 325.037 15.852 319.66C10.6607 319.104 0 317.435 0 312.244H3.70809C3.98619 313.171 8.52858 315.396 17.7061 316.137H19.1893L19.3748 317.713C20.2091 326.798 22.4339 330.135 23.1755 330.413L23.0829 334.214Z" fill="#CBC7DB"/>
<path d="M42.5505 312.337C42.2724 311.317 37.73 309.185 28.7379 308.443H27.162V306.775C26.5131 296.948 24.1955 292.128 23.1757 291.757C22.156 291.386 19.8385 296.948 19.2823 306.775V308.443H17.7063C8.62147 309.185 4.17174 311.317 3.89363 312.337H0.185547C0.185547 307.331 10.1047 305.57 15.7596 305.013C16.2231 299.544 17.8917 288.049 23.2684 288.049C28.6451 288.049 30.3138 299.544 30.7773 305.013C36.5248 305.57 46.444 307.331 46.444 312.337H42.7359H42.5505Z" fill="#CBC7DB"/>
<path d="M329.278 163.178C328.786 163.178 328.315 162.982 327.967 162.635C327.619 162.287 327.424 161.815 327.424 161.324C327.431 160.918 327.571 160.527 327.822 160.209C328.074 159.891 328.422 159.664 328.814 159.562C329.185 159.006 329.834 157.337 330.205 154.186V152.702L331.781 152.517C335.211 152.332 337.158 151.59 337.714 151.219C337.8 150.819 338.023 150.461 338.344 150.207C338.666 149.953 339.066 149.819 339.475 149.829C339.967 149.829 340.439 150.024 340.786 150.372C341.134 150.719 341.329 151.191 341.329 151.683C341.329 154.556 336.972 155.669 333.542 156.132C333.171 159.655 331.966 163.178 329.278 163.178Z" fill="#090909"/>
<path d="M329.277 163.178C326.588 163.178 325.476 159.655 324.92 156.133C321.49 155.669 317.133 154.557 317.133 151.683C317.133 148.809 321.397 147.604 324.827 147.233C325.198 143.618 326.218 138.983 329.277 138.983C332.336 138.983 333.448 143.618 333.819 147.233C337.156 147.604 341.421 148.717 341.421 151.683C341.379 152.109 341.192 152.507 340.89 152.81C340.588 153.114 340.19 153.303 339.765 153.347C339.339 153.391 338.911 153.286 338.554 153.05C338.197 152.814 337.933 152.463 337.805 152.054C337.249 151.683 335.395 151.034 331.965 150.756H330.297V149.087C330.257 147.229 329.944 145.386 329.37 143.618C328.841 145.397 328.53 147.234 328.443 149.087V150.756H326.867C325.195 150.849 323.543 151.16 321.953 151.683C323.591 152.125 325.267 152.405 326.959 152.518L328.535 152.703V154.186C328.813 157.338 329.462 159.007 329.833 159.563C330.233 159.649 330.591 159.872 330.845 160.193C331.099 160.515 331.233 160.915 331.224 161.324C331.224 161.576 331.173 161.825 331.074 162.056C330.975 162.287 330.83 162.496 330.648 162.669C330.466 162.842 330.251 162.977 330.015 163.065C329.779 163.152 329.528 163.191 329.277 163.178Z" fill="#090909"/>
<path d="M132.935 235.671C134.291 235.324 135.555 234.689 136.643 233.809C137.731 232.929 138.616 231.825 139.239 230.572C140.073 228.996 137.663 227.513 136.829 229.182C136.378 230.113 135.73 230.936 134.929 231.592C134.129 232.248 133.195 232.723 132.193 232.982C131.837 233.081 131.534 233.317 131.352 233.638C131.169 233.96 131.122 234.341 131.22 234.697C131.318 235.054 131.554 235.357 131.876 235.539C132.198 235.722 132.579 235.769 132.935 235.671Z" fill="#090909"/>
<path d="M143.503 242.994C146.377 241.048 147.489 237.988 148.416 234.837C148.972 233.075 146.284 232.334 145.728 234.095C145.172 235.856 144.245 239.194 142.112 240.677C139.98 242.16 142.02 244.014 143.503 242.994Z" fill="#090909"/>
</svg>
