<svg width="470" height="472" viewBox="0 0 470 472" fill="none" xmlns="http://www.w3.org/2000/svg">
<path d="M379.471 237.937C380.194 237.937 380.909 238.081 381.575 238.36C382.242 238.64 382.846 239.049 383.352 239.564C383.859 240.079 384.258 240.69 384.526 241.361C384.793 242.032 384.925 242.75 384.912 243.472L384.537 294.6C384.513 296.052 383.919 297.436 382.883 298.453C381.848 299.471 380.454 300.041 379.002 300.041L304.703 299.478C303.235 299.478 301.827 298.895 300.789 297.857C299.751 296.819 299.168 295.411 299.168 293.943L299.543 242.816C299.543 242.093 299.687 241.378 299.966 240.712C300.245 240.045 300.655 239.441 301.17 238.935C301.685 238.428 302.296 238.029 302.967 237.761C303.638 237.494 304.356 237.362 305.078 237.375" fill="white"/>
<path d="M379.002 301.917L304.609 301.354C303.636 301.342 302.674 301.138 301.78 300.754C300.885 300.371 300.075 299.814 299.396 299.117C298.716 298.421 298.181 297.597 297.82 296.693C297.459 295.789 297.279 294.823 297.292 293.849L297.667 242.815C297.679 241.842 297.883 240.881 298.267 239.986C298.651 239.092 299.207 238.282 299.904 237.602C300.601 236.923 301.425 236.387 302.328 236.026C303.232 235.665 304.199 235.486 305.172 235.498C305.414 235.498 305.654 235.547 305.876 235.642C306.099 235.737 306.3 235.877 306.467 236.053C306.633 236.228 306.763 236.436 306.846 236.663C306.93 236.891 306.967 237.132 306.954 237.374C306.954 237.872 306.757 238.349 306.405 238.701C306.053 239.053 305.576 239.251 305.078 239.251C304.132 239.254 303.224 239.624 302.545 240.282C302.189 240.601 301.904 240.991 301.71 241.428C301.516 241.865 301.417 242.338 301.419 242.815L301.044 293.943C301.044 294.913 301.43 295.844 302.116 296.53C302.802 297.216 303.732 297.602 304.703 297.602L379.002 298.165C379.977 298.166 380.916 297.797 381.629 297.133C381.966 296.785 382.231 296.374 382.408 295.923C382.586 295.472 382.671 294.99 382.661 294.506L383.036 243.472C383.049 242.996 382.966 242.522 382.792 242.079C382.619 241.636 382.358 241.232 382.026 240.89C381.693 240.549 381.296 240.278 380.857 240.093C380.419 239.908 379.947 239.813 379.471 239.813C378.974 239.813 378.496 239.616 378.145 239.264C377.793 238.912 377.595 238.435 377.595 237.937C377.595 237.44 377.793 236.962 378.145 236.61C378.496 236.259 378.974 236.061 379.471 236.061C380.44 236.061 381.399 236.253 382.293 236.627C383.187 237 383.998 237.548 384.679 238.237C385.36 238.927 385.897 239.744 386.259 240.643C386.621 241.542 386.801 242.503 386.789 243.472L386.413 294.6C386.426 295.562 386.24 296.516 385.869 297.403C385.498 298.291 384.949 299.093 384.256 299.76C383.565 300.447 382.745 300.991 381.844 301.362C380.942 301.732 379.977 301.921 379.002 301.917Z" fill="#80A5AE"/>
<path d="M349.149 268.515L349.201 261.104C349.214 259.239 347.713 257.716 345.847 257.703L336.147 257.635C334.282 257.622 332.76 259.124 332.747 260.989L332.695 268.4C332.682 270.265 334.183 271.788 336.049 271.801L345.749 271.868C347.614 271.881 349.136 270.38 349.149 268.515Z" fill="#82D0E4"/>
<path d="M301.701 265.518C311.381 267.487 321.348 267.582 331.064 265.799C332.847 265.518 332.096 262.797 330.314 263.079C321.094 264.768 311.635 264.672 302.451 262.797C300.669 262.422 299.918 265.142 301.701 265.518Z" fill="#80A5AE"/>
<path d="M373.468 266.643C376.433 266.454 379.41 266.739 382.286 267.488C382.647 267.587 383.032 267.539 383.358 267.355C383.683 267.17 383.922 266.863 384.022 266.503C384.121 266.142 384.073 265.756 383.889 265.431C383.704 265.105 383.397 264.867 383.037 264.767C379.918 263.941 376.687 263.624 373.468 263.829C371.591 263.923 371.591 266.737 373.468 266.643Z" fill="#80A5AE"/>
<path d="M349.827 266.55L358.364 265.799C360.147 265.612 360.24 262.797 358.364 262.985L349.827 263.736C348.045 263.923 347.951 266.738 349.827 266.55Z" fill="#80A5AE"/>
<path d="M354.516 230.713C355.267 231.558 355.079 233.153 355.36 234.278C355.748 235.355 356.392 236.321 357.237 237.093C358.085 237.863 359.12 238.399 360.239 238.646C361.358 238.893 362.522 238.842 363.616 238.5C365.304 237.937 364.554 235.216 362.865 235.779C362.002 236.08 361.059 236.056 360.212 235.71C359.366 235.365 358.675 234.722 358.269 233.903C357.424 232.121 357.987 230.244 356.486 228.65C354.985 227.055 353.203 229.4 354.516 230.713Z" fill="#80A5AE"/>
<path d="M144.001 247.506C143.626 246.662 146.44 244.504 146.909 244.035C147.378 243.566 149.349 241.69 150.568 240.658C151.788 239.626 149.911 237.468 148.598 238.688C146.633 240.341 144.754 242.094 142.969 243.941C141.656 245.442 140.718 246.943 141.562 248.913C142.406 250.883 144.752 249.101 144.001 247.506Z" fill="#80A5AE"/>
<path d="M152.069 251.07C151.975 249.569 153.476 248.537 154.508 247.599L158.542 244.222C159.949 243.096 157.885 241.126 156.572 242.252L151.318 246.661C150.099 247.881 149.067 249.288 149.255 251.07C149.442 252.853 152.163 252.853 152.069 251.07Z" fill="#80A5AE"/>
<path d="M28.8935 316.645L46.0612 315.895C46.0612 315.895 47.2808 312.048 51.0333 297.976C51.3147 296.757 55.3486 293.098 53.9414 292.254H28.8935C28.143 292.254 27.4863 294.974 27.4863 298.164V310.735C27.4863 314.018 28.143 316.645 28.8935 316.645Z" fill="#CBC7DB"/>
<path d="M151.412 201.162L137.059 212.701C133.494 212.701 83.4922 208.667 83.4922 205.478V193.282C83.5283 192.481 83.7221 191.695 84.0624 190.969C84.4027 190.243 84.8828 189.591 85.4754 189.051C86.0679 188.51 86.7612 188.092 87.5156 187.82C88.2699 187.548 89.0704 187.428 89.8714 187.466H182.652C186.123 187.466 193.816 186.809 189.031 193.282L182.652 195.44C165.015 196.096 154.977 201.162 151.412 201.162Z" fill="#CBC7DB"/>
<path d="M420.748 246.755H277.027C282.499 239.867 285.327 231.249 285.001 222.458C284.961 222.152 284.987 221.84 285.077 221.545C285.168 221.25 285.32 220.978 285.525 220.746C285.729 220.515 285.981 220.331 286.263 220.205C286.545 220.08 286.85 220.016 287.159 220.019H420.748C423.938 220.019 426.564 222.927 426.564 226.492V240.282C426.564 243.847 423.938 246.755 420.748 246.755Z" fill="#CBC7DB"/>
<path d="M294.853 187.466H428.629C430.62 187.466 432.528 188.257 433.936 189.664C435.343 191.072 436.134 192.981 436.134 194.971V206.792C436.134 208.782 435.343 210.691 433.936 212.098C432.528 213.506 430.62 214.297 428.629 214.297H287.348V194.971C287.348 192.981 288.138 191.072 289.546 189.664C290.953 188.257 292.862 187.466 294.853 187.466Z" fill="#CBC7DB"/>
<path d="M436.133 191.031H285.752C285.254 191.031 284.777 190.833 284.425 190.481C284.073 190.129 283.876 189.652 283.876 189.155C283.862 188.905 283.901 188.655 283.991 188.421C284.08 188.187 284.218 187.975 284.395 187.798C284.572 187.621 284.784 187.483 285.018 187.394C285.252 187.304 285.502 187.265 285.752 187.278H436.133C436.383 187.265 436.633 187.304 436.867 187.394C437.101 187.483 437.313 187.621 437.49 187.798C437.667 187.975 437.805 188.187 437.894 188.421C437.984 188.655 438.023 188.905 438.009 189.155C438.009 189.652 437.812 190.129 437.46 190.481C437.108 190.833 436.631 191.031 436.133 191.031Z" fill="#80A5AE"/>
<path d="M189.032 189.342H84.2434C83.7458 189.342 83.2686 189.145 82.9168 188.793C82.5649 188.441 82.3672 187.964 82.3672 187.466C82.3672 186.969 82.5649 186.491 82.9168 186.14C83.2686 185.788 83.7458 185.59 84.2434 185.59H189.032C189.529 185.59 190.007 185.788 190.359 186.14C190.71 186.491 190.908 186.969 190.908 187.466C190.908 187.964 190.71 188.441 190.359 188.793C190.007 189.145 189.529 189.342 189.032 189.342Z" fill="#80A5AE"/>
<path d="M122.236 239.907C124.582 221.801 141.749 207.729 157.979 201.725C162.073 200.291 166.277 199.192 170.55 198.442C175.147 197.785 179.743 198.066 184.34 197.504C188.937 196.941 194.566 193.376 192.596 188.31C191.845 186.34 188.749 187.184 189.5 189.154C191.939 195.44 178.618 194.408 175.803 194.689C171.874 194.933 167.978 195.561 164.171 196.565C156.448 198.43 149.113 201.637 142.5 206.04C130.961 213.827 120.923 225.741 119.047 239.907C118.765 241.971 121.955 241.877 122.236 239.907Z" fill="#80A5AE"/>
<path d="M383.88 317.49L172.99 316.271C172.99 316.271 174.585 311.017 184.248 301.261C184.904 300.604 199.633 296.758 201.322 296.758H383.88C388.477 296.758 392.136 299.009 392.136 301.73V312.424C392.136 315.239 388.477 317.49 383.88 317.49Z" fill="#CBC7DB"/>
<path d="M288.097 198.348C288.708 190.721 288.234 183.046 286.69 175.552C285.095 168.141 281.812 162.137 277.778 155.758C273.744 149.378 270.085 144.5 264.738 140.372C259.391 136.245 252.636 134.087 245.976 132.398C245.665 132.312 245.332 132.352 245.051 132.51C244.769 132.669 244.562 132.932 244.475 133.243C238.189 132.398 231.622 132.867 226.369 136.62C225.672 137.099 225.013 137.633 224.399 138.215C223.841 137.268 223.046 136.484 222.091 135.941C221.136 135.398 220.056 135.115 218.958 135.119L220.834 134.181C222.335 133.524 221.021 131.366 219.614 131.929C209.576 136.432 203.01 146.376 197.287 155.289C191.265 164.573 188.494 175.593 189.407 186.622C189.185 186.772 189.018 186.992 188.934 187.246C188.849 187.5 188.85 187.776 188.938 188.029C189.594 190.374 192.127 191.313 194.191 192.157C196.255 193.001 200.477 194.033 202.916 196.097C202.95 196.135 202.975 196.18 202.992 196.228C203.008 196.276 203.014 196.328 203.01 196.378C203.572 197.692 205.636 200.975 205.449 202.195C205.129 204.184 205.458 206.223 206.387 208.011C206.227 207.999 206.066 208.018 205.913 208.068C205.76 208.118 205.619 208.197 205.497 208.302C205.251 208.513 205.098 208.813 205.073 209.137C205.048 209.46 205.153 209.78 205.364 210.027C205.575 210.273 205.876 210.425 206.199 210.45C209.114 211.48 212.091 212.326 215.111 212.983C216.195 213.92 217.535 214.508 218.958 214.672C220.436 215.728 222.11 216.479 223.882 216.881C225.653 217.284 227.487 217.33 229.277 217.017L232.842 216.267C235.243 216.563 237.673 216.532 240.065 216.173H241.566C242.26 216.132 242.95 216.037 243.63 215.891L244.381 215.704C246.352 215.421 248.24 214.717 249.916 213.64C251.135 212.702 251.135 211.764 251.041 210.263C250.854 206.604 250.291 203.227 250.103 199.662H250.666C262.58 196.66 275.339 194.596 286.69 200.506C288.097 201.163 289.317 199.193 288.097 198.348Z" fill="#CBC7DB"/>
<path d="M237.721 132.023C236.032 133.43 228.902 139.059 221.491 137.183C210.515 134.368 204.699 116.826 210.515 105.38C212.861 100.69 218.114 94.9672 224.775 94.7796C238.378 94.4982 245.601 118.045 245.883 119.077C249.26 130.522 253.575 146.095 238.565 155.007C230.873 159.604 229.841 157.915 225.807 157.446C223.461 157.165 215.393 144.406 221.491 137.183" fill="white"/>
<path d="M230.498 159.979C229.488 159.947 228.483 159.821 227.496 159.604L225.619 159.229C222.993 158.947 220.178 154.163 218.959 151.067C217.739 147.971 216.332 142.718 218.583 138.121C214.643 136.338 211.266 132.68 209.015 127.801C205.544 120.203 205.45 111.29 208.827 104.536C212.204 97.7814 217.645 93.0908 224.681 92.997H225.057C239.973 92.997 247.384 117.482 247.665 118.514C250.949 129.771 256.015 146.845 239.504 156.602C235.094 159.229 232.655 159.979 230.498 159.979ZM226.182 155.57L228.246 155.945C230.591 156.414 231.999 156.696 237.627 153.412C251.605 145.063 247.29 130.334 244.1 119.546C244.007 119.358 237.252 96.6557 225.057 96.6557H224.775C219.24 96.7495 214.456 101.534 212.11 106.225C209.765 110.915 209.39 119.734 212.392 126.207C214.55 130.991 218.021 134.368 221.867 135.4H221.961C228.152 136.901 234.25 132.586 236.595 130.616C236.773 130.452 236.984 130.328 237.213 130.253C237.443 130.178 237.686 130.153 237.926 130.179C238.166 130.206 238.398 130.284 238.605 130.408C238.813 130.532 238.991 130.699 239.128 130.897C239.448 131.272 239.608 131.758 239.573 132.249C239.538 132.741 239.311 133.198 238.941 133.524C236.314 135.682 229.56 140.372 222.242 139.246C221.061 141.496 220.76 144.105 221.398 146.564C222.43 151.254 225.244 155.007 226.182 155.57Z" fill="#80A5AE"/>
<path d="M255.732 122.829C246.538 112.134 241.191 98.2502 239.596 84.2722C239.599 82.7981 239.693 81.3256 239.877 79.863C239.971 78.5496 238.283 78.2682 237.532 78.8311C234.811 80.9093 232.409 83.3745 230.402 86.1484C227.869 80.895 227.682 75.1724 227.494 69.4498C227.494 68.1365 225.524 67.386 224.961 68.6993C223.053 72.5286 221.966 76.7147 221.772 80.9888C219.719 79.0124 217.979 76.7348 216.612 74.2343C215.955 72.9209 214.173 73.6714 214.079 74.891C213.704 78.7373 213.422 82.5836 213.328 86.4299C211.242 84.5465 209.269 82.5417 207.418 80.4259C207.217 80.2457 206.968 80.1274 206.701 80.0849C206.434 80.0425 206.161 80.0778 205.913 80.1866C205.666 80.2955 205.455 80.4732 205.306 80.6986C205.157 80.9241 205.076 81.1876 205.073 81.4578L205.917 89.6195L202.165 87.0866C201.923 86.9455 201.644 86.8798 201.365 86.898C201.085 86.9163 200.817 87.0175 200.596 87.1888C200.374 87.36 200.208 87.5936 200.12 87.8595C200.032 88.1254 200.025 88.4116 200.101 88.6814C202.446 95.4359 204.698 102.19 206.949 108.945C207.512 110.633 210.139 109.977 209.576 108.288C209.413 107.584 209.194 106.893 208.919 106.224L209.294 105.849C211.452 101.815 213.328 99.0007 217.55 96.843C221.097 95.0344 225.014 94.0711 228.995 94.0287C230.402 95.3421 232.091 96.2802 233.498 97.4059C233.656 97.5266 233.841 97.6068 234.038 97.6395C234.234 97.6722 234.435 97.6565 234.624 97.5935C234.802 98.3025 234.928 99.0237 234.999 99.7512C235.041 99.9796 235.143 100.193 235.294 100.369C235.445 100.545 235.64 100.678 235.859 100.755C236.079 100.831 236.314 100.848 236.542 100.803C236.77 100.759 236.982 100.655 237.157 100.502C237.229 100.667 237.347 100.807 237.496 100.907C237.646 101.007 237.821 101.062 238.001 101.065C238.376 102.847 238.752 104.536 239.221 106.318C239.294 106.55 239.425 106.758 239.603 106.924C239.781 107.089 239.998 107.206 240.234 107.263C240.47 107.319 240.717 107.314 240.95 107.247C241.184 107.18 241.396 107.054 241.566 106.881C242.129 108.007 242.598 109.132 243.067 110.258C242.839 110.282 242.621 110.365 242.435 110.498C242.249 110.632 242.101 110.812 242.006 111.021C241.911 111.23 241.873 111.46 241.894 111.688C241.916 111.916 241.997 112.135 242.129 112.322C243.238 114.259 244.492 116.11 245.881 117.857L246.538 119.921C246.251 120.128 246.047 120.43 245.961 120.773C245.875 121.117 245.913 121.479 246.069 121.797L246.35 122.172C246.413 122.395 246.549 122.59 246.736 122.726C246.924 122.862 247.151 122.932 247.382 122.923C247.419 123.043 247.479 123.155 247.56 123.252C247.64 123.349 247.739 123.428 247.851 123.486L246.632 124.049C245.318 124.612 245.975 126.769 247.288 126.675C248.602 126.582 253.011 126.769 254.981 125.174C255.228 125.125 255.457 125.011 255.644 124.844C255.832 124.677 255.971 124.462 256.048 124.223C256.124 123.984 256.135 123.728 256.08 123.483C256.024 123.238 255.904 123.012 255.732 122.829Z" fill="#80A5AE"/>
<path d="M237.909 106.131C237.627 105.381 238.284 105.099 238.941 105.099C239.597 105.099 239.41 105.193 239.691 105.568C239.996 105.973 240.248 106.414 240.442 106.882C240.623 107.236 240.749 107.615 240.817 108.007C240.817 108.289 241.004 108.289 240.442 108.289C239.879 108.289 240.348 108.383 240.629 108.383C240.911 108.383 240.535 108.007 240.442 107.82C240.318 107.426 240.286 107.008 240.348 106.6L239.691 107.444H238.847C238.565 107.351 239.034 107.726 239.034 107.82L239.503 108.664C240.066 110.259 242.787 109.602 242.13 107.913C241.473 106.225 241.004 105.099 239.597 104.724C238.19 104.349 237.44 106.319 237.627 107.632C237.815 108.945 238.096 110.634 239.503 111.009C240.135 111.181 240.802 111.176 241.431 110.994C242.06 110.812 242.626 110.46 243.068 109.977C244.663 108.007 242.599 103.504 240.535 102.566C239.831 102.326 239.079 102.26 238.344 102.374C237.608 102.489 236.912 102.78 236.314 103.223C235.778 103.647 235.384 104.224 235.183 104.877C234.982 105.531 234.983 106.229 235.188 106.882C235.751 108.57 238.471 107.82 237.909 106.131Z" fill="white"/>
<path d="M410.71 288.221H248.227C248.227 288.221 272.993 278.464 272.149 263.829C272.148 263.198 272.392 262.592 272.83 262.137C273.267 261.682 273.864 261.415 274.494 261.39H410.71C411.548 261.415 412.372 261.604 413.137 261.947C413.902 262.29 414.591 262.781 415.166 263.391C415.741 264 416.191 264.718 416.488 265.501C416.786 266.285 416.926 267.119 416.901 267.957V281.748C416.926 282.581 416.785 283.411 416.486 284.189C416.188 284.967 415.737 285.678 415.161 286.28C414.585 286.883 413.894 287.365 413.13 287.698C412.366 288.031 411.543 288.209 410.71 288.221Z" fill="#CBC7DB"/>
<path d="M155.071 436.913C157.51 446.013 144.001 443.48 139.498 442.26C131.661 440.023 123.663 438.393 115.576 437.382C106.991 436.288 98.328 435.942 89.6836 436.35C88.1826 436.444 84.8992 437.288 83.3982 436.819C81.8972 436.35 81.1467 432.691 81.4281 430.44C81.9997 425.828 82.8455 421.254 83.9611 416.743C91.7475 383.44 91.7475 349.48 95.1248 315.52C96.0629 306.983 97.1887 298.258 100.284 290.097C104.037 280.434 110.979 273.304 119.141 267.206C120.829 266.081 119.235 263.266 117.546 264.486C110.51 269.645 104.037 275.556 99.9092 283.342C95.7814 291.128 93.999 299.196 92.8733 307.546C90.1527 327.621 89.7775 347.979 88.0889 368.148C87.1507 378.937 86.025 389.819 84.1487 400.514C82.2725 411.208 79.3643 419.745 78.3323 429.596C77.9571 432.316 77.1128 436.538 79.1767 438.789C81.2406 441.041 86.7754 439.727 89.6836 439.54C100.574 439.02 111.488 439.681 122.237 441.51C128.897 442.729 163.139 455.019 158.167 436.069C157.604 434.099 154.508 434.943 155.071 436.913Z" fill="#80A5AE"/>
<path d="M80.0232 434.099C65.4823 430.159 51.5043 436.35 36.9634 435.224C26.9255 434.38 19.139 426.594 25.0492 416.837C28.7079 410.833 30.7718 406.049 31.8975 399.107L39.7778 351.262C42.2169 336.346 43.7178 320.867 48.8775 306.608C54.0372 292.348 64.4504 277.151 76.177 265.424C76.3394 265.28 76.4706 265.104 76.5626 264.907C76.6545 264.71 76.7052 264.496 76.7116 264.279C76.718 264.062 76.68 263.845 76.5998 263.643C76.5195 263.441 76.3989 263.258 76.2452 263.104C76.0915 262.951 75.9081 262.83 75.7061 262.75C75.5041 262.669 75.2878 262.631 75.0706 262.638C74.8534 262.644 74.6398 262.695 74.4428 262.787C74.2459 262.879 74.0698 263.01 73.9254 263.172C63.137 273.867 54.0372 286.25 48.0332 300.322C42.0293 314.394 39.7777 331.656 37.151 347.697C34.149 365.522 31.5222 383.534 28.2388 401.358C27.6916 405.19 26.3496 408.864 24.2987 412.147C22.6101 414.867 20.5462 417.588 19.7957 420.777C18.4823 426.031 21.1091 431.284 25.2368 434.474C32.0852 439.634 41.4664 438.695 49.4404 437.757C59.3845 436.538 69.3287 434.474 79.179 437.194C81.149 437.663 81.9933 434.568 80.0232 434.099Z" fill="#80A5AE"/>
<path d="M274.214 247.975C274.777 257.262 271.493 266.081 266.334 273.586C261.174 281.091 253.575 284.655 244.851 286.438C228.246 289.909 210.797 290.19 194.474 294.975C180.026 299.196 170.927 309.14 167.737 323.869C165.767 332.875 165.861 342.256 164.36 351.356C162.859 360.456 159.575 368.805 157.699 377.623C155.823 386.442 155.541 396.949 155.448 406.611C155.354 416.274 155.26 427.063 154.979 437.288C154.979 439.352 158.168 439.352 158.262 437.288C158.543 419.088 157.042 399.951 160.138 381.845C161.639 372.933 164.923 364.49 166.799 355.671C168.675 346.853 168.581 337.003 170.176 327.715C171.771 318.428 174.867 310.36 181.903 304.731C188.939 299.102 196.162 297.508 203.855 296.1C211.547 294.693 221.679 293.286 230.591 291.973C239.503 290.659 246.727 290.003 254.232 287.094C269.242 281.372 278.342 263.641 277.404 247.975C277.31 246.005 274.026 245.911 274.214 247.975Z" fill="#80A5AE"/>
<path d="M286.033 197.223C286.22 212.045 286.877 229.119 278.715 242.159C274.681 248.632 267.27 251.822 260.328 254.448C253.418 257.05 246.13 258.508 238.751 258.764C231.098 258.928 223.514 257.289 216.611 253.979C210.607 251.071 204.979 247.881 198.787 245.442C192.595 243.003 187.999 240.658 182.276 241.408C176.553 242.159 171.112 245.349 166.234 248.257C164.452 249.289 166.046 252.103 167.829 250.977C174.302 247.225 181.15 243.097 188.937 245.255C196.723 247.412 203.759 250.79 210.607 254.448C223.084 261.203 235.937 263.454 249.915 260.734C262.204 258.295 276.933 253.229 282.843 241.315C289.691 227.806 289.41 212.045 289.222 197.223C289.128 195.159 285.939 195.159 286.033 197.223Z" fill="#80A5AE"/>
<path d="M139.78 250.039C143.251 227.618 167.361 208.761 189.782 208.667C202.071 208.667 213.141 214.765 225.055 217.111C236.207 219.317 247.762 218.175 258.265 213.827C260.141 213.077 259.297 209.981 257.421 210.731C244.099 216.172 230.59 215.891 216.987 211.67C204.979 208.011 193.722 203.883 180.964 206.416C160.419 210.45 139.968 227.993 136.684 249.194C136.403 251.258 139.498 252.103 139.78 250.039Z" fill="#80A5AE"/>
<path d="M253.2 213.264C252.076 207.267 251.698 201.154 252.074 195.064C252.262 193 249.072 193 248.884 195.064C248.492 201.438 248.902 207.836 250.104 214.108C250.479 216.172 253.575 215.328 253.2 213.264Z" fill="#80A5AE"/>
<path d="M198.6 248.444H144.001L116.045 172.925C115.868 172.423 115.537 171.989 115.099 171.686C114.661 171.383 114.138 171.226 113.606 171.236H32.0831C31.6584 171.239 31.2406 171.344 30.8656 171.543C30.4905 171.742 30.1694 172.029 29.9296 172.38C29.6898 172.73 29.5385 173.134 29.4888 173.555C29.4391 173.977 29.4922 174.405 29.6439 174.801L64.4483 264.674C64.6355 265.143 64.9589 265.546 65.3768 265.83C65.7948 266.114 66.2882 266.267 66.7936 266.268H198.6C199.446 266.268 200.257 265.932 200.855 265.334C201.454 264.736 201.79 263.925 201.79 263.079V251.634C201.79 250.788 201.454 249.976 200.855 249.378C200.257 248.78 199.446 248.444 198.6 248.444Z" fill="#82D0E4"/>
<path d="M41.9337 414.773L58.6323 336.252L66.794 297.883C69.0455 287.376 71.3908 275.368 80.8659 268.895C82.3669 267.863 80.9597 265.424 79.4587 266.456C71.3908 271.897 67.9198 280.903 65.6683 290.003C62.3848 303.23 59.9457 316.739 57.1314 330.06L39.2132 414.023C38.8379 415.805 41.5585 416.555 41.9337 414.773Z" fill="#82D0E4"/>
<path d="M104.789 262.609C93.9072 268.426 87.997 278.182 83.494 289.346C78.2405 302.104 73.0808 315.144 71.5798 328.935C70.0788 342.725 69.3283 356.234 67.8273 369.931C66.3263 383.627 65.0129 399.669 60.1347 413.835C59.478 415.523 62.1986 416.274 62.8553 414.585C66.983 402.39 68.3902 389.631 69.8912 376.967C71.3922 364.302 72.987 350.605 73.8313 337.378C74.6756 324.15 78.2405 310.36 83.4002 297.132C88.5599 283.905 93.4381 271.897 106.197 265.048C106.52 264.862 106.756 264.554 106.853 264.194C106.95 263.833 106.899 263.449 106.713 263.125C106.526 262.802 106.218 262.566 105.858 262.469C105.497 262.372 105.113 262.423 104.789 262.609Z" fill="#82D0E4"/>
<path d="M131.149 263.642C126.834 265.987 122.331 268.614 119.423 272.835C116.514 277.057 115.295 284.562 114.075 290.472C111.355 304.075 109.291 317.865 107.508 331.656C105.726 345.446 104.225 360.269 103.099 374.528C101.974 388.788 102.255 404.642 97.752 418.526C97.1891 420.308 99.9097 421.059 100.473 419.277C104.319 407.269 104.319 394.322 105.257 381.939C106.383 368.149 107.602 354.452 109.197 340.756C110.792 327.059 112.762 313.081 115.295 299.384C116.274 292.941 117.589 286.553 119.235 280.247C121.205 273.117 126.459 269.458 132.65 265.987C134.151 265.143 132.744 262.704 131.149 263.642Z" fill="#82D0E4"/>
<path d="M154.791 260.827C147.755 269.552 140.813 279.402 138.28 290.566C136.779 297.508 136.216 304.825 135.184 311.955L132.088 334.188C130.024 348.917 128.054 363.739 125.897 378.468C124.302 389.913 122.425 401.358 121.675 412.897C121.487 414.773 124.302 414.773 124.489 412.897C125.24 401.264 127.116 389.913 128.805 378.374C130.775 364.49 132.651 350.606 134.527 336.721C136.404 322.837 138.28 309.61 140.25 296.007C142.22 282.404 148.881 272.648 156.855 262.797C157.98 261.39 156.01 259.42 154.791 260.827Z" fill="#82D0E4"/>
<path d="M142.784 416.18C142.221 405.955 145.504 396.292 147.756 386.442C149.724 377.575 151.04 368.576 151.696 359.518C153.384 340.098 153.666 320.492 159.295 301.635C159.857 299.947 157.137 299.196 156.574 300.885C151.039 319.366 150.57 338.691 149.069 357.735C148.356 367.715 146.882 377.625 144.66 387.38C142.315 396.949 139.406 406.33 139.969 416.18C140.063 418.056 142.877 418.056 142.784 416.18Z" fill="#82D0E4"/>
<path d="M168.769 289.534C177.118 282.873 185.561 276.4 195.787 272.835C206.012 269.271 215.394 268.332 225.432 267.207C227.12 267.019 227.214 264.205 225.432 264.392C214.643 265.612 203.667 266.925 193.442 270.678C183.216 274.43 175.054 280.903 166.799 287.564C165.298 288.69 167.362 290.66 168.769 289.534Z" fill="#82D0E4"/>
<path d="M31.4267 417.775C36.5684 417.52 41.708 418.318 46.5304 420.12C50.9396 421.621 55.6303 421.621 60.2271 421.527C62.1033 421.434 62.1033 418.619 60.2271 418.713C54.8708 418.97 49.5162 418.173 44.4666 416.368C40.2451 414.773 36.0235 414.773 31.4267 414.961C29.6442 415.054 29.6442 417.869 31.4267 417.775Z" fill="#80A5AE"/>
<path d="M67.8267 421.809C69.2772 422.105 70.7655 422.168 72.2359 421.997C72.6091 421.997 72.967 421.848 73.2309 421.584C73.4948 421.321 73.6431 420.963 73.6431 420.589C73.6208 420.223 73.4654 419.878 73.2062 419.619C72.947 419.36 72.6018 419.204 72.2359 419.182C71.0217 419.387 69.7794 419.355 68.5772 419.088C68.2185 419.026 67.8494 419.097 67.5388 419.287C67.2281 419.477 66.997 419.773 66.8886 420.12C66.8316 420.293 66.811 420.475 66.8281 420.656C66.8451 420.836 66.8994 421.012 66.9875 421.17C67.0757 421.329 67.1958 421.468 67.3402 421.578C67.4847 421.687 67.6503 421.766 67.8267 421.809Z" fill="#80A5AE"/>
<path d="M107.415 425.281L124.77 424.624C130.399 424.436 136.872 423.31 142.219 424.999C144.002 425.562 144.752 422.841 142.97 422.279C137.81 420.684 131.994 421.528 126.646 421.716L107.415 422.466C105.633 422.56 105.633 425.374 107.415 425.281Z" fill="#80A5AE"/>
<path d="M223.648 190.281C227.213 190.281 227.213 184.652 223.648 184.652C220.084 184.652 219.99 190.281 223.648 190.281Z" fill="#82D0E4"/>
<path d="M224.213 207.167C227.871 207.167 227.871 201.538 224.213 201.538C220.554 201.538 220.554 207.167 224.213 207.167Z" fill="#82D0E4"/>
<path d="M190.251 183.244C194.097 182.869 198.413 185.027 201.696 186.903C203.291 187.747 204.698 185.308 203.103 184.464C199.351 182.4 194.567 180.055 190.251 180.43C188.469 180.524 188.375 183.338 190.251 183.244Z" fill="#82D0E4"/>
<path d="M253.763 190.374C264.119 187.656 274.949 187.272 285.472 189.248C287.254 189.623 288.004 186.903 286.222 186.621C275.215 184.473 263.865 184.826 253.012 187.653C252.652 187.753 252.345 187.992 252.16 188.317C251.976 188.642 251.928 189.028 252.027 189.389C252.127 189.75 252.366 190.056 252.691 190.241C253.017 190.425 253.402 190.473 253.763 190.374Z" fill="#82D0E4"/>
<path d="M206.48 208.855C205.635 199.38 204.228 189.905 204.979 180.336C205.166 178.554 202.352 178.554 202.164 180.336C201.414 189.905 202.821 199.38 203.665 208.855C203.759 210.638 206.573 210.638 206.48 208.855Z" fill="#80A5AE"/>
<path d="M280.874 141.216C281.247 141.216 281.605 141.068 281.869 140.804C282.133 140.54 282.281 140.182 282.281 139.809C282.281 139.436 282.133 139.078 281.869 138.814C281.605 138.55 281.247 138.402 280.874 138.402C280.501 138.402 280.143 138.55 279.879 138.814C279.615 139.078 279.467 139.436 279.467 139.809C279.467 140.182 279.615 140.54 279.879 140.804C280.143 141.068 280.501 141.216 280.874 141.216Z" fill="#82D0E4"/>
<path d="M246.163 134.65C246.538 142.905 243.161 150.973 234.905 153.787C230.777 155.288 226.181 155.57 224.211 150.879C222.944 147.519 222.277 143.963 222.241 140.372C221.959 136.807 216.33 136.713 216.612 140.372C216.987 145.532 217.456 151.161 220.27 155.664C223.085 160.167 228.432 160.917 233.498 159.979C245.694 157.727 252.26 146.47 251.791 134.65C251.698 131.085 246.069 131.085 246.163 134.65Z" fill="#82D0E4"/>
<path d="M246.914 172.269H232.279C231.965 172.335 231.639 172.331 231.327 172.256C231.015 172.181 230.723 172.037 230.473 171.834C230.223 171.632 230.022 171.377 229.884 171.087C229.746 170.796 229.674 170.479 229.674 170.158C229.674 169.837 229.746 169.519 229.884 169.229C230.022 168.939 230.223 168.684 230.473 168.481C230.723 168.279 231.015 168.135 231.327 168.06C231.639 167.985 231.965 167.98 232.279 168.047H246.914C247.228 167.98 247.553 167.985 247.866 168.06C248.178 168.135 248.47 168.279 248.719 168.481C248.969 168.684 249.17 168.939 249.309 169.229C249.447 169.519 249.519 169.837 249.519 170.158C249.519 170.479 249.447 170.796 249.309 171.087C249.17 171.377 248.969 171.632 248.719 171.834C248.47 172.037 248.178 172.181 247.866 172.256C247.553 172.331 247.228 172.335 246.914 172.269Z" fill="white"/>
<path d="M232.279 187.185C231.707 187.185 231.158 186.957 230.753 186.553C230.348 186.148 230.121 185.599 230.121 185.027V170.205C230.121 169.632 230.348 169.084 230.753 168.679C231.158 168.274 231.707 168.047 232.279 168.047C232.851 168.047 233.4 168.274 233.804 168.679C234.209 169.084 234.436 169.632 234.436 170.205V185.027C234.436 185.599 234.209 186.148 233.804 186.553C233.4 186.957 232.851 187.185 232.279 187.185Z" fill="white"/>
<path d="M246.914 187.185C246.341 187.185 245.792 186.957 245.388 186.553C244.983 186.148 244.756 185.599 244.756 185.027V170.205C244.756 169.632 244.983 169.084 245.388 168.679C245.792 168.274 246.341 168.047 246.914 168.047C247.486 168.047 248.035 168.274 248.439 168.679C248.844 169.084 249.071 169.632 249.071 170.205V185.027C249.071 185.31 249.015 185.591 248.907 185.853C248.799 186.114 248.64 186.352 248.439 186.553C248.239 186.753 248.001 186.912 247.739 187.02C247.477 187.129 247.197 187.185 246.914 187.185Z" fill="white"/>
<path d="M246.914 187.184H232.279C231.707 187.184 231.158 186.957 230.753 186.552C230.348 186.148 230.121 185.599 230.121 185.027C230.121 184.455 230.348 183.906 230.753 183.501C231.158 183.096 231.707 182.869 232.279 182.869H246.914C247.486 182.869 248.035 183.096 248.439 183.501C248.844 183.906 249.071 184.455 249.071 185.027C249.071 185.599 248.844 186.148 248.439 186.552C248.035 186.957 247.486 187.184 246.914 187.184Z" fill="white"/>
<path d="M246.914 175.646H232.279C231.714 175.623 231.178 175.388 230.779 174.988C230.379 174.588 230.144 174.053 230.121 173.488C230.121 172.916 230.348 172.367 230.753 171.962C231.158 171.558 231.707 171.33 232.279 171.33H246.914C247.486 171.33 248.035 171.558 248.439 171.962C248.844 172.367 249.071 172.916 249.071 173.488C249.071 174.06 248.844 174.609 248.439 175.014C248.035 175.418 247.486 175.646 246.914 175.646Z" fill="white"/>
<path d="M97.1886 440.197L105.257 439.915V437.007L137.059 442.636L138.654 444.231L138.935 465.057C138.961 466.46 138.434 467.816 137.469 468.834C136.504 469.851 135.177 470.449 133.775 470.498L83.9611 471.061C82.9073 471.061 81.8952 470.649 81.1413 469.913C80.3875 469.177 79.9517 468.175 79.9272 467.121C79.4581 452.205 82.3663 440.384 97.1886 440.197Z" fill="#80A5AE"/>
<path d="M141.376 467.308C138.186 463.462 134.152 465.338 130.024 466.37C125.896 467.402 124.02 465.807 120.362 464.963C117.796 464.401 115.14 464.401 112.575 464.963C108.635 465.807 106.29 467.402 102.068 466.558C99.4414 465.995 97.0023 464.869 94.3755 464.4C92.4146 464.04 90.3995 464.104 88.4654 464.588C85.5572 465.432 83.3995 467.496 80.6789 465.995C77.9584 464.494 77.2079 467.777 79.0841 468.715C83.2119 470.967 84.9005 468.809 89.3097 467.683C93.7189 466.558 100.004 470.31 105.445 470.122C108.072 470.122 110.136 468.903 112.669 468.246C116.703 467.12 119.799 468.34 123.645 469.653C125.331 470.248 127.145 470.378 128.899 470.029C132.182 469.372 136.403 466.276 139.124 469.56C140.437 471.154 142.689 468.903 141.376 467.308Z" fill="white"/>
<path d="M112.575 457.552L99.6288 447.889C99.3835 447.736 99.101 447.652 98.8117 447.647C98.5224 447.642 98.2372 447.715 97.9866 447.86C97.736 448.005 97.5294 448.215 97.389 448.468C97.2486 448.721 97.1797 449.007 97.1897 449.296C97.1897 451.923 97.8464 456.238 96.8144 458.771L98.7845 457.646C96.533 456.989 93.7186 454.268 91.8424 452.861C89.9661 451.454 86.9642 449.765 85.2755 447.42C83.5869 445.075 81.2416 447.42 82.4612 449.015C84.2213 451.2 86.31 453.099 88.6528 454.644C91.4671 456.52 94.7506 459.897 97.9402 460.741C98.1435 460.798 98.356 460.814 98.5655 460.788C98.7749 460.762 98.9771 460.695 99.1604 460.59C99.3436 460.485 99.5043 460.345 99.633 460.178C99.7617 460.011 99.8559 459.82 99.9102 459.616C101.036 456.801 100.379 452.298 100.379 449.296L97.9402 450.703L110.98 460.272C112.575 461.492 114.17 458.771 112.575 457.552Z" fill="white"/>
<path d="M28.3303 437.758L36.492 437.476L36.3043 436.913L69.9829 435.412V462.618C70.0209 463.311 69.9186 464.004 69.6823 464.657C69.4459 465.31 69.0803 465.908 68.6073 466.416C68.1344 466.924 67.5638 467.331 66.9297 467.614C66.2956 467.896 65.6111 468.047 64.9171 468.059L15.1027 468.622C14.0464 468.601 13.0365 468.184 12.2723 467.455C11.5081 466.725 11.0452 465.736 10.975 464.682C10.6935 449.766 13.6017 437.945 28.3303 437.758Z" fill="#80A5AE"/>
<path d="M74.2052 461.585C71.0156 457.739 66.8879 459.615 62.854 460.741C58.82 461.867 56.7562 460.178 53.1913 459.334C50.639 458.693 47.9719 458.661 45.4049 459.24C41.4648 460.178 39.1195 461.773 34.8979 460.835C32.2711 460.272 29.832 459.146 27.2053 458.771C25.2558 458.332 23.2297 458.364 21.2951 458.865C19.7941 459.334 18.3869 460.272 16.8859 460.553C13.6963 461.21 10.8819 459.803 8.16137 458.49C5.44081 457.176 4.6903 460.366 6.56654 461.21C10.8819 463.368 14.8221 464.775 19.6065 462.993C24.3909 461.21 26.1733 461.679 30.2073 462.805C32.6231 463.698 35.1469 464.265 37.7123 464.493C40.339 464.493 42.2152 463.555 44.6543 462.805C49.0635 461.398 52.1594 462.43 56.2871 463.837C57.9986 464.584 59.9 464.781 61.7282 464.4C64.9178 463.743 69.2332 460.553 71.9538 463.931C73.2672 465.525 75.5186 463.18 74.2052 461.585Z" fill="white"/>
<path d="M45.405 451.829C41.0897 448.639 36.7743 445.356 32.4589 442.26C32.2203 442.111 31.9466 442.028 31.6654 442.019C31.3842 442.01 31.1057 442.075 30.858 442.208C30.6103 442.342 30.4023 442.538 30.2551 442.778C30.1079 443.018 30.0267 443.292 30.0198 443.573C29.926 446.294 30.6765 450.609 29.6445 453.048L31.6146 451.923C29.3631 451.36 26.5487 448.545 24.6725 447.232C22.7962 445.919 19.7942 444.042 18.1056 441.697C16.417 439.352 14.0717 441.697 15.2912 443.386C17.0797 445.517 19.1649 447.381 21.4829 448.921C24.2973 450.891 27.5807 454.174 30.7703 455.018C30.9736 455.075 31.1861 455.091 31.3955 455.065C31.605 455.039 31.8072 454.972 31.9905 454.867C32.1737 454.762 32.3343 454.622 32.4631 454.455C32.5918 454.288 32.6861 454.097 32.7404 453.893C33.8661 451.078 33.2094 446.575 33.2094 443.573L30.7703 444.981L43.8102 454.549C45.405 455.863 46.9999 453.048 45.405 451.829Z" fill="white"/>
<path d="M378.939 237.165L305.955 236.656C302.536 236.632 299.744 239.384 299.72 242.804L299.373 292.57C299.349 295.99 302.102 298.781 305.521 298.805L378.506 299.314C381.925 299.338 384.716 296.586 384.74 293.166L385.088 243.4C385.112 239.98 382.359 237.189 378.939 237.165Z" fill="white"/>
<path d="M378.345 301.917L305.359 301.354C304.292 301.354 303.235 301.142 302.25 300.731C301.265 300.319 300.372 299.717 299.621 298.958C298.871 298.199 298.278 297.298 297.879 296.308C297.479 295.319 297.279 294.259 297.292 293.192L297.667 243.472C297.66 242.415 297.873 241.369 298.293 240.4C298.713 239.431 299.33 238.56 300.106 237.843C300.841 237.098 301.718 236.506 302.684 236.104C303.651 235.701 304.688 235.495 305.735 235.497H305.828L378.815 236.06C379.878 236.06 380.93 236.272 381.91 236.685C382.89 237.097 383.777 237.701 384.52 238.462C385.263 239.222 385.847 240.124 386.236 241.113C386.626 242.102 386.814 243.159 386.789 244.222L386.413 293.943C386.416 294.99 386.21 296.027 385.807 296.993C385.404 297.959 384.813 298.836 384.068 299.571C382.536 301.065 380.485 301.906 378.345 301.917ZM305.735 239.25C304.59 239.25 303.493 239.705 302.683 240.514C301.874 241.323 301.419 242.421 301.419 243.565L301.044 293.286C301.044 294.43 301.499 295.528 302.308 296.337C303.117 297.147 304.215 297.601 305.359 297.601L378.345 298.164C379.49 298.141 380.588 297.708 381.441 296.945C382.22 296.101 382.655 294.997 382.661 293.849L383.036 244.128C383.049 243.566 382.949 243.007 382.742 242.484C382.535 241.961 382.226 241.484 381.833 241.082C381.44 240.68 380.97 240.361 380.452 240.143C379.934 239.925 379.377 239.813 378.815 239.813L305.735 239.25Z" fill="#80A5AE"/>
<path d="M349.149 268.515L349.201 261.104C349.214 259.239 347.713 257.716 345.847 257.703L336.147 257.635C334.282 257.622 332.76 259.124 332.747 260.989L332.695 268.4C332.682 270.265 334.183 271.788 336.049 271.801L345.749 271.868C347.614 271.881 349.136 270.38 349.149 268.515Z" fill="#82D0E4"/>
<path d="M299.073 264.204C302.732 266.925 309.393 266.831 313.802 267.112C319.587 267.333 325.378 266.892 331.063 265.799C332.846 265.518 332.095 262.797 330.313 263.078C325.434 264.047 320.462 264.456 315.491 264.298C311.081 264.204 304.139 264.486 300.481 261.765C298.98 260.733 297.572 263.172 299.073 264.204Z" fill="#80A5AE"/>
<path d="M369.526 266.925C373.935 266.738 377.969 266.362 382.285 267.488C382.646 267.588 383.031 267.54 383.357 267.355C383.682 267.17 383.921 266.864 384.02 266.503C384.12 266.142 384.072 265.757 383.887 265.431C383.702 265.106 383.396 264.867 383.035 264.768C378.438 263.548 374.217 263.923 369.526 264.111C367.744 264.205 367.744 267.019 369.526 266.925Z" fill="#80A5AE"/>
<path d="M349.827 266.55L358.364 265.799C360.147 265.612 360.24 262.797 358.364 262.985L349.827 263.736C348.045 263.923 347.951 266.738 349.827 266.55Z" fill="#80A5AE"/>
<path d="M325.716 238.125C327.057 237.821 328.309 237.211 329.375 236.342C330.688 235.123 331.345 232.871 333.127 232.121C334.91 231.37 338.005 231.933 340.069 231.652C342.133 231.37 345.229 230.62 347.856 230.338C350.483 230.057 353.766 229.588 355.079 232.871C355.642 234.279 355.548 235.217 356.674 236.436C357.8 237.656 360.989 239.063 363.616 238.5C366.243 237.937 364.648 235.404 362.866 235.78L357.987 233.153L357.706 231.464C357.518 230.995 357.612 230.339 357.331 229.963C356.989 229.277 356.471 228.694 355.83 228.275C353.391 226.68 349.263 227.243 346.542 227.712C342.227 228.368 337.818 228.65 333.596 229.213C329.375 229.776 329.093 234.372 324.966 235.404C324.605 235.504 324.298 235.743 324.114 236.068C323.929 236.394 323.881 236.779 323.981 237.14C324.08 237.501 324.319 237.807 324.644 237.992C324.97 238.177 325.355 238.224 325.716 238.125Z" fill="#80A5AE"/>
<path d="M172.24 319.366C171.742 319.366 171.265 319.169 170.913 318.817C170.561 318.465 170.363 317.988 170.363 317.49C170.363 316.993 170.561 316.515 170.913 316.164C171.265 315.812 171.742 315.614 172.24 315.614L387.727 315.239C387.977 315.225 388.227 315.264 388.46 315.354C388.694 315.443 388.906 315.581 389.083 315.758C389.26 315.935 389.398 316.148 389.488 316.381C389.577 316.615 389.616 316.865 389.603 317.115C389.603 317.613 389.405 318.09 389.053 318.442C388.701 318.794 388.224 318.991 387.727 318.991L172.24 319.366Z" fill="#80A5AE"/>
<path d="M42.6852 319.366H27.4876C26.99 319.366 26.5128 319.168 26.1609 318.817C25.809 318.465 25.6113 317.987 25.6113 317.49C25.6113 316.992 25.809 316.515 26.1609 316.163C26.5128 315.811 26.99 315.614 27.4876 315.614H42.6852C43.1828 315.614 43.66 315.811 44.0119 316.163C44.3637 316.515 44.5614 316.992 44.5614 317.49C44.5614 317.987 44.3637 318.465 44.0119 318.817C43.66 319.168 43.1828 319.366 42.6852 319.366Z" fill="#80A5AE"/>
<path d="M363.804 317.49H352.547V425.543H363.804V317.49Z" fill="#80A5AE"/>
<path d="M408.177 289.065H396.92V397.118H408.177V289.065Z" fill="#80A5AE"/>
<path d="M124.207 199.943C127.959 209.231 131.712 218.612 134.526 228.181C134.576 228.359 134.66 228.527 134.773 228.673C134.887 228.819 135.029 228.941 135.19 229.033C135.351 229.124 135.529 229.183 135.713 229.206C135.897 229.229 136.083 229.215 136.262 229.166C136.44 229.117 136.608 229.033 136.754 228.919C136.9 228.805 137.022 228.663 137.114 228.502C137.205 228.341 137.264 228.163 137.287 227.979C137.31 227.796 137.296 227.609 137.247 227.43C134.432 217.861 130.68 208.48 126.927 199.193C126.271 197.504 123.55 198.255 124.207 199.943Z" fill="#80A5AE"/>
<path d="M69.0459 257.543H112.669C113.042 257.543 113.4 257.395 113.664 257.131C113.928 256.867 114.076 256.509 114.076 256.136C114.076 255.763 113.928 255.405 113.664 255.141C113.4 254.877 113.042 254.729 112.669 254.729H69.0459C68.6726 254.729 68.3148 254.877 68.0509 255.141C67.787 255.405 67.6387 255.763 67.6387 256.136C67.6387 256.509 67.787 256.867 68.0509 257.131C68.3148 257.395 68.6726 257.543 69.0459 257.543Z" fill="#80A5AE"/>
<path d="M119.048 257.919H131.431C131.804 257.919 132.162 257.771 132.426 257.507C132.69 257.243 132.838 256.885 132.838 256.512C132.838 256.139 132.69 255.781 132.426 255.517C132.162 255.253 131.804 255.105 131.431 255.105H119.048C118.675 255.105 118.317 255.253 118.053 255.517C117.789 255.781 117.641 256.139 117.641 256.512C117.641 256.885 117.789 257.243 118.053 257.507C118.317 257.771 118.675 257.919 119.048 257.919Z" fill="#80A5AE"/>
<path d="M62.0094 169.641C53.8478 161.386 50.4705 150.316 49.0633 139.059C48.3584 133.394 47.9825 127.693 47.9376 121.985C47.75 115.699 47.1871 108.663 50.3767 102.941C56.0993 92.5276 72.7979 89.2442 83.6801 89.2442C96.1572 89.338 108.353 95.2481 113.794 106.975C114.544 108.57 116.89 107.162 116.139 105.474C103.475 77.799 117.64 46.3719 142.782 31.4557C153.383 25.0765 166.704 20.4797 179.087 23.7631C194.754 27.797 197.005 43.7452 197.756 57.5356C197.85 59.318 200.664 59.318 200.57 57.5356C200.007 46.6533 199.069 34.2701 190.345 26.4837C181.62 18.6972 171.864 18.9787 162.295 20.7611C139.123 24.9827 118.203 43.5575 111.261 65.9787C107.056 79.4931 107.958 94.0806 113.794 106.975L116.139 105.474C110.886 94.0286 99.253 87.5555 86.9636 86.6174C74.6741 85.6793 57.6003 88.8689 49.6263 99.0006C45.7799 103.879 45.1232 109.977 45.0294 115.981C44.9028 123.281 45.2475 130.583 46.0613 137.839C47.4685 150.222 51.0334 162.512 60.0394 171.611C61.259 172.925 63.229 170.861 62.0094 169.641Z" fill="#80A5AE"/>
<path d="M194.192 27.5158C193.723 12.6934 211.923 7.15851 223.462 4.8132C239.357 1.72472 255.745 2.26992 271.4 6.40801C278.53 8.28426 286.879 10.6296 290.632 17.5717C294.384 24.5138 293.54 32.3002 293.446 39.3362C293.446 53.408 292.039 68.3242 283.033 79.8631C282.903 79.9986 282.802 80.1583 282.734 80.333C282.667 80.5077 282.634 80.694 282.638 80.8813C282.643 81.0686 282.684 81.2532 282.76 81.4246C282.835 81.5959 282.944 81.7507 283.08 81.8801C283.215 82.0094 283.375 82.1108 283.55 82.1785C283.724 82.2461 283.911 82.2787 284.098 82.2743C284.285 82.27 284.47 82.2288 284.641 82.1531C284.813 82.0774 284.967 81.9687 285.097 81.8332C296.073 72.7334 311.833 70.6695 325.624 73.0148C340.915 75.5477 350.015 85.8671 354.987 99.9389C362.867 121.891 363.43 150.316 345.137 167.296C343.823 168.516 345.793 170.486 347.107 169.266C367.276 150.598 366.057 118.232 356.019 94.7793C349.921 80.7074 339.414 71.889 324.123 69.919C308.831 67.9489 294.384 70.4819 283.033 79.8631L285.097 81.8332C292.602 72.1705 295.322 60.3501 296.073 48.2483C296.495 41.6569 296.495 35.0453 296.073 28.4539C295.697 23.2004 294.666 17.7593 291.382 13.5378C288.099 9.31619 282.376 6.78326 277.029 5.09464C270.201 2.88198 263.156 1.40389 256.015 0.685451C241.662 -0.90936 226.464 0.216391 212.674 4.71939C202.448 8.00282 191.003 15.414 191.378 27.5158C191.472 29.2982 194.286 29.2982 194.192 27.5158Z" fill="#80A5AE"/>
<path d="M363.336 130.147C370.091 129.115 377.783 128.458 383.037 133.805C388.29 139.153 388.947 144.218 390.26 149.847C393.262 162.512 393.45 176.021 388.196 188.123C387.446 189.811 389.885 191.218 390.635 189.53C396.827 175.364 396.17 159.322 391.855 144.688C390.166 139.059 387.633 133.242 382.755 129.771C377.877 126.3 369.34 126.394 362.586 127.426C360.803 127.708 361.554 130.428 363.336 130.147Z" fill="#80A5AE"/>
<path d="M281.53 107.444C285.752 101.628 302.826 97.4998 306.672 105.192C308.642 109.226 307.891 114.949 307.422 119.264C306.763 124.316 305.47 129.264 303.576 133.993C303.201 134.931 304.327 136.151 305.265 135.775C309.024 134.194 312.878 132.846 316.804 131.741C321.87 130.428 327.123 129.396 328.624 135.869C330.125 142.342 325.153 151.442 318.399 154.632C318.073 154.828 317.833 155.14 317.729 155.506C317.624 155.871 317.662 156.263 317.836 156.602C319.993 160.636 325.341 157.164 327.874 161.292C332.846 169.079 320.369 174.426 314.552 174.426C314.179 174.426 313.821 174.574 313.557 174.838C313.293 175.102 313.145 175.46 313.145 175.833C313.145 176.206 313.293 176.564 313.557 176.828C313.821 177.092 314.179 177.24 314.552 177.24C321.494 177.24 330.219 173.488 331.532 165.889C331.762 164.6 331.704 163.275 331.364 162.011C331.023 160.746 330.408 159.572 329.562 158.572C328.709 157.498 327.571 156.685 326.279 156.226C324.965 155.757 320.931 156.414 320.275 155.194L319.806 157.071C327.967 153.224 333.971 143.093 330.969 133.993C327.217 122.454 311.925 129.959 304.514 133.055L306.203 134.743C309.066 127.711 310.562 120.197 310.612 112.604C310.612 108.007 310.143 102.847 306.015 100.127C301.887 97.406 296.446 98.3441 291.943 99.1884C287.44 100.033 282.187 101.721 279.091 106.037C278.059 107.538 280.498 108.945 281.53 107.444Z" fill="#80A5AE"/>
<path d="M88.84 155.945C81.8979 147.596 88.0895 135.963 96.4388 131.366C104.788 126.77 118.579 123.205 124.676 130.147C124.868 130.353 125.116 130.497 125.39 130.561C125.664 130.625 125.951 130.605 126.213 130.504C126.476 130.403 126.702 130.225 126.863 129.995C127.024 129.764 127.112 129.49 127.115 129.209C126.592 124.83 127.008 120.39 128.334 116.184C129.66 111.979 131.867 108.104 134.808 104.818C140.812 98.063 157.511 89.9014 162.107 102.566C162.67 104.255 165.391 103.504 164.828 101.816C160.419 89.7137 145.596 92.4343 137.341 98.7197C132.722 102.245 129.094 106.906 126.809 112.248C124.524 117.591 123.66 123.434 124.301 129.209L126.646 128.177C122.706 123.674 116.608 123.674 110.98 124.331C105.351 124.987 97.9398 126.676 92.5925 130.428C83.7741 136.526 79.5525 149.191 86.8699 158.009C88.0895 159.416 90.0596 157.352 88.84 155.945Z" fill="#80A5AE"/>
<path d="M161.358 67.1986C163.891 64.478 166.424 61.5698 169.895 60.2565C173.366 58.9431 178.15 59.4121 179.651 63.5399C180.214 65.2285 182.935 64.478 182.372 62.7894C180.871 58.7555 177.212 56.5978 172.897 56.6916C168.581 56.7854 162.953 61.2884 159.388 65.1347C158.168 66.5419 160.138 68.512 161.358 67.1986Z" fill="#80A5AE"/>
<path d="M366.056 161.855C369.808 161.48 374.218 161.105 377.782 162.793C382.754 165.138 382.285 170.673 381.723 175.27C381.535 177.053 384.349 177.053 384.537 175.27C385.194 170.111 385.287 164.482 380.597 161.198C375.906 157.915 370.84 158.572 366.056 159.041C364.273 159.228 364.18 162.043 366.056 161.855Z" fill="#80A5AE"/>
<path d="M388.476 101.346C395.605 99.4696 403.204 99.4696 407.895 106.13C409.737 108.893 410.498 112.238 410.03 115.526C409.563 118.814 407.901 121.814 405.362 123.955C405.104 124.218 404.96 124.571 404.96 124.94C404.96 125.308 405.104 125.662 405.362 125.925C408.176 128.645 411.554 127.989 415.118 127.801C424.594 127.332 422.436 139.527 418.871 144.687C418.763 144.873 418.699 145.082 418.684 145.297C418.669 145.512 418.704 145.727 418.785 145.927C418.867 146.126 418.993 146.304 419.154 146.447C419.316 146.59 419.508 146.694 419.715 146.751C424.969 148.721 430.598 148.815 435.57 151.723C440.353 154.617 444.097 158.952 446.264 164.106C447.015 165.701 449.36 164.294 448.703 162.699C446.475 157.565 442.831 153.172 438.196 150.034C432.661 146.376 426.47 146.282 420.466 144.03L421.31 146.188C424.593 141.216 426.47 133.242 422.905 127.895C419.34 122.547 411.554 127.989 407.332 123.955V125.925C410.304 123.346 412.244 119.781 412.795 115.885C413.347 111.989 412.473 108.025 410.334 104.723C404.987 96.8428 396.075 96.3738 387.725 98.6253C386.037 99.0943 386.787 101.815 388.476 101.346Z" fill="#80A5AE"/>
<path d="M47.2824 138.965C39.7775 141.592 31.7096 143.843 24.3922 147.22C19.2325 149.566 15.3862 153.224 14.9172 159.041C14.7296 160.823 17.5439 160.823 17.7315 159.041C18.2944 151.536 26.3623 149.284 32.3663 147.22L48.0329 141.592C49.7216 141.029 49.0649 138.308 47.2824 138.965Z" fill="#80A5AE"/>
<path d="M160.981 379.5C237.845 379.875 314.646 380 391.385 379.875H456.959C457.333 379.875 457.691 379.727 457.954 379.463C458.218 379.199 458.367 378.841 458.367 378.468C458.367 378.095 458.218 377.737 457.954 377.473C457.691 377.209 457.333 377.061 456.959 377.061C380.158 377.248 303.357 377.248 226.556 377.061L160.981 376.779C160.608 376.779 160.25 376.928 159.986 377.192C159.723 377.455 159.574 377.813 159.574 378.187C159.574 378.56 159.723 378.918 159.986 379.182C160.25 379.446 160.608 379.594 160.981 379.594V379.5Z" fill="#80A5AE"/>
<path d="M240.628 357.923C240.131 357.923 239.653 357.725 239.302 357.374C238.95 357.022 238.752 356.545 238.752 356.047C238.752 355.549 238.95 355.072 239.302 354.72C239.653 354.368 240.131 354.171 240.628 354.171L468.123 353.795C468.621 353.795 469.098 353.993 469.45 354.345C469.802 354.697 469.999 355.174 469.999 355.672C469.999 356.169 469.802 356.647 469.45 356.998C469.098 357.35 468.621 357.548 468.123 357.548L240.628 357.923Z" fill="#80A5AE"/>
<path d="M29.8323 377.811H1.87625C1.37864 377.811 0.901432 377.613 0.549567 377.261C0.197703 376.91 0 376.432 0 375.935C0 375.437 0.197703 374.96 0.549567 374.608C0.901432 374.256 1.37864 374.059 1.87625 374.059H29.8323C30.3299 374.059 30.8072 374.256 31.1591 374.608C31.5109 374.96 31.7086 375.437 31.7086 375.935C31.7086 376.432 31.5109 376.91 31.1591 377.261C30.8072 377.613 30.3299 377.811 29.8323 377.811Z" fill="#80A5AE"/>
<path d="M340.352 52.3764C337.162 52.3764 335.755 47.6858 335.192 43.1828C330.877 42.7137 325.248 41.4004 325.248 37.9293C325.248 34.4582 330.783 33.1449 335.005 32.582C335.38 28.4543 336.599 21.8874 340.352 21.8874C344.104 21.8874 345.23 28.4543 345.699 32.582C349.827 33.1449 355.362 34.3644 355.362 37.9293C355.362 41.4942 349.733 42.7137 345.512 43.1828C344.949 47.6858 343.542 52.3764 340.352 52.3764ZM329.376 37.9293C330.408 38.4922 332.847 39.3365 336.975 39.6179H338.569L338.757 41.2127C339.132 44.9652 339.789 47.1229 340.352 48.1549C341.25 45.9406 341.788 43.597 341.947 41.2127V39.6179H343.541C347.763 39.3365 350.202 38.4922 351.14 37.9293C350.202 37.3664 347.763 36.5221 343.635 36.1469H342.04V34.5521C341.759 29.9553 340.915 27.2347 340.352 26.2028C339.789 27.2347 338.945 29.9553 338.663 34.5521V36.1469H336.975C334.353 36.2613 331.775 36.8659 329.376 37.9293Z" fill="#82D0E4"/>
<path d="M374.968 111.571C372.435 111.571 371.31 108.288 370.841 105.004C367.651 104.535 363.711 103.503 363.711 100.689C363.711 97.8747 367.557 96.8428 370.653 96.3737C371.028 92.9965 372.06 88.6811 374.968 88.6811C377.877 88.6811 378.909 92.9965 379.284 96.3737C382.474 96.8428 386.32 97.8747 386.32 100.689C386.32 103.503 382.38 104.535 379.19 105.004C378.627 108.288 377.595 111.571 374.968 111.571ZM368.589 100.689C369.901 101.077 371.256 101.298 372.623 101.346L374.218 101.533L374.406 103.034C374.487 104.237 374.675 105.43 374.968 106.599C375.302 105.435 375.522 104.241 375.625 103.034V101.533L377.22 101.346C378.618 101.297 380.004 101.076 381.348 100.689C380.029 100.316 378.679 100.064 377.314 99.9386H375.719V98.3438C375.6 96.7929 375.349 95.255 374.968 93.747C374.582 95.2506 374.362 96.7921 374.312 98.3438V99.9386H372.623C371.256 100.046 369.904 100.298 368.589 100.689Z" fill="#80A5AE"/>
<path d="M18.2005 258.67C15.1985 258.67 13.9789 254.542 13.416 250.414C9.56968 250.039 4.59766 248.82 4.59766 245.536C4.59766 242.253 9.47585 241.127 13.2283 240.658C13.6036 236.53 14.8232 231.089 18.2005 231.089C21.5777 231.089 22.7034 236.53 23.0786 240.658C26.925 241.127 31.8032 242.346 31.8032 245.536C31.8032 248.726 26.8312 250.039 22.9849 250.414C22.422 254.542 21.1086 258.67 18.2005 258.67ZM8.913 245.536C10.9407 246.362 13.1032 246.807 15.2922 246.849H16.7933L16.9808 248.444C17.0887 250.403 17.5001 252.334 18.2005 254.167C18.8552 252.321 19.2652 250.397 19.42 248.444V246.849H21.0148C23.2024 246.795 25.3627 246.35 27.3941 245.536C25.3829 244.764 23.2607 244.32 21.1086 244.223H19.5138V242.534C19.4012 240.17 18.9592 237.834 18.2005 235.592C17.3939 237.821 16.9504 240.165 16.8871 242.534V244.223H15.1984C13.0462 244.319 10.9236 244.762 8.913 245.536Z" fill="#80A5AE"/>
<path d="M37.6181 180.337C51.4085 180.149 65.1052 180.149 78.8956 180.243C79.2688 180.243 79.6267 180.095 79.8906 179.831C80.1545 179.567 80.3028 179.209 80.3028 178.836C80.3028 178.462 80.1545 178.104 79.8906 177.841C79.6267 177.577 79.2688 177.428 78.8956 177.428C65.1052 177.335 51.4085 177.335 37.6181 177.522C35.7419 177.616 35.7419 180.43 37.6181 180.337Z" fill="white"/>
<path d="M88.2763 180.243H91.466C91.8392 180.243 92.1971 180.094 92.461 179.83C92.7249 179.566 92.8732 179.209 92.8732 178.835C92.8732 178.462 92.7249 178.104 92.461 177.84C92.1971 177.576 91.8392 177.428 91.466 177.428H88.2763C87.9031 177.428 87.5452 177.576 87.2813 177.84C87.0174 178.104 86.8691 178.462 86.8691 178.835C86.8691 179.209 87.0174 179.566 87.2813 179.83C87.5452 180.094 87.9031 180.243 88.2763 180.243Z" fill="white"/>
</svg>
