<svg width="470" height="420" viewBox="0 0 470 420" fill="none" xmlns="http://www.w3.org/2000/svg">
<path d="M236.397 183.403L234.641 157.704C234.632 157.52 234.578 157.341 234.484 157.183C234.39 157.025 234.257 156.892 234.099 156.797C233.941 156.702 233.762 156.648 233.578 156.639C233.394 156.63 233.211 156.667 233.045 156.746C229.772 158.582 226.101 158.422 222.51 157.944C220.115 157.624 217.322 157.225 216.284 154.432C215.923 152.844 216.005 151.187 216.524 149.643C218.36 143.498 224.585 139.747 230.73 140.306C231.02 140.287 231.294 140.163 231.499 139.957C231.705 139.752 231.829 139.478 231.847 139.188C231.768 137.273 231.688 135.278 231.528 133.362C231.581 133.015 231.553 132.66 231.448 132.325C231.209 127.616 230.73 122.907 230.171 118.198C230.171 116.762 230.092 115.405 230.012 114.048C230.011 113.718 229.934 113.393 229.787 113.097C229.641 112.801 229.428 112.543 229.166 112.343C228.904 112.142 228.599 112.004 228.275 111.94C227.951 111.876 227.617 111.888 227.298 111.973C211.245 115.012 195.387 119.01 179.811 123.945C179.376 124.067 179.004 124.353 178.774 124.743H178.614C177.257 124.902 177.178 126.977 178.534 126.898C178.638 127.127 178.772 127.342 178.933 127.536L178.694 127.855C177.178 130.569 177.736 133.522 178.295 136.395C178.314 136.771 178.368 137.145 178.455 137.512C177.875 138.063 177.424 138.735 177.135 139.48C176.845 140.225 176.723 141.025 176.779 141.822C177.098 147.967 178.694 154.033 180.051 160.019C180.37 172.23 180.131 184.52 179.333 196.731C179.29 197.138 179.385 197.548 179.602 197.895C179.819 198.242 180.145 198.506 180.53 198.647C180.718 199.013 181.028 199.302 181.408 199.462C181.787 199.623 182.211 199.645 182.605 199.525H182.844L192.022 196.332C192.641 196.227 193.236 196.011 193.778 195.694L199.285 194.018C198.327 198.567 197.769 203.675 200.722 207.585C203.675 211.496 208.463 212.933 212.853 212.374C213.39 212.333 213.923 212.253 214.449 212.134C216.077 211.963 217.583 211.196 218.679 209.98C222.35 206.468 222.35 200.083 220.993 194.496C220.935 192.715 220.667 190.947 220.195 189.229L230.411 187.393C232.486 186.994 235.12 186.994 235.678 184.6V184.44C235.794 184.421 235.906 184.379 236.005 184.316C236.104 184.253 236.19 184.171 236.257 184.074C236.324 183.977 236.371 183.868 236.395 183.753C236.419 183.637 236.42 183.518 236.397 183.403ZM224.345 160.737H224.265L223.946 160.498H224.664L224.345 160.737ZM200.722 201.2V201.6C200.722 201.44 200.642 201.28 200.642 201.121C200.652 201.121 200.663 201.123 200.672 201.127C200.682 201.131 200.691 201.137 200.698 201.144C200.706 201.151 200.711 201.16 200.715 201.17C200.72 201.18 200.722 201.19 200.722 201.2ZM228.894 138.151L229.613 137.512V138.071L228.894 138.151ZM201.999 205.59C201.999 205.58 201.996 205.569 201.992 205.559C201.988 205.55 201.983 205.541 201.975 205.534C201.968 205.526 201.959 205.52 201.949 205.516C201.94 205.512 201.929 205.51 201.919 205.51C202.407 206.184 202.94 206.824 203.515 207.426C202.908 206.906 202.395 206.285 201.999 205.59Z" fill="#CBC7DB"/>
<path d="M150.362 388.114L143.418 387.955V380.453H115.086V408.626C115.127 409.804 115.625 410.921 116.473 411.739C117.322 412.558 118.456 413.016 119.635 413.015L165.925 413.175V409.902C165.845 397.771 163.131 388.114 150.362 388.114Z" fill="#090909"/>
<path d="M87.5513 388.114L80.5281 387.955V380.453H52.2754V408.626C52.3168 409.804 52.8143 410.921 53.663 411.739C54.5116 412.558 55.6452 413.016 56.8245 413.015L103.114 413.175V409.902C103.034 397.771 100.321 388.114 87.5513 388.114Z" fill="#090909"/>
<path d="M102.316 405.593C97.6872 404.715 91.7813 402.561 86.9927 403.598C84.5186 404.077 82.3637 406.072 79.73 405.833C77.0963 405.593 75.1808 403.838 72.7067 403.518C71.0946 403.392 69.4817 403.754 68.0778 404.556C65.1248 406.072 63.4488 406.631 60.017 406.072C56.5851 405.514 55.0688 403.997 52.3552 406.87C51.3177 407.988 51.2379 410.382 52.3552 409.265C55.7072 405.673 61.3737 409.584 65.5238 408.387C66.9604 407.988 68.0778 407.03 69.4345 406.391C72.3875 405.035 74.7818 406.791 77.4953 407.668C80.2088 408.546 82.683 407.429 85.9552 406.312C90.8236 404.716 97.2083 407.03 101.997 407.908C102.268 407.885 102.523 407.771 102.721 407.584C102.918 407.397 103.046 407.148 103.083 406.878C103.12 406.609 103.065 406.335 102.925 406.101C102.786 405.868 102.571 405.689 102.316 405.593Z" fill="white"/>
<path d="M84.5178 383.566C81.9856 384.906 79.7786 386.786 78.0532 389.073C77.0955 390.27 79.1706 391.468 80.1283 390.27C81.602 388.311 83.5157 386.725 85.715 385.641C87.0717 384.923 85.8746 382.848 84.5178 383.566Z" fill="white"/>
<path d="M91.0633 383.645C88.9973 385.05 87.0964 386.683 85.3968 388.514C84.3593 389.711 86.0353 391.387 87.0728 390.269C88.6492 388.587 90.3867 387.063 92.2604 385.72C93.4576 384.842 92.2604 382.767 91.0633 383.645Z" fill="white"/>
<path d="M155.231 315.648C150.522 273.827 146.452 231.847 144.536 189.867C144.569 189.145 144.515 188.422 144.377 187.712C143.419 186.835 142.302 187.393 141.663 186.276C140.826 184.606 139.537 183.204 137.943 182.23C136.348 181.257 134.513 180.75 132.645 180.769C131.809 180.552 130.953 180.418 130.091 180.37C121.87 180.21 113.65 179.811 105.509 179.173C101.838 178.854 98.087 178.694 94.4158 178.135L93.2984 177.976L91.0638 177.417L89.707 177.018C88.504 175.715 86.9051 174.846 85.1578 174.544H84.679C80.8481 174.065 77.0172 174.703 74.3835 177.257C73.9845 176.619 72.5479 173.905 72.2286 174.943C70.7123 180.131 69.5151 187.952 68.318 193.219C68.1583 193.938 67.8391 194.576 67.6795 195.215C67.2804 197.05 67.2804 197.05 66.642 199.684C66.3227 200.881 66.4025 202.158 66.1631 203.355C63.994 214.95 62.6604 226.686 62.1726 238.471C61.7736 248.527 62.7313 258.823 60.8956 268.799L59.9379 274.067C59.3712 276.223 58.9183 278.407 58.5812 280.611C57.3004 286.594 56.3413 292.642 55.708 298.728C53.9522 319.558 55.3888 340.628 51.7175 361.299C51.2387 364.092 50.8396 366.885 49.6425 369.519C49.15 370.21 48.7477 370.961 48.4453 371.754C47.7785 372.729 47.2167 373.773 46.7693 374.866C46.2324 376.176 46.0899 377.614 46.3593 379.004C46.6287 380.393 47.2983 381.674 48.2857 382.688C50.2809 384.763 53.0743 385.641 55.8676 386.12L57.9427 386.439C63.3698 387.157 68.8766 387.556 74.3037 388.115L90.1858 389.791C93.1388 390.11 96.4908 390.908 99.4438 390.749C99.9984 390.757 100.549 390.648 101.058 390.428C101.567 390.208 102.023 389.882 102.397 389.472C102.898 388.809 103.252 388.047 103.434 387.237C114.847 387.237 126.26 386.838 137.593 385.88L145.015 385.162C148.686 384.843 152.437 384.444 156.109 383.885C158.822 383.566 161.935 383.167 163.531 380.772C165.127 378.378 165.047 373.111 164.648 369.918C163.93 364.252 162.015 358.745 160.897 353.158C159.78 347.571 159.221 342.144 158.423 336.637L155.231 315.648ZM153.635 314.131C154.193 313.173 152.916 312.695 152.597 311.657C152.837 313.253 152.996 314.929 153.156 316.525C153.635 316.126 154.273 314.53 153.635 314.051V314.131Z" fill="#80A5AE"/>
<path d="M90.823 94.1758C85.795 96.6499 74.7813 104.471 67.9974 115.565C58.5799 131.048 57.2231 152.756 66.5608 166.962C84.0392 193.459 134.718 187.473 157.225 184.84C165.605 183.802 184.679 179.572 188.59 179.812C189.83 179.894 191.069 179.646 192.181 179.093C192.9 178.774 194.177 178.136 194.336 176.939C194.735 173.746 193.937 171.352 190.745 170.554C189.867 170.314 193.139 170.554 193.937 168.958C194.403 168.24 194.677 167.416 194.735 166.563C194.78 165.766 194.78 164.966 194.735 164.169C193.937 160.977 188.59 162.014 188.351 160.977C188.111 159.939 190.745 160.817 191.543 159.38C192.035 158.386 192.307 157.297 192.341 156.188C192.261 153.794 183.003 149.963 173.985 149.005" fill="white"/>
<path d="M122.907 188.91C100.72 188.91 76.378 184.839 65.2046 167.84C55.8669 153.714 56.5054 131.367 66.6412 114.766C73.2654 103.832 84.2792 95.612 90.1053 92.7389C90.2939 92.6446 90.4993 92.5883 90.7097 92.5734C90.9201 92.5584 91.1314 92.5851 91.3315 92.6518C91.5316 92.7185 91.7166 92.8239 91.8759 92.9621C92.0353 93.1003 92.1658 93.2686 92.2602 93.4572C92.3545 93.6459 92.4107 93.8512 92.4257 94.0616C92.4406 94.272 92.414 94.4833 92.3473 94.6834C92.2806 94.8835 92.1751 95.0684 92.0369 95.2278C91.8987 95.3871 91.7305 95.5177 91.5419 95.612C86.035 98.3256 75.6597 106.067 69.3547 116.442C59.7776 132.005 59.2189 152.916 67.9182 166.084C84.758 191.783 135.437 185.797 156.986 183.243C160.577 182.844 166.164 181.807 171.591 180.769C180.769 179.093 186.436 178.056 188.67 178.215C189.628 178.31 190.593 178.144 191.464 177.736H191.544C192.501 177.257 192.741 176.938 192.741 176.858C193.14 173.586 192.102 172.629 190.346 172.15C189.959 172.075 189.611 171.865 189.363 171.559C189.115 171.252 188.982 170.868 188.99 170.474C189.069 169.596 189.628 169.117 190.745 168.877C191.863 168.638 192.421 168.399 192.501 168.319V168.159C192.804 167.675 192.995 167.13 193.06 166.563C193.1 165.898 193.1 165.232 193.06 164.568C192.821 163.69 191.464 163.45 189.868 163.211C188.271 162.972 186.994 162.892 186.675 161.375C186.628 161.14 186.632 160.896 186.687 160.662C186.742 160.428 186.847 160.209 186.994 160.019C187.222 159.726 187.512 159.487 187.843 159.322C188.175 159.156 188.539 159.067 188.91 159.061C189.327 158.988 189.73 158.854 190.107 158.662C190.442 157.962 190.632 157.202 190.666 156.427C189.868 154.911 182.286 151.559 173.746 150.681C173.323 150.638 172.933 150.43 172.664 150.1C172.395 149.771 172.267 149.348 172.309 148.925C172.352 148.502 172.56 148.112 172.89 147.843C173.219 147.574 173.642 147.446 174.065 147.488C181.088 148.207 193.778 151.798 193.858 156.267C193.803 157.648 193.478 159.003 192.9 160.258L192.661 160.577C193.493 160.741 194.263 161.134 194.883 161.713C195.504 162.291 195.95 163.031 196.173 163.849C196.332 164.248 196.332 164.647 196.252 166.723C196.189 167.736 195.889 168.72 195.374 169.596V169.755C195.168 170.211 194.836 170.599 194.417 170.873C195.614 172.15 196.332 174.145 195.853 177.257C195.374 180.37 193.858 180.131 192.98 180.53H192.9C191.534 181.187 190.025 181.488 188.511 181.408C186.436 181.248 178.854 182.685 172.15 183.882C166.723 184.919 161.056 185.957 157.385 186.436C149.005 187.393 136.315 188.91 122.907 188.91Z" fill="#090909"/>
<path d="M109.339 90.584C110.319 92.8917 111.042 95.3006 111.494 97.7669C112.292 101.837 113.888 110.935 109.339 114.128C106.147 116.442 100.56 115.325 97.2079 112.691C90.8231 107.823 90.8231 96.2505 90.8231 94.1754C90.8231 92.1004 91.2222 89.2272 90.1049 86.354C88.9875 83.4809 86.0346 81.5655 84.3586 79.1712C80.4479 73.4249 82.8422 59.4581 92.978 54.1907C100.56 50.28 109.179 52.9936 114.367 57.0639C119.555 61.1342 124.184 68.9555 122.188 77.0163C121.949 77.9741 119.954 85.955 112.212 89.1474C108.817 90.5282 105.067 90.7801 101.518 89.8657" fill="white"/>
<path d="M105.03 117C101.857 116.944 98.7831 115.882 96.2512 113.968C90.1058 109.259 89.2279 99.5221 89.2279 94.1749V92.2594C89.3077 90.2642 89.3875 88.8275 88.5894 86.9121C87.9498 85.205 86.8437 83.7118 85.3971 82.6025C84.5079 81.8656 83.7286 81.0056 83.0826 80.0485C80.9277 76.9359 80.4488 71.7483 81.7258 66.6405C83.0028 61.5327 87.0731 55.4671 92.1809 52.7536C100.8 48.364 110.058 51.6362 115.326 55.7863C120.593 59.9364 125.861 68.7156 123.786 77.4148C123.387 79.011 121.072 87.2314 112.852 90.6632L111.335 91.2219C112.125 93.2338 112.713 95.3191 113.091 97.4471C113.889 102.076 115.645 111.573 110.298 115.484C108.735 116.51 106.899 117.038 105.03 117ZM100.96 53.8709C98.4331 53.8641 95.9419 54.4663 93.6973 55.6267C91.4646 56.8511 89.5193 58.5383 87.9915 60.5754C86.4636 62.6124 85.3886 64.9524 84.8384 67.4386C83.721 71.6685 84.1201 75.8984 85.7163 78.2927C86.2616 79.0161 86.8764 79.6843 87.5519 80.288C89.3541 81.7156 90.7562 83.5852 91.6222 85.715C92.3756 87.8643 92.648 90.1529 92.4203 92.419V94.1749C92.4203 102.315 94.4954 108.62 98.2464 111.494C101.997 114.367 105.908 114.686 108.462 112.85C111.016 111.015 110.617 101.677 109.978 98.0057C109.562 95.9039 108.947 93.8462 108.143 91.8604C105.796 92.136 103.42 92.001 101.12 91.4613C100.914 91.4062 100.721 91.3103 100.553 91.1795C100.384 91.0486 100.244 90.8853 100.14 90.6994C100.036 90.5134 99.97 90.3085 99.9464 90.0967C99.9227 89.8849 99.9417 89.6704 100.002 89.4661C100.048 89.2632 100.135 89.072 100.258 88.9042C100.381 88.7365 100.537 88.5959 100.717 88.4911C100.897 88.3863 101.096 88.3196 101.303 88.2951C101.509 88.2706 101.719 88.2889 101.918 88.3487C105.122 89.1733 108.507 88.9495 111.575 87.7102C118.438 84.8371 120.354 78.0533 120.673 76.6965C122.429 69.2742 118.279 62.1711 113.41 58.3403C109.853 55.5424 105.484 53.9741 100.96 53.8709Z" fill="#090909"/>
<path d="M112.213 96.3306C119.876 97.1451 127.221 99.8311 133.602 104.152C155.869 119.475 154.911 150.92 154.831 153.794" fill="white"/>
<path d="M154.831 155.39H154.751C154.542 155.379 154.336 155.328 154.146 155.238C153.957 155.148 153.786 155.022 153.646 154.866C153.505 154.71 153.396 154.528 153.325 154.331C153.255 154.133 153.224 153.923 153.235 153.714C153.395 150.362 153.953 120.114 132.724 105.508C126.575 101.294 119.469 98.6872 112.053 97.9265C111.631 97.8492 111.251 97.6197 110.986 97.2814C110.722 96.9431 110.59 96.5195 110.617 96.0908C110.694 95.6895 110.915 95.3302 111.238 95.0803C111.561 94.8305 111.965 94.7073 112.372 94.7341C120.33 95.5612 127.955 98.3591 134.56 102.875C157.146 118.438 156.587 150.282 156.427 153.873C156.428 154.079 156.386 154.283 156.305 154.472C156.224 154.662 156.105 154.833 155.955 154.975C155.806 155.116 155.629 155.227 155.436 155.298C155.243 155.369 155.037 155.4 154.831 155.39Z" fill="#090909"/>
<path d="M82.0448 71.6687C82.3623 71.6687 82.6668 71.5426 82.8913 71.3181C83.1158 71.0936 83.242 70.7891 83.242 70.4716C83.242 70.1541 83.1158 69.8496 82.8913 69.625C82.6668 69.4005 82.3623 69.2744 82.0448 69.2744C81.7273 69.2744 81.4228 69.4005 81.1983 69.625C80.9738 69.8496 80.8477 70.1541 80.8477 70.4716C80.8477 70.7891 80.9738 71.0936 81.1983 71.3181C81.4228 71.5426 81.7273 71.6687 82.0448 71.6687Z" fill="#090909"/>
<path d="M119.554 60.8146C117.719 59.6174 115.644 58.4202 113.489 57.3029C113.536 57.1342 113.546 56.9572 113.518 56.7843C113.49 56.6114 113.424 56.4468 113.325 56.3022C113.226 56.1575 113.096 56.0364 112.945 55.9474C112.794 55.8583 112.626 55.8033 112.451 55.7865L109.897 55.5471L108.78 55.1481C108.71 55.0384 108.616 54.9457 108.506 54.8767C108.395 54.8076 108.271 54.764 108.142 54.749L107.104 54.5096C102.555 52.9932 97.8462 52.5942 93.3768 54.4298C93.6828 53.902 93.924 53.3393 94.0951 52.7538C94.3356 53.0078 94.6436 53.1878 94.983 53.2727C95.3223 53.3575 95.6788 53.3436 96.0105 53.2326C96.3171 53.1124 96.5907 52.9209 96.8086 52.674C97.3892 52.9163 98.0307 52.972 98.6443 52.8336C100.799 51.7961 97.7664 49.2421 96.9683 48.444H96.8885C92.8182 42.9372 89.7056 37.4303 83.4006 34.0783C81.4603 33.1081 79.4285 32.3328 77.3351 31.7638C74.7752 30.2022 71.8691 29.2976 68.8752 29.1301C62.251 28.6513 55.0681 31.7638 51.9556 37.8293C48.843 43.8948 50.6786 49.1623 50.519 55.3077C50.5535 55.8328 50.443 56.3574 50.1997 56.8241L48.9228 57.8616C44.3736 61.2935 39.186 64.1666 36.7917 69.5936C34.3974 75.0207 35.1955 81.8045 38.5475 87.3114L38.9466 87.9499C39.3456 89.3067 39.6648 90.6634 39.9841 92.1C39.9841 92.1798 40.0639 92.499 40.1437 92.8981C39.7479 94.8404 38.8696 96.6519 37.5898 98.1656C35.3551 101.039 32.881 103.672 30.9656 106.865C27.5338 112.451 23.224 120.273 23.3038 127.057C23.3836 133.841 28.4117 139.028 35.3551 138.47C43.5755 137.831 51.2373 128.653 59.5375 132.005C62.0914 133.042 63.2087 128.892 60.6548 127.855C61.3887 127.167 61.9783 126.34 62.3893 125.422C62.8004 124.504 63.0247 123.513 63.0491 122.508C66.88 116.841 70.4714 110.855 74.7013 105.348C74.0629 106.226 75.7389 104.311 76.2975 103.832C77.8822 102.414 79.2532 100.774 80.3678 98.9637C82.6823 94.8934 83.3208 90.5836 83.7198 85.8749C83.9593 83.4008 84.1189 80.9266 84.1987 78.3727C84.5227 79.2964 84.8956 80.2023 85.316 81.0863C85.4079 81.2293 85.5313 81.3495 85.6767 81.4377C85.822 81.5259 85.9856 81.5797 86.155 81.5951C86.3243 81.6105 86.4949 81.587 86.6538 81.5265C86.8127 81.466 86.9557 81.37 87.0719 81.2458C87.155 81.979 87.3155 82.7014 87.5507 83.4008C87.87 84.5181 89.7854 84.2787 89.6258 83.0815C88.9075 76.9362 90.9825 69.5138 94.0951 64.1665C97.2077 58.8193 103.592 57.4625 109.498 57.7817C112.636 59.1799 115.652 60.8349 118.517 62.73C118.771 62.8676 119.069 62.8987 119.346 62.8163C119.623 62.734 119.856 62.545 119.993 62.291C120.131 62.037 120.162 61.7387 120.08 61.4618C119.997 61.185 119.808 60.9521 119.554 60.8146Z" fill="#090909"/>
<path d="M92.0219 68.8761C90.1064 67.5992 87.3131 67.5991 86.0361 69.754C84.7592 71.9089 85.0784 74.5426 86.7544 75.9792C87.6243 76.6189 88.6994 76.9156 89.7742 76.8126C90.849 76.7095 91.8481 76.214 92.5805 75.4206C94.0969 73.7446 93.9373 71.1906 91.543 70.5521C89.1487 69.9136 86.5948 70.6319 86.914 73.1859C87.2333 75.7398 90.3459 75.8196 91.4632 74.2234C92.5805 72.6272 91.543 69.4348 89.5478 69.1156C87.5525 68.7963 86.1958 71.9089 87.1535 73.6647C88.1112 75.4205 91.7825 75.1013 91.9421 72.7868C91.9421 71.7493 91.543 70.5521 90.3459 70.5521C89.1487 70.5521 88.7497 72.0685 88.6699 73.1061C88.5901 74.1436 90.9844 74.7023 91.0642 73.1061C91.0642 72.8666 91.144 72.6272 91.144 72.3878L90.4257 72.9464H89.7872L90.0266 73.1061L89.468 72.3878C89.5478 72.707 89.867 72.5473 89.7074 72.5473H89.2285C89.2285 72.5473 88.9891 71.5897 89.3083 71.9887C89.4988 72.2696 89.5836 72.6089 89.5478 72.9464H89.7074C89.3881 72.7868 89.3083 72.8666 89.3882 72.9464H90.5055C91.4632 73.1858 91.0642 73.8244 90.3459 74.3032C89.6276 74.7821 87.792 74.2234 87.792 72.707C87.744 72.3413 87.7842 71.9694 87.9092 71.6223C88.0341 71.2752 88.2402 70.963 88.5102 70.7118C89.3083 70.2329 90.1064 70.632 90.8247 71.1108C91.543 71.5897 93.2988 69.9137 92.0219 69.0358V68.8761Z" fill="white"/>
<path d="M101.119 148.206C100.497 143.035 99.5104 137.915 98.1663 132.883C98.0816 132.576 97.8785 132.315 97.6016 132.158C97.3247 132.001 96.9967 131.96 96.6898 132.045C96.3829 132.129 96.1222 132.332 95.965 132.609C95.8079 132.886 95.7672 133.214 95.8518 133.521C97.1692 138.339 98.1295 143.247 98.725 148.206C98.8846 149.723 101.279 149.723 101.119 148.206Z" fill="#090909"/>
<path d="M97.4472 139.029C84.9171 139.827 70.0724 136.714 60.4155 146.85C59.3779 147.967 61.0539 149.723 62.1713 148.606C71.2696 138.949 85.6354 142.141 97.4472 141.423C99.0434 141.263 99.0434 138.869 97.4472 139.029Z" fill="#090909"/>
<path d="M140.866 151.718C141.404 143.735 140.007 135.741 136.795 128.413C136.237 126.977 133.922 127.615 134.481 129.052C136.034 132.46 137.237 136.016 138.072 139.667C138.87 143.657 138.711 147.727 138.471 151.718C138.471 152.035 138.597 152.34 138.822 152.564C139.046 152.789 139.351 152.915 139.668 152.915C139.986 152.915 140.29 152.789 140.515 152.564C140.74 152.34 140.866 152.035 140.866 151.718Z" fill="#090909"/>
<path d="M140.466 138.55C143.724 136.085 147.64 134.641 151.719 134.4C153.235 134.24 153.235 131.846 151.719 132.006C147.218 132.229 142.884 133.785 139.269 136.475C138.071 137.353 139.189 139.508 140.466 138.55Z" fill="#090909"/>
<path d="M68.158 129.771C67.28 132.245 69.1955 134.64 71.6696 134.959C73.0735 135.166 74.503 134.822 75.6601 134.001C76.6178 133.203 76.8572 131.846 77.0168 130.649C77.1699 129.518 76.9454 128.368 76.3784 127.377C75.5803 126.259 74.1437 125.86 72.9465 125.621C69.9138 125.062 68.3974 127.058 68.158 129.851C68.0781 131.367 70.4724 131.367 70.5522 129.851C70.5604 129.321 70.6973 128.8 70.9513 128.335C71.3503 127.696 72.0686 127.856 72.7071 128.015C73.3456 128.175 74.7822 128.813 74.6226 130.25C74.4629 131.687 74.0639 132.564 72.5475 132.644C71.0311 132.724 69.9936 131.766 70.4724 130.41C70.9513 129.053 68.7166 128.335 68.158 129.771Z" fill="#CBC7DB"/>
<path d="M109.34 136.634C108.063 139.109 110.297 141.104 112.532 141.343C113.819 141.619 115.16 141.479 116.363 140.944C116.868 140.618 117.295 140.184 117.612 139.674C117.929 139.163 118.13 138.588 118.199 137.991C118.423 136.852 118.212 135.67 117.605 134.679C116.999 133.689 116.043 132.962 114.926 132.644C114.359 132.491 113.767 132.458 113.186 132.547C112.605 132.635 112.05 132.844 111.554 133.159C111.059 133.475 110.634 133.89 110.308 134.378C109.982 134.866 109.761 135.417 109.659 135.996C109.42 137.512 111.734 138.151 111.973 136.634C112.213 135.118 115.645 134.559 115.884 136.874C116.124 139.188 115.405 139.029 114.208 139.029C113.011 139.029 110.776 139.029 111.415 137.911C112.053 136.794 110.058 135.278 109.34 136.634Z" fill="#CBC7DB"/>
<path d="M120.913 111.415C118.12 113.25 119.077 118.518 121.312 120.353C123.547 122.189 129.213 122.588 132.006 120.194C132.649 119.64 133.153 118.944 133.479 118.161C133.804 117.378 133.941 116.529 133.879 115.683C133.817 114.837 133.557 114.018 133.121 113.29C132.685 112.563 132.085 111.948 131.368 111.494C129.612 110.377 127.378 109.18 125.143 109.34C122.908 109.499 121.312 110.936 119.796 112.452C119.646 112.697 119.583 112.985 119.617 113.269C119.65 113.554 119.779 113.819 119.982 114.022C120.184 114.225 120.45 114.353 120.734 114.387C121.019 114.421 121.307 114.358 121.551 114.208C123.786 111.893 125.622 111.255 128.655 112.771C131.687 114.288 132.884 115.964 130.57 118.278C128.255 120.593 126.101 119.954 124.185 119.236C123.516 119.05 122.923 118.656 122.493 118.111C122.062 117.565 121.816 116.897 121.791 116.203C121.711 115.724 121.551 113.889 122.11 113.49C122.669 113.091 122.19 110.617 120.913 111.415Z" fill="#CBC7DB"/>
<path d="M74.623 108.94C75.0221 113.09 80.928 110.935 82.8434 109.419C84.7589 107.902 88.3503 103.353 86.5147 99.6022C85.8762 98.2454 83.8012 99.4426 84.4396 100.799C85.0781 102.156 83.881 105.189 82.3646 106.705C81.6593 107.423 80.8182 107.992 79.8905 108.381C79.5713 108.621 77.0173 109.179 77.0173 108.94C76.9375 107.424 74.5432 107.424 74.623 108.94Z" fill="#CBC7DB"/>
<path d="M130.808 148.765C131.58 147.679 132.596 146.788 133.774 146.164C134.952 145.541 136.259 145.201 137.592 145.174C139.108 145.094 139.108 142.699 137.592 142.779C135.841 142.816 134.124 143.269 132.583 144.102C131.042 144.935 129.722 146.123 128.733 147.568C127.775 148.765 129.85 149.962 130.808 148.765Z" fill="#CBC7DB"/>
<path d="M111.334 94.6545C111.266 94.408 111.121 94.1899 110.92 94.0319C110.719 93.8739 110.472 93.7844 110.217 93.7766C108.62 93.617 107.184 95.1334 105.667 95.5324C102.874 96.3305 99.7615 95.8516 97.0479 95.1334C95.6882 94.863 94.3723 94.4064 93.1373 93.7766C92.7382 93.5372 91.8603 92.5794 91.3016 92.4996C91.1175 92.3656 90.8886 92.3084 90.6632 92.34H90.4237C88.2688 91.1429 87.1515 89.0678 85.2361 87.6312C83.3206 86.1946 81.6446 86.1148 79.41 86.035C77.1753 85.9552 72.8656 86.035 69.5934 86.1148C68.476 86.1148 66.8798 85.8754 66.3212 87.0726C65.124 89.5467 70.6309 93.6169 72.2271 94.4948C73.8233 95.3727 76.9359 95.5324 79.41 95.3728L88.9871 94.8939L89.1468 95.1334C92.0199 98.4854 96.8085 100.002 101.118 100.002C105.428 100.002 109.179 100.082 111.254 96.4901C111.312 96.3652 111.339 96.2285 111.334 96.091C111.468 95.8756 111.54 95.6268 111.54 95.3728C111.54 95.1189 111.468 94.87 111.334 94.6545Z" fill="#80A5AE"/>
<path d="M165.126 405.593C160.497 404.715 154.591 402.561 149.802 403.598C147.328 404.077 145.173 406.072 142.54 405.833C139.906 405.593 137.99 403.838 135.516 403.518C133.904 403.392 132.291 403.754 130.887 404.556C127.934 406.072 126.258 406.631 122.827 406.072C119.395 405.514 117.878 403.997 115.165 406.87C114.127 407.988 114.127 410.382 115.165 409.265C118.517 405.673 124.183 409.584 128.333 408.387C129.77 407.988 130.887 407.03 132.244 406.391C135.197 405.035 137.591 406.791 140.305 407.668C143.018 408.546 145.572 407.429 148.765 406.312C153.633 404.716 160.018 407.03 164.807 407.908C165.078 407.885 165.333 407.771 165.53 407.584C165.728 407.397 165.856 407.148 165.893 406.878C165.93 406.609 165.874 406.335 165.735 406.101C165.595 405.868 165.381 405.689 165.126 405.593Z" fill="white"/>
<path d="M147.328 387.158C144.783 388.443 142.57 390.3 140.864 392.585C139.906 393.862 141.981 395.059 142.939 393.862C144.432 391.901 146.34 390.293 148.526 389.153C149.882 388.515 148.685 386.44 147.328 387.158Z" fill="white"/>
<path d="M153.874 387.237C151.808 388.641 149.907 390.274 148.207 392.105C147.17 393.222 148.846 394.898 149.883 393.781C151.441 392.102 153.181 390.603 155.071 389.312C156.268 388.434 155.071 386.359 153.874 387.237Z" fill="white"/>
<path d="M105.11 386.837C104.79 381.889 106.466 377.18 105.908 372.232C105.349 367.284 103.114 362.735 103.833 357.707C104.072 356.19 101.758 355.552 101.518 357.068C100.88 361.617 102.157 365.528 103.034 369.997C104.311 375.744 102.316 381.091 102.715 386.837C102.795 388.354 105.189 388.354 105.11 386.837Z" fill="#090909"/>
<path d="M104.949 341.107C108.06 315.064 109.818 288.878 110.216 262.654C110.216 262.336 110.09 262.032 109.866 261.807C109.641 261.583 109.337 261.457 109.019 261.457C108.702 261.457 108.397 261.583 108.173 261.807C107.948 262.032 107.822 262.336 107.822 262.654C107.423 288.878 105.665 315.064 102.555 341.107C102.395 342.623 104.789 342.623 104.949 341.107Z" fill="#090909"/>
<path d="M113.57 245.016C113.81 237.194 114.129 229.293 114.847 221.552C115.565 213.81 118.678 206.467 122.11 199.285C122.748 197.848 120.673 196.651 120.035 198.087C116.842 204.712 113.73 211.496 112.772 218.838C111.655 227.537 111.415 236.316 111.176 245.016C111.096 246.532 113.49 246.532 113.57 245.016Z" fill="#090909"/>
<path d="M54.2717 374.547C60.5766 372.711 66.8816 377.021 73.3462 375.983C74.8626 375.744 74.2241 373.429 72.7077 373.669C66.1633 374.706 60.1776 370.317 53.6332 372.232C53.4812 372.274 53.339 372.346 53.2146 372.443C53.0903 372.539 52.9862 372.66 52.9084 372.797C52.8306 372.934 52.7805 373.085 52.7611 373.242C52.7417 373.398 52.7533 373.557 52.7952 373.709C52.8371 373.861 52.9086 374.003 53.0054 374.127C53.1023 374.252 53.2228 374.356 53.3599 374.434C53.497 374.511 53.6481 374.561 53.8045 374.581C53.9609 374.6 54.1197 374.589 54.2717 374.547Z" fill="#090909"/>
<path d="M83.0018 376.623C83.3193 376.623 83.6238 376.497 83.8484 376.272C84.0729 376.048 84.199 375.743 84.199 375.426C84.199 375.108 84.0729 374.804 83.8484 374.579C83.6238 374.355 83.3193 374.229 83.0018 374.229C82.6843 374.229 82.3798 374.355 82.1553 374.579C81.9308 374.804 81.8047 375.108 81.8047 375.426C81.8047 375.743 81.9308 376.048 82.1553 376.272C82.3798 376.497 82.6843 376.623 83.0018 376.623Z" fill="#090909"/>
<path d="M137.033 376.862C141.742 375.824 146.53 374.947 151.319 374.228C152.835 373.989 152.197 371.674 150.68 371.914C145.892 372.632 141.103 373.51 136.394 374.547C134.878 374.867 135.517 377.181 137.033 376.862Z" fill="#090909"/>
<path d="M157.545 371.913L162.732 370.955C164.249 370.636 163.61 368.321 162.094 368.64L156.906 369.598C155.39 369.918 156.028 372.232 157.545 371.913Z" fill="#090909"/>
<path d="M110.537 376.144H116.283C116.601 376.144 116.905 376.018 117.13 375.794C117.354 375.569 117.48 375.265 117.48 374.947C117.48 374.63 117.354 374.325 117.13 374.101C116.905 373.876 116.601 373.75 116.283 373.75H110.537C110.219 373.75 109.915 373.876 109.69 374.101C109.466 374.325 109.34 374.63 109.34 374.947C109.34 375.265 109.466 375.569 109.69 375.794C109.915 376.018 110.219 376.144 110.537 376.144Z" fill="#090909"/>
<path d="M83.8788 377.101H84.3577C84.6752 377.101 84.9796 376.975 85.2041 376.751C85.4287 376.526 85.5548 376.222 85.5548 375.904C85.5667 375.744 85.5439 375.583 85.488 375.432C85.432 375.282 85.3442 375.145 85.2306 375.031C85.117 374.918 84.9802 374.83 84.8295 374.774C84.6788 374.718 84.5179 374.695 84.3577 374.707H83.8788C83.5613 374.707 83.2568 374.833 83.0323 375.058C82.8078 375.282 82.6816 375.587 82.6816 375.904C82.6816 376.222 82.8078 376.526 83.0323 376.751C83.2568 376.975 83.5613 377.101 83.8788 377.101Z" fill="#090909"/>
<path d="M126.34 218.839L128.175 270.236C128.255 271.753 130.65 271.753 130.57 270.236L128.734 218.839C128.654 217.323 126.26 217.323 126.34 218.839Z" fill="white"/>
<path d="M130.009 279.334C129.132 290.747 131.366 301.92 133.202 313.094C135.262 325.516 136.249 338.093 136.155 350.684C136.155 351.002 136.281 351.306 136.505 351.531C136.73 351.755 137.034 351.881 137.352 351.881C137.669 351.881 137.974 351.755 138.198 351.531C138.423 351.306 138.549 351.002 138.549 350.684C138.655 338.876 137.801 327.078 135.995 315.408C134.08 303.437 131.446 291.545 132.404 279.334C132.563 277.738 130.169 277.738 130.009 279.334Z" fill="white"/>
<path d="M96.4115 207.107C91.2238 232.167 85.3179 257.227 82.764 282.607C81.5669 295.456 81.7265 308.306 81.1678 321.235C80.5964 334.332 78.9413 347.358 76.2196 360.182C75.9004 361.619 78.2148 362.337 78.5341 360.82C81.0722 348.776 82.6996 336.557 83.4025 324.268C84.1208 311.418 83.8015 298.569 84.9189 285.719C87.1535 259.462 93.3787 233.524 98.6462 207.745C98.9654 206.229 96.6509 205.59 96.4115 207.107Z" fill="white"/>
<path d="M390.111 389.153L397.294 388.833L396.815 381.81L425.866 381.092L426.345 388.115L427.622 407.668C427.782 409.983 425.786 411.819 423.232 411.898L379.257 412.936C378.375 413.007 377.498 412.742 376.803 412.195C376.107 411.647 375.644 410.857 375.506 409.983C374.788 398.57 377.023 389.472 390.111 389.153Z" fill="#80A5AE"/>
<path d="M377.581 406.551C381.571 408.227 386.12 406.95 390.191 406.312C394.261 405.673 397.693 405.274 401.444 404.875C407.131 404.236 412.88 404.397 418.523 405.354C418.763 401.204 420.758 397.612 424.509 394.819C425.945 393.861 427.701 395.777 426.345 396.735C422.833 399.288 420.997 402.641 421.237 406.711C421.317 407.748 420.518 408.307 419.401 408.068C411.34 406.072 403.2 407.03 395.139 408.147C389.313 408.866 382.29 411.18 376.543 408.786C376.247 408.648 376.017 408.399 375.905 408.092C375.793 407.785 375.807 407.446 375.945 407.15C376.082 406.853 376.332 406.624 376.639 406.512C376.946 406.399 377.284 406.414 377.581 406.551Z" fill="#090909"/>
<path d="M396.814 390.11C400.724 390.988 404.715 392.105 407.269 395.138C408.386 396.415 406.231 397.931 405.114 396.654C402.879 394.021 399.288 393.143 395.776 392.345C394.02 391.946 395.058 389.711 396.814 390.11Z" fill="#090909"/>
<path d="M383.964 389.551C389.391 390.588 394.739 391.785 398.569 395.536C399.846 396.734 397.691 398.25 396.494 397.053C393.142 393.781 388.354 392.823 383.725 392.025C381.969 391.626 382.208 389.231 383.964 389.551Z" fill="#090909"/>
<path d="M342.305 395.298L349.009 395.058L348.769 387.955L375.745 387.556L375.984 394.739L376.703 414.691C376.703 415.821 376.26 416.905 375.469 417.711C374.678 418.517 373.602 418.98 372.473 419.001L331.69 419.56C330.827 419.583 329.989 419.272 329.35 418.692C328.71 418.112 328.319 417.308 328.258 416.447C327.939 404.875 330.253 395.537 342.305 395.298Z" fill="#80A5AE"/>
<path d="M329.375 413.495C338.953 411.674 348.762 411.405 358.426 412.697C360.9 413.016 363.614 414.054 365.928 412.936C368.243 411.819 367.604 410.622 368.562 408.866C370.032 406.285 372.342 404.286 375.106 403.2C376.623 402.481 377.501 404.796 376.064 405.514C373.552 406.493 371.52 408.41 370.397 410.861C369.919 412.058 370.078 414.213 369.2 415.171C368.322 416.129 363.135 415.889 361.139 415.57C350.709 413.946 340.08 414.081 329.694 415.969C328.018 416.288 327.779 413.814 329.375 413.495Z" fill="#090909"/>
<path d="M347.013 395.856L358.585 401.203C360.022 401.842 358.984 404.156 357.468 403.438L345.975 398.17C345.707 398.01 345.507 397.757 345.413 397.458C345.319 397.16 345.337 396.837 345.465 396.552C345.593 396.266 345.821 396.038 346.107 395.91C346.392 395.781 346.715 395.762 347.013 395.856Z" fill="#090909"/>
<path d="M340.07 397.612C343.015 398.086 345.745 399.451 347.891 401.523C349.088 402.64 347.412 404.556 346.295 403.438C344.453 401.65 342.118 400.455 339.591 400.006C339.273 399.943 338.994 399.756 338.814 399.486C338.635 399.217 338.57 398.887 338.633 398.57C338.697 398.252 338.884 397.973 339.153 397.793C339.422 397.614 339.752 397.549 340.07 397.612Z" fill="#090909"/>
<path d="M178.773 137.432C178.773 135.463 178.853 133.468 179.013 131.446C179.172 127.855 179.252 125.46 183.163 124.423L199.284 120.033C199.591 119.949 199.852 119.746 200.009 119.469C200.166 119.192 200.207 118.864 200.122 118.557C200.038 118.25 199.835 117.989 199.558 117.832C199.281 117.675 198.953 117.634 198.646 117.719L186.355 121.071C183.801 121.789 179.891 122.029 177.895 123.864C175.9 125.7 176.778 126.179 176.698 127.615C176.459 130.888 176.379 134.16 176.379 137.432C176.379 137.749 176.505 138.054 176.73 138.279C176.954 138.503 177.259 138.629 177.576 138.629C177.894 138.629 178.198 138.503 178.423 138.279C178.647 138.054 178.773 137.749 178.773 137.432Z" fill="#090909"/>
<path d="M428.418 374.068L426.104 365.049C419.559 340.388 413.015 315.806 406.55 291.145L395.536 249.644C395.403 249.031 395.13 248.458 394.738 247.968C396.335 242.94 397.851 237.753 399.208 232.645C403.078 218.63 405.8 204.323 407.348 189.867C407.747 186.275 403.597 184.759 401.043 186.116C384.682 194.416 364.89 202.556 346.932 194.496L345.815 194.176C345.657 193.077 345.096 192.075 344.24 191.367C343.385 190.659 342.296 190.295 341.186 190.346L339.59 189.547L328.017 185.158H327.698L327.299 184.599C326.866 184.083 326.32 183.673 325.703 183.402C325.035 183.005 324.278 182.786 323.501 182.764C322.725 182.743 321.956 182.921 321.268 183.281C320.58 183.641 319.996 184.171 319.571 184.821C319.145 185.471 318.894 186.219 318.839 186.993C317.163 208.382 321.952 229.372 324.107 250.522C324.114 250.821 324.168 251.117 324.266 251.4C322.75 258.024 321.393 264.648 320.515 271.352C318.759 284.601 319.637 298.328 319.717 311.656L319.957 352.599C320.036 366.166 319.957 380.053 324.825 392.903C325.623 394.818 326.9 395.936 328.895 396.095C346.657 397.389 364.511 396.477 382.049 393.382C382.725 393.318 383.365 393.046 383.88 392.603C384.395 392.16 384.759 391.567 384.922 390.907C385.381 390.708 385.791 390.408 386.119 390.03L420.278 389.311C425.066 389.231 430.334 388.274 430.174 381.969C430.174 379.255 429.136 376.622 428.418 374.068ZM375.025 335.919C375.025 335.679 375.105 335.44 375.105 335.2C375.105 334.961 375.185 335.919 375.185 336.238L375.025 335.919ZM366.087 366.486C366.167 366.645 366.167 366.805 366.246 366.965L364.81 366.805L366.087 366.486ZM339.031 375.584C339.031 375.265 338.951 374.866 338.951 374.546H339.271L339.51 375.504L339.031 375.584ZM421.315 379.974C421.35 380.105 421.376 380.238 421.395 380.373H420.916L421.315 379.974Z" fill="#090909"/>
<path d="M207.744 118.358L217.162 115.565C220.195 114.687 223.467 113.33 226.579 113.41C226.897 113.41 227.201 113.284 227.426 113.059C227.65 112.835 227.777 112.53 227.777 112.213C227.777 111.895 227.65 111.591 227.426 111.366C227.201 111.142 226.897 111.016 226.579 111.016C223.626 110.936 220.833 111.973 217.96 112.851L207.106 116.044C206.954 116.085 206.812 116.157 206.687 116.254C206.563 116.351 206.459 116.471 206.381 116.608C206.303 116.745 206.253 116.896 206.234 117.053C206.214 117.209 206.226 117.368 206.268 117.52C206.31 117.672 206.381 117.814 206.478 117.939C206.575 118.063 206.695 118.167 206.833 118.245C206.97 118.323 207.121 118.373 207.277 118.392C207.434 118.412 207.592 118.4 207.744 118.358Z" fill="#090909"/>
<path d="M211.178 211.097C215.248 210.378 219.398 207.505 218.441 202.876C218.122 201.36 215.807 201.998 216.126 203.515C216.845 206.787 213.173 208.303 210.54 208.782C207.906 209.261 209.741 211.336 211.178 211.097Z" fill="#090909"/>
<path d="M330.493 115.006L330.254 114.846C330.277 114.731 330.276 114.612 330.252 114.497C330.228 114.381 330.181 114.272 330.114 114.175C330.047 114.079 329.962 113.996 329.862 113.933C329.763 113.87 329.652 113.828 329.535 113.809C324.3 113.09 319.017 112.77 313.733 112.851C313.557 112.727 313.349 112.656 313.133 112.647C312.918 112.638 312.705 112.692 312.519 112.801C312.333 112.911 312.184 113.072 312.087 113.265C311.991 113.458 311.953 113.675 311.977 113.889C311.962 114.077 311.999 114.265 312.084 114.434C312.168 114.603 312.297 114.745 312.456 114.846C312.888 116.132 313.103 117.481 313.095 118.837C312.865 119.532 312.757 120.261 312.775 120.992C312.568 122.126 312.042 123.178 311.259 124.025L310.94 124.344C310.297 124.317 309.654 124.371 309.024 124.503C307.242 124.945 305.427 125.239 303.597 125.381L302.959 125.222C298.649 124.344 297.053 121.551 296.654 118.119C296.588 117.831 296.561 117.536 296.574 117.241C296.454 115.833 296.454 114.418 296.574 113.011C296.59 112.843 296.561 112.674 296.49 112.521C296.42 112.368 296.31 112.237 296.173 112.139C296.035 112.042 295.874 111.983 295.706 111.968C295.539 111.953 295.37 111.982 295.217 112.053C288.973 112.149 282.737 111.561 276.621 110.297C276.462 110.245 276.292 110.233 276.126 110.261C275.96 110.29 275.804 110.358 275.671 110.46C275.537 110.562 275.431 110.695 275.36 110.847C275.289 111 275.256 111.167 275.265 111.335C275.745 120.012 275.02 128.715 273.11 137.193C266.087 135.597 257.786 139.428 255.791 146.691C254.594 150.761 257.307 153.634 260.819 155.31C263.043 156.292 265.373 157.015 267.763 157.465C269.199 157.704 270.396 157.545 270.955 159.061C271.514 160.577 270.077 163.211 269.917 164.328C268.828 170.181 268.135 176.1 267.842 182.046C267.683 187.234 271.593 186.037 275.903 186.117L316.846 186.994L317.404 186.835H323.23C323.413 186.873 323.602 186.868 323.783 186.82C323.963 186.771 324.13 186.682 324.27 186.558C324.409 186.434 324.518 186.279 324.587 186.105C324.656 185.931 324.683 185.744 324.667 185.558C323.23 179.093 325.944 172.948 326.981 166.643C327.846 161.497 328.353 156.297 328.498 151.08C328.817 145.334 328.977 139.587 328.977 133.841C329.056 127.855 329.136 121.95 330.892 116.203C330.982 115.989 330.991 115.75 330.918 115.53C330.844 115.309 330.693 115.123 330.493 115.006ZM270.716 174.544H270.636V174.065C270.636 174.305 270.716 174.385 270.716 174.544ZM313.733 124.344C313.733 124.424 313.733 124.424 313.813 124.503L313.414 124.982H313.254L313.733 124.344Z" fill="#CBC7DB"/>
<path d="M218.838 199.525L218.678 198.407C218.642 198.257 218.575 198.116 218.482 197.993C218.388 197.87 218.27 197.768 218.135 197.693C218 197.618 217.851 197.572 217.697 197.558C217.544 197.543 217.388 197.561 217.242 197.609C216.936 197.685 216.672 197.878 216.508 198.147C216.343 198.416 216.292 198.739 216.364 199.046L216.524 200.163C216.632 200.46 216.848 200.707 217.128 200.854C217.408 201.002 217.733 201.04 218.04 200.961C218.19 200.925 218.331 200.858 218.454 200.764C218.577 200.671 218.679 200.553 218.754 200.418C218.829 200.283 218.875 200.134 218.89 199.98C218.904 199.826 218.886 199.671 218.838 199.525Z" fill="#090909"/>
<path d="M229.854 161.774L230.572 177.337C230.572 177.655 230.698 177.959 230.922 178.184C231.147 178.408 231.451 178.535 231.769 178.535C232.086 178.535 232.391 178.408 232.615 178.184C232.84 177.959 232.966 177.655 232.966 177.337L232.248 161.774C232.168 160.258 229.774 160.258 229.854 161.774Z" fill="#090909"/>
<path d="M179.412 188.271V193.299C179.412 193.617 179.538 193.921 179.763 194.146C179.987 194.37 180.292 194.497 180.609 194.497C180.927 194.497 181.231 194.37 181.456 194.146C181.68 193.921 181.806 193.617 181.806 193.299V188.271C181.806 187.954 181.68 187.649 181.456 187.425C181.231 187.2 180.927 187.074 180.609 187.074C180.292 187.074 179.987 187.2 179.763 187.425C179.538 187.649 179.412 187.954 179.412 188.271Z" fill="#090909"/>
<path d="M179.172 196.253V196.971C179.172 197.289 179.298 197.593 179.523 197.818C179.747 198.042 180.052 198.168 180.369 198.168C180.68 198.149 180.974 198.017 181.195 197.797C181.415 197.576 181.547 197.282 181.566 196.971V196.253C181.566 195.935 181.44 195.631 181.216 195.406C180.991 195.182 180.687 195.056 180.369 195.056C180.052 195.056 179.747 195.182 179.523 195.406C179.298 195.631 179.172 195.935 179.172 196.253Z" fill="#090909"/>
<path d="M260.739 148.047C261.058 146.291 263.213 144.934 264.57 143.977C266.035 142.801 267.881 142.205 269.758 142.301C271.274 142.46 271.274 140.066 269.758 139.906C268.241 139.747 264.889 140.705 262.814 142.221C260.739 143.737 258.903 145.094 258.425 147.409C257.946 149.723 260.42 149.564 260.739 148.047Z" fill="#090909"/>
<path d="M274.226 141.982C274.544 141.982 274.848 141.856 275.073 141.632C275.297 141.407 275.424 141.103 275.424 140.785C275.424 140.468 275.297 140.163 275.073 139.939C274.848 139.714 274.544 139.588 274.226 139.588C273.909 139.588 273.604 139.714 273.38 139.939C273.155 140.163 273.029 140.468 273.029 140.785C273.029 141.103 273.155 141.407 273.38 141.632C273.604 141.856 273.909 141.982 274.226 141.982Z" fill="#090909"/>
<path d="M311.577 113.649C311.657 116.283 311.816 119.555 310.779 122.029C309.741 124.503 308.624 123.865 306.708 123.944H302.319C300.803 123.865 300.803 126.259 302.319 126.339C304.659 126.526 307.013 126.473 309.342 126.179C310.619 126.02 311.657 125.78 312.375 124.743C313.093 123.705 313.413 121.391 313.652 119.874C313.959 117.841 314.066 115.783 313.971 113.729C313.971 113.411 313.845 113.107 313.621 112.882C313.396 112.658 313.092 112.532 312.774 112.532C312.457 112.532 312.152 112.658 311.928 112.882C311.703 113.107 311.577 113.411 311.577 113.729V113.649Z" fill="#090909"/>
<path d="M294.738 120.114C294.707 120.919 294.864 121.721 295.196 122.455C295.529 123.189 296.028 123.836 296.654 124.344C296.899 124.552 297.21 124.666 297.532 124.666C297.853 124.666 298.164 124.552 298.41 124.344C298.629 124.12 298.752 123.819 298.752 123.506C298.752 123.192 298.629 122.891 298.41 122.668C298.003 122.379 297.674 121.996 297.452 121.55C297.229 121.105 297.119 120.611 297.133 120.114C297.133 119.796 297.006 119.492 296.782 119.267C296.557 119.043 296.253 118.917 295.935 118.917C295.618 118.917 295.313 119.043 295.089 119.267C294.864 119.492 294.738 119.796 294.738 120.114Z" fill="#090909"/>
<path d="M199.526 137.512L192.902 152.835C192.263 154.192 194.338 155.389 194.977 154.033L201.601 138.789C202.24 137.352 200.164 136.155 199.526 137.512Z" fill="white"/>
<path d="M210.457 147.728C209.26 152.916 205.27 157.624 203.035 162.413C200.972 166.793 199.186 171.297 197.688 175.901C197.603 176.208 197.644 176.536 197.801 176.813C197.958 177.089 198.219 177.293 198.526 177.377C198.833 177.462 199.161 177.421 199.438 177.264C199.714 177.107 199.918 176.846 200.002 176.539C201.681 171.204 203.817 166.024 206.387 161.056C208.462 156.906 211.734 152.995 212.692 148.366C213.091 146.85 210.777 146.212 210.457 147.728Z" fill="white"/>
<path d="M309.103 134.4C301.851 140.297 294.999 146.669 288.592 153.475C287.555 154.592 289.231 156.348 290.268 155.231C296.681 148.378 303.561 141.978 310.859 136.076C312.056 135.119 310.3 133.442 309.103 134.4Z" fill="white"/>
<path d="M302.718 152.197C297.223 156.165 291.948 160.428 286.915 164.967C285.798 166.005 287.474 167.76 288.591 166.723C293.443 162.267 298.56 158.109 303.915 154.273C305.112 153.395 303.915 151.32 302.718 152.197Z" fill="white"/>
<path d="M238.154 69.5143C235.516 66.2611 233.61 62.4772 232.567 58.4207C232.08 56.3778 231.786 54.2935 231.689 52.1955C231.689 49.2425 232.008 47.9657 235.44 47.0878C238.872 46.2098 238.792 46.2896 240.787 44.6136C244.219 41.7404 248.05 41.0222 251.961 43.5761C253.238 44.3742 254.435 42.2992 253.158 41.5011C251.663 40.491 249.948 39.8549 248.156 39.6466C246.364 39.4383 244.549 39.6637 242.862 40.3039C240.468 41.3415 239.032 43.4962 236.557 44.2145C234.083 44.9328 232.328 44.454 230.811 46.0502C228.177 48.8435 229.295 54.4302 230.013 57.7024C231.058 62.6508 233.275 67.2763 236.478 71.1903C237.356 72.4672 239.111 70.7114 238.154 69.5143Z" fill="#090909"/>
<path d="M251.241 40.7827C250.124 35.3556 254.753 29.7689 258.982 26.8958C259.86 26.2573 261.776 24.9005 262.813 24.9005C263.348 24.8338 263.892 24.8741 264.411 25.0191C264.93 25.164 265.416 25.4106 265.839 25.7448C266.262 26.0789 266.615 26.4939 266.876 26.9655C267.138 27.4371 267.303 27.956 267.363 28.492C267.522 31.1257 265.926 33.7594 265.287 36.2335C264.319 39.7258 264.264 43.4084 265.128 46.928C266.245 51.557 270.315 55.5475 270.076 60.3361C269.996 61.9323 272.391 61.9323 272.47 60.3361C272.63 57.1437 271.273 54.6696 269.757 51.9561C268.24 49.2425 266.564 44.2144 267.043 39.8249C267.522 35.4354 272.391 28.0131 267.762 23.7034C263.133 19.3936 258.583 23.9428 255.551 26.4967C252.518 29.0506 247.729 35.7546 248.926 41.4211C249.246 42.9375 251.56 42.2991 251.241 40.7827Z" fill="#090909"/>
<path d="M274.626 122.668C272.117 121.509 269.737 120.091 267.523 118.438C265.448 116.682 264.011 114.368 262.415 112.213C259.701 108.541 256.11 105.668 252.917 102.396C249.725 99.1239 247.012 92.6593 245.096 86.9928L239.27 70.0731C238.791 68.5567 236.477 69.1952 236.955 70.7116L243.26 88.9881C245.016 94.1757 246.692 99.0441 250.364 103.194C254.035 107.344 258.744 111.255 262.255 116.123C265.767 120.992 269.039 122.508 273.429 124.743C274.785 125.461 275.982 123.386 274.626 122.668Z" fill="#090909"/>
<path d="M270.716 59.7772C264.89 61.8523 259.064 63.8475 253.158 65.3639C247.252 66.8803 242.623 66.7207 237.914 68.7958C236.478 69.3545 237.675 71.4295 239.111 70.8708C243.98 68.716 250.045 68.716 255.233 67.2794C260.42 65.8428 266.007 64.0072 271.354 62.0918C272.791 61.6129 272.153 59.2984 270.716 59.7772Z" fill="#090909"/>
<path d="M271.513 62.1717C278.855 65.1247 284.282 71.0306 290.508 75.6596C296.733 80.2886 305.272 83.6406 313.174 86.1946C329.934 91.7014 347.572 94.0957 365.13 94.1755C366.646 94.2553 366.646 91.861 365.13 91.7812C347.252 91.7014 329.375 89.2273 312.455 83.481C303.916 80.6079 295.935 77.176 288.991 71.4297C283.644 67.0402 278.616 62.491 272.151 59.8573C270.715 59.2987 270.076 61.6131 271.513 62.1717Z" fill="#090909"/>
<path d="M243.34 86.9126C251.081 88.7483 259.222 85.9549 266.325 82.9221C273.428 79.8894 279.414 75.4999 282.846 68.6363C283.484 67.2795 281.409 66.0824 280.771 67.4391C277.738 73.5047 272.47 77.4952 266.485 80.2087C260.499 82.9222 251.401 86.354 243.978 84.678C242.462 84.279 241.823 86.5934 243.34 86.9126Z" fill="#090909"/>
<path d="M365.129 88.6689C361.649 88.7645 358.242 87.6661 355.473 85.5563C349.966 81.2466 349.806 74.5425 349.646 70.4722V70.0732C349.518 63.9339 351.552 57.9449 355.393 53.1536C355.517 52.9824 355.676 52.8392 355.86 52.7333C356.043 52.6273 356.246 52.561 356.457 52.5384C356.667 52.5159 356.88 52.5376 357.082 52.6023C357.283 52.667 357.469 52.7732 357.627 52.9141C357.954 53.1797 358.162 53.5636 358.207 53.9821C358.252 54.4007 358.13 54.82 357.867 55.1488C354.497 59.3518 352.717 64.6079 352.839 69.9934V70.3925C352.998 74.1435 353.078 79.6504 357.388 83.0822C361.698 86.514 368.322 85.237 369.519 84.9178C369.723 84.8572 369.938 84.8383 370.15 84.862C370.361 84.8856 370.566 84.9514 370.752 85.0556C370.938 85.1597 371.102 85.3001 371.232 85.4683C371.363 85.6366 371.459 85.8293 371.514 86.0352C371.613 86.437 371.551 86.8612 371.342 87.2186C371.134 87.5759 370.795 87.8383 370.397 87.9506C368.685 88.4455 366.911 88.6875 365.129 88.6689Z" fill="#090909"/>
<path d="M393.143 90.6637C390.988 88.6685 391.308 85.4761 391.308 82.7625V74.4623C391.308 74.1448 391.182 73.8403 390.957 73.6158C390.733 73.3913 390.428 73.2651 390.111 73.2651C389.793 73.2651 389.489 73.3913 389.264 73.6158C389.04 73.8403 388.913 74.1448 388.913 74.4623C388.913 78.2932 388.754 82.2038 388.993 86.1145C389.073 88.5088 389.632 90.6637 391.388 92.4195C391.632 92.5692 391.92 92.6323 392.205 92.5986C392.489 92.5648 392.755 92.4362 392.957 92.2334C393.16 92.0307 393.289 91.7656 393.322 91.4808C393.356 91.1961 393.293 90.9083 393.143 90.6637Z" fill="#090909"/>
<path d="M398.65 84.2789C400.006 81.2461 391.946 80.8471 387.796 76.6172C379.735 68.3968 381.012 66.0823 375.984 61.4533C367.045 53.2329 359.623 57.6225 344.299 47.4866C340.388 44.8529 336.558 41.7403 335.36 36.8719C334.163 32.0035 335.44 27.9331 336.238 27.8533C337.036 27.7735 336.717 29.4496 337.595 30.8861C340.229 35.0363 348.928 34.318 353.797 34.0785C358.665 33.8391 371.115 33.3603 379.974 35.994C391.387 39.4258 400.645 49.7213 402.48 60.336C403.757 67.9179 401.443 76.2979 400.805 78.2932C400.232 80.338 399.512 82.3385 398.65 84.2789Z" fill="#090909"/>
<path d="M378.619 64.2467C378.699 62.4111 381.013 62.012 382.051 63.4486C383.088 64.8852 383.248 66.5612 382.689 67.5189C382.454 67.7617 382.166 67.9459 381.847 68.0568C381.528 68.1677 381.188 68.2021 380.853 68.1573C379.816 68.0775 379.656 66.8006 379.896 65.9227L380.375 65.2842C380.853 65.0447 381.173 65.0448 381.332 65.4439C381.492 65.8429 381.572 65.7631 381.811 65.5236C382.051 65.2842 382.21 65.2842 381.731 65.0448C381.252 64.8054 380.774 63.6082 380.933 62.7303L380.135 63.5284L380.454 63.3687H379.497C379.635 64.1051 379.688 64.8549 379.656 65.6034L379.896 67.9977L381.412 66.8006C380.933 66.641 381.093 64.8851 381.013 64.4861C380.912 63.7648 380.541 63.1088 379.975 62.6505C378.778 61.613 377.102 63.3688 378.299 64.3265C379.497 65.2842 378.619 66.4015 378.938 67.3592C379.089 67.773 379.333 68.1466 379.651 68.451C379.969 68.7555 380.353 68.9827 380.774 69.1151C380.948 69.1635 381.132 69.1716 381.31 69.1388C381.489 69.1059 381.657 69.0328 381.804 68.9252C381.95 68.8176 382.069 68.6782 382.154 68.5175C382.238 68.3568 382.284 68.1791 382.29 67.9977C382.13 66.4813 382.051 65.0448 381.891 63.5284C381.731 62.012 381.651 61.5331 380.614 61.2139C378.14 60.4956 378.459 63.7678 378.938 65.0448C379.417 66.3218 381.173 68.716 382.928 67.6785C384.684 66.6409 383.966 64.4063 382.689 63.4486C378.539 60.336 375.187 68.317 379.098 70.3122C380.454 71.0305 383.088 70.6314 384.285 69.5939C385.482 68.5564 385.323 65.763 384.844 64.087C384.365 62.411 382.689 60.0965 380.295 60.1763C379.227 60.2527 378.224 60.7168 377.474 61.4811C376.725 62.2454 376.28 63.2574 376.224 64.3265C376.065 65.8429 378.459 65.8429 378.619 64.3265V64.2467Z" fill="white"/>
<path d="M366.646 87.2323C366.287 88.9731 365.49 90.5937 364.331 91.9411C363.294 93.0584 365.049 94.8142 366.007 93.6171C367.453 91.9765 368.468 90.0017 368.96 87.8708C369.279 86.3544 366.965 85.7159 366.646 87.2323Z" fill="#090909"/>
<path d="M157.384 153.554C154.99 158.023 154.431 162.972 154.511 167.92C154.591 172.868 154.431 178.854 156.347 183.403C156.905 184.839 159.22 184.201 158.661 182.765C156.985 178.774 156.985 173.427 156.905 169.117C156.826 164.807 157.145 159.141 159.459 154.831C160.178 153.474 158.103 152.197 157.384 153.554Z" fill="#CBC7DB"/>
<path d="M363.455 93.0588C363.649 95.2932 364.131 97.4929 364.891 99.6031C365.61 102.157 365.849 104.791 366.647 107.345C367.445 109.899 369.361 108.143 368.962 106.706C368.562 105.27 368.004 102.077 367.445 99.8426C366.886 97.6079 365.929 95.4531 365.849 93.0588C365.769 90.6645 363.295 91.5424 363.455 93.0588Z" fill="#090909"/>
<path d="M368.721 107.903C372.33 106.3 375.669 104.146 378.617 101.518C382.288 98.0866 386.119 93.697 391.467 93.2979C392.983 93.1383 392.983 90.744 391.467 90.9036C387.157 91.2229 383.964 93.4576 380.852 96.1712C377.739 98.8847 376.941 99.9221 374.866 101.678C372.791 103.434 370.077 104.631 367.524 105.828C364.97 107.025 367.284 108.621 368.721 107.903Z" fill="#090909"/>
<path d="M391.547 92.4991C393.063 94.0953 394.42 95.8512 395.937 97.4474L396.415 95.4522C390.673 98.0286 385.194 101.156 380.054 104.79C377.82 106.306 375.505 107.663 373.749 109.738C371.994 111.813 371.595 114.686 370.238 117.24L372.473 117.48C371.259 114.518 370.246 111.479 369.44 108.381C369.355 108.074 369.152 107.814 368.875 107.657C368.598 107.499 368.27 107.459 367.963 107.543C367.656 107.628 367.396 107.831 367.238 108.108C367.081 108.385 367.041 108.713 367.125 109.02C367.931 112.117 368.945 115.157 370.158 118.118C370.477 118.996 371.834 119.475 372.313 118.437C373.59 115.963 373.989 113.09 375.825 110.935C377.66 108.78 380.214 107.583 382.369 106.067C387.078 102.954 391.866 99.9215 397.054 97.7667C397.257 97.7144 397.443 97.6095 397.593 97.4627C397.743 97.3159 397.852 97.1322 397.908 96.9301C397.965 96.728 397.967 96.5145 397.916 96.3112C397.864 96.1078 397.759 95.9217 397.613 95.7714C396.096 94.1752 394.739 92.4194 393.223 90.8232C391.707 89.227 390.51 91.3818 391.547 92.4991Z" fill="#090909"/>
<path d="M356.671 93.298C357.998 99.4291 358.375 105.728 357.788 111.973C357.708 112.851 358.666 113.25 359.304 113.171C362.577 112.612 365.53 110.298 368.243 108.622C368.518 108.463 368.719 108.201 368.801 107.894C368.884 107.588 368.841 107.261 368.682 106.985C368.523 106.71 368.262 106.509 367.955 106.427C367.648 106.345 367.321 106.388 367.046 106.546C364.572 108.063 361.619 110.377 358.666 110.856L360.182 111.973C360.782 105.512 360.378 98.9972 358.985 92.6596C358.666 91.1432 356.352 91.7816 356.671 93.298Z" fill="#090909"/>
<path d="M397.053 97.0483C402.081 100.081 411.978 106.147 418.043 117.4C432.728 144.216 417.405 172.389 416.687 173.746C403.917 196.252 376.542 209.42 351.003 203.754C335.999 200.402 326.422 185.318 316.046 180.21C315.169 179.811 312.375 178.454 312.056 176.22C312.03 175.585 312.162 174.953 312.441 174.382C312.719 173.811 313.136 173.318 313.652 172.947C314.878 172.162 316.333 171.814 317.781 171.959C319.23 172.104 320.587 172.733 321.633 173.746" fill="white"/>
<path d="M363.054 206.628C358.866 206.651 354.689 206.196 350.604 205.271C341.107 203.116 333.684 196.492 327.06 190.666C322.99 186.995 319.159 183.563 315.328 181.648H315.169C314.131 181.089 310.859 179.493 310.46 176.54C310.415 175.62 310.595 174.703 310.985 173.869C311.374 173.035 311.961 172.308 312.694 171.751C314.224 170.726 316.061 170.262 317.893 170.437C319.726 170.611 321.442 171.414 322.751 172.709C322.981 173.016 323.093 173.396 323.066 173.78C323.038 174.163 322.874 174.524 322.602 174.795C322.331 175.067 321.97 175.232 321.587 175.259C321.203 175.286 320.823 175.174 320.516 174.944C319.733 174.212 318.734 173.755 317.669 173.639C316.604 173.524 315.531 173.758 314.61 174.305C314.314 174.511 314.072 174.786 313.906 175.105C313.739 175.425 313.652 175.78 313.652 176.141C313.732 177.019 314.77 177.897 316.605 178.774H316.685C320.995 180.85 324.985 184.441 329.215 188.272C335.759 194.178 342.623 200.243 351.322 202.159C375.744 207.666 402.64 195.375 415.25 172.948C415.889 171.831 431.052 144.456 416.687 118.119C410.781 107.345 401.283 101.519 396.176 98.4059L397.852 95.6924L397.053 97.0492L397.852 95.6924C402.88 98.7252 413.175 105.03 419.48 116.603C434.644 144.456 418.762 173.347 418.043 174.545C406.87 194.337 385.082 206.628 363.054 206.628Z" fill="#090909"/>
<path d="M346.134 166.403C343.933 170.768 341.398 174.957 338.552 178.933C335.759 182.924 332.726 188.031 327.459 188.83C325.942 189.069 326.581 191.383 328.097 191.144C332.567 190.426 335.44 187.153 337.994 183.722C341.86 178.654 345.278 173.26 348.209 167.6C348.928 166.243 346.853 165.046 346.134 166.403Z" fill="#090909"/>
<path d="M356.351 169.117C356.725 174.983 355.404 180.834 352.546 185.971C349.688 191.107 345.412 195.314 340.229 198.088C338.873 198.806 340.15 200.881 341.506 200.163C347.037 197.166 351.597 192.652 354.651 187.153C357.705 181.653 359.125 175.396 358.745 169.117C358.586 167.6 356.191 167.6 356.351 169.117Z" fill="#090909"/>
<path d="M341.825 191.464C344.937 191.464 344.937 186.675 341.825 186.675C338.712 186.675 338.712 191.464 341.825 191.464Z" fill="#CBC7DB"/>
<path d="M384.044 127.695H372.951C371.276 127.695 369.918 129.053 369.918 130.728V135.373C369.918 137.048 371.276 138.406 372.951 138.406H384.044C385.719 138.406 387.077 137.048 387.077 135.373V130.728C387.077 129.053 385.719 127.695 384.044 127.695Z" fill="#CBC7DB"/>
<path d="M329.455 132.006H334.004C334.322 132.006 334.626 131.88 334.851 131.655C335.075 131.43 335.201 131.126 335.201 130.808C335.201 130.491 335.075 130.186 334.851 129.962C334.626 129.737 334.322 129.611 334.004 129.611H329.455C329.137 129.611 328.833 129.737 328.608 129.962C328.384 130.186 328.258 130.491 328.258 130.808C328.258 131.126 328.384 131.43 328.608 131.655C328.833 131.88 329.137 132.006 329.455 132.006Z" fill="#090909"/>
<path d="M328.178 131.048C328.497 138.151 325.065 145.653 327.539 152.596C328.098 154.033 330.412 153.394 329.854 151.958C327.539 145.413 330.811 137.832 330.572 131.048C330.572 130.73 330.446 130.426 330.221 130.201C329.997 129.977 329.692 129.851 329.375 129.851C329.057 129.851 328.753 129.977 328.528 130.201C328.304 130.426 328.178 130.73 328.178 131.048Z" fill="#090909"/>
<path d="M262.494 346.694H158.262C157.839 346.694 157.433 346.526 157.134 346.226C156.834 345.927 156.666 345.521 156.666 345.098C156.666 344.674 156.834 344.268 157.134 343.969C157.433 343.67 157.839 343.501 158.262 343.501H262.494C262.917 343.501 263.323 343.67 263.622 343.969C263.922 344.268 264.09 344.674 264.09 345.098C264.09 345.521 263.922 345.927 263.622 346.226C263.323 346.526 262.917 346.694 262.494 346.694Z" fill="#090909"/>
<path d="M185.717 359.862C185.294 359.862 184.888 359.694 184.589 359.395C184.289 359.095 184.121 358.689 184.121 358.266C184.121 357.843 184.289 357.437 184.589 357.137C184.888 356.838 185.294 356.67 185.717 356.67L289.231 355.952C289.654 355.952 290.06 356.12 290.359 356.419C290.659 356.718 290.827 357.125 290.827 357.548C290.827 357.971 290.659 358.377 290.359 358.677C290.06 358.976 289.654 359.144 289.231 359.144L185.717 359.862Z" fill="#090909"/>
<path d="M369.279 115.006L367.444 109.18H365.448L362.096 115.006C362.071 115.058 362.056 115.114 362.055 115.172C362.053 115.23 362.064 115.287 362.087 115.34C362.11 115.394 362.144 115.441 362.187 115.48C362.23 115.518 362.28 115.547 362.336 115.564L355.871 169.835L359.702 169.596H362.575L368.72 115.724C368.809 115.728 368.898 115.71 368.979 115.673C369.06 115.635 369.13 115.579 369.185 115.509C369.24 115.439 369.277 115.356 369.293 115.269C369.309 115.181 369.305 115.091 369.279 115.006Z" fill="#80A5AE"/>
<path d="M293.539 347.014H270.713C270.29 347.014 269.884 346.845 269.585 346.546C269.285 346.247 269.117 345.841 269.117 345.417C269.117 344.994 269.285 344.588 269.585 344.289C269.884 343.989 270.29 343.821 270.713 343.821H293.539C293.962 343.821 294.368 343.989 294.668 344.289C294.967 344.588 295.135 344.994 295.135 345.417C295.135 345.841 294.967 346.247 294.668 346.546C294.368 346.845 293.962 347.014 293.539 347.014Z" fill="#090909"/>
<path d="M51.556 358.426H30.8853C30.4619 358.426 30.0559 358.258 29.7566 357.958C29.4572 357.659 29.2891 357.253 29.2891 356.83C29.2891 356.406 29.4572 356 29.7566 355.701C30.0559 355.402 30.4619 355.233 30.8853 355.233H51.556C51.9793 355.233 52.3853 355.402 52.6847 355.701C52.984 356 53.1522 356.406 53.1522 356.83C53.1522 357.253 52.984 357.659 52.6847 357.958C52.3853 358.258 51.9793 358.426 51.556 358.426Z" fill="#090909"/>
<path d="M30.8856 352.041H15.8814C15.458 352.041 15.052 351.873 14.7527 351.573C14.4533 351.274 14.2852 350.868 14.2852 350.445C14.2852 350.021 14.4533 349.616 14.7527 349.316C15.052 349.017 15.458 348.849 15.8814 348.849H30.8856C31.3089 348.849 31.7149 349.017 32.0143 349.316C32.3136 349.616 32.4818 350.021 32.4818 350.445C32.4818 350.868 32.3136 351.274 32.0143 351.573C31.7149 351.873 31.3089 352.041 30.8856 352.041Z" fill="#090909"/>
<path d="M318.52 294.179H272.151C271.728 294.179 271.322 294.011 271.022 293.711C270.723 293.412 270.555 293.006 270.555 292.583C270.555 292.159 270.723 291.753 271.022 291.454C271.322 291.155 271.728 290.986 272.151 290.986H318.52C318.944 290.986 319.35 291.155 319.649 291.454C319.948 291.753 320.117 292.159 320.117 292.583C320.117 293.006 319.948 293.412 319.649 293.711C319.35 294.011 318.944 294.179 318.52 294.179Z" fill="#090909"/>
<path d="M441.268 294.178H441.188L406.231 292.742C406.025 292.742 405.821 292.7 405.632 292.619C405.443 292.538 405.272 292.419 405.13 292.27C404.988 292.12 404.878 291.944 404.807 291.75C404.735 291.557 404.704 291.351 404.715 291.146C404.715 290.929 404.759 290.715 404.844 290.516C404.929 290.317 405.054 290.137 405.21 289.988C405.367 289.838 405.553 289.723 405.756 289.647C405.959 289.572 406.175 289.539 406.391 289.549L441.348 290.986C441.557 290.996 441.763 291.048 441.953 291.137C442.143 291.227 442.313 291.354 442.454 291.509C442.594 291.665 442.703 291.847 442.774 292.045C442.844 292.243 442.875 292.452 442.864 292.662C442.864 292.868 442.823 293.072 442.742 293.261C442.66 293.451 442.542 293.622 442.392 293.763C442.243 293.905 442.066 294.015 441.873 294.087C441.679 294.158 441.474 294.189 441.268 294.178Z" fill="#090909"/>
<path d="M468.403 308.465H402.719C402.296 308.465 401.89 308.297 401.591 307.997C401.291 307.698 401.123 307.292 401.123 306.869C401.123 306.445 401.291 306.039 401.591 305.74C401.89 305.441 402.296 305.272 402.719 305.272H468.403C468.826 305.272 469.232 305.441 469.531 305.74C469.831 306.039 469.999 306.445 469.999 306.869C469.999 307.292 469.831 307.698 469.531 307.997C469.232 308.297 468.826 308.465 468.403 308.465Z" fill="#090909"/>
<path d="M431.213 41.5812V38.3889H431.133C431.771 38.2292 433.846 35.1166 434.644 26.8164V25.5395L436.001 25.3798C445.1 24.7413 448.531 22.5066 448.691 21.8682H451.883C451.883 26.4971 442.226 28.0136 437.597 28.4924C437.119 33.281 435.522 41.5812 431.213 41.5812Z" fill="#CBC7DB"/>
<path d="M431.213 41.5809C426.903 41.5809 425.227 33.2806 424.669 28.4921C420.12 28.0132 410.383 26.4968 410.383 21.8678C410.383 17.2388 419.88 15.7225 424.509 15.2437C424.908 10.3753 426.345 0 431.213 0C436.082 0 437.518 10.3753 437.917 15.2437C442.466 15.7225 451.964 17.2388 451.964 21.8678H448.771C448.612 21.2293 445.26 18.9947 436.241 18.3563L434.884 18.1966V16.8398C434.326 7.58191 432.091 3.35201 431.213 3.19239C430.335 3.03277 428.18 7.58191 427.622 16.8398V18.1966L426.265 18.3563C417.246 18.9947 413.894 21.2293 413.735 21.8678C413.575 22.5063 417.326 24.741 426.425 25.3795L427.781 25.5391V26.8161C428.579 35.1163 430.655 38.2289 431.293 38.3885L431.213 41.5809Z" fill="#CBC7DB"/>
<path d="M447.654 65.923C447.287 65.8871 446.944 65.7255 446.683 65.4657C446.422 65.2058 446.259 64.8636 446.221 64.4972C446.184 64.1307 446.274 63.7627 446.477 63.4552C446.68 63.1478 446.983 62.9199 447.334 62.8104C447.654 62.3315 448.292 60.8151 448.532 57.942L448.691 56.5852L450.048 56.4256C453.24 56.1862 454.916 55.5477 455.395 55.2284C455.47 54.8625 455.67 54.5343 455.962 54.301C456.254 54.0676 456.618 53.944 456.991 53.9515C457.415 53.9515 457.821 54.1197 458.12 54.419C458.419 54.7184 458.588 55.1244 458.588 55.5477C458.588 58.1814 454.677 59.1391 451.564 59.5382C451.085 62.7306 450.048 65.923 447.654 65.923Z" fill="#090909"/>
<path d="M447.653 65.9229C445.339 65.9229 444.221 62.7305 443.822 59.5381C440.709 59.139 436.799 58.1813 436.799 55.5476C436.799 52.9139 440.63 52.036 443.662 51.6369C443.982 48.3647 444.939 44.1348 447.653 44.1348C450.367 44.1348 451.404 48.3647 451.723 51.6369C454.756 52.036 458.587 52.9937 458.587 55.5476C458.587 55.9709 458.419 56.3769 458.119 56.6763C457.82 56.9756 457.414 57.1438 456.991 57.1438C456.628 57.1553 456.273 57.0429 455.983 56.8253C455.692 56.6077 455.485 56.2978 455.395 55.9467C454.916 55.5476 453.24 54.9091 450.047 54.6697H448.691V53.2331C448.637 51.4912 448.314 49.7681 447.733 48.1253C447.228 49.7845 446.933 51.5005 446.855 53.2331V54.6697H445.418C443.867 54.7396 442.335 55.0353 440.869 55.5476C442.363 56.0578 443.921 56.3533 445.498 56.4255L446.855 56.5851L447.014 57.9419C447.254 60.8151 447.892 62.3314 448.212 62.8103C448.566 62.9247 448.869 63.1595 449.069 63.4739C449.269 63.7884 449.352 64.1628 449.304 64.5322C449.257 64.9017 449.082 65.243 448.81 65.4969C448.537 65.7509 448.184 65.9016 447.813 65.9229H447.653Z" fill="#090909"/>
<path d="M15.8823 268.719V265.527H15.7227C16.2015 265.207 17.4785 262.733 18.0371 257.226V255.949H19.3939C25.4595 255.471 28.173 254.114 28.4922 253.555V253.715H31.6846C31.6846 257.386 24.9806 258.583 20.9901 259.062C20.5112 263.132 19.2343 268.719 15.8823 268.719Z" fill="#CBC7DB"/>
<path d="M15.8821 268.72C12.5301 268.72 11.1734 263.133 10.6945 258.983C6.62421 258.504 0 257.307 0 253.636C0 249.965 6.54441 248.767 10.4551 248.368C10.8541 244.538 12.0513 236.956 15.8821 236.956C19.713 236.956 20.9102 244.538 21.2294 248.368C25.2199 248.767 31.7643 250.044 31.7643 253.636H28.5719V253.796C28.2527 253.237 25.6189 251.88 19.6332 251.401H18.1966V250.044C17.8774 244.298 16.6802 241.106 15.962 240.308C15.2437 241.106 13.9667 244.298 13.6475 250.044V251.401H12.2907C6.78383 251.88 4.0703 252.997 3.43182 253.636C4.0703 254.274 6.86364 255.471 12.3705 255.871H13.5677L13.7273 257.227C14.2061 262.734 15.4831 265.208 16.0418 265.528H15.8821V268.72Z" fill="#CBC7DB"/>
<path d="M145.733 47.407C145.31 47.407 144.904 47.2389 144.605 46.9396C144.305 46.6402 144.137 46.2342 144.137 45.8108C144.13 45.4374 144.253 45.0732 144.486 44.7815C144.72 44.4899 145.048 44.2893 145.414 44.2146C145.733 43.8156 146.372 42.2194 146.611 39.3463L146.771 37.9895H148.048C151.32 37.7501 152.996 37.1116 153.475 36.7126C153.565 36.3614 153.773 36.0514 154.063 35.8338C154.353 35.6162 154.708 35.504 155.071 35.5154C155.494 35.5154 155.9 35.6835 156.2 35.9829C156.499 36.2822 156.667 36.6883 156.667 37.1116C156.667 39.6656 152.677 40.703 149.644 41.0222C149.165 44.1348 148.128 47.407 145.733 47.407Z" fill="#090909"/>
<path d="M145.733 47.4067C143.339 47.4067 142.301 44.1345 141.902 40.9421C138.79 40.6229 134.879 39.5853 134.879 37.0314C134.879 34.4775 138.71 33.44 141.743 33.0409C142.062 29.8485 143.02 25.6187 145.733 25.6187C148.447 25.6187 149.404 29.8485 149.803 33.0409C152.836 33.44 156.667 34.3977 156.667 37.0314C156.667 37.4547 156.499 37.8608 156.199 38.1601C155.9 38.4595 155.494 38.6276 155.071 38.6276C154.697 38.6351 154.333 38.5115 154.041 38.2781C153.75 38.0448 153.549 37.7166 153.475 37.3507C152.996 37.0314 151.32 36.3929 148.127 36.1535L146.771 35.9939V34.6371C146.725 32.8685 146.401 31.118 145.813 29.4495C145.302 31.1346 145.007 32.8777 144.935 34.6371V35.9939L143.498 36.1535C141.947 36.2233 140.415 36.5191 138.949 37.0314C140.443 37.5416 142.001 37.8372 143.578 37.9094H144.935L145.095 39.2661C145.334 42.1393 145.972 43.7354 146.292 44.1345C146.643 44.225 146.953 44.4324 147.17 44.7225C147.388 45.0127 147.5 45.3682 147.489 45.7307C147.502 45.961 147.464 46.1914 147.379 46.4059C147.294 46.6205 147.164 46.8141 146.997 46.9734C146.83 47.1327 146.631 47.2539 146.413 47.3287C146.194 47.4035 145.963 47.4301 145.733 47.4067Z" fill="#090909"/>
<path d="M452.681 266.565V263.373H452.521C453 263.054 454.357 260.579 454.836 255.073L454.996 253.796L456.352 253.636C462.338 253.237 465.131 251.8 465.371 251.242V251.401H468.563C468.563 255.073 461.859 256.27 457.869 256.749C457.39 260.979 456.033 266.565 452.681 266.565Z" fill="#CBC7DB"/>
<path d="M452.681 266.564C449.329 266.564 447.972 260.977 447.493 256.827C443.503 256.348 436.799 255.151 436.799 251.48C436.799 247.809 443.343 246.692 447.334 246.213C447.653 242.382 448.85 234.8 452.681 234.8C456.512 234.8 457.709 242.382 458.028 246.213C462.019 246.692 468.563 247.889 468.563 251.48H465.371V251.64C465.131 251.081 462.418 249.724 456.432 249.245H455.075V247.889C454.676 242.142 453.479 238.95 452.761 238.232C452.042 238.95 450.845 242.142 450.446 247.889V249.245H449.09C443.662 249.724 440.949 250.921 440.231 251.48C440.949 252.119 443.662 253.316 449.169 253.715L450.526 253.874L450.686 255.151C451.165 260.658 452.521 263.132 453 263.452H452.841L452.681 266.564Z" fill="#CBC7DB"/>
<path d="M350.046 212.135C337.836 230.092 333.925 251.561 330.254 272.471C330.014 273.988 332.329 274.626 332.568 273.11C336.16 252.359 340.07 231.13 352.042 213.412C352.92 212.135 350.845 210.938 350.046 212.135Z" fill="white"/>
<path d="M330.014 286.199C326.582 316.766 336.957 346.535 338.474 376.863C338.554 378.379 340.948 378.379 340.868 376.863C339.352 346.535 328.976 316.766 332.408 286.199C332.568 284.682 330.174 284.682 330.014 286.199Z" fill="white"/>
<path d="M325.224 384.364C329.717 383.673 334.284 383.62 338.792 384.204C340.388 384.444 340.308 382.049 338.792 381.81C334.067 381.252 329.289 381.332 324.586 382.049C323.069 382.289 323.708 384.603 325.224 384.364Z" fill="white"/>
<path d="M359.863 384.284C366.727 384.205 372.074 379.097 378.858 378.618C380.374 378.458 380.374 376.064 378.858 376.223C372.074 376.702 366.647 381.81 359.863 381.89C359.546 381.89 359.241 382.016 359.017 382.241C358.792 382.465 358.666 382.77 358.666 383.087C358.666 383.405 358.792 383.709 359.017 383.934C359.241 384.158 359.546 384.284 359.863 384.284Z" fill="white"/>
<path d="M392.985 251.961C387.396 262.073 382.439 272.522 378.14 283.246C376.304 287.875 374.149 292.664 373.91 297.771C373.671 302.879 375.506 309.424 376.703 315.01C379.257 326.982 382.689 339.193 383.647 351.404C384.604 363.614 384.126 376.224 384.205 388.595C384.205 388.912 384.332 389.217 384.556 389.441C384.781 389.666 385.085 389.792 385.403 389.792C385.72 389.792 386.025 389.666 386.249 389.441C386.474 389.217 386.6 388.912 386.6 388.595C386.52 376.703 386.999 364.732 386.201 352.92C385.403 341.108 382.609 331.292 380.295 320.597C379.098 314.931 377.741 309.344 376.783 303.597C375.825 297.851 377.501 291.387 379.896 285.241C384.24 274.238 389.278 263.522 394.98 253.158C395.778 251.801 393.703 250.604 392.985 251.961Z" fill="white"/>
<path d="M328.097 204.154C327.973 205.859 328.303 207.567 329.055 209.102C329.773 210.539 331.13 211.257 331.928 212.454C332.726 213.652 331.21 217.482 330.252 219.717C329.53 221.564 329.048 223.495 328.815 225.463C328.177 230.97 327.618 235.839 325.782 241.106C323.947 246.374 321.712 252.12 319.637 257.707C319.158 259.143 321.473 259.782 321.952 258.345C325.543 248.449 330.092 238.712 330.97 228.177C331.117 225.037 331.848 221.951 333.125 219.079C333.843 217.562 335.2 215.647 335.36 213.891C335.43 213.445 335.395 212.988 335.256 212.558C335.118 212.129 334.88 211.737 334.562 211.417C333.843 210.3 332.566 210.14 331.688 208.783C330.778 207.42 330.356 205.788 330.491 204.154C330.491 203.837 330.365 203.532 330.141 203.308C329.916 203.083 329.612 202.957 329.294 202.957C328.977 202.957 328.672 203.083 328.448 203.308C328.223 203.532 328.097 203.837 328.097 204.154Z" fill="white"/>
<path d="M371.994 210.539C372.712 215.487 373.67 220.595 377.421 224.186C381.172 227.778 385.801 228.895 390.35 230.092C391.787 230.491 392.425 228.177 390.989 227.857C386.839 226.74 382.21 225.623 379.097 222.51C375.984 219.398 374.947 214.449 374.308 209.9C374.069 208.384 371.754 209.022 371.994 210.539Z" fill="white"/>
<path d="M402.719 377.42C409.044 378.049 415.428 377.672 421.634 376.303C423.151 375.984 422.512 373.669 420.996 373.989C415.001 375.331 408.827 375.682 402.719 375.026C401.203 374.866 401.203 377.261 402.719 377.42Z" fill="white"/>
<path d="M392.266 378.457H395.139C395.456 378.457 395.761 378.331 395.985 378.107C396.21 377.882 396.336 377.578 396.336 377.26C396.336 376.943 396.21 376.638 395.985 376.414C395.761 376.189 395.456 376.063 395.139 376.063H392.266C391.948 376.063 391.643 376.189 391.419 376.414C391.194 376.638 391.068 376.943 391.068 377.26C391.068 377.578 391.194 377.882 391.419 378.107C391.643 378.331 391.948 378.457 392.266 378.457Z" fill="white"/>
<path d="M96.1718 150.92C112.608 150.305 129.064 151.456 145.255 154.352C151.001 155.39 156.747 156.667 161.855 152.995C164.17 151.319 165.686 149.005 167.761 147.01C169.836 145.014 173.747 143.578 177.099 142.54C178.535 142.141 177.977 139.827 176.46 140.306C171.033 141.902 167.602 143.737 163.771 147.967C159.94 152.197 157.865 153.155 153.395 153.155C148.926 153.155 145.335 151.878 141.424 151.24C126.46 148.901 111.308 147.993 96.1718 148.526C95.8543 148.526 95.5497 148.652 95.3252 148.877C95.1007 149.101 94.9746 149.406 94.9746 149.723C94.9746 150.041 95.1007 150.345 95.3252 150.57C95.5497 150.794 95.8543 150.92 96.1718 150.92Z" fill="#090909"/>
<path d="M322.033 174.145C320.437 173.346 316.127 168.877 316.447 166.642C316.49 166.392 316.571 166.15 316.686 165.924C316.891 165.662 317.161 165.458 317.469 165.332C317.777 165.206 318.112 165.163 318.442 165.206C320.676 164.966 323.071 164.807 325.146 165.844C326.464 166.54 327.652 167.458 328.657 168.558" fill="white"/>
<path d="M322.671 173.107C320.995 172.229 318.202 169.596 317.882 167.76C317.563 165.924 318.042 166.563 319.239 166.324C320.113 166.217 320.994 166.19 321.873 166.244C324.427 166.483 326.023 167.68 327.779 169.356C329.535 171.032 330.652 168.718 329.535 167.68C328.417 166.643 325.065 164.089 321.873 163.849C319.957 163.77 316.446 163.45 315.488 165.605C314.051 169.037 318.84 173.746 321.394 175.182C322.751 175.901 323.948 173.905 322.671 173.107Z" fill="#090909"/>
<path d="M326.821 166.962C325.145 166.005 320.756 162.014 321.314 160.179C321.512 159.35 321.992 158.617 322.671 158.103C323.22 157.74 323.851 157.52 324.507 157.465C326.047 157.239 327.615 157.293 329.136 157.625C330.224 157.763 331.22 158.304 331.929 159.141C332.089 159.46 333.765 159.54 334.004 159.779" fill="white"/>
<path d="M327.46 165.925C325.624 164.807 320.836 161.136 323.549 159.141C326.263 157.146 328.976 158.502 330.732 159.7C331.65 160.247 332.645 160.651 333.685 160.897C335.122 161.535 335.76 159.221 334.324 158.662C332.887 158.103 330.014 156.348 327.3 156.188C324.587 156.028 321.953 156.268 320.676 158.662C318.681 162.333 323.39 166.244 326.183 168C326.458 168.169 326.789 168.222 327.104 168.147C327.418 168.072 327.69 167.876 327.859 167.601C328.028 167.326 328.081 166.994 328.007 166.68C327.932 166.366 327.735 166.094 327.46 165.925Z" fill="#090909"/>
<path d="M346.534 167.84C350.604 169.197 354.993 169.436 359.303 169.356C363.613 169.276 366.007 167.999 369.12 165.605C372.232 163.211 376.143 160.338 379.575 157.624C383.007 154.911 385.082 153.314 386.518 149.803C387.157 148.366 384.842 147.728 384.204 149.164C382.847 152.596 379.495 154.671 376.702 156.906L367.923 163.53C364.65 166.004 362.017 167.042 357.946 166.962C354.308 167.032 350.679 166.575 347.172 165.605C347.014 165.515 346.838 165.461 346.657 165.449C346.476 165.437 346.294 165.466 346.126 165.534C345.957 165.603 345.807 165.708 345.685 165.844C345.564 165.979 345.475 166.14 345.425 166.314C345.375 166.489 345.366 166.673 345.397 166.852C345.429 167.031 345.501 167.2 345.608 167.347C345.714 167.494 345.853 167.615 346.014 167.7C346.174 167.786 346.352 167.833 346.534 167.84Z" fill="#090909"/>
<path d="M346.774 166.005C345.418 162.972 344.061 159.939 342.544 156.906C341.028 153.874 340.39 153.155 338.394 152.437C336.399 151.719 334.563 152.118 333.446 153.634C332.329 155.151 332.568 158.183 333.207 160.258C333.291 160.565 333.494 160.826 333.771 160.983C334.048 161.14 334.376 161.181 334.683 161.096C334.99 161.012 335.251 160.809 335.408 160.532C335.565 160.255 335.606 159.927 335.521 159.62C334.963 158.024 334.563 153.874 337.437 154.672C340.31 155.47 339.991 157.066 340.629 158.503C342.066 161.376 343.343 164.329 344.699 167.202C345.418 168.639 347.413 167.362 346.774 166.005Z" fill="#090909"/>
<path d="M234.401 56.0264C236.955 58.5803 244.217 62.89 247.649 59.538C249.006 58.1014 249.086 55.2283 248.527 53.4725C247.968 51.7167 245.175 49.482 242.94 48.7637C240.706 48.0454 240.865 50.5993 242.302 51.0782C243.738 51.5571 245.654 52.6743 246.213 54.51C246.771 56.3456 246.053 58.5004 243.659 58.1812C240.814 57.6656 238.18 56.3348 236.077 54.3504C235.974 54.2132 235.843 54.0997 235.692 54.0176C235.541 53.9355 235.375 53.8867 235.204 53.8746C235.033 53.8624 234.861 53.8871 234.7 53.947C234.54 54.007 234.394 54.1009 234.273 54.2222C234.151 54.3435 234.057 54.4894 233.997 54.6501C233.937 54.8108 233.913 54.9825 233.925 55.1535C233.937 55.3246 233.986 55.4911 234.068 55.6416C234.15 55.7922 234.264 55.9235 234.401 56.0264Z" fill="#090909"/>
<path d="M251.88 43.3361C252.997 44.1342 254.354 44.8525 255.152 45.8901C255.999 47.0963 256.343 48.5849 256.11 50.0401C255.791 53.2325 250.683 52.6739 248.209 52.6739C247.891 52.6739 247.587 52.8 247.362 53.0245C247.138 53.249 247.012 53.5535 247.012 53.8711C247.012 54.1886 247.138 54.4931 247.362 54.7176C247.587 54.9421 247.891 55.0682 248.209 55.0682C251.72 55.148 257.786 55.547 258.425 50.918C258.705 49.1761 258.54 47.3915 257.946 45.7304C257.068 43.6553 254.833 42.538 253.077 41.2611C251.321 39.9841 250.683 42.3784 251.88 43.3361Z" fill="#090909"/>
<path d="M188.83 159.38C185.877 160.418 182.765 160.418 179.652 160.338C179.335 160.338 179.03 160.464 178.806 160.689C178.581 160.913 178.455 161.218 178.455 161.535C178.455 161.853 178.581 162.157 178.806 162.382C179.03 162.606 179.335 162.732 179.652 162.732C183.004 162.812 186.276 162.812 189.469 161.615C190.905 161.136 190.267 158.822 188.83 159.38Z" fill="#090909"/>
<path d="M191.304 168.878C187.806 170.02 184.193 170.769 180.53 171.113C179.013 171.273 179.013 173.667 180.53 173.507C184.406 173.144 188.232 172.368 191.943 171.193C193.379 170.714 192.741 168.399 191.304 168.878Z" fill="#090909"/>
</svg>
