<svg width="470" height="482" viewBox="0 0 470 482" fill="none" xmlns="http://www.w3.org/2000/svg">
<path d="M294.303 437.359L287.322 440.114L284.108 432.399L256.279 444.063L259.494 451.686L268.403 473.086C268.891 474.278 269.833 475.228 271.021 475.727C272.209 476.227 273.546 476.235 274.74 475.749L320.202 456.83L318.825 453.431C313.59 441.032 306.701 432.216 294.303 437.359Z" fill="#090909"/>
<path d="M292.834 451.227C292.459 451.22 292.094 451.103 291.784 450.891C291.474 450.679 291.232 450.38 291.089 450.033L286.222 438.185C286.061 437.961 285.954 437.703 285.907 437.431C285.861 437.159 285.876 436.88 285.952 436.615C286.028 436.349 286.162 436.105 286.346 435.899C286.529 435.692 286.757 435.53 287.011 435.424C287.266 435.318 287.541 435.271 287.817 435.286C288.092 435.301 288.361 435.377 288.603 435.51C288.844 435.643 289.053 435.829 289.213 436.053C289.374 436.278 289.481 436.536 289.528 436.808L294.487 448.656C294.591 448.877 294.647 449.118 294.651 449.362C294.656 449.607 294.609 449.849 294.514 450.074C294.418 450.299 294.277 450.502 294.098 450.669C293.92 450.836 293.708 450.964 293.477 451.044L292.834 451.227Z" fill="white"/>
<path d="M298.712 448.748C298.363 448.731 298.024 448.62 297.733 448.426C297.442 448.232 297.209 447.962 297.059 447.646L292.099 435.706C291.951 435.263 291.976 434.779 292.172 434.354C292.367 433.929 292.717 433.595 293.151 433.419C293.584 433.243 294.068 433.24 294.504 433.408C294.94 433.577 295.296 433.906 295.498 434.328L300.457 446.176C300.639 446.627 300.635 447.131 300.445 447.579C300.256 448.026 299.897 448.381 299.447 448.564L298.712 448.748Z" fill="white"/>
<path d="M164.068 445.809L156.537 442.227L160.394 433.686L129.535 419.634L125.677 428.175L114.931 451.871C114.624 452.521 114.448 453.226 114.416 453.945C114.383 454.663 114.494 455.381 114.742 456.057C114.99 456.732 115.37 457.351 115.86 457.878C116.35 458.405 116.939 458.83 117.595 459.126L167.925 481.995L169.578 478.322C175.916 464.453 177.844 452.054 164.068 445.809Z" fill="#090909"/>
<path d="M153.048 455.636L152.313 455.452C151.873 455.233 151.533 454.855 151.362 454.394C151.192 453.933 151.203 453.425 151.395 452.972L157.457 439.838C157.657 439.405 158.019 439.067 158.464 438.895C158.91 438.724 159.405 438.733 159.844 438.92C160.071 439.019 160.274 439.163 160.444 439.342C160.613 439.522 160.745 439.733 160.831 439.965C160.916 440.196 160.954 440.443 160.943 440.689C160.931 440.936 160.87 441.177 160.763 441.4L154.793 454.533C154.628 454.857 154.379 455.13 154.072 455.324C153.765 455.518 153.411 455.626 153.048 455.636Z" fill="white"/>
<path d="M313.957 419.541L309.824 408.796L301.375 386.478L300.548 384.365L260.688 209.495L228.359 216.843L228.91 212.985L170.498 204.811L155.344 313.095L139.087 363.792C137.801 366.18 136.516 368.568 135.322 371.048C131.464 379.038 129.444 387.396 126.321 395.57C124.753 399.626 122.653 403.456 120.076 406.959C117.963 409.99 115.851 413.02 115.392 416.694C114.932 420.368 115.392 422.848 118.331 424.225C118.954 424.494 119.599 424.71 120.259 424.868L175.733 442.594L175.917 441.951L176.468 442.135C177.071 442.27 177.697 442.271 178.301 442.137C178.905 442.004 179.472 441.739 179.963 441.363C180.453 440.986 180.855 440.506 181.14 439.957C181.425 439.408 181.585 438.804 181.611 438.186C181.794 434.144 184.366 430.562 185.193 426.613C186.019 422.664 186.019 418.255 186.754 414.122C187.489 409.99 188.499 404.479 189.509 399.703L211.368 331.647H212.287L215.685 307.309L240.85 417.613C240.694 418.022 240.631 418.461 240.666 418.898C240.942 424.776 242.319 430.379 243.605 436.073C244.432 439.931 244.432 444.982 247.646 447.645L247.83 448.288L248.289 448.105L249.024 448.472C253.892 450.768 257.474 447.462 261.79 445.9C264.27 444.982 266.842 444.798 269.321 443.788L270.699 443.053L311.753 433.685V433.318C314.141 432.767 316.162 431.481 316.529 428.726C316.896 425.97 315.06 422.388 313.957 419.541Z" fill="#80A5AE"/>
<path d="M159.659 458.667L158.925 458.484C158.698 458.385 158.495 458.241 158.325 458.062C158.156 457.882 158.024 457.67 157.939 457.439C157.853 457.207 157.815 456.961 157.826 456.714C157.838 456.468 157.899 456.226 158.006 456.004L163.976 442.87C164.078 442.647 164.224 442.446 164.404 442.279C164.584 442.112 164.795 441.983 165.026 441.897C165.256 441.812 165.501 441.773 165.746 441.782C165.992 441.792 166.233 441.849 166.456 441.952C166.679 442.054 166.88 442.2 167.047 442.38C167.213 442.56 167.343 442.771 167.429 443.001C167.514 443.232 167.553 443.477 167.544 443.722C167.534 443.967 167.477 444.208 167.374 444.431L161.313 457.565C161.163 457.882 160.93 458.151 160.639 458.345C160.348 458.54 160.009 458.651 159.659 458.667Z" fill="white"/>
<path d="M194.745 88.7214C189.143 89.9154 171.325 94.1401 158.742 109.294C151.877 117.817 147.435 128.034 145.884 138.868C141.935 162.472 149.925 192.505 172.886 208.394C182.071 214.731 191.439 217.302 199.888 218.68C247.096 226.487 284.109 209.496 307.988 198.107" fill="white"/>
<path d="M224.044 222.537C215.859 222.523 207.689 221.847 199.613 220.517C191.99 219.231 181.979 216.843 171.877 209.863C147.262 192.872 140.19 161.828 144.048 138.592C145.657 127.413 150.258 116.878 157.365 108.1C168.478 94.6909 183.632 89.1803 194.378 86.8842C194.864 86.8013 195.363 86.9074 195.772 87.1806C196.182 87.4539 196.472 87.8736 196.582 88.3537C196.665 88.8392 196.559 89.3382 196.286 89.748C196.013 90.1579 195.593 90.4477 195.113 90.5579C184.918 92.6703 170.591 97.8135 160.212 110.488C153.508 118.753 149.189 128.694 147.722 139.235C144.14 160.543 150.844 190.851 173.989 206.832C183.449 213.445 193 215.649 200.256 216.843C208.085 218.172 216.011 218.848 223.952 218.863C260.23 218.863 288.793 205.179 307.254 196.453C307.464 196.345 307.694 196.281 307.929 196.264C308.165 196.247 308.402 196.278 308.625 196.355C308.848 196.432 309.053 196.554 309.228 196.713C309.403 196.872 309.544 197.065 309.642 197.28C309.752 197.497 309.818 197.733 309.836 197.976C309.854 198.218 309.823 198.462 309.747 198.693C309.67 198.923 309.548 199.136 309.388 199.32C309.228 199.503 309.033 199.652 308.815 199.76C290.079 208.669 261.057 222.537 224.044 222.537Z" fill="#090909"/>
<path d="M307.988 185.157C308.631 186.443 307.804 188.096 306.794 189.014C305.784 189.933 304.223 190.117 304.223 190.3C304.223 190.484 305.417 190.392 306.702 190.392H307.621C308.277 190.4 308.918 190.593 309.47 190.949C310.022 191.304 310.462 191.808 310.74 192.403C311.018 192.998 311.123 193.659 311.042 194.31C310.962 194.962 310.699 195.577 310.284 196.086C309.667 196.818 308.957 197.467 308.172 198.015" fill="white"/>
<path d="M308.17 199.851C307.886 199.844 307.608 199.775 307.354 199.648C307.1 199.521 306.877 199.34 306.701 199.116C306.409 198.727 306.283 198.237 306.352 197.755C306.421 197.272 306.679 196.837 307.068 196.545C307.741 196.064 308.357 195.51 308.905 194.892C309.107 194.653 309.233 194.358 309.265 194.047C309.298 193.736 309.237 193.422 309.089 193.147C308.962 192.865 308.755 192.628 308.493 192.465C308.232 192.301 307.928 192.219 307.619 192.228H305.507C304.497 192.32 302.752 192.412 302.384 190.667C302.017 188.922 302.476 188.922 304.129 188.371C304.653 188.201 305.148 187.953 305.599 187.636C306.15 187.085 306.517 186.166 306.334 185.891C306.146 185.452 306.137 184.957 306.309 184.511C306.48 184.065 306.818 183.704 307.252 183.503C307.474 183.396 307.716 183.335 307.963 183.323C308.209 183.311 308.456 183.35 308.687 183.435C308.918 183.521 309.13 183.653 309.31 183.822C309.489 183.992 309.633 184.195 309.732 184.421C310.017 185.139 310.124 185.914 310.045 186.682C309.965 187.45 309.7 188.187 309.273 188.83C309.976 189.029 310.627 189.379 311.182 189.855C311.737 190.33 312.183 190.921 312.487 191.585C312.909 192.514 313.055 193.544 312.909 194.554C312.762 195.563 312.329 196.509 311.661 197.28C310.952 198.104 310.151 198.843 309.273 199.484C308.966 199.743 308.571 199.875 308.17 199.851Z" fill="#090909"/>
<path d="M218.991 90.7421C210.45 90.7421 204.296 83.762 203.561 82.8435C203.309 82.4622 203.208 82.0002 203.277 81.5482C203.347 81.0961 203.584 80.6865 203.94 80.3993C204.296 80.1122 204.746 79.9682 205.203 79.9956C205.659 80.023 206.089 80.2198 206.408 80.5474C207.051 81.2822 212.929 88.0786 220.736 86.8847C225.053 86.3336 227.9 83.5782 229.461 82.1087C234.329 77.3329 235.247 71.5467 235.798 68.3322C236.531 63.8264 236.248 59.214 234.972 54.8313C234.828 54.3684 234.872 53.8673 235.096 53.4372C235.319 53.0071 235.704 52.6829 236.166 52.5352C236.401 52.4655 236.648 52.4436 236.891 52.4708C237.135 52.498 237.371 52.5739 237.585 52.6937C237.799 52.8135 237.987 52.975 238.137 53.1686C238.288 53.3622 238.398 53.5841 238.462 53.821C239.953 58.7304 240.267 63.9217 239.38 68.9752C238.829 72.2816 237.727 79.1698 232.033 84.6804C230.288 86.3336 226.798 89.7318 221.287 90.5584L218.991 90.7421Z" fill="#090909"/>
<path d="M209.716 113.335C206.777 113.343 203.9 112.48 201.451 110.855C196.95 107.64 195.848 102.589 194.287 95.5169C193.542 92.0394 193.081 88.5071 192.909 84.9549C192.647 76.6647 193.108 68.3674 194.287 60.1572C194.309 59.9186 194.38 59.6872 194.495 59.4773C194.61 59.2674 194.768 59.0835 194.957 58.937C195.147 58.7906 195.365 58.6846 195.597 58.6259C195.829 58.5672 196.071 58.557 196.307 58.5959C196.55 58.6294 196.783 58.711 196.993 58.836C197.204 58.961 197.387 59.1268 197.532 59.3236C197.678 59.5204 197.782 59.7441 197.84 59.9819C197.898 60.2197 197.908 60.4667 197.869 60.7083C196.766 68.6791 196.336 76.7284 196.583 84.7713C196.751 88.1365 197.181 91.4836 197.869 94.7822C199.338 101.487 200.165 105.436 203.563 107.824C204.959 108.818 206.585 109.441 208.288 109.634C209.991 109.827 211.715 109.583 213.298 108.926C217.799 106.814 222.299 97.9967 218.809 89.3634C218.651 88.911 218.666 88.4158 218.853 87.9744C219.04 87.5329 219.384 87.1769 219.819 86.9755C220.048 86.8879 220.292 86.847 220.537 86.8552C220.782 86.8634 221.023 86.9206 221.245 87.0233C221.468 87.126 221.668 87.2722 221.833 87.4533C221.998 87.6343 222.125 87.8466 222.207 88.0776C226.156 97.813 221.472 109.11 214.86 112.233C213.256 112.999 211.494 113.377 209.716 113.335Z" fill="#090909"/>
<path d="M201.173 183.228C200.869 183.216 200.574 183.125 200.316 182.964C200.059 182.803 199.847 182.577 199.704 182.31C197.302 178.505 195.095 174.581 193.091 170.554C189.096 162.226 186.046 153.477 183.998 144.47C183.93 144.234 183.913 143.987 183.946 143.744C183.98 143.501 184.065 143.268 184.195 143.06C184.325 142.852 184.497 142.674 184.701 142.537C184.904 142.4 185.134 142.308 185.376 142.266C185.611 142.211 185.855 142.204 186.093 142.244C186.331 142.283 186.559 142.37 186.764 142.498C186.969 142.626 187.146 142.793 187.286 142.989C187.426 143.186 187.526 143.408 187.58 143.643C189.577 152.392 192.534 160.893 196.397 168.992C198.326 172.85 200.438 176.707 202.735 180.381C202.985 180.8 203.068 181.298 202.965 181.775C202.863 182.252 202.584 182.673 202.183 182.953C201.881 183.14 201.53 183.236 201.173 183.228Z" fill="#090909"/>
<path d="M152.314 185.799C151.829 185.792 151.367 185.594 151.028 185.248C150.685 184.889 150.494 184.412 150.494 183.916C150.494 183.42 150.685 182.943 151.028 182.585C154.242 179.462 160.12 175.513 166.917 172.023C176.285 167.155 187.49 165.777 193.368 165.41C193.604 165.385 193.843 165.408 194.071 165.478C194.298 165.549 194.508 165.665 194.689 165.82C194.869 165.975 195.017 166.165 195.121 166.379C195.225 166.592 195.285 166.825 195.296 167.063C195.322 167.304 195.299 167.548 195.229 167.781C195.16 168.014 195.045 168.23 194.891 168.418C194.737 168.606 194.548 168.761 194.334 168.876C194.12 168.99 193.885 169.061 193.643 169.084C188.041 169.451 177.387 170.737 168.57 175.237C162.233 178.543 156.538 182.401 153.599 185.248C153.26 185.594 152.798 185.792 152.314 185.799Z" fill="#090909"/>
<path d="M198.235 331.004H198.051C197.813 330.982 197.581 330.912 197.371 330.796C197.161 330.681 196.977 330.523 196.831 330.334C196.685 330.144 196.579 329.927 196.52 329.694C196.461 329.462 196.451 329.22 196.49 328.984L210.083 231.538C210.08 231.271 210.134 231.007 210.244 230.764C210.353 230.52 210.514 230.304 210.715 230.129C210.916 229.954 211.153 229.825 211.41 229.751C211.666 229.677 211.935 229.66 212.199 229.7C212.462 229.741 212.714 229.838 212.936 229.986C213.158 230.134 213.346 230.328 213.485 230.555C213.625 230.782 213.713 231.037 213.744 231.302C213.775 231.567 213.748 231.836 213.665 232.089L200.072 329.443C200.005 329.881 199.783 330.28 199.445 330.567C199.108 330.854 198.678 331.009 198.235 331.004Z" fill="white"/>
<path d="M164.896 417.521H164.253C163.803 417.337 163.444 416.983 163.255 416.535C163.065 416.088 163.061 415.583 163.243 415.133L196.582 329.075C196.765 328.625 197.12 328.266 197.567 328.077C198.015 327.887 198.519 327.883 198.97 328.065C199.42 328.248 199.779 328.603 199.968 329.05C200.158 329.498 200.162 330.002 199.98 330.453L166.641 416.327C166.498 416.674 166.257 416.972 165.947 417.184C165.637 417.396 165.271 417.513 164.896 417.521Z" fill="white"/>
<path d="M287.414 413.939C286.996 413.944 286.589 413.799 286.269 413.529C285.948 413.259 285.735 412.883 285.669 412.47L244.432 229.334C244.348 228.872 244.445 228.396 244.701 228.004C244.957 227.611 245.353 227.331 245.809 227.221C246.045 227.153 246.292 227.135 246.535 227.169C246.778 227.203 247.011 227.288 247.219 227.418C247.427 227.548 247.605 227.72 247.742 227.923C247.879 228.127 247.972 228.357 248.014 228.599L289.251 411.735C289.313 412.218 289.198 412.706 288.928 413.111C288.658 413.516 288.251 413.81 287.782 413.939H287.414Z" fill="white"/>
<path d="M251.411 104.702C251.156 104.711 250.901 104.667 250.664 104.572C250.427 104.477 250.212 104.334 250.033 104.151C245.734 99.4849 240.239 96.0862 234.144 94.3238C230.178 93.1917 226.039 92.7872 221.929 93.1298C221.692 93.1551 221.453 93.1318 221.226 93.0613C220.999 92.9907 220.788 92.8744 220.608 92.7196C220.427 92.5647 220.28 92.3746 220.176 92.1609C220.071 91.9471 220.011 91.7143 220 91.4767C219.975 91.2352 219.998 90.9911 220.067 90.7585C220.137 90.5259 220.252 90.3094 220.405 90.1215C220.559 89.9337 220.749 89.7781 220.963 89.6639C221.177 89.5497 221.412 89.479 221.654 89.456C226.2 89.0792 230.778 89.5463 235.154 90.8337C241.876 92.7401 247.945 96.4574 252.697 101.579C253.039 101.938 253.23 102.415 253.23 102.911C253.23 103.407 253.039 103.884 252.697 104.243C252.327 104.528 251.877 104.689 251.411 104.702Z" fill="#090909"/>
<path d="M465.591 44.3605C469.265 43.9931 467.795 46.7485 463.938 50.6977C447.039 68.2399 419.669 70.0767 400.199 55.5654C380.728 41.0541 365.298 25.0734 369.155 26.3592C407.362 39.0336 418.016 18.5525 418.016 18.5525C418.016 18.5525 421.874 48.2179 465.591 44.3605Z" fill="#80A5AE"/>
<path d="M331.774 9.55225H267.576C266.105 9.55225 264.912 10.7447 264.912 12.2157V24.8994C264.912 26.3704 266.105 27.5628 267.576 27.5628H331.774C333.245 27.5628 334.438 26.3704 334.438 24.8994V12.2157C334.438 10.7447 333.245 9.55225 331.774 9.55225Z" fill="#CBC7DB"/>
<path d="M316.805 27.6455H250.402C248.475 27.6455 246.912 29.208 246.912 31.1355V74.3387C246.912 76.2662 248.475 77.8287 250.402 77.8287H316.805C318.733 77.8287 320.295 76.2662 320.295 74.3387V31.1355C320.295 29.208 318.733 27.6455 316.805 27.6455Z" fill="#80A5AE"/>
<path d="M326.449 77.7917H254.903C254.041 77.7917 253.342 78.4907 253.342 79.353V85.2402C253.342 86.1026 254.041 86.8015 254.903 86.8015H326.449C327.312 86.8015 328.011 86.1026 328.011 85.2402V79.353C328.011 78.4907 327.312 77.7917 326.449 77.7917Z" fill="#CBC7DB"/>
<path d="M317.723 86.7922H249.484C248.063 86.7922 246.912 87.9436 246.912 89.3639V97.088C246.912 98.5082 248.063 99.6595 249.484 99.6595H317.723C319.144 99.6595 320.295 98.5082 320.295 97.088V89.3639C320.295 87.9436 319.144 86.7922 317.723 86.7922Z" fill="#80A5AE"/>
<path d="M313.496 99.6504H242.134C241.221 99.6504 240.48 100.391 240.48 101.304V107.007C240.48 107.92 241.221 108.66 242.134 108.66H313.496C314.409 108.66 315.149 107.92 315.149 107.007V101.304C315.149 100.391 314.409 99.6504 313.496 99.6504Z" fill="#80A5AE"/>
<path d="M308.172 106.079H249.943C248.269 106.079 246.912 107.436 246.912 109.11V141.65C246.912 143.324 248.269 144.681 249.943 144.681H308.172C309.846 144.681 311.203 143.324 311.203 141.65V109.11C311.203 107.436 309.846 106.079 308.172 106.079Z" fill="#CBC7DB"/>
<path d="M321.214 144.654H257.566C255.943 144.654 254.627 145.969 254.627 147.593V155.868C254.627 157.491 255.943 158.807 257.566 158.807H321.214C322.837 158.807 324.152 157.491 324.152 155.868V147.593C324.152 145.969 322.837 144.654 321.214 144.654Z" fill="#80A5AE"/>
<path d="M308.723 154.94H249.392C248.022 154.94 246.912 156.05 246.912 157.42V192.348C246.912 193.718 248.022 194.828 249.392 194.828H308.723C310.092 194.828 311.203 193.718 311.203 192.348V157.42C311.203 156.05 310.092 154.94 308.723 154.94Z" fill="#80A5AE"/>
<path d="M63.2241 28.8389C60.0096 28.8389 58.8156 23.8793 58.2646 20.2056C54.2234 19.7464 48.8047 18.4606 48.8047 15.1542C48.8047 11.8478 54.0397 10.562 58.0809 10.1028C58.4482 6.15352 59.6422 0 63.2241 0C66.806 0 67.9081 6.15352 68.3674 10.1028C72.3166 10.562 77.6435 11.756 77.6435 15.1542C77.6435 18.5524 72.2248 19.7464 68.1837 20.2056C67.6326 23.8793 66.3468 28.8389 63.2241 28.8389ZM52.9376 15.0624C53.9479 15.6134 56.244 16.3482 60.1014 16.6238H61.5709L61.7546 18.1851C61.8699 20.3968 62.3671 22.5719 63.2241 24.6141C64.0363 22.5577 64.5317 20.3901 64.6936 18.1851V16.6238H66.255C70.1124 16.3482 72.4085 15.6134 73.4187 15.0624C71.1592 14.1837 68.7693 13.6872 66.3468 13.5929H64.7854V11.9397C64.5099 7.8067 63.7752 5.32701 63.2241 4.22489C62.6731 5.32701 61.9383 7.8067 61.6628 11.9397V13.5929H60.0096C57.5854 13.6731 55.1931 14.1702 52.9376 15.0624Z" fill="#090909"/>
<path d="M26.7552 414.968C32.216 414.103 32.8669 389.562 28.2091 360.154C23.5513 330.745 15.3485 307.606 9.88772 308.471C4.42689 309.336 3.7759 333.877 8.43371 363.286C13.0915 392.694 21.2943 415.833 26.7552 414.968Z" fill="#80A5AE"/>
<path d="M42.9277 416.143C51.3986 416.143 58.2656 377.12 58.2656 328.984C58.2656 280.847 51.3986 241.824 42.9277 241.824C34.4569 241.824 27.5898 280.847 27.5898 328.984C27.5898 377.12 34.4569 416.143 42.9277 416.143Z" fill="#80A5AE"/>
<path d="M68.3001 372.375C70.9869 349.503 69.857 330.574 65.7764 330.095C61.6959 329.615 56.2098 347.768 53.523 370.639C50.8363 393.51 51.9662 412.44 56.0468 412.919C60.1274 413.398 65.6134 395.246 68.3001 372.375Z" fill="#80A5AE"/>
<path d="M388.075 225.66C383.575 225.66 381.922 217.21 381.279 212.25C375.952 211.699 366.676 210.046 366.676 205.27C366.676 200.494 375.768 198.933 381.095 198.382C381.463 193.239 383.024 182.769 388.075 182.769C393.127 182.769 394.688 193.239 395.147 198.382C400.474 198.933 409.567 200.586 409.567 205.27C409.567 209.954 400.29 211.699 394.964 212.25C394.321 217.21 392.576 225.66 388.075 225.66ZM370.35 205.27C370.809 206.097 374.391 208.026 383.116 208.669L384.677 208.852V210.414C385.412 218.22 387.341 221.527 387.983 221.986C388.626 222.445 390.555 218.22 391.382 210.414V208.852L392.943 208.669C401.576 208.026 405.25 206.097 405.709 205.27C406.169 204.444 401.668 202.515 393.127 201.872H391.657V200.219C391.198 191.586 389.177 187.085 388.167 186.534C387.157 185.983 385.228 191.586 384.677 200.219V201.872H383.116C374.391 202.515 370.809 204.535 370.35 205.27Z" fill="#CBC7DB"/>
<path d="M69.8362 399.611L72.4997 376.559H3.89258L15.4649 476.852H40.63L41.2729 477.035L53.4881 477.311C55.876 477.403 59.2742 478.138 61.4785 477.035C65.1522 475.107 64.3257 467.851 64.6012 464.545C65.1523 457.656 65.4278 450.676 65.4278 443.788C65.5042 443.117 65.5349 442.442 65.5196 441.768L66.6217 430.654C67.1728 425.695 67.7238 420.644 68.1831 415.684C68.2749 414.949 68.3668 414.123 68.5505 413.296C69.4124 408.968 69.904 404.574 70.0199 400.162C70.0015 399.967 69.9387 399.779 69.8362 399.611ZM61.5703 471.525L61.9377 467.943C61.9664 469.148 61.8429 470.351 61.5703 471.525Z" fill="#CBC7DB"/>
<path d="M164.528 470.147H110.524C110.037 470.147 109.57 469.954 109.225 469.609C108.881 469.265 108.688 468.798 108.688 468.311C108.688 467.823 108.881 467.356 109.225 467.012C109.57 466.667 110.037 466.474 110.524 466.474H164.528C165.016 466.474 165.483 466.667 165.827 467.012C166.172 467.356 166.365 467.823 166.365 468.311C166.365 468.798 166.172 469.265 165.827 469.609C165.483 469.954 165.016 470.147 164.528 470.147Z" fill="#090909"/>
<path d="M77.6435 478.505C77.1635 478.482 76.7093 478.282 76.3695 477.942C76.0298 477.602 75.829 477.148 75.8066 476.668C75.8066 476.181 76.0002 475.713 76.3447 475.369C76.6892 475.024 77.1563 474.831 77.6435 474.831L154.884 474.188C155.371 474.188 155.838 474.382 156.183 474.726C156.527 475.071 156.721 475.538 156.721 476.025C156.721 476.512 156.527 476.979 156.183 477.324C155.838 477.668 155.371 477.862 154.884 477.862L77.7354 478.505H77.6435Z" fill="#090909"/>
<path d="M436.66 356.904H307.987C307.5 356.904 307.033 356.711 306.688 356.366C306.344 356.022 306.15 355.555 306.15 355.068C306.15 354.58 306.344 354.113 306.688 353.769C307.033 353.424 307.5 353.231 307.987 353.231H436.66C437.147 353.231 437.614 353.424 437.959 353.769C438.303 354.113 438.497 354.58 438.497 355.068C438.497 355.555 438.303 356.022 437.959 356.366C437.614 356.711 437.147 356.904 436.66 356.904Z" fill="#090909"/>
<path d="M468.162 344.047H339.489C339.002 344.047 338.535 343.853 338.19 343.509C337.846 343.164 337.652 342.697 337.652 342.21C337.652 341.723 337.846 341.255 338.19 340.911C338.535 340.566 339.002 340.373 339.489 340.373H468.162C468.649 340.373 469.116 340.566 469.461 340.911C469.805 341.255 469.999 341.723 469.999 342.21C469.999 342.697 469.805 343.164 469.461 343.509C469.116 343.853 468.649 344.047 468.162 344.047Z" fill="#090909"/>
<path d="M422.24 302.9C419.025 302.9 417.739 297.941 417.28 294.267C413.147 293.808 407.82 292.522 407.82 289.216C407.82 285.909 413.055 284.624 417.096 284.164C417.464 280.215 418.658 274.062 422.24 274.062C425.822 274.062 426.924 280.215 427.291 284.164C431.332 284.624 436.567 285.817 436.567 289.216C436.567 292.614 431.24 293.808 427.107 294.267C426.648 297.941 425.362 302.9 422.24 302.9ZM411.953 289.216C414.213 290.094 416.603 290.591 419.025 290.685H420.587L420.77 292.247C420.838 294.465 421.337 296.648 422.24 298.676C423.052 296.619 423.547 294.452 423.709 292.247V290.685H425.271C427.693 290.591 430.083 290.094 432.343 289.216C431.332 288.665 429.128 287.93 425.362 287.654H423.801V286.001C423.526 281.868 422.791 279.388 422.24 278.286C421.215 280.733 420.655 283.349 420.587 286.001V287.654H419.025C415.168 287.93 412.964 288.665 411.953 289.216Z" fill="#090909"/>
<path d="M21.8037 374.722L12.9868 326.871C12.7112 325.126 10.1396 325.861 10.4152 327.606L19.2321 375.456C19.5995 377.201 22.1711 376.467 21.8037 374.722Z" fill="white"/>
<path d="M41.9165 258.264C40.5281 267.226 39.9136 276.291 40.0797 285.358C40.2634 295.92 41.9165 306.115 39.9878 316.585C36.5896 335.229 38.3346 355.067 38.702 373.987C38.7798 374.281 38.9527 374.541 39.1935 374.726C39.4344 374.911 39.7298 375.012 40.0338 375.012C40.3377 375.012 40.6331 374.911 40.874 374.726C41.1149 374.541 41.2876 374.281 41.3655 373.987C40.9981 354.608 39.6204 334.77 42.9268 315.575C44.4881 306.574 43.2024 297.757 42.835 288.756C42.4211 278.807 42.9747 268.841 44.4882 258.999C44.7637 257.346 42.1002 256.611 41.9165 258.264Z" fill="white"/>
<path d="M62.2136 349.006C60.2849 353.506 60.7441 358.466 59.3664 363.15C57.9888 367.834 56.2437 370.405 57.1622 374.63C57.5296 376.375 60.1012 375.64 59.7338 373.987C58.8154 369.487 61.8462 365.262 62.581 361.037C63.3157 356.812 63.2238 353.322 64.7852 349.649C65.4281 348.087 62.8565 347.352 62.2136 349.006Z" fill="white"/>
<path d="M465.316 50.1463C463.938 50.2381 462.836 51.1565 461.734 51.8912L461.183 52.075C454.662 55.9324 446.579 55.1058 439.324 55.0139C432.068 54.9221 422.976 54.8302 417.281 48.5849C417.162 48.4627 417.019 48.3656 416.861 48.2993C416.703 48.233 416.534 48.199 416.363 48.199C416.192 48.199 416.023 48.233 415.865 48.2993C415.707 48.3656 415.564 48.4627 415.445 48.5849C410.209 54.0955 400.933 52.9016 394.229 51.6158C392.576 51.2484 391.841 53.9118 393.586 54.1873C400.841 55.6568 410.301 56.6671 416.363 51.432C422.057 56.8508 430.048 57.5856 437.671 57.6774C445.294 57.7692 454.294 58.6877 461.458 55.0139H462.101L462.744 54.8303L465.958 52.7178C467.061 51.9831 466.693 50.0544 465.316 50.1463Z" fill="white"/>
<path d="M225.788 223.455C220.644 236.222 222.114 249.906 222.114 263.316C222.18 270.668 221.222 277.994 219.267 285.082C217.43 291.787 215.501 298.308 215.593 305.38C215.593 307.125 218.348 307.125 218.256 305.38C218.165 297.757 220.644 290.685 222.481 283.429C223.984 277.359 224.755 271.13 224.777 264.877C224.961 251.192 223.124 237.232 228.359 224.098C229.002 222.537 226.431 221.802 225.788 223.455Z" fill="#090909"/>
<path d="M136.517 411C134.875 410.736 133.271 410.274 131.741 409.622C130.363 408.979 129.353 407.694 128.067 406.959C126.059 405.819 123.681 405.522 121.454 406.132C119.801 406.5 120.444 409.163 122.189 408.704C125.495 407.969 127.057 409.99 129.628 411.551C131.563 412.538 133.639 413.22 135.782 413.572C137.435 413.939 138.17 411.367 136.517 411Z" fill="#090909"/>
<path d="M140.742 412.837C140.448 412.914 140.188 413.087 140.003 413.328C139.817 413.569 139.717 413.865 139.717 414.168C139.717 414.472 139.817 414.768 140.003 415.009C140.188 415.25 140.448 415.422 140.742 415.5C141.036 415.422 141.295 415.25 141.481 415.009C141.666 414.768 141.767 414.472 141.767 414.168C141.767 413.865 141.666 413.569 141.481 413.328C141.295 413.087 141.036 412.914 140.742 412.837Z" fill="#090909"/>
<path d="M305.047 416.51C300.087 420.643 295.403 423.307 288.974 423.858C284.107 424.225 279.239 423.858 274.463 423.95C272.718 424.041 272.718 426.705 274.463 426.613C280.341 426.521 286.403 427.072 292.281 426.062C298.159 425.052 302.475 422.113 306.884 418.439C308.261 417.337 306.333 415.408 305.047 416.51Z" fill="#090909"/>
<path d="M266.292 424.869C263.108 425.683 260.092 427.05 257.383 428.91C255.913 429.828 257.291 432.216 258.668 431.206C261.208 429.484 264.04 428.239 267.026 427.532C268.68 427.073 267.945 424.501 266.292 424.869Z" fill="#090909"/>
<path d="M183.356 427.991C181.244 426.522 178.58 426.797 176.192 425.971C173.804 425.144 173.804 427.991 175.457 428.542C177.111 429.093 180.142 429.002 182.07 430.287C183.999 431.573 184.826 429.002 183.356 427.991Z" fill="#090909"/>
<path d="M220.001 90.6497C215.409 101.304 201.724 91.5682 197.04 86.0575C195.938 84.6799 194.101 86.6086 195.203 87.8944C200.989 94.8745 216.878 104.518 222.297 92.0274C223.032 90.3742 220.736 89.0884 220.001 90.6497Z" fill="#80A5AE"/>
<path d="M213.572 99.4664C206.317 99.4664 198.051 93.4965 194.101 88.8125C193.777 88.4408 193.563 87.9864 193.482 87.4999C193.4 87.0134 193.456 86.514 193.642 86.0572C193.821 85.6038 194.106 85.2 194.474 84.8802C194.841 84.5605 195.281 84.3341 195.755 84.2203C196.198 84.1607 196.649 84.2135 197.066 84.3741C197.483 84.5346 197.854 84.7976 198.142 85.1388C201.633 89.3636 209.164 94.6905 214.215 93.9557C216.236 93.6802 217.705 92.3944 218.715 90.0984C218.87 89.6735 219.142 89.3013 219.499 89.0249C219.857 88.7485 220.286 88.5793 220.736 88.5369C221.229 88.5112 221.722 88.6066 222.17 88.8147C222.618 89.0228 223.009 89.3374 223.308 89.731C223.593 90.125 223.768 90.5876 223.817 91.0715C223.865 91.5554 223.784 92.0435 223.583 92.4863C221.93 96.4355 219.083 98.7316 215.317 99.2827L213.572 99.4664ZM219.634 93.8639C218.814 94.8918 217.737 95.684 216.511 96.16C217.748 95.7048 218.831 94.9087 219.634 93.8639Z" fill="#80A5AE"/>
<path d="M172.335 477.586C170.682 472.627 167.651 467.667 162.692 465.555C159.753 464.269 156.814 464.545 153.783 465.004C150.752 465.463 146.803 466.565 144.323 463.994C143.221 462.891 142.854 461.238 142.027 459.952C141.2 458.667 139.731 456.83 137.618 456.279C135.506 455.728 131.465 456.83 128.618 455.911C125.771 454.993 124.852 450.033 121.821 448.288C120.765 447.703 119.595 447.351 118.391 447.256C117.187 447.161 115.976 447.325 114.841 447.737C113.28 448.288 113.923 450.86 115.576 450.309C122.648 448.105 122.832 457.656 128.985 458.667C131.006 459.034 133.026 458.575 135.047 458.667C139.547 458.85 139.547 462.157 141.66 464.912C143.772 467.667 148.732 468.494 152.864 467.851C156.997 467.208 160.855 466.749 164.345 469.688C167.835 472.627 168.662 475.107 169.764 478.321C170.315 479.974 172.886 479.239 172.335 477.586Z" fill="white"/>
<path d="M317.447 449.023C312.212 450.034 304.956 450.217 300.272 453.248C297.976 454.718 296.507 457.749 293.66 458.575C290.813 459.402 287.965 458.3 285.21 459.034C283.452 459.491 281.899 460.526 280.802 461.973C278.23 464.729 276.76 466.106 272.903 466.841C269.046 467.576 265.096 468.77 263.535 472.903C262.892 474.556 265.556 475.291 266.107 473.637C268.035 468.494 275.934 470.056 279.699 467.117C281.077 466.106 281.904 464.637 283.006 463.443C285.486 460.779 288.884 461.606 292.098 461.422C295.313 461.239 297.517 459.034 300.456 456.555C304.865 452.881 312.671 452.697 318.182 451.595C319.927 451.228 319.192 448.656 317.447 449.023Z" fill="white"/>
<path d="M245.626 178.911C240.115 178.819 234.88 180.105 229.553 181.666C224.226 183.228 217.246 185.708 210.817 183.779C209.164 183.228 208.429 185.891 210.082 186.35C222.114 189.932 233.594 181.391 245.626 181.575C245.919 181.497 246.179 181.324 246.365 181.083C246.55 180.842 246.651 180.547 246.651 180.243C246.651 179.939 246.55 179.644 246.365 179.403C246.179 179.162 245.919 178.989 245.626 178.911Z" fill="#090909"/>
<path d="M29.8856 394.101H18.0378C13.5375 394.101 7.01654 395.387 6.00626 389.509C5.55601 386.437 4.78648 383.42 3.71017 380.508C2.69989 377.569 3.71017 378.12 6.46548 378.028C9.22078 377.936 10.9659 378.212 13.1701 378.304C15.3743 378.396 14.9151 375.64 13.1701 375.64C9.95558 375.457 6.28183 374.814 3.06731 375.181C1.59781 375.365 0.863041 375.548 0.403824 376.926C-0.0553942 378.304 0.863019 380.416 1.41408 381.977C2.31184 384.804 3.01762 387.689 3.52653 390.611C4.07759 393.458 5.1797 395.295 7.47579 396.213C7.3067 413.511 8.1039 430.804 9.8637 448.013C10.7821 456.187 11.7924 464.269 13.0782 472.352C13.3538 474.188 13.3538 476.117 15.007 477.219C16.6602 478.321 18.8644 477.587 20.1502 477.495H27.2222C27.516 477.417 27.7758 477.244 27.9612 477.003C28.1465 476.762 28.247 476.467 28.247 476.163C28.247 475.859 28.1465 475.564 27.9612 475.323C27.7758 475.082 27.516 474.909 27.2222 474.831C24.375 474.831 17.3031 475.933 15.9254 473.362C14.5478 470.79 14.7314 465.28 14.2722 462.249C13.2619 454.718 12.4354 447.095 11.7924 439.472C10.5066 425.236 10.0474 411 10.1392 396.764C16.5683 397.407 23.4565 396.764 29.8856 396.764C30.1794 396.686 30.4393 396.514 30.6246 396.273C30.81 396.032 30.9105 395.737 30.9105 395.433C30.9105 395.129 30.81 394.833 30.6246 394.592C30.4393 394.352 30.1794 394.179 29.8856 394.101Z" fill="#090909"/>
<path d="M38.2435 394.101H34.6616C34.3678 394.179 34.108 394.352 33.9226 394.593C33.7372 394.834 33.6367 395.129 33.6367 395.433C33.6367 395.737 33.7372 396.032 33.9226 396.273C34.108 396.514 34.3678 396.687 34.6616 396.765H38.2435C38.5373 396.687 38.7971 396.514 38.9825 396.273C39.1679 396.032 39.2684 395.737 39.2684 395.433C39.2684 395.129 39.1679 394.834 38.9825 394.593C38.7971 394.352 38.5373 394.179 38.2435 394.101Z" fill="#090909"/>
<path d="M44.7632 394.101C44.4694 394.179 44.2095 394.352 44.0242 394.593C43.8388 394.834 43.7383 395.129 43.7383 395.433C43.7383 395.737 43.8388 396.032 44.0242 396.273C44.2095 396.514 44.4694 396.687 44.7632 396.765C45.057 396.687 45.3168 396.514 45.5022 396.273C45.6876 396.032 45.7881 395.737 45.7881 395.433C45.7881 395.129 45.6876 394.834 45.5022 394.593C45.3168 394.352 45.057 394.179 44.7632 394.101Z" fill="#090909"/>
<path d="M73.97 376.743C72.4087 374.446 67.2655 375.273 64.9694 375.181C64.7764 375.17 64.5836 375.206 64.4076 375.286C64.2317 375.366 64.0778 375.488 63.9591 375.64L47.4273 376.008C47.1335 376.086 46.8736 376.258 46.6882 376.499C46.5029 376.74 46.4023 377.036 46.4023 377.34C46.4023 377.643 46.5029 377.939 46.6882 378.18C46.8736 378.421 47.1335 378.593 47.4273 378.671L67.7247 378.212C67.8825 378.227 68.0415 378.201 68.1864 378.137C68.3312 378.073 68.4569 377.972 68.5513 377.845C69.3998 377.876 70.2112 378.201 70.8474 378.763C71.9495 379.957 70.8474 381.61 70.6637 383.263C70.2963 386.478 71.031 395.846 65.2449 393.825C63.5917 393.274 62.857 395.938 64.5102 396.489C71.3066 398.693 72.9598 390.703 73.2353 385.835C73.3271 383.447 74.1537 381.427 74.4293 379.222C74.5658 378.367 74.4036 377.492 73.97 376.743Z" fill="#090909"/>
<path d="M176.01 109.937C173.162 107.733 168.295 106.998 165.815 110.029H165.723C165.578 110.002 165.429 110.005 165.286 110.038C165.142 110.07 165.006 110.131 164.886 110.216C164.766 110.302 164.665 110.411 164.588 110.536C164.511 110.662 164.459 110.801 164.437 110.947C163.886 113.978 163.886 119.029 167.193 120.499C170.499 121.968 175.367 122.06 177.295 118.754C179.224 115.447 178.581 111.866 176.01 109.937ZM174.907 117.468C173.713 119.305 170.499 119.029 168.662 118.203C166.825 117.376 166.642 114.437 166.917 112.417C167.208 112.353 167.467 112.191 167.652 111.957C169.213 110.029 172.06 110.672 173.989 111.774C175.918 112.876 176.101 115.815 174.907 117.468Z" fill="#CBC7DB"/>
<path d="M237.635 134.092C235.615 128.489 229.094 127.938 223.951 128.03C223.759 128.026 223.568 128.065 223.393 128.145C223.219 128.224 223.064 128.342 222.94 128.489C218.532 128.948 218.624 136.571 219.634 139.786C220.644 143 227.441 146.674 231.757 145.48C236.074 144.286 239.013 138.041 237.635 134.092ZM233.41 140.704C231.665 142.817 230.655 143.184 228.267 142.725C226.835 142.635 225.447 142.193 224.226 141.439C222.389 140.153 221.838 138.592 221.838 136.388C221.838 134.183 221.746 131.061 223.491 131.061C223.664 131.107 223.846 131.096 224.012 131.03C224.177 130.963 224.317 130.845 224.41 130.693C227.073 130.693 229.92 130.602 232.308 131.979C236.074 134 235.798 137.673 233.41 140.704Z" fill="#CBC7DB"/>
<path d="M173.343 147.592C168.659 147.225 162.138 148.235 161.587 154.113C161.425 156.863 162.132 159.594 163.608 161.92C165.445 164.491 168.659 165.042 170.68 167.339C170.839 167.54 171.059 167.684 171.308 167.75C171.556 167.817 171.819 167.801 172.057 167.706C177.201 168.441 181.517 163.206 181.701 158.338C181.885 153.47 177.843 147.96 173.343 147.592ZM172.425 165.042H172.149C170.404 163.389 168.016 162.746 166.363 161.001C163.332 157.787 163.332 151.725 168.108 150.439C170.008 149.997 171.981 149.965 173.894 150.347C175.547 150.899 176.282 152.276 177.201 153.654C178.119 155.031 179.497 157.236 178.762 159.715C178.027 162.195 175.547 165.685 172.425 165.042Z" fill="#CBC7DB"/>
<path d="M209.532 164.492H208.889C206.318 163.574 203.195 163.39 202.552 166.421C201.909 169.452 202.277 174.411 205.675 175.973C209.073 177.534 212.288 175.513 213.298 172.391C214.308 169.268 212.839 165.411 209.532 164.492ZM206.226 173.217C204.94 172.023 204.848 169.635 205.124 167.982C205.399 166.329 205.491 166.421 206.961 166.696C207.917 166.869 208.825 167.245 209.624 167.798L210.267 167.982C212.38 170.462 209.257 175.881 206.226 173.217Z" fill="#CBC7DB"/>
<path d="M244.248 153.287C244.339 153.122 244.388 152.938 244.394 152.75C244.399 152.561 244.36 152.374 244.279 152.204C244.199 152.034 244.079 151.885 243.93 151.77C243.781 151.655 243.607 151.577 243.422 151.542C241.493 151.083 238.371 151.175 237.177 153.104C236.647 154.087 236.423 155.206 236.534 156.318C236.504 156.848 236.606 157.377 236.83 157.857C237.054 158.338 237.394 158.756 237.819 159.073C239.381 160.176 242.136 160.543 243.789 159.533C245.442 158.522 244.891 155.032 244.248 153.287ZM241.585 157.42C240.993 157.418 240.404 157.325 239.84 157.145C239.381 156.961 239.197 156.869 239.197 156.318C239.162 155.791 239.224 155.262 239.381 154.757C239.656 154.114 240.758 153.93 241.677 154.022C242.154 155.024 242.375 156.128 242.32 157.237H241.585V157.42Z" fill="#CBC7DB"/>
<path d="M236.165 104.426C235.247 103.6 233.869 103.691 232.767 103.691C232.181 103.573 231.576 103.575 230.991 103.697C230.405 103.82 229.85 104.06 229.361 104.404C228.871 104.747 228.456 105.187 228.142 105.696C227.827 106.205 227.62 106.773 227.532 107.365C227.073 110.029 229.094 111.957 231.665 111.957C232.876 111.999 234.061 111.605 235.005 110.847C235.949 110.088 236.589 109.015 236.808 107.824C236.992 106.722 236.992 105.253 236.165 104.426ZM234.145 107.457C234.039 107.903 233.81 108.311 233.486 108.635C233.162 108.959 232.754 109.187 232.308 109.294C231.39 109.477 230.196 109.202 230.104 108.1C230.089 107.847 230.129 107.594 230.222 107.358C230.315 107.122 230.459 106.909 230.642 106.734C230.826 106.56 231.045 106.427 231.285 106.345C231.525 106.264 231.78 106.236 232.032 106.263H234.053C234.329 106.539 234.237 107.09 234.145 107.457Z" fill="#CBC7DB"/>
<path d="M242.411 81.7405C242.043 78.526 241.308 75.587 241.4 72.2807C241.492 68.9743 241.676 66.3108 241.86 63.3718C242.043 60.4328 242.411 56.6673 241.676 53.4528C241.78 52.8535 241.734 52.2376 241.542 51.6605C241.349 51.0834 241.017 50.5632 240.574 50.1464L240.39 49.8708L239.839 49.136H239.747C238.737 47.4829 238.186 45.3705 237.359 43.8092C236.596 42.0115 235.358 40.4556 233.777 39.3088L233.134 38.8496C231.878 36.4812 230.123 34.4132 227.991 32.788C222.389 28.5631 217.521 26.3588 210.449 26.6344C203.377 26.9099 196.121 26.8181 189.233 28.2876C186.182 28.9194 183.281 30.1358 180.692 31.8695C177.936 33.8901 176.008 36.7372 173.436 38.9414C168.385 43.1662 161.772 44.9113 158.374 51.0648C154.976 57.2184 158.006 62.5453 159.292 68.6069C160.578 74.6686 155.435 79.8119 153.598 85.598C151.761 91.3841 152.955 99.8337 156.169 105.069C158.098 108.191 162.323 107.181 163.517 104.059C165.446 99.099 170.773 96.7111 175.457 95.1497C180.141 93.5884 186.294 91.7515 191.713 90.0984C193.825 89.3636 193.733 87.6185 193.55 85.7816C193.366 83.9448 194.376 82.1079 193.091 81.0976C193.503 80.1939 193.782 79.2348 193.917 78.2505C194.287 74.7118 194.379 71.1497 194.193 67.5967C194.592 68.5024 195.085 69.3641 195.662 70.1682C197.132 58.7796 207.051 49.2279 218.807 49.4116C222.392 49.4689 225.909 50.3926 229.06 52.1038C232.211 53.815 234.9 56.2629 236.9 59.2388C236.808 61.6268 236.441 64.1066 236.349 65.8516C235.951 69.8816 235.921 73.9394 236.257 77.9749C236.279 78.1297 236.309 78.283 236.349 78.4342C236.052 78.6842 235.809 78.9924 235.635 79.3399C235.461 79.6874 235.36 80.0669 235.339 80.4548C235.339 81.4651 232.675 83.3937 231.94 84.0366C231.206 84.6795 229.001 86.6082 226.889 86.3327C224.777 86.0571 222.021 90.9249 225.42 91.476C227.267 91.7563 229.155 91.599 230.93 91.0168C231.389 92.7618 233.777 94.1395 235.43 92.3944C238.553 89.2718 242.962 86.5164 242.411 81.7405Z" fill="#090909"/>
<path d="M199.336 86.7007C196.213 82.6596 192.907 80.8227 187.764 81.5575C185.84 81.7892 184.017 82.5459 182.494 83.7447C180.971 84.9434 179.808 86.538 179.131 88.3539C178.763 89.2723 179.682 90.007 180.416 90.007C184.224 90.3953 188.071 89.9888 191.713 88.8131C192.907 88.3539 194.928 87.8028 195.662 86.517C196.32 87.1809 196.933 87.8864 197.499 88.6294C198.51 89.9152 200.438 88.0783 199.336 86.7007Z" fill="#80A5AE"/>
<path d="M194.377 58.2292C192.907 61.1682 193.642 67.5054 198.142 66.6789C200.163 66.3115 201.173 63.7398 200.898 61.5355C201.079 61.548 201.26 61.5246 201.432 61.4667C201.604 61.4088 201.763 61.3174 201.899 61.198C202.036 61.0785 202.148 60.9332 202.228 60.7705C202.308 60.6077 202.355 60.4309 202.367 60.2498C202.643 55.8413 196.305 54.5554 194.377 58.2292Z" fill="white"/>
<path d="M276.118 17.0834H293.936C294.301 17.0834 294.651 16.9383 294.91 16.6799C295.168 16.4216 295.313 16.0712 295.313 15.7058C295.313 15.3404 295.168 14.99 294.91 14.7316C294.651 14.4733 294.301 14.3281 293.936 14.3281H276.118C275.753 14.3281 275.402 14.4733 275.144 14.7316C274.885 14.99 274.74 15.3404 274.74 15.7058C274.74 16.0712 274.885 16.4216 275.144 16.6799C275.402 16.9383 275.753 17.0834 276.118 17.0834Z" fill="#090909"/>
<path d="M317.815 16.5317H322.775C323.509 16.4399 328.01 15.8888 327.734 17.4501C327.459 19.0115 330.03 19.93 330.398 18.1849C330.765 16.4399 330.306 14.0519 327.826 13.6846C325.346 13.3172 321.03 13.7765 317.815 13.8683C317.45 13.8683 317.099 14.0135 316.841 14.2718C316.583 14.5302 316.438 14.8806 316.438 15.246C316.438 15.6114 316.583 15.9618 316.841 16.2201C317.099 16.4785 317.45 16.6236 317.815 16.6236V16.5317Z" fill="#090909"/>
<path d="M299.079 17.3588H301.742C302.108 17.3588 302.458 17.2137 302.716 16.9553C302.975 16.697 303.12 16.3465 303.12 15.9812C303.12 15.6158 302.975 15.2654 302.716 15.007C302.458 14.7487 302.108 14.6035 301.742 14.6035H299.079C298.713 14.6035 298.363 14.7487 298.105 15.007C297.846 15.2654 297.701 15.6158 297.701 15.9812C297.701 16.3465 297.846 16.697 298.105 16.9553C298.363 17.2137 298.713 17.3588 299.079 17.3588Z" fill="#090909"/>
<path d="M255.268 44.4526H300.272C300.637 44.4526 300.987 44.3074 301.246 44.0491C301.504 43.7907 301.649 43.4403 301.649 43.0749C301.649 42.7095 301.504 42.3591 301.246 42.1008C300.987 41.8424 300.637 41.6973 300.272 41.6973H255.268C254.903 41.6973 254.552 41.8424 254.294 42.1008C254.036 42.3591 253.891 42.7095 253.891 43.0749C253.891 43.4403 254.036 43.7907 254.294 44.0491C254.552 44.3074 254.903 44.4526 255.268 44.4526Z" fill="#090909"/>
<path d="M273.087 53.0854H309.181C309.546 53.0854 309.897 52.9402 310.155 52.6819C310.414 52.4235 310.559 52.0731 310.559 51.7077C310.559 51.3424 310.414 50.9919 310.155 50.7336C309.897 50.4752 309.546 50.3301 309.181 50.3301H273.087C272.721 50.3301 272.371 50.4752 272.112 50.7336C271.854 50.9919 271.709 51.3424 271.709 51.7077C271.709 52.0731 271.854 52.4235 272.112 52.6819C272.371 52.9402 272.721 53.0854 273.087 53.0854Z" fill="#090909"/>
<path d="M256.739 54.0038H263.535C263.901 54.0038 264.251 53.8587 264.51 53.6003C264.768 53.342 264.913 52.9916 264.913 52.6262C264.913 52.2608 264.768 51.9104 264.51 51.652C264.251 51.3937 263.901 51.2485 263.535 51.2485H256.739C256.374 51.2485 256.023 51.3937 255.765 51.652C255.506 51.9104 255.361 52.2608 255.361 52.6262C255.361 52.9916 255.506 53.342 255.765 53.6003C256.023 53.8587 256.374 54.0038 256.739 54.0038Z" fill="#090909"/>
<path d="M300.55 28.8393C310.101 29.023 319.653 29.023 329.113 28.9311C329.478 28.9311 329.829 28.786 330.087 28.5276C330.345 28.2693 330.491 27.9188 330.491 27.5535C330.491 27.1881 330.345 26.8377 330.087 26.5793C329.829 26.3209 329.478 26.1758 329.113 26.1758C319.653 26.2676 310.101 26.2677 300.55 26.084C300.184 26.084 299.834 26.2291 299.575 26.4875C299.317 26.7458 299.172 27.0963 299.172 27.4616C299.172 27.827 299.317 28.1774 299.575 28.4358C299.834 28.6942 300.184 28.8393 300.55 28.8393Z" fill="#090909"/>
<path d="M279.7 29.5739H285.302C285.668 29.5739 286.018 29.4288 286.277 29.1704C286.535 28.9121 286.68 28.5616 286.68 28.1963C286.68 27.8309 286.535 27.4805 286.277 27.2221C286.018 26.9637 285.668 26.8186 285.302 26.8186H279.7C279.335 26.8186 278.984 26.9637 278.726 27.2221C278.467 27.4805 278.322 27.8309 278.322 28.1963C278.322 28.5616 278.467 28.9121 278.726 29.1704C278.984 29.4288 279.335 29.5739 279.7 29.5739Z" fill="#090909"/>
<path d="M251.688 71.1789H268.22C268.585 71.1789 268.936 71.0338 269.194 70.7754C269.453 70.517 269.598 70.1666 269.598 69.8012C269.598 69.4359 269.453 69.0854 269.194 68.8271C268.936 68.5687 268.585 68.4236 268.22 68.4236H251.688C251.323 68.4236 250.972 68.5687 250.714 68.8271C250.456 69.0854 250.311 69.4359 250.311 69.8012C250.311 70.1666 250.456 70.517 250.714 70.7754C250.972 71.0338 251.323 71.1789 251.688 71.1789Z" fill="#090909"/>
<path d="M256.831 65.6681H297.242C297.607 65.6681 297.958 65.523 298.216 65.2647C298.474 65.0063 298.62 64.6559 298.62 64.2905C298.62 63.9251 298.474 63.5747 298.216 63.3163C297.958 63.058 297.607 62.9128 297.242 62.9128H256.831C256.465 62.9128 256.115 63.058 255.857 63.3163C255.598 63.5747 255.453 63.9251 255.453 64.2905C255.453 64.6559 255.598 65.0063 255.857 65.2647C256.115 65.523 256.465 65.6681 256.831 65.6681Z" fill="#090909"/>
<path d="M284.475 72.5563H301.283C301.648 72.5563 301.998 72.4112 302.257 72.1528C302.515 71.8945 302.66 71.5441 302.66 71.1787C302.66 70.8133 302.515 70.4629 302.257 70.2045C301.998 69.9462 301.648 69.801 301.283 69.801H284.475C284.11 69.801 283.76 69.9462 283.501 70.2045C283.243 70.4629 283.098 70.8133 283.098 71.1787C283.098 71.5441 283.243 71.8945 283.501 72.1528C283.76 72.4112 284.11 72.5563 284.475 72.5563Z" fill="#090909"/>
<path d="M259.219 83.4863H271.067C271.433 83.4863 271.783 83.3411 272.041 83.0828C272.3 82.8244 272.445 82.474 272.445 82.1086C272.445 81.7432 272.3 81.3928 272.041 81.1345C271.783 80.8761 271.433 80.731 271.067 80.731H259.219C258.854 80.731 258.504 80.8761 258.245 81.1345C257.987 81.3928 257.842 81.7432 257.842 82.1086C257.842 82.474 257.987 82.8244 258.245 83.0828C258.504 83.3411 258.854 83.4863 259.219 83.4863Z" fill="#090909"/>
<path d="M278.231 83.4863H287.875C288.24 83.4863 288.591 83.3411 288.849 83.0828C289.107 82.8244 289.252 82.474 289.252 82.1086C289.252 81.7432 289.107 81.3928 288.849 81.1345C288.591 80.8761 288.24 80.731 287.875 80.731H278.231C277.866 80.731 277.515 80.8761 277.257 81.1345C276.999 81.3928 276.854 81.7432 276.854 82.1086C276.854 82.474 276.999 82.8244 277.257 83.0828C277.515 83.3411 277.866 83.4863 278.231 83.4863Z" fill="#090909"/>
<path d="M292.926 83.853C293.292 83.853 293.642 83.7078 293.901 83.4495C294.159 83.1911 294.304 82.8407 294.304 82.4753C294.304 82.1099 294.159 81.7595 293.901 81.5012C293.642 81.2428 293.292 81.0977 292.926 81.0977C292.561 81.0977 292.211 81.2428 291.952 81.5012C291.694 81.7595 291.549 82.1099 291.549 82.4753C291.549 82.8407 291.694 83.1911 291.952 83.4495C292.211 83.7078 292.561 83.853 292.926 83.853Z" fill="#090909"/>
<path d="M252.973 92.946H298.803C299.169 92.946 299.519 92.8008 299.777 92.5425C300.036 92.2841 300.181 91.9337 300.181 91.5683C300.181 91.203 300.036 90.8525 299.777 90.5942C299.519 90.3358 299.169 90.1907 298.803 90.1907H252.973C252.608 90.1907 252.258 90.3358 251.999 90.5942C251.741 90.8525 251.596 91.203 251.596 91.5683C251.596 91.9337 251.741 92.2841 251.999 92.5425C252.258 92.8008 252.608 92.946 252.973 92.946Z" fill="#090909"/>
<path d="M277.128 96.7111H328.101C328.466 96.7111 328.817 96.566 329.075 96.3076C329.333 96.0493 329.478 95.6988 329.478 95.3335C329.478 94.9681 329.333 94.6177 329.075 94.3593C328.817 94.1009 328.466 93.9558 328.101 93.9558H277.128C276.762 93.9558 276.412 94.1009 276.153 94.3593C275.895 94.6177 275.75 94.9681 275.75 95.3335C275.75 95.6988 275.895 96.0493 276.153 96.3076C276.412 96.566 276.762 96.7111 277.128 96.7111Z" fill="#090909"/>
<path d="M249.667 115.907H281.628C281.994 115.907 282.344 115.762 282.602 115.503C282.861 115.245 283.006 114.894 283.006 114.529C283.006 114.164 282.861 113.813 282.602 113.555C282.344 113.297 281.994 113.151 281.628 113.151H249.667C249.301 113.151 248.951 113.297 248.693 113.555C248.434 113.813 248.289 114.164 248.289 114.529C248.289 114.894 248.434 115.245 248.693 115.503C248.951 115.762 249.301 115.907 249.667 115.907Z" fill="#090909"/>
<path d="M263.26 121.509H301.467C301.833 121.509 302.183 121.364 302.442 121.105C302.7 120.847 302.845 120.497 302.845 120.131C302.845 119.766 302.7 119.416 302.442 119.157C302.183 118.899 301.833 118.754 301.467 118.754H263.26C262.895 118.754 262.545 118.899 262.286 119.157C262.028 119.416 261.883 119.766 261.883 120.131C261.883 120.497 262.028 120.847 262.286 121.105C262.545 121.364 262.895 121.509 263.26 121.509Z" fill="#090909"/>
<path d="M252.79 134.184C264.362 134.276 276.026 134.368 287.598 134.276C287.964 134.276 288.314 134.131 288.573 133.872C288.831 133.614 288.976 133.264 288.976 132.898C288.976 132.533 288.831 132.182 288.573 131.924C288.314 131.666 287.964 131.521 287.598 131.521C276.026 131.612 264.362 131.521 252.79 131.429C252.424 131.429 252.074 131.574 251.816 131.832C251.557 132.091 251.412 132.441 251.412 132.806C251.412 133.172 251.557 133.522 251.816 133.781C252.074 134.039 252.424 134.184 252.79 134.184Z" fill="#090909"/>
<path d="M280.067 140.705H300.824C301.189 140.705 301.54 140.559 301.798 140.301C302.056 140.043 302.201 139.692 302.201 139.327C302.201 138.961 302.056 138.611 301.798 138.353C301.54 138.094 301.189 137.949 300.824 137.949H280.067C279.702 137.949 279.351 138.094 279.093 138.353C278.835 138.611 278.689 138.961 278.689 139.327C278.689 139.692 278.835 140.043 279.093 140.301C279.351 140.559 279.702 140.705 280.067 140.705Z" fill="#090909"/>
<path d="M304.591 149.889H310.744C312.397 149.889 315.979 149.246 315.704 151.91C315.428 154.573 318.275 153.655 318.459 151.91C318.643 150.165 317.908 147.685 315.428 147.226C312.948 146.766 308.081 147.134 304.591 147.134C304.225 147.134 303.875 147.279 303.616 147.537C303.358 147.796 303.213 148.146 303.213 148.511C303.213 148.877 303.358 149.227 303.616 149.486C303.875 149.744 304.225 149.889 304.591 149.889Z" fill="#090909"/>
<path d="M290.536 150.348H300.363C300.728 150.348 301.079 150.203 301.337 149.945C301.596 149.686 301.741 149.336 301.741 148.97C301.741 148.605 301.596 148.255 301.337 147.996C301.079 147.738 300.728 147.593 300.363 147.593H290.536C290.17 147.593 289.82 147.738 289.562 147.996C289.303 148.255 289.158 148.605 289.158 148.97C289.158 149.336 289.303 149.686 289.562 149.945C289.82 150.203 290.17 150.348 290.536 150.348Z" fill="#090909"/>
<path d="M252.514 166.145H295.956C296.322 166.145 296.672 166 296.931 165.742C297.189 165.484 297.334 165.133 297.334 164.768C297.334 164.402 297.189 164.052 296.931 163.794C296.672 163.535 296.322 163.39 295.956 163.39H252.514C252.149 163.39 251.799 163.535 251.54 163.794C251.282 164.052 251.137 164.402 251.137 164.768C251.137 165.133 251.282 165.484 251.54 165.742C251.799 166 252.149 166.145 252.514 166.145Z" fill="#090909"/>
<path d="M270.425 173.125H300.365C300.731 173.125 301.081 172.98 301.34 172.722C301.598 172.463 301.743 172.113 301.743 171.748C301.743 171.382 301.598 171.032 301.34 170.773C301.081 170.515 300.731 170.37 300.365 170.37H270.425C270.059 170.37 269.709 170.515 269.45 170.773C269.192 171.032 269.047 171.382 269.047 171.748C269.047 172.113 269.192 172.463 269.45 172.722C269.709 172.98 270.059 173.125 270.425 173.125Z" fill="#090909"/>
<path d="M257.932 183.412H273.362C273.727 183.412 274.078 183.267 274.336 183.008C274.595 182.75 274.74 182.4 274.74 182.034C274.74 181.669 274.595 181.318 274.336 181.06C274.078 180.802 273.727 180.656 273.362 180.656H257.932C257.567 180.656 257.217 180.802 256.958 181.06C256.7 181.318 256.555 181.669 256.555 182.034C256.555 182.4 256.7 182.75 256.958 183.008C257.217 183.267 257.567 183.412 257.932 183.412Z" fill="#090909"/>
<path d="M280.893 183.044H297.701C298.066 183.044 298.416 182.899 298.675 182.641C298.933 182.382 299.078 182.032 299.078 181.666C299.078 181.301 298.933 180.951 298.675 180.692C298.416 180.434 298.066 180.289 297.701 180.289H280.893C280.528 180.289 280.177 180.434 279.919 180.692C279.661 180.951 279.516 181.301 279.516 181.666C279.516 182.032 279.661 182.382 279.919 182.641C280.177 182.899 280.528 183.044 280.893 183.044Z" fill="#090909"/>
</svg>
