<svg width="570" height="339" viewBox="0 0 570 339" fill="none" xmlns="http://www.w3.org/2000/svg">
<path d="M57.6326 273.456L39.1258 287.575C38.105 288.351 37.4319 289.499 37.2526 290.769C37.0734 292.038 37.4025 293.327 38.1686 294.356L65.9287 330.651C66.5144 331.418 67.3786 331.924 68.3341 332.058C69.2896 332.192 70.2596 331.945 71.0341 331.369C81.8031 323.153 88.5837 314.298 80.3673 303.529L57.6326 273.456Z" fill="#090909"/>
<path d="M75.0226 328.977C72.6295 324.111 70.6352 317.091 66.5669 313.422C64.4131 311.507 61.2223 310.869 59.6269 308.316C58.0315 305.764 58.51 302.732 57.0742 300.18C56.1749 298.596 54.7704 297.36 53.0856 296.67C49.7353 294.915 48.0601 293.798 46.3849 290.288C44.7097 286.778 42.556 283.188 38.0888 282.71C36.3338 282.55 36.3338 285.262 38.0089 285.422C43.5131 285.98 44.0716 294.037 47.8208 296.989C49.1769 298.026 50.7723 298.425 52.2879 299.222C55.4788 300.977 55.4788 304.407 56.4361 307.518C57.3933 310.63 60.1853 312.225 63.3761 314.379C68.0826 317.729 70.2363 325.307 72.6295 330.333C73.4272 331.849 75.7405 330.572 75.0226 328.977Z" fill="#F5F3F0"/>
<path d="M76.4585 299.142C73.5069 298.294 70.4927 297.68 67.4443 297.307C65.9287 297.148 65.9287 299.541 67.4443 299.701C70.281 300.047 73.0831 300.634 75.8203 301.456C76.127 301.54 76.4549 301.499 76.7316 301.342C77.0084 301.185 77.2114 300.925 77.296 300.618C77.3806 300.311 77.3399 299.983 77.1829 299.707C77.0258 299.43 76.7652 299.227 76.4585 299.142Z" fill="#F5F3F0"/>
<path d="M79.5695 304.487C76.6864 303.654 73.7134 303.172 70.7149 303.051C69.1195 302.971 69.1195 305.364 70.7149 305.444C73.4969 305.577 76.2541 306.032 78.9313 306.8C79.2381 306.885 79.5659 306.844 79.8426 306.687C80.1194 306.53 80.3224 306.269 80.407 305.963C80.4917 305.656 80.451 305.328 80.2939 305.051C80.1368 304.775 79.8763 304.572 79.5695 304.487Z" fill="#F5F3F0"/>
<path d="M231.373 299.302L231.214 322.595C231.214 323.886 231.726 325.123 232.639 326.036C233.552 326.948 234.789 327.461 236.08 327.461L281.709 327.7C282.193 327.711 282.676 327.624 283.126 327.443C283.576 327.263 283.985 326.993 284.328 326.65C284.671 326.307 284.94 325.898 285.121 325.448C285.302 324.998 285.389 324.516 285.378 324.031C285.458 310.55 282.586 299.701 269.025 299.621L231.373 299.302Z" fill="#090909"/>
<path d="M285.936 319.484C280.672 318.367 273.891 315.655 268.467 316.612C265.675 317.171 263.202 319.324 260.17 319.005C257.139 318.686 255.065 316.453 252.193 316.054C250.397 315.8 248.568 316.166 247.008 317.091C243.578 318.686 241.664 319.324 237.835 318.527C234.006 317.729 229.858 317.171 226.747 320.441C225.55 321.717 227.704 323.393 228.9 322.116C232.65 318.128 239.35 322.595 243.977 321.478C245.652 321 246.929 319.963 248.524 319.324C251.795 317.809 254.587 319.883 257.618 321C260.649 322.116 263.601 320.92 267.27 319.803C272.774 318.048 280.113 321 285.617 322.116C287.293 322.515 287.612 319.803 285.936 319.484Z" fill="#F5F3F0"/>
<path d="M263.282 299.94C260.804 301.765 258.483 303.793 256.342 306.003C255.305 307.119 256.98 308.795 258.017 307.678C260.019 305.623 262.179 303.73 264.478 302.014C265.754 301.137 264.558 299.063 263.282 299.94Z" fill="#F5F3F0"/>
<path d="M269.504 300.817C267.019 302.544 264.79 304.612 262.883 306.96C261.925 308.076 263.601 309.831 264.558 308.635C266.346 306.46 268.411 304.529 270.7 302.891C271.897 301.934 270.7 299.86 269.504 300.817Z" fill="#F5F3F0"/>
<path d="M338.825 311.028L337.07 331.529C336.83 333.922 338.904 335.917 341.617 336.076L387.485 338.07C388.397 338.144 389.304 337.873 390.027 337.312C390.75 336.752 391.237 335.941 391.393 335.039C392.43 323.153 390.277 313.501 376.636 312.863" fill="#CBC7DB"/>
<path d="M340.5 318.128C339.144 317.091 337.229 319.085 338.665 320.122C342.255 322.834 344.01 326.424 343.691 330.652C343.611 331.689 344.488 332.327 345.685 332.088C354.141 330.253 362.596 331.37 370.892 332.646C377.035 333.604 384.294 336.156 390.357 333.763C390.674 333.636 390.928 333.388 391.062 333.074C391.197 332.76 391.201 332.405 391.074 332.088C390.948 331.771 390.7 331.517 390.386 331.382C390.071 331.247 389.717 331.243 389.399 331.37C385.092 333.045 380.385 331.609 376.157 330.891C371.929 330.173 368.34 329.615 364.431 329.136C358.526 328.311 352.531 328.365 346.642 329.296C346.483 324.909 344.488 321.08 340.5 318.128Z" fill="#090909"/>
<path d="M369.616 313.74C365.468 314.618 361.32 315.734 358.608 318.766C357.411 320.122 359.645 321.717 360.761 320.441C363.234 317.729 366.984 316.931 370.573 316.133" fill="#090909"/>
<path d="M383.017 313.421C377.354 314.378 371.69 315.575 367.622 319.404C366.266 320.68 368.499 322.276 369.775 321.079C373.365 317.729 378.391 316.771 383.257 315.974" fill="#090909"/>
<path d="M280.831 283.109C280.895 282.958 280.923 282.794 280.911 282.63C281.47 272.317 280.989 261.975 279.475 251.759C278.039 239.713 275.167 228.067 269.743 217.218C259.466 196.64 242.265 180.342 221.163 171.19C219.807 170.632 218.69 172.546 220.046 173.105C240.772 182.101 257.663 198.116 267.749 218.335C267.798 218.372 267.838 218.42 267.866 218.475C267.894 218.531 267.908 218.592 267.908 218.654C263.361 216.021 257.219 216.58 254.347 222.084C250.359 229.582 245.493 236.203 240.866 243.303C239.534 245.351 238.386 247.513 237.436 249.764C234.165 246.414 229.379 245.058 224.912 247.69C224.095 248.209 223.345 248.825 222.678 249.525C222.265 248.1 221.731 246.712 221.083 245.377C218.53 240.351 214.542 236.203 210.154 232.693C200.183 224.716 187.818 220.09 178.964 210.756C178.007 209.64 176.411 211.235 177.369 212.352C184.947 220.329 194.918 224.876 203.852 230.938C208.878 234.209 213.584 238.118 217.015 242.984C218.874 245.725 220.225 248.778 221.003 251.998C219.487 255.029 219.248 258.778 221.322 261.57C221.696 262.111 222.043 262.67 222.359 263.246C222.519 266.197 222.519 269.149 222.598 272.1C222.426 274.411 222.452 276.733 222.678 279.04V280.556C222.838 285.9 222.12 292.043 223.396 297.308C224.194 300.658 226.348 302.333 229.778 302.493C236.399 302.732 243.179 302.493 249.8 302.413C256.421 302.333 265.356 302.493 273.093 302.413C276.284 302.333 280.751 301.615 280.672 297.627C280.684 297.489 280.656 297.35 280.592 297.228C280.751 292.521 280.831 287.815 280.831 283.109ZM276.045 299.94C276.936 299.236 277.715 298.403 278.358 297.467H278.438C278.438 298.823 277.481 299.541 276.045 299.94Z" fill="#CBC7DB"/>
<path d="M233.527 178.369C228.9 175.816 222.997 171.11 217.413 172.386C214.542 173.104 211.989 174.46 209.037 174.939C206.029 175.405 202.977 175.512 199.944 175.258C196.178 174.899 192.445 174.259 188.776 173.344C188.114 172.793 187.314 172.434 186.462 172.307C185.944 171.878 185.348 171.553 184.707 171.349L180.24 170.073C179.6 169.177 178.67 168.529 177.608 168.238C175.374 167.68 172.981 165.127 170.987 163.771L168.035 161.697C167.573 160.375 166.708 159.231 165.562 158.426L164.844 157.948L163.568 155.634C163.222 154.966 162.694 154.409 162.045 154.027C161.395 153.646 160.651 153.457 159.899 153.481L160.617 152.444C161.414 151.247 159.42 150.13 158.622 151.327L156.389 154.677C155.507 155.399 154.866 156.373 154.554 157.469L148.811 165.686C143.865 170.95 139.797 177.093 135.808 183.076L135.01 184.192C127.592 193.685 119.774 202.939 111.637 211.793C103.501 220.648 94.1676 230.3 84.9142 238.915C80.3673 243.223 75.7406 247.53 70.8746 251.439C68.1881 253.611 65.2725 255.484 62.1795 257.023C59.9459 258.06 57.4731 258.938 55.399 260.373C50.9319 263.644 50.6926 267.792 52.4475 271.621C52.734 272.979 53.3098 274.259 54.1358 275.374C54.9617 276.489 56.0184 277.413 57.2338 278.083C58.1343 278.946 59.0939 279.746 60.1055 280.476C62.2593 282.071 64.5727 283.587 66.4074 285.581C67.6529 287.031 68.6015 288.711 69.1994 290.527L69.4386 291.404C69.5982 291.803 69.678 292.202 69.8375 292.601L70.4757 294.914C72.3222 300.08 75.8654 304.467 80.5268 307.358L80.7662 307.518C84.5154 310.071 88.7432 312.224 93.2901 311.507C97.8371 310.789 102.863 306.96 107.011 304.247C117.009 297.866 126.714 291.032 136.127 283.746L142.349 278.88C153.947 269.802 165.051 260.109 175.613 249.844C182.341 243.354 188.63 236.426 194.439 229.103L196.992 226.311C197.145 226.073 197.228 225.797 197.231 225.514L197.79 224.796C199.292 226.131 200.986 227.234 202.815 228.066C205.368 229.183 208.798 228.465 209.516 225.354C209.835 223.759 210.154 222.004 210.473 220.249C211.193 220.717 211.938 221.143 212.707 221.525C214.861 222.323 216.855 222.323 218.77 220.727C220.684 219.132 221.402 216.101 221.242 213.149C223.875 212.91 226.108 211.634 226.906 208.523C227.089 206.925 227.008 205.308 226.667 203.736C227.309 203.763 227.952 203.709 228.581 203.577C233.128 202.619 234.963 198.711 234.325 194.323C234.236 194.011 234.183 193.69 234.165 193.366C235.295 193.324 236.399 193.012 237.384 192.457C238.369 191.902 239.207 191.12 239.829 190.175C243.1 184.751 237.755 180.603 233.527 178.369Z" fill="#CBC7DB"/>
<path d="M378.311 189.218C375.998 181.48 373.604 173.503 368.26 167.201C362.915 160.9 354.539 156.353 348.716 149.732C348.591 149.575 348.423 149.457 348.233 149.394C348.042 149.33 347.837 149.323 347.643 149.374C347.449 149.425 347.273 149.531 347.138 149.679C347.003 149.828 346.914 150.012 346.881 150.21C346.114 150.187 345.359 150.411 344.727 150.848C343.451 151.646 341.537 151.088 340.101 150.848L333.639 150.21C329.571 149.811 325.503 149.492 321.355 149.333C313.218 148.854 305.002 148.774 296.865 149.014C291.042 149.253 291.042 158.267 296.865 158.108C302.688 157.948 309.469 157.948 315.771 158.108C315.522 159.072 315.581 160.09 315.939 161.019C316.296 161.949 316.935 162.743 317.765 163.293C329.651 171.828 345.605 174.142 359.804 171.988C362.596 171.589 363.952 167.6 362.437 165.367L361.001 163.293C362.437 164.489 363.793 165.686 365.069 166.962C371.132 173.264 373.684 181.64 376.157 189.856C376.242 190.142 376.436 190.382 376.698 190.524C376.96 190.666 377.268 190.699 377.553 190.614C377.839 190.53 378.079 190.335 378.221 190.073C378.363 189.811 378.396 189.504 378.311 189.218Z" fill="#090909"/>
<path d="M388.202 315.575L388.92 315.256C394.026 313.182 397.775 308.874 397.695 302.652C397.615 296.43 395.621 288.852 394.584 282.311C392.351 269.069 389.798 255.827 388.442 242.505C387.685 235.486 387.445 228.42 387.724 221.366C387.963 215.463 387.804 209.48 385.012 204.135C383.292 200.978 380.701 198.382 377.547 196.657C374.393 194.931 370.809 194.149 367.223 194.403C359.246 194.962 352.944 199.509 348.317 205.811C346.208 208.765 344.442 211.95 343.052 215.303C342.51 214.97 341.918 214.727 341.297 214.585C339.596 214.179 337.816 214.238 336.146 214.758C334.475 215.277 332.976 216.237 331.805 217.537L327.736 213.229C318.962 203.737 310.586 193.526 301.013 184.831C299.312 183.155 297.02 182.216 294.631 182.216C292.243 182.216 289.951 183.155 288.25 184.831C284.979 188.101 284.66 194.244 288.25 197.594C289.606 198.791 292.557 195.839 293.834 197.116C290.164 195.281 289.686 193.526 286.335 191.133C285.139 190.255 278.917 196.876 280.033 197.754C284.899 201.184 290.962 202.221 295.429 206.13C299.896 210.038 304.443 215.463 309.07 219.93L312.101 222.802L315.93 227.109C319.839 231.257 325.104 235.565 327.497 240.91C325.17 261.35 324.477 281.943 325.423 302.493C325.478 303.301 325.612 304.103 325.822 304.886V305.125C325.809 306.749 326.178 308.352 326.899 309.807C327.619 311.262 328.671 312.527 329.97 313.501C330.413 314.129 331.062 314.581 331.805 314.777L332.443 315.096C335.873 316.612 339.622 316.453 343.292 316.453L364.271 316.612C370.733 316.692 377.433 317.25 383.815 316.532C385.034 316.424 386.238 316.184 387.405 315.814L388.202 315.575ZM342.733 309.034V309.193C342.015 309.672 342.015 309.592 342.733 309.034Z" fill="#090909"/>
<path d="M529.875 106.655C530.02 105.654 529.882 104.631 529.476 103.704C528.674 101.712 527.657 99.8129 526.445 98.0403" fill="#80A5AE"/>
<path d="M354.46 62.223C354.219 62.2325 353.978 62.1872 353.757 62.0904C353.536 61.9937 353.34 61.8482 353.183 61.6646C352.911 61.3459 352.776 60.933 352.805 60.5151C352.835 60.0972 353.028 59.7078 353.343 59.431C357.252 56.0806 357.172 50.8158 357.092 47.3857V46.9868C356.95 41.9091 355.062 37.0355 351.747 33.1864C351.598 33.039 351.48 32.862 351.402 32.6667C351.325 32.4715 351.288 32.2621 351.296 32.0521C351.303 31.842 351.354 31.6358 351.446 31.4466C351.537 31.2574 351.667 31.0893 351.827 30.9529C352.159 30.676 352.585 30.538 353.016 30.5677C353.447 30.5974 353.85 30.7926 354.141 31.1124C357.949 35.5106 360.12 41.0911 360.283 46.907V47.3059C360.363 51.1349 360.442 57.5165 355.497 61.8241C355.198 62.0567 354.837 62.1955 354.46 62.223Z" fill="#090909"/>
<path d="M322.472 61.585V51.9328C322.472 51.6154 322.345 51.3111 322.121 51.0867C321.897 50.8623 321.592 50.7362 321.275 50.7362C320.958 50.7362 320.653 50.8623 320.429 51.0867C320.204 51.3111 320.078 51.6154 320.078 51.9328V61.585C320.078 61.9024 320.204 62.2067 320.429 62.4311C320.653 62.6555 320.958 62.7816 321.275 62.7816C321.592 62.7816 321.897 62.6555 322.121 62.4311C322.345 62.2067 322.472 61.9024 322.472 61.585Z" fill="#090909"/>
<path d="M320.318 55.6021C323.139 55.0527 325.664 53.4927 327.417 51.2147C331.406 45.87 331.087 43.796 334.836 39.967C342.973 31.7506 350.152 35.5796 364.192 25.2892C367.701 22.6567 371.211 19.4659 372.089 14.8392C372.966 10.2125 371.61 6.38354 370.892 6.38354C370.174 6.38354 370.493 7.89917 369.775 9.25527C367.462 13.3236 359.246 13.0843 354.619 13.0843C349.992 13.0843 338.186 13.164 329.97 16.1155C319.281 19.8648 311.064 29.9957 309.868 40.1266C308.99 47.306 311.543 55.2033 312.181 57.038L320.318 55.6021Z" fill="#090909"/>
<path d="M334.916 42.6793C334.866 41.7917 334.527 40.9448 333.95 40.2682C333.374 39.5915 332.592 39.1223 331.723 38.9324C330.855 38.7424 329.948 38.8421 329.141 39.2162C328.335 39.5904 327.673 40.2184 327.258 41.0041C326.305 42.7315 326.048 44.7574 326.54 46.6678C327.098 48.5026 329.491 49.0609 331.246 48.8216C335.394 48.1834 334.278 40.6851 330.05 41.3232C328.295 41.6423 326.939 43.6366 327.816 45.3118C328.693 46.987 330.927 46.0297 331.725 44.6736C332.523 43.3175 333.559 39.8874 331.166 39.7278C330.129 39.6481 329.571 40.4458 329.411 41.403C329.21 43.0168 329.13 44.6433 329.172 46.269C329.18 46.452 329.228 46.6311 329.311 46.7941C329.395 46.9572 329.513 47.1003 329.656 47.2138C329.8 47.3274 329.967 47.4086 330.145 47.452C330.323 47.4954 330.508 47.5001 330.688 47.4656C331.101 47.3147 331.475 47.0708 331.779 46.7527C332.083 46.4345 332.31 46.0507 332.443 45.6308C332.602 44.8331 332.203 43.3175 332.842 42.7591C333.48 42.2007 332.283 40.0469 331.166 41.0839C330.652 41.5721 330.316 42.2177 330.209 42.9187C330.209 43.2377 330.289 44.9926 330.05 45.1522L331.565 46.269V43.7164C331.527 42.9376 331.607 42.1574 331.805 41.403L331.246 42.121L331.565 41.9614H330.927L330.129 41.1636C330.201 41.8534 330.062 42.5488 329.731 43.1579C329.411 43.6365 328.933 43.7163 329.97 43.6365C331.007 43.5568 331.166 43.9556 331.326 44.7533C331.485 45.551 331.326 46.3488 330.448 46.269C329.571 46.1892 328.853 46.1094 328.614 45.1522C328.497 44.0132 328.748 42.8668 329.332 41.8816C329.508 41.5782 329.775 41.3379 330.095 41.1945C330.416 41.0511 330.773 41.0119 331.117 41.0824C331.46 41.1529 331.773 41.3296 332.011 41.5875C332.249 41.8454 332.4 42.1715 332.443 42.5198C332.602 44.0355 334.995 44.0355 334.836 42.5198L334.916 42.6793Z" fill="#F5F3F0"/>
<path d="M354.858 59.112C353.422 59.83 352.465 61.0265 351.109 61.8243C348.9 63.132 346.309 63.6391 343.77 63.2602C339.542 62.7018 336.112 60.2288 333.24 57.1975C332.203 56.0807 330.528 57.756 331.565 58.8728C334.756 62.3029 338.745 65.0949 343.451 65.6533C345.626 65.9202 347.832 65.7022 349.912 65.0151C352.306 64.2174 353.821 62.3826 356.055 61.186C358.288 59.9895 356.214 58.3941 354.858 59.112Z" fill="#090909"/>
<path d="M546.946 132.661L526.046 2.71417C526.22 2.42635 526.304 2.09274 526.286 1.75686C526.245 1.26316 526.014 0.804505 525.642 0.477241C525.271 0.149977 524.786 -0.0203756 524.291 0.00194661L385.092 9.01608L384.374 9.25533C383.986 9.3416 383.645 9.56917 383.416 9.89354C383.119 10.2887 382.987 10.7833 383.046 11.2739C383.106 11.7646 383.353 12.2132 383.735 12.5259L445.637 59.83L359.485 167.042C357.008 170.09 353.475 172.094 349.587 172.656C345.7 173.217 341.744 172.295 338.505 170.073L293.275 138.883C291.602 137.712 289.713 136.885 287.719 136.448C285.724 136.011 283.662 135.973 281.653 136.336C279.643 136.699 277.725 137.457 276.01 138.565C274.294 139.673 272.815 141.109 271.657 142.792L269.025 146.621C268.794 146.899 268.58 147.192 268.387 147.498L142.588 303.849C140.005 307.078 138.806 311.2 139.254 315.311C139.703 319.423 141.762 323.189 144.982 325.786L156.468 335.039C159.698 337.623 163.82 338.821 167.931 338.373C172.043 337.924 175.809 335.865 178.405 332.646L281.709 204.135C284.186 201.087 287.719 199.083 291.606 198.522C295.494 197.96 299.45 198.882 302.688 201.104L349.434 233.411C352.833 235.758 357.024 236.664 361.089 235.932C365.154 235.2 368.765 232.888 371.132 229.502L388.362 204.534H388.282L482.093 87.7498L544.633 135.692C544.994 135.909 545.409 136.02 545.83 136.011C546.119 136.009 546.405 135.943 546.667 135.819C546.928 135.695 547.16 135.516 547.345 135.293C547.615 134.882 547.723 134.386 547.649 133.901C547.576 133.415 547.325 132.973 546.946 132.661Z" fill="#80A5AE"/>
<path d="M414.048 96.3651C408.464 101.949 402.162 106.336 395.621 110.724C389.08 115.111 382.778 118.94 375.838 121.972C360.363 128.832 342.972 128.433 326.38 129.47C324.864 129.55 324.864 131.943 326.38 131.863C342.972 130.826 360.283 131.225 375.758 124.604C383.177 121.493 390.117 117.185 396.818 112.798C403.519 108.41 409.98 103.784 415.723 98.0403C416.84 96.9235 415.085 95.2483 414.048 96.3651Z" fill="#090909"/>
<path d="M319.999 62.4623C320.078 65.6531 319.36 69.0832 321.993 71.5561C324.625 74.029 330.05 75.3054 333.799 76.1828C337.548 77.0603 343.371 78.2569 347.918 80.0916C352.465 81.9263 356.693 83.6015 361.639 83.0431C371.211 82.0061 380.704 78.9748 390.117 77.14C399.53 75.3053 410.698 73.6302 421.148 73.3909C421.465 73.3909 421.77 73.2648 421.994 73.0404C422.218 72.816 422.344 72.5116 422.344 72.1943C422.344 71.8769 422.218 71.5726 421.994 71.3482C421.77 71.1238 421.465 70.9977 421.148 70.9977C404.077 71.3168 387.245 75.1459 370.653 78.8153C366.026 79.8523 361.16 81.3679 356.454 80.5702C351.747 79.7725 347.839 77.2997 343.451 76.0233C339.064 74.747 334.836 74.1886 330.608 72.9123C328.614 72.2741 326.221 71.6359 324.466 70.3595C322.711 69.0832 322.471 65.3341 322.392 62.4623C322.312 60.8669 319.919 60.8669 319.999 62.4623Z" fill="#090909"/>
<path d="M351.428 78.895C349.035 74.4279 349.833 69.2428 349.594 64.4566C349.514 62.8612 347.121 62.8612 347.2 64.4566C347.52 69.7214 346.722 75.2256 349.354 80.0916C350.072 81.4477 352.146 80.2511 351.428 78.895Z" fill="#090909"/>
<path d="M348.716 74.9866C363.553 70.9981 378.391 67.0095 393.148 62.6221L403.439 59.5111C406.789 58.474 410.538 57.7561 413.649 56.1607C414.456 55.8167 415.179 55.3041 415.77 54.6574C416.362 54.0108 416.808 53.2449 417.08 52.4114C418.436 48.8218 419.074 44.7535 420.031 41.084C420.43 39.6482 418.117 39.01 417.718 40.4458C416.92 43.7164 416.441 47.705 415.085 50.7363C413.729 53.7676 409.342 55.1237 405.752 56.2405C399.45 58.3145 393.069 60.229 386.607 62.0638C373.844 65.813 360.921 69.2431 348.078 72.753C347.896 72.7594 347.719 72.8071 347.558 72.8924C347.398 72.9777 347.259 73.0984 347.152 73.2453C347.046 73.3922 346.974 73.5615 346.942 73.7404C346.91 73.9192 346.92 74.1029 346.97 74.2775C347.02 74.4521 347.109 74.6132 347.23 74.7483C347.351 74.8834 347.502 74.9892 347.67 75.0575C347.838 75.1258 348.02 75.155 348.201 75.1427C348.382 75.1304 348.559 75.077 348.716 74.9866Z" fill="#090909"/>
<path d="M206.325 122.609C206.485 127.954 210.154 132.581 213.824 136.49C218.731 141.623 224.098 146.295 229.858 150.449C232.663 152.635 235.783 154.383 239.111 155.635C242.253 156.539 245.495 157.048 248.763 157.15C253.948 157.549 259.213 157.868 264.159 156.592C271.259 154.837 277.082 150.051 282.347 145.025C294.073 133.857 304.204 121.174 314.335 108.41C316.09 106.177 317.925 103.863 318.962 101.151" fill="#F5F3F0"/>
<path d="M205.129 122.61C205.607 128.513 209.037 133.139 212.946 137.287C217.596 142.19 222.668 146.675 228.103 150.689C233.208 154.438 238.234 157.15 244.535 157.948C250.837 158.746 258.096 159.384 264.478 157.788C276.763 154.677 286.335 143.27 294.472 134.256C299.418 128.752 304.124 123.088 308.751 117.345C313.378 111.601 317.605 107.453 320.078 101.47C320.637 100.034 318.323 99.4761 317.765 100.832C315.292 106.815 310.107 111.841 306.119 116.786C302.13 121.732 298.62 125.96 294.711 130.347C287.213 138.883 278.837 149.014 268.387 153.88C262.564 156.512 256.421 156.432 250.199 156.033C243.977 155.635 237.436 154.279 231.533 150.21C226.588 146.754 221.944 142.884 217.653 138.644C213.106 134.256 208.08 129.31 207.522 122.61C207.362 121.094 204.969 121.094 205.129 122.61Z" fill="#090909"/>
<path d="M289.287 89.5846C278.199 94.0517 269.424 101.949 259.293 107.932C254.195 110.859 248.95 113.522 243.578 115.909C238.449 118.227 233.691 121.291 229.459 125.003C228.262 126.04 229.937 127.715 231.134 126.758C239.829 119.259 250.678 115.749 260.49 110.006C270.301 104.262 279.076 96.2852 289.925 91.8978C291.361 91.3395 290.723 89.0262 289.287 89.5846Z" fill="#090909"/>
<path d="M213.425 65.2545C208.399 74.5877 218.131 81.9265 224.672 87.0318C234.006 94.2112 244.216 101.55 248.045 113.356C248.524 114.792 250.837 114.234 250.359 112.718C247.487 103.864 241.185 97.1627 234.085 91.3395C226.986 85.5162 209.915 76.8213 215.499 66.4511C216.217 65.095 214.143 63.8984 213.425 65.2545Z" fill="#090909"/>
<path d="M213.983 134.894C214.621 128.592 221.083 121.573 225.71 117.664C230.336 113.755 238.313 109.926 244.775 107.294C246.131 106.656 245.572 104.342 244.137 104.98C236.957 107.932 228.741 111.362 223.077 116.786C217.413 122.211 212.228 127.954 211.59 134.894C211.431 136.41 213.824 136.41 213.983 134.894Z" fill="#090909"/>
<path d="M231.134 70.9981C227.943 77.5393 228.9 84.4794 231.373 91.1801C231.932 92.5362 234.245 91.9778 233.687 90.5419C231.453 84.4793 230.256 78.1774 233.208 72.1946C233.846 70.8385 231.772 69.5622 231.134 70.9981Z" fill="#090909"/>
<path d="M206.006 15.3976L206.963 15.9559L206.006 15.3976Z" fill="#090909"/>
<path d="M226.747 35.4201H225.789C225.789 35.2606 225.869 35.1808 225.869 35.0212L226.747 35.4201Z" fill="#090909"/>
<path d="M223.157 69.7215C226.428 71.7955 232.969 74.747 236.558 71.7955C240.148 68.844 241.983 62.1432 241.903 56.6391C241.903 56.3217 241.777 56.0174 241.553 55.793C241.328 55.5686 241.024 55.4425 240.707 55.4425C240.389 55.4425 240.085 55.5686 239.86 55.793C239.636 56.0174 239.51 56.3217 239.51 56.6391C239.51 60.7074 239.271 64.4566 236.798 67.807C234.325 71.1573 228.103 70.0406 224.354 67.6475C224.078 67.4888 223.752 67.4458 223.445 67.5281C223.138 67.6103 222.877 67.8111 222.718 68.0861C222.559 68.3612 222.517 68.688 222.599 68.9947C222.681 69.3013 222.882 69.5628 223.157 69.7215Z" fill="#090909"/>
<path d="M233.288 35.101C232.061 34.436 230.745 33.9523 229.379 33.6651C225.311 32.1495 221.482 31.1125 216.935 31.5113C215.02 29.1182 215.579 23.3747 214.542 20.9018C213.507 18.2966 211.767 16.0315 209.516 14.3606C206.98 12.6614 204.087 11.5695 201.06 11.1698C198.827 10.8507 195.397 10.1328 193.323 11.2495C191.249 12.3663 191.249 13.8022 191.089 15.6369C190.451 20.3434 188.856 23.4545 184.468 25.7679C181.277 27.5228 177.688 28.3205 174.257 29.5968C170.717 30.8815 167.299 32.4834 164.047 34.3831C159.58 36.9357 154.155 40.5255 153.597 46.1094C153.038 51.6934 159.899 55.5223 160.856 61.0265C161.813 66.5307 160.058 70.9979 159.58 76.0235C159.101 81.049 158.303 85.2768 159.34 89.4249C161.095 96.2054 167.317 102.268 172.822 106.177C170.827 110.564 169.232 115.111 167.636 119.658C166.041 124.205 163.887 130.587 161.973 136.011C160.058 141.435 158.064 146.062 157.904 151.487C157.904 152.922 160.138 152.922 160.218 151.487C160.298 146.142 162.611 140.957 164.366 136.011L169.631 120.855C172.343 113.117 174.975 105.14 179.682 98.2794C183.989 92.0873 188.935 86.3655 194.44 81.2086C199.864 76.0235 206.006 70.8384 213.265 68.4452C213.456 68.3739 213.626 68.2551 213.758 68.1C213.89 67.945 213.98 67.7587 214.02 67.559C214.06 67.3593 214.048 67.1528 213.986 66.9589C213.924 66.765 213.813 66.5902 213.664 66.451H213.824C212.393 59.9472 213.179 53.1516 216.057 47.1464C217.413 44.4342 219.168 41.722 221.721 39.8873C224.274 38.0525 228.661 38.0525 232.49 37.6536C233.472 38.233 234.36 38.9594 235.123 39.8075C240.148 45.1522 239.909 53.0494 239.67 59.9097C239.59 61.5849 242.222 61.5849 242.222 59.9097C242.541 51.1349 242.222 39.8873 233.288 35.101ZM173.779 104.103L173.38 103.863L173.938 103.704C173.933 103.851 173.877 103.992 173.779 104.103ZM212.149 66.451C212.149 66.3712 212.228 66.3711 212.228 66.2914H212.149V66.451Z" fill="#090909"/>
<path d="M217.413 50.3373C215.978 49.1407 214.382 47.9442 212.468 48.343C210.553 48.7419 209.915 50.3373 209.835 52.172C209.755 54.0068 210.314 55.7617 212.069 56.3998C213.824 57.038 215.579 55.6021 216.376 54.0067C217.174 52.4113 217.812 50.6564 216.137 49.6992C215.393 49.3322 214.551 49.2116 213.733 49.355C212.916 49.4985 212.165 49.8984 211.59 50.4969C210.713 51.7732 210.952 53.7674 212.468 54.3258C212.776 54.4556 213.111 54.5089 213.444 54.4811C213.778 54.4533 214.1 54.3453 214.382 54.1663C214.699 53.9819 214.95 53.7029 215.1 53.3686L215.339 52.9697C215.419 52.5709 215.419 52.5709 215.18 52.9697L213.505 52.2518C214.223 54.3258 213.904 56.5594 214.462 58.7132C215.02 60.867 216.935 59.511 216.616 58.0751C216.297 56.6392 216.456 53.7675 215.659 51.6934C215.617 51.5304 215.54 51.3787 215.432 51.2498C215.323 51.1209 215.188 51.0181 215.034 50.9491C214.881 50.8801 214.714 50.8466 214.546 50.8511C214.377 50.8557 214.213 50.8982 214.063 50.9755C213.824 51.135 213.026 51.6934 213.186 52.0124C213.374 51.8341 213.604 51.7046 213.854 51.6351C214.104 51.5656 214.368 51.5582 214.621 51.6136C215.02 51.6136 215.1 51.6934 214.781 51.9327C214.736 52.4931 214.512 53.0242 214.143 53.4483C213.904 53.927 213.584 53.9269 213.026 53.6078C212.468 53.2888 211.989 53.4483 212.149 52.7304C212.076 52.4578 212.066 52.1721 212.122 51.8954C212.177 51.6187 212.295 51.3585 212.468 51.135C213.026 50.417 213.505 50.417 214.302 50.8159C214.84 51.1425 215.347 51.5162 215.818 51.9327C216.855 52.8899 218.45 51.2945 217.413 50.3373Z" fill="#F5F3F0"/>
<path d="M217.778 68.3687C218.518 67.6764 216.849 64.69 214.049 61.6983C211.25 58.7067 208.38 56.8428 207.64 57.5351C206.901 58.2275 208.57 61.2139 211.37 64.2055C214.169 67.1972 217.039 69.0611 217.778 68.3687Z" fill="#CBC7DB"/>
<path d="M217.334 68.8442C216.529 68.7364 215.763 68.4352 215.1 67.9667C213.589 66.9587 212.22 65.7512 211.032 64.377C208.479 61.6648 206.166 58.2346 207.362 57.1976C208.559 56.1606 211.75 58.5538 214.302 61.3458C215.575 62.6038 216.675 64.0255 217.573 65.5735C218.371 67.0892 218.53 68.0465 218.052 68.6049L217.334 68.8442ZM208.08 57.6763H207.841C207.522 57.9954 208.479 60.4683 211.59 63.8186C212.764 65.0774 214.075 66.2011 215.499 67.169C216.855 68.0464 217.413 67.9667 217.493 67.8869C217.573 67.8071 217.653 67.3285 216.855 65.8926C216.012 64.3983 214.965 63.029 213.744 61.8244C210.952 58.9526 208.798 57.6763 208.08 57.6763Z" fill="#CBC7DB"/>
<path d="M214.781 68.2058C215.02 76.2627 221.482 81.1287 228.581 83.3623C231.533 84.2398 232.809 79.613 229.858 78.7355C224.912 77.2199 219.727 73.9493 219.567 68.2058C219.408 65.1746 214.621 65.1746 214.781 68.2058Z" fill="#CBC7DB"/>
<path d="M169.631 140.638C169.391 142.792 169.072 145.105 170.428 146.94C171.784 148.775 174.497 149.652 176.651 150.131C178.804 150.609 181.836 151.327 183.83 150.37C185.824 149.413 185.665 147.02 185.824 145.265C186.383 140.399 185.106 136.57 179.841 135.772C175.773 135.213 169.152 135.373 169.152 140.957C169.152 141.274 169.278 141.579 169.502 141.803C169.727 142.027 170.031 142.154 170.349 142.154C170.666 142.154 170.97 142.027 171.195 141.803C171.419 141.579 171.545 141.274 171.545 140.957C171.545 137.128 177.847 137.686 180.32 138.325C182.793 138.963 183.75 141.835 183.511 144.786L183.351 146.541C183.032 147.977 182.234 148.615 181.038 148.296C179.841 147.977 178.406 148.057 177.289 147.817C175.847 147.629 174.461 147.14 173.22 146.381C171.465 144.946 171.705 143.191 171.944 141.276C172.183 139.362 169.87 139.122 169.631 140.638Z" fill="#80A5AE"/>
<path d="M188.616 111.521C186.063 113.037 185.585 116.866 186.861 119.419C188.138 121.971 192.286 123.008 195.237 122.609C198.189 122.211 200.901 119.817 199.944 116.627C198.986 113.436 194.2 112 191.089 110.883C189.653 110.325 189.015 112.638 190.451 113.197C191.887 113.755 193.881 114.313 195.476 115.111C197.072 115.909 197.55 116.387 197.71 117.584C197.87 118.78 196.593 119.977 195.397 120.216C193.645 120.573 191.824 120.349 190.212 119.578C188.297 118.541 187.818 114.792 189.813 113.595C189.949 113.517 190.068 113.412 190.164 113.287C190.26 113.163 190.33 113.02 190.371 112.869C190.411 112.717 190.422 112.558 190.401 112.402C190.381 112.247 190.33 112.096 190.251 111.96C190.173 111.824 190.068 111.704 189.944 111.609C189.819 111.513 189.676 111.443 189.525 111.402C189.373 111.361 189.214 111.351 189.058 111.371C188.903 111.392 188.752 111.443 188.616 111.521Z" fill="#80A5AE"/>
<path d="M186.941 91.8181C186.631 92.2863 186.437 92.8221 186.377 93.3805C186.316 93.939 186.391 94.5038 186.594 95.0274C186.797 95.5511 187.123 96.0184 187.545 96.3899C187.966 96.7615 188.47 97.0266 189.015 97.1628C191.328 97.801 193.003 95.9663 193.881 93.972C194.393 93.0206 194.562 91.9221 194.36 90.8609C194.137 90.3855 193.804 89.9706 193.387 89.6513C192.971 89.3319 192.483 89.1175 191.966 89.0261C189.573 88.4677 186.622 88.8666 186.383 91.8181C186.223 93.3338 188.616 93.3338 188.776 91.8181C188.935 90.3025 191.009 91.2597 191.647 91.4193C192.286 91.5788 192.126 91.7383 191.966 92.2967C191.812 92.6338 191.679 92.9802 191.568 93.3338C191.249 94.0517 190.77 94.8494 189.972 94.9292C189.175 95.009 188.536 93.8921 189.015 93.0944C189.184 92.8194 189.237 92.4884 189.163 92.1742C189.088 91.8601 188.891 91.5885 188.616 91.4193C188.341 91.25 188.01 91.1969 187.696 91.2717C187.382 91.3465 187.11 91.5431 186.941 91.8181Z" fill="#80A5AE"/>
<path d="M196.194 164.25C194.36 166.084 193.722 168.717 195.237 171.03C195.993 172.084 197.07 172.864 198.308 173.253C199.545 173.641 200.875 173.617 202.098 173.184C204.57 172.306 204.73 169.355 203.773 167.281C203.255 166.137 202.411 165.171 201.347 164.504C200.283 163.837 199.045 163.499 197.79 163.532C196.194 163.612 196.194 166.005 197.79 165.925C198.392 165.877 198.996 165.976 199.551 166.212C200.107 166.448 200.597 166.815 200.981 167.281C201.778 168.238 202.736 170.472 201.06 171.03C200.36 171.229 199.616 171.205 198.93 170.962C198.244 170.719 197.65 170.269 197.232 169.674C196.354 168.318 196.833 166.962 197.949 165.925C198.172 165.692 198.292 165.381 198.285 165.059C198.277 164.737 198.142 164.432 197.91 164.21C197.677 163.988 197.365 163.867 197.044 163.875C196.722 163.882 196.417 164.017 196.194 164.25Z" fill="#80A5AE"/>
<path d="M223.316 96.2055C220.524 96.1257 219.248 98.0402 219.328 100.673C219.408 103.305 221.561 104.901 224.194 105.14C225.388 105.228 226.568 104.842 227.479 104.066C228.39 103.289 228.958 102.184 229.06 100.992C229.06 98.1997 225.949 96.2853 223.476 96.1257C223.159 96.1257 222.854 96.2518 222.63 96.4762C222.405 96.7006 222.279 97.0049 222.279 97.3223C222.279 97.6396 222.405 97.944 222.63 98.1684C222.854 98.3928 223.159 98.5188 223.476 98.5188C224.513 98.5986 226.428 99.3963 226.587 100.673C226.747 101.949 225.311 102.826 224.194 102.747C223.077 102.667 221.801 102.108 221.721 100.673C221.705 100.246 221.732 99.8181 221.801 99.3963C222.12 98.5986 222.519 98.5986 223.316 98.5986C224.114 98.5986 224.832 96.2853 223.316 96.2055Z" fill="#80A5AE"/>
<path d="M358.767 304.806C361.878 304.806 361.878 300.02 358.767 300.02C355.656 300.02 355.656 304.806 358.767 304.806Z" fill="#090909"/>
<path d="M349.274 130.188C348.477 136.49 347.519 142.792 346.482 149.014C346.243 150.529 348.556 151.167 348.796 149.652C349.913 143.19 350.87 136.729 351.668 130.188C351.827 128.672 349.434 128.672 349.274 130.188Z" fill="#090909"/>
<path d="M270.142 302.652C283.942 302.652 284.022 281.114 270.142 281.114C256.262 281.114 256.262 302.652 270.142 302.652Z" fill="#CBC7DB"/>
<path d="M211.59 188.022C211.907 188.022 212.212 187.896 212.436 187.671C212.661 187.447 212.787 187.143 212.787 186.825C212.787 186.508 212.661 186.204 212.436 185.979C212.212 185.755 211.907 185.629 211.59 185.629C211.273 185.629 210.968 185.755 210.744 185.979C210.52 186.204 210.394 186.508 210.394 186.825C210.394 187.143 210.52 187.447 210.744 187.671C210.968 187.896 211.273 188.022 211.59 188.022Z" fill="#CBC7DB"/>
<path d="M227.305 149.253C226.108 153.162 224.752 156.991 223.316 160.82C221.881 164.649 220.923 168.797 218.371 171.27C215.818 173.743 209.436 173.663 205.687 173.583C202.23 173.531 198.785 173.157 195.397 172.466C188.446 171.121 181.798 168.527 175.773 164.809C172.754 162.88 169.993 160.574 167.557 157.948C165.243 155.715 161.414 153.561 160.537 150.37C160.452 150.063 160.249 149.803 159.972 149.646C159.696 149.488 159.368 149.448 159.061 149.532C158.754 149.617 158.494 149.82 158.337 150.097C158.18 150.374 158.139 150.701 158.224 151.008C159.021 154.119 161.494 155.555 163.728 157.629C165.961 159.703 169.71 163.692 173.46 166.165C180.712 170.839 188.865 173.937 197.391 175.258C201.478 175.91 205.623 176.124 209.755 175.897C212.787 175.737 216.536 175.737 219.089 173.823C221.641 171.908 222.918 167.999 224.194 164.968C226.188 160.022 228.023 154.997 229.618 149.891C230.097 148.456 227.784 147.817 227.305 149.253Z" fill="#090909"/>
<path d="M157.745 176.934C155.91 188.022 165.323 198.392 172.502 205.89C176.61 210.144 181.095 214.016 185.904 217.457C190.85 221.047 197.311 223.679 200.023 229.423C200.741 230.779 202.815 229.582 202.097 228.146C200.183 224.158 196.673 221.685 193.083 219.372C188.062 216.304 183.336 212.779 178.964 208.842C174.721 205.013 170.849 200.793 167.397 196.238C163.329 190.894 158.862 184.592 160.058 177.572C160.297 176.056 158.064 175.418 157.745 176.934Z" fill="#090909"/>
<path d="M270.621 216.739C261.128 225.833 254.826 237.559 246.051 247.291C241.584 252.237 236.239 256.385 231.852 261.411C227.567 266.5 223.572 271.826 219.886 277.365C219.009 278.641 221.083 279.838 221.96 278.641C225.869 272.898 229.778 267.234 234.484 262.129C239.191 257.023 244.216 252.955 248.604 247.93C256.98 238.437 263.122 227.269 272.375 218.494C273.492 217.377 271.737 215.702 270.621 216.739Z" fill="#090909"/>
<path d="M238.393 181.241L205.607 224.477L189.733 245.456C184.149 252.795 178.804 260.533 172.343 267.154C171.226 268.191 172.901 269.946 174.018 268.829C179.921 262.767 184.787 255.827 189.813 249.206L206.724 226.95L240.467 182.517C241.345 181.241 239.271 180.044 238.393 181.241Z" fill="#090909"/>
<path d="M213.026 283.347L202.018 296.35C200.981 297.547 202.656 299.222 203.693 298.105L214.701 285.102C215.738 283.906 214.063 282.23 213.026 283.347Z" fill="#090909"/>
<path d="M168.673 270.504C165.722 273.456 163.089 276.806 160.297 279.917C159.34 281.034 161.015 282.709 161.973 281.593C164.765 278.482 167.397 275.131 170.349 272.259C170.581 272.037 170.716 271.732 170.724 271.41C170.731 271.088 170.611 270.777 170.389 270.544C170.166 270.312 169.861 270.177 169.539 270.169C169.218 270.162 168.906 270.282 168.673 270.504Z" fill="#090909"/>
<path d="M272.136 100.034C271.349 103.754 271.444 107.607 272.414 111.283C273.385 114.959 275.203 118.357 277.724 121.203C280.245 124.049 283.398 126.266 286.929 127.673C290.461 129.081 294.274 129.642 298.062 129.31C299.577 129.151 299.577 126.758 298.062 126.917C294.643 127.249 291.195 126.775 287.993 125.531C284.792 124.287 281.927 122.309 279.63 119.755C277.333 117.202 275.668 114.145 274.768 110.831C273.868 107.516 273.759 104.037 274.449 100.672C274.769 99.1568 272.455 98.5187 272.136 100.034Z" fill="#80A5AE"/>
<path d="M400.806 74.1089C400.408 83.3623 406.63 90.9405 412.692 97.4817C413.729 98.5985 415.404 96.8436 414.367 95.7268C408.863 89.8237 402.801 82.5646 403.2 74.1089C403.279 72.5933 400.886 72.5933 400.806 74.1089Z" fill="#090909"/>
<path d="M381.342 78.0976C379.667 84.24 381.821 89.3453 385.012 94.6102C388.202 99.875 391.952 105.778 396.738 110.325C397.855 111.442 399.53 109.687 398.413 108.65C394.425 104.821 391.393 100.354 388.522 95.727C385.65 91.1003 381.901 85.1972 383.656 78.7358C383.698 78.5839 383.709 78.4252 383.69 78.2688C383.67 78.1125 383.62 77.9614 383.542 77.8244C383.465 77.6874 383.361 77.567 383.236 77.4702C383.112 77.3733 382.97 77.3019 382.818 77.26C382.666 77.2181 382.507 77.2065 382.351 77.2259C382.195 77.2454 382.044 77.2954 381.907 77.3732C381.77 77.4509 381.649 77.555 381.552 77.6793C381.456 77.8036 381.384 77.9458 381.342 78.0976Z" fill="#090909"/>
<path d="M408.145 57.3572C410.06 62.1435 410.778 67.5679 412.453 72.5137C412.931 74.0293 415.245 73.3911 414.766 71.9552C413.091 66.9297 412.373 61.5053 410.459 56.719C409.9 55.2832 407.587 55.9214 408.145 57.3572Z" fill="#090909"/>
<path d="M390.356 61.8242C390.356 66.2914 391.792 70.3598 393.468 74.4281C394.026 75.7842 396.339 75.2257 395.781 73.7899C394.185 69.8811 392.75 66.0521 392.75 61.8242C392.75 61.5069 392.624 61.2025 392.399 60.9781C392.175 60.7537 391.87 60.6277 391.553 60.6277C391.236 60.6277 390.931 60.7537 390.707 60.9781C390.483 61.2025 390.356 61.5069 390.356 61.8242Z" fill="#090909"/>
<path d="M397.296 91.0205C400.328 91.0205 400.328 86.2343 397.296 86.2343C394.265 86.2343 394.185 91.0205 397.296 91.0205Z" fill="#80A5AE"/>
<path d="M379.428 301.775C376.96 292.441 375.991 282.775 376.556 273.137C376.716 271.622 374.323 271.622 374.163 273.137C373.585 282.991 374.581 292.873 377.115 302.413C377.199 302.72 377.402 302.98 377.679 303.138C377.956 303.295 378.284 303.335 378.59 303.251C378.897 303.166 379.158 302.963 379.315 302.686C379.472 302.41 379.512 302.082 379.428 301.775Z" fill="#F5F3F0"/>
<path d="M366.824 235.007C369.616 242.106 369.536 250.243 370.174 257.741C370.334 259.257 372.727 259.257 372.567 257.741C371.929 250.003 372.009 241.628 369.137 234.368C368.579 233.012 366.266 233.571 366.824 235.007Z" fill="#F5F3F0"/>
<path d="M336.671 306.003C342.973 305.205 349.115 307.917 355.497 306.801C357.012 306.482 356.374 304.168 354.858 304.487C348.716 305.524 342.813 302.892 336.671 303.61C335.155 303.769 335.155 306.162 336.671 306.003Z" fill="#F5F3F0"/>
<path d="M361.719 306.88C363.083 307.453 364.547 307.751 366.026 307.758C366.344 307.758 366.648 307.631 366.872 307.407C367.097 307.183 367.223 306.878 367.223 306.561C367.223 306.244 367.097 305.939 366.872 305.715C366.648 305.49 366.344 305.364 366.026 305.364C364.963 305.379 363.907 305.19 362.915 304.806C362.633 304.668 362.312 304.633 362.006 304.705C361.701 304.778 361.43 304.955 361.24 305.205C361.156 305.345 361.102 305.501 361.081 305.663C361.06 305.824 361.073 305.989 361.117 306.146C361.162 306.303 361.239 306.449 361.342 306.575C361.445 306.701 361.574 306.805 361.719 306.88Z" fill="#F5F3F0"/>
<path d="M269.105 292.92C264.638 283.507 264.319 273.217 263.92 263.006C263.76 258.459 263.601 253.832 263.122 249.285C262.643 244.739 262.245 241.069 260.011 237.798C259.133 236.522 257.059 237.719 257.937 238.995C260.729 243.143 260.809 249.206 261.128 254.072C261.447 258.938 261.527 263.724 261.766 268.51C262.165 277.365 263.202 286.06 267.031 294.117C267.669 295.473 269.743 294.276 269.105 292.92Z" fill="#F5F3F0"/>
<path d="M207.282 190.255C212.689 192.015 217.839 194.483 222.598 197.594C222.735 197.672 222.885 197.723 223.041 197.744C223.197 197.764 223.355 197.754 223.507 197.713C223.659 197.672 223.801 197.602 223.926 197.506C224.051 197.411 224.155 197.291 224.234 197.155C224.312 197.019 224.363 196.869 224.384 196.713C224.404 196.557 224.394 196.398 224.353 196.247C224.312 196.095 224.242 195.952 224.146 195.828C224.051 195.703 223.931 195.598 223.795 195.52C218.856 192.313 213.52 189.765 207.921 187.942C206.485 187.463 205.847 189.776 207.282 190.255Z" fill="#F5F3F0"/>
<path d="M89.6207 297.547C105.331 288.621 120.109 278.146 133.734 266.277C148.172 253.833 160.856 239.633 172.821 224.876C173.779 223.679 172.104 222.004 171.146 223.201C159.42 237.639 147.135 251.439 133.096 263.724C119.301 275.77 104.336 286.405 88.4241 295.473C88.1491 295.632 87.9483 295.893 87.866 296.2C87.7838 296.506 87.8267 296.833 87.9853 297.108C88.144 297.383 88.4055 297.584 88.7121 297.666C89.0188 297.749 89.3456 297.706 89.6207 297.547Z" fill="#F5F3F0"/>
<path d="M426.253 47.8643C426.571 47.8643 426.875 47.7382 427.1 47.5139C427.324 47.2895 427.45 46.9851 427.45 46.6677C427.45 46.3504 427.324 46.046 427.1 45.8216C426.875 45.5972 426.571 45.4712 426.253 45.4712C425.936 45.4712 425.632 45.5972 425.407 45.8216C425.183 46.046 425.057 46.3504 425.057 46.6677C425.057 46.9851 425.183 47.2895 425.407 47.5139C425.632 47.7382 425.936 47.8643 426.253 47.8643Z" fill="#F5F3F0"/>
<path d="M513.602 18.4292C515.517 32.5486 517.91 46.5086 520.781 60.4684C521.101 61.9841 523.414 61.3459 523.095 59.8302C520.223 45.8703 517.83 31.9105 515.915 17.7911C515.676 16.2754 513.363 16.9136 513.602 18.4292Z" fill="#F5F3F0"/>
<path d="M524.371 76.0235C524.02 79.5595 524.569 83.127 525.967 86.3938C526.605 87.8296 528.679 86.5533 528.041 85.1972C526.868 82.2907 526.429 79.1398 526.765 76.0235C526.924 74.4281 524.531 74.5079 524.371 76.0235Z" fill="#F5F3F0"/>
<path d="M464.463 88.3077C451.987 107.177 437.894 124.926 422.344 141.355C421.307 142.472 422.983 144.147 424.02 143.031C439.894 126.518 453.774 108.49 466.537 89.5043C467.335 88.228 465.261 87.0314 464.463 88.3077Z" fill="#F5F3F0"/>
<path d="M344.328 209.56C348.955 213.07 354.3 216.34 360.283 214.107C366.265 211.873 369.376 206.688 374.242 203.577C374.379 203.499 374.498 203.394 374.594 203.269C374.689 203.145 374.76 203.002 374.8 202.85C374.841 202.699 374.852 202.54 374.831 202.384C374.811 202.228 374.76 202.078 374.681 201.942C374.603 201.806 374.498 201.686 374.373 201.59C374.249 201.495 374.106 201.425 373.954 201.384C373.803 201.343 373.644 201.333 373.488 201.353C373.332 201.374 373.182 201.424 373.046 201.503C369.137 203.976 366.186 207.645 362.357 210.278C356.294 214.506 350.79 211.395 345.525 207.486C344.249 206.529 343.052 208.682 344.328 209.56Z" fill="#F5F3F0"/>
<path d="M383.257 192.569L386.448 188.979C387.485 187.783 385.809 186.107 384.772 187.304L381.582 190.894C380.624 192.01 382.3 193.686 383.257 192.569Z" fill="#F5F3F0"/>
<path d="M152.48 320.84C156.389 325.067 162.531 325.706 167.796 323.552C173.061 321.398 177.927 315.335 181.596 310.07C182.474 308.794 180.4 307.598 179.522 308.874C174.497 316.133 163.249 328.976 154.155 319.164C153.118 318.048 151.443 319.723 152.48 320.84Z" fill="#F5F3F0"/>
<path d="M271.179 200.466C274.897 194.864 280.011 190.327 286.016 187.304C287.372 186.665 286.176 184.591 284.82 185.229C278.448 188.46 273.031 193.3 269.105 199.269C268.227 200.546 270.301 201.742 271.179 200.466Z" fill="#F5F3F0"/>
<path d="M426.253 16.2751H438.299C438.616 16.2751 438.92 16.149 439.145 15.9246C439.369 15.7002 439.495 15.3959 439.495 15.0785C439.495 14.7612 439.369 14.4568 439.145 14.2324C438.92 14.008 438.616 13.882 438.299 13.882H426.253C425.936 13.882 425.632 14.008 425.407 14.2324C425.183 14.4568 425.057 14.7612 425.057 15.0785C425.057 15.3959 425.183 15.7002 425.407 15.9246C425.632 16.149 425.936 16.2751 426.253 16.2751Z" fill="#F5F3F0"/>
<path d="M449.546 16.2753C453.181 16.4499 456.824 16.182 460.395 15.4775C461.911 15.1585 461.272 12.8451 459.757 13.1642C456.393 13.8025 452.966 14.0435 449.546 13.8821C448.031 13.8024 448.031 16.1955 449.546 16.2753Z" fill="#F5F3F0"/>
<path d="M428.088 193.047C427.78 193.042 427.478 192.96 427.211 192.808C427.037 192.688 426.888 192.535 426.774 192.358C426.66 192.18 426.582 191.982 426.545 191.774C426.508 191.567 426.512 191.353 426.558 191.147C426.604 190.941 426.69 190.747 426.812 190.574L481.694 110.086C481.814 109.912 481.967 109.763 482.144 109.649C482.322 109.535 482.52 109.457 482.728 109.42C482.935 109.383 483.148 109.387 483.354 109.433C483.56 109.479 483.755 109.565 483.928 109.687C484.108 109.79 484.265 109.932 484.385 110.102C484.506 110.272 484.588 110.466 484.626 110.671C484.664 110.876 484.657 111.087 484.605 111.289C484.553 111.491 484.458 111.679 484.326 111.84L429.444 192.409C429.283 192.613 429.077 192.777 428.841 192.888C428.606 192.999 428.348 193.053 428.088 193.047Z" fill="#090909"/>
<path d="M436.783 226.551C436.437 226.557 436.099 226.445 435.826 226.232C435.652 226.112 435.503 225.959 435.389 225.782C435.275 225.604 435.197 225.406 435.16 225.198C435.123 224.991 435.127 224.778 435.173 224.572C435.219 224.366 435.305 224.171 435.427 223.998L494.138 140.558C494.258 140.384 494.411 140.236 494.588 140.122C494.766 140.008 494.964 139.93 495.172 139.892C495.379 139.855 495.592 139.86 495.798 139.906C496.004 139.952 496.199 140.038 496.372 140.159C496.545 140.279 496.694 140.432 496.808 140.609C496.922 140.787 497 140.985 497.037 141.193C497.074 141.401 497.07 141.614 497.024 141.82C496.978 142.026 496.892 142.22 496.77 142.393L438.059 225.833C437.924 226.051 437.737 226.231 437.513 226.357C437.29 226.482 437.039 226.549 436.783 226.551Z" fill="#090909"/>
<path d="M418.675 204.694L417.798 204.454C417.624 204.335 417.475 204.182 417.361 204.004C417.247 203.827 417.169 203.629 417.132 203.421C417.095 203.213 417.099 203 417.145 202.794C417.191 202.588 417.277 202.393 417.399 202.221L421.866 195.44C422.142 195.176 422.501 195.014 422.883 194.982C423.264 194.95 423.645 195.049 423.962 195.264C424.279 195.478 424.513 195.795 424.625 196.161C424.737 196.526 424.721 196.92 424.578 197.275L420.031 204.055C419.87 204.26 419.664 204.424 419.428 204.535C419.193 204.645 418.935 204.7 418.675 204.694Z" fill="#090909"/>
<path d="M413.41 259.656C413.25 259.664 413.09 259.64 412.939 259.585C412.788 259.531 412.65 259.446 412.533 259.337C412.359 259.217 412.21 259.064 412.096 258.887C411.982 258.709 411.904 258.511 411.867 258.303C411.83 258.095 411.834 257.882 411.88 257.676C411.926 257.47 412.012 257.276 412.134 257.103L427.21 236.044C427.329 235.867 427.483 235.717 427.663 235.603C427.843 235.49 428.045 235.416 428.256 235.386C428.467 235.356 428.681 235.37 428.886 235.429C429.091 235.487 429.281 235.588 429.444 235.725C429.619 235.835 429.768 235.982 429.881 236.155C429.993 236.328 430.067 236.524 430.098 236.728C430.128 236.933 430.114 237.141 430.056 237.34C429.998 237.538 429.898 237.722 429.763 237.878L414.766 259.018C414.605 259.222 414.399 259.386 414.163 259.497C413.928 259.608 413.67 259.662 413.41 259.656Z" fill="#090909"/>
<path d="M193.004 336.395C192.657 336.401 192.32 336.289 192.046 336.076C191.869 335.958 191.719 335.804 191.606 335.623C191.493 335.443 191.418 335.241 191.388 335.031C191.358 334.82 191.373 334.605 191.431 334.401C191.49 334.196 191.59 334.006 191.727 333.843L215.818 300.738C215.944 300.57 216.101 300.429 216.281 300.322C216.462 300.215 216.661 300.145 216.869 300.116C217.076 300.086 217.287 300.098 217.49 300.15C217.693 300.202 217.884 300.293 218.052 300.419C218.219 300.544 218.36 300.702 218.467 300.882C218.574 301.062 218.644 301.262 218.674 301.469C218.703 301.677 218.692 301.888 218.64 302.091C218.588 302.294 218.496 302.485 218.371 302.652L194.28 335.757C194.127 335.951 193.934 336.109 193.713 336.219C193.492 336.329 193.25 336.389 193.004 336.395Z" fill="#090909"/>
<path d="M262.962 91.8978C262.605 91.8887 262.263 91.7465 262.005 91.4989C261.834 91.3744 261.691 91.2154 261.585 91.0322C261.479 90.849 261.413 90.6456 261.39 90.4352C261.368 90.2248 261.39 90.012 261.454 89.8105C261.519 89.6091 261.625 89.4234 261.766 89.2654L279.794 66.6903C280.06 66.3639 280.443 66.1557 280.862 66.1109C281.28 66.0661 281.699 66.1884 282.028 66.451C282.354 66.7166 282.562 67.1002 282.607 67.5186C282.652 67.9369 282.53 68.3559 282.267 68.6845L264.239 91.2597C264.086 91.4535 263.893 91.6111 263.672 91.7215C263.451 91.8318 263.209 91.892 262.962 91.8978Z" fill="#090909"/>
<path d="M285.538 64.7757C285.191 64.7818 284.854 64.6693 284.58 64.4567C284.403 64.3384 284.253 64.1841 284.14 64.0039C284.027 63.8238 283.952 63.6218 283.922 63.4111C283.892 63.2004 283.907 62.9857 283.965 62.781C284.024 62.5763 284.124 62.3862 284.261 62.2231L291.042 53.209C291.167 53.0414 291.325 52.9002 291.505 52.7935C291.685 52.6867 291.885 52.6165 292.092 52.5868C292.3 52.5572 292.511 52.5687 292.714 52.6207C292.917 52.6727 293.108 52.7643 293.275 52.89C293.443 53.0157 293.584 53.1731 293.691 53.3534C293.798 53.5337 293.868 53.7333 293.897 53.9407C293.927 54.1481 293.915 54.3593 293.863 54.5622C293.812 54.7652 293.72 54.9559 293.594 55.1235L286.814 64.1376C286.661 64.3314 286.468 64.4891 286.247 64.5994C286.026 64.7097 285.784 64.7699 285.538 64.7757Z" fill="#090909"/>
<path d="M28.1175 300.578C20.1261 296.01 11.6772 292.294 2.90989 289.49C1.39425 289.011 0.83591 291.325 2.27178 291.803C10.8527 294.527 19.1164 298.164 26.921 302.652C27.196 302.811 27.5228 302.854 27.8295 302.771C28.1362 302.689 28.3975 302.488 28.5562 302.213C28.7149 301.938 28.7578 301.612 28.6755 301.305C28.5932 300.998 28.3926 300.737 28.1175 300.578Z" fill="#090909"/>
<path d="M23.6502 289.251C18.6041 280.045 11.0168 272.486 1.7931 267.473C0.436999 266.755 -0.759562 268.829 0.596541 269.547C9.45351 274.352 16.7375 281.608 21.5762 290.447C22.2941 291.803 24.3681 290.607 23.6502 289.251Z" fill="#090909"/>
<path d="M402.561 330.173L416.043 325.546C417.478 324.988 416.84 322.674 415.404 323.233L401.923 327.86C400.487 328.338 401.046 330.652 402.561 330.173Z" fill="#090909"/>
<path d="M403.518 322.595C406.949 319.644 410.458 316.772 414.128 314.14C415.325 313.182 414.128 311.108 412.931 312.065C409.102 314.857 405.433 317.809 401.843 320.84C400.647 321.877 402.322 323.552 403.518 322.595Z" fill="#090909"/>
<path d="M544.713 279.598H389.718C389.295 279.598 388.889 279.43 388.59 279.131C388.291 278.832 388.123 278.426 388.123 278.003C388.123 277.58 388.291 277.174 388.59 276.875C388.889 276.576 389.295 276.407 389.718 276.407H544.713C545.136 276.407 545.542 276.576 545.841 276.875C546.14 277.174 546.308 277.58 546.308 278.003C546.308 278.426 546.14 278.832 545.841 279.131C545.542 279.43 545.136 279.598 544.713 279.598Z" fill="#090909"/>
<path d="M560.906 298.026H467.575C467.151 298.026 466.746 297.857 466.446 297.558C466.147 297.259 465.979 296.853 465.979 296.43C465.979 296.007 466.147 295.601 466.446 295.302C466.746 295.003 467.151 294.835 467.575 294.835H560.906C561.329 294.835 561.735 295.003 562.035 295.302C562.334 295.601 562.502 296.007 562.502 296.43C562.502 296.853 562.334 297.259 562.035 297.558C561.735 297.857 561.329 298.026 560.906 298.026Z" fill="#090909"/>
<path d="M568.405 277.684H555.641C555.218 277.684 554.812 277.516 554.513 277.217C554.214 276.917 554.046 276.512 554.046 276.089C554.046 275.665 554.214 275.26 554.513 274.96C554.812 274.661 555.218 274.493 555.641 274.493H568.405C568.828 274.493 569.233 274.661 569.533 274.96C569.832 275.26 570 275.665 570 276.089C570 276.512 569.832 276.917 569.533 277.217C569.233 277.516 568.828 277.684 568.405 277.684Z" fill="#090909"/>
<path d="M89.1421 234.847H32.0261C31.603 234.847 31.1972 234.679 30.898 234.38C30.5988 234.08 30.4307 233.675 30.4307 233.251C30.4307 232.828 30.5988 232.423 30.898 232.123C31.1972 231.824 31.603 231.656 32.0261 231.656H89.1421C89.5652 231.656 89.971 231.824 90.2702 232.123C90.5694 232.423 90.7375 232.828 90.7375 233.251C90.7375 233.675 90.5694 234.08 90.2702 234.38C89.971 234.679 89.5652 234.847 89.1421 234.847Z" fill="#090909"/>
<path d="M100.47 225.833H75.6608C75.2377 225.833 74.8319 225.665 74.5327 225.366C74.2335 225.067 74.0654 224.661 74.0654 224.238C74.0654 223.814 74.2335 223.409 74.5327 223.11C74.8319 222.81 75.2377 222.642 75.6608 222.642H100.47C100.893 222.642 101.298 222.81 101.598 223.11C101.897 223.409 102.065 223.814 102.065 224.238C102.065 224.661 101.897 225.067 101.598 225.366C101.298 225.665 100.893 225.833 100.47 225.833Z" fill="#090909"/>
<path d="M75.9798 91.3396C73.6665 91.3396 72.7091 88.3881 72.3103 85.4365C69.4385 85.1175 65.8489 84.1602 65.8489 81.6873C65.8489 79.2144 69.0397 78.337 72.1508 78.0179C72.4699 74.9866 73.4272 71.0778 75.9798 71.0778C78.5325 71.0778 79.4099 74.9866 79.729 78.0179C82.9198 78.337 86.1107 79.374 86.1107 81.6873C86.1107 84.0007 82.4412 85.1175 79.6493 85.4365C79.1706 88.3881 78.2134 91.3396 75.9798 91.3396ZM69.9172 81.6873C71.182 82.1009 72.4967 82.3423 73.826 82.4053H75.1821L75.3416 83.7614C75.3922 84.929 75.6071 86.0838 75.9798 87.1916C76.3137 86.0741 76.5275 84.9242 76.6179 83.7614V82.4053H77.9741C79.3282 82.3323 80.668 82.0911 81.9626 81.6873C80.6887 81.3244 79.377 81.1102 78.0538 81.0491L76.6977 80.8896V79.5335C76.5983 78.0515 76.358 76.5824 75.9798 75.1461C75.5215 76.5642 75.2795 78.0432 75.2619 79.5335V80.8896L73.826 81.0491C72.5012 81.0944 71.1876 81.3089 69.9172 81.6873Z" fill="#090909"/>
<path d="M96.9596 61.5054C92.8912 61.5054 91.3756 53.7677 90.8172 49.2207C86.4298 48.8219 77.4157 47.3861 77.4157 42.9987C77.4157 38.6113 85.7916 37.2552 90.5779 36.6968C90.9767 32.0701 92.3328 22.4976 96.9596 22.4976C101.586 22.4976 102.942 32.0701 103.341 36.6968C108.127 37.2552 116.424 38.6911 116.424 42.9987C116.424 47.3063 107.489 48.8219 103.102 49.2207C102.544 53.7677 101.028 61.5054 96.9596 61.5054ZM80.6065 42.9987C80.9256 43.6368 84.1963 45.5513 92.3329 46.1895H93.689L93.8485 47.5456C94.5664 54.9642 96.3214 57.9158 96.9596 58.2349C97.5977 58.5539 99.3527 54.9642 100.071 47.5456L100.23 46.1895H101.507C109.723 45.5513 112.914 43.6368 113.233 42.9987C113.552 42.3605 109.723 40.446 101.666 39.8078L100.31 39.6483V38.2922C99.8314 30.2354 97.9168 26.0872 97.0393 25.6884C96.1618 25.2895 94.2473 30.2354 93.7687 38.2922V39.6483L92.3329 39.8078C84.1165 40.446 80.9256 42.2807 80.6065 42.9987Z" fill="#80A5AE"/>
<path d="M499.563 220.727C497.249 220.727 496.292 217.776 495.893 214.825C493.021 214.505 489.432 213.548 489.432 211.075C489.432 208.602 492.622 207.805 495.734 207.406C496.053 204.375 496.93 200.546 499.563 200.546C502.195 200.546 502.993 204.375 503.312 207.406C506.423 207.805 509.614 208.762 509.614 211.075C509.614 213.389 506.024 214.505 503.232 214.825C502.753 217.776 501.796 220.727 499.563 220.727ZM493.5 211.075C494.765 211.489 496.079 211.73 497.409 211.793H498.765V213.149C498.833 214.322 499.075 215.478 499.483 216.579C499.817 215.462 500.031 214.312 500.121 213.149V211.793H501.477C502.806 211.73 504.121 211.489 505.386 211.075C504.132 210.743 502.85 210.529 501.557 210.437H500.201V209.001C500.096 207.546 499.856 206.104 499.483 204.694C499.031 206.086 498.789 207.538 498.765 209.001L498.605 210.437H497.329C496.035 210.529 494.753 210.743 493.5 211.075Z" fill="#090909"/>
<path d="M536.337 250.322C532.269 250.322 530.673 242.585 530.194 238.117C525.807 237.639 516.793 236.203 516.793 231.816C516.793 227.428 525.169 226.072 529.955 225.593C530.354 220.967 531.71 211.314 536.337 211.314C540.964 211.314 542.32 220.967 542.639 225.593C547.505 226.072 555.801 227.508 555.801 231.816C555.801 236.123 546.867 237.639 542.479 238.117C541.921 242.585 540.405 250.322 536.337 250.322ZM519.984 231.816C520.303 232.533 523.573 234.448 531.71 235.006L533.066 235.166L533.226 236.442C533.944 243.941 535.699 246.812 536.337 247.132C536.975 247.451 538.73 243.941 539.448 236.442V235.166L540.804 235.006C549.02 234.448 552.211 232.533 552.53 231.816C552.849 231.098 549.02 229.263 540.963 228.625H539.607V227.189C539.129 219.132 537.214 214.984 536.337 214.585C535.459 214.186 533.545 219.132 533.066 227.189V228.625H531.63C523.494 229.263 520.303 231.177 519.984 231.816Z" fill="#80A5AE"/>
<path d="M290.563 91.3394C294.313 89.2653 293.355 85.9947 295.03 82.5646C295.669 81.1287 297.344 78.5761 298.62 80.8097C298.733 81.2254 298.76 81.6595 298.7 82.086C298.718 82.5442 298.843 82.9919 299.065 83.3934C299.286 83.795 299.598 84.1394 299.976 84.3993C301.811 85.4364 303.566 83.6016 304.364 82.086C305.161 80.5703 305.72 78.6558 306.677 77.0604C307.634 75.465 308.591 74.0291 309.948 73.3909C311.304 72.7528 313.378 74.1886 310.985 76.7413C309.948 77.9378 311.623 79.6131 312.66 78.4963C313.697 77.3795 316.329 70.4394 312.341 70.0406C308.352 69.6417 304.603 75.465 303.247 78.6558L302.29 80.8894C301.332 82.4848 300.934 82.5646 301.013 81.2085C301.093 79.8524 301.173 79.4535 300.854 78.6558C300.686 78.1291 300.357 77.6685 299.914 77.3392C299.47 77.0099 298.933 76.8286 298.381 76.8211C291.281 76.7413 293.754 86.8722 289.367 89.3451C288.011 90.063 289.207 92.1371 290.563 91.3394Z" fill="#090909"/>
<path d="M314.574 74.109C316.09 70.5193 317.446 74.5079 317.605 75.2258C317.991 76.1871 318.101 77.2366 317.925 78.257C317.685 79.7727 316.249 80.8097 315.611 82.2456C314.973 83.6815 316.967 84.7983 317.605 83.4421C318.244 82.086 320.158 80.4907 320.397 78.4166C320.528 76.4034 320.115 74.392 319.201 72.5933C317.446 69.1632 313.617 70.28 312.341 73.4708C311.702 74.9067 314.016 75.5449 314.574 74.109Z" fill="#090909"/>
<path d="M320.158 78.0974C323.11 78.8951 324.386 80.5703 323.907 83.2027C323.804 84.5335 323.536 85.8463 323.11 87.1114C322.608 88.7362 322.022 90.3338 321.355 91.8976C319.999 95.3278 318.403 98.7579 317.127 102.188C316.568 103.624 318.882 104.262 319.36 102.826C321.833 96.5244 326.38 89.5046 326.3 82.5645C326.3 78.8951 323.907 74.1886 319.52 75.8637C318.084 76.3424 318.722 78.6558 320.158 78.0974Z" fill="#090909"/>
<path d="M320.557 67.7273C318.004 68.7643 315.212 69.0035 312.819 70.3596C310.426 71.7157 312.739 73.1517 314.096 72.4338C315.452 71.7158 318.882 70.9979 321.115 70.0406C323.349 69.0834 321.913 67.1689 320.557 67.7273Z" fill="#090909"/>
<path d="M418.755 41.8819C419.09 40.1645 420.015 38.6184 421.37 37.5112C422.724 36.404 424.424 35.8055 426.173 35.8193C426.73 35.7666 427.29 35.8646 427.795 36.1033C428.301 36.3419 428.732 36.7122 429.045 37.1754C429.113 37.469 429.25 37.7423 429.444 37.9731L429.923 38.4517C430.242 39.0101 429.763 39.6483 429.364 40.1269L426.652 43.3178C428.407 42.2807 430.242 41.164 432.236 40.9246C433.421 40.7762 434.624 40.9129 435.746 41.3235C436.328 41.4559 436.857 41.7619 437.262 42.201C437.578 42.6465 437.786 43.1597 437.869 43.6998C437.952 44.2399 437.908 44.792 437.74 45.312C437.235 47.2382 436.006 48.8953 434.31 49.9387L436.225 49.0612C437.055 48.6255 437.94 48.3035 438.857 48.104C439.763 47.9418 440.698 48.1117 441.489 48.5826C442.189 49.1108 442.672 49.8769 442.845 50.7364C443.008 51.5775 443.088 52.4325 443.085 53.2891V55.3631C443.098 55.8431 443.071 56.3233 443.005 56.7989C442.156 59.1616 440.974 61.3911 439.495 63.42" fill="#F5F3F0"/>
<path d="M419.872 42.2007C420.59 39.7279 423.142 36.3775 426.174 37.0156C426.493 37.0954 428.487 38.4515 428.567 38.8503C428.647 39.2492 426.253 41.9614 425.775 42.44C425.296 42.9186 426.014 45.0725 427.29 44.2748C428.567 43.4771 431.119 41.9615 433.433 42.121C438.299 42.2805 436.305 46.987 433.752 48.9015C433.579 48.9555 433.421 49.0479 433.289 49.172C433.157 49.2961 433.055 49.4485 432.99 49.6178C432.926 49.7871 432.9 49.9688 432.916 50.1492C432.932 50.3296 432.989 50.504 433.082 50.6593C433.175 50.8147 433.303 50.9467 433.454 51.0457C433.606 51.1447 433.778 51.208 433.958 51.2307C434.138 51.2535 434.32 51.2352 434.492 51.1772C434.663 51.1192 434.819 51.0229 434.948 50.8958L436.863 50.0981L441.649 51.0553C442.287 51.7732 441.889 55.2034 441.729 56.2404C441.18 58.6518 440.058 60.8955 438.458 62.7815C437.581 64.0579 439.655 65.2545 440.532 64.0579C443.404 60.0694 445.558 54.8842 443.803 50.0182C442.048 45.1522 437.102 47.3061 433.752 48.9015L434.948 50.8958C437.581 49.061 440.931 44.4343 438.139 41.3233C435.347 38.2122 429.205 40.366 426.094 42.2805L427.53 44.1153C428.806 42.5996 431.518 40.6053 431.04 38.292C430.802 37.4692 430.365 36.7179 429.766 36.1055C429.168 35.493 428.427 35.0383 427.609 34.782C422.983 33.5057 418.755 37.4145 417.638 41.5625C417.548 41.7201 417.494 41.8961 417.482 42.0773C417.47 42.2585 417.499 42.4401 417.567 42.6084C417.636 42.7766 417.741 42.9272 417.876 43.0485C418.012 43.1698 418.173 43.2588 418.347 43.3087C418.522 43.3586 418.705 43.3681 418.884 43.3364C419.063 43.3048 419.232 43.2329 419.379 43.1261C419.526 43.0193 419.647 42.8806 419.732 42.7202C419.818 42.5599 419.865 42.3822 419.872 42.2007Z" fill="#090909"/>
<path d="M415.165 79.3739C420.669 71.1575 429.604 65.1747 439.415 63.8186C441.968 64.9354 440.931 66.7701 439.814 67.9666C438.241 69.6507 436.504 71.1739 434.629 72.5136C435.826 71.9552 435.507 72.1946 438.458 71.2373C438.868 71.0771 439.324 71.0771 439.734 71.2373C440.006 71.3131 440.248 71.467 440.433 71.6797C440.617 71.8924 440.735 72.1547 440.771 72.4339C440.959 73.0841 441.013 73.7653 440.931 74.437C440.849 75.1087 440.632 75.7568 440.293 76.3426C439.614 77.4874 438.72 78.4898 437.66 79.2941C430.401 85.8353 422.025 91.0204 414.926 97.7212" fill="#F5F3F0"/>
<path d="M416.202 80.0119C419.408 75.2156 423.734 71.2728 428.806 68.5249C431.152 67.2671 433.643 66.3027 436.225 65.6531C437.66 65.334 439.495 64.7756 438.937 67.1687C438.378 69.5618 434.948 70.8382 433.991 71.4763C433.855 71.5549 433.735 71.6595 433.64 71.7842C433.544 71.9089 433.474 72.0513 433.433 72.2031C433.392 72.355 433.382 72.5134 433.402 72.6693C433.423 72.8252 433.474 72.9755 433.552 73.1117C433.631 73.2479 433.735 73.3673 433.86 73.463C433.985 73.5588 434.127 73.629 434.279 73.6697C434.431 73.7105 434.589 73.7209 434.745 73.7004C434.901 73.6799 435.051 73.6289 435.188 73.5503C435.746 73.311 437.022 72.6729 437.581 72.7526C441.649 73.3908 438.697 76.5817 437.581 77.7782C435.045 80.2742 432.296 82.5431 429.364 84.5587C424.179 88.5473 418.914 92.456 414.048 96.9232C412.931 97.9602 414.607 99.6354 415.803 98.5984C420.111 94.5301 424.897 91.0201 429.604 87.4305C434.31 83.8408 438.059 81.687 440.692 77.858C441.968 76.0233 443.085 72.5931 441.17 70.7584C439.256 68.9236 435.985 70.5989 433.991 71.4763L435.188 73.5503C437.581 71.8752 442.447 68.9237 442.128 65.4935C441.809 62.0634 437.98 62.7814 435.586 63.3398C426.732 65.5733 419.313 71.3168 414.128 78.8153C413.25 80.0916 415.325 81.2882 416.202 80.0119Z" fill="#090909"/>
</svg>
