<svg width="500" height="548" viewBox="0 0 500 548" fill="none" xmlns="http://www.w3.org/2000/svg">
<path d="M148.266 517.536C146.813 517.536 145.419 516.959 144.391 515.931C143.363 514.903 142.786 513.509 142.786 512.056V378.238C142.786 376.784 143.363 375.39 144.391 374.362C145.419 373.335 146.813 372.757 148.266 372.757C149.72 372.757 151.114 373.335 152.141 374.362C153.169 375.39 153.747 376.784 153.747 378.238V512.056C153.747 513.509 153.169 514.903 152.141 515.931C151.114 516.959 149.72 517.536 148.266 517.536Z" fill="#090909"/>
<path d="M231.965 369.57C230.869 365.485 227.082 364.09 223.296 364.588C219.51 365.086 213.531 365.784 208.649 366.182C208.666 364.972 208.373 363.778 207.797 362.714C207.222 361.65 206.383 360.751 205.361 360.104C198.186 355.521 189.916 353.627 181.845 351.236C173.774 348.845 165.404 345.556 157.035 343.564C148.665 341.571 139.797 341.371 130.929 340.873C126.266 340.525 121.636 339.826 117.078 338.781C118.002 336.056 118.208 333.139 117.676 330.311C116.554 322.898 114.787 315.596 112.395 308.49C110.402 302.412 107.812 297.529 102.033 294.141C99.7408 292.846 97.4491 291.949 95.8548 289.658C94.2605 287.366 92.2677 283.081 90.6735 279.793C87.3853 272.918 83.6986 266.043 80.6097 259.068C78.5573 251.239 77.883 243.114 78.6169 235.054C78.6825 234.455 78.6489 233.849 78.5172 233.261C78.9158 231.866 79.3144 230.471 79.6133 229.076C79.9122 227.681 79.8126 221.005 81.5065 218.813C82.8586 217.197 83.5681 215.139 83.4993 213.033C83.6943 212.614 83.9278 212.214 84.1968 211.838L90.4742 200.877C91.8814 200.34 93.0485 199.314 93.7623 197.988C94.1128 197.149 94.5468 196.348 95.0577 195.596L95.4562 194.998L95.9544 194.401L97.3494 192.906C98.3015 192.24 99.0307 191.302 99.4419 190.216C99.842 189.531 100.144 188.793 100.339 188.024C100.64 187.033 100.706 185.987 100.533 184.967C100.36 183.946 99.9526 182.98 99.3422 182.145H101.036C105.121 182.145 107.114 178.956 110.801 178.159C114.488 177.362 118.972 177.262 122.957 176.067C131.626 173.476 127.939 159.825 119.171 162.416C115.385 163.611 111.498 163.611 107.712 164.409C105.743 164.783 103.833 165.42 102.033 166.302C101.125 166.795 100.258 167.362 99.4419 167.996L94.7588 168.693C90.9724 169.391 86.3889 168.593 82.5029 168.593C75.528 168.494 67.6563 167.497 61.1796 170.287C48.3259 175.768 49.123 190.714 49.7209 202.272C51.5144 233.759 53.308 265.246 55.5001 296.633C55.5001 297.23 55.5997 297.828 55.5997 298.426V298.825C56.3969 311.18 56.4965 323.336 60.9803 334.994C62.8735 339.877 64.966 343.962 70.4463 345.058C75.9265 346.154 81.905 345.756 87.5846 345.257C80.6097 354.126 74.7308 364.986 82.7022 374.851C87.5846 380.929 95.3566 380.829 102.531 380.829H127.441C160.622 381.029 194.101 382.623 227.082 378.039C230.869 377.741 232.961 372.858 231.965 369.57ZM90.8727 320.347C90.8727 320.546 90.7731 320.447 90.8727 320.347V320.347Z" fill="#CBC7DB"/>
<path d="M344.061 506.875L336.489 506.476L336.688 498.106L306.297 497.309L305.998 505.679L305.401 529.194C305.387 529.836 305.501 530.473 305.734 531.071C305.967 531.668 306.316 532.214 306.76 532.676C307.204 533.139 307.735 533.51 308.322 533.767C308.91 534.024 309.542 534.163 310.183 534.176L359.904 535.571V531.885C360.403 518.234 357.712 507.273 344.061 506.875Z" fill="#090909"/>
<path d="M363.093 522.021C357.712 521.124 350.737 518.633 345.357 519.928C342.567 520.526 340.175 522.818 337.087 522.619C333.998 522.419 331.806 520.327 328.916 520.028C327.105 519.86 325.289 520.279 323.735 521.224C320.347 523.017 318.454 523.715 314.568 523.117C310.682 522.519 306.497 522.12 303.508 525.608C302.411 526.903 304.604 528.497 305.7 527.202C309.386 522.918 316.262 527.202 320.945 525.807C322.539 525.309 323.834 524.213 325.329 523.416C328.617 521.822 331.507 523.814 334.596 524.811C337.684 525.807 340.674 524.412 344.261 523.117C349.741 521.124 357.214 523.715 362.794 524.711C364.588 525.01 364.787 522.22 363.093 522.021Z" fill="#F5F3F0"/>
<path d="M411.419 501.694H403.946L403.647 493.324L373.157 494.32L373.456 502.79L374.253 526.205C374.305 527.509 374.866 528.741 375.816 529.635C376.767 530.53 378.03 531.015 379.334 530.988L429.055 529.195L428.856 525.508C428.458 512.056 425.07 501.195 411.419 501.694Z" fill="#090909"/>
<path d="M429.255 520.925C423.874 520.028 416.999 517.537 411.518 518.832C408.728 519.43 406.337 521.722 403.348 521.522C400.359 521.323 398.067 519.231 395.177 518.932C393.322 518.764 391.463 519.22 389.896 520.227C386.608 521.921 384.715 522.618 380.729 522.021C376.744 521.423 372.658 521.024 369.769 524.512C368.573 525.807 370.765 527.401 371.961 526.106C375.548 521.821 382.523 526.106 387.106 524.711C388.8 524.213 389.996 523.117 391.59 522.32C394.878 520.725 397.668 522.718 400.857 523.715C404.045 524.711 406.835 523.316 410.522 522.021C416.002 520.028 423.475 522.718 429.055 523.615C430.749 523.914 430.948 521.224 429.255 520.925Z" fill="#F5F3F0"/>
<path d="M405.241 502.192C402.916 504.07 400.75 506.136 398.764 508.37C397.469 509.864 399.562 511.957 400.857 510.562C402.84 508.296 405.007 506.196 407.334 504.284C408.828 503.089 406.736 500.996 405.241 502.192V502.192Z" fill="#F5F3F0"/>
<path d="M411.519 502.789C409.076 504.65 406.926 506.867 405.141 509.366C403.946 510.86 406.536 512.355 407.732 510.86C409.433 508.628 411.408 506.619 413.611 504.882C415.106 503.686 412.913 501.593 411.519 502.789Z" fill="#F5F3F0"/>
<path d="M340.674 505.58C337.831 507.049 335.374 509.165 333.499 511.758C332.304 513.252 334.894 514.747 335.99 513.252C337.666 511.14 339.772 509.408 342.168 508.171C343.862 507.274 342.367 504.783 340.674 505.58Z" fill="#F5F3F0"/>
<path d="M347.648 505.879C345.354 507.46 343.247 509.299 341.371 511.359C340.076 512.754 342.168 514.847 343.464 513.452C345.166 511.585 347.071 509.914 349.143 508.47C350.737 507.374 349.243 504.783 347.648 505.879Z" fill="#F5F3F0"/>
<path d="M429.852 502.69C437.525 502.69 437.525 490.733 429.852 490.733C422.18 490.733 422.18 502.69 429.852 502.69Z" fill="#80A5AE"/>
<path d="M209.546 302.113C215.325 302.113 215.325 293.145 209.546 293.145C203.766 293.145 203.766 302.113 209.546 302.113Z" fill="#80A5AE"/>
<path d="M183.739 315.962C181.447 319.35 183.838 323.336 187.226 324.532C189.86 325.39 192.629 325.761 195.397 325.628C196.586 325.628 197.726 325.155 198.567 324.314C199.408 323.473 199.88 322.333 199.88 321.144C199.88 319.955 199.408 318.814 198.567 317.973C197.726 317.132 196.586 316.66 195.397 316.66H192.507L190.813 316.261H190.215C188.82 315.763 189.318 316.56 191.81 318.752L191.212 321.044L191.411 320.745C191.772 320.241 192.024 319.667 192.152 319.061C192.28 318.454 192.28 317.828 192.154 317.221C192.027 316.614 191.776 316.04 191.416 315.535C191.057 315.03 190.596 314.605 190.064 314.287C189.532 313.969 188.939 313.765 188.324 313.687C187.709 313.61 187.084 313.661 186.49 313.837C185.896 314.013 185.344 314.311 184.871 314.711C184.397 315.111 184.012 315.605 183.739 316.162V315.962Z" fill="#80A5AE"/>
<path d="M438.82 500.498C433.938 486.449 426.166 473.396 419.39 460.144L400.359 422.977C399.163 420.287 397.768 417.696 396.373 415.205C389.099 401.056 381.925 386.907 374.253 372.957C374.109 372.678 373.943 372.411 373.755 372.16C371.164 367.377 368.474 362.694 365.684 358.111L364.488 355.819L362.395 352.73C358.808 347.051 355.221 341.471 351.335 335.99L350.937 335.592C349.542 332.902 346.353 332.403 343.364 332.204C335.293 331.805 327.122 332.104 319.051 332.104H269.53L219.908 332.304C218.734 331.667 217.449 331.261 216.122 331.108C214.627 328.218 215.325 323.236 214.727 319.35C215.026 312.375 215.325 305.401 215.823 298.426C215.904 297.837 215.836 297.237 215.628 296.68C215.419 296.124 215.075 295.628 214.627 295.237C214.602 294.885 214.444 294.555 214.185 294.315C213.926 294.074 213.586 293.941 213.232 293.942C210.775 293.743 208.284 293.643 205.759 293.643C202.67 292.846 198.685 293.543 195.297 293.045C190.116 292.248 185.432 292.547 180.65 295.137C175.867 297.728 173.974 300.02 170.387 302.013C160.522 307.493 149.661 312.077 138.402 314.368C136.21 314.269 134.117 313.97 131.925 313.671C122.359 311.877 111.798 307.393 107.114 298.426C107.143 298.287 107.142 298.144 107.111 298.006C107.08 297.868 107.021 297.738 106.936 297.625C106.851 297.512 106.743 297.419 106.619 297.35C106.495 297.282 106.359 297.241 106.218 297.23C105.321 296.532 103.727 297.728 104.225 299.123C104.723 300.518 104.025 303.408 104.025 305.6C103.754 306.141 103.612 306.738 103.612 307.344C103.612 307.949 103.754 308.546 104.025 309.087C104.025 320.446 105.719 332.802 111.399 341.969C118.374 353.029 131.925 355.42 143.982 355.221C158.629 354.922 172.081 354.125 186.03 359.008C198.973 363.519 210.583 371.191 219.809 381.327C226.105 388.397 231.097 396.528 234.556 405.341C234.834 406.124 235.067 406.922 235.253 407.732C238.342 417.796 241.829 427.76 245.715 437.525H245.815C248.961 446.608 252.654 455.493 256.875 464.129C260.462 471.104 264.249 478.079 268.135 484.855L273.715 494.52C274.319 496.394 275.303 498.124 276.604 499.601C277.346 501.074 278.361 502.393 279.593 503.487C281.042 504.549 282.781 505.14 284.576 505.181C288.76 505.48 293.045 505.48 297.23 505.68L322.34 506.178C346.851 506.444 371.43 506.045 396.074 504.982L418.992 504.783C421.103 504.738 423.178 504.228 425.07 503.288L430.45 502.89H432.045L437.425 502.491C437.663 502.489 437.897 502.43 438.108 502.319C438.318 502.208 438.499 502.049 438.636 501.854C438.772 501.659 438.86 501.434 438.892 501.198C438.924 500.963 438.9 500.723 438.82 500.498ZM308.689 447.788C308.689 447.762 308.699 447.736 308.718 447.718C308.737 447.699 308.762 447.688 308.788 447.688C308.762 447.688 308.737 447.699 308.718 447.718C308.699 447.736 308.689 447.762 308.689 447.788Z" fill="#80A5AE"/>
<path d="M376.345 311.877H208.549C203.707 311.877 199.781 315.803 199.781 320.645V320.735C199.781 325.578 203.707 329.504 208.549 329.504H376.345C381.188 329.504 385.114 325.578 385.114 320.735V320.645C385.114 315.803 381.188 311.877 376.345 311.877Z" fill="#F5F3F0"/>
<path d="M153.049 171.184C151.002 171.198 148.961 170.964 146.971 170.487C146.45 170.367 145.995 170.053 145.698 169.608C145.402 169.163 145.287 168.622 145.377 168.095C145.517 167.593 145.84 167.161 146.283 166.884C146.725 166.608 147.255 166.507 147.768 166.601C155.64 168.294 163.412 166.102 167.497 161.021C173.675 153.249 169.689 140.495 162.316 133.918C154.942 127.342 143.982 126.445 134.715 131.427C134.252 131.676 133.71 131.732 133.206 131.582C132.702 131.433 132.278 131.091 132.025 130.63C131.801 130.163 131.758 129.629 131.906 129.131C132.053 128.634 132.379 128.21 132.822 127.94C143.583 122.161 156.537 123.356 164.906 130.929C173.276 138.502 178.258 153.846 170.586 163.412C166.7 168.394 160.124 171.184 153.049 171.184Z" fill="#090909"/>
<path d="M162.316 175.369C172.479 177.76 184.536 184.137 190.414 192.906C198.784 205.56 198.087 221.702 197.589 236.349C197.489 238.243 200.478 238.243 200.578 236.349C201.176 220.706 201.674 203.368 192.009 190.016C185.731 181.248 173.475 174.97 163.113 172.579C161.219 172.081 160.422 174.97 162.316 175.369V175.369Z" fill="#090909"/>
<path d="M197.589 235.053C197.389 242.825 204.962 245.416 211.439 245.615C222.698 246.014 232.363 248.007 241.929 254.184C256.377 263.451 265.843 279.593 274.412 294.041C274.51 294.211 274.641 294.36 274.797 294.48C274.952 294.599 275.13 294.687 275.32 294.738C275.51 294.789 275.707 294.802 275.902 294.776C276.097 294.751 276.285 294.687 276.455 294.589C276.625 294.491 276.774 294.36 276.894 294.204C277.013 294.049 277.101 293.871 277.152 293.681C277.203 293.491 277.216 293.294 277.19 293.099C277.165 292.904 277.101 292.716 277.003 292.546C269.53 279.991 261.259 266.042 250.1 256.476C243.778 251.112 236.417 247.109 228.477 244.718C224.5 243.507 220.378 242.837 216.222 242.726C210.741 242.526 200.379 243.323 200.578 235.053C200.678 233.16 197.688 233.16 197.589 235.053Z" fill="#090909"/>
<path d="M198.585 235.552C193.503 237.346 188.322 238.94 183.141 240.235C182.757 240.341 182.432 240.595 182.236 240.94C182.04 241.286 181.989 241.695 182.094 242.079C182.2 242.462 182.454 242.787 182.799 242.983C183.145 243.18 183.555 243.231 183.938 243.125C189.119 241.83 194.3 240.235 199.382 238.442C201.176 237.744 200.379 234.855 198.585 235.552Z" fill="#090909"/>
<path d="M179.853 224.093C179.255 234.057 183.041 243.622 181.845 253.587C181.546 255.48 184.536 255.48 184.835 253.587C186.03 243.622 182.244 234.057 182.842 224.093C182.941 222.2 179.952 222.2 179.853 224.093Z" fill="#090909"/>
<path d="M130.231 175.469C131.228 180.949 134.615 186.628 138.501 190.714C142.387 194.799 146.672 195.297 151.654 194.699C156.636 194.102 161.02 191.81 163.511 187.525C166.002 183.241 165.106 178.159 162.913 173.376L162.017 175.568L163.212 175.269C165.106 174.771 164.308 171.882 162.515 172.38L161.22 172.679C160.999 172.739 160.795 172.85 160.624 173.001C160.453 173.153 160.318 173.342 160.232 173.554C160.145 173.766 160.108 173.995 160.124 174.223C160.14 174.451 160.208 174.673 160.323 174.871C162.415 179.454 163.212 183.938 159.426 187.924C155.64 191.909 152.152 192.009 148.067 191.81C140.195 191.61 134.316 181.746 133.121 174.672C132.822 172.778 129.932 173.575 130.231 175.469V175.469Z" fill="#090909"/>
<path d="M159.725 168.294C159.553 170.692 159.999 173.093 161.02 175.269C161.818 177.063 164.408 175.568 163.611 173.775C162.863 172.05 162.555 170.167 162.714 168.294C162.914 166.302 159.924 166.302 159.725 168.294Z" fill="#090909"/>
<path d="M180.151 141.69C177.063 138.202 176.265 135.113 176.465 130.53C176.564 127.84 177.561 124.053 176.265 121.463C173.874 116.78 165.405 116.281 160.921 116.182C156.748 116.274 152.647 115.092 149.163 112.794C146.819 111.123 144.183 109.906 141.391 109.207C135.114 108.111 128.836 111.2 123.854 114.886C118.872 118.573 115.086 122.758 114.089 128.537C112.694 136.807 119.171 144.38 115.285 152.551C111.399 160.721 102.332 161.219 98.9438 168.693C95.556 176.166 96.1538 185.632 96.3531 193.404C96.3531 193.8 96.5106 194.18 96.7909 194.46C97.0712 194.741 97.4513 194.898 97.8477 194.898C98.2441 194.898 98.6243 194.741 98.9046 194.46C99.1849 194.18 99.3424 193.8 99.3424 193.404C99.3564 192.738 99.3231 192.072 99.2427 191.411H99.5417C101.734 191.71 104.225 190.813 104.922 188.521C105.62 186.229 109.904 184.934 111.499 183.938C113.796 182.305 116.269 180.935 118.872 179.852C122.957 178.457 127.441 178.358 130.63 175.468C130.591 175.811 130.672 176.157 130.86 176.447C131.047 176.737 131.329 176.953 131.658 177.059C131.986 177.165 132.341 177.153 132.663 177.027C132.984 176.9 133.251 176.666 133.42 176.365C137.804 169.091 136.01 158.728 136.11 150.658C136.11 145.675 135.711 139.797 137.605 135.014C139.498 130.231 146.572 128.537 152.053 128.238C152.279 128.231 152.501 128.173 152.702 128.068C152.902 127.963 153.076 127.813 153.211 127.631C153.345 127.449 153.436 127.238 153.477 127.015C153.518 126.793 153.508 126.563 153.448 126.345C154.264 126.745 155.138 127.014 156.038 127.142H156.935C157.44 127.567 158.012 127.904 158.629 128.139C160.044 128.538 161.365 129.215 162.515 130.131C163.47 130.66 164.21 131.506 164.607 132.523C164.736 133.153 165.024 133.739 165.442 134.227C165.86 134.715 166.396 135.089 166.999 135.313C167.198 136.11 167.298 136.807 167.397 137.405C168.046 141.133 169.509 144.671 171.682 147.768C171.445 148.578 171.311 149.415 171.283 150.259C171.162 151.045 171.313 151.85 171.712 152.539C172.111 153.227 172.733 153.759 173.475 154.045L173.077 155.042C172.28 156.437 170.984 157.433 170.287 158.828C169.589 160.223 169.39 161.917 168.394 163.212C167.397 164.508 165.205 165.305 163.711 166.102C158.729 168.693 162.814 175.966 167.696 174.073C167.986 174.648 168.408 175.147 168.928 175.528C169.447 175.909 170.05 176.162 170.686 176.265C170.984 177.068 171.532 177.753 172.25 178.22C172.968 178.686 173.817 178.91 174.671 178.856C175.566 178.87 176.442 178.59 177.162 178.059C177.518 179.149 178.174 180.116 179.055 180.849C180.45 182.144 182.543 180.052 181.148 178.756C177.262 175.07 182.045 169.689 183.539 166.002C184.738 163.187 185.445 160.188 185.632 157.134C186.329 150.658 184.436 146.672 180.151 141.69Z" fill="#090909"/>
<path d="M138.003 143.085C134.217 141.59 129.235 142.288 128.537 146.971C128.338 148.864 128.338 150.658 130.43 151.455C131.387 151.785 132.4 151.919 133.41 151.851C134.42 151.782 135.406 151.512 136.309 151.056C137.02 150.599 137.567 149.928 137.871 149.14C138.176 148.352 138.222 147.488 138.003 146.672C137.405 144.679 135.114 143.982 133.32 144.181C131.526 144.38 129.833 145.576 130.231 147.469C130.336 147.9 130.545 148.298 130.841 148.628C131.136 148.958 131.509 149.211 131.925 149.362C133.021 149.761 134.117 149.263 135.213 149.462C136.309 149.661 137.904 146.971 136.01 146.572C134.117 146.174 134.018 146.174 133.42 146.572H133.121C132.921 147.071 133.121 147.27 133.519 147.17C133.918 147.07 134.217 147.07 134.615 147.27C135.014 147.469 135.213 148.167 134.516 148.565C133.725 148.884 132.856 148.953 132.025 148.764C131.228 148.565 131.427 148.565 131.427 147.768C131.462 147.081 131.705 146.42 132.124 145.875C133.32 144.779 135.911 145.476 137.206 145.974C138.501 146.473 139.797 143.782 138.003 143.085V143.085Z" fill="#F5F3F0"/>
<path d="M91.969 214.926C90.6736 219.609 91.7697 225.189 96.6521 227.381C101.534 229.573 106.716 226.584 109.307 222.897C111.897 219.21 110.303 214.129 106.915 211.438C101.634 207.154 96.8514 210.741 92.1682 214.129C90.6736 215.225 92.1682 217.815 93.7625 216.719C95.3568 215.623 99.1431 211.837 102.431 212.435C105.719 213.033 108.609 216.819 107.513 220.107C106.417 223.395 101.535 225.687 98.4456 224.79C95.3568 223.893 93.9618 219.111 94.8585 215.723C94.9642 215.34 94.9134 214.93 94.7172 214.584C94.521 214.239 94.1955 213.985 93.8123 213.879C93.4291 213.774 93.0196 213.825 92.6739 214.021C92.3283 214.217 92.0747 214.543 91.969 214.926V214.926Z" fill="#CBC7DB"/>
<path d="M168.593 231.666C166.7 231.566 164.209 231.666 162.714 232.861C161.22 234.057 161.419 236.05 161.419 237.744C161.419 239.438 161.519 241.132 163.213 242.128C164.902 243.004 166.793 243.417 168.693 243.324C172.38 243.324 175.668 241.231 175.767 237.246C175.867 233.26 172.977 229.175 169.291 231.267C167.597 232.164 169.091 234.754 170.785 233.858C172.479 232.961 172.479 235.253 172.678 235.851C172.877 236.635 172.877 237.457 172.678 238.242C171.981 240.235 169.689 240.434 167.896 240.334L165.504 239.936C164.309 239.537 164.408 238.441 164.408 237.345C164.408 236.249 164.209 235.552 165.106 235.053C166.003 234.555 167.597 234.655 168.593 234.655C169.59 234.655 170.486 231.765 168.593 231.666V231.666Z" fill="#CBC7DB"/>
<path d="M175.568 192.407C173.756 192.258 171.95 192.757 170.472 193.815C168.994 194.874 167.939 196.423 167.497 198.186C166.884 200.055 166.814 202.059 167.298 203.965C167.896 205.759 169.589 206.357 171.283 206.656C174.97 207.453 179.155 206.456 180.151 202.271C180.612 200.494 180.556 198.622 179.992 196.876C179.427 195.129 178.376 193.579 176.963 192.407C175.468 191.311 173.974 193.902 175.468 194.998C176.156 195.64 176.684 196.434 177.013 197.316C177.342 198.197 177.461 199.144 177.361 200.079C177.361 203.367 175.07 204.364 172.08 203.766C169.091 203.168 169.689 200.478 170.586 198.485C170.907 197.458 171.588 196.581 172.502 196.014C173.417 195.447 174.505 195.227 175.568 195.396C177.461 195.595 177.461 192.606 175.568 192.407V192.407Z" fill="#CBC7DB"/>
<path d="M136.409 219.61C132.523 218.015 131.626 223.396 131.626 225.887C131.626 228.378 131.527 229.474 133.021 230.57C134.485 231.466 136.191 231.883 137.904 231.766C139.398 231.766 140.992 231.567 141.889 230.271C142.786 228.976 142.587 226.684 142.587 225.09C142.587 223.496 142.487 221.901 141.391 220.805C140.295 219.709 138.701 219.41 137.206 219.211C135.711 219.012 135.313 221.901 137.206 222.2C139.099 222.499 139.597 222.997 139.597 224.691C139.597 226.385 140.096 228.378 138.501 228.777C136.907 229.175 134.914 228.777 134.615 227.382C134.316 225.987 134.615 222.101 135.612 222.499C136.608 222.898 138.202 220.307 136.409 219.61V219.61Z" fill="#CBC7DB"/>
<path d="M137.605 253.687C140.893 253.189 143.882 255.381 146.373 257.274C148.864 259.167 149.96 256.377 148.466 255.182C144.978 252.491 141.391 250.1 136.808 250.797C134.914 251.096 135.711 253.986 137.605 253.687V253.687Z" fill="#CBC7DB"/>
<path d="M112.196 186.628C112.097 189.119 112.694 192.009 115.285 193.105C118.775 194.134 122.497 194.064 125.947 192.906C129.135 191.71 130.132 188.92 130.132 185.731C130.132 182.543 128.637 180.55 125.349 179.354C123.555 178.757 122.758 181.646 124.552 182.244C126.345 182.842 127.342 184.735 127.043 186.927C126.744 189.119 124.851 190.415 122.459 190.614C121.1 190.781 119.723 190.748 118.374 190.514C115.983 190.116 115.185 189.02 115.185 186.628C115.185 186.232 115.028 185.852 114.748 185.571C114.467 185.291 114.087 185.134 113.691 185.134C113.294 185.134 112.914 185.291 112.634 185.571C112.354 185.852 112.196 186.232 112.196 186.628V186.628Z" fill="#CBC7DB"/>
<path d="M82.3038 249.004C83.7282 249.442 85.0079 250.256 86.0076 251.361C87.0073 252.466 87.6899 253.821 87.9833 255.282C88.089 255.665 88.3426 255.99 88.6883 256.186C89.034 256.383 89.4435 256.434 89.8267 256.328C90.2099 256.222 90.5353 255.969 90.7316 255.623C90.9278 255.277 90.9786 254.868 90.8729 254.484C90.432 252.527 89.4805 250.722 88.1154 249.252C86.7502 247.782 85.0201 246.699 83.1009 246.115C81.2077 245.517 80.4106 248.406 82.3038 249.004V249.004Z" fill="#CBC7DB"/>
<path d="M217.916 260.363C212.435 262.954 205.959 266.94 203.268 272.619C200.578 278.299 200.379 286.569 200.279 292.846C200.179 294.74 203.169 294.74 203.268 292.846C203.368 287.067 203.667 280.79 205.46 275.21C207.254 269.63 214.129 265.445 219.41 262.954C221.204 262.157 219.709 259.566 217.916 260.363Z" fill="#CBC7DB"/>
<path d="M354.723 297.828H218.912C216.105 297.828 213.83 300.103 213.83 302.91V309.925C213.83 312.731 216.105 315.006 218.912 315.006H354.723C357.53 315.006 359.805 312.731 359.805 309.925V302.91C359.805 300.103 357.53 297.828 354.723 297.828Z" fill="#CBC7DB"/>
<path d="M142.587 315.664C130.231 315.664 119.669 309.785 115.185 307.294C100.538 299.024 87.9831 283.281 81.7057 265.046C74.9301 245.218 75.9265 225.29 84.5953 208.749C96.353 186.33 120.964 176.565 130.928 173.476C131.176 173.384 131.441 173.345 131.705 173.361C131.969 173.377 132.227 173.449 132.461 173.571C132.696 173.693 132.903 173.863 133.068 174.07C133.233 174.276 133.353 174.515 133.42 174.771C133.576 175.273 133.528 175.817 133.285 176.284C133.042 176.75 132.625 177.102 132.124 177.262C122.559 180.252 99.1429 189.518 88.0827 210.642C70.5459 244.122 89.2784 288.263 117.178 303.807C122.758 306.896 135.811 314.17 150.06 310.782C157.134 309.187 161.718 305.501 166.5 301.714C171.283 297.928 177.959 292.448 188.222 290.853C192.407 290.256 194.4 290.555 198.685 291.352C202.969 292.149 205.958 292.747 213.133 293.544C223.396 294.839 234.057 296.035 242.626 296.334C254.982 296.633 256.875 294.54 257.174 293.843C258.669 290.256 245.117 275.309 225.687 266.641C190.713 251.196 144.28 259.865 135.313 265.644C134.814 265.843 130.829 268.335 129.135 266.541C128.763 266.183 128.537 265.699 128.501 265.184C128.464 264.669 128.619 264.159 128.936 263.751C132.423 258.57 133.818 249.502 129.832 242.328C129.57 241.862 129.496 241.313 129.626 240.794C129.756 240.276 130.079 239.826 130.53 239.538C131.012 239.308 131.562 239.262 132.076 239.409C132.589 239.556 133.032 239.885 133.32 240.335C137.106 247.211 136.807 255.282 134.516 261.459C146.572 255.481 192.507 247.609 227.282 263.054C245.217 270.925 264.149 287.466 260.861 295.437C257.573 303.408 239.836 300.818 212.634 297.529C205.361 296.633 201.076 295.836 197.987 295.337C194.898 294.839 192.407 294.241 188.82 294.839C179.653 296.234 174.472 300.419 168.991 304.803C163.511 309.187 158.928 312.775 150.956 314.668C148.217 315.337 145.406 315.672 142.587 315.664V315.664Z" fill="#090909"/>
<path d="M132.124 245.516C116.646 253.261 99.3695 256.703 82.1045 255.481C80.2113 255.381 80.2113 258.37 82.1045 258.47C99.8926 259.668 117.678 256.09 133.619 248.107C135.413 247.21 133.818 244.62 132.124 245.516Z" fill="#090909"/>
<path d="M315.166 341.571C332.702 370.566 351.933 399.064 364.687 430.55C365.484 432.244 368.374 431.547 367.577 429.753C354.723 398.067 335.393 369.271 317.756 340.076C316.76 338.482 314.169 339.976 315.166 341.571V341.571Z" fill="#F5F3F0"/>
<path d="M373.854 447.29C377.84 457.653 382.224 467.716 387.106 477.68C388.003 479.374 390.594 477.88 389.697 476.186C384.914 466.521 380.63 456.656 376.744 446.493C376.146 444.799 373.256 445.496 373.854 447.29V447.29Z" fill="#F5F3F0"/>
<path d="M341.77 480.172C315.042 439.019 290.754 396.333 269.031 352.332C268.135 350.638 265.544 352.133 266.441 353.926C288.181 397.905 312.503 440.559 339.279 481.666C340.275 483.261 342.866 481.766 341.77 480.172V480.172Z" fill="#F5F3F0"/>
<path d="M285.572 331.606C303.109 359.007 318.852 387.803 334.595 416.4C350.339 444.997 363.79 473.096 370.566 504.284C371.064 506.177 373.854 505.38 373.456 503.487C366.68 472.598 353.129 444.001 337.983 416.4C322.14 387.305 305.998 358.011 288.163 330.011C287.067 328.417 284.476 329.912 285.572 331.606V331.606Z" fill="#090909"/>
<path d="M397.27 491.131C406.138 488.242 416.401 483.359 425.767 484.754C427.66 485.053 428.457 482.164 426.564 481.865C416.301 480.37 406.138 485.153 396.473 488.242C394.679 488.74 395.476 491.63 397.27 491.131Z" fill="#090909"/>
<path d="M381.925 493.025L390.096 492.028C391.989 491.829 391.989 488.84 390.096 489.039L381.925 490.035C380.032 490.235 380.032 493.224 381.925 493.025Z" fill="#090909"/>
<path d="M279.693 489.238C290.155 487.544 299.721 486.647 309.884 490.334C318.453 493.423 326.823 493.323 335.791 492.626C337.684 492.526 337.684 489.537 335.791 489.637C330.895 490.185 325.959 490.285 321.044 489.936C315.564 489.437 311.08 487.146 305.799 485.751C297.031 483.459 287.764 484.954 278.896 486.349C277.003 486.647 277.8 489.537 279.693 489.238V489.238Z" fill="#090909"/>
<path d="M91.7697 176.365C92.1661 176.365 92.5463 176.207 92.8266 175.927C93.1069 175.647 93.2643 175.266 93.2643 174.87C93.2643 174.474 93.1069 174.094 92.8266 173.813C92.5463 173.533 92.1661 173.375 91.7697 173.375C91.3733 173.375 90.9931 173.533 90.7128 173.813C90.4325 174.094 90.2751 174.474 90.2751 174.87C90.2751 175.266 90.4325 175.647 90.7128 175.927C90.9931 176.207 91.3733 176.365 91.7697 176.365Z" fill="#CBC7DB"/>
<path d="M104.823 364.089L165.404 363.69C165.801 363.69 166.181 363.533 166.461 363.253C166.742 362.972 166.899 362.592 166.899 362.196C166.899 361.799 166.742 361.419 166.461 361.139C166.181 360.859 165.801 360.701 165.404 360.701L104.823 361.1C104.426 361.1 104.046 361.257 103.766 361.537C103.485 361.818 103.328 362.198 103.328 362.594C103.328 362.991 103.485 363.371 103.766 363.651C104.046 363.931 104.426 364.089 104.823 364.089V364.089Z" fill="#090909"/>
<path d="M173.077 363.491H181.746C182.142 363.491 182.522 363.334 182.803 363.053C183.083 362.773 183.24 362.393 183.24 361.997C183.24 361.6 183.083 361.22 182.803 360.94C182.522 360.659 182.142 360.502 181.746 360.502H173.077C172.68 360.502 172.3 360.659 172.02 360.94C171.74 361.22 171.582 361.6 171.582 361.997C171.582 362.393 171.74 362.773 172.02 363.053C172.3 363.334 172.68 363.491 173.077 363.491Z" fill="#090909"/>
<path d="M102.63 174.372C97.9473 177.76 90.7731 177.86 85.1932 177.96C79.6133 178.059 73.8341 177.461 68.1546 177.86C59.2865 178.458 61.5782 190.116 61.1797 196.592C61.08 198.486 64.0693 198.486 64.1689 196.592C64.3682 192.308 63.1725 182.742 68.1546 180.849C69.9481 180.152 73.3359 180.849 75.3287 180.849H81.6061C88.6807 180.949 98.1466 181.148 104.125 176.764C105.719 175.668 104.225 173.077 102.63 174.273V174.372Z" fill="#090909"/>
<path d="M59.984 205.66V218.713C59.984 219.11 60.1415 219.49 60.4218 219.77C60.7021 220.05 61.0822 220.208 61.4786 220.208C61.875 220.208 62.2552 220.05 62.5355 219.77C62.8158 219.49 62.9733 219.11 62.9733 218.713V205.66C62.9733 205.264 62.8158 204.884 62.5355 204.603C62.2552 204.323 61.875 204.166 61.4786 204.166C61.0822 204.166 60.7021 204.323 60.4218 204.603C60.1415 204.884 59.984 205.264 59.984 205.66V205.66Z" fill="#090909"/>
<path d="M150.957 511.757C151.353 511.757 151.733 511.599 152.013 511.319C152.294 511.039 152.451 510.659 152.451 510.262C152.451 509.866 152.294 509.486 152.013 509.205C151.733 508.925 151.353 508.768 150.957 508.768C150.56 508.768 150.18 508.925 149.9 509.205C149.619 509.486 149.462 509.866 149.462 510.262C149.462 510.659 149.619 511.039 149.9 511.319C150.18 511.599 150.56 511.757 150.957 511.757V511.757Z" fill="#090909"/>
<path d="M105.122 531.188C116.78 525.21 131.327 522.519 144.281 522.121C157.234 521.722 173.077 525.309 185.233 531.288C192.108 534.775 198.187 524.412 191.311 521.025C163.113 506.975 127.242 506.377 99.1431 520.825C92.2678 524.313 98.2463 534.675 105.122 531.188V531.188Z" fill="#090909"/>
<path d="M111.598 540.155C119.37 540.155 119.37 528.198 111.598 528.198C103.826 528.198 103.926 540.155 111.598 540.155Z" fill="#090909"/>
<path d="M178.956 541.052C186.728 541.052 186.728 529.095 178.956 529.095C171.184 529.095 171.283 541.052 178.956 541.052Z" fill="#090909"/>
<path d="M145.078 536.568C152.75 536.568 152.85 524.611 145.078 524.611C137.306 524.611 137.405 536.568 145.078 536.568Z" fill="#090909"/>
<path d="M252.092 101.834H220.506V110.582H252.092V101.834Z" fill="#090909"/>
<path d="M258.769 76.6246C263.547 71.6355 266.222 64.9994 266.242 58.0913C266.242 42.4477 252.69 29.7932 235.951 29.7932C219.211 29.7932 205.66 42.4477 205.66 58.0913C205.648 62.6296 206.816 67.0931 209.047 71.0447C209.657 72.9988 210.565 74.8473 211.738 76.525C215.369 81.4471 218.163 86.9346 220.008 92.7665L220.506 93.7629V101.834H252.79V88.7809C254.185 84.5959 256.776 80.411 258.769 76.6246Z" fill="#CBC7DB"/>
<path d="M231.267 59.1868C232.506 62.0855 234.461 64.6225 236.947 66.5603C238.242 67.4571 239.737 67.8556 240.933 68.6528C242.128 69.4499 242.527 68.9517 240.434 70.1474C238.342 71.3431 232.662 77.8198 235.452 81.3072C236.748 82.9015 241.63 82.204 242.328 83.599C243.025 84.9939 236.05 87.8835 234.755 89.1789C229.075 94.4599 236.847 98.8441 235.054 104.424C234.556 105.819 236.748 106.417 237.146 105.022C237.449 104.069 237.552 103.064 237.449 102.07C237.347 101.076 237.04 100.113 236.548 99.2426C235.253 96.0541 232.762 93.3638 237.146 90.0756C238.94 88.7803 241.331 88.7803 243.224 87.7839C245.118 86.7875 246.911 83.4993 244.022 81.8054C241.132 80.1115 239.936 81.3072 238.342 79.8126C236.748 78.318 236.25 77.7201 238.043 75.6276C238.796 74.0927 240.017 72.8367 241.531 72.0406C242.726 71.3431 244.619 71.0442 244.918 69.4499C245.217 67.8556 244.52 67.9553 243.723 67.2578C242.925 66.5603 239.139 65.6635 237.146 63.87C235.444 62.2301 234.089 60.2648 233.161 58.0908C232.563 56.7954 230.67 57.8915 231.267 59.1868V59.1868Z" fill="#090909"/>
<path d="M240.933 17.7361V1.49462C240.933 1.09822 240.775 0.718058 240.495 0.437763C240.215 0.157467 239.834 0 239.438 0C239.042 0 238.661 0.157467 238.381 0.437763C238.101 0.718058 237.943 1.09822 237.943 1.49462V17.7361C237.943 18.1325 238.101 18.5127 238.381 18.793C238.661 19.0733 239.042 19.2308 239.438 19.2308C239.834 19.2308 240.215 19.0733 240.495 18.793C240.775 18.5127 240.933 18.1325 240.933 17.7361Z" fill="#090909"/>
<path d="M269.53 28.3976C273.57 25.7134 277.963 23.6009 282.583 22.1202C284.376 21.5224 283.579 18.6328 281.786 19.2306C276.934 20.8104 272.31 23.0214 268.035 25.8069C266.441 26.903 267.935 29.4937 269.53 28.3976V28.3976Z" fill="#090909"/>
<path d="M278.398 51.9132C283.394 50.7055 288.505 50.0374 293.643 49.9204C295.536 49.8207 295.536 46.8315 293.643 46.9311C288.235 47.0324 282.854 47.7342 277.601 49.0236C275.807 49.5218 276.604 52.4114 278.398 51.9132Z" fill="#090909"/>
<path d="M185.532 57.2943C179.309 55.7692 172.902 55.1318 166.501 55.4011C164.608 55.5007 164.608 58.49 166.501 58.3903C172.633 58.137 178.77 58.7407 184.735 60.1839C186.628 60.5824 187.425 57.6928 185.532 57.2943V57.2943Z" fill="#090909"/>
<path d="M209.745 23.8148C206.033 18.942 201.826 14.4674 197.19 10.4628C195.795 9.16751 193.703 11.3596 195.098 12.5553C199.542 16.3833 203.582 20.657 207.154 25.3094C208.25 26.804 210.841 25.3094 209.745 23.8148Z" fill="#090909"/>
<path d="M206.158 332.403C205.629 332.403 205.122 332.193 204.749 331.819C204.375 331.446 204.165 330.939 204.165 330.41C204.151 330.145 204.192 329.879 204.287 329.631C204.382 329.382 204.529 329.157 204.717 328.969C204.905 328.781 205.13 328.635 205.378 328.54C205.627 328.445 205.892 328.403 206.158 328.417L405.44 327.919C405.969 327.919 406.476 328.129 406.849 328.503C407.223 328.876 407.433 329.383 407.433 329.912C407.433 330.44 407.223 330.947 406.849 331.321C406.476 331.695 405.969 331.905 405.44 331.905L206.158 332.403Z" fill="#090909"/>
<path d="M442.507 279.893H363.89C363.361 279.893 362.855 279.683 362.481 279.309C362.107 278.935 361.897 278.429 361.897 277.9C361.897 277.371 362.107 276.865 362.481 276.491C362.855 276.117 363.361 275.907 363.89 275.907H442.507C443.036 275.907 443.542 276.117 443.916 276.491C444.29 276.865 444.5 277.371 444.5 277.9C444.5 278.429 444.29 278.935 443.916 279.309C443.542 279.683 443.036 279.893 442.507 279.893Z" fill="#090909"/>
<path d="M390.992 210.542H286.269C285.549 210.523 284.839 210.71 284.221 211.081C283.603 211.451 283.104 211.99 282.782 212.635L248.306 303.508C247.609 305.401 249.302 307.294 251.794 307.294H354.424C355.121 307.328 355.813 307.157 356.415 306.803C357.017 306.449 357.502 305.927 357.812 305.301L394.38 214.428C395.177 212.535 393.484 210.542 390.992 210.542Z" fill="#CBC7DB"/>
<path d="M405.44 331.905C405.24 331.915 405.04 331.886 404.852 331.817C404.663 331.749 404.491 331.643 404.344 331.506C404.118 331.377 403.923 331.2 403.773 330.988C403.622 330.775 403.519 330.533 403.472 330.277C403.425 330.021 403.434 329.757 403.498 329.505C403.563 329.253 403.681 329.018 403.846 328.816L440.016 277.202C440.351 276.873 440.791 276.674 441.259 276.638C441.727 276.602 442.193 276.733 442.574 277.007C442.955 277.281 443.227 277.68 443.343 278.135C443.458 278.59 443.409 279.071 443.204 279.494L407.035 331.108C406.855 331.361 406.615 331.567 406.337 331.706C406.059 331.845 405.751 331.913 405.44 331.905Z" fill="#090909"/>
<path d="M448.485 276.105H437.525V510.691H448.485V276.105Z" fill="#090909"/>
<path d="M406.835 331.706H395.875V542.338H406.835V331.706Z" fill="#090909"/>
<path d="M225.189 330.311H214.229V547.38H225.189V330.311Z" fill="#090909"/>
<path d="M414.608 291.949H400.459C400.03 291.955 399.614 291.807 399.285 291.533C398.956 291.259 398.736 290.876 398.665 290.454L392.786 248.704C392.742 248.458 392.753 248.206 392.818 247.964C392.883 247.723 393.001 247.499 393.163 247.308C393.325 247.118 393.527 246.965 393.755 246.862C393.982 246.759 394.23 246.708 394.48 246.712H419.988C420.238 246.708 420.486 246.759 420.714 246.862C420.941 246.965 421.143 247.118 421.305 247.308C421.467 247.499 421.585 247.723 421.65 247.964C421.715 248.206 421.726 248.458 421.682 248.704L416.301 290.454C416.252 290.868 416.053 291.249 415.74 291.525C415.428 291.801 415.024 291.952 414.608 291.949Z" fill="#80A5AE"/>
<path d="M417.995 276.604H397.071L394.58 260.562H420.486L417.995 276.604Z" fill="#CBC7DB"/>
<path d="M320.048 316.062L376.046 315.464C376.443 315.464 376.823 315.306 377.103 315.026C377.383 314.746 377.541 314.366 377.541 313.969C377.541 313.573 377.383 313.193 377.103 312.912C376.823 312.632 376.443 312.475 376.046 312.475L320.048 313.072C318.055 313.172 318.055 316.161 320.048 316.062Z" fill="#090909"/>
<path d="M362.495 320.646L387.405 319.948C389.299 319.849 389.299 316.859 387.405 316.959L362.495 317.656C362.099 317.656 361.719 317.814 361.438 318.094C361.158 318.375 361 318.755 361 319.151C361 319.547 361.158 319.928 361.438 320.208C361.719 320.488 362.099 320.646 362.495 320.646Z" fill="#090909"/>
<path d="M395.975 283.679H379.235C378.838 283.679 378.458 283.836 378.178 284.116C377.898 284.397 377.74 284.777 377.74 285.173C377.74 285.57 377.898 285.95 378.178 286.23C378.458 286.51 378.838 286.668 379.235 286.668H395.975C396.371 286.668 396.751 286.51 397.031 286.23C397.312 285.95 397.469 285.57 397.469 285.173C397.469 284.777 397.312 284.397 397.031 284.116C396.751 283.836 396.371 283.679 395.975 283.679V283.679Z" fill="#090909"/>
<path d="M244.918 440.514H64.5676C64.1712 440.514 63.791 440.671 63.5108 440.951C63.2305 441.232 63.073 441.612 63.073 442.008C63.073 442.405 63.2305 442.785 63.5108 443.065C63.791 443.345 64.1712 443.503 64.5676 443.503H244.918C245.315 443.503 245.695 443.345 245.975 443.065C246.256 442.785 246.413 442.405 246.413 442.008C246.413 441.612 246.256 441.232 245.975 440.951C245.695 440.671 245.315 440.514 244.918 440.514Z" fill="#090909"/>
<path d="M254.484 456.855H128.338C127.942 456.855 127.561 457.013 127.281 457.293C127.001 457.574 126.843 457.954 126.843 458.35C126.843 458.746 127.001 459.127 127.281 459.407C127.561 459.687 127.942 459.845 128.338 459.845H254.484C254.88 459.845 255.26 459.687 255.541 459.407C255.821 459.127 255.978 458.746 255.978 458.35C255.978 457.954 255.821 457.574 255.541 457.293C255.26 457.013 254.88 456.855 254.484 456.855V456.855Z" fill="#090909"/>
<path d="M373.755 370.267H498.505C498.902 370.267 499.282 370.109 499.562 369.829C499.843 369.549 500 369.168 500 368.772C500 368.376 499.843 367.995 499.562 367.715C499.282 367.435 498.902 367.277 498.505 367.277H373.755C373.358 367.277 372.978 367.435 372.698 367.715C372.417 367.995 372.26 368.376 372.26 368.772C372.26 369.168 372.417 369.549 372.698 369.829C372.978 370.109 373.358 370.267 373.755 370.267V370.267Z" fill="#090909"/>
<path d="M426.465 92.1678V88.1822C427.561 88.1822 430.55 83.2998 431.646 71.4424L431.845 69.7485H433.539C446.592 68.7521 451.873 65.5636 451.873 64.3679H455.859C455.859 70.8446 441.909 72.9371 435.532 73.5349C434.735 80.1112 432.443 92.1678 426.465 92.1678Z" fill="#CBC7DB"/>
<path d="M426.465 92.1683C420.486 92.1683 418.294 80.1117 417.497 73.4357C411.02 72.8379 397.07 70.7454 397.07 64.2687C397.07 57.792 410.821 55.6995 417.198 55.1017C417.995 44.2408 420.885 33.3799 426.465 33.3799C432.045 33.3799 434.934 44.2408 435.831 55.1017C442.208 55.6995 455.859 57.8916 455.859 64.2687H451.873C451.873 63.073 446.692 59.9841 433.739 58.8881H432.045V57.1942C431.148 43.344 427.76 37.4652 426.564 37.4652C425.369 37.4652 421.981 43.344 421.084 57.1942V58.8881H419.39C406.536 59.9841 401.255 63.073 401.255 64.2687C401.255 65.4644 406.536 68.6529 419.589 69.6493H421.283L421.483 71.3432C422.579 83.2006 425.568 88.083 426.664 88.083L426.465 92.1683Z" fill="#CBC7DB"/>
<path d="M450.08 126.844C449.551 126.844 449.044 126.634 448.671 126.26C448.297 125.886 448.087 125.379 448.087 124.851C448.081 124.396 448.239 123.955 448.532 123.608C448.825 123.26 449.232 123.029 449.681 122.958C450.179 122.36 451.176 120.168 451.574 115.684V114.089L453.268 113.89C458.151 113.591 460.642 112.495 461.24 111.997C461.333 111.54 461.583 111.13 461.947 110.839C462.312 110.548 462.766 110.393 463.232 110.403C463.761 110.403 464.268 110.613 464.642 110.986C465.015 111.36 465.225 111.867 465.225 112.396C465.225 115.983 459.546 117.278 455.261 117.776C454.763 122.26 453.268 126.844 450.08 126.844Z" fill="#090909"/>
<path d="M450.08 126.843C446.791 126.843 445.396 122.26 444.799 117.776C440.414 117.278 434.834 115.983 434.834 112.396C434.834 108.808 440.315 107.513 444.599 107.015C444.998 102.83 446.293 96.3533 450.08 96.3533C453.866 96.3533 455.062 102.83 455.46 107.015C459.745 107.513 465.325 108.808 465.325 112.396C465.325 112.924 465.115 113.431 464.741 113.805C464.367 114.178 463.86 114.388 463.332 114.388C462.851 114.394 462.385 114.225 462.019 113.914C461.653 113.603 461.411 113.17 461.339 112.694C460.741 112.196 458.25 111.2 453.467 110.801H451.774V109.008C451.67 106.283 451.132 103.592 450.179 101.036C449.581 102.132 448.784 104.823 448.585 109.008L448.386 110.801H446.692C442.806 111.1 440.514 111.798 439.418 112.396C441.78 113.286 444.269 113.791 446.791 113.89L448.485 114.089L448.685 115.684C449.083 120.168 449.98 122.36 450.478 122.957C450.945 123.007 451.377 123.228 451.69 123.578C452.003 123.928 452.175 124.381 452.172 124.851C452.172 125.121 452.118 125.388 452.011 125.637C451.905 125.886 451.749 126.11 451.554 126.296C451.358 126.483 451.126 126.627 450.873 126.721C450.619 126.815 450.35 126.857 450.08 126.843Z" fill="#090909"/>
<path d="M15.2451 378.239C14.7165 378.239 14.2096 378.029 13.8359 377.655C13.4622 377.281 13.2522 376.774 13.2522 376.246C13.2428 375.78 13.3972 375.325 13.6885 374.961C13.9798 374.597 14.3896 374.346 14.8465 374.253C15.3447 373.655 16.3411 371.463 16.7397 367.079V365.385H18.4336C23.316 364.986 25.807 363.99 26.4049 363.392C26.498 362.935 26.7485 362.525 27.1126 362.234C27.4767 361.943 27.9315 361.788 28.3977 361.798C28.9262 361.798 29.4331 362.008 29.8068 362.381C30.1806 362.755 30.3905 363.262 30.3905 363.791C30.3905 367.378 24.711 368.673 20.4264 369.171C19.9282 373.556 18.5332 378.239 15.2451 378.239Z" fill="#090909"/>
<path d="M15.2451 378.239C11.9569 378.239 10.562 373.556 9.96412 369.072C5.67955 368.574 0 367.278 0 363.691C0 360.104 5.48027 358.809 9.76484 358.311C10.1634 354.225 11.4587 347.649 15.2451 347.649C19.0315 347.649 20.2272 354.225 20.6257 358.311C24.9103 358.809 30.4902 360.104 30.4902 363.691C30.4902 364.22 30.2802 364.727 29.9065 365.1C29.5328 365.474 29.0259 365.684 28.4974 365.684C28.0168 365.689 27.5504 365.521 27.1842 365.21C26.818 364.898 26.5766 364.465 26.5046 363.99C25.9067 363.492 23.5153 362.495 18.6329 362.097H16.939V360.403C16.6401 356.118 15.9426 353.528 15.3447 352.332C14.2945 354.893 13.753 357.635 13.7505 360.403V362.097H11.7577C9.25963 362.208 6.79921 362.747 4.48385 363.691C6.83509 364.632 9.32757 365.17 11.8573 365.285H13.5512L13.7505 366.979C14.1491 371.364 15.0458 373.556 15.544 374.153C16.0192 374.226 16.4524 374.467 16.7636 374.833C17.0749 375.199 17.2434 375.666 17.2379 376.146C17.2514 376.416 17.2099 376.686 17.1158 376.94C17.0217 377.193 16.8771 377.425 16.6907 377.62C16.5043 377.816 16.28 377.972 16.0315 378.078C15.783 378.184 15.5154 378.239 15.2451 378.239Z" fill="#090909"/>
<path d="M411.02 239.936C411.319 237.843 410.721 236.449 409.924 234.456C409.127 232.463 407.932 229.773 409.227 227.082C409.725 225.986 411.22 225.189 411.818 224.193C415.903 217.616 407.035 213.73 408.43 207.453C408.828 205.56 405.939 204.763 405.54 206.656C405.252 207.893 405.218 209.175 405.44 210.426C405.663 211.676 406.138 212.868 406.835 213.93C408.43 216.72 411.22 219.111 408.828 223.097C408.23 224.193 406.935 224.89 406.238 226.086C403.149 231.168 408.629 234.954 408.031 239.936C407.732 241.929 410.721 241.829 411.02 239.936V239.936Z" fill="#CBC7DB"/>
<path d="M418.494 239.14C418.494 236.648 419.789 234.257 419.59 231.766C419.39 229.275 418.195 229.275 417.597 227.78C416.999 226.286 420.686 222.998 418.892 219.809C417.995 218.115 415.405 219.61 416.401 221.304C417.398 222.998 413.91 225.788 414.309 227.88C414.707 229.973 416.401 230.57 416.6 232.264C416.8 233.958 415.504 236.848 415.504 239.14C415.504 241.431 418.394 241.033 418.494 239.14Z" fill="#CBC7DB"/>
<path d="M402.152 237.843C398.964 235.95 398.266 233.459 400.458 230.271C401.097 229.475 401.572 228.561 401.853 227.58C402.551 224.591 400.06 222.1 400.658 219.111C401.255 216.122 398.067 216.42 397.768 218.314C397.469 220.207 397.868 221.801 398.465 223.894C399.561 227.481 396.971 228.676 395.974 231.666C394.978 234.655 397.668 238.64 400.658 240.334C403.647 242.028 403.746 238.74 402.152 237.843Z" fill="#CBC7DB"/>
<path d="M159.625 173.873C157.533 177.76 150.857 177.361 147.17 177.062C143.484 176.763 138.103 174.87 135.313 171.482C134.018 169.987 131.925 172.18 133.121 173.575C136.907 178.058 143.284 180.051 148.964 180.051C154.643 180.051 159.526 180.151 162.216 175.468C163.113 173.774 160.522 172.279 159.625 173.873V173.873Z" fill="#80A5AE"/>
<path d="M135.114 173.475C134.914 173.675 139.398 175.767 140.096 175.966C142.746 176.858 145.486 177.459 148.266 177.76C150.527 178.008 152.812 177.907 155.042 177.461C156.337 177.162 159.924 174.97 160.921 175.07L159.526 173.974L159.127 173.774C157.334 174.571 158.828 177.162 160.622 176.365C162.415 175.568 163.013 174.87 162.415 173.177C162.3 172.868 162.097 172.601 161.831 172.406C161.566 172.211 161.249 172.098 160.921 172.08C158.928 171.881 156.935 173.874 155.042 174.372C151.255 175.468 147.17 174.87 143.483 173.874C141.703 173.442 139.968 172.841 138.302 172.08C137.804 171.782 136.608 170.486 135.811 170.387C135.308 170.274 134.785 170.297 134.294 170.455C133.803 170.613 133.364 170.899 133.021 171.283C132.73 171.561 132.562 171.942 132.553 172.344C132.543 172.746 132.694 173.135 132.971 173.426C133.249 173.716 133.63 173.885 134.032 173.894C134.434 173.904 134.823 173.753 135.114 173.475V173.475Z" fill="#80A5AE"/>
<path d="M136.21 171.383C133.918 167.497 131.626 163.013 126.843 162.017C122.061 161.02 115.285 162.914 110.104 163.711C108.609 163.91 108.808 165.803 109.705 166.501C116.381 171.582 125.448 177.66 134.018 173.774C135.711 172.977 134.217 170.387 132.523 171.184C125.349 174.472 116.68 168.095 111.2 163.91L110.901 166.6C114.687 166.002 118.474 165.305 122.36 165.006C128.637 164.408 130.829 168.195 133.619 172.878C134.615 174.472 137.206 172.977 136.21 171.383V171.383Z" fill="#80A5AE"/>
<path d="M134.217 170.585C130.63 168.393 129.035 165.503 124.651 164.706C121.262 164.076 117.789 164.042 114.388 164.607C114.126 164.641 113.88 164.755 113.684 164.933C113.488 165.111 113.351 165.345 113.292 165.603C112.694 168.891 117.876 170.386 120.167 171.482C122.459 172.578 127.64 175.368 130.231 173.275C132.822 171.183 130.829 168.094 129.733 166.4C128.823 165.172 127.575 164.236 126.142 163.705C124.709 163.174 123.152 163.072 121.662 163.411C119.37 163.909 116.78 165.603 117.876 168.293C118.972 170.984 123.854 171.283 126.544 171.283C129.235 171.283 130.131 169.589 128.637 167.696C127.142 165.802 121.263 166.201 118.772 166.699C116.281 167.197 117.577 169.091 118.772 169.589C121.662 170.585 125.349 169.987 127.74 171.98C130.131 173.973 131.427 171.083 129.932 169.888C126.843 167.397 123.157 167.994 119.57 166.699V169.589C121.463 169.19 122.858 169.688 124.651 169.489C126.445 169.29 127.142 169.29 126.245 168.194C125.349 167.098 123.157 168.293 122.359 167.895C121.562 167.496 120.765 167.496 121.961 166.4C122.389 166.22 122.852 166.135 123.317 166.152C123.782 166.169 124.237 166.288 124.651 166.5C125.648 166.799 128.537 168.393 128.039 169.888C127.541 171.382 124.552 170.087 123.754 169.788C121.164 168.792 117.776 167.496 115.684 165.503L116.082 166.998C115.982 167.596 120.267 167.297 120.765 167.297C122.522 167.31 124.267 167.579 125.947 168.094C128.537 169.091 130.43 171.681 132.722 173.176C133.066 173.374 133.474 173.428 133.857 173.325C134.24 173.222 134.567 172.971 134.765 172.628C134.963 172.284 135.017 171.876 134.914 171.493C134.811 171.11 134.56 170.783 134.217 170.585V170.585Z" fill="#80A5AE"/>
<path d="M295.038 222.399L350.14 221.801C350.536 221.801 350.916 221.644 351.197 221.363C351.477 221.083 351.634 220.703 351.634 220.307C351.634 219.91 351.477 219.53 351.197 219.25C350.916 218.97 350.536 218.812 350.14 218.812L295.038 219.41C294.642 219.41 294.261 219.567 293.981 219.848C293.701 220.128 293.543 220.508 293.543 220.904C293.543 221.301 293.701 221.681 293.981 221.961C294.261 222.242 294.642 222.399 295.038 222.399Z" fill="#F5F3F0"/>
<path d="M291.251 226.684C289.201 229.838 287.592 233.257 286.469 236.847C285.871 238.641 288.76 239.438 289.358 237.644C290.445 234.311 291.951 231.13 293.842 228.178C294.938 226.484 292.347 224.99 291.251 226.684V226.684Z" fill="#F5F3F0"/>
<path d="M355.022 221.603H355.919C356.315 221.603 356.695 221.446 356.976 221.165C357.256 220.885 357.413 220.505 357.413 220.108C357.413 219.712 357.256 219.332 356.976 219.052C356.695 218.771 356.315 218.614 355.919 218.614H355.022C354.626 218.614 354.245 218.771 353.965 219.052C353.685 219.332 353.527 219.712 353.527 220.108C353.527 220.505 353.685 220.885 353.965 221.165C354.245 221.446 354.626 221.603 355.022 221.603Z" fill="#F5F3F0"/>
<path d="M294.44 299.323H347.848C348.244 299.323 348.624 299.166 348.905 298.885C349.185 298.605 349.342 298.225 349.342 297.829C349.342 297.432 349.185 297.052 348.905 296.772C348.624 296.491 348.244 296.334 347.848 296.334H294.44C294.044 296.334 293.663 296.491 293.383 296.772C293.103 297.052 292.945 297.432 292.945 297.829C292.945 298.225 293.103 298.605 293.383 298.885C293.663 299.166 294.044 299.323 294.44 299.323V299.323Z" fill="#090909"/>
<path d="M352.531 299.721H353.727C354.123 299.721 354.503 299.563 354.783 299.283C355.064 299.003 355.221 298.622 355.221 298.226C355.198 297.837 355.032 297.471 354.757 297.195C354.482 296.92 354.115 296.755 353.727 296.731H352.531C352.134 296.731 351.754 296.889 351.474 297.169C351.194 297.449 351.036 297.83 351.036 298.226C351.036 298.622 351.194 299.003 351.474 299.283C351.754 299.563 352.134 299.721 352.531 299.721Z" fill="#090909"/>
<path d="M255.381 303.507H266.142C266.538 303.507 266.918 303.349 267.199 303.069C267.479 302.789 267.637 302.409 267.637 302.012C267.637 301.616 267.479 301.236 267.199 300.955C266.918 300.675 266.538 300.518 266.142 300.518H255.381C254.984 300.518 254.604 300.675 254.324 300.955C254.044 301.236 253.886 301.616 253.886 302.012C253.886 302.409 254.044 302.789 254.324 303.069C254.604 303.349 254.984 303.507 255.381 303.507V303.507Z" fill="#090909"/>
</svg>
