<svg width="470" height="477" viewBox="0 0 470 477" fill="none" xmlns="http://www.w3.org/2000/svg">
<path d="M251.299 441.688L252.014 463.354C252.042 463.957 251.946 464.559 251.731 465.123C251.517 465.687 251.188 466.2 250.766 466.632C250.345 467.063 249.838 467.403 249.279 467.63C248.72 467.858 248.121 467.967 247.517 467.953L203.267 468.566C202.81 468.594 202.353 468.531 201.921 468.381C201.488 468.232 201.09 467.998 200.748 467.695C200.406 467.391 200.128 467.022 199.929 466.611C199.73 466.199 199.614 465.752 199.588 465.296V465.296C199.179 452.623 201.734 442.608 214.815 442.404" fill="#CBC7DB"/>
<path d="M200.814 462.026C211.189 460.035 221.817 459.725 232.29 461.106C234.948 461.515 237.911 462.639 240.364 461.412C242.816 460.186 242.203 458.96 243.225 457.018C244.823 454.243 247.306 452.083 250.277 450.886C250.602 450.751 250.968 450.75 251.294 450.884C251.619 451.018 251.879 451.277 252.014 451.602C252.15 451.927 252.15 452.293 252.016 452.619C251.882 452.944 251.624 453.204 251.299 453.339C248.573 454.46 246.38 456.581 245.167 459.266C244.656 460.493 244.86 462.843 243.941 463.865C243.021 464.887 237.4 464.683 235.152 464.274C223.864 462.519 212.363 462.657 201.121 464.683C199.384 465.092 199.077 462.332 200.814 462.026Z" fill="#80A5AE"/>
<path d="M232.393 448.74C232.718 448.889 232.97 449.161 233.095 449.497C233.22 449.832 233.206 450.203 233.057 450.529C232.908 450.854 232.636 451.106 232.3 451.231C231.965 451.356 231.594 451.342 231.268 451.193L218.698 445.368" fill="#80A5AE"/>
<path d="M220.844 449.047C222.071 450.273 220.333 452.317 219.107 451.091C217.076 449.216 214.564 447.942 211.851 447.412" fill="#80A5AE"/>
<path d="M140.416 44.659C138.563 52.3889 137.671 60.3178 137.759 68.2661C137.759 68.6727 137.921 69.0626 138.208 69.3501C138.496 69.6375 138.886 69.7991 139.292 69.7991C139.699 69.7991 140.089 69.6375 140.376 69.3501C140.664 69.0626 140.825 68.6727 140.825 68.2661C140.725 60.5987 141.549 52.9471 143.278 45.4765C143.789 43.637 140.825 42.8194 140.416 44.659V44.659Z" fill="#80A5AE"/>
<path d="M155.848 72.7637C158.199 77.2603 166.783 79.5086 171.28 76.3405Z" fill="#F5F3F0"/>
<path d="M165.965 79.8148C164.727 79.8307 163.491 79.6934 162.286 79.406C158.505 78.4862 155.439 76.3401 154.111 73.7852C153.911 73.3171 153.893 72.7913 154.06 72.3106C154.227 71.8299 154.568 71.4289 155.015 71.1861C155.462 70.9433 155.984 70.8761 156.479 70.9977C156.973 71.1192 157.404 71.4209 157.688 71.8435C158.505 73.4786 160.651 74.8072 163.206 75.5225C165.761 76.2379 168.52 75.8291 170.155 74.705C170.362 74.5466 170.598 74.4314 170.85 74.3661C171.102 74.3008 171.364 74.2869 171.622 74.325C171.879 74.3631 172.126 74.4526 172.348 74.5881C172.57 74.7236 172.763 74.9024 172.915 75.1138C173.09 75.3227 173.219 75.5663 173.294 75.8285C173.369 76.0907 173.387 76.3658 173.349 76.6357C173.31 76.9057 173.215 77.1645 173.07 77.3953C172.925 77.6261 172.733 77.8237 172.506 77.9752C170.557 79.2246 168.28 79.865 165.965 79.8148Z" fill="#80A5AE"/>
<path d="M249.153 73.5806C249.05 73.0696 248.539 72.8652 248.028 72.763C237.556 72.1971 227.054 72.9179 216.757 74.9091C214.337 74.9335 211.932 75.2771 209.603 75.9311L202.143 77.6684C192.332 78.8948 179.762 78.486 169.747 78.5882C169.599 78.5882 169.453 78.6172 169.317 78.6737C169.18 78.7302 169.056 78.813 168.952 78.9174C168.847 79.0218 168.765 79.1457 168.708 79.2821C168.652 79.4185 168.623 79.5647 168.623 79.7123C168.623 79.8599 168.652 80.0061 168.708 80.1425C168.765 80.2789 168.847 80.4028 168.952 80.5072C169.056 80.6116 169.18 80.6944 169.317 80.7509C169.453 80.8074 169.599 80.8365 169.747 80.8365C169.134 81.5518 169.542 82.7782 169.747 83.9023C170.666 91.4648 167.703 98.4141 158.914 98.6185C155.133 98.7207 152.271 98.7207 149.614 96.268C146.957 93.8153 144.709 87.4792 144.709 82.5738C144.709 79.6101 141.847 78.0772 138.986 78.486C127.233 80.4277 116.605 87.2748 106.896 93.5087C97.1879 99.7426 89.2166 106.692 85.5376 116.809C81.8586 126.927 83.8003 138.884 82.3696 149.818C81.6542 155.746 78.1796 160.856 77.1576 166.578C76.1357 172.301 78.1795 177.002 84.4135 176.798C87.8881 176.696 91.3628 175.367 94.9397 175.163C98.6234 175.095 102.308 175.231 105.977 175.572C113.437 176.287 118.24 177.411 125.7 178.331C125.7 180.375 125.496 182.623 125.7 184.667C125.905 186.711 125.292 189.368 126.416 190.186C125.598 192.638 131.219 193.66 134.898 193.865C150.265 194.529 165.66 194.222 180.988 192.945C186.916 192.434 193.354 191.616 196.522 186.2C199.69 180.784 199.997 173.323 200.712 167.396C201.427 161.469 201.836 153.804 202.347 147.059C202.858 140.314 202.756 132.956 205.924 127.029C209.092 121.101 213.18 115.89 216.552 110.269C219.925 104.648 223.604 97.8009 226.772 91.3626C227.053 90.8319 227.217 90.247 227.252 89.6475C227.287 89.048 227.193 88.4479 226.976 87.888C228.455 86.8182 229.99 85.8288 231.575 84.9243C234.845 83.0848 238.013 82.4716 241.59 81.654C245.167 80.8365 250.175 78.2816 249.153 73.5806ZM179.149 80.9387H179.353C179.353 80.9658 179.342 80.9918 179.323 81.0109C179.304 81.0301 179.278 81.0409 179.251 81.0409L179.149 80.9387Z" fill="#CBC7DB"/>
<path d="M117.525 269.796C115.788 276.03 118.24 281.446 120.999 287.067C123.054 290.911 124.371 295.105 124.883 299.433C125.189 302.396 126.211 313.127 120.591 308.528C120.36 308.342 120.084 308.221 119.79 308.18C119.497 308.139 119.198 308.178 118.925 308.293C118.652 308.409 118.416 308.596 118.241 308.835C118.067 309.075 117.96 309.357 117.934 309.652C117.831 312.718 118.751 319.974 115.583 321.098C112.415 322.222 106.692 321.098 103.32 321.098C99.9472 321.098 96.0638 321.302 92.3848 321.2C88.7057 321.098 83.9025 318.85 80.7345 315.068C69.7995 302.396 70.8214 283.899 72.2522 268.263C72.4566 266.321 69.3907 266.321 69.1863 268.263C67.6534 285.636 66.7336 309.959 82.9827 321.302C90.2386 326.412 101.582 324.164 109.962 324.164C112.517 324.164 118.138 325.288 120.08 322.733C122.021 320.178 120.897 312.922 120.999 309.652L118.445 310.776C120.284 312.207 122.941 314.046 125.394 313.025C127.847 312.003 128.153 307.608 128.153 304.951C128.399 299.936 127.599 294.924 125.803 290.235C123.248 283.797 118.445 277.971 120.489 270.613C121.102 268.672 118.138 267.854 117.525 269.796V269.796Z" fill="#80A5AE"/>
<path d="M72.3548 269.08C71.435 251.094 70.8218 233.516 74.1942 215.632C76.6469 202.653 79.8149 189.776 81.961 176.695C82.2676 174.754 79.3041 173.936 78.9975 175.878C76.7492 189.368 73.4789 202.653 71.0262 216.041C67.7559 233.72 68.3691 251.298 69.2889 269.08C69.3911 271.124 72.457 271.124 72.3548 269.08V269.08Z" fill="#80A5AE"/>
<path d="M120.182 271.022C124.985 259.269 125.292 246.597 125.7 234.129C126.007 224.625 126.416 215.019 126.722 205.515C127.54 185.178 128.46 164.739 129.175 144.3C129.175 143.893 129.014 143.503 128.726 143.216C128.439 142.928 128.049 142.767 127.642 142.767C127.236 142.767 126.846 142.928 126.558 143.216C126.271 143.503 126.109 143.893 126.109 144.3C125.496 164.228 124.576 184.156 123.759 204.084C123.35 213.384 123.043 222.786 122.635 232.085C122.226 245.064 122.226 258.145 117.218 270.204C116.503 272.044 119.467 272.861 120.182 271.022V271.022Z" fill="#80A5AE"/>
<path d="M284.717 70.6165C291.053 76.135 298.922 79.4053 305.463 84.7194C312.125 90.3096 317.583 97.1933 321.507 104.954C325.726 113.144 328.525 121.99 329.785 131.116C330.485 136.093 330.826 141.113 330.807 146.139C330.705 151.147 331.114 158.198 328.354 162.592C325.595 166.987 322.12 162.49 317.93 163.103C313.74 163.717 314.047 168.111 310.777 166.68C307.506 165.249 307.915 163.001 304.849 162.695C301.784 162.388 296.674 165.556 296.265 159.629C295.958 155.643 297.9 151.555 297.491 147.672C297.287 146.343 297.491 145.832 296.061 144.81C294.63 143.788 294.017 144.504 292.381 144.402C284.308 143.993 290.644 133.058 291.666 128.766C292.668 124.864 293.014 120.824 292.688 116.809C292.201 108.766 289.198 101.08 284.104 94.8368C282.877 93.3039 280.731 95.45 281.958 96.9829C285.292 101.171 287.647 106.052 288.85 111.269C290.052 116.486 290.072 121.905 288.907 127.131C287.68 132.956 281.242 142.869 288.6 147.263C289.458 147.884 290.51 148.174 291.564 148.081C291.973 148.081 294.017 146.956 294.221 147.059C294.425 147.161 294.017 151.76 293.914 152.884C293.506 156.461 291.564 163.103 294.936 165.76C298.309 168.418 299.637 166.476 302.192 166.169C307.302 165.556 308.324 170.972 312.718 170.461C313.587 170.301 314.398 169.913 315.069 169.337C317.317 167.6 317.522 166.271 320.792 167.498C324.062 168.724 325.391 169.439 328.252 167.6C334.997 163.103 333.975 150.227 333.873 143.38C333.736 133.252 331.977 123.211 328.661 113.641C325.333 104.144 320.119 95.4187 313.332 87.9897C305.667 79.7119 295.243 75.7262 286.863 68.3682C285.432 67.1418 283.184 69.2879 284.717 70.6165V70.6165Z" fill="#80A5AE"/>
<path d="M162.695 447.412C175.776 452.113 198.975 447.616 199.077 430.549C199.281 407.453 198.566 384.255 198.975 361.056C199.588 319.974 201.632 278.687 199.486 237.707C198.566 221.866 198.055 205.208 193.967 189.777C193.859 189.384 193.599 189.05 193.244 188.849C192.89 188.648 192.47 188.595 192.077 188.704C191.684 188.812 191.35 189.072 191.149 189.427C190.947 189.781 190.895 190.201 191.004 190.594C194.376 203.369 195.091 216.961 195.909 230.042C196.726 243.123 197.237 258.452 197.237 272.76C197.237 315.375 195.398 357.991 195.5 400.606C195.602 406.636 195.602 412.767 195.807 418.899C196.011 425.031 197.646 432.593 194.683 437.294C191.719 441.995 185.281 444.244 180.477 445.368C174.852 446.705 168.96 446.386 163.513 444.448C161.673 443.835 160.856 446.798 162.695 447.412V447.412Z" fill="#80A5AE"/>
<path d="M165.557 238.218C166.374 246.7 164.126 254.773 162.491 263.051C161.096 270.882 160.31 278.808 160.14 286.76C159.425 304.236 158.914 321.813 158.403 339.391L154.826 444.959C154.724 446.901 157.79 446.901 157.892 444.959L161.469 339.391C161.98 321.813 162.491 304.236 163.206 286.76C163.424 277.868 164.415 269.012 166.17 260.292C167.805 252.934 169.338 245.78 168.623 238.218C168.418 236.276 165.352 236.276 165.557 238.218V238.218Z" fill="#80A5AE"/>
<path d="M100.969 322.426C99.6068 356.764 97.8694 391.102 95.7573 425.44C95.5529 429.527 95.2464 433.615 94.9398 437.601C94.6332 441.586 93.9179 444.55 94.8377 447.616C96.2684 452.726 101.48 451.704 105.67 451.193C122.022 449.251 138.066 444.55 154.724 446.39C156.666 446.594 156.666 443.528 154.724 443.324C140.519 441.791 126.723 444.857 112.824 447.105C109.349 447.718 104.648 449.149 101.174 448.638C95.9618 447.718 97.8013 441.075 98.0057 437.601L99.5386 414.402C101.378 383.744 102.877 353.085 104.035 322.426C104.137 320.383 101.072 320.485 100.969 322.426V322.426Z" fill="#80A5AE"/>
<path d="M163.615 443.937C160.709 443.479 157.768 443.274 154.826 443.324C152.885 443.426 152.885 446.492 154.826 446.39C157.493 446.356 160.158 446.527 162.798 446.901C164.637 447.105 165.557 444.244 163.615 443.937Z" fill="#80A5AE"/>
<path d="M289.52 277.052C289.184 277.078 288.848 277.016 288.543 276.873C288.238 276.73 287.976 276.51 287.782 276.235C287.493 275.78 287.385 275.234 287.48 274.704C287.574 274.174 287.865 273.699 288.293 273.373L288.6 273.169C301.783 263.665 344.194 229.225 339.187 185.383C337.449 169.951 334.179 149.512 330.909 142.767C330.788 142.534 330.716 142.278 330.698 142.016C330.679 141.753 330.714 141.49 330.8 141.242C330.886 140.993 331.021 140.765 331.198 140.57C331.375 140.376 331.589 140.219 331.829 140.11C332.07 139.988 332.333 139.914 332.603 139.894C332.873 139.874 333.144 139.908 333.4 139.994C333.657 140.079 333.894 140.215 334.098 140.393C334.302 140.571 334.468 140.787 334.588 141.03C338.982 150.023 342.355 176.901 343.275 184.974C348.487 230.962 304.543 266.628 291.053 276.439L290.644 276.643C290.493 276.783 290.316 276.892 290.123 276.962C289.93 277.032 289.725 277.063 289.52 277.052Z" fill="#80A5AE"/>
<path d="M260.905 233.823C260.66 233.837 260.415 233.798 260.186 233.71C259.957 233.622 259.749 233.486 259.576 233.312C259.365 233.145 259.19 232.935 259.064 232.697C258.937 232.458 258.862 232.196 258.843 231.926C258.824 231.657 258.861 231.387 258.952 231.133C259.043 230.879 259.186 230.646 259.372 230.451C271.076 216.763 278.659 200.037 281.242 182.214C283.083 169.795 282.563 157.14 279.709 144.913C279.613 144.387 279.717 143.843 280 143.39C280.284 142.936 280.727 142.604 281.242 142.46C281.504 142.4 281.775 142.391 282.04 142.436C282.305 142.48 282.558 142.576 282.786 142.718C283.014 142.861 283.211 143.047 283.367 143.265C283.523 143.484 283.634 143.731 283.695 143.993C286.684 156.719 287.239 169.896 285.33 182.828C282.602 201.413 274.665 218.846 262.438 233.108C262.253 233.335 262.019 233.517 261.753 233.641C261.488 233.765 261.198 233.827 260.905 233.823V233.823Z" fill="#80A5AE"/>
<path d="M212.158 202.653C211.643 202.653 211.149 202.449 210.785 202.085C210.421 201.72 210.216 201.227 210.216 200.712C208.785 179.148 207.15 140.621 211.034 124.372C214.215 110.985 219.2 98.0929 225.852 86.0482C226.111 85.5757 226.546 85.2246 227.063 85.0715C227.58 84.9184 228.136 84.9756 228.611 85.2307C228.855 85.3481 229.073 85.5154 229.248 85.7218C229.424 85.9282 229.555 86.1691 229.632 86.4291C229.709 86.689 229.73 86.9622 229.695 87.231C229.661 87.4998 229.57 87.7584 229.429 87.99C222.956 99.7487 218.109 112.331 215.019 125.393C212.158 136.942 211.953 163.717 214.202 200.507C214.23 200.77 214.204 201.037 214.125 201.289C214.047 201.542 213.917 201.776 213.745 201.977C213.573 202.178 213.361 202.342 213.124 202.458C212.886 202.574 212.627 202.641 212.362 202.653H212.158Z" fill="#80A5AE"/>
<path d="M275.11 208.888C283.899 212.771 291.053 220.742 297.082 227.998C303.81 235.966 307.63 245.984 307.915 256.409C308.017 258.453 311.083 258.453 310.981 256.409C310.689 245.919 307.074 235.792 300.659 227.487C294.323 219.414 286.249 210.421 276.643 206.333C274.906 205.515 273.271 208.172 275.11 208.888Z" fill="#80A5AE"/>
<path d="M179.966 199.281C182.725 206.742 185.485 214.202 187.018 221.969C188.551 229.736 188.755 238.116 188.551 246.291C188.382 263.775 186.982 281.226 184.361 298.513C183.236 306.076 181.806 313.536 181.499 321.201C181.193 328.865 181.397 337.45 181.193 345.523C180.988 362.794 180.068 380.065 178.535 397.234C178.331 399.482 181.806 399.482 182.01 397.234C183.543 379.759 184.463 362.079 184.769 344.501C184.872 336.121 184.463 327.741 185.076 319.361C185.689 310.981 187.426 302.601 188.551 294.323C190.762 277.72 191.957 260.997 192.127 244.247C192.127 236.481 191.923 228.714 190.39 220.947C188.857 213.18 186.098 205.822 183.339 198.362C182.623 196.318 179.251 197.237 179.966 199.281V199.281Z" fill="#090909"/>
<path d="M111.7 439.645C112.211 401.833 119.466 364.429 117.32 326.617C117.116 324.369 113.641 324.369 113.743 326.617C115.992 364.429 108.736 401.833 108.225 439.645C108.225 440.106 108.408 440.548 108.734 440.874C109.06 441.199 109.501 441.382 109.962 441.382C110.423 441.382 110.865 441.199 111.191 440.874C111.517 440.548 111.7 440.106 111.7 439.645V439.645Z" fill="#090909"/>
<path d="M300.966 441.382L304.645 464.682C305.053 467.339 302.907 469.792 299.842 470.099L247.62 476.23C246.582 476.387 245.523 476.149 244.652 475.562C243.781 474.975 243.163 474.083 242.919 473.062C240.772 459.47 242.408 448.331 257.941 446.492" fill="#CBC7DB"/>
<path d="M299.535 449.558C301.068 448.229 303.418 450.375 301.885 451.704C298.002 455.076 296.264 459.368 296.98 464.172C297.011 464.445 296.973 464.722 296.869 464.977C296.765 465.232 296.598 465.457 296.384 465.63C296.17 465.804 295.916 465.92 295.645 465.969C295.374 466.017 295.095 465.997 294.834 465.909C285.023 464.478 275.519 466.522 266.015 468.668C259.167 470.201 251.094 473.778 243.94 471.53C243.715 471.504 243.498 471.429 243.305 471.309C243.112 471.19 242.948 471.029 242.825 470.838C242.702 470.648 242.622 470.432 242.593 470.207C242.563 469.982 242.583 469.753 242.653 469.537C242.722 469.321 242.839 469.123 242.994 468.958C243.15 468.792 243.339 468.663 243.551 468.58C243.762 468.497 243.989 468.462 244.215 468.477C244.442 468.492 244.662 468.558 244.86 468.668C249.868 470.303 255.08 468.259 259.985 467.033L273.168 464.069C279.854 462.692 286.702 462.28 293.505 462.843C293.301 457.836 295.345 453.339 299.535 449.558" fill="#80A5AE"/>
<path d="M266.015 447.003C270.818 447.616 275.621 448.536 278.994 451.806C280.424 453.237 278.074 455.281 276.643 453.85C273.679 450.886 269.285 450.375 265.095 449.762" fill="#80A5AE"/>
<path d="M250.686 447.719C257.226 448.332 263.767 449.15 268.774 453.237C270.307 454.566 267.957 456.61 266.424 455.281C262.029 451.807 256.204 451.193 250.583 450.682" fill="#80A5AE"/>
<path d="M131.73 428.812C132.854 408.067 134.285 387.321 134.898 366.575C135.511 345.83 134.694 326.31 135.205 306.178C135.92 275.519 135.818 244.35 140.11 213.793C140.417 211.647 137.044 210.727 136.738 212.873C132.446 243.328 132.446 274.293 131.73 304.951C131.219 324.777 131.935 344.706 131.424 364.531C130.913 385.992 129.38 407.454 128.256 428.812C128.153 431.061 131.628 431.061 131.73 428.812V428.812Z" fill="#090909"/>
<path d="M149.818 217.268C150.738 268.263 146.446 319.565 141.847 370.357C140.314 387.014 138.679 403.672 137.044 420.33C136.84 422.476 140.314 422.476 140.519 420.33C145.833 365.962 150.84 311.492 152.782 256.92C153.293 243.736 153.497 230.451 153.293 217.268C153.293 215.019 149.716 215.019 149.818 217.268V217.268Z" fill="#090909"/>
<path d="M173.017 205.311C175.626 218.571 177.367 231.987 178.229 245.474C179.149 258.657 180.069 272.556 177.616 285.637C177.207 287.783 180.579 288.703 180.988 286.557C183.441 273.067 182.623 258.964 181.704 245.474C180.784 231.984 179.251 217.881 176.389 204.391C175.981 202.245 172.608 203.165 173.017 205.311Z" fill="#090909"/>
<path d="M172.812 324.981C173.323 342.354 172.914 358.91 169.338 375.874C166.108 391.054 164.6 406.549 164.841 422.067C164.943 424.315 168.418 424.315 168.418 422.067C168.111 405.205 170.155 389.466 173.528 373.013C176.9 356.56 176.798 341.128 176.287 324.981C176.287 322.733 172.71 322.733 172.812 324.981V324.981Z" fill="#090909"/>
<path d="M81.0408 169.644C83.2891 166.885 87.9901 167.293 91.2603 166.987C94.5306 166.68 97.6986 166.476 100.969 166.476C107.864 166.395 114.706 167.68 121.101 170.257C123.145 171.075 124.065 167.702 122.021 166.885C114.152 163.717 105.874 162.797 97.392 163.103C91.9757 163.308 82.3693 162.593 78.4859 167.191C77.0551 168.929 79.5078 171.381 81.0408 169.644V169.644Z" fill="#090909"/>
<path d="M162.798 132.343C168.725 132.343 168.725 123.146 162.798 123.146C156.87 123.146 156.87 132.343 162.798 132.343Z" fill="#090909"/>
<path d="M163.309 156.359C169.236 156.359 169.236 147.161 163.309 147.161C157.381 147.161 157.381 156.359 163.309 156.359Z" fill="#090909"/>
<path d="M99.3337 440.769C103.421 441.383 107.612 442.609 111.699 442.711C115.787 442.813 120.488 440.872 124.474 439.748C124.668 439.694 124.851 439.602 125.01 439.478C125.169 439.354 125.302 439.2 125.402 439.024C125.502 438.849 125.566 438.655 125.59 438.455C125.615 438.255 125.601 438.052 125.547 437.857C125.493 437.662 125.402 437.48 125.278 437.321C125.154 437.162 124.999 437.028 124.824 436.929C124.648 436.829 124.455 436.765 124.254 436.74C124.054 436.715 123.851 436.73 123.656 436.784C119.773 437.806 115.276 439.645 111.393 439.543C107.509 439.441 103.83 438.419 100.151 437.806C98.3118 437.499 97.392 440.463 99.3337 440.769Z" fill="#80A5AE"/>
<path d="M137.453 437.396C141.668 436.492 145.934 435.844 150.227 435.455C152.169 435.25 152.169 432.184 150.227 432.389C145.662 432.812 141.123 433.495 136.635 434.433C136.242 434.541 135.908 434.801 135.707 435.156C135.506 435.51 135.454 435.93 135.562 436.323C135.671 436.716 135.931 437.05 136.285 437.251C136.64 437.453 137.06 437.505 137.453 437.396V437.396Z" fill="#80A5AE"/>
<path d="M165.863 436.068C172.734 436.955 179.716 436.003 186.098 433.309C187.835 432.491 186.302 429.834 184.565 430.652C178.74 433.309 172.097 433.616 165.863 433.002C163.922 432.696 163.922 435.864 165.863 436.068V436.068Z" fill="#80A5AE"/>
<path d="M258.963 233.006C260.598 241.59 264.277 250.277 268.365 257.941C272.453 265.606 280.731 271.227 287.271 276.95C288.396 277.972 290.031 276.337 288.907 275.315C282.57 269.694 274.497 264.277 270.409 256.715C266.136 249.117 263.035 240.917 261.212 232.392C261.007 230.962 258.759 231.575 258.963 233.006Z" fill="#80A5AE"/>
<path d="M142.004 331.501L59.3336 330.491C55.6088 330.445 52.5523 333.428 52.5068 337.153L51.8299 392.559C51.7844 396.284 54.767 399.34 58.4919 399.386L141.162 400.396C144.887 400.441 147.943 397.459 147.989 393.734L148.666 338.327C148.711 334.603 145.728 331.546 142.004 331.501Z" fill="#80A5AE"/>
<path d="M106.884 363.519L106.985 355.241C107.01 353.21 105.383 351.542 103.351 351.518L92.1819 351.381C90.1502 351.356 88.483 352.983 88.4582 355.015L88.357 363.292C88.3322 365.324 89.9591 366.991 91.9909 367.016L103.16 367.152C105.192 367.177 106.859 365.55 106.884 363.519Z" fill="#090909"/>
<path d="M76.9531 312.003C70.4126 316.908 65.0984 322.12 64.7918 330.704C64.7918 331.111 64.9533 331.501 65.2408 331.788C65.5283 332.076 65.9182 332.237 66.3247 332.237C66.7313 332.237 67.1212 332.076 67.4087 331.788C67.6962 331.501 67.8577 331.111 67.8577 330.704C68.1643 323.244 72.9674 318.85 78.5882 314.66C80.1211 313.536 78.5882 310.878 76.9531 312.003Z" fill="#80A5AE"/>
<path d="M198.872 442.302L191.003 441.995L192.128 441.484C192.128 441.484 171.995 446.901 158.914 443.733C158.71 443.733 158.914 444.55 158.914 444.55L158.607 465.909C158.58 466.57 158.686 467.23 158.92 467.849C159.155 468.468 159.512 469.033 159.97 469.511C160.428 469.988 160.978 470.368 161.587 470.627C162.196 470.886 162.851 471.019 163.513 471.019L211.647 471.632C212.659 471.632 213.632 471.237 214.357 470.531C215.083 469.825 215.504 468.863 215.53 467.851V467.851C215.939 453.748 213.18 442.404 198.872 442.302Z" fill="#80A5AE"/>
<path d="M199.792 464.887C197.908 461.874 197.25 458.253 197.952 454.77C199.588 446.901 207.252 444.039 207.763 443.835" fill="#80A5AE"/>
<path d="M156.87 467.544C159.834 464.274 164.841 468.055 168.112 468.26C171.382 468.464 171.586 467.647 173.426 466.931C176.988 465.584 180.926 465.62 184.463 467.034C186.568 467.886 188.842 468.236 191.106 468.055C197.135 467.34 201.121 464.479 207.253 466.727C210.727 467.953 211.851 468.362 215.019 466.727C218.187 465.092 215.224 462.741 213.282 463.763C211.34 464.785 205.209 461.617 201.121 462.026C197.033 462.435 196.011 463.354 193.456 463.968C190.901 464.581 187.427 464.172 183.952 463.15C181.705 462.46 179.344 462.217 177.003 462.435C173.426 462.843 170.156 465.092 166.477 464.376C162.798 463.661 158.096 461.004 154.417 465.092C152.987 466.727 155.439 469.18 156.87 467.544V467.544Z" fill="#F5F3F0"/>
<path d="M184.156 458.653L196.624 449.558L194.069 448.025C194.069 450.886 193.354 455.179 194.478 457.938C194.537 458.16 194.64 458.368 194.78 458.55C194.92 458.733 195.095 458.885 195.295 458.999C195.494 459.113 195.715 459.187 195.943 459.215C196.171 459.243 196.403 459.226 196.624 459.164C199.383 458.449 201.938 455.894 204.187 454.361C206.435 452.828 209.399 450.886 211.442 448.332C213.486 445.777 210.318 444.039 208.99 445.777C207.105 447.94 204.899 449.802 202.449 451.295C200.507 452.624 197.85 455.179 195.704 455.792L197.85 457.018C196.931 454.668 197.544 450.58 197.544 448.025C197.536 447.719 197.448 447.42 197.287 447.159C197.127 446.897 196.9 446.683 196.631 446.538C196.361 446.393 196.057 446.321 195.751 446.331C195.445 446.341 195.147 446.432 194.887 446.594L182.317 455.69C180.579 457.018 182.317 459.982 184.156 458.653V458.653Z" fill="#F5F3F0"/>
<path d="M118.343 321.507C121.685 324.353 124.609 327.656 127.029 331.318C128.153 332.953 130.81 331.42 129.686 329.785C127.153 325.875 124.053 322.362 120.489 319.361C118.956 318.135 116.81 320.281 118.343 321.507V321.507Z" fill="#80A5AE"/>
<path d="M55.1855 360.444C66.0851 362.759 77.331 362.932 88.2969 360.955C90.2386 360.648 89.421 357.684 87.4792 357.991C77.0495 359.816 66.3681 359.642 56.0031 357.48C54.0614 357.071 53.2438 360.035 55.1855 360.444V360.444Z" fill="#F5F3F0"/>
<path d="M136.022 362.079C139.394 361.856 142.78 362.201 146.037 363.101C146.43 363.209 146.85 363.157 147.205 362.956C147.559 362.754 147.82 362.421 147.928 362.028C148.036 361.635 147.984 361.215 147.783 360.86C147.582 360.505 147.248 360.245 146.855 360.137C143.333 359.154 139.671 358.774 136.022 359.013C134.08 359.115 133.978 362.181 136.022 362.079Z" fill="#F5F3F0"/>
<path d="M110.882 362.692L120.591 361.874C122.533 361.67 122.635 358.604 120.591 358.809L110.882 359.626C108.941 359.728 108.941 362.794 110.882 362.692Z" fill="#F5F3F0"/>
<path d="M59.5798 384.562V387.014C59.5798 387.421 59.7413 387.811 60.0287 388.098C60.3162 388.386 60.7061 388.547 61.1127 388.547C61.5193 388.547 61.9092 388.386 62.1967 388.098C62.4841 387.811 62.6456 387.421 62.6456 387.014V384.562C62.6456 384.155 62.4841 383.765 62.1967 383.478C61.9092 383.19 61.5193 383.029 61.1127 383.029C60.7061 383.029 60.3162 383.19 60.0287 383.478C59.7413 383.765 59.5798 384.155 59.5798 384.562Z" fill="#F5F3F0"/>
<path d="M62.1352 391.817C64.2813 394.372 67.245 394.168 70.3108 394.168C75.625 394.27 80.8369 394.577 86.0488 394.985C87.9905 395.19 87.9905 392.124 86.0488 391.92L75.6249 391.204C72.6613 391.102 66.4274 392.124 64.2813 389.671C62.1352 387.219 60.8067 390.387 62.1352 391.817V391.817Z" fill="#F5F3F0"/>
<path d="M57.2292 339.698C56.9226 343.581 56.8204 348.078 59.7841 351.144C62.7478 354.21 66.9378 354.312 70.8213 354.107C71.2278 354.107 71.6177 353.946 71.9052 353.658C72.1927 353.371 72.3542 352.981 72.3542 352.574C72.3542 352.168 72.1927 351.778 71.9052 351.49C71.6177 351.203 71.2278 351.042 70.8213 351.042C67.8576 351.144 64.1785 351.348 61.9302 348.998C59.6819 346.647 60.0907 342.764 60.2951 339.698C60.4995 336.632 57.3314 337.756 57.2292 339.698V339.698Z" fill="#F5F3F0"/>
<path d="M142.154 81.5522C142.561 81.5522 142.951 81.3907 143.238 81.1032C143.525 80.8157 143.687 80.4258 143.687 80.0193C143.687 79.6127 143.525 79.2228 143.238 78.9353C142.951 78.6478 142.561 78.4863 142.154 78.4863C141.747 78.4863 141.358 78.6478 141.07 78.9353C140.783 79.2228 140.621 79.6127 140.621 80.0193C140.621 80.4258 140.783 80.8157 141.07 81.1032C141.358 81.3907 141.747 81.5522 142.154 81.5522V81.5522Z" fill="#090909"/>
<path d="M93.6108 111.086C95.4503 113.028 98.1074 114.663 100.356 113.335C102.604 112.006 102.604 109.962 104.341 109.451C106.079 108.94 106.896 110.065 108.225 110.576C109.79 111.179 111.518 111.212 113.106 110.67C114.694 110.129 116.041 109.046 116.911 107.612C117.627 106.59 118.035 105.364 118.751 104.342C119.425 103.393 120.377 102.677 121.475 102.293C122.574 101.909 123.764 101.874 124.883 102.195C125.865 102.733 126.94 103.079 128.051 103.217C129.89 103.217 131.219 101.071 131.628 99.1296C132.036 97.1879 131.934 94.9396 132.547 92.9979C133.16 91.0562 136.226 90.5452 137.248 87.9903C138.27 85.4354 137.044 80.9388 134.591 78.8949C132.138 76.851 127.948 77.6686 124.167 78.6905C103.422 84.1069 101.889 80.9388 98.0052 85.1288C90.4428 93.1001 92.8955 107.714 93.4065 110.984" fill="#F5F3F0"/>
<path d="M92.4868 112.211C94.1219 113.744 95.9614 115.174 98.2097 115.277C100.458 115.379 100.969 113.642 103.217 112.415C105.466 111.189 109.145 112.926 112.006 112.517C114.091 112.16 115.997 111.117 117.423 109.554C118.24 108.634 118.547 107.101 119.466 106.181C121.145 104.891 123.177 104.142 125.292 104.035C126.109 104.035 126.927 104.751 127.846 104.751C128.678 104.714 129.487 104.47 130.201 104.042C130.915 103.614 131.51 103.014 131.934 102.298C133.263 100.356 132.956 98.21 133.569 96.0639C133.96 93.9216 135.17 92.0157 136.942 90.7498C137.714 90.1719 138.315 89.3947 138.679 88.5015C140.212 85.0268 138.373 79.8148 135.409 77.5665C130.299 73.7853 122.226 77.6687 116.809 78.8951C111.393 80.1214 107.714 80.3258 103.115 81.0412C101.174 81.2294 99.3284 81.9747 97.8009 83.1873C90.034 89.6256 90.3407 102.4 91.9758 111.393C92.2824 113.335 95.2461 112.517 94.9395 110.576C93.611 103.115 92.7934 89.4212 100.458 84.9246C102.4 83.9027 104.852 83.9027 106.896 83.5961C111.922 82.9829 116.905 82.0614 121.817 80.8368C126.313 79.8149 132.445 76.9534 135.307 82.5741C138.168 88.1949 133.978 87.9905 131.934 90.852C129.89 93.7134 130.708 94.2244 130.503 96.0639L130.197 98.721C128.868 101.378 127.233 102.093 125.292 100.765C123.35 99.4364 123.963 100.254 122.226 100.561C116.605 101.48 116.4 109.758 110.575 109.554C108.225 109.554 106.385 107.408 103.933 108.021C101.48 108.634 100.662 115.583 94.735 110.065C93.2021 108.634 91.056 110.78 92.4868 112.211V112.211Z" fill="#80A5AE"/>
<path d="M177.82 19.1104L174.448 22.8917C174.039 19.928 173.528 16.8621 173.017 13.8985C173.024 13.7374 172.998 13.5766 172.943 13.4253C172.888 13.2739 172.803 13.135 172.694 13.0163C172.585 12.8977 172.453 12.8018 172.307 12.7339C172.161 12.6661 172.003 12.6277 171.842 12.621C171.681 12.6143 171.52 12.6394 171.368 12.6948C171.217 12.7503 171.078 12.835 170.96 12.9441C170.841 13.0532 170.745 13.1846 170.677 13.3309C170.609 13.4771 170.571 13.6352 170.564 13.7963C169.133 16.5215 167.601 19.1786 165.965 21.7675C164.603 17.5435 163.172 13.4556 161.673 9.50407C161.551 9.29464 161.375 9.12249 161.162 9.00627C160.949 8.89006 160.709 8.83419 160.467 8.84471C160.225 8.85524 159.99 8.93175 159.789 9.06598C159.587 9.20021 159.426 9.38705 159.323 9.60627C158.634 12.7968 157.389 15.841 155.644 18.5995C154.263 14.1611 151.926 10.0796 148.796 6.6426C148.599 6.44839 148.346 6.32074 148.072 6.27751C147.799 6.23429 147.519 6.27763 147.271 6.40149C147.023 6.52535 146.82 6.72352 146.691 6.96831C146.561 7.2131 146.511 7.49226 146.548 7.76675C148.081 13.8985 149.512 20.0302 148.286 26.2641C145.224 23.9082 141.854 21.9827 138.27 20.5412C137.146 20.1324 136.329 21.3587 136.738 22.3807C137.146 23.4026 137.759 25.0378 138.168 26.4685C140.519 41.4912 138.781 57.4338 132.036 71.1279C131.525 72.2521 132.65 72.9675 133.569 72.7631C136.022 73.785 139.292 72.4565 141.745 72.0477C142.043 72.0477 142.329 71.9293 142.54 71.7184C142.751 71.5076 142.869 71.2217 142.869 70.9235C142.869 70.6254 142.751 70.3395 142.54 70.1287C142.329 69.9178 142.043 69.7994 141.745 69.7994L139.599 69.595L139.803 69.2884C139.902 69.1175 139.954 68.9237 139.954 68.7263C139.954 68.529 139.902 68.3352 139.803 68.1643V68.1643C139.947 68.2498 140.109 68.299 140.275 68.3075C140.442 68.3159 140.608 68.2835 140.759 68.2129C140.911 68.1423 141.042 68.0358 141.143 67.9026C141.243 67.7694 141.31 67.6137 141.336 67.4489V66.9379C141.378 66.7152 141.356 66.4855 141.275 66.2741C141.194 66.0627 141.055 65.878 140.875 65.7404C140.695 65.6028 140.481 65.5178 140.256 65.4946C140.03 65.4715 139.803 65.5112 139.599 65.6094L138.781 66.1204C140.528 62.9637 141.867 59.5985 142.767 56.1052C143.176 54.6745 140.927 54.0613 140.621 55.492C140.053 57.7108 139.265 59.8675 138.27 61.9304C140.092 56.0951 141.156 50.0503 141.438 43.9439C141.541 45.6813 141.643 47.3164 141.643 49.0537C141.643 50.791 144.198 50.8932 144.198 49.2581C144.198 47.623 144.096 45.2725 143.993 43.3308C144.214 43.2283 144.405 43.0713 144.548 42.8746C144.691 42.678 144.781 42.448 144.811 42.2066C145.01 42.3575 145.25 42.444 145.499 42.4546C145.749 42.4653 145.996 42.3996 146.207 42.2663C146.418 42.133 146.583 41.9384 146.681 41.7086C146.778 41.4788 146.803 41.2247 146.753 40.9803C146.65 40.1627 146.65 39.3451 146.548 38.5276C146.811 38.5853 147.084 38.568 147.337 38.4777C147.59 38.3873 147.813 38.2275 147.979 38.0166C149.341 36.5974 150.572 35.0583 151.658 33.4178C156.171 32.2253 160.908 32.1552 165.454 33.2134C170.053 34.3376 172.404 36.5859 175.572 39.8561L176.287 40.2649C176.287 40.9803 176.185 41.7978 176.185 42.5132C176.239 42.7994 176.386 43.0599 176.602 43.2546C176.819 43.4493 177.094 43.5673 177.384 43.5905C177.675 43.6138 177.965 43.5409 178.21 43.3832C178.455 43.2254 178.641 42.9916 178.74 42.7176C179.149 35.0529 179.66 27.4905 180.068 19.8258C180.273 18.4973 178.535 18.1907 177.82 19.1104Z" fill="#80A5AE"/>
<path d="M169.849 75.3181C166.885 75.9313 164.024 76.1357 161.469 74.3984C159.718 73.0689 158.077 71.5993 156.564 70.004C155.133 68.6754 152.885 70.8215 154.315 72.1501C155.746 73.4786 158.608 76.5445 161.367 77.873C164.126 79.2016 167.601 78.895 170.667 78.2818C173.732 77.6686 171.791 75.0116 169.849 75.3181V75.3181Z" fill="#80A5AE"/>
<path d="M237.4 228.1C243.328 228.1 243.328 218.902 237.4 218.902C231.473 218.902 231.473 228.1 237.4 228.1Z" fill="#80A5AE"/>
<path d="M306.586 410.417C306.586 402.343 307.302 394.168 308.017 386.094C308.732 378.021 309.55 369.334 309.346 360.954C309.141 352.574 307.404 344.501 306.688 336.121C304.849 316.908 307.097 297.491 303.214 278.38L302.907 277.256V265.504C302.832 265.251 302.677 265.029 302.465 264.871C302.253 264.713 301.996 264.628 301.732 264.628C301.468 264.628 301.211 264.713 300.999 264.871C300.787 265.029 300.632 265.251 300.557 265.504V268.672C300.123 268.311 299.609 268.058 299.059 267.934C298.508 267.809 297.936 267.817 297.389 267.956C296.506 268.219 295.758 268.811 295.302 269.611C294.845 270.41 294.714 271.355 294.936 272.249H294.425C294.11 270.917 293.593 269.642 292.892 268.467C290.95 265.606 287.885 264.38 285.227 262.438C283.092 260.814 281.139 258.963 279.402 256.919C272.044 248.539 268.978 237.4 267.548 226.465C272.306 222.309 275.572 216.71 276.847 210.522C276.998 209.88 276.973 209.209 276.775 208.58C276.577 207.951 276.214 207.386 275.723 206.946C276.128 206.341 276.343 205.629 276.343 204.902C276.343 204.174 276.128 203.463 275.723 202.858H277.358C277.657 202.858 277.943 202.739 278.153 202.529C278.364 202.318 278.483 202.032 278.483 201.734C278.483 201.436 278.364 201.15 278.153 200.939C277.943 200.728 277.657 200.61 277.358 200.61C256.204 200.303 235.152 200.201 213.997 200.405C213.716 200.404 213.445 200.508 213.236 200.697C213.028 200.887 212.899 201.147 212.873 201.427L212.566 201.631C212.26 196.726 211.953 191.821 211.442 186.915C211.34 185.485 208.99 185.485 209.092 186.915C210.625 202.142 211.238 217.472 211.34 232.801C211.238 236.174 211.034 239.648 210.829 243.123C210.799 243.471 210.837 243.822 210.942 244.155C211.048 244.488 211.218 244.797 211.442 245.065C211.442 250.788 211.34 256.51 211.238 262.233L210.318 274.599C209.296 287.782 208.274 301.068 207.355 314.251C205.617 340.413 204.289 366.575 204.493 392.839C204.697 406.738 207.15 421.761 203.471 435.353C203.035 436.971 203.127 438.686 203.733 440.249C204.34 441.811 205.43 443.139 206.844 444.039C207.055 444.395 207.333 444.707 207.661 444.959C208.797 445.733 210.193 446.027 211.545 445.777H212.26C229.335 446.951 246.464 447.156 263.562 446.39L289.009 445.368C292.892 445.163 297.184 445.47 300.966 444.346C303.273 443.626 305.3 442.207 306.764 440.284C308.229 438.362 309.06 436.031 309.141 433.615C309.346 429.732 307.915 425.951 307.404 422.169C306.883 418.273 306.61 414.348 306.586 410.417ZM276.132 319.872C276.234 319.769 276.132 319.872 276.132 319.872V319.872ZM292.79 432.491H292.892C292.913 432.773 292.982 433.05 293.097 433.309C293.022 433.276 292.956 433.228 292.9 433.169C292.844 433.11 292.801 433.04 292.772 432.964C292.744 432.888 292.731 432.807 292.734 432.726C292.737 432.645 292.756 432.565 292.79 432.491V432.491Z" fill="#80A5AE"/>
<path d="M235.969 222.275C240.364 231.166 240.262 241.181 240.159 250.992L239.546 279.3C239.137 298.717 238.729 318.032 238.218 337.449C237.707 356.866 237.4 376.079 237.094 395.394L236.48 423.804C236.378 431.673 235.867 439.645 239.955 446.696C240.875 448.434 243.532 446.901 242.612 445.163C237.707 436.681 239.546 425.031 239.751 415.629C239.955 406.227 240.057 396.723 240.262 387.218L241.488 329.274L242.714 271.124C243.123 254.875 246.087 235.867 238.626 220.742C237.809 218.902 235.152 220.435 235.969 222.275V222.275Z" fill="#F5F3F0"/>
<path d="M258.044 238.218C260.216 245.234 263.955 251.664 268.979 257.022C274.702 262.949 281.958 266.219 288.702 270.716C288.877 270.816 289.069 270.882 289.269 270.908C289.469 270.934 289.672 270.921 289.866 270.869C290.061 270.816 290.243 270.727 290.403 270.604C290.563 270.481 290.697 270.328 290.798 270.154C290.898 269.979 290.963 269.787 290.99 269.587C291.016 269.387 291.003 269.184 290.95 268.99C290.898 268.795 290.808 268.613 290.685 268.453C290.563 268.293 290.41 268.159 290.235 268.059C284.206 264.073 277.563 261.109 272.249 255.897C267.014 250.75 263.12 244.399 260.905 237.4C260.394 235.561 257.431 236.276 258.044 238.218V238.218Z" fill="#F5F3F0"/>
<path d="M222.479 247.007C221.764 271.023 220.64 295.141 219.107 319.157C219.005 321.2 222.071 321.2 222.173 319.157C223.706 295.141 224.83 271.023 225.545 247.007C225.647 244.963 222.582 245.065 222.479 247.007V247.007Z" fill="#F5F3F0"/>
<path d="M219.516 338.165V416.14C219.516 416.546 219.677 416.936 219.965 417.224C220.252 417.511 220.642 417.673 221.049 417.673C221.455 417.673 221.845 417.511 222.133 417.224C222.42 416.936 222.581 416.546 222.581 416.14V338.165C222.581 337.758 222.42 337.368 222.133 337.081C221.845 336.793 221.455 336.632 221.049 336.632C220.642 336.632 220.252 336.793 219.965 337.081C219.677 337.368 219.516 337.758 219.516 338.165V338.165Z" fill="#F5F3F0"/>
<path d="M238.013 435.148C232.758 436.494 227.256 436.564 221.968 435.353C220.027 434.944 219.209 437.907 221.151 438.316C226.974 439.682 233.041 439.612 238.831 438.112C239.224 438.003 239.558 437.743 239.759 437.389C239.96 437.034 240.012 436.614 239.904 436.221C239.795 435.828 239.535 435.494 239.181 435.293C238.826 435.092 238.406 435.04 238.013 435.148V435.148Z" fill="#F5F3F0"/>
<path d="M268.263 273.271C270.035 300.262 269.864 327.345 267.752 354.312C267.65 356.356 270.716 356.253 270.818 354.312C272.93 327.345 273.1 300.262 271.329 273.271C271.125 271.329 268.059 271.329 268.263 273.271Z" fill="#F5F3F0"/>
<path d="M267.343 372.196C267.769 375.447 268.452 378.659 269.387 381.802C270 383.744 272.964 382.926 272.351 380.984C271.499 378.104 270.85 375.167 270.409 372.196C270.205 370.254 267.139 370.254 267.343 372.196V372.196Z" fill="#F5F3F0"/>
<path d="M272.045 402.241C272.351 411.336 272.862 420.33 273.577 429.323C273.782 431.264 276.848 431.264 276.643 429.323C275.928 420.33 275.417 411.336 275.11 402.241C275.11 401.834 274.949 401.444 274.661 401.157C274.374 400.87 273.984 400.708 273.577 400.708C273.171 400.708 272.781 400.87 272.494 401.157C272.206 401.444 272.045 401.834 272.045 402.241V402.241Z" fill="#F5F3F0"/>
<path d="M289.111 435.659C294.017 437.806 297.593 434.024 302.294 433.718C304.236 433.616 304.236 430.55 302.294 430.652C298.615 430.958 294.221 434.535 290.644 433.105C288.907 432.287 287.374 434.944 289.111 435.659Z" fill="#F5F3F0"/>
<path d="M233.823 212.975C237.809 212.975 237.809 206.844 233.823 206.844C229.838 206.844 229.94 212.975 233.823 212.975Z" fill="#F5F3F0"/>
<path d="M243.838 210.216H255.08C259.065 210.216 259.065 204.084 255.08 204.084H243.838C239.955 204.084 239.955 210.216 243.838 210.216Z" fill="#F5F3F0"/>
<path d="M167.703 77.873C183.543 75.3181 183.543 50.0758 174.346 39.9584C170.462 35.7684 163.411 31.4762 156.461 33.2135C142.052 36.7904 141.234 63.0546 141.234 64.1788C141.03 73.6829 140.928 85.6398 148.286 93.1001C150.125 94.9396 154.213 98.7208 159.016 99.0274C163.819 99.334 173.221 87.6837 167.703 77.873" fill="#F5F3F0"/>
<path d="M158.914 100.765C161.776 100.867 165.557 98.21 168.112 94.1222C170.667 90.0344 171.893 83.6983 170.156 78.9973C175.061 77.5666 178.842 73.6831 180.784 68.0624C184.054 58.5582 181.806 45.6816 175.572 38.7323C171.075 33.8269 163.308 29.7391 156.053 31.4764C140.314 35.462 139.497 62.9526 139.497 64.1789C139.293 73.3765 138.986 86.151 147.059 94.3266C149.819 97.0859 154.111 100.458 158.914 100.765V100.765ZM160.447 34.5423C165.25 34.8488 169.951 37.7103 173.017 41.0828C178.433 47.0101 180.477 58.6604 177.514 66.9382C176.287 70.6173 173.426 75.2161 167.499 76.1358L165.046 76.5446L166.272 78.6907C169.44 84.4136 166.579 90.1366 165.25 92.2827C163.922 94.4288 160.447 97.3925 159.118 97.2903C156.155 97.1881 152.782 95.2464 149.512 91.8739C142.461 84.7202 142.767 72.8656 142.972 64.1789C142.972 63.9746 143.585 38.1191 156.87 34.8488C158.036 34.5406 159.246 34.4368 160.447 34.5423V34.5423Z" fill="#80A5AE"/>
<path d="M148.899 48.6448C149.103 45.579 146.242 44.4548 143.687 44.9658C141.132 45.4768 140.212 48.9514 140.314 51.4041C140.312 51.9965 140.46 52.5798 140.747 53.0985C141.033 53.6172 141.447 54.0541 141.949 54.3678C142.472 54.5769 143.032 54.6757 143.595 54.6581C144.158 54.6405 144.711 54.5069 145.22 54.2656C146.548 53.7546 146.753 52.4261 146.753 51.1997C146.74 50.0572 146.568 48.9221 146.242 47.8273C146.151 47.5787 146.001 47.3558 145.805 47.1778C145.61 46.9998 145.374 46.872 145.117 46.8053C142.767 46.2943 142.052 49.9734 141.949 51.6085C141.847 53.2436 144.811 53.5502 145.015 51.6085C145.033 50.806 145.282 50.0256 145.731 49.3602L144.198 49.769H144.3L143.278 48.6448C143.463 49.3155 143.6 49.9985 143.687 50.6887V51.7107C143.993 51.5063 143.993 51.5063 143.789 51.5063C143.584 51.5063 143.482 51.5063 143.38 51.1997C143.298 50.1609 143.548 49.1229 144.095 48.236C144.3 47.9294 144.504 47.8273 145.015 47.9294C145.526 48.0316 145.935 47.9295 145.833 48.6448C145.731 49.3602 148.796 50.5865 148.899 48.6448V48.6448Z" fill="#F5F3F0"/>
<path d="M169.031 75.6248C166.498 75.9141 163.933 75.5627 161.571 74.6028C158.607 73.2743 156.87 71.537 156.666 68.2667C156.461 64.9965 153.497 66.2228 153.6 68.2667C153.804 71.9458 154.928 74.2963 158.198 76.238C161.426 78.263 165.246 79.1281 169.031 78.6907C170.973 78.4863 170.973 75.4204 169.031 75.6248V75.6248Z" fill="#80A5AE"/>
<path d="M137.862 444.04L131.832 445.572L130.299 444.755C122.532 449.456 104.035 451.704 97.9032 448.638C97.6988 448.536 97.9032 449.456 97.9032 449.456L97.4944 467.749C97.4941 469.087 98.0184 470.371 98.9547 471.326C99.891 472.282 101.165 472.832 102.502 472.859L150.636 473.37C151.649 473.37 152.621 472.975 153.346 472.269C154.072 471.562 154.493 470.601 154.519 469.588V469.588C154.928 455.485 152.169 444.142 137.862 444.04Z" fill="#80A5AE"/>
<path d="M138.781 466.42C137.818 464.94 137.159 463.284 136.843 461.546C136.527 459.809 136.561 458.027 136.942 456.303C138.475 448.536 146.139 445.572 146.65 445.368" fill="#80A5AE"/>
<path d="M99.7428 469.077C102.604 465.807 107.714 469.588 110.882 469.792C114.05 469.997 114.357 469.179 116.196 468.464C119.767 467.164 123.687 467.201 127.233 468.566C129.341 469.408 131.613 469.757 133.876 469.588C140.008 468.975 143.891 466.113 150.125 468.26C154.826 469.895 158.505 468.668 162.9 466.522C164.944 465.602 163.206 462.537 161.162 463.559C159.118 464.58 155.848 466.113 152.884 465.5C151.66 465.148 150.465 464.704 149.308 464.172C147.434 463.542 145.437 463.367 143.483 463.661C140.825 464.07 138.27 465.091 135.613 465.705C132.956 466.318 129.482 465.296 125.905 464.376C119.671 462.843 114.357 466.829 108.429 465.705C104.239 464.785 100.765 462.741 97.2901 466.624C95.7571 468.259 98.2099 470.712 99.7428 469.077V469.077Z" fill="#F5F3F0"/>
<path d="M126.927 460.288L139.497 451.091L136.84 449.66C136.942 452.522 136.227 456.814 137.249 459.471C137.39 459.905 137.688 460.271 138.085 460.498C138.482 460.725 138.949 460.796 139.395 460.697C142.154 459.982 144.709 457.427 146.957 455.894C149.206 454.361 152.271 452.419 154.213 449.864C156.155 447.31 153.191 445.572 151.76 447.412C149.891 449.563 147.682 451.392 145.22 452.828C143.38 454.157 140.723 456.712 138.475 457.325L140.621 458.551C139.701 456.201 140.417 452.215 140.315 449.66C140.212 447.105 138.884 447.31 137.76 448.127L125.19 457.223C123.35 458.551 125.087 461.617 126.927 460.288Z" fill="#F5F3F0"/>
<path d="M249.664 95.3481H247.517L245.269 107.509V183.645H253.036V107.509L249.664 95.3481Z" fill="#CBC7DB"/>
<path d="M247.415 72.9678C244.451 78.3842 240.261 98.5167 251.196 97.0859C267.139 94.9398 276.438 82.1654 286.249 70.8217C287.578 69.391 285.432 67.1427 284.103 68.6756C277.665 76.1359 271.022 85.7422 262.029 90.341C258 92.4061 253.643 93.7548 249.152 94.3267C248.525 93.0217 248.045 91.6505 247.722 90.2388C246.491 84.8842 247.33 79.2621 250.072 74.5007C251.094 72.8656 248.437 71.2305 247.415 72.9678V72.9678Z" fill="#80A5AE"/>
<path d="M248.744 97.4944C252.054 100.956 254.136 105.408 254.671 110.167C254.876 111.495 256.307 112.313 257.329 111.291C260.701 108.021 263.971 104.648 267.446 101.48C270.92 98.312 274.906 95.6549 278.483 92.6912C284.468 87.6 288.925 80.9497 291.36 73.4785C292.075 71.639 289.111 70.8214 288.498 72.6609C285.534 81.2453 280.118 87.7859 272.862 93.1C265.606 98.4142 260.905 103.524 255.182 109.145L257.737 110.167C257.094 104.593 254.696 99.3682 250.89 95.2461C249.562 93.8154 247.416 95.9615 248.744 97.4944V97.4944Z" fill="#80A5AE"/>
<path d="M247.313 93.8154C245.23 94.2565 243.294 95.2193 241.685 96.6136C240.076 98.0078 238.848 99.7878 238.115 101.787H240.977C240.466 98.6186 240.261 95.6549 239.546 92.4869C238.783 89.1369 238.576 85.6844 238.933 82.2673C239.137 80.2234 236.071 80.2234 235.867 82.2673C235.544 85.4725 235.681 88.7075 236.276 91.8737C236.991 95.4505 237.4 99.0274 238.115 102.604C238.32 104.342 240.568 103.831 240.977 102.604C241.585 101.111 242.558 99.7947 243.809 98.7767C245.059 97.7587 246.545 97.0717 248.13 96.7791C250.072 96.3703 249.255 93.4066 247.313 93.8154V93.8154Z" fill="#80A5AE"/>
<path d="M246.393 74.0918C244.758 78.4862 239.648 79.5082 235.765 81.0411C232.52 82.2628 229.405 83.8033 226.465 85.6399C224.728 86.5597 226.261 89.2168 227.998 88.297C232.495 85.6399 237.298 84.0048 241.999 81.9609C246.7 79.917 248.028 78.3841 249.255 74.9094C250.481 71.4348 247.006 72.2523 246.393 74.0918Z" fill="#80A5AE"/>
<path d="M279.096 112.518H260.394C259.378 112.518 258.555 113.341 258.555 114.357V123.81C258.555 124.826 259.378 125.65 260.394 125.65H279.096C280.112 125.65 280.935 124.826 280.935 123.81V114.357C280.935 113.341 280.112 112.518 279.096 112.518Z" fill="#090909"/>
<path d="M294.834 251.299C300.761 251.299 300.761 242.102 294.834 242.102C288.906 242.102 288.906 251.299 294.834 251.299Z" fill="#090909"/>
<path d="M245.576 69.1859C245.092 69.1507 244.63 68.9729 244.247 68.675C238.422 63.6674 238.626 56.0027 238.729 51.8127V51.4039C238.938 44.6956 241.466 38.2672 245.882 33.2131C246.044 32.9728 246.254 32.7694 246.5 32.6166C246.746 32.4637 247.022 32.3649 247.309 32.3266C247.596 32.2883 247.887 32.3114 248.165 32.3943C248.442 32.4773 248.699 32.6183 248.918 32.8079C249.137 32.9976 249.313 33.2315 249.434 33.4943C249.556 33.7571 249.62 34.0427 249.623 34.3322C249.626 34.6218 249.567 34.9086 249.451 35.1737C249.334 35.4389 249.163 35.6763 248.948 35.8702C245.186 40.2338 243.024 45.7487 242.816 51.5061V51.9149C242.714 55.9005 242.612 61.8279 247.006 65.6091C247.409 65.9637 247.657 66.4626 247.695 66.998C247.733 67.5334 247.559 68.0623 247.211 68.4706C247.01 68.7057 246.759 68.8923 246.475 69.0162C246.192 69.1401 245.885 69.1981 245.576 69.1859Z" fill="#80A5AE"/>
<path d="M285.125 68.267V57.1277C285.125 56.7211 284.964 56.3312 284.676 56.0437C284.389 55.7562 283.999 55.5947 283.593 55.5947C283.186 55.5947 282.796 55.7562 282.509 56.0437C282.221 56.3312 282.06 56.7211 282.06 57.1277V68.267C282.06 68.6735 282.221 69.0634 282.509 69.3509C282.796 69.6384 283.186 69.7999 283.593 69.7999C283.999 69.7999 284.389 69.6384 284.676 69.3509C284.964 69.0634 285.125 68.6735 285.125 68.267V68.267Z" fill="#80A5AE"/>
<path d="M279.913 60.5C271.635 51.2002 273.168 48.7475 267.956 43.4333C258.759 34.1335 250.481 38.4257 234.436 26.6733C230.348 23.6074 226.363 20.0305 225.443 14.7164C224.523 9.40221 225.954 5.00781 226.772 5.00781C227.589 5.00781 227.18 6.84733 228.1 8.38026C230.655 12.9791 240.159 12.6725 245.371 12.7747C250.583 12.8769 264.277 12.8769 273.577 16.1471C285.841 20.5415 295.243 32.0896 296.673 43.7399C297.695 51.9155 294.732 60.9087 293.914 63.0548" fill="#80A5AE"/>
<path d="M270.92 46.601C270.973 46.2696 271.122 45.9607 271.347 45.7117C271.572 45.4626 271.864 45.2841 272.188 45.1976C272.512 45.1111 272.855 45.1205 273.174 45.2244C273.493 45.3284 273.775 45.5225 273.986 45.7834C274.74 46.9292 275.066 48.3044 274.906 49.6668C274.702 50.4844 274.088 50.6888 273.271 50.791C272.453 50.8932 272.044 50.3822 272.147 49.4624C272.104 49.1755 272.138 48.8823 272.245 48.6129C272.353 48.3435 272.531 48.1076 272.76 47.9295H274.395L274.088 47.5207C273.986 46.7031 273.271 46.09 273.475 45.1702L272.453 46.2944L272.76 46.09H271.636L271.942 46.2944L271.329 45.3746C271.499 46.2496 271.567 47.1411 271.533 48.0317V50.8932L273.475 49.4624C273.388 48.6821 273.354 47.8968 273.373 47.1119C273.349 46.6803 273.237 46.2582 273.043 45.8715C272.85 45.4848 272.58 45.1418 272.249 44.8636C270.818 43.5351 268.57 45.6812 270.103 47.0097C271.636 48.3383 270.307 49.3602 270.511 50.1778C270.695 50.6801 270.98 51.1391 271.35 51.526C271.719 51.9129 272.164 52.2193 272.658 52.4261C272.888 52.4703 273.125 52.4644 273.353 52.4088C273.581 52.3532 273.795 52.2491 273.979 52.1037C274.163 51.9582 274.314 51.7748 274.421 51.566C274.528 51.3571 274.589 51.1276 274.599 50.8932C274.497 49.258 274.497 47.7251 274.395 46.09C274.293 44.4548 274.19 43.9439 273.066 43.4329C270.307 42.2065 270.103 45.8856 270.614 47.5207C271.125 49.1558 272.964 51.9151 275.11 50.8932C277.256 49.8712 276.541 47.0097 275.008 45.7834C270.511 42.3087 266.424 50.8932 270.511 53.448C271.507 53.9267 272.615 54.1226 273.714 54.0145C274.814 53.9064 275.862 53.4983 276.745 52.8349C278.381 51.3019 277.972 48.2361 277.461 46.3965C276.95 44.557 275.008 42.2065 272.555 42.2065C271.331 42.2525 270.166 42.746 269.28 43.5936C268.395 44.4411 267.851 45.5838 267.752 46.8053C267.446 48.7471 270.512 48.7471 270.818 46.8053L270.92 46.601Z" fill="#F5F3F0"/>
<path d="M243.736 67.9598C245.984 69.1861 247.415 71.0257 249.868 72.0476C252.469 73.0508 255.276 73.4017 258.043 73.0696C263.562 72.4564 268.161 69.1861 271.942 65.3027C273.271 63.872 271.124 61.6237 269.694 63.0544C266.423 66.6312 262.54 69.3905 257.635 70.0037C252.729 70.6169 249.561 67.551 245.269 65.3027C245.095 65.2021 244.902 65.1368 244.702 65.1105C244.503 65.0843 244.3 65.0977 244.105 65.1499C243.911 65.202 243.728 65.292 243.568 65.4147C243.409 65.5374 243.275 65.6903 243.174 65.8648C243.073 66.0392 243.008 66.2318 242.982 66.4315C242.956 66.6312 242.969 66.8342 243.021 67.0287C243.073 67.2232 243.163 67.4056 243.286 67.5653C243.409 67.7251 243.562 67.8591 243.736 67.9598V67.9598Z" fill="#80A5AE"/>
<path d="M249.05 69.7992C248.233 71.2299 247.415 72.6606 246.7 74.1936C245.985 75.7265 248.437 77.4638 249.357 75.7265C250.277 73.9892 250.89 72.7628 251.708 71.3321C252.525 69.9014 250.072 68.164 249.05 69.7992Z" fill="#80A5AE"/>
<path d="M81.5522 297.798C84.4136 299.433 88.0927 298.717 91.2607 298.717H106.692C107.099 298.717 107.489 298.556 107.776 298.268C108.064 297.981 108.225 297.591 108.225 297.184C108.225 296.778 108.064 296.388 107.776 296.1C107.489 295.813 107.099 295.651 106.692 295.651H95.1441C91.976 295.651 85.9466 296.776 83.0851 295.14C80.2236 293.505 79.8148 296.776 81.5522 297.798Z" fill="#80A5AE"/>
<path d="M467.953 335.61H289.52C288.978 335.61 288.458 335.395 288.075 335.012C287.691 334.628 287.476 334.108 287.476 333.566C287.461 333.294 287.504 333.022 287.601 332.767C287.699 332.512 287.849 332.281 288.042 332.088C288.235 331.895 288.466 331.745 288.72 331.648C288.975 331.55 289.248 331.508 289.52 331.522H467.953C468.225 331.508 468.498 331.55 468.752 331.648C469.007 331.745 469.238 331.895 469.431 332.088C469.624 332.281 469.774 332.512 469.872 332.767C469.969 333.022 470.012 333.294 469.997 333.566C469.997 334.108 469.782 334.628 469.398 335.012C469.015 335.395 468.495 335.61 467.953 335.61Z" fill="#80A5AE"/>
<path d="M355.129 366.473H302.601C302.059 366.473 301.539 366.257 301.156 365.874C300.772 365.491 300.557 364.971 300.557 364.429C300.557 363.887 300.772 363.367 301.156 362.983C301.539 362.6 302.059 362.385 302.601 362.385H355.129C355.671 362.385 356.191 362.6 356.575 362.983C356.958 363.367 357.173 363.887 357.173 364.429C357.173 364.971 356.958 365.491 356.575 365.874C356.191 366.257 355.671 366.473 355.129 366.473Z" fill="#80A5AE"/>
<path d="M70.8215 270.613H2.04391C1.50183 270.613 0.981984 270.398 0.598677 270.015C0.21537 269.631 0 269.111 0 268.569C0 268.027 0.21537 267.507 0.598677 267.124C0.981984 266.741 1.50183 266.525 2.04391 266.525H70.8215C71.3636 266.525 71.8834 266.741 72.2668 267.124C72.6501 267.507 72.8654 268.027 72.8654 268.569C72.8654 269.111 72.6501 269.631 72.2668 270.015C71.8834 270.398 71.3636 270.613 70.8215 270.613Z" fill="#80A5AE"/>
<path d="M29.1254 285.329C28.5833 285.329 28.0635 285.114 27.6802 284.731C27.2969 284.347 27.0815 283.827 27.0815 283.285C27.0676 283.022 27.1075 282.758 27.1989 282.511C27.2902 282.263 27.4311 282.037 27.6128 281.846C27.7945 281.655 28.0133 281.502 28.2558 281.398C28.4983 281.295 28.7594 281.241 29.0232 281.242L70.0036 280.526C70.267 280.512 70.5305 280.552 70.778 280.644C71.0255 280.735 71.2518 280.876 71.4431 281.057C71.6344 281.239 71.7867 281.458 71.8906 281.7C71.9945 281.943 72.0479 282.204 72.0475 282.468C72.0613 282.736 72.0219 283.005 71.9317 283.258C71.8415 283.511 71.7023 283.744 71.5219 283.944C71.3416 284.143 71.1236 284.305 70.8806 284.42C70.6376 284.535 70.3743 284.601 70.1058 284.614L29.1254 285.329Z" fill="#80A5AE"/>
<path d="M397.643 443.732H301.068C300.526 443.732 300.006 443.517 299.623 443.134C299.239 442.75 299.024 442.231 299.024 441.688C299.024 441.146 299.239 440.626 299.623 440.243C300.006 439.86 300.526 439.645 301.068 439.645H397.643C398.185 439.645 398.705 439.86 399.088 440.243C399.471 440.626 399.687 441.146 399.687 441.688C399.687 442.231 399.471 442.75 399.088 443.134C398.705 443.517 398.185 443.732 397.643 443.732Z" fill="#80A5AE"/>
<path d="M430.856 443.732H411.541C410.999 443.732 410.48 443.517 410.096 443.134C409.713 442.75 409.498 442.231 409.498 441.688C409.498 441.146 409.713 440.626 410.096 440.243C410.48 439.86 410.999 439.645 411.541 439.645H430.856C431.399 439.645 431.918 439.86 432.302 440.243C432.685 440.626 432.9 441.146 432.9 441.688C432.9 442.231 432.685 442.75 432.302 443.134C431.918 443.517 431.399 443.732 430.856 443.732Z" fill="#80A5AE"/>
<path d="M32.1916 475.413C31.6495 475.413 31.1296 475.198 30.7463 474.815C30.363 474.431 30.1476 473.911 30.1476 473.369C30.1476 472.827 30.363 472.307 30.7463 471.924C31.1296 471.541 31.6495 471.325 32.1916 471.325L120.284 470.508C120.826 470.508 121.346 470.723 121.729 471.106C122.113 471.49 122.328 472.01 122.328 472.552C122.328 473.094 122.113 473.614 121.729 473.997C121.346 474.38 120.826 474.596 120.284 474.596L32.1916 475.413Z" fill="#80A5AE"/>
<path d="M332.238 79.3039C329.581 79.3039 328.354 75.9315 327.843 72.4568C324.164 72.048 320.485 70.8217 320.485 68.0624C320.485 65.3032 324.062 64.0768 327.741 63.5658C328.15 59.989 329.172 55.6968 332.238 55.6968C335.303 55.6968 336.428 59.989 336.836 63.5658C340.413 64.0768 344.092 65.201 344.092 68.0624C344.092 70.9239 340.311 72.048 336.632 72.4568C336.121 75.9315 334.895 79.3039 332.238 79.3039ZM326.106 68.0624C327.351 68.3319 328.615 68.5028 329.887 68.5734H331.522L331.727 70.3107C331.788 71.3815 331.959 72.4431 332.238 73.4788C332.516 72.4431 332.687 71.3815 332.749 70.3107L332.953 68.5734H334.69C335.928 68.4967 337.158 68.3259 338.369 68.0624C337.177 67.6887 335.939 67.4823 334.69 67.4493H332.953V65.6097C332.911 64.1941 332.705 62.7881 332.34 61.4197C332.025 62.798 331.82 64.1991 331.727 65.6097V67.4493H329.989C328.674 67.485 327.368 67.6911 326.106 68.0624V68.0624Z" fill="#80A5AE"/>
<path d="M356.254 45.0682C351.553 45.0682 349.713 36.9948 348.998 31.0674C343.377 30.4542 333.771 28.8191 333.771 23.7093C333.771 18.5996 343.173 16.9644 348.793 16.3513C349.304 10.9349 350.939 0 356.254 0C361.568 0 363.305 10.9349 363.714 16.3513C369.335 16.9644 378.839 18.7018 378.839 23.7093C378.839 28.7169 369.13 30.4542 363.509 31.0674C362.794 36.9948 360.955 45.0682 356.254 45.0682ZM337.858 23.7093C338.574 24.6291 342.866 26.5708 351.042 27.184H352.779V28.9213C353.596 36.6882 355.334 40.1628 356.151 40.8782C356.969 41.5936 358.808 36.6882 359.524 28.9213L359.728 27.184H361.363C369.539 26.5708 373.831 24.6291 374.547 23.7093C375.262 22.7896 369.641 20.8479 361.568 20.2347H359.83V18.3952C359.217 8.9932 357.173 4.90538 356.254 4.29221C355.334 3.67903 353.29 8.9932 352.779 18.3952V20.2347H350.939C342.866 20.8479 338.574 22.6874 337.858 23.7093Z" fill="#090909"/>
<path d="M31.7828 242.918C27.8993 242.918 26.3664 236.685 25.7532 231.984C20.6434 231.473 13.7964 229.94 13.7964 225.852C13.7964 221.764 20.5413 220.333 25.5489 219.72C25.9576 214.917 27.3884 207.048 31.7828 207.048C36.1772 207.048 37.5057 214.917 38.0167 219.72C43.0242 220.333 49.667 221.866 49.667 225.852C49.667 229.837 42.8199 231.473 37.8123 231.984C37.1992 236.685 35.6662 242.918 31.7828 242.918ZM18.1908 225.852C19.315 226.567 22.2786 227.691 27.6949 228.1H29.4323L29.6367 229.837C30.0455 234.743 31.0674 237.4 31.7828 238.422C32.3959 237.4 33.4179 234.743 33.9288 229.837V228.1H35.6662C41.0826 227.691 44.1484 226.567 45.1704 225.852C44.1484 225.136 41.1848 224.114 35.7684 223.706L34.0311 223.501V221.764C33.6224 215.837 32.4981 212.566 31.7828 211.442C31.0674 212.566 29.8411 215.837 29.5345 221.764V223.501L27.6949 223.706C22.2786 224.114 19.315 225.136 18.1908 225.852Z" fill="#090909"/>
<path d="M53.3457 448.843C50.4843 448.843 49.2579 445.572 48.6448 442.098C44.9657 441.587 41.1846 440.361 41.1846 437.397C41.1846 434.433 44.8636 433.105 48.5426 432.594C48.9514 429.017 50.1777 424.725 53.3457 424.725C56.5138 424.725 57.638 429.017 58.149 432.594C61.828 433.105 65.4049 434.433 65.4049 437.397C65.4049 440.361 61.7258 441.587 57.9445 442.098C57.4336 445.572 56.105 448.843 53.3457 448.843ZM48.5426 437.397L50.8931 437.601L52.9371 437.806V439.747C53.0052 440.497 53.1073 441.11 53.2436 441.587C53.3458 441.076 53.3458 440.463 53.448 439.747L53.6524 437.806L55.5941 437.601L58.0468 437.397C57.2824 437.181 56.4905 437.078 55.6963 437.09L53.6524 436.886V434.842C53.5502 433.718 53.4479 432.798 53.3457 431.981C53.1257 432.918 53.0228 433.879 53.0392 434.842L52.8348 436.886L50.8931 437.09C50.0985 437.07 49.3055 437.173 48.5426 437.397V437.397Z" fill="#80A5AE"/>
<path d="M144.504 120.08H130.401C129.778 120.08 129.18 119.832 128.739 119.391C128.298 118.951 128.051 118.353 128.051 117.729C128.051 117.106 128.298 116.508 128.739 116.067C129.18 115.627 129.778 115.379 130.401 115.379H144.504C145.128 115.379 145.725 115.627 146.166 116.067C146.607 116.508 146.855 117.106 146.855 117.729C146.855 118.353 146.607 118.951 146.166 119.391C145.725 119.832 145.128 120.08 144.504 120.08V120.08Z" fill="#F5F3F0"/>
<path d="M130.401 134.183C130.093 134.183 129.787 134.122 129.502 134.004C129.217 133.886 128.957 133.713 128.739 133.494C128.521 133.276 128.348 133.017 128.23 132.732C128.112 132.447 128.051 132.141 128.051 131.832V117.729C128.051 117.106 128.298 116.508 128.739 116.067C129.18 115.627 129.778 115.379 130.401 115.379C131.025 115.379 131.622 115.627 132.063 116.067C132.504 116.508 132.752 117.106 132.752 117.729V131.832C132.752 132.141 132.691 132.447 132.573 132.732C132.455 133.017 132.282 133.276 132.063 133.494C131.845 133.713 131.586 133.886 131.301 134.004C131.016 134.122 130.71 134.183 130.401 134.183V134.183Z" fill="#F5F3F0"/>
<path d="M144.505 134.183C144.196 134.183 143.89 134.122 143.605 134.004C143.32 133.886 143.061 133.713 142.842 133.494C142.624 133.276 142.451 133.017 142.333 132.732C142.215 132.447 142.154 132.141 142.154 131.832V117.729C142.154 117.106 142.402 116.508 142.842 116.067C143.283 115.627 143.881 115.379 144.505 115.379C145.128 115.379 145.726 115.627 146.167 116.067C146.607 116.508 146.855 117.106 146.855 117.729V131.832C146.855 132.141 146.794 132.447 146.676 132.732C146.558 133.017 146.385 133.276 146.167 133.494C145.948 133.713 145.689 133.886 145.404 134.004C145.119 134.122 144.813 134.183 144.505 134.183V134.183Z" fill="#F5F3F0"/>
<path d="M144.504 134.182H130.401C129.778 134.182 129.18 133.935 128.739 133.494C128.298 133.053 128.051 132.455 128.051 131.832C128.051 131.209 128.298 130.611 128.739 130.17C129.18 129.729 129.778 129.481 130.401 129.481H144.504C145.128 129.481 145.725 129.729 146.166 130.17C146.607 130.611 146.855 131.209 146.855 131.832C146.855 132.455 146.607 133.053 146.166 133.494C145.725 133.935 145.128 134.182 144.504 134.182Z" fill="#F5F3F0"/>
<path d="M144.505 123.146H130.402C130.059 123.219 129.705 123.214 129.365 123.132C129.024 123.05 128.706 122.893 128.434 122.673C128.163 122.453 127.943 122.174 127.793 121.858C127.642 121.542 127.564 121.197 127.564 120.847C127.564 120.497 127.642 120.151 127.793 119.835C127.943 119.519 128.163 119.241 128.434 119.02C128.706 118.8 129.024 118.643 129.365 118.561C129.705 118.479 130.059 118.475 130.402 118.547H144.505C144.847 118.475 145.201 118.479 145.542 118.561C145.882 118.643 146.2 118.8 146.472 119.02C146.744 119.241 146.963 119.519 147.114 119.835C147.264 120.151 147.343 120.497 147.343 120.847C147.343 121.197 147.264 121.542 147.114 121.858C146.963 122.174 146.744 122.453 146.472 122.673C146.2 122.893 145.882 123.05 145.542 123.132C145.201 123.214 144.847 123.219 144.505 123.146Z" fill="#F5F3F0"/>
<path d="M68.8798 104.137C72.3057 102.444 75.9521 101.24 79.7125 100.56C81.6542 100.151 80.8366 97.2896 78.8948 97.5962C74.8471 98.3323 70.9246 99.6399 67.2447 101.48C65.5073 102.297 67.0402 104.954 68.8798 104.137V104.137Z" fill="#80A5AE"/>
<path d="M66.938 91.5672C68.537 92.1773 70.2342 92.489 71.9456 92.487C72.3522 92.487 72.7421 92.3255 73.0296 92.038C73.317 91.7505 73.4785 91.3606 73.4785 90.954C73.4785 90.5475 73.317 90.1576 73.0296 89.8701C72.7421 89.5826 72.3522 89.4211 71.9456 89.4211C70.5107 89.4067 69.0907 89.1296 67.7556 88.6035C65.9161 87.9904 65.0985 90.954 66.938 91.5672V91.5672Z" fill="#80A5AE"/>
<path d="M346.341 143.074C350.825 143.482 355.332 143.585 359.83 143.38C361.772 143.278 361.772 140.212 359.83 140.314C355.332 140.519 350.825 140.416 346.341 140.008C344.399 139.803 344.399 142.869 346.341 143.074Z" fill="#80A5AE"/>
<path d="M348.18 128.766C351.121 125.688 354.719 123.312 358.706 121.817C360.546 121.204 359.728 118.24 357.889 118.955C353.361 120.484 349.286 123.119 346.034 126.62C344.705 128.051 346.851 130.197 348.18 128.766V128.766Z" fill="#80A5AE"/>
<path d="M343.581 116.401C345.362 112.83 346.701 109.055 347.567 105.159C347.676 104.766 347.623 104.346 347.422 103.992C347.221 103.637 346.887 103.377 346.494 103.269C346.101 103.16 345.681 103.212 345.327 103.414C344.972 103.615 344.712 103.949 344.603 104.342C343.793 107.982 342.559 111.515 340.924 114.868C340.107 116.605 342.764 118.138 343.581 116.401Z" fill="#80A5AE"/>
<path d="M320.076 164.739L319.667 154.622C319.667 154.215 319.506 153.825 319.218 153.538C318.931 153.25 318.541 153.089 318.134 153.089C317.728 153.089 317.338 153.25 317.05 153.538C316.763 153.825 316.601 154.215 316.601 154.622L317.01 164.739C317.112 166.681 320.178 166.681 320.076 164.739Z" fill="#80A5AE"/>
<path d="M305.666 165.046C307.147 160.642 307.67 155.973 307.199 151.351C306.995 149.512 303.929 149.41 304.133 151.351C304.747 155.848 303.929 159.936 302.703 164.228C302.594 164.621 302.646 165.041 302.848 165.396C303.049 165.75 303.383 166.01 303.776 166.119C304.169 166.227 304.589 166.175 304.943 165.974C305.298 165.772 305.558 165.439 305.666 165.046V165.046Z" fill="#80A5AE"/>
<path d="M106.999 109.145C105.63 107.62 104.611 105.815 104.01 103.856C103.41 101.897 103.244 99.8306 103.524 97.8009C103.728 95.8592 100.765 95.0416 100.56 96.9833C100.173 99.553 100.357 102.177 101.098 104.667C101.84 107.158 103.122 109.454 104.853 111.393C106.079 112.824 108.225 110.678 106.999 109.145V109.145Z" fill="#80A5AE"/>
<path d="M123.861 100.662C121.963 99.484 120.414 97.8214 119.372 95.8456C118.33 93.8698 117.834 91.652 117.933 89.4206C117.933 89.0141 117.772 88.6242 117.484 88.3367C117.197 88.0492 116.807 87.8877 116.4 87.8877C115.994 87.8877 115.604 88.0492 115.317 88.3367C115.029 88.6242 114.868 89.0141 114.868 89.4206C114.757 92.1924 115.39 94.9432 116.702 97.3873C118.014 99.8315 119.957 101.88 122.328 103.319C122.502 103.42 122.695 103.485 122.895 103.511C123.094 103.538 123.297 103.524 123.492 103.472C123.686 103.42 123.869 103.33 124.028 103.207C124.188 103.085 124.322 102.932 124.423 102.757C124.523 102.583 124.589 102.39 124.615 102.19C124.641 101.991 124.628 101.788 124.576 101.593C124.523 101.399 124.433 101.216 124.311 101.057C124.188 100.897 124.035 100.763 123.861 100.662V100.662Z" fill="#80A5AE"/>
</svg>
