<svg width="470" height="386" viewBox="0 0 470 386" fill="none" xmlns="http://www.w3.org/2000/svg">
<path d="M424.824 5.06787H341.568C329.173 5.06787 319.125 15.1159 319.125 27.5109V127.418C319.125 139.813 329.173 149.861 341.568 149.861H424.824C437.219 149.861 447.267 139.813 447.267 127.418V27.5109C447.267 15.1159 437.219 5.06787 424.824 5.06787Z" fill="#CBC7DB"/>
<path d="M160.938 78.8398C154.186 79.8453 147.737 82.3163 142.042 86.0795C121.699 99.5453 119.744 124.595 119.527 128.359" fill="#80A5AE"/>
<path d="M233.697 165.426H232.393C225.025 164.695 217.957 162.131 211.833 157.97C206.377 154.092 201.912 148.982 198.801 143.056C198.672 142.888 198.582 142.693 198.536 142.486C198.49 142.279 198.491 142.064 198.537 141.857C198.584 141.651 198.675 141.456 198.805 141.289C198.934 141.121 199.099 140.984 199.288 140.887C199.476 140.79 199.684 140.735 199.896 140.727C200.108 140.719 200.319 140.758 200.514 140.841C200.709 140.923 200.884 141.048 201.026 141.205C201.168 141.363 201.273 141.55 201.335 141.753C204.24 147.258 208.408 151.997 213.498 155.58C219.178 159.478 225.754 161.869 232.611 162.531C232.9 162.603 265.768 164.34 296.175 127.056H296.247C296.821 126.331 297.477 125.675 298.202 125.101C299.362 124.243 300.697 123.65 302.112 123.364C302.998 123.217 303.84 122.87 304.573 122.35C305.369 121.771 306.817 120.468 306.673 119.237C306.528 118.007 306.455 118.513 306.311 118.441C306.166 118.369 304.211 118.803 303.415 119.092C302.618 119.382 300.664 120.178 299.795 119.092C298.926 118.007 299.795 116.197 302.473 112.794C303.125 111.925 303.704 111.129 304.283 110.477C306.166 108.088 307.034 107.002 307.614 105.12C308.193 103.238 307.976 103.02 307.903 102.948C307.831 102.876 307.469 102.514 304.935 103.31C303.974 103.694 303.127 104.317 302.473 105.12C301.512 106.414 300.171 107.376 298.636 107.871C297.985 108.016 296.247 108.523 295.306 107.364C294.365 106.206 295.234 104.251 296.103 102.948C296.981 101.623 298.143 100.51 299.505 99.6902C300.519 99.0386 301.026 98.6766 301.315 97.8802C301.605 97.0839 301.605 96.5771 301.46 96.5047C301.315 96.4323 300.446 96.0703 299.288 96.2151C296.827 96.5047 295.161 98.749 293.931 100.342C292.7 101.934 291.904 102.948 290.456 102.441C289.008 101.934 289.297 100.414 289.732 98.025C290.163 95.7564 290.405 93.456 290.456 91.1473C290.456 89.989 290.238 89.6994 290.166 89.627C290.094 89.5546 289.659 89.4822 288.79 89.7718C287.922 90.0614 286.763 91.1473 286.112 94.8396V95.0568C285.388 98.6042 279.451 106.495 235.941 133.789C235.779 133.899 235.597 133.975 235.405 134.012C235.213 134.05 235.016 134.048 234.825 134.007C234.634 133.966 234.453 133.887 234.293 133.775C234.133 133.662 233.998 133.518 233.896 133.352C233.793 133.186 233.725 133.001 233.696 132.807C233.666 132.614 233.677 132.417 233.726 132.228C233.775 132.039 233.862 131.861 233.981 131.707C234.101 131.552 234.25 131.423 234.421 131.328C275.759 105.409 282.782 97.1563 283.288 94.4776V94.3328C284.157 89.4822 286.184 87.7447 287.777 87.0931C289.37 86.4416 290.818 86.514 291.831 87.3103C292.845 88.1067 293.352 90.351 293.352 91.1473C293.331 93.1392 293.137 95.1256 292.772 97.0839C294.22 95.4912 296.175 93.6812 298.854 93.3192C299.94 93.1744 302.618 93.0297 303.849 94.8396C305.08 96.6495 304.79 96.8667 304.066 98.8938C303.485 100.25 302.465 101.372 301.17 102.079C300.108 102.694 299.194 103.534 298.492 104.541L298.274 104.903C299.098 104.492 299.816 103.898 300.374 103.165C301.321 101.952 302.606 101.045 304.066 100.559C305.442 100.125 308.41 99.1834 310.075 100.993C311.74 102.803 310.799 104.686 310.365 105.989C309.641 108.378 308.555 109.753 306.528 112.287L304.718 114.531L303.704 115.835C305.152 115.4 306.745 115.111 308.048 116.124C308.482 116.443 308.839 116.856 309.089 117.333C309.34 117.809 309.479 118.337 309.496 118.875C309.93 121.916 307.107 124.16 306.238 124.739C305.203 125.477 304.015 125.972 302.763 126.187C301.739 126.374 300.773 126.795 299.94 127.418C299.402 127.842 298.916 128.328 298.492 128.866V129.011C282.13 149.065 265.117 157.897 253.678 161.807C243.905 164.992 236.592 165.426 233.697 165.426Z" fill="#090909"/>
<path d="M204.159 115.763H142.043V159.874H204.159V115.763Z" fill="#80A5AE"/>
<path d="M170.904 141.535L96.2192 161.826L109.436 210.473L184.121 190.181L170.904 141.535Z" fill="#CBC7DB"/>
<path d="M162.016 149.798L105.007 165.287L115.088 202.391L172.097 186.902L162.016 149.798Z" fill="#F5F3F0"/>
<path d="M122.206 124.74C119.327 129.5 117.202 134.677 115.908 140.088C107.872 173.897 136.903 204.231 139.292 206.693C139.514 207.068 139.841 207.37 140.233 207.562C140.839 207.821 141.512 207.876 142.152 207.719C142.791 207.563 143.363 207.202 143.78 206.693C144.359 205.896 144.07 205.245 144.721 204.883C145.373 204.521 145.59 204.883 146.531 204.883C147.221 204.869 147.899 204.699 148.513 204.386C149.128 204.072 149.663 203.623 150.079 203.073C150.658 202.277 150.441 201.915 151.02 201.263C151.599 200.612 152.685 200.829 153.699 200.394C155.871 199.381 157.101 194.82 156.377 191.417C156.305 190.693 156.088 190.114 156.377 189.607C156.667 189.1 158.549 189.462 160.938 188.666C161.807 188.376 163.11 188.015 163.617 186.856C164.124 185.698 163.4 184.105 162.676 183.309C161.761 182.284 160.495 181.638 159.128 181.499C154.278 180.558 148.414 167.743 146.531 153.554C145.607 146.683 145.607 139.719 146.531 132.848" fill="#F5F3F0"/>
<path d="M141.318 209.298C140.712 209.302 140.114 209.152 139.581 208.864C139.026 208.639 138.566 208.23 138.278 207.706H138.205C134.73 204.158 106.423 173.969 114.459 139.798C115.825 134.262 118.022 128.965 120.975 124.088C121.182 123.778 121.496 123.556 121.856 123.463C122.216 123.369 122.598 123.411 122.93 123.581C123.099 123.678 123.247 123.808 123.365 123.963C123.483 124.119 123.568 124.297 123.615 124.486C123.662 124.676 123.671 124.873 123.64 125.065C123.61 125.258 123.54 125.443 123.436 125.608C120.665 130.225 118.592 135.226 117.283 140.449C109.536 173.317 137.192 202.493 140.305 205.751C140.45 205.823 140.522 205.968 140.667 206.113L140.812 206.33C141.123 206.437 141.459 206.453 141.78 206.376C142.1 206.299 142.392 206.132 142.621 205.896C142.737 205.777 142.813 205.625 142.839 205.461C142.884 205.111 143.005 204.774 143.192 204.474C143.38 204.174 143.629 203.919 143.925 203.724C144.214 203.547 144.537 203.43 144.873 203.381C145.208 203.331 145.551 203.349 145.879 203.434H146.531C146.987 203.415 147.435 203.303 147.846 203.104C148.257 202.904 148.622 202.623 148.92 202.276C149.023 202.122 149.096 201.95 149.137 201.769C149.303 201.201 149.601 200.68 150.006 200.249C150.637 199.609 151.496 199.244 152.395 199.235L153.119 199.091C154.422 198.439 155.58 194.747 155.001 191.706V191.416C154.856 190.975 154.806 190.508 154.856 190.046C154.906 189.584 155.054 189.138 155.291 188.738C156.015 187.652 157.246 187.652 158.187 187.652C158.994 187.617 159.795 187.496 160.576 187.29C161.227 187.073 162.169 186.783 162.386 186.276C162.603 185.77 162.169 184.828 161.662 184.249C160.989 183.501 160.058 183.036 159.056 182.946H158.911C152.685 181.788 146.893 166.946 145.155 153.843C144.214 146.852 144.214 139.766 145.155 132.775C145.173 132.587 145.229 132.405 145.32 132.239C145.41 132.074 145.535 131.929 145.684 131.813C145.833 131.698 146.005 131.614 146.188 131.568C146.371 131.522 146.562 131.514 146.748 131.544C146.939 131.562 147.124 131.618 147.292 131.708C147.461 131.798 147.611 131.921 147.732 132.069C147.853 132.217 147.944 132.388 147.998 132.571C148.053 132.754 148.071 132.947 148.051 133.137C147.123 139.885 147.098 146.726 147.979 153.481C149.933 167.598 155.725 179.399 159.418 180.123H159.562C161.233 180.375 162.766 181.193 163.906 182.439C164.92 183.598 165.788 185.697 164.992 187.507C164.196 189.317 162.458 189.824 161.445 190.113C160.41 190.421 159.339 190.592 158.259 190.62H157.68C157.706 190.649 157.726 190.684 157.739 190.721C157.751 190.759 157.756 190.798 157.752 190.837V191.199C158.549 195.036 157.173 200.394 154.277 201.769C153.745 201.99 153.184 202.136 152.612 202.204C152.105 202.204 152.105 202.276 151.961 202.348C151.816 202.421 151.888 202.421 151.888 202.638C151.737 203.125 151.517 203.588 151.237 204.014C150.675 204.749 149.952 205.347 149.124 205.761C148.296 206.175 147.384 206.394 146.458 206.403H145.517C145.391 206.877 145.169 207.32 144.866 207.706C144.425 208.212 143.88 208.617 143.267 208.892C142.655 209.167 141.99 209.306 141.318 209.298V209.298Z" fill="#090909"/>
<path d="M226.167 117.138C230.366 120.396 236.375 125.536 240.574 128.794Z" fill="#F5F3F0"/>
<path d="M240.574 130.241C240.258 130.26 239.947 130.156 239.706 129.952C237.534 128.287 235 126.187 232.466 124.088L225.299 118.224C225.106 118.128 224.938 117.992 224.805 117.824C224.672 117.655 224.578 117.46 224.529 117.251C224.481 117.042 224.48 116.824 224.526 116.615C224.572 116.405 224.664 116.209 224.795 116.039C224.927 115.869 225.094 115.731 225.285 115.634C225.477 115.537 225.687 115.484 225.902 115.478C226.116 115.472 226.329 115.514 226.525 115.601C226.722 115.688 226.896 115.817 227.036 115.979C229.208 117.644 231.815 119.816 234.276 121.843L241.443 127.707C241.604 127.815 241.74 127.955 241.843 128.118C241.946 128.282 242.013 128.465 242.04 128.656C242.068 128.848 242.054 129.042 242.001 129.228C241.948 129.414 241.857 129.587 241.733 129.735C241.591 129.901 241.413 130.033 241.212 130.121C241.011 130.209 240.793 130.25 240.574 130.241Z" fill="#090909"/>
<path d="M149.21 133.789C143.691 131.688 137.963 130.183 132.124 129.301C124.161 128.07 121.554 130.025 120.396 128.36C116.776 123.147 138.64 101.211 158.187 81.5912C158.477 81.3016 160.504 78.1162 160.938 78.8401C161.807 80.6501 162.314 84.7043 164.486 88.7585C167.671 94.4778 176.938 98.8216 179.834 95.9982C182.73 93.1747 184.322 87.8897 182.512 79.7813C182.44 79.4193 183.96 79.7089 184.322 79.7813C186.567 80.0709 194.965 81.8084 200.539 85.1387C206.114 88.4689 217.779 99.4471 227.19 116.388" fill="#80A5AE"/>
<path d="M212.759 105.807L189.336 134.629L203.309 145.985L227.19 116.387L212.759 105.807Z" fill="#80A5AE"/>
<path d="M203.652 130.242C203.316 130.248 202.986 130.146 202.711 129.953C202.426 129.702 202.251 129.348 202.223 128.969C202.196 128.59 202.32 128.215 202.566 127.926L219.652 107.22C219.763 107.052 219.909 106.909 220.078 106.8C220.248 106.692 220.439 106.62 220.638 106.589C220.837 106.558 221.04 106.569 221.235 106.621C221.43 106.674 221.611 106.766 221.768 106.893C221.925 107.019 222.054 107.177 222.146 107.356C222.238 107.535 222.293 107.732 222.305 107.933C222.317 108.134 222.286 108.336 222.216 108.525C222.146 108.714 222.037 108.886 221.896 109.03L204.811 129.736C204.668 129.902 204.49 130.034 204.29 130.122C204.089 130.21 203.871 130.251 203.652 130.242Z" fill="#CBC7DB"/>
<path d="M176.793 97.9521C174.292 97.8442 171.855 97.1232 169.698 95.8526C160.576 90.9296 157.753 77.6086 159.056 67.4007C159.128 66.6043 161.807 46.3332 173.752 44.5957C179.327 43.7993 184.757 47.4192 187.725 51.4734C190.693 55.5276 192.358 63.0569 190.693 69.3554C189.462 73.7716 187.001 77.2466 183.816 79.1289C185.698 85.2103 184.902 94.1151 181.064 96.7213C179.793 97.544 178.307 97.9722 176.793 97.9521V97.9521ZM175.345 47.3468H174.187C164.341 48.7947 161.952 67.5455 161.879 67.6902C160.721 77.2466 163.472 89.1197 171.074 93.2463C173.68 94.6942 177.3 95.7078 179.472 94.2599C181.644 92.8119 182.657 85.5722 181.137 80.2149C175.707 81.7352 170.133 79.1289 167.816 77.8258C167.488 77.6167 167.253 77.2901 167.159 76.9131C167.065 76.5361 167.119 76.1373 167.309 75.7987C167.505 75.4763 167.818 75.243 168.184 75.1483C168.549 75.0537 168.936 75.1052 169.264 75.2919C171.363 76.5227 176.793 79.0565 181.499 77.0294C184.467 75.7263 186.784 72.6132 187.87 68.4866C189.318 63.1293 188.304 57.0479 185.408 53.0661C182.512 49.0843 179.327 47.3468 175.345 47.3468Z" fill="#090909"/>
<path d="M193.879 359.45L187.001 359.233V356.771L158.694 357.495V359.233L158.549 380.155C158.53 380.738 158.628 381.318 158.837 381.862C159.047 382.406 159.364 382.902 159.769 383.321C160.175 383.74 160.66 384.073 161.197 384.3C161.733 384.527 162.31 384.644 162.893 384.644L205.028 385.151C205.925 385.151 206.788 384.805 207.435 384.184C208.083 383.564 208.466 382.717 208.503 381.82V381.82C208.865 369.513 206.404 359.594 193.879 359.45Z" fill="#090909"/>
<path d="M194.675 379.07C192.987 376.43 192.39 373.237 193.01 370.165C194.458 363.36 201.191 360.754 201.625 360.609" fill="#090909"/>
<path d="M156.812 381.024C159.346 377.983 163.255 381.096 166.296 381.458C167.651 381.63 169.028 381.43 170.278 380.879C173.753 379.649 176.576 378.925 180.196 380.083C182.368 380.734 184.033 381.531 186.35 381.458C191.562 381.169 195.617 377.983 200.829 380.011C206.042 382.038 208.214 380.734 212.268 378.78C213.499 378.201 212.413 376.318 211.109 376.897C209.806 377.477 206.331 379.214 203.508 378.707C202.567 378.409 201.648 378.046 200.757 377.621C198.996 376.984 197.102 376.81 195.255 377.115C193.155 377.477 191.128 378.273 189.101 378.78C185.553 379.649 183.526 378.707 180.196 377.766C178.164 377.237 176.043 377.138 173.97 377.477C171.002 377.911 168.83 379.793 165.717 379.142C162.604 378.49 158.26 375.884 155.219 379.504C154.35 380.59 155.871 382.11 156.812 381.024V381.024Z" fill="#F5F3F0"/>
<path d="M180.702 373.277L191.707 365.241L190.041 364.3C190.114 366.907 189.462 370.454 190.403 372.843C190.488 373.126 190.677 373.366 190.933 373.514C191.189 373.662 191.491 373.707 191.779 373.639C194.313 372.915 196.919 370.382 199.091 368.861C201.212 367.546 203.117 365.909 204.738 364.011C205.607 362.852 203.724 361.766 202.856 362.852C201.987 363.938 199.019 366.255 196.919 367.703C194.82 369.151 193.154 371.033 191.2 371.54L192.503 372.264C191.707 370.164 192.286 366.545 192.213 364.3C192.213 363.576 191.272 362.852 190.621 363.359L179.616 371.395C178.53 372.191 179.544 374.074 180.702 373.277Z" fill="#F5F3F0"/>
<path d="M193.879 359.45L187.001 359.233V356.771L158.694 357.495V359.233L158.549 380.155C158.53 380.738 158.628 381.318 158.837 381.862C159.047 382.406 159.364 382.902 159.769 383.321C160.175 383.74 160.66 384.073 161.197 384.3C161.733 384.527 162.31 384.644 162.893 384.644L205.028 385.151C205.925 385.151 206.788 384.805 207.435 384.184C208.083 383.564 208.466 382.717 208.503 381.82V381.82C208.865 369.513 206.404 359.594 193.879 359.45Z" fill="#090909"/>
<path d="M194.675 379.07C192.987 376.43 192.39 373.237 193.01 370.165C194.458 363.36 201.191 360.754 201.625 360.609" fill="#090909"/>
<path d="M72.1069 342.726L69.2111 336.499L71.383 335.413L60.2339 309.857L56.9036 311.45L37.6461 320.572C37.1214 320.827 36.6524 321.183 36.266 321.62C35.8797 322.057 35.5838 322.566 35.3953 323.118C35.2069 323.67 35.1296 324.254 35.168 324.836C35.2064 325.418 35.3597 325.986 35.619 326.509L54.2249 364.3C54.6159 365.1 55.305 365.715 56.1441 366.012C56.9833 366.31 57.9057 366.267 58.7135 365.893V365.893C69.935 360.608 77.6091 353.947 72.1069 342.726Z" fill="#090909"/>
<path d="M54.6597 352.427C56.4034 349.741 59.0472 347.765 62.1165 346.853C68.9218 345.043 74.2068 349.893 74.5688 350.183" fill="#090909"/>
<path d="M383.92 135.599C416.747 135.599 443.358 108.988 443.358 76.1614C443.358 43.3348 416.747 16.7236 383.92 16.7236C351.094 16.7236 324.482 43.3348 324.482 76.1614C324.482 108.988 351.094 135.599 383.92 135.599Z" fill="#80A5AE"/>
<path d="M383.92 90.3512C391.757 90.3512 398.11 83.9982 398.11 76.1614C398.11 68.3246 391.757 61.9717 383.92 61.9717C376.083 61.9717 369.73 68.3246 369.73 76.1614C369.73 83.9982 376.083 90.3512 383.92 90.3512Z" fill="#F5F3F0"/>
<path d="M383.92 111.129C377.004 111.129 370.243 109.078 364.493 105.236C358.743 101.394 354.261 95.9325 351.614 89.543C348.967 83.1535 348.275 76.1227 349.624 69.3396C350.973 62.5566 354.304 56.326 359.194 51.4356C364.084 46.5453 370.315 43.215 377.098 41.8658C383.881 40.5165 390.912 41.209 397.302 43.8556C403.691 46.5022 409.152 50.9841 412.995 56.7345C416.837 62.4849 418.888 69.2455 418.888 76.1615C418.869 85.4296 415.178 94.3126 408.625 100.866C402.071 107.42 393.188 111.11 383.92 111.129ZM383.92 44.0897C377.577 44.0897 371.376 45.9707 366.102 49.4948C360.828 53.0189 356.717 58.0278 354.29 63.8882C351.862 69.7485 351.227 76.1971 352.465 82.4184C353.702 88.6397 356.757 94.3543 361.242 98.8396C365.727 103.325 371.442 106.38 377.663 107.617C383.884 108.854 390.333 108.219 396.193 105.792C402.054 103.364 407.063 99.2538 410.587 93.9796C414.111 88.7054 415.992 82.5047 415.992 76.1615C415.973 67.6614 412.588 59.5149 406.577 53.5045C400.567 47.494 392.42 44.1089 383.92 44.0897V44.0897Z" fill="#F5F3F0"/>
<path d="M182.512 139.218C183.512 139.218 184.322 138.408 184.322 137.409C184.322 136.409 183.512 135.599 182.512 135.599C181.513 135.599 180.702 136.409 180.702 137.409C180.702 138.408 181.513 139.218 182.512 139.218Z" fill="#CBC7DB"/>
<path d="M182.512 124.812C183.512 124.812 184.322 124.001 184.322 123.002C184.322 122.002 183.512 121.192 182.512 121.192C181.513 121.192 180.702 122.002 180.702 123.002C180.702 124.001 181.513 124.812 182.512 124.812Z" fill="#CBC7DB"/>
<path d="M383.92 126.693C355.106 126.693 331.649 104.033 331.649 76.1604C331.649 48.2876 355.106 25.6274 383.92 25.6274C412.734 25.6274 436.262 48.2876 436.262 76.1604C436.262 104.033 412.806 126.693 383.92 126.693ZM383.92 28.5233C356.698 28.5233 334.545 49.8803 334.545 76.1604C334.545 102.44 356.698 123.797 383.92 123.797C411.141 123.797 433.367 102.44 433.367 76.1604C433.367 49.8803 411.141 28.5233 383.92 28.5233Z" fill="#F5F3F0"/>
<path d="M375.739 75.2207C375.535 75.2494 375.327 75.1975 375.16 75.0759L349.676 63.6373C349.335 63.4792 349.068 63.1943 348.933 62.8429C348.798 62.4915 348.805 62.1012 348.952 61.7549C349.023 61.5792 349.129 61.4199 349.264 61.2869C349.398 61.154 349.559 61.0503 349.736 60.9823C349.912 60.9144 350.101 60.8836 350.29 60.892C350.479 60.9003 350.665 60.9477 350.835 61.031L376.318 72.4697C376.61 72.6103 376.846 72.8446 376.989 73.135C377.131 73.4254 377.173 73.7553 377.106 74.072C377.039 74.3886 376.868 74.6738 376.621 74.8821C376.373 75.0903 376.063 75.2095 375.739 75.2207V75.2207Z" fill="#CBC7DB"/>
<path d="M353.586 65.2295C353.26 65.2276 352.944 65.121 352.683 64.9255C352.422 64.7299 352.231 64.4558 352.138 64.1436L350.69 58.569C350.622 58.1961 350.696 57.8112 350.897 57.4898C351.098 57.1684 351.411 56.9336 351.776 56.8315C352.141 56.7424 352.526 56.7982 352.85 56.9873C353.174 57.1764 353.412 57.4839 353.514 57.845L354.962 63.4196C355.053 63.7935 355 64.1883 354.812 64.5243C354.623 64.8602 354.315 65.1122 353.948 65.2295H353.586Z" fill="#CBC7DB"/>
<path d="M357.64 67.1115C357.32 67.1186 357.008 67.0141 356.757 66.8159C356.506 66.6177 356.331 66.3382 356.264 66.0255L354.816 60.451C354.762 60.2703 354.745 60.0804 354.768 59.893C354.79 59.7057 354.85 59.5249 354.945 59.3619C355.04 59.199 355.168 59.0573 355.32 58.9458C355.472 58.8342 355.646 58.7551 355.83 58.7135C356.015 58.6585 356.21 58.6413 356.402 58.6628C356.594 58.6842 356.78 58.7439 356.949 58.8384C357.117 58.9329 357.265 59.0602 357.384 59.2128C357.503 59.3654 357.59 59.5403 357.64 59.727L359.088 65.3016C359.13 65.487 359.136 65.679 359.105 65.8667C359.074 66.0544 359.006 66.2341 358.905 66.3954C358.804 66.5568 358.672 66.6967 358.517 66.8071C358.362 66.9176 358.187 66.9964 358.002 67.0391L357.64 67.1115Z" fill="#CBC7DB"/>
<path d="M348.446 67.9084C348.177 67.9024 347.916 67.8256 347.687 67.6857C347.458 67.5459 347.27 67.3479 347.142 67.112C347.056 66.9411 347.004 66.7547 346.989 66.5636C346.975 66.3724 346.999 66.1804 347.06 65.9986C347.12 65.8167 347.216 65.6487 347.343 65.5043C347.469 65.3599 347.622 65.242 347.794 65.1573L352.934 62.551C353.259 62.4523 353.607 62.4705 353.92 62.6027C354.232 62.7348 354.488 62.9724 354.643 63.274C354.799 63.5756 354.843 63.9221 354.769 64.2531C354.694 64.5841 354.506 64.8785 354.237 65.0849L349.097 67.7636L348.446 67.9084Z" fill="#CBC7DB"/>
<path d="M353.368 70.0801C353.134 70.0756 352.903 70.0217 352.691 69.9219C352.479 69.8221 352.29 69.6787 352.138 69.5009C352.027 69.3444 351.949 69.1676 351.907 68.9806C351.866 68.7937 351.862 68.6004 351.895 68.4118C351.929 68.2233 352 68.0433 352.103 67.8823C352.207 67.7213 352.342 67.5825 352.499 67.4738L356.843 64.5056C356.996 64.3848 357.173 64.2979 357.361 64.2505C357.55 64.203 357.747 64.1962 357.938 64.2304C358.13 64.2646 358.312 64.3391 358.473 64.4489C358.633 64.5588 358.769 64.7015 358.87 64.8676C358.979 65.0183 359.056 65.1894 359.097 65.3707C359.137 65.5519 359.141 65.7396 359.107 65.9222C359.073 66.1049 359.003 66.2788 358.9 66.4335C358.797 66.5882 358.664 66.7204 358.508 66.8223L354.165 69.8629C353.926 70.0111 353.649 70.0865 353.368 70.0801Z" fill="#CBC7DB"/>
<path d="M428.806 108.522C428.602 108.538 428.399 108.488 428.227 108.378L402.815 97.0114C402.637 96.9334 402.477 96.8203 402.343 96.6788C402.209 96.5373 402.106 96.3703 402.038 96.1879C401.971 96.0054 401.941 95.8112 401.95 95.6169C401.959 95.4225 402.007 95.232 402.091 95.0567C402.162 94.881 402.268 94.7216 402.402 94.5887C402.537 94.4557 402.698 94.352 402.875 94.2841C403.051 94.2161 403.24 94.1854 403.429 94.1937C403.618 94.2021 403.804 94.2494 403.974 94.3327L429.457 105.771C429.799 105.929 430.066 106.214 430.201 106.566C430.336 106.917 430.329 107.307 430.181 107.654C430.058 107.914 429.863 108.134 429.62 108.288C429.376 108.441 429.094 108.523 428.806 108.522Z" fill="#CBC7DB"/>
<path d="M426.996 112.65C426.676 112.657 426.364 112.553 426.113 112.354C425.862 112.156 425.688 111.877 425.621 111.564L424.173 105.989C424.081 105.797 424.033 105.587 424.031 105.374C424.03 105.161 424.076 104.95 424.166 104.757C424.255 104.563 424.386 104.392 424.55 104.255C424.713 104.118 424.905 104.019 425.111 103.965C425.317 103.911 425.532 103.903 425.742 103.942C425.951 103.98 426.15 104.065 426.323 104.189C426.496 104.313 426.64 104.474 426.744 104.66C426.848 104.846 426.909 105.053 426.924 105.265L428.372 110.84C428.426 111.021 428.442 111.211 428.42 111.398C428.398 111.585 428.337 111.766 428.242 111.929C428.147 112.092 428.02 112.234 427.868 112.345C427.716 112.457 427.542 112.536 427.358 112.577L426.996 112.65Z" fill="#CBC7DB"/>
<path d="M422.869 110.767C422.549 110.775 422.237 110.67 421.986 110.472C421.735 110.274 421.561 109.994 421.494 109.681L420.046 104.107C419.957 103.742 420.012 103.358 420.201 103.033C420.391 102.709 420.698 102.471 421.059 102.369C421.433 102.278 421.828 102.331 422.164 102.52C422.5 102.708 422.752 103.016 422.869 103.383L424.317 108.957C424.406 109.341 424.342 109.744 424.139 110.082C423.937 110.419 423.611 110.665 423.231 110.767H422.869Z" fill="#CBC7DB"/>
<path d="M425.548 107.075C425.28 107.069 425.018 106.992 424.789 106.852C424.56 106.712 424.373 106.514 424.245 106.278C424.158 106.108 424.106 105.921 424.092 105.73C424.078 105.539 424.102 105.347 424.162 105.165C424.223 104.983 424.319 104.815 424.445 104.671C424.571 104.526 424.725 104.408 424.896 104.324L430.037 101.718C430.201 101.618 430.384 101.553 430.574 101.529C430.765 101.504 430.958 101.519 431.142 101.574C431.326 101.628 431.497 101.721 431.643 101.845C431.79 101.97 431.908 102.124 431.991 102.297C432.078 102.468 432.13 102.654 432.144 102.845C432.159 103.036 432.135 103.228 432.074 103.41C432.013 103.592 431.917 103.76 431.791 103.904C431.665 104.049 431.512 104.167 431.34 104.251L426.2 106.93L425.548 107.075Z" fill="#CBC7DB"/>
<path d="M421.422 105.192C421.198 105.187 420.978 105.132 420.778 105.032C420.577 104.932 420.402 104.789 420.263 104.613C420.153 104.456 420.075 104.279 420.033 104.092C419.992 103.906 419.987 103.712 420.021 103.524C420.055 103.335 420.125 103.155 420.229 102.994C420.333 102.833 420.467 102.694 420.625 102.586L424.897 99.545C425.053 99.4346 425.23 99.3564 425.417 99.3148C425.604 99.2732 425.797 99.2692 425.986 99.3028C426.174 99.3365 426.354 99.4072 426.515 99.5109C426.676 99.6146 426.815 99.7493 426.924 99.907C427.034 100.063 427.112 100.24 427.154 100.427C427.196 100.614 427.2 100.808 427.166 100.996C427.132 101.185 427.061 101.365 426.958 101.526C426.854 101.687 426.72 101.825 426.562 101.934L422.29 104.975C422.021 105.113 421.724 105.188 421.422 105.192V105.192Z" fill="#CBC7DB"/>
<path d="M284.374 126.766C284.123 126.77 283.875 126.704 283.658 126.577C283.441 126.449 283.263 126.264 283.144 126.042C282.95 125.723 282.887 125.342 282.968 124.978C283.049 124.614 283.268 124.295 283.578 124.088L315.577 104.613C315.909 104.444 316.291 104.402 316.651 104.495C317.011 104.588 317.325 104.811 317.532 105.12C317.637 105.275 317.71 105.45 317.745 105.634C317.78 105.818 317.777 106.008 317.737 106.191C317.696 106.374 317.618 106.547 317.509 106.699C317.399 106.851 317.259 106.979 317.098 107.074L285.098 126.549C284.882 126.688 284.631 126.763 284.374 126.766Z" fill="#CBC7DB"/>
<path d="M288.501 124.233H287.995L280.755 121.627C280.573 121.562 280.405 121.462 280.263 121.332C280.12 121.201 280.005 121.044 279.924 120.869C279.843 120.693 279.798 120.503 279.791 120.31C279.785 120.117 279.817 119.925 279.886 119.744C280.017 119.394 280.279 119.107 280.616 118.945C280.953 118.783 281.341 118.758 281.696 118.876L289.008 121.554C289.359 121.685 289.645 121.947 289.807 122.284C289.969 122.622 289.994 123.009 289.877 123.364C289.753 123.624 289.559 123.844 289.315 123.998C289.071 124.152 288.789 124.233 288.501 124.233V124.233Z" fill="#CBC7DB"/>
<path d="M293.641 121.119H293.134L285.894 118.441C285.691 118.397 285.499 118.309 285.333 118.184C285.166 118.059 285.028 117.9 284.929 117.717C284.829 117.534 284.771 117.332 284.756 117.124C284.742 116.916 284.773 116.708 284.847 116.513C284.92 116.318 285.035 116.142 285.183 115.995C285.332 115.849 285.51 115.736 285.705 115.665C285.901 115.594 286.11 115.566 286.317 115.582C286.525 115.599 286.726 115.66 286.908 115.762L294.148 118.368C294.48 118.477 294.762 118.702 294.942 119.002C295.121 119.302 295.186 119.657 295.124 120.001C295.063 120.345 294.878 120.655 294.606 120.874C294.333 121.093 293.99 121.206 293.641 121.192V121.119Z" fill="#CBC7DB"/>
<path d="M287.487 131.906H287.342C287.152 131.888 286.967 131.833 286.798 131.743C286.629 131.653 286.479 131.53 286.358 131.382C286.237 131.234 286.147 131.063 286.092 130.88C286.037 130.696 286.019 130.504 286.039 130.314L287.052 122.64C287.106 122.262 287.3 121.919 287.595 121.678C287.89 121.436 288.265 121.315 288.645 121.337C289.029 121.407 289.373 121.615 289.613 121.922C289.853 122.228 289.972 122.613 289.948 123.002L288.935 130.676C288.883 131.021 288.707 131.336 288.441 131.562C288.175 131.788 287.836 131.91 287.487 131.906V131.906Z" fill="#CBC7DB"/>
<path d="M293.714 128.142C293.33 128.142 292.962 127.989 292.69 127.718C292.419 127.446 292.266 127.078 292.266 126.694V119.672C292.266 119.288 292.419 118.919 292.69 118.648C292.962 118.376 293.33 118.224 293.714 118.224C294.098 118.224 294.466 118.376 294.738 118.648C295.009 118.919 295.162 119.288 295.162 119.672V126.694C295.162 127.078 295.009 127.446 294.738 127.718C294.466 127.989 294.098 128.142 293.714 128.142Z" fill="#CBC7DB"/>
<path d="M382.4 78.044C382.104 78.0381 381.816 77.9459 381.571 77.7787C381.327 77.6115 381.137 77.3766 381.024 77.1028L371.033 51.04C370.964 50.8596 370.932 50.6671 370.938 50.4741C370.945 50.281 370.99 50.0911 371.071 49.9157C371.152 49.7403 371.267 49.5829 371.41 49.4527C371.553 49.3225 371.72 49.2222 371.902 49.1577C372.267 49.0375 372.665 49.0603 373.014 49.2215C373.364 49.3827 373.639 49.6703 373.784 50.0264L383.775 76.0893C383.844 76.2697 383.876 76.4621 383.87 76.6552C383.863 76.8483 383.818 77.0381 383.737 77.2135C383.656 77.389 383.541 77.5464 383.399 77.6766C383.256 77.8068 383.088 77.9071 382.906 77.9716L382.4 78.044Z" fill="#CBC7DB"/>
<path d="M373.712 55.311C373.462 55.343 373.208 55.2921 372.988 55.1662C372.649 54.9687 372.398 54.6473 372.29 54.2693C372.182 53.8914 372.225 53.4863 372.409 53.1391L375.377 48.2161C375.453 48.0195 375.57 47.8417 375.721 47.6949C375.872 47.5482 376.053 47.4362 376.251 47.3666C376.45 47.297 376.661 47.2716 376.871 47.292C377.08 47.3125 377.283 47.3784 377.464 47.4851C377.646 47.5918 377.802 47.7368 377.921 47.9099C378.041 48.083 378.121 48.2802 378.157 48.4876C378.193 48.695 378.183 48.9077 378.128 49.1109C378.073 49.3141 377.974 49.5028 377.839 49.664L374.943 54.6594C374.809 54.8627 374.626 55.029 374.411 55.1429C374.196 55.2567 373.956 55.3146 373.712 55.311V55.311Z" fill="#CBC7DB"/>
<path d="M375.305 59.5095C375.055 59.532 374.803 59.4817 374.581 59.3647C374.412 59.2677 374.264 59.1376 374.146 58.9819C374.028 58.8263 373.943 58.6485 373.896 58.4592C373.848 58.2698 373.84 58.0728 373.87 57.8801C373.901 57.6874 373.971 57.5028 374.074 57.3376L376.97 52.4146C377.06 52.2475 377.183 52.1008 377.332 51.9837C377.482 51.8666 377.653 51.7815 377.837 51.734C378.02 51.6864 378.212 51.6773 378.399 51.7072C378.586 51.7371 378.765 51.8054 378.925 51.9078C379.26 52.0914 379.508 52.3999 379.617 52.766C379.725 53.1321 379.685 53.5262 379.504 53.8625L376.536 58.8579C376.407 59.0662 376.225 59.2364 376.009 59.3509C375.793 59.4655 375.55 59.5202 375.305 59.5095V59.5095Z" fill="#CBC7DB"/>
<path d="M373.712 55.3116H373.278L367.776 53.5017C367.59 53.4531 367.416 53.366 367.266 53.2461C367.115 53.1262 366.992 52.9761 366.903 52.8056C366.815 52.6351 366.763 52.4478 366.751 52.256C366.739 52.0642 366.767 51.872 366.834 51.6918C366.951 51.3278 367.206 51.0247 367.546 50.8484C367.885 50.6721 368.28 50.6369 368.644 50.7506L374.146 52.4882C374.505 52.6338 374.799 52.9053 374.972 53.2517C375.146 53.5982 375.187 53.9959 375.088 54.3705C374.975 54.6443 374.785 54.8792 374.54 55.0463C374.296 55.2135 374.008 55.3057 373.712 55.3116V55.3116Z" fill="#CBC7DB"/>
<path d="M375.305 59.5097H375.088L369.875 58.6409C369.497 58.554 369.166 58.3256 368.951 58.0025C368.735 57.6794 368.652 57.2862 368.717 56.9034C368.788 56.5307 369.002 56.2005 369.313 55.9839C369.624 55.7673 370.008 55.6815 370.382 55.7451L375.522 56.6862C375.713 56.7127 375.897 56.7771 376.063 56.8756C376.229 56.9741 376.373 57.1047 376.488 57.2598C376.603 57.4149 376.685 57.5914 376.731 57.7788C376.776 57.9663 376.784 58.1609 376.753 58.3513C376.7 58.6902 376.522 58.9969 376.254 59.2112C375.986 59.4255 375.648 59.5319 375.305 59.5097Z" fill="#CBC7DB"/>
<path d="M400.644 53.4299C400.336 53.4009 400.039 53.3019 399.775 53.1403C399.468 52.9099 399.265 52.5669 399.21 52.1868C399.156 51.8066 399.255 51.4205 399.486 51.1132L416.354 28.8874C416.597 28.5754 416.953 28.3706 417.345 28.3165C417.737 28.2624 418.135 28.3634 418.453 28.5978C418.75 28.8388 418.939 29.187 418.979 29.5667C419.02 29.9463 418.909 30.3267 418.671 30.625L401.802 52.8508C401.664 53.0266 401.488 53.1697 401.288 53.2699C401.088 53.37 400.868 53.4246 400.644 53.4299V53.4299Z" fill="#CBC7DB"/>
<path d="M415.34 34.026C414.974 34.0102 414.625 33.8622 414.359 33.6093C414.093 33.3565 413.927 33.0159 413.892 32.6505C413.908 32.2646 414.064 31.8976 414.33 31.618C414.597 31.3383 414.956 31.1649 415.34 31.1301L421.06 30.9854H421.132C421.516 30.9854 421.884 31.1379 422.156 31.4094C422.427 31.681 422.58 32.0493 422.58 32.4333C422.58 32.8173 422.427 33.1856 422.156 33.4571C421.884 33.7287 421.516 33.8812 421.132 33.8812L415.413 34.026H415.34Z" fill="#CBC7DB"/>
<path d="M412.661 37.6475C412.277 37.6475 411.909 37.495 411.638 37.2235C411.366 36.9519 411.213 36.5836 411.213 36.1996C411.204 36.013 411.232 35.8263 411.297 35.651C411.361 35.4756 411.461 35.3153 411.59 35.1798C411.719 35.0443 411.874 34.9365 412.045 34.8629C412.217 34.7892 412.402 34.7514 412.589 34.7517L418.381 34.6069C418.567 34.5971 418.754 34.6253 418.929 34.6901C419.105 34.7548 419.265 34.8545 419.401 34.9833C419.536 35.112 419.644 35.267 419.718 35.4387C419.791 35.6105 419.829 35.7955 419.829 35.9824C419.849 36.1748 419.829 36.3694 419.769 36.5534C419.709 36.7374 419.611 36.9066 419.481 37.0501C419.351 37.1936 419.192 37.3081 419.015 37.3861C418.838 37.4641 418.647 37.5038 418.453 37.5028L412.661 37.6475Z" fill="#CBC7DB"/>
<path d="M415.34 34.0266C415.02 34.0337 414.708 33.9292 414.457 33.731C414.206 33.5328 414.031 33.2533 413.964 32.9406L412.589 27.3661C412.534 27.1854 412.518 26.9955 412.54 26.8081C412.562 26.6208 412.623 26.44 412.718 26.277C412.813 26.1141 412.94 25.9724 413.092 25.8608C413.245 25.7493 413.418 25.6702 413.602 25.6285C413.783 25.5742 413.973 25.5577 414.16 25.5799C414.347 25.6021 414.528 25.6626 414.691 25.7577C414.854 25.8528 414.996 25.9803 415.107 26.1325C415.219 26.2846 415.298 26.4581 415.34 26.6421L416.788 32.2166C416.876 32.6002 416.812 33.0032 416.61 33.3408C416.407 33.6783 416.082 33.9242 415.702 34.0266H415.34Z" fill="#CBC7DB"/>
<path d="M412.661 37.6458C412.365 37.6399 412.078 37.5477 411.833 37.3805C411.589 37.2133 411.399 36.9784 411.286 36.7047L409.331 31.8541C409.188 31.4988 409.191 31.1012 409.341 30.7484C409.49 30.3956 409.773 30.1163 410.128 29.9718C410.483 29.8285 410.88 29.8319 411.233 29.9811C411.586 30.1304 411.865 30.4134 412.01 30.7681L413.965 35.6187C414.108 35.974 414.105 36.3716 413.955 36.7244C413.806 37.0772 413.523 37.3564 413.168 37.501L412.661 37.6458Z" fill="#CBC7DB"/>
<path d="M95.853 26.7868C93.0295 26.7868 91.8712 22.081 91.4368 18.5336C88.0342 18.1716 82.532 17.158 82.532 14.045C82.532 10.9319 87.9618 9.91835 91.292 9.55637C91.5816 5.93653 92.6675 0 95.853 0C99.0384 0 100.124 5.93653 100.486 9.55637C103.817 9.91835 109.246 11.0043 109.246 14.045C109.246 17.0856 103.672 18.1716 100.342 18.5336C99.8348 22.081 98.7489 26.7868 95.853 26.7868ZM85.5727 14.045C86.2243 14.5517 88.5409 15.4929 92.8847 15.7825H94.0431L94.1879 17.0132C94.5499 20.9227 95.3462 22.9498 95.853 23.6013C96.3598 22.9498 97.1561 20.9227 97.5905 17.0132V15.8549H98.8213C103.165 15.5653 105.409 14.6241 106.133 14.1174C105.409 13.6106 103.165 12.6694 98.8937 12.3798L97.6629 12.2351V10.9319C97.3733 6.22612 96.4322 3.76463 95.853 3.04066C95.3462 3.76463 94.3327 6.22612 94.1155 10.9319L93.9707 12.1627L92.7399 12.3074C88.4685 12.597 86.2243 13.5382 85.5727 14.045Z" fill="#090909"/>
<path d="M356.916 198.656C354.092 198.656 352.934 194.022 352.5 190.475C349.097 190.113 343.522 189.027 343.522 185.986C343.522 182.946 348.952 181.86 352.355 181.425C352.644 177.878 353.658 171.941 356.916 171.941C360.174 171.941 361.187 177.878 361.549 181.425C364.879 181.86 370.309 182.946 370.309 185.986C370.309 189.027 364.735 190.113 361.332 190.475C360.898 194.022 359.812 198.656 356.916 198.656ZM346.635 185.986C347.287 186.493 349.604 187.362 353.875 187.724H355.106L355.251 188.955C355.613 192.864 356.409 194.891 356.916 195.543C357.423 194.891 358.219 192.864 358.581 188.955L358.726 187.724H359.956C364.228 187.362 366.545 186.493 367.269 185.986C366.545 185.48 364.3 184.538 360.029 184.249L358.798 184.104V182.873C358.509 178.385 357.567 175.778 356.988 174.982C356.409 175.778 355.468 178.385 355.178 182.873V184.104L353.947 184.249C349.531 184.538 347.287 185.48 346.635 185.986Z" fill="#CBC7DB"/>
<path d="M320.211 233.335C318.039 233.335 317.098 230.366 316.663 227.47C313.84 227.108 310.22 226.24 310.22 223.851C310.22 221.461 313.768 220.52 316.591 220.231C316.881 217.19 317.749 213.353 320.211 213.353C322.672 213.353 323.614 217.19 323.903 220.231C326.727 220.52 330.274 221.461 330.274 223.851C330.274 226.24 326.582 227.108 323.758 227.47C323.396 230.366 322.455 233.335 320.211 233.335ZM313.695 223.851C315.124 224.315 316.61 224.583 318.111 224.647H319.342V225.878C319.452 227.208 319.719 228.52 320.139 229.787C320.591 228.526 320.883 227.212 321.007 225.878V224.647H322.238C323.717 224.593 325.18 224.325 326.582 223.851C325.22 223.312 323.774 223.018 322.31 222.982H321.08V221.679C321.03 220.045 320.712 218.431 320.139 216.9C319.636 218.447 319.343 220.054 319.27 221.679V222.982H318.039C316.553 223.03 315.085 223.323 313.695 223.851V223.851Z" fill="#090909"/>
<path d="M350.4 332.807H216.249C215.865 332.807 215.497 332.655 215.225 332.383C214.954 332.112 214.801 331.744 214.801 331.36C214.801 330.976 214.954 330.607 215.225 330.336C215.497 330.064 215.865 329.912 216.249 329.912H350.4C350.784 329.912 351.153 330.064 351.424 330.336C351.696 330.607 351.848 330.976 351.848 331.36C351.848 331.744 351.696 332.112 351.424 332.383C351.153 332.655 350.784 332.807 350.4 332.807Z" fill="#090909"/>
<path d="M380.083 343.595H262.149C261.765 343.595 261.396 343.442 261.125 343.171C260.853 342.899 260.701 342.531 260.701 342.147C260.701 341.763 260.853 341.394 261.125 341.123C261.396 340.851 261.765 340.699 262.149 340.699H380.083C380.467 340.699 380.835 340.851 381.107 341.123C381.378 341.394 381.531 341.763 381.531 342.147C381.531 342.531 381.378 342.899 381.107 343.171C380.835 343.442 380.467 343.595 380.083 343.595Z" fill="#090909"/>
<path d="M31.7099 326.509H18.2442C17.8601 326.509 17.4918 326.357 17.2203 326.085C16.9487 325.814 16.7962 325.445 16.7962 325.061C16.7962 324.677 16.9487 324.309 17.2203 324.037C17.4918 323.766 17.8601 323.613 18.2442 323.613H31.7099C32.0939 323.613 32.4622 323.766 32.7338 324.037C33.0053 324.309 33.1579 324.677 33.1579 325.061C33.1579 325.445 33.0053 325.814 32.7338 326.085C32.4622 326.357 32.0939 326.509 31.7099 326.509Z" fill="#090909"/>
<path d="M32.9405 333.749H1.44793C1.06392 333.749 0.695608 333.596 0.424067 333.325C0.152527 333.053 0 332.685 0 332.301C0 331.917 0.152527 331.549 0.424067 331.277C0.695608 331.006 1.06392 330.853 1.44793 330.853H32.9405C33.3245 330.853 33.6928 331.006 33.9643 331.277C34.2359 331.549 34.3885 331.917 34.3885 332.301C34.3885 332.685 34.2359 333.053 33.9643 333.325C33.6928 333.596 33.3245 333.749 32.9405 333.749Z" fill="#090909"/>
<path d="M165.65 157.721L161.318 158.898L166.039 176.273L170.371 175.096L165.65 157.721Z" fill="#CBC7DB"/>
<path d="M176.358 98.6764H175.924C171.19 98.001 166.905 95.5081 163.978 91.7263C161.116 88.0639 159.426 83.6231 159.128 78.9845C159.108 78.7466 159.135 78.5072 159.208 78.28C159.282 78.0528 159.399 77.8424 159.554 77.6607C159.708 77.479 159.898 77.3297 160.11 77.2214C160.323 77.1132 160.555 77.048 160.793 77.0297C161.269 77.0083 161.735 77.1682 162.098 77.4773C162.461 77.7863 162.693 78.2214 162.748 78.6949C162.948 82.6019 164.366 86.3484 166.802 89.4096C167.945 90.9499 169.386 92.2439 171.041 93.2142C172.695 94.1845 174.528 94.8111 176.431 95.0565C177.921 94.8438 179.285 94.0979 180.268 92.957C180.485 92.6674 181.209 91.8711 181.643 89.3372C182.078 86.8033 182.15 85.7898 181.209 81.4459C181.113 80.9659 181.211 80.4674 181.483 80.0601C181.754 79.6528 182.177 79.37 182.657 79.274C183.137 79.178 183.635 79.2767 184.043 79.5482C184.45 79.8197 184.733 80.242 184.829 80.722C185.697 85.2106 185.625 87.5273 185.191 89.9888C184.756 92.4503 183.743 94.4774 183.019 95.3461C181.325 97.2916 178.931 98.4887 176.358 98.6764V98.6764Z" fill="#CBC7DB"/>
<path d="M169.046 113.156H156.884C156.5 113.156 156.131 113.004 155.86 112.732C155.588 112.46 155.436 112.092 155.436 111.708C155.436 111.324 155.588 110.956 155.86 110.684C156.131 110.413 156.5 110.26 156.884 110.26H169.046C169.43 110.26 169.799 110.413 170.07 110.684C170.342 110.956 170.494 111.324 170.494 111.708C170.494 112.092 170.342 112.46 170.07 112.732C169.799 113.004 169.43 113.156 169.046 113.156V113.156Z" fill="#F5F3F0"/>
<path d="M156.884 125.319C156.5 125.319 156.131 125.166 155.86 124.895C155.588 124.623 155.436 124.255 155.436 123.871V111.708C155.436 111.324 155.588 110.956 155.86 110.684C156.131 110.413 156.5 110.26 156.884 110.26C157.268 110.26 157.636 110.413 157.907 110.684C158.179 110.956 158.332 111.324 158.332 111.708V123.871C158.332 124.255 158.179 124.623 157.907 124.895C157.636 125.166 157.268 125.319 156.884 125.319V125.319Z" fill="#F5F3F0"/>
<path d="M169.046 125.319C168.853 125.33 168.66 125.299 168.48 125.23C168.3 125.161 168.136 125.055 167.999 124.918C167.863 124.782 167.756 124.618 167.687 124.438C167.618 124.257 167.588 124.064 167.598 123.871V111.709C167.588 111.516 167.618 111.323 167.687 111.143C167.756 110.962 167.863 110.798 167.999 110.662C168.136 110.525 168.3 110.419 168.48 110.35C168.66 110.281 168.853 110.25 169.046 110.261C169.43 110.261 169.799 110.413 170.07 110.685C170.342 110.956 170.494 111.325 170.494 111.709V123.871C170.494 124.255 170.342 124.624 170.07 124.895C169.799 125.167 169.43 125.319 169.046 125.319V125.319Z" fill="#F5F3F0"/>
<path d="M169.046 125.319H156.884C156.5 125.319 156.131 125.167 155.86 124.895C155.588 124.624 155.436 124.255 155.436 123.871C155.436 123.487 155.588 123.119 155.86 122.847C156.131 122.576 156.5 122.423 156.884 122.423H169.046C169.43 122.423 169.799 122.576 170.07 122.847C170.342 123.119 170.494 123.487 170.494 123.871C170.494 124.255 170.342 124.624 170.07 124.895C169.799 125.167 169.43 125.319 169.046 125.319V125.319Z" fill="#F5F3F0"/>
<path d="M169.046 115.835H156.884C156.691 115.845 156.498 115.815 156.318 115.746C156.137 115.677 155.973 115.571 155.837 115.434C155.7 115.297 155.594 115.134 155.525 114.953C155.456 114.773 155.425 114.58 155.436 114.387C155.436 114.003 155.588 113.635 155.86 113.363C156.131 113.092 156.5 112.939 156.884 112.939H169.046C169.43 112.939 169.799 113.092 170.07 113.363C170.342 113.635 170.494 114.003 170.494 114.387C170.505 114.58 170.475 114.773 170.405 114.953C170.336 115.134 170.23 115.297 170.094 115.434C169.957 115.571 169.793 115.677 169.613 115.746C169.432 115.815 169.239 115.845 169.046 115.835V115.835Z" fill="#F5F3F0"/>
<path d="M203.652 161.806C203.268 161.806 202.9 161.654 202.629 161.382C202.357 161.11 202.205 160.742 202.205 160.358L201.336 118.078C201.326 117.888 201.354 117.698 201.418 117.519C201.482 117.339 201.58 117.174 201.708 117.033C201.836 116.892 201.99 116.777 202.162 116.696C202.335 116.614 202.521 116.567 202.711 116.558H202.784C203.168 116.558 203.536 116.711 203.808 116.982C204.079 117.254 204.232 117.622 204.232 118.006L205.1 160.286C205.102 160.665 204.962 161.031 204.707 161.313C204.453 161.594 204.102 161.77 203.725 161.806H203.652Z" fill="#090909"/>
<path d="M146.024 139.292H145.879C145.688 139.265 145.504 139.201 145.338 139.103C145.173 139.004 145.028 138.873 144.913 138.718C144.799 138.563 144.716 138.387 144.671 138.199C144.625 138.012 144.618 137.817 144.648 137.627C144.67 137.262 144.719 136.899 144.793 136.541C145.083 133.935 145.662 129.012 146.458 126.55C147.562 123.455 149.177 120.568 151.236 118.007C151.348 117.839 151.493 117.696 151.663 117.588C151.832 117.479 152.023 117.407 152.222 117.376C152.421 117.345 152.625 117.356 152.819 117.409C153.014 117.461 153.196 117.553 153.353 117.68C153.51 117.806 153.638 117.964 153.731 118.143C153.823 118.322 153.877 118.519 153.889 118.72C153.901 118.921 153.871 119.123 153.801 119.312C153.73 119.501 153.621 119.673 153.481 119.817C151.649 122.126 150.206 124.718 149.209 127.491C148.485 129.663 147.906 134.369 147.617 136.903C147.544 137.337 147.544 137.699 147.472 137.989C147.436 138.347 147.268 138.679 147 138.92C146.732 139.161 146.384 139.294 146.024 139.292V139.292Z" fill="#090909"/>
<path d="M180.051 220.158C176.793 243.253 169.264 265.406 161.662 287.343L161.517 287.56C156.811 295.451 148.775 299.578 141.97 305.369C135.165 311.161 128.215 317.098 121.844 323.469C115.473 329.839 110.478 337.007 104.541 343.667C101.485 346.991 98.1684 350.066 94.6227 352.862C91.5096 355.251 87.8174 358.943 83.9079 360.318L58.2795 301.098L58.1347 300.881C57.6279 296.682 61.3926 294.148 64.4333 292.121L72.9037 286.474C78.1162 282.999 83.546 279.596 88.6862 275.904C93.8263 272.212 96.7222 268.302 101.428 265.551C104.758 263.524 108.45 262.8 111.057 259.977L111.636 259.615C118.948 253.461 119.889 242.457 122.278 233.769C124.667 225.081 130.749 216.032 131.545 206.186C131.69 204.086 128.432 204.159 128.287 206.186C127.563 215.235 122.061 223.054 119.527 231.669C116.993 240.285 116.414 250.565 109.971 256.719C109.566 256.808 109.207 257.039 108.957 257.37C107.22 259.832 104.179 260.483 101.645 261.787C99.5091 262.825 97.534 264.166 95.781 265.768C90.4614 270.34 84.8772 274.595 79.0574 278.51C73.1209 282.42 67.1843 286.184 61.3926 290.238C57.3384 293.062 54.2977 296.609 55.0217 301.822C55.03 302.091 55.1266 302.351 55.2966 302.56C55.4666 302.769 55.7007 302.917 55.9628 302.98L81.4465 361.839C81.3946 362.116 81.4112 362.402 81.4947 362.672C81.5782 362.942 81.7262 363.187 81.9258 363.387C82.1255 363.586 82.3707 363.734 82.6404 363.818C82.9101 363.901 83.1961 363.918 83.4736 363.866C87.5278 362.997 90.7856 359.812 94.0435 357.35C97.5862 354.703 100.971 351.851 104.179 348.807C111.129 341.93 116.342 333.676 123.219 326.726C130.097 319.776 137.047 313.84 144.287 307.686C151.527 301.532 158.332 297.985 163.327 290.745C163.548 290.654 163.746 290.516 163.908 290.341C164.07 290.166 164.193 289.958 164.268 289.732C172.087 267.289 179.834 244.701 183.236 221.027C183.526 219 180.34 218.131 180.051 220.158Z" fill="#090909"/>
<path d="M206.041 326.583C205.172 313.189 206.258 299.941 206.91 286.475C208.358 259.036 207.923 231.598 207.272 204.16C206.91 189.463 206.564 174.946 205.406 160.249C205.261 158.15 202.003 158.15 202.221 160.249C204.03 185.154 204.303 210.024 204.521 234.928C204.665 248.104 204.593 261.208 204.159 274.312C203.724 287.416 202.421 299.868 202.276 312.682C202.204 319.632 202.711 326.655 203.29 333.605L204.159 344.754C204.303 347.433 205.607 353.225 203.073 355.252C185.987 355.469 169.046 358.437 152.033 357.424L148.413 303.416C148.376 303.044 148.198 302.702 147.914 302.459C147.631 302.216 147.265 302.092 146.893 302.112C146.699 302.111 146.508 302.151 146.331 302.229C146.154 302.307 145.995 302.422 145.865 302.565C145.735 302.709 145.637 302.878 145.577 303.062C145.517 303.246 145.497 303.44 145.517 303.633L149.137 357.641C149.131 357.813 149.155 357.984 149.209 358.148C149.095 358.402 149.04 358.68 149.05 358.959C149.061 359.238 149.135 359.51 149.268 359.756C149.402 360.001 149.59 360.212 149.818 360.373C150.047 360.534 150.309 360.639 150.585 360.681C168.25 361.985 185.77 358.727 203.362 358.582H203.941C204.147 358.584 204.348 358.531 204.526 358.429C204.705 358.328 204.852 358.18 204.955 358.003C208.358 355.469 207.706 350.835 207.489 346.998C207.127 340.121 206.475 333.388 206.041 326.583Z" fill="#090909"/>
<path d="M157.825 300.737C159.731 316.809 160.626 332.985 160.504 349.17C160.504 349.458 160.618 349.734 160.822 349.938C161.025 350.142 161.302 350.256 161.59 350.256C161.878 350.256 162.154 350.142 162.357 349.938C162.561 349.734 162.676 349.458 162.676 349.17C162.798 332.985 161.903 316.809 159.997 300.737C159.852 299.361 157.68 299.289 157.825 300.737Z" fill="#CBC7DB"/>
<path d="M174.548 269.099C176.431 282.203 176.358 295.524 176.72 308.772L177.806 348.228C177.806 348.516 177.921 348.793 178.124 348.996C178.328 349.2 178.604 349.314 178.892 349.314C179.18 349.314 179.456 349.2 179.66 348.996C179.864 348.793 179.978 348.516 179.978 348.228C179.616 334.618 179.254 320.935 178.82 307.324C178.385 293.714 178.458 281.334 176.648 268.52C176.503 267.072 174.404 267.723 174.548 269.099Z" fill="#CBC7DB"/>
<path d="M190.114 168.684C192.853 198.356 193.964 228.156 193.444 257.949C192.938 287.777 191.055 317.677 191.924 347.504C191.996 348.88 194.168 348.88 194.096 347.504C193.227 317.677 195.109 287.777 195.616 257.949C196.136 228.156 195.024 198.356 192.286 168.684C192.214 167.236 190.042 167.236 190.114 168.684Z" fill="#CBC7DB"/>
<path d="M85.3558 344.391C103.917 329.294 120.787 312.229 135.671 293.496C143.273 283.94 150.44 274.094 155.725 263.017C161.01 251.941 164.92 240.212 168.684 228.556C173.077 214.801 176.962 200.853 180.34 186.711C180.417 186.433 180.38 186.135 180.238 185.884C180.095 185.633 179.859 185.449 179.58 185.372C179.302 185.295 179.004 185.332 178.753 185.474C178.502 185.617 178.318 185.853 178.241 186.132C172.521 210.24 165.789 234.927 155.798 257.66C145.807 280.392 129.807 298.636 113.301 315.794C104.006 325.377 94.1683 334.418 83.8354 342.871C82.7495 343.74 84.2698 345.26 85.3558 344.391Z" fill="#CBC7DB"/>
<path d="M78.4058 326.074C111.717 301.245 138.438 268.633 156.232 231.09C158.875 225.731 161.196 220.219 163.182 214.583C165.427 208.068 165.354 200.828 168.105 194.602C168.685 193.299 166.802 192.213 166.223 193.516C164.124 198.222 163.906 203.217 162.748 208.14C161.59 213.063 159.056 219.651 156.594 225.153C152.429 234.511 147.69 243.602 142.405 252.375C131.749 270.024 118.985 286.313 104.396 300.88C95.9355 309.284 86.8871 317.074 77.3198 324.192C76.2339 325.061 77.3198 326.943 78.4058 326.074V326.074Z" fill="#CBC7DB"/>
<path d="M72.0349 305.007C88.3966 291.903 105.048 278.365 118.658 262.293C130.676 248.103 141.681 229.932 141.681 210.674C141.681 210.386 141.566 210.11 141.362 209.906C141.159 209.703 140.883 209.588 140.595 209.588C140.307 209.588 140.03 209.703 139.827 209.906C139.623 210.11 139.509 210.386 139.509 210.674C139.509 230.511 127.491 249.117 114.821 263.452C102.152 277.786 86.0074 291.035 70.5145 303.487C69.4286 304.356 70.9489 305.876 72.0349 305.007Z" fill="#CBC7DB"/>
<path d="M156.812 381.024C159.346 377.983 163.255 381.096 166.296 381.458C167.651 381.63 169.028 381.43 170.278 380.879C173.753 379.649 176.576 378.925 180.196 380.083C182.368 380.734 184.033 381.531 186.35 381.458C191.562 381.169 195.617 377.983 200.829 380.011C206.042 382.038 208.214 380.734 212.268 378.78C213.499 378.201 212.413 376.318 211.109 376.897C209.806 377.477 206.331 379.214 203.508 378.707C202.567 378.409 201.648 378.046 200.757 377.621C198.996 376.984 197.102 376.81 195.255 377.115C193.155 377.477 191.128 378.273 189.101 378.78C185.553 379.649 183.526 378.707 180.196 377.766C178.164 377.237 176.043 377.138 173.97 377.477C171.002 377.911 168.83 379.793 165.717 379.142C162.604 378.49 158.26 375.884 155.219 379.504C154.35 380.59 155.871 382.11 156.812 381.024V381.024Z" fill="#F5F3F0"/>
<path d="M39.5284 320.138C45.5373 322.238 41.4831 328.971 45.8993 332.446C50.3155 335.921 51.0395 336.428 50.3155 341.495C50.0983 343.16 50.0259 344.608 50.8223 346.129C52.9942 349.966 58.6411 350.328 58.6411 355.396C58.6411 360.463 59.0755 363.359 62.7678 366.327C63.8537 367.196 65.374 365.676 64.2881 364.807C61.0302 362.128 60.813 359.305 60.813 355.396C60.9136 353.882 60.5059 352.379 59.6547 351.124C58.4963 349.459 56.6864 348.518 55.1661 347.359C53.6458 346.201 53.2114 346.056 52.7046 345.043C52.1978 344.029 52.777 341.206 52.8494 339.323C52.9644 337.338 52.3461 335.38 51.1119 333.821C49.0124 331.215 46.0441 331.143 45.5373 327.161C45.3201 324.989 45.8269 323.469 44.5962 321.441C43.5695 319.794 41.9714 318.582 40.1075 318.039C38.8044 317.604 38.2252 319.704 39.5284 320.138V320.138Z" fill="#F5F3F0"/>
<path d="M235.507 344.247H249.986C250.274 344.247 250.55 344.132 250.754 343.929C250.958 343.725 251.072 343.449 251.072 343.161C251.072 342.873 250.958 342.596 250.754 342.393C250.55 342.189 250.274 342.075 249.986 342.075H235.507C235.219 342.075 234.942 342.189 234.739 342.393C234.535 342.596 234.421 342.873 234.421 343.161C234.421 343.449 234.535 343.725 234.739 343.929C234.942 344.132 235.219 344.247 235.507 344.247Z" fill="#090909"/>
<path d="M387.902 343.884C388.19 343.884 388.466 343.77 388.67 343.566C388.873 343.363 388.988 343.086 388.988 342.798C388.988 342.51 388.873 342.234 388.67 342.03C388.466 341.827 388.19 341.712 387.902 341.712C387.614 341.712 387.338 341.827 387.134 342.03C386.93 342.234 386.816 342.51 386.816 342.798C386.816 343.086 386.93 343.363 387.134 343.566C387.338 343.77 387.614 343.884 387.902 343.884Z" fill="#090909"/>
<path d="M60.1618 340.916L64.6504 341.423L65.4468 341.568H65.8087C65.2617 341.681 64.7279 341.851 64.2161 342.074C62.8405 342.798 61.0306 343.884 60.9582 345.694C60.8858 347.504 62.2613 347.359 63.4921 347.577C66.08 348.013 68.6904 348.303 71.3109 348.445C72.6865 348.59 72.6865 346.418 71.3109 346.273L67.3291 345.911C67.1119 345.911 62.9853 345.622 62.8405 345.26C62.6957 344.898 67.5463 342.798 67.9807 342.002C69.863 338.744 61.7545 338.817 60.1618 338.672C58.5691 338.527 58.7863 340.771 60.1618 340.844V340.916Z" fill="#F5F3F0"/>
<path d="M180.702 373.277L191.707 365.241L190.041 364.3C190.114 366.907 189.462 370.454 190.403 372.843C190.488 373.126 190.677 373.366 190.933 373.514C191.189 373.662 191.491 373.707 191.779 373.639C194.313 372.915 196.919 370.382 199.091 368.861C201.212 367.546 203.117 365.909 204.738 364.011C205.607 362.852 203.724 361.766 202.856 362.852C201.987 363.938 199.019 366.255 196.919 367.703C194.82 369.151 193.154 371.033 191.2 371.54L192.503 372.264C191.707 370.164 192.286 366.545 192.213 364.3C192.213 363.576 191.272 362.852 190.621 363.359L179.616 371.395C178.53 372.191 179.544 374.074 180.702 373.277Z" fill="#F5F3F0"/>
<path d="M125.971 105.048C122.93 111.201 118.804 117.572 117.428 124.378C117.139 125.753 116.342 128.504 117.428 129.735C118.514 130.966 120.976 130.097 122.134 129.228C122.31 129.121 122.452 128.965 122.543 128.78C122.633 128.594 122.67 128.387 122.647 128.182C122.624 127.977 122.543 127.782 122.414 127.621C122.285 127.461 122.112 127.34 121.917 127.274L120.541 127.056C119.6 126.332 119.962 125.029 120.614 123.871L118.659 123.654C119.166 124.957 118.659 126.622 119.6 127.853C120.541 129.083 121.482 128.721 121.555 128.939L121.989 127.418L120.252 127.998C118.876 128.142 118.876 130.314 120.252 130.169C121.247 130.102 122.214 129.805 123.075 129.301C123.198 129.234 123.306 129.142 123.392 129.031C123.478 128.92 123.54 128.792 123.574 128.656C123.608 128.52 123.613 128.378 123.59 128.24C123.566 128.102 123.514 127.97 123.437 127.853C123.147 127.129 122.713 127.274 122.351 126.839C121.989 126.405 121.265 124.45 120.758 123.075C120.687 122.876 120.563 122.701 120.4 122.568C120.237 122.435 120.04 122.349 119.832 122.319C119.624 122.29 119.411 122.317 119.217 122.399C119.023 122.481 118.855 122.615 118.731 122.785C117.935 124.16 116.921 126.477 117.863 128.07C118.804 129.663 119.89 128.939 121.338 129.373L121.048 127.346L119.238 127.201L119.528 124.957C119.677 124.12 119.895 123.297 120.179 122.495C120.88 120.354 121.751 118.271 122.785 116.269C124.451 112.867 126.188 109.536 127.853 106.134C128.505 104.903 126.623 103.817 125.971 105.048V105.048Z" fill="#80A5AE"/>
<path d="M146.096 125.247H145.951L119.02 121.916C118.808 121.929 118.595 121.894 118.398 121.815C118.2 121.735 118.023 121.614 117.878 121.458C117.733 121.303 117.624 121.117 117.559 120.914C117.494 120.712 117.474 120.498 117.501 120.287C117.528 120.076 117.601 119.873 117.715 119.694C117.829 119.514 117.982 119.362 118.161 119.248C118.341 119.134 118.543 119.061 118.754 119.035C118.965 119.008 119.179 119.028 119.382 119.093L146.241 122.351C146.432 122.369 146.617 122.425 146.785 122.515C146.954 122.605 147.104 122.727 147.225 122.875C147.346 123.023 147.437 123.194 147.491 123.378C147.546 123.561 147.564 123.753 147.544 123.944C147.508 124.302 147.34 124.634 147.072 124.875C146.804 125.116 146.456 125.249 146.096 125.247Z" fill="#CBC7DB"/>
<path d="M190.693 37.067L188.087 39.5285C187.942 37.429 187.869 35.3295 187.725 33.23C187.733 32.9875 187.661 32.7492 187.518 32.5529C187.375 32.3567 187.171 32.2138 186.938 32.1472C186.704 32.0805 186.456 32.0939 186.231 32.1852C186.006 32.2765 185.818 32.4404 185.698 32.6508C184.543 34.5226 183.261 36.3126 181.861 38.0081C181.281 35.0399 180.557 31.9992 179.761 29.0309C179.7 28.7993 179.563 28.5945 179.374 28.4484C179.184 28.3023 178.951 28.223 178.711 28.223C178.472 28.223 178.239 28.3023 178.049 28.4484C177.859 28.5945 177.723 28.7993 177.662 29.0309C176.922 31.1663 175.846 33.1703 174.476 34.9675C173.835 31.7156 172.474 28.6483 170.494 25.9903C170.352 25.7928 170.147 25.6489 169.913 25.5817C169.679 25.5145 169.429 25.5279 169.204 25.6198C168.978 25.7117 168.79 25.8767 168.67 26.0883C168.549 26.2999 168.503 26.5458 168.54 26.7866C169.191 31.2752 169.625 35.6914 168.395 40.0352C166.377 38.1783 164.14 36.5738 161.734 35.2571C161.547 35.1482 161.332 35.0975 161.117 35.1116C160.901 35.1256 160.694 35.2037 160.523 35.3359C160.352 35.4681 160.225 35.6484 160.157 35.8536C160.089 36.0588 160.083 36.2796 160.142 36.4878C160.431 37.5738 160.721 38.6597 160.938 39.7457C161.445 50.8948 159.056 62.3334 153.119 71.8898C153.032 72.0539 152.989 72.2374 152.994 72.4228C152.998 72.6083 153.05 72.7895 153.144 72.9492C153.239 73.1089 153.373 73.2418 153.533 73.3352C153.693 73.4285 153.875 73.4793 154.06 73.4825H154.133C155.798 74.4237 158.332 73.7721 160.142 73.6273C161.951 73.4825 161.662 71.8174 160.431 71.4554L159.418 71.2382C159.577 71.1011 159.702 70.9272 159.78 70.7315C159.963 70.6801 160.128 70.5782 160.256 70.4373C160.384 70.2965 160.47 70.1224 160.504 69.9351L160.648 69.5731C160.693 69.4498 160.711 69.3185 160.702 69.1877C160.692 69.0569 160.656 68.9295 160.595 68.8137C160.533 68.6978 160.448 68.596 160.345 68.5149C160.243 68.4337 160.124 68.3749 159.997 68.3424C160.069 67.7632 160.214 67.184 160.286 66.5325C161.188 64.9807 161.963 63.3585 162.603 61.6819C162.893 60.8855 162.169 60.3787 161.517 60.3787C160.865 60.3787 161.951 58.4964 162.241 57.5553C162.407 57.653 162.596 57.7076 162.789 57.7141C162.981 57.7205 163.173 57.6787 163.346 57.5924C163.518 57.5061 163.667 57.378 163.777 57.2198C163.888 57.0616 163.957 56.8783 163.979 56.6865C164.123 55.311 164.196 53.9354 164.268 52.5599C164.413 52.5179 164.547 52.4441 164.659 52.3439C164.772 52.2437 164.861 52.1196 164.92 51.9807C165.084 52.0673 165.267 52.1104 165.453 52.106C165.638 52.1015 165.819 52.0496 165.979 51.9553C166.139 51.8609 166.272 51.7272 166.365 51.5669C166.458 51.4066 166.509 51.225 166.512 51.0396V49.302C166.681 49.3377 166.856 49.3299 167.021 49.2792C167.185 49.2285 167.334 49.1367 167.454 49.0124C168.521 48.029 169.536 46.9898 170.494 45.8994C173.669 45.4146 176.913 45.6622 179.978 46.6234C183.598 47.7093 185.191 49.302 187.435 52.2703C187.572 52.4301 187.746 52.5543 187.942 52.6323L187.725 54.1526C187.507 55.5282 189.535 56.1073 189.752 54.7318C190.693 49.1572 191.562 43.6551 192.503 38.0805C192.648 37.1394 191.489 36.2706 190.693 37.067Z" fill="#090909"/>
<path d="M167.236 56.9048C167.598 54.5157 165.137 52.9953 162.965 53.9365C160.793 54.8777 160.142 58.3527 161.228 59.873C161.541 60.2617 161.964 60.546 162.443 60.6882C162.921 60.8304 163.432 60.8239 163.906 60.6694C165.137 60.4522 165.427 59.3662 165.499 58.2079C165.571 57.0496 165.354 55.6016 164.051 55.6016C162.748 55.6016 162.241 57.2667 162.024 58.2803C161.807 59.2939 163.834 60.235 164.123 58.8595C164.413 57.4839 164.268 57.7735 164.558 57.6287H163.906L163.182 56.9048C163.265 57.2121 163.314 57.5278 163.327 57.8459C163.345 58.0419 163.32 58.2394 163.255 58.4251C163.182 58.7147 163.182 58.7147 163.327 58.4251H163.037C162.893 58.4251 162.893 58.3527 162.965 58.2803C163.037 58.2079 163.11 57.5563 163.11 57.3391C163.11 57.122 163.472 55.9636 163.906 55.7464C164.341 55.5292 165.209 55.7464 165.137 56.1808C165.065 56.6152 167.019 58.1355 167.236 56.76V56.9048Z" fill="#F5F3F0"/>
<path d="M343.015 6.00891C351.328 6.58785 359.665 6.73284 367.992 6.44329C368.28 6.44329 368.556 6.32887 368.76 6.12522C368.964 5.92156 369.078 5.64535 369.078 5.35733C369.078 5.06932 368.964 4.79311 368.76 4.58945C368.556 4.3858 368.28 4.27138 367.992 4.27138C359.665 4.56094 351.328 4.41595 343.015 3.837C341.64 3.69221 341.64 5.86411 343.015 6.00891Z" fill="#090909"/>
<path d="M377.404 5.79202H385.006C385.294 5.79202 385.57 5.67761 385.774 5.47395C385.977 5.2703 386.092 4.99408 386.092 4.70607C386.092 4.41806 385.977 4.14184 385.774 3.93818C385.57 3.73453 385.294 3.62012 385.006 3.62012H377.404C377.116 3.62012 376.84 3.73453 376.636 3.93818C376.433 4.14184 376.318 4.41806 376.318 4.70607C376.318 4.99408 376.433 5.2703 376.636 5.47395C376.84 5.67761 377.116 5.79202 377.404 5.79202Z" fill="#090909"/>
<path d="M379.576 150.585H413.602C413.89 150.585 414.167 150.471 414.37 150.267C414.574 150.063 414.688 149.787 414.688 149.499C414.688 149.211 414.574 148.935 414.37 148.731C414.167 148.527 413.89 148.413 413.602 148.413H379.576C379.288 148.413 379.012 148.527 378.808 148.731C378.604 148.935 378.49 149.211 378.49 149.499C378.49 149.787 378.604 150.063 378.808 150.267C379.012 150.471 379.288 150.585 379.576 150.585Z" fill="#090909"/>
<path d="M422.652 151.31H425.91C426.198 151.31 426.474 151.195 426.678 150.992C426.882 150.788 426.996 150.512 426.996 150.224C426.996 149.936 426.882 149.659 426.678 149.456C426.474 149.252 426.198 149.138 425.91 149.138H422.652C422.364 149.138 422.088 149.252 421.884 149.456C421.681 149.659 421.566 149.936 421.566 150.224C421.566 150.512 421.681 150.788 421.884 150.992C422.088 151.195 422.364 151.31 422.652 151.31Z" fill="#090909"/>
<path d="M327.667 121.626C327.595 126.405 328.174 130.242 331.36 134.006C334.691 137.683 338.795 140.575 343.378 142.477C344.681 143.056 345.767 141.174 344.463 140.667C340.783 139.126 337.42 136.917 334.545 134.151C330.708 130.459 329.767 126.839 329.839 121.626C329.912 120.251 327.74 120.251 327.667 121.626V121.626Z" fill="#F5F3F0"/>
<path d="M348.445 142.839C349.989 143.333 351.632 143.432 353.224 143.128C354.527 142.911 353.948 140.811 352.644 141.029C351.432 141.223 350.191 141.124 349.025 140.739C347.721 140.305 347.142 142.404 348.445 142.839V142.839Z" fill="#F5F3F0"/>
<path d="M160.286 150.006C160.938 151.816 162.024 153.988 162.241 155.942C162.458 157.897 161.806 157.318 161.082 158.766C160.358 160.214 161.517 164.992 162.096 167.453C162.675 169.915 162.965 174.548 165.281 176.575C166.005 177.227 166.657 177.227 167.598 177.517C170.711 178.385 171.797 181.498 171.942 184.611C171.942 184.899 172.056 185.176 172.26 185.379C172.464 185.583 172.74 185.697 173.028 185.697C173.316 185.697 173.592 185.583 173.796 185.379C173.999 185.176 174.114 184.899 174.114 184.611C173.969 181.788 173.1 178.603 171.001 176.575C170.354 176.043 169.619 175.626 168.829 175.345C165.861 174.042 165.571 172.521 164.847 169.408C164.123 166.295 163.761 165.137 163.327 162.965C162.892 160.793 162.82 160.865 163.978 158.838C164.123 158.621 164.485 158.549 164.63 158.259C165.426 155.725 163.182 151.888 162.386 149.427C161.951 148.051 159.852 148.63 160.286 150.006V150.006Z" fill="#090909"/>
<path d="M96.7221 187.29C96.9393 193.661 99.618 200.683 101.79 206.62C102.297 207.923 104.396 207.344 103.889 206.041C101.79 200.321 99.1112 193.444 98.894 187.29C98.8216 185.914 96.6497 185.914 96.7221 187.29Z" fill="#090909"/>
<path d="M102.949 209.879C103.398 211.637 104.239 213.27 105.41 214.657C106.279 215.743 107.799 214.222 106.93 213.137C106.021 212.016 105.378 210.704 105.048 209.299C104.686 207.996 102.587 208.576 102.949 209.879Z" fill="#090909"/>
<path d="M145.879 204.086C144.358 202.566 142.114 201.625 141.173 199.598C140.232 197.571 138.711 199.453 139.291 200.684C139.87 201.914 142.621 203.941 144.286 205.607C144.488 205.818 144.765 205.94 145.057 205.947C145.349 205.954 145.631 205.844 145.842 205.643C146.054 205.441 146.176 205.164 146.183 204.872C146.19 204.58 146.08 204.297 145.879 204.086V204.086Z" fill="#090909"/>
<path d="M152.468 200.105C151.671 199.164 150.513 198.585 149.572 197.861C148.501 197.007 147.529 196.036 146.676 194.965C145.735 193.951 144.214 195.471 145.155 196.557C146.023 197.57 146.967 198.514 147.979 199.381C149.028 200.047 150.021 200.797 150.947 201.625C151.888 202.711 153.409 201.118 152.468 200.105V200.105Z" fill="#090909"/>
<path d="M449.801 380.445H415.702C414.332 380.434 413.013 379.919 411.998 378.998C410.982 378.076 410.343 376.813 410.2 375.449L404.626 319.414C404.556 318.647 404.645 317.873 404.889 317.142C405.133 316.411 405.526 315.739 406.043 315.167C406.56 314.596 407.19 314.138 407.893 313.822C408.596 313.506 409.357 313.34 410.128 313.333H454.073C454.833 313.331 455.586 313.486 456.284 313.789C456.981 314.093 457.608 314.537 458.125 315.095C458.642 315.653 459.038 316.312 459.288 317.03C459.537 317.749 459.635 318.511 459.575 319.27L455.303 375.305C455.211 376.7 454.591 378.009 453.569 378.963C452.547 379.918 451.2 380.448 449.801 380.445Z" fill="#80A5AE"/>
<path d="M403.178 328.681H455.811C456.099 328.681 456.375 328.567 456.579 328.363C456.782 328.159 456.897 327.883 456.897 327.595C456.897 327.307 456.782 327.031 456.579 326.827C456.375 326.624 456.099 326.509 455.811 326.509H403.178C402.89 326.509 402.614 326.624 402.41 326.827C402.207 327.031 402.092 327.307 402.092 327.595C402.092 327.883 402.207 328.159 402.41 328.363C402.614 328.567 402.89 328.681 403.178 328.681Z" fill="#F5F3F0"/>
<path d="M400.934 327.668C410.852 321.297 421.567 315.433 430.689 307.903C431.775 307.034 430.255 305.514 429.169 306.383C420.192 313.767 409.549 319.487 399.848 325.785C398.617 326.582 399.703 328.464 400.934 327.668Z" fill="#F5F3F0"/>
<path d="M403.54 344.318C406.798 339.974 412.517 337.44 416.861 334.327C421.205 331.214 424.97 328.246 428.807 324.988C432.644 321.73 436.046 318.038 439.811 314.78C443.576 311.522 447.34 310.798 449.802 307.178C450.598 306.02 448.716 304.934 447.919 306.092C445.386 309.785 440.318 311.233 437.06 314.346C433.802 317.459 429.386 321.658 425.259 325.06C421.016 328.614 416.594 331.948 412.011 335.051C408.318 337.513 404.409 339.612 401.658 343.16C400.789 344.318 402.671 345.404 403.54 344.318V344.318Z" fill="#F5F3F0"/>
<path d="M458.417 313.405C453.856 316.663 449.874 320.427 445.748 324.192C441.052 328.335 436.121 332.202 430.979 335.775C421.712 342.291 412.228 348.445 404.337 356.553C404.212 356.647 404.109 356.766 404.035 356.902C403.96 357.039 403.916 357.19 403.905 357.345C403.894 357.5 403.916 357.656 403.971 357.802C404.025 357.948 404.11 358.08 404.22 358.19C404.33 358.3 404.463 358.385 404.608 358.439C404.754 358.494 404.91 358.516 405.065 358.505C405.22 358.494 405.371 358.45 405.508 358.376C405.645 358.301 405.764 358.198 405.857 358.074C413.893 349.82 423.667 343.594 433.078 336.934C437.355 333.979 441.463 330.789 445.386 327.377C450.091 323.323 454.435 318.907 459.503 315.287C460.589 314.418 459.503 312.536 458.417 313.405V313.405Z" fill="#F5F3F0"/>
<path d="M457.692 333.242C452.986 337.224 448.498 341.133 443.285 344.319C438.788 347.003 434.438 349.928 430.254 353.079C425.982 356.482 422.145 360.319 418.164 364.011C414.182 367.703 407.883 371.468 402.309 374.581C401.078 375.232 402.164 377.115 403.395 376.463C408.39 373.712 413.385 370.888 417.802 367.196C422.218 363.504 426.2 359.088 430.761 355.468C435.322 351.848 441.258 348.301 446.615 344.826C451.973 341.351 455.086 338.31 459.212 334.762C460.226 333.894 458.706 332.301 457.692 333.242V333.242Z" fill="#F5F3F0"/>
<path d="M458.2 344.825C452.698 351.847 445.458 357.349 438.725 363.141C431.992 368.933 424.752 375.593 416.716 380.299C415.486 380.951 416.572 382.833 417.802 382.109C425.621 377.548 432.354 371.467 439.232 365.603C446.109 359.739 453.928 353.73 459.72 346.345C460.589 345.259 459.068 343.739 458.2 344.825V344.825Z" fill="#F5F3F0"/>
<path d="M401.802 352.644C407.521 358.219 411.865 364.517 416.281 371.033C419.901 376.39 423.738 381.458 428.951 385.295C430.109 386.164 431.195 384.281 430.037 383.413C424.245 379.141 420.263 373.06 416.281 367.123C412.554 361.336 408.209 355.972 403.323 351.124C402.309 350.183 400.789 351.703 401.802 352.644Z" fill="#F5F3F0"/>
<path d="M400.933 336.862C407.159 346.128 414.109 354.961 421.06 363.721C427.068 371.25 433.512 378.562 442.344 382.761C443.647 383.34 444.733 381.458 443.503 380.879C434.815 376.752 428.444 369.585 422.58 362.128C415.702 353.513 408.969 344.825 402.815 335.703C402.019 334.545 400.137 335.631 400.933 336.862Z" fill="#F5F3F0"/>
<path d="M407.16 328.392C414.544 338.382 422.218 348.228 430.182 357.785C438.146 367.341 446.182 376.68 455.593 384.716C456.679 385.585 458.199 384.065 457.114 383.124C448.064 375.377 440.245 366.4 432.571 357.278C424.897 348.156 416.571 337.514 409.042 327.306C408.173 326.22 406.291 327.306 407.16 328.392V328.392Z" fill="#F5F3F0"/>
<path d="M423.087 328.174C426.634 331.07 428.444 335.051 430.761 338.744C433.201 342.447 436.042 345.87 439.231 348.952C446.471 356.264 453.349 363.141 458.561 372.119C459.213 373.349 461.095 372.263 460.371 371.033C455.376 362.273 448.788 355.323 441.62 348.3C437.876 344.716 434.592 340.679 431.847 336.282C429.747 332.807 427.865 329.26 424.68 326.653C423.594 325.785 422.001 327.305 423.087 328.174V328.174Z" fill="#F5F3F0"/>
<path d="M439.521 328.536C449.223 336.717 456.897 346.925 464.426 357.061C465.222 358.147 467.105 357.133 466.308 355.975C458.634 345.622 450.96 335.342 441.042 327.016C440.028 326.075 438.435 327.668 439.521 328.536Z" fill="#F5F3F0"/>
<path d="M425.114 326.582C420.987 323.759 418.454 319.27 415.051 315.65C411.905 312.387 408.437 309.452 404.698 306.89C403.54 306.094 402.454 307.976 403.612 308.772C407.859 311.683 411.726 315.112 415.123 318.98C418.019 322.311 420.336 325.931 424.028 328.464C425.186 329.261 426.272 327.378 425.114 326.582Z" fill="#F5F3F0"/>
<path d="M408.68 327.016C404.722 322.549 400.386 318.431 395.721 314.708C394.635 313.839 393.042 315.36 394.128 316.228C398.815 319.951 403.175 324.069 407.16 328.536C408.101 329.549 409.621 328.029 408.68 327.016V327.016Z" fill="#F5F3F0"/>
<path d="M442.127 327.595C438.145 324.337 435.829 319.704 432.498 315.939C429.168 312.174 424.245 307.396 420.046 303.269C419.845 303.058 419.567 302.936 419.275 302.929C418.984 302.922 418.701 303.032 418.49 303.233C418.279 303.435 418.156 303.712 418.149 304.004C418.142 304.296 418.252 304.579 418.453 304.79C422.653 308.916 427.069 312.971 430.978 317.459C434.888 321.948 436.625 325.857 440.607 329.115C441.621 329.984 443.213 328.464 442.127 327.595V327.595Z" fill="#F5F3F0"/>
<path d="M460.516 326.365C456.534 322.166 452.769 317.75 448.57 313.912C444.371 310.075 439.955 307.904 436.263 304.139C435.249 303.125 433.729 304.718 434.743 305.659C438.435 309.424 443.141 311.885 446.978 315.433C450.815 318.98 455.014 323.686 458.923 327.885C459.125 328.096 459.402 328.219 459.694 328.226C459.986 328.232 460.268 328.123 460.48 327.921C460.691 327.72 460.813 327.442 460.82 327.15C460.827 326.859 460.718 326.576 460.516 326.365V326.365Z" fill="#F5F3F0"/>
</svg>
