<svg viewBox="0 0 203 60" fill="none" xmlns="http://www.w3.org/2000/svg">
    <mask id="mask0_636_362" style="mask-type:alpha" maskUnits="userSpaceOnUse" x="0" y="0" width="61" height="60">
        <path d="M60.1308 0.000244141V16.7382H53.7451V6.55162H6.99278V53.304H26.4299L30.224 59.6897H0.441406V0.000244141H60.1308Z" fill="white" />
    </mask>
    <g mask="url(#mask0_636_362)">
        <path fill-rule="evenodd" clip-rule="evenodd" d="M-0.796875 -1.2384H61.3693V60.9277H-0.796875V-1.2384Z" fill="#2F3034" />
    </g>
    <mask id="mask1_636_362" style="mask-type:alpha" maskUnits="userSpaceOnUse" x="26" y="30" width="35" height="30">
        <path d="M33.1031 30.4642L43.2889 47.5719L53.4746 30.4642H60.1309V59.6898H53.7771V41.8015H53.2393L45.0035 56.2274H41.6756L26.4473 30.4642H33.1031Z" fill="white" />
    </mask>
    <g mask="url(#mask1_636_362)">
        <path fill-rule="evenodd" clip-rule="evenodd" d="M25.209 29.2256H61.3694V60.9278H25.209V29.2256Z" fill="#2F3034" />
    </g>
    <mask id="mask2_636_362" style="mask-type:alpha" maskUnits="userSpaceOnUse" x="64" y="28" width="24" height="32">
        <path d="M70.9614 37.3242V48.9951C70.9614 52.5942 72.4769 54.3944 75.5107 54.3944C77.0683 54.3944 78.3192 53.8889 79.2656 52.8776C80.2116 51.8672 80.6837 50.3651 80.6837 48.3713V37.3242H87.1948V59.6676H81.0181V57.011C80.1571 57.9791 79.1257 58.7199 77.9298 59.2325C76.7339 59.7442 75.4405 59.9996 74.0497 59.9996C71.1013 59.9996 68.7645 59.1564 67.0392 57.4666C65.3127 55.7785 64.4512 53.2718 64.4512 49.9504V37.3242H70.9614ZM80.0172 28.5195C80.8509 28.5195 81.5475 28.79 82.1045 29.3293C82.6611 29.8699 82.9383 30.5542 82.9383 31.3853C82.9383 32.2164 82.6611 32.9012 82.1045 33.4418C81.5475 33.9806 80.8509 34.2511 80.0172 34.2511C79.1829 34.2511 78.494 33.9806 77.9521 33.4418C77.4081 32.9012 77.1385 32.2164 77.1385 31.3853C77.1385 30.5542 77.4081 29.8699 77.9521 29.3293C78.494 28.79 79.1829 28.5195 80.0172 28.5195ZM71.5881 28.5195C72.4219 28.5195 73.1109 28.79 73.6527 29.3293C74.1945 29.8699 74.4668 30.5542 74.4668 31.3853C74.4668 32.2164 74.1945 32.9012 73.6527 33.4418C73.1109 33.9806 72.4219 34.2511 71.5881 34.2511C70.7517 34.2511 70.0574 33.9806 69.5008 33.4418C68.9442 32.9012 68.667 32.2164 68.667 31.3853C68.667 30.5542 68.9442 29.8699 69.5008 29.3293C70.0574 28.79 70.7517 28.5195 71.5881 28.5195Z" fill="white" />
    </mask>
    <g mask="url(#mask2_636_362)">
        <path fill-rule="evenodd" clip-rule="evenodd" d="M63.2129 27.2811H88.4333V61.2379H63.2129V27.2811Z" fill="#2F3034" />
    </g>
    <mask id="mask3_636_362" style="mask-type:alpha" maskUnits="userSpaceOnUse" x="91" y="28" width="26" height="32">
        <path d="M98.0864 28.8529V46.2959L107.601 37.3248H115.362L106.014 46.7942L116.197 59.6682H108.31L101.216 50.9062L98.0864 53.978V59.6682H91.5762V28.8529H98.0864Z" fill="white" />
    </mask>
    <g mask="url(#mask3_636_362)">
        <path fill-rule="evenodd" clip-rule="evenodd" d="M90.3379 27.6141H117.436V60.9062H90.3379V27.6141Z" fill="#2F3034" />
    </g>
    <mask id="mask4_636_362" style="mask-type:alpha" maskUnits="userSpaceOnUse" x="114" y="36" width="25" height="24">
        <path d="M126.797 36.9928C128.994 36.9928 130.984 37.4631 132.764 38.4032C134.544 39.3456 135.942 40.6959 136.959 42.4538C137.973 44.2118 138.482 46.2531 138.482 48.5796C138.482 48.6619 138.439 49.2435 138.357 50.3237H121.372C121.677 51.7084 122.4 52.802 123.541 53.6038C124.682 54.4082 126.1 54.8086 127.798 54.8086C128.966 54.8086 130.003 54.6369 130.908 54.2894C131.811 53.9446 132.653 53.3969 133.432 52.6503L136.896 56.3868C134.781 58.7956 131.693 59.9996 127.631 59.9996C125.099 59.9996 122.859 59.5093 120.912 58.5269C118.965 57.544 117.463 56.1799 116.406 54.4358C115.348 52.6912 114.82 50.7117 114.82 48.4969C114.82 46.3092 115.342 44.3368 116.385 42.578C117.428 40.8201 118.861 39.4497 120.682 38.4673C122.505 37.4844 124.544 36.9928 126.797 36.9928ZM126.838 41.8924C125.364 41.8924 124.126 42.3088 123.124 43.1386C122.123 43.9697 121.51 45.1052 121.288 46.5432H132.347C132.124 45.1319 131.512 44.0044 130.511 43.1595C129.51 42.3141 128.285 41.8924 126.838 41.8924Z" fill="white" />
    </mask>
    <g mask="url(#mask4_636_362)">
        <path fill-rule="evenodd" clip-rule="evenodd" d="M113.582 35.7543H139.72V61.2378H113.582V35.7543Z" fill="#2F3034" />
    </g>
    <mask id="mask5_636_362" style="mask-type:alpha" maskUnits="userSpaceOnUse" x="141" y="28" width="7" height="32">
        <path d="M141.152 28.8528H147.663V59.669H141.152V28.8528Z" fill="white" />
    </mask>
    <g mask="url(#mask5_636_362)">
        <path fill-rule="evenodd" clip-rule="evenodd" d="M139.914 27.6141H148.901V60.9071H139.914V27.6141Z" fill="#2F3034" />
    </g>
    <mask id="mask6_636_362" style="mask-type:alpha" maskUnits="userSpaceOnUse" x="152" y="28" width="7" height="32">
        <path d="M152.045 28.8528H158.556V59.669H152.045V28.8528Z" fill="white" />
    </mask>
    <g mask="url(#mask6_636_362)">
        <path fill-rule="evenodd" clip-rule="evenodd" d="M150.807 27.6141H159.794V60.9071H150.807V27.6141Z" fill="#2F3034" />
    </g>
    <mask id="mask7_636_362" style="mask-type:alpha" maskUnits="userSpaceOnUse" x="161" y="36" width="24" height="24">
        <path d="M173.244 36.9928C175.441 36.9928 177.431 37.4631 179.211 38.4032C180.991 39.3456 182.39 40.6959 183.405 42.4538C184.421 44.2118 184.929 46.2531 184.929 48.5796C184.929 48.6619 184.887 49.2435 184.804 50.3237H167.819C168.125 51.7084 168.848 52.802 169.988 53.6038C171.129 54.4082 172.548 54.8086 174.245 54.8086C175.414 54.8086 176.45 54.6369 177.355 54.2894C178.258 53.9446 179.1 53.3969 179.879 52.6503L183.343 56.3868C181.229 58.7956 178.14 59.9996 174.078 59.9996C171.547 59.9996 169.307 59.5093 167.359 58.5269C165.412 57.544 163.91 56.1799 162.853 54.4358C161.795 52.6912 161.268 50.7117 161.268 48.4969C161.268 46.3092 161.789 44.3368 162.832 42.578C163.875 40.8201 165.309 39.4497 167.129 38.4673C168.952 37.4844 170.991 36.9928 173.244 36.9928ZM173.286 41.8924C171.811 41.8924 170.572 42.3088 169.571 43.1386C168.57 43.9697 167.957 45.1052 167.735 46.5432H178.794C178.571 45.1319 177.959 44.0044 176.958 43.1595C175.957 42.3141 174.732 41.8924 173.286 41.8924Z" fill="white" />
    </mask>
    <g mask="url(#mask7_636_362)">
        <path fill-rule="evenodd" clip-rule="evenodd" d="M160.029 35.7543H186.167V61.2378H160.029V35.7543Z" fill="#2F3034" />
    </g>
    <mask id="mask8_636_362" style="mask-type:alpha" maskUnits="userSpaceOnUse" x="184" y="28" width="19" height="32">
        <path d="M197.072 28.5189C198.046 28.5189 198.971 28.623 199.847 28.8308C200.724 29.0382 201.454 29.3363 202.038 29.7238L200.328 34.4165C199.576 33.891 198.7 33.6267 197.699 33.6267C195.723 33.6267 194.735 34.707 194.735 36.8671V37.8219H200.494V42.806H194.902V59.6679H188.392V42.806H184.928V37.8219H188.392V36.8253C188.392 34.2785 189.15 32.2572 190.666 30.7627C192.182 29.2664 194.318 28.5189 197.072 28.5189Z" fill="white" />
    </mask>
    <g mask="url(#mask8_636_362)">
        <path fill-rule="evenodd" clip-rule="evenodd" d="M183.689 27.2808H203.276V60.9065H183.689V27.2808Z" fill="#2F3034" />
    </g>
</svg>