<svg width="296" height="241" viewBox="0 0 296 241" fill="none" xmlns="http://www.w3.org/2000/svg">
<path d="M196.327 75.6523H70.1078C62.4102 75.6523 56.1702 81.8924 56.1702 89.59V155.643C56.1702 163.341 62.4102 169.581 70.1078 169.581H196.327C204.025 169.581 210.265 163.341 210.265 155.643V89.59C210.265 81.8924 204.025 75.6523 196.327 75.6523Z" fill="#80A5AE"/>
<path d="M203.176 168.65H61.3365L35.0232 211.004C34.6174 211.629 34.3903 212.353 34.3665 213.098C34.3427 213.843 34.523 214.58 34.8881 215.23C35.2532 215.879 35.789 216.417 36.4376 216.784C37.0862 217.151 37.8228 217.333 38.5677 217.312H225.584C226.434 217.3 227.266 217.064 227.994 216.626C228.723 216.188 229.322 215.565 229.732 214.82C230.141 214.075 230.345 213.234 230.324 212.385C230.302 211.535 230.055 210.706 229.609 209.983L203.176 168.65Z" fill="#80A5AE"/>
<path d="M83.5647 206.678C105.232 207.038 126.879 206.698 148.507 205.656C150.85 205.536 150.85 201.932 148.507 202.052C126.879 203.053 105.232 203.393 83.5647 203.073C81.2818 203.013 81.2818 206.618 83.5647 206.678Z" fill="#090909"/>
<path d="M68.0047 178.862H74.613C76.956 178.862 76.956 175.258 74.613 175.258H68.0047C65.6617 175.258 65.6617 178.862 68.0047 178.862Z" fill="#090909"/>
<path d="M89.9928 179.163H95.5799C97.9229 179.163 97.9229 175.559 95.5799 175.559H89.9928C87.6499 175.559 87.6499 179.163 89.9928 179.163Z" fill="#090909"/>
<path d="M110.178 178.862H120.391C122.734 178.862 122.734 175.258 120.391 175.258H110.178C107.835 175.258 107.835 178.862 110.178 178.862Z" fill="#090909"/>
<path d="M130.364 178.862H136.252C138.534 178.862 138.534 175.258 136.252 175.258H130.364C128.021 175.258 128.021 178.862 130.364 178.862Z" fill="#090909"/>
<path d="M149.288 178.622H156.437C158.72 178.622 158.78 175.018 156.437 175.018H149.288C146.945 175.018 146.945 178.622 149.288 178.622Z" fill="#090909"/>
<path d="M71.3086 190.638H81.5215C83.8645 190.638 83.8645 187.033 81.5215 187.033H71.3086C69.0257 187.033 68.9657 190.638 71.3086 190.638Z" fill="#090909"/>
<path d="M97.382 189.857H106.874C109.157 189.857 109.157 186.252 106.874 186.252H97.382C95.039 186.252 95.039 189.857 97.382 189.857Z" fill="#090909"/>
<path d="M58.0324 200.61H65.4217C67.7647 200.61 67.7647 197.006 65.4217 197.006H58.0324C55.6894 197.006 55.6894 200.61 58.0324 200.61Z" fill="#090909"/>
<path d="M64.1602 207.999H73.5921C75.935 207.999 75.935 204.395 73.5921 204.395H64.1602C61.8172 204.395 61.8172 207.999 64.1602 207.999Z" fill="#090909"/>
<path d="M82.5433 200.37H92.2756C94.6186 200.37 94.6186 196.766 92.2756 196.766H82.5433C80.2605 196.766 80.2605 200.37 82.5433 200.37Z" fill="#090909"/>
<path d="M117.327 199.349H125.738C128.081 199.349 128.081 195.744 125.738 195.744H117.327C114.984 195.744 114.984 199.349 117.327 199.349Z" fill="#090909"/>
<path d="M174.82 178.381C178.905 178.261 182.99 178.321 187.135 178.562C189.418 178.682 189.418 175.077 187.135 174.957C182.99 174.717 178.905 174.657 174.82 174.777C172.537 174.837 172.537 178.442 174.82 178.381Z" fill="#090909"/>
<path d="M146.704 194.723C150.716 194.834 154.73 194.674 158.72 194.242C161.002 193.942 161.063 190.338 158.72 190.638C154.73 191.069 150.716 191.23 146.704 191.118C144.421 191.058 144.421 194.663 146.704 194.723Z" fill="#090909"/>
<path d="M179.205 187.814H190.68C193.023 187.814 193.023 184.209 190.68 184.209H179.205C176.863 184.209 176.863 187.814 179.205 187.814Z" fill="#090909"/>
<path d="M179.686 202.412C185.574 202.472 191.461 202.412 197.348 202.172C199.631 202.052 199.631 198.447 197.348 198.567C191.461 198.808 185.574 198.868 179.686 198.808C177.343 198.748 177.343 202.352 179.686 202.412Z" fill="#090909"/>
<path d="M144.722 185.591H157.398C159.681 185.591 159.741 181.986 157.398 181.986H144.722C142.439 181.986 142.439 185.591 144.722 185.591Z" fill="#CBC7DB"/>
<path d="M143.46 183.789C141.898 186.012 140.817 189.316 144.602 189.797C149.348 190.337 154.514 189.797 159.32 189.797C161.603 189.797 161.603 186.192 159.32 186.192H152.051C151.03 186.192 145.623 186.853 144.962 186.192L145.443 187.934C145.624 187.071 146.016 186.266 146.584 185.591C147.966 183.729 144.842 181.927 143.46 183.789Z" fill="#CBC7DB"/>
<path d="M142.859 183.428C142.317 184.714 141.953 186.069 141.778 187.453C141.658 188.415 142.679 189.256 143.58 189.256C144.053 189.241 144.503 189.046 144.838 188.711C145.173 188.376 145.368 187.927 145.383 187.453C145.556 186.392 145.88 185.36 146.344 184.389C146.457 183.928 146.389 183.441 146.154 183.027C145.92 182.614 145.536 182.306 145.082 182.167C144.621 182.054 144.133 182.121 143.72 182.356C143.307 182.591 142.999 182.974 142.859 183.428Z" fill="#CBC7DB"/>
<path d="M156.437 185.051C157.338 186.072 157.578 187.153 157.818 188.475C158.059 189.797 159.14 189.977 159.981 189.737C160.21 189.674 160.425 189.567 160.613 189.421C160.8 189.275 160.957 189.094 161.074 188.887C161.191 188.681 161.267 188.453 161.296 188.217C161.325 187.982 161.307 187.743 161.243 187.514C161.027 185.635 160.228 183.87 158.96 182.467C158.359 181.746 157.098 181.867 156.437 182.467C156.103 182.814 155.916 183.277 155.916 183.759C155.916 184.241 156.103 184.704 156.437 185.051Z" fill="#CBC7DB"/>
<path d="M145.323 187.874C149.408 187.694 153.493 187.634 157.638 187.754C159.921 187.754 159.921 184.149 157.638 184.149C153.493 184.029 149.408 184.089 145.323 184.27C142.98 184.39 142.98 187.994 145.323 187.874Z" fill="#CBC7DB"/>
<path d="M147.725 185.651H155.175C155.414 185.651 155.643 185.556 155.812 185.387C155.981 185.218 156.076 184.989 156.076 184.75C156.076 184.511 155.981 184.282 155.812 184.113C155.643 183.944 155.414 183.849 155.175 183.849H147.725C147.486 183.849 147.257 183.944 147.088 184.113C146.919 184.282 146.824 184.511 146.824 184.75C146.824 184.989 146.919 185.218 147.088 185.387C147.257 185.556 147.486 185.651 147.725 185.651Z" fill="#F5F3F0"/>
<path d="M129.583 166.006C133.067 166.006 133.067 160.6 129.583 160.6C126.098 160.6 126.098 166.006 129.583 166.006Z" fill="#F5F3F0"/>
<path d="M129.342 166.607C133.968 166.607 133.968 159.397 129.342 159.397C124.716 159.397 124.716 166.607 129.342 166.607Z" fill="#F5F3F0"/>
<path d="M142.86 162.402H180.707C180.946 162.402 181.176 162.307 181.345 162.138C181.514 161.969 181.609 161.74 181.609 161.501C181.609 161.262 181.514 161.033 181.345 160.864C181.176 160.695 180.946 160.6 180.707 160.6H142.86C142.621 160.6 142.391 160.695 142.223 160.864C142.054 161.033 141.958 161.262 141.958 161.501C141.958 161.74 142.054 161.969 142.223 162.138C142.391 162.307 142.621 162.402 142.86 162.402Z" fill="#F5F3F0"/>
<path d="M192.963 88.9297H75.094C71.1125 88.9297 67.8849 92.1573 67.8849 96.1388V146.897C67.8849 150.878 71.1125 154.106 75.094 154.106H192.963C196.944 154.106 200.172 150.878 200.172 146.897V96.1388C200.172 92.1573 196.944 88.9297 192.963 88.9297Z" fill="#CBC7DB"/>
<path d="M163.706 28.7928C163.711 24.4843 162.727 20.232 160.831 16.363C158.935 12.494 156.177 9.11134 152.769 6.47517C149.361 3.83901 145.394 2.01955 141.173 1.15671C136.952 0.293865 132.589 0.410621 128.42 1.49801C124.251 2.58539 120.386 4.61444 117.124 7.42911C113.862 10.2438 111.289 13.7691 109.603 17.734C107.916 21.6988 107.162 25.9976 107.397 30.2998C107.632 34.6019 108.851 38.7929 110.959 42.5502C111.544 44.5575 112.436 46.4623 113.603 48.1974C114.444 49.459 115.585 50.4803 116.546 51.6818C117.408 52.8137 118.418 53.8241 119.55 54.6856C120.872 55.7069 122.374 56.5479 123.696 57.5091C125.257 59.3666 126.682 61.3342 127.961 63.3966C129.384 65.6918 130.61 68.1035 131.626 70.6057C132.106 71.7471 132.587 73.7897 134.269 73.4893C135.951 73.189 137.032 70.3654 137.693 69.0437C138.967 66.5621 140.563 64.2593 142.439 62.1951L151.631 51.9221C155.352 49.3188 158.392 45.8581 160.494 41.8323C162.595 37.8066 163.697 33.3342 163.706 28.7928ZM134.87 63.8772H134.93C134.921 63.8719 134.91 63.8691 134.9 63.8691C134.889 63.8691 134.879 63.8719 134.87 63.8772Z" fill="#CBC7DB"/>
<path d="M41.0307 82.5007C39.9805 79.9215 38.4169 77.5828 36.435 75.6265C34.453 73.6702 32.0941 72.1373 29.5014 71.1208C26.9088 70.1043 24.1365 69.6254 21.3531 69.7134C18.5697 69.8013 15.8332 70.4541 13.3099 71.6322C10.7866 72.8103 8.5291 74.4891 6.67456 76.5665C4.82003 78.644 3.40718 81.0768 2.52183 83.7171C1.63648 86.3574 1.29709 89.1501 1.52433 91.9256C1.75156 94.7012 2.54067 97.4015 3.84369 99.8626C5.3084 103.059 7.58727 105.814 10.452 107.853C11.4662 108.996 12.6397 109.988 13.9365 110.796C14.8977 111.337 15.979 111.698 17.0003 112.178C17.915 112.652 18.8831 113.015 19.884 113.26L23.4886 113.86C25.0925 114.582 26.6389 115.426 28.1144 116.384C29.7775 117.47 31.3451 118.696 32.8003 120.048C33.4612 120.649 34.4223 121.85 35.3836 121.13C36.3448 120.409 36.2847 118.186 36.3448 117.104C36.3999 115.068 36.7232 113.048 37.306 111.097L40.1896 101.485C41.8626 98.6272 42.8135 95.4048 42.96 92.0968C43.1066 88.7888 42.4444 85.495 41.0307 82.5007ZM32.8604 114.581H32.9205V114.701L32.8604 114.581Z" fill="#80A5AE"/>
<path d="M136.131 42.5501C133.695 42.5501 131.314 41.8278 129.289 40.4745C127.264 39.1213 125.685 37.1979 124.753 34.9475C123.821 32.6971 123.577 30.2208 124.052 27.8319C124.527 25.4429 125.7 23.2485 127.422 21.5261C129.145 19.8037 131.339 18.6308 133.728 18.1556C136.117 17.6804 138.594 17.9243 140.844 18.8564C143.094 19.7886 145.018 21.3671 146.371 23.3924C147.724 25.4176 148.447 27.7987 148.447 30.2345C148.447 33.5008 147.149 36.6333 144.839 38.9429C142.53 41.2526 139.397 42.5501 136.131 42.5501ZM136.131 20.322C134.17 20.322 132.254 20.9033 130.624 21.9925C128.994 23.0817 127.723 24.6299 126.973 26.4412C126.223 28.2524 126.026 30.2455 126.409 32.1684C126.791 34.0912 127.735 35.8574 129.122 37.2437C130.508 38.63 132.274 39.5741 134.197 39.9566C136.12 40.3391 138.113 40.1428 139.924 39.3925C141.736 38.6422 143.284 37.3717 144.373 35.7416C145.462 34.1115 146.043 32.195 146.043 30.2345C146.043 27.6055 144.999 25.0843 143.14 23.2253C141.281 21.3663 138.76 20.322 136.131 20.322Z" fill="#090909"/>
<path d="M21.2657 100.824C26.6738 100.824 31.0581 96.4398 31.0581 91.0316C31.0581 85.6235 26.6738 81.2393 21.2657 81.2393C15.8575 81.2393 11.4733 85.6235 11.4733 91.0316C11.4733 96.4398 15.8575 100.824 21.2657 100.824Z" fill="#CBC7DB"/>
<path d="M204.318 80.9997C204.946 79.3416 205.229 77.5721 205.147 75.8005C205.065 74.029 204.621 72.293 203.843 70.6997C203.064 69.1065 201.967 67.6897 200.619 66.537C199.271 65.3843 197.702 64.5201 196.007 63.9977C194.312 63.4753 192.528 63.3058 190.766 63.4997C189.003 63.6936 187.298 64.2468 185.758 65.1251C184.217 66.0033 182.873 67.1881 181.808 68.6062C180.743 70.0243 179.98 71.6456 179.566 73.3701C178.931 75.4746 178.827 77.7041 179.266 79.8583C179.279 80.8338 179.42 81.8034 179.686 82.7419C179.916 83.4038 180.197 84.0467 180.527 84.6644C180.73 85.2906 181.035 85.8791 181.429 86.4066C181.849 87.0073 182.39 87.6081 182.87 88.2089C183.293 89.2275 183.654 90.2707 183.952 91.3328C184.273 92.5518 184.474 93.7993 184.552 95.0575C184.613 95.5982 184.553 96.5594 185.334 96.6195C186.114 96.6796 187.016 95.6583 187.436 95.1777C188.337 94.2586 189.346 93.4518 190.44 92.7746L195.907 89.5305C197.896 88.8981 199.701 87.7909 201.167 86.3046C202.632 84.8183 203.713 82.9976 204.318 80.9997Z" fill="#090909"/>
<path d="M191.881 83.8825C195.365 83.8825 198.189 81.0584 198.189 77.5746C198.189 74.0908 195.365 71.2666 191.881 71.2666C188.397 71.2666 185.573 74.0908 185.573 77.5746C185.573 81.0584 188.397 83.8825 191.881 83.8825Z" fill="#80A5AE"/>
<path d="M63.1384 43.5107C62.9165 40.2257 62.3936 36.9679 61.5764 33.7784C60.8027 30.5951 59.7161 27.4961 58.3323 24.5267C57.4913 22.6644 56.3498 21.1625 54.0669 21.7632C48.8403 23.2051 51.3034 31.3153 52.2646 34.8598C53.9601 40.7786 56.8648 46.2813 60.7954 51.0202C60.8416 51.077 60.899 51.1238 60.9639 51.1577C61.0288 51.1917 61.1 51.2121 61.173 51.2177C61.2461 51.2233 61.3195 51.214 61.3888 51.1904C61.4581 51.1668 61.522 51.1293 61.5764 51.0803C61.6827 51.1611 61.8152 51.1997 61.9483 51.1886C62.0815 51.1775 62.2057 51.1175 62.2973 51.0202C64.0395 49.3381 63.3186 45.7335 63.1384 43.5107Z" fill="#090909"/>
<path d="M64.5803 58.1695C68.0647 58.1695 68.0647 52.7627 64.5803 52.7627C61.0959 52.7627 61.0959 58.1695 64.5803 58.1695Z" fill="#090909"/>
<path d="M235.677 117.885C235.266 114.001 235.551 110.075 236.518 106.291C236.937 104.472 237.541 102.7 238.32 101.004C238.661 100.232 239.063 99.4888 239.522 98.781C239.762 98.3605 240.002 98.1202 240.243 97.7597C240.483 97.3993 241.024 97.2791 240.543 97.3392L239.101 96.9187C238.5 96.6183 239.041 96.4381 238.741 96.7985C238.44 97.159 238.44 97.7597 238.26 98.1202C238.08 98.4807 237.299 99.6221 236.878 100.343C235.783 102.133 234.78 103.977 233.875 105.87C232.203 109.492 231.283 113.416 231.171 117.405C231.111 121.129 236.878 121.129 236.938 117.405C237.059 112.118 239.221 107.372 241.985 102.986C243.306 100.884 244.628 98.781 244.448 96.2578C244.268 93.7346 242.766 91.4518 240.182 91.5719C235.316 91.7522 232.853 98.781 231.592 102.506C229.985 107.463 229.412 112.698 229.909 117.885C230.09 119.447 231.171 120.769 232.793 120.769C234.415 120.769 235.857 119.447 235.677 117.885Z" fill="#CBC7DB"/>
<path d="M226.965 156.034C232.793 156.034 232.793 147.022 226.965 147.022C221.138 147.022 221.138 156.034 226.965 156.034Z" fill="#CBC7DB"/>
<path d="M9.31073 78.9558C7.23222 81.8374 5.87277 85.1743 5.34574 88.688C5.22558 89.8295 6.90772 90.3101 7.08795 89.1687C7.57109 85.8209 8.87096 82.6435 10.8728 79.917C11.5336 78.9558 9.97157 78.0546 9.31073 78.9558Z" fill="#F5F3F0"/>
<path d="M5.28539 93.134L5.82609 94.6959C5.86031 94.8111 5.91724 94.9184 5.99351 95.0113C6.06979 95.1041 6.16385 95.1808 6.27021 95.2368C6.37657 95.2928 6.49307 95.3269 6.61283 95.3372C6.73258 95.3475 6.8532 95.3337 6.96755 95.2967C7.08052 95.2693 7.18658 95.2189 7.27907 95.1485C7.37157 95.0781 7.4485 94.9893 7.50495 94.8877C7.5614 94.7861 7.59612 94.6739 7.60703 94.5582C7.61793 94.4424 7.60478 94.3257 7.56831 94.2153L7.02761 92.6534C6.9457 92.4295 6.78356 92.2441 6.57264 92.1331C6.36172 92.0221 6.11703 91.9934 5.88615 92.0526C5.66694 92.1221 5.48259 92.2729 5.3709 92.4739C5.25921 92.675 5.22863 92.9111 5.28539 93.134Z" fill="#F5F3F0"/>
<path d="M55.5093 25.3682L57.7321 29.934C58.2728 30.9553 59.8347 30.0541 59.294 28.9728L57.0712 24.4671C56.5906 23.3857 55.0287 24.3469 55.5093 25.3682Z" fill="#F5F3F0"/>
<path d="M58.6934 32.3367V32.7572C58.7076 32.9916 58.8072 33.2126 58.9732 33.3786C59.1392 33.5446 59.3602 33.6441 59.5945 33.6584C59.8335 33.6584 60.0628 33.5634 60.2318 33.3944C60.4008 33.2254 60.4956 32.9962 60.4956 32.7572V32.3367C60.4956 32.0977 60.4008 31.8685 60.2318 31.6995C60.0628 31.5305 59.8335 31.4355 59.5945 31.4355C59.3602 31.4498 59.1392 31.5493 58.9732 31.7153C58.8072 31.8813 58.7076 32.1023 58.6934 32.3367Z" fill="#F5F3F0"/>
<path d="M64.8206 56.0679C65.0596 56.0679 65.2887 55.973 65.4577 55.804C65.6267 55.635 65.7217 55.4058 65.7217 55.1668C65.7217 54.9278 65.6267 54.6986 65.4577 54.5296C65.2887 54.3606 65.0596 54.2656 64.8206 54.2656C64.5816 54.2656 64.3523 54.3606 64.1833 54.5296C64.0143 54.6986 63.9194 54.9278 63.9194 55.1668C63.9194 55.4058 64.0143 55.635 64.1833 55.804C64.3523 55.973 64.5816 56.0679 64.8206 56.0679Z" fill="#F5F3F0"/>
<path d="M201.614 78.3551C201.36 80.2209 200.598 81.9811 199.412 83.4432C198.225 84.9053 196.659 86.0131 194.886 86.6456C193.804 87.006 194.285 88.7482 195.366 88.3878C197.51 87.6318 199.399 86.2918 200.822 84.5191C202.244 82.7464 203.143 80.6114 203.416 78.3551C203.597 77.2137 201.794 77.2137 201.614 78.3551Z" fill="#F5F3F0"/>
<path d="M200.232 72.7084L201.073 74.0301C201.208 74.2286 201.412 74.3695 201.646 74.4251C201.879 74.4807 202.125 74.4469 202.335 74.3305C202.437 74.2748 202.527 74.1986 202.598 74.1065C202.669 74.0145 202.721 73.9086 202.749 73.7956C202.777 73.6827 202.782 73.5651 202.762 73.4504C202.743 73.3356 202.699 73.2262 202.635 73.1289L201.794 71.8073C201.739 71.705 201.662 71.6154 201.57 71.5442C201.478 71.4729 201.372 71.4215 201.259 71.3933C201.146 71.365 201.029 71.3606 200.914 71.3801C200.799 71.3997 200.69 71.4429 200.593 71.5069C200.388 71.6211 200.236 71.8104 200.169 72.0346C200.102 72.2589 200.125 72.5006 200.232 72.7084Z" fill="#F5F3F0"/>
<path d="M237.72 93.9751C233.214 97.039 231.652 104.188 230.871 109.174C230.691 110.316 232.433 110.796 232.613 109.655C233.334 105.209 234.656 98.2405 238.621 95.5371C239.582 94.8762 238.681 93.3143 237.72 93.9751Z" fill="#F5F3F0"/>
<path d="M227.146 151.468L227.326 151.047C227.439 150.847 227.471 150.61 227.415 150.387C227.359 150.163 227.22 149.97 227.026 149.846C226.929 149.782 226.819 149.739 226.704 149.719C226.59 149.699 226.472 149.704 226.359 149.732C226.246 149.76 226.14 149.812 226.048 149.883C225.956 149.954 225.88 150.044 225.824 150.146L225.584 150.567C225.464 150.774 225.432 151.02 225.494 151.251C225.556 151.482 225.707 151.679 225.914 151.798C226.122 151.918 226.368 151.95 226.599 151.888C226.83 151.826 227.026 151.675 227.146 151.468Z" fill="#F5F3F0"/>
<path d="M139.856 6.08431C146.464 7.94667 155.175 12.3923 155.535 20.1421C155.595 21.2835 157.398 21.2835 157.338 20.1421C156.917 11.4311 147.846 6.44476 140.336 4.34211C140.222 4.31055 140.102 4.30184 139.984 4.31646C139.867 4.33108 139.753 4.36876 139.65 4.42733C139.547 4.48591 139.456 4.56423 139.383 4.65784C139.31 4.75145 139.256 4.85851 139.225 4.97291C139.193 5.0873 139.184 5.20679 139.199 5.32456C139.214 5.44232 139.251 5.55605 139.31 5.65926C139.368 5.76246 139.447 5.85311 139.54 5.92604C139.634 5.99897 139.741 6.05276 139.856 6.08431Z" fill="#F5F3F0"/>
<path d="M156.437 25.9692C156.898 29.2123 156.998 32.4964 156.737 35.7616C156.677 36.903 158.479 36.903 158.539 35.7616C158.78 32.3341 158.66 28.8908 158.179 25.4886C157.999 24.3472 156.317 24.8278 156.437 25.9692Z" fill="#F5F3F0"/>
<path d="M139.315 58.4099C140.876 55.9681 142.824 53.7969 145.082 51.9817C145.984 51.2608 144.662 49.9992 143.821 50.7201C141.431 52.6262 139.38 54.9212 137.753 57.5087C137.092 58.4699 138.654 59.3711 139.315 58.4099Z" fill="#F5F3F0"/>
<path d="M82.0628 97.4596H120.631C124.116 97.4596 124.116 92.0527 120.631 92.0527H82.0628C78.5784 92.0527 78.5784 97.4596 82.0628 97.4596Z" fill="#F5F3F0"/>
<path d="M126.759 97.4596H128.562C129.279 97.4596 129.966 97.1747 130.473 96.6678C130.98 96.1608 131.265 95.4731 131.265 94.7562C131.25 94.044 130.96 93.3652 130.456 92.8615C129.953 92.3578 129.274 92.0681 128.562 92.0527H126.759C126.047 92.0681 125.368 92.3578 124.865 92.8615C124.361 93.3652 124.071 94.044 124.056 94.7562C124.056 95.4731 124.341 96.1608 124.848 96.6678C125.355 97.1747 126.042 97.4596 126.759 97.4596Z" fill="#F5F3F0"/>
<path d="M106.273 24.8873C106.551 28.9504 107.133 32.9869 108.016 36.9626C108.797 40.3869 109.518 44.0516 111.5 46.9352C112.161 47.8964 113.723 46.9953 113.062 46.0341C111.2 43.2706 110.479 39.7261 109.758 36.482C108.929 32.6608 108.367 28.7866 108.076 24.8873C108.016 23.7459 106.213 23.7459 106.273 24.8873Z" fill="#090909"/>
<path d="M114.383 50.6002C115.424 52.3108 116.767 53.8174 118.348 55.0458C120.151 56.3675 122.133 57.2686 123.575 59.0108C125.017 60.753 125.557 58.6503 124.836 57.7492C124.116 56.8481 122.133 55.4062 120.631 54.385C118.742 53.1882 117.142 51.5879 115.945 49.699C115.284 48.7378 113.722 49.6389 114.383 50.6002Z" fill="#090909"/>
<path d="M125.197 60.5736C125.839 61.2666 126.366 62.0575 126.759 62.9165C126.883 63.1107 127.077 63.25 127.3 63.3058C127.524 63.3617 127.76 63.3299 127.961 63.2169C128.165 63.1027 128.317 62.9134 128.384 62.6892C128.451 62.4649 128.429 62.2232 128.321 62.0154C127.862 61.0272 127.255 60.1155 126.519 59.312C125.738 58.4108 124.416 59.6724 125.197 60.5736Z" fill="#090909"/>
<path d="M145.443 3.08058C147.872 3.71806 150.129 4.88772 152.051 6.50491C152.892 7.2859 154.214 6.0243 153.313 5.24331C151.184 3.38799 148.655 2.05135 145.923 1.33838C144.842 1.038 144.361 2.7802 145.443 3.08058Z" fill="#090909"/>
<path d="M153.493 8.0065L154.094 8.78749C154.279 8.94412 154.513 9.03011 154.755 9.03011C154.997 9.03011 155.231 8.94412 155.416 8.78749C155.581 8.61904 155.673 8.39257 155.673 8.15669C155.673 7.92082 155.581 7.69434 155.416 7.52589L154.755 6.7449C154.586 6.57979 154.36 6.4873 154.124 6.4873C153.888 6.4873 153.662 6.57979 153.493 6.7449C153.404 6.82383 153.332 6.9209 153.283 7.02966C153.234 7.13842 153.208 7.25638 153.208 7.3757C153.208 7.49503 153.234 7.61299 153.283 7.72175C153.332 7.83051 153.404 7.92757 153.493 8.0065Z" fill="#090909"/>
<path d="M60.8559 169.671C82.2429 170.152 103.63 170.292 125.017 170.092C126.158 170.032 126.158 168.23 125.017 168.29C103.63 168.45 82.2429 168.31 60.8559 167.869C60.6169 167.869 60.3877 167.964 60.2187 168.133C60.0497 168.302 59.9547 168.531 59.9547 168.77C59.9547 169.009 60.0497 169.238 60.2187 169.407C60.3877 169.576 60.6169 169.671 60.8559 169.671Z" fill="#090909"/>
<path d="M129.823 170.332H147.245C147.484 170.332 147.713 170.237 147.882 170.068C148.051 169.899 148.146 169.669 148.146 169.43C148.146 169.191 148.051 168.962 147.882 168.793C147.713 168.624 147.484 168.529 147.245 168.529H129.823C129.584 168.529 129.355 168.624 129.186 168.793C129.017 168.962 128.922 169.191 128.922 169.43C128.922 169.669 129.017 169.899 129.186 170.068C129.355 170.237 129.584 170.332 129.823 170.332Z" fill="#090909"/>
<path d="M33.7015 216.47C34.7829 220.075 37.4862 223.98 41.4513 224.7C42.5927 224.881 43.0733 223.138 41.9319 222.958C38.5676 222.357 36.3448 219.053 35.4437 215.989C35.0832 214.908 33.3411 215.389 33.7015 216.47Z" fill="#090909"/>
<path d="M51.1234 225.361C65.1562 226.393 79.234 226.674 93.2967 226.202C94.4382 226.142 94.4382 224.34 93.2967 224.4C79.234 224.871 65.1562 224.591 51.1234 223.559C49.9219 223.499 49.9219 225.301 51.1234 225.361Z" fill="#090909"/>
<path d="M134.99 228.425C162.144 228.465 189.319 228.205 216.513 227.644C216.752 227.644 216.981 227.549 217.15 227.38C217.319 227.211 217.414 226.982 217.414 226.743C217.414 226.504 217.319 226.275 217.15 226.106C216.981 225.937 216.752 225.842 216.513 225.842C189.319 226.443 162.144 226.703 134.99 226.623C134.751 226.623 134.522 226.718 134.353 226.887C134.184 227.056 134.089 227.285 134.089 227.524C134.089 227.763 134.184 227.992 134.353 228.161C134.522 228.33 134.751 228.425 134.99 228.425Z" fill="#090909"/>
<path d="M222.1 225.721C226.241 223.74 229.709 220.585 232.073 216.65C232.136 216.547 232.178 216.433 232.197 216.314C232.216 216.195 232.212 216.074 232.184 215.957C232.156 215.839 232.105 215.729 232.035 215.631C231.964 215.534 231.875 215.451 231.772 215.388C231.67 215.325 231.556 215.283 231.437 215.264C231.318 215.244 231.196 215.249 231.079 215.277C230.962 215.305 230.852 215.355 230.754 215.426C230.657 215.497 230.574 215.586 230.511 215.688C228.321 219.377 225.078 222.327 221.199 224.159C220.117 224.64 221.019 226.202 222.1 225.721Z" fill="#090909"/>
<path d="M99.0644 121.13H78.939C78.6808 121.128 78.4278 121.057 78.2065 120.924C77.9852 120.791 77.8037 120.601 77.681 120.374C77.5582 120.147 77.4987 119.891 77.5086 119.633C77.5186 119.375 77.5976 119.124 77.7374 118.907L81.5822 113.08C81.8711 112.566 82.343 112.18 82.9039 111.998L101.768 105.63C102.058 105.529 102.369 105.507 102.67 105.564C102.971 105.622 103.252 105.759 103.484 105.96C103.715 106.161 103.89 106.42 103.989 106.71C104.089 107 104.11 107.312 104.051 107.613L101.648 119.027C101.524 119.621 101.199 120.154 100.729 120.537C100.258 120.92 99.6709 121.129 99.0644 121.13Z" fill="#80A5AE"/>
<path d="M127.614 129.838L122.561 134.371C121.746 135.103 121.678 136.356 122.41 137.171L123.344 138.213C124.076 139.028 125.329 139.096 126.144 138.364L131.197 133.831C132.012 133.1 132.08 131.846 131.348 131.031L130.414 129.989C129.682 129.174 128.429 129.106 127.614 129.838Z" fill="#80A5AE"/>
<path d="M159.14 135.668L153.132 133.145C152.921 133.049 152.732 132.911 152.576 132.739C152.421 132.566 152.303 132.364 152.23 132.144C152.156 131.924 152.129 131.691 152.15 131.46C152.171 131.229 152.24 131.005 152.351 130.802L167.19 104.428C167.383 104.063 167.708 103.785 168.099 103.651C168.489 103.517 168.916 103.537 169.293 103.707L172.236 105.089C172.433 105.168 172.612 105.285 172.762 105.435C172.912 105.585 173.03 105.763 173.108 105.96C173.187 106.157 173.225 106.367 173.22 106.579C173.214 106.791 173.166 106.999 173.078 107.192L161.303 134.827C161.119 135.218 160.792 135.523 160.39 135.68C159.987 135.837 159.54 135.832 159.14 135.668Z" fill="#80A5AE"/>
<path d="M130.544 116.204L124.416 118.727C124.164 118.816 123.894 118.842 123.629 118.802C123.364 118.762 123.114 118.657 122.9 118.496C122.685 118.335 122.514 118.124 122.402 117.882C122.289 117.639 122.238 117.372 122.253 117.105L122.974 108.634C123.003 108.348 123.107 108.075 123.276 107.843C123.445 107.611 123.673 107.428 123.936 107.312L126.519 106.291C126.708 106.212 126.911 106.171 127.116 106.171C127.322 106.17 127.525 106.21 127.714 106.289C127.904 106.367 128.076 106.481 128.222 106.626C128.367 106.771 128.483 106.943 128.561 107.132L131.385 114.161C131.473 114.349 131.52 114.553 131.525 114.761C131.53 114.968 131.491 115.175 131.412 115.367C131.333 115.559 131.215 115.732 131.066 115.876C130.916 116.02 130.739 116.132 130.544 116.204Z" fill="#80A5AE"/>
<path d="M157.332 140.147L150.612 136.663C150.111 136.404 149.494 136.599 149.235 137.1L146.821 141.756C146.562 142.257 146.757 142.873 147.258 143.133L153.978 146.617C154.479 146.876 155.096 146.681 155.355 146.18L157.769 141.524C158.028 141.023 157.833 140.406 157.332 140.147Z" fill="#80A5AE"/>
<path d="M104.951 134.106L96.7208 138.912C96.5457 139.007 96.349 139.053 96.1502 139.048C95.9515 139.043 95.7576 138.986 95.5876 138.883C95.4177 138.78 95.2776 138.634 95.1813 138.46C95.0851 138.286 95.0358 138.09 95.0386 137.891V135.248C95.0291 134.775 95.1467 134.308 95.3792 133.896C95.6117 133.483 95.9506 133.141 96.3604 132.905L100.445 130.562C100.899 130.296 101.421 130.171 101.945 130.203C102.469 130.235 102.972 130.423 103.389 130.742L105.071 131.944C105.239 132.075 105.372 132.245 105.459 132.438C105.547 132.632 105.586 132.844 105.575 133.056C105.563 133.268 105.5 133.475 105.391 133.658C105.283 133.84 105.132 133.994 104.951 134.106Z" fill="#80A5AE"/>
<path d="M140.335 118.589L133.222 124.41C132.324 125.146 132.192 126.471 132.927 127.369L133.178 127.676C133.914 128.575 135.239 128.707 136.137 127.971L143.25 122.15C144.149 121.414 144.281 120.089 143.545 119.191L143.294 118.884C142.559 117.985 141.234 117.853 140.335 118.589Z" fill="#80A5AE"/>
<path d="M178.966 144.019L170.915 140.654C170.744 140.591 170.589 140.491 170.46 140.362C170.331 140.233 170.232 140.077 170.169 139.906C170.106 139.734 170.081 139.551 170.096 139.369C170.111 139.188 170.165 139.011 170.255 138.852L188.457 103.768C188.599 103.494 188.837 103.282 189.125 103.171C189.412 103.06 189.731 103.059 190.019 103.167L193.143 104.188C193.468 104.31 193.732 104.555 193.879 104.869C194.025 105.184 194.041 105.544 193.924 105.87L180.648 143.298C180.588 143.458 180.497 143.605 180.379 143.729C180.261 143.853 180.119 143.952 179.961 144.019C179.804 144.087 179.635 144.122 179.463 144.121C179.292 144.121 179.123 144.086 178.966 144.019Z" fill="#80A5AE"/>
<path d="M83.3845 144.498C86.4701 144.498 88.9715 141.997 88.9715 138.911C88.9715 135.826 86.4701 133.324 83.3845 133.324C80.2988 133.324 77.7974 135.826 77.7974 138.911C77.7974 141.997 80.2988 144.498 83.3845 144.498Z" fill="#80A5AE"/>
<path d="M103.029 95.8374C103.268 95.8374 103.498 95.7425 103.667 95.5735C103.836 95.4045 103.93 95.1753 103.93 94.9363C103.93 94.6973 103.836 94.4681 103.667 94.2991C103.498 94.1301 103.268 94.0352 103.029 94.0352C102.79 94.0352 102.561 94.1301 102.392 94.2991C102.223 94.4681 102.128 94.6973 102.128 94.9363C102.128 95.1753 102.223 95.4045 102.392 95.5735C102.561 95.7425 102.79 95.8374 103.029 95.8374Z" fill="#F5F3F0"/>
<path d="M80.08 132.304C77.5568 134.527 75.0336 139.453 76.7758 142.877C77.4967 144.379 80.1401 145.641 81.642 146.242C82.5005 146.569 83.4155 146.721 84.3336 146.69C85.2517 146.659 86.1543 146.445 86.9887 146.061C90.7735 144.439 91.915 140.474 91.2542 136.63C90.4732 131.643 85.9073 130.802 81.5218 131.403C79.2389 131.703 80.2002 135.188 82.4831 134.887C84.7659 134.587 87.7697 135.128 87.8298 138.492C87.8898 140.655 87.0488 142.637 84.7058 143.058C82.3629 143.478 80.2002 141.976 79.9599 140.294C79.7196 138.612 81.2214 136.089 82.6032 134.827C83.9849 133.566 81.8222 130.742 80.08 132.304Z" fill="#F5F3F0"/>
<path d="M83.1438 146.001V152.91C83.1438 155.253 86.7484 155.253 86.7484 152.91V146.001C86.7484 143.718 83.1438 143.718 83.1438 146.001Z" fill="#F5F3F0"/>
<path d="M83.7448 132.243C80.5007 127.137 75.2139 124.313 69.8672 121.73C67.8246 120.769 65.9622 123.833 68.0649 124.854C72.8109 127.137 77.7371 129.54 80.6808 134.106C81.8824 136.028 85.0064 134.226 83.7448 132.243Z" fill="#F5F3F0"/>
<path d="M76.7763 122.631C78.1581 123.773 80.0805 123.653 81.8227 123.713C83.5649 123.773 86.4485 123.713 88.7314 123.593L96.2409 123.112C97.8629 122.992 99.7855 122.992 101.287 122.211C104.411 120.589 104.712 115.482 105.312 112.418C105.913 109.355 107.355 105.149 104.471 103.407C101.588 101.665 97.3223 104.128 94.739 104.969L87.9505 107.192C86.2083 107.793 83.9253 108.093 82.4234 109.114C79.5398 111.037 78.2181 113.92 76.4158 116.624C74.6135 119.327 73.7725 121.25 76.476 123.052C79.1794 124.854 80.2007 121.25 78.2782 119.988C78.6387 120.168 81.6425 114.701 82.0029 114.341C83.4745 112.841 85.3207 111.763 87.3498 111.217C90.1133 110.256 92.8767 109.295 95.7003 108.453L98.5238 107.552C99.1846 107.372 101.648 106.351 102.188 106.651C102.729 106.952 101.708 112.298 101.407 113.62C101.107 114.942 100.927 116.804 100.266 117.945C99.6053 119.087 97.4424 119.387 95.6401 119.568L87.59 120.048C85.3071 120.168 80.441 121.009 78.5786 119.568C76.7163 118.126 74.914 121.25 76.7763 122.631Z" fill="#F5F3F0"/>
<path d="M76.2955 122.031C76.2955 122.992 76.3556 124.013 76.2955 125.034C76.1363 125.867 76.036 126.711 75.9951 127.558C76.1753 129.841 79.7799 129.901 79.5997 127.558C79.6405 126.711 79.7409 125.867 79.9001 125.034V122.031C79.84 119.688 76.2354 119.688 76.2955 122.031Z" fill="#F5F3F0"/>
<path d="M92.3354 134.226C92.5156 137.53 92.9962 143.057 97.7422 141.195C98.7034 140.774 99.3644 139.993 100.266 139.453C101.167 138.912 102.368 138.612 103.389 138.071C104.411 137.53 106.814 136.028 107.475 134.286C107.774 133.534 107.87 132.716 107.754 131.915C107.638 131.114 107.314 130.357 106.814 129.72C105.792 128.519 103.57 127.137 102.008 126.957C100.446 126.777 98.2829 128.579 96.7209 129.42C95.159 130.261 93.6571 130.862 92.3955 132.724C91.1339 134.587 94.2578 136.509 95.5194 134.587C96.781 132.664 98.5233 132.544 99.9651 131.583C101.407 130.622 101.527 130.682 102.849 131.282C104.17 131.883 104.651 132.304 103.69 133.505C102.729 134.707 99.7248 135.307 97.9826 136.509C97.6741 136.737 97.3919 136.999 97.1414 137.29C96.7209 138.612 96.4807 138.732 96.3606 137.59C96.2404 136.449 96 135.187 95.9399 134.226C95.8198 131.943 92.2152 131.943 92.3354 134.226Z" fill="#F5F3F0"/>
<path d="M89.8125 136.329L91.8552 135.608C92.5037 135.298 93.1905 135.076 93.8977 134.947C94.3757 134.947 94.8341 134.757 95.1721 134.419C95.5101 134.081 95.7 133.623 95.7 133.145C95.6849 132.672 95.4902 132.222 95.1554 131.887C94.8206 131.553 94.3709 131.358 93.8977 131.343C92.1555 131.523 90.4734 132.244 88.8514 132.845C88.6178 132.9 88.3981 133.002 88.206 133.146C88.0139 133.29 87.8537 133.472 87.7352 133.681C87.6168 133.889 87.5426 134.12 87.5175 134.359C87.4925 134.598 87.5171 134.839 87.5897 135.067C87.6522 135.297 87.7595 135.511 87.9052 135.699C88.0509 135.886 88.2322 136.043 88.4388 136.16C88.6453 136.278 88.873 136.353 89.1088 136.382C89.3445 136.411 89.5837 136.393 89.8125 136.329Z" fill="#F5F3F0"/>
<path d="M190.2 105.389C190.435 105.275 190.7 105.236 190.959 105.279C191.217 105.322 191.456 105.445 191.641 105.63C192.422 105.81 192.543 106.35 191.882 107.071C191.221 107.792 191.341 109.054 191.101 109.895L189.298 116.023C188.217 119.807 187.256 123.712 185.574 127.317C184.796 128.753 184.114 130.238 183.531 131.763C182.87 133.565 182.69 135.427 182.209 137.229C181.729 139.032 181.128 142.216 179.266 142.216L177.223 141.255L175.12 140.834C173.138 140.474 170.795 140.173 171.816 137.41C172.357 135.848 174.279 134.346 175.301 133.024C177.218 130.673 178.759 128.039 179.867 125.214C181.248 121.67 181.969 118.306 183.832 114.941C184.552 113.74 188.397 105.269 189.899 105.509C191.401 105.75 193.143 102.506 190.86 102.085C187.376 101.424 185.934 104.188 184.372 106.831C182.81 109.474 180.047 113.8 178.545 117.525C177.043 121.249 176.082 125.875 173.318 129.72C171.396 132.423 167.731 135.067 167.791 138.731C167.851 142.396 170.194 143.417 172.838 144.078C173.859 144.318 174.88 144.318 175.841 144.619C176.803 144.919 177.524 145.46 178.425 145.76C179.039 145.984 179.697 146.057 180.346 145.973C180.994 145.89 181.612 145.652 182.149 145.28C184.973 143.177 185.694 138.251 186.355 135.067C187.316 130.861 189.719 127.137 191.041 122.991C192.663 117.705 194.525 112.298 195.727 106.951C196.508 103.166 193.684 101.424 190.2 101.785C187.917 101.965 187.917 105.569 190.2 105.389Z" fill="#F5F3F0"/>
<path d="M151.21 134.106C153.854 135.368 158.299 138.131 161.303 136.99C164.307 135.848 165.569 130.922 166.77 128.339C168.633 124.374 170.375 120.469 171.877 116.384C173.379 112.299 175.481 108.274 174.82 104.729C174.34 102.146 171.156 100.644 168.753 100.824C166.35 101.004 164.427 104.969 163.526 107.493C160.402 115.783 154.755 122.812 151.271 130.982C150.369 133.145 153.433 134.947 154.395 132.845C156.744 127.334 159.621 122.062 162.985 117.105C164.381 114.946 165.51 112.626 166.35 110.196C166.83 108.874 167.251 107.493 167.852 106.231C168.032 105.871 168.392 104.849 168.753 104.609C169.113 104.369 170.735 105.029 170.976 105.75C171.636 108.093 169.594 112.179 168.753 114.401C167.912 116.624 166.41 120.529 165.028 123.533C163.646 126.537 162.625 128.82 161.303 131.403C159.982 133.986 159.681 133.686 157.699 132.965C155.716 132.244 154.575 131.703 153.013 130.982C151.451 130.261 149.108 133.085 151.21 134.106Z" fill="#F5F3F0"/>
<path d="M147.245 143.178C148.206 141.435 149.108 138.492 151.511 138.552C152.952 138.552 155.656 139.994 155.896 141.495C156.136 142.997 154.875 143.658 154.454 144.139C154.034 144.619 152.952 145.641 151.571 144.86C150.189 144.079 148.567 142.397 146.825 141.435C145.083 140.474 142.98 143.478 145.023 144.559C147.065 145.641 151.03 150.447 154.575 149.065C156.257 148.404 157.158 146.602 158.059 145.16C158.96 143.718 160.222 142.276 159.621 140.534C158.66 137.651 154.755 135.127 151.871 134.947C147.546 134.647 145.924 138.071 144.181 141.315C143.04 143.358 146.164 145.22 147.245 143.178Z" fill="#F5F3F0"/>
<path d="M128.141 129.6C128.622 130.26 130.064 131.702 130.003 132.543C129.943 133.384 128.441 134.346 128.021 134.946C126.819 136.689 125.378 138.13 124.116 139.813L125.197 138.971C124.777 139.092 123.095 137.41 122.794 137.109C121.593 135.487 122.494 134.766 123.996 134.045C126.086 133.138 127.951 131.785 129.463 130.08C130.905 128.278 128.381 125.695 126.94 127.497C125.498 129.299 123.575 130.2 121.533 131.222C119.49 132.243 119.07 132.904 118.709 134.526C117.928 137.89 120.992 141.194 123.936 142.396C124.528 142.664 125.197 142.715 125.823 142.539C126.45 142.363 126.994 141.972 127.36 141.435C128.641 140.04 129.844 138.576 130.965 137.049C131.926 135.667 133.548 134.766 133.788 132.964C134.028 131.162 132.286 129.239 131.265 127.737C130.244 126.235 126.879 127.617 128.141 129.6Z" fill="#F5F3F0"/>
<path d="M133.007 126.176C134.148 124.374 136.071 123.472 137.933 122.451L141.598 120.469L143.4 119.447C142.979 119.027 142.859 119.087 143.099 119.628C144.241 122.151 140.757 124.314 139.074 125.575C138.146 126.311 137.162 126.974 136.131 127.558C135.792 127.895 135.34 128.095 134.862 128.117C134.385 128.139 133.916 127.983 133.547 127.678C133.264 127.527 133.038 127.285 132.908 126.991C132.777 126.697 132.749 126.368 132.827 126.056C133.608 123.833 130.123 122.872 129.342 125.094C128.201 128.519 131.985 132.544 135.47 131.703C137.813 131.102 139.976 129.48 141.778 127.978C143.58 126.476 145.743 125.094 146.524 122.872C147.305 120.649 146.223 114.641 142.198 116.083C139.675 116.984 137.212 118.726 134.869 120.048C132.526 121.37 131.144 122.391 129.943 124.374C128.741 126.356 131.805 128.158 133.007 126.176Z" fill="#F5F3F0"/>
<path d="M123.995 121.43C126.459 120.289 129.642 119.988 131.985 118.606C134.328 117.225 133.968 116.324 133.668 114.702C133.187 112.118 131.865 109.355 130.604 107.132C129.342 104.909 128.681 103.287 126.519 103.287C124.356 103.287 122.073 104.308 120.992 105.63C119.91 106.952 119.67 110.857 119.43 113.019C119.189 115.182 118.108 118.907 119.37 120.889C120.631 122.872 122.674 122.211 124.236 121.37C125.798 120.529 124.476 117.165 122.433 118.306C122.494 119.267 122.554 119.087 122.614 117.705L122.794 115.362L123.335 110.676C123.515 109.054 123.455 107.252 125.617 107.192C126.338 106.651 126.699 106.772 126.759 107.613L127.72 109.355C128.432 110.665 129.034 112.031 129.522 113.44C130.063 115.122 130.303 115.002 129.222 115.783C128.141 116.564 126.398 116.564 125.377 116.924C124.269 117.343 123.186 117.825 122.133 118.366C120.09 119.327 121.893 122.451 123.995 121.43Z" fill="#F5F3F0"/>
<path d="M104.11 132.244C106.754 138.792 106.453 145.761 105.973 152.67C105.852 155.013 109.457 154.953 109.577 152.67C110.058 145.461 110.358 138.132 107.595 131.283C106.693 129.18 103.209 130.081 104.11 132.244Z" fill="#F5F3F0"/>
<path d="M105.552 131.582C111.079 128.519 116.787 125.695 121.352 121.309C123.034 119.687 120.511 117.164 118.829 118.726C114.504 122.932 108.977 125.575 103.75 128.459C101.707 129.6 103.51 132.724 105.552 131.582Z" fill="#F5F3F0"/>
<path d="M112.881 127.077C116.366 129.3 117.567 135.427 118.949 138.972C120.811 143.598 122.193 147.863 121.893 152.909C121.712 155.252 125.317 155.192 125.497 152.909C125.918 146.722 123.815 141.495 121.592 135.848C119.91 131.703 118.709 126.476 114.684 123.953C112.701 122.751 110.899 125.875 112.881 127.077Z" fill="#F5F3F0"/>
<path d="M150.91 136.028C156.016 135.848 161.723 140.654 165.749 143.297C169.774 145.941 174.099 148.764 175.541 153.57C176.262 155.793 179.746 154.832 179.025 152.609C177.403 147.262 173.018 143.898 168.572 140.834C164.126 137.77 157.278 132.183 150.91 132.424C148.627 132.484 148.627 136.088 150.91 136.028Z" fill="#F5F3F0"/>
<path d="M139.916 127.798C142.019 132.304 147.846 136.449 152.832 136.569C155.175 136.629 155.175 133.025 152.832 132.965C149.107 132.905 144.602 129.3 143.04 125.996C142.079 123.893 138.955 125.695 139.916 127.798Z" fill="#F5F3F0"/>
<path d="M172.237 113.98C175.481 113.5 178.785 113.5 181.969 113.319C185.153 113.139 184.312 109.595 181.969 109.715C178.394 109.796 174.825 110.056 171.276 110.496C168.993 110.856 170.014 114.341 172.237 113.98Z" fill="#F5F3F0"/>
<path d="M169.113 120.649C171.541 122.07 173.869 123.656 176.082 125.395C177.824 126.897 180.407 124.373 178.605 122.871C176.203 120.886 173.629 119.117 170.915 117.585C168.933 116.383 167.13 119.447 169.113 120.649Z" fill="#F5F3F0"/>
<path d="M131.565 110.256C135.17 106.531 143.28 107.312 148.026 107.192C152.772 107.072 159.801 106.231 164.848 108.033C167.01 108.814 167.971 105.329 165.809 104.548C163.646 103.767 159.921 103.527 156.917 103.527C153.914 103.527 149.408 103.467 145.623 103.647C140.277 103.828 133.067 103.467 129.042 107.733C127.42 109.355 129.943 111.938 131.565 110.256Z" fill="#F5F3F0"/>
<path d="M102.548 115.903C104.291 117.044 106.153 117.645 108.015 118.486C110.042 119.536 111.92 120.849 113.602 122.391C116.847 125.275 120.151 128.278 122.674 131.883C123.935 133.745 127.059 131.943 125.738 130.021C123.094 126.176 119.67 122.932 116.126 119.808C114.598 118.396 112.926 117.148 111.139 116.083C108.916 114.821 106.453 114.221 104.351 112.839C102.248 111.457 100.626 114.641 102.548 115.903Z" fill="#F5F3F0"/>
<path d="M150.79 106.291C152.892 104.548 154.935 103.227 156.196 100.764C157.458 98.3004 158.72 96.9788 159.561 94.756C160.402 92.5332 156.917 91.632 156.076 93.7947C155.235 95.9575 153.974 97.159 153.073 98.9613C152.171 100.764 150.069 102.265 148.206 103.707C146.344 105.149 148.987 107.672 150.79 106.291Z" fill="#F5F3F0"/>
<path d="M83.8649 109.054C81.582 107.913 79.179 107.192 77.3767 105.269C75.7007 103.457 74.6299 101.169 74.3127 98.721C74.0124 96.4982 70.4078 96.4381 70.7082 98.721C71.0434 101.685 72.1634 104.505 73.9524 106.891C76.1752 109.595 79.0588 110.616 82.0626 112.178C84.1052 113.259 85.9075 110.135 83.8649 109.054Z" fill="#F5F3F0"/>
<path d="M190.56 121.97C192.722 121.79 194.885 121.73 197.048 121.73C199.211 121.73 199.391 118.185 197.048 118.125C194.705 118.065 192.722 118.185 190.56 118.365C188.397 118.546 188.217 122.09 190.56 121.97Z" fill="#F5F3F0"/>
<path d="M110.719 117.766C109.457 118.186 109.097 120.169 108.736 121.37C108.376 122.572 108.376 125.335 108.256 127.258C108.136 129.18 109.998 128.399 110.058 127.258C110.118 126.116 110.178 124.554 110.298 123.233C110.355 122.581 110.475 121.937 110.659 121.31L111.2 119.508C112.341 119.147 111.86 117.405 110.719 117.766Z" fill="#F5F3F0"/>
<path d="M96.6012 121.851C96.8521 123.294 97.3179 124.691 97.983 125.996C98.5837 127.198 99.6651 128.159 100.566 129.12C101.467 130.081 102.669 128.7 101.828 127.859C100.94 127.05 100.172 126.119 99.5449 125.095C98.9394 123.929 98.5333 122.67 98.3433 121.37C98.1631 120.229 96.421 120.71 96.6012 121.851Z" fill="#F5F3F0"/>
<path d="M82.964 123.232C85.7876 127.377 88.551 132.183 93.4171 133.986C94.4985 134.406 94.9791 132.664 93.8978 132.243C89.5723 130.621 86.989 125.995 84.5259 122.331C83.9251 121.37 82.3632 122.271 82.964 123.232Z" fill="#F5F3F0"/>
<path d="M176.562 111.998C175.12 114.821 172.717 117.525 172.417 120.829C172.297 121.971 174.099 121.971 174.219 120.829C174.459 118.066 176.862 115.362 178.124 112.899C178.605 111.818 177.043 110.917 176.562 111.998Z" fill="#F5F3F0"/>
<path d="M107.655 142.156C105.899 142.261 104.164 142.584 102.488 143.117C100.866 143.658 99.4244 144.92 97.6822 145.04C95.94 145.16 96.5408 146.962 97.6822 146.842C98.9921 146.66 100.256 146.232 101.407 145.58C103.449 144.499 105.432 144.199 107.655 143.958C108.796 143.838 108.796 142.036 107.655 142.156Z" fill="#F5F3F0"/>
<path d="M107.715 149.125C105.132 149.125 101.347 149.125 99.2443 150.807C98.3432 151.468 99.1842 153.09 100.145 152.369C102.008 150.867 105.432 150.927 107.715 150.927C107.954 150.927 108.183 150.832 108.352 150.663C108.521 150.494 108.616 150.265 108.616 150.026C108.616 149.787 108.521 149.558 108.352 149.389C108.183 149.22 107.954 149.125 107.715 149.125Z" fill="#F5F3F0"/>
<path d="M107.835 139.151C110.659 137.109 115.164 136.809 118.528 136.148C119.67 135.907 119.189 134.165 118.048 134.406C114.503 135.066 109.938 135.427 106.934 137.65C106.033 138.31 106.934 139.872 107.835 139.151Z" fill="#F5F3F0"/>
<path d="M122.073 143.659C118.745 146.22 115.138 148.397 111.32 150.147C110.298 150.627 111.199 152.189 112.221 151.709C116.162 149.857 119.888 147.581 123.335 144.92C124.296 144.199 122.974 142.938 122.073 143.659Z" fill="#F5F3F0"/>
<path d="M77.4969 125.395C79.4794 127.317 82.303 127.077 84.8863 127.137C85.1253 127.137 85.3544 127.042 85.5234 126.873C85.6924 126.704 85.7875 126.475 85.7875 126.236C85.7875 125.997 85.6924 125.768 85.5234 125.599C85.3544 125.43 85.1253 125.335 84.8863 125.335C82.9038 125.335 80.3206 125.635 78.7586 124.133C77.1966 122.631 76.6559 124.614 77.4969 125.395Z" fill="#F5F3F0"/>
<path d="M80.5606 131.823C82.9636 132.544 85.7271 131.162 88.1902 130.982C89.3317 130.862 89.3917 129.059 88.1902 129.18C87.1187 129.227 86.0533 129.368 85.0062 129.6C83.6845 129.9 82.3629 130.441 81.0412 130.081C79.7196 129.72 79.4192 131.462 80.5606 131.823Z" fill="#F5F3F0"/>
<path d="M100.446 120.348C102.593 122.526 104.505 124.922 106.153 127.497C106.754 128.458 108.316 127.557 107.715 126.596C105.972 123.878 103.959 121.342 101.708 119.026C100.927 118.245 99.6652 119.507 100.446 120.348Z" fill="#F5F3F0"/>
<path d="M144.662 119.327C148.867 120.349 153.313 119.628 157.398 120.889C158.539 121.25 159.02 119.508 157.878 119.147C153.733 117.886 149.348 118.606 145.142 117.585C144.061 117.345 143.58 119.087 144.662 119.327Z" fill="#F5F3F0"/>
<path d="M136.732 106.411C138.534 110.076 140.336 113.68 140.216 117.885C140.216 118.124 140.311 118.354 140.48 118.523C140.649 118.692 140.878 118.787 141.117 118.787C141.356 118.787 141.585 118.692 141.754 118.523C141.923 118.354 142.018 118.124 142.018 117.885C142.139 113.38 140.276 109.415 138.294 105.51C137.753 104.489 136.191 105.39 136.732 106.411Z" fill="#F5F3F0"/>
<path d="M145.863 142.638C143.16 143.899 142.079 146.723 140.817 149.126C140.216 150.147 141.778 151.048 142.319 150.027C143.52 147.924 144.421 145.281 146.764 144.2C147.786 143.719 146.885 142.157 145.863 142.638Z" fill="#F5F3F0"/>
<path d="M146.164 138.311C144.485 137.319 142.627 136.666 140.697 136.389C139.555 136.209 139.075 137.951 140.216 138.131C142.003 138.345 143.724 138.939 145.263 139.873C146.284 140.414 147.185 138.852 146.164 138.311Z" fill="#F5F3F0"/>
<path d="M161.243 147.743C157.795 149.521 154.874 152.172 152.772 155.433C150.698 158.649 149.213 162.209 148.386 165.946C147.725 168.95 145.743 177.961 149.888 180.544C152.111 181.866 155.595 181.205 157.578 179.403C159.56 177.601 161.182 174.477 161.783 170.812C162.744 165.105 165.208 162.221 170.194 161.2C176.201 159.998 176.802 161.2 185.814 167.808C187.255 168.89 189.118 171.593 187.496 170.752C171.996 162.401 166.589 170.211 169.593 177.42C171.215 181.325 199.03 198.447 210.505 203.133C223.481 208.48 228.828 228.665 240.423 227.283C245.649 226.683 249.134 223.138 253.399 218.512C256.283 215.448 270.881 199.829 269.92 178.982C268.298 143.718 223.241 120.528 207.441 127.617C204.017 129.119 200.112 132.904 192.482 133.745C185.934 134.466 181.548 132.544 177.523 135.668C175.06 137.59 175.18 139.452 173.318 142.216C171.455 144.979 167.791 144.439 161.243 147.743Z" fill="#F5F3F0"/>
<path d="M239.282 228.546C233.034 228.546 228.588 222.959 223.842 216.951C219.817 211.845 215.672 206.558 210.025 204.275C199.031 199.769 170.375 182.468 168.512 177.902C166.65 173.336 167.431 170.272 169.954 167.989C172.477 165.706 175.601 164.505 183.351 167.449C182.97 167.217 182.609 166.956 182.27 166.668C175.902 161.922 175.181 161.441 170.435 162.402C165.689 163.363 163.826 165.766 162.985 170.993C162.264 175.138 160.883 177.902 158.419 180.245C155.956 182.588 151.871 183.128 149.288 181.566C144.422 178.563 146.464 169.191 147.185 165.706C148.069 161.846 149.614 158.167 151.751 154.833C153.949 151.356 157.04 148.534 160.702 146.662C163.01 145.54 165.4 144.597 167.851 143.839C170.134 143.118 171.516 142.637 172.297 141.496C172.872 140.659 173.374 139.775 173.799 138.852C174.41 137.226 175.447 135.794 176.803 134.707C179.746 132.424 182.81 132.544 186.355 132.665C188.357 132.771 190.365 132.731 192.362 132.544C197.649 132.004 201.073 129.901 203.837 128.219C204.846 127.601 205.889 127.04 206.961 126.537C214.53 123.113 228.348 126.236 241.264 134.227C259.167 145.281 270.341 161.982 271.122 178.923C271.963 197.487 260.969 212.205 254.301 219.294C250.035 223.86 246.371 227.825 240.543 228.486L239.282 228.546ZM176.022 168.35C174.412 168.261 172.827 168.775 171.576 169.792C169.834 171.353 169.534 174.117 170.675 176.941C171.816 179.764 198.19 196.826 210.926 202.052C217.174 204.575 221.74 210.403 225.765 215.509C230.511 221.517 234.656 226.743 240.243 226.083C245.83 225.422 247.993 222.538 252.559 217.672C258.927 210.823 269.5 196.706 268.719 179.043C267.998 162.883 257.244 146.903 240.003 136.269C227.927 128.76 214.711 125.696 207.922 128.7C206.932 129.187 205.969 129.728 205.038 130.322C202.095 132.064 198.43 134.287 192.603 134.947C190.485 135.133 188.358 135.173 186.235 135.068C182.93 134.947 180.527 134.887 178.244 136.63C176.983 137.591 176.562 138.552 175.962 139.814C175.49 140.881 174.928 141.907 174.28 142.877C173.018 144.68 171.095 145.341 168.632 146.122C166.3 146.837 164.029 147.741 161.844 148.825C158.566 150.495 155.789 153.003 153.794 156.094C151.783 159.2 150.339 162.637 149.528 166.247C147.906 173.636 148.267 178.082 150.55 179.524C152.832 180.966 155.115 180.064 156.737 178.503C158.359 176.941 159.981 174.237 160.582 170.633C161.664 164.385 164.547 161.081 169.954 159.999C175.361 158.918 177.283 159.999 183.711 164.745L186.535 166.848C186.535 166.848 190.2 169.792 189.118 171.474C188.938 171.714 188.337 172.555 186.955 171.774C182.69 169.491 178.905 168.35 176.022 168.35Z" fill="#090909"/>
<path d="M291.067 203.614C287.703 196.224 283.738 189.196 277.97 183.609C275.748 179.523 272.564 175.799 267.637 177.06C257.124 177.841 247.211 181.626 238.02 186.672C233.154 189.376 228.468 192.38 223.902 195.504C219.336 198.628 215.011 200.91 212.247 205.116C212.208 205.189 212.187 205.271 212.185 205.354C212.182 205.437 212.199 205.52 212.234 205.595C212.269 205.671 212.321 205.738 212.386 205.79C212.451 205.842 212.527 205.879 212.608 205.897C212.608 205.957 212.548 205.957 212.548 206.017C212.137 206.664 211.956 207.43 212.032 208.192C212.108 208.955 212.438 209.669 212.968 210.222C215.311 212.685 217.534 215.269 219.817 217.792C221.094 219.903 222.478 221.948 223.962 223.919C226.835 227.535 230.386 230.555 234.415 232.811C238.32 235.094 242.646 236.776 246.911 238.338C251.177 239.9 256.523 241.221 261.87 240.26C267.217 239.299 271.602 237.617 276.168 235.634C280.643 233.823 284.897 231.505 288.844 228.726C292.629 225.962 295.753 222.177 295.753 217.251C295.753 212.325 293.049 207.819 291.067 203.614ZM230.571 192.56L229.73 192.98L232.493 191.298L230.571 192.56ZM222.4 198.027L217.174 201.511C218.868 200.148 220.655 198.903 222.52 197.786C222.46 197.847 222.46 197.907 222.4 198.027ZM247.752 231.129V231.309H247.812L247.212 231.069L247.752 231.129Z" fill="#CBC7DB"/>
<path d="M268.899 175.499C261.93 177.181 254.841 178.623 247.932 180.545C241.024 182.468 235.977 186.313 230.39 189.316C229.369 189.857 230.27 191.419 231.291 190.878C237.059 187.754 242.946 183.669 249.374 182.047C255.802 180.425 262.711 178.863 269.38 177.241C270.521 176.941 270.04 175.259 268.899 175.499Z" fill="#090909"/>
<path d="M218.075 200.43C220.838 198.988 223.782 197.666 226.185 195.624C227.026 194.843 225.764 193.581 224.863 194.362C222.64 196.284 219.757 197.486 217.174 198.868C216.152 199.408 217.053 200.97 218.075 200.43Z" fill="#090909"/>
<path d="M252.018 228.846C256.463 224.52 263.312 223.199 268.899 220.796C274.486 218.393 281.575 215.209 288.664 215.569C289.805 215.629 289.805 213.827 288.664 213.767C281.635 213.406 275.267 216.11 268.959 218.813C262.651 221.517 255.562 222.898 250.756 227.584C249.915 228.365 251.177 229.627 252.018 228.846Z" fill="#090909"/>
<path d="M292.749 213.767C296.414 211.604 297.315 208.12 293.71 205.116C292.869 204.395 291.908 203.855 291.067 203.074C290.226 202.293 288.904 200.37 288.063 198.808C286.899 196.265 285.382 193.899 283.558 191.779C282.777 190.938 281.515 192.2 282.296 193.041C284.879 195.925 286.021 199.469 288.183 202.593C290.346 205.717 297.976 208.541 291.788 212.265C291.625 212.407 291.518 212.603 291.487 212.817C291.456 213.031 291.503 213.249 291.62 213.431C291.736 213.614 291.915 213.748 292.122 213.809C292.329 213.871 292.552 213.856 292.749 213.767Z" fill="#090909"/>
<path d="M242.226 214.067C239.822 214.247 239.582 217.071 239.943 218.993C240.303 220.915 242.946 221.576 244.689 221.276C246.431 220.976 247.813 218.813 247.452 216.77C247.353 215.722 246.884 214.742 246.13 214.007C245.289 213.346 243.848 213.646 242.886 213.646C242.647 213.646 242.418 213.741 242.249 213.91C242.08 214.079 241.985 214.308 241.985 214.547C241.985 214.786 242.08 215.016 242.249 215.185C242.418 215.354 242.647 215.449 242.886 215.449H244.508C245.169 215.509 245.169 215.569 245.41 216.169C245.65 216.77 246.01 218.392 245.169 219.113C244.328 219.834 243.247 219.654 242.466 219.293C241.685 218.933 241.685 218.512 241.685 217.731C241.685 216.95 241.445 215.929 242.226 215.869C243.006 215.809 243.367 213.947 242.226 214.067Z" fill="#090909"/>
<path d="M242.525 218.212C243.222 218.341 243.88 218.629 244.448 219.053C244.649 219.166 244.885 219.197 245.108 219.141C245.332 219.086 245.525 218.946 245.649 218.752C245.715 218.65 245.759 218.536 245.779 218.417C245.799 218.298 245.795 218.175 245.767 218.058C245.739 217.94 245.687 217.829 245.616 217.732C245.544 217.634 245.453 217.552 245.349 217.491C244.646 216.994 243.848 216.646 243.006 216.469C242.775 216.415 242.532 216.454 242.329 216.578C242.127 216.701 241.981 216.9 241.925 217.13C241.888 217.241 241.875 217.357 241.886 217.473C241.897 217.589 241.931 217.701 241.988 217.803C242.044 217.904 242.121 217.993 242.214 218.063C242.306 218.134 242.412 218.184 242.525 218.212Z" fill="#090909"/>
<path d="M243.126 216.049L242.766 218.332C242.707 218.563 242.735 218.808 242.846 219.019C242.957 219.23 243.143 219.392 243.367 219.474C243.605 219.53 243.856 219.493 244.069 219.37C244.281 219.247 244.438 219.048 244.508 218.813L244.869 216.53C244.923 216.299 244.884 216.056 244.76 215.854C244.637 215.651 244.438 215.506 244.208 215.449C244.097 215.412 243.981 215.399 243.865 215.41C243.749 215.421 243.637 215.456 243.535 215.512C243.434 215.569 243.345 215.645 243.275 215.738C243.204 215.83 243.154 215.937 243.126 216.049Z" fill="#090909"/>
<path d="M212.908 202.532C212.073 203.538 211.535 204.757 211.355 206.052C211.174 207.347 211.358 208.666 211.887 209.862C213.569 213.647 217.714 215.209 219.096 219.113C219.456 220.195 221.198 219.714 220.838 218.633C220.16 216.631 218.932 214.861 217.293 213.526C214.71 211.364 211.226 207.278 214.17 203.854C214.95 202.953 213.629 201.691 212.908 202.532Z" fill="#090909"/>
<path d="M145.623 179.763V173.035C145.623 172.796 145.528 172.567 145.359 172.398C145.19 172.229 144.961 172.134 144.722 172.134C144.483 172.134 144.253 172.229 144.084 172.398C143.915 172.567 143.821 172.796 143.821 173.035V179.763C143.821 180.002 143.915 180.232 144.084 180.401C144.253 180.57 144.483 180.665 144.722 180.665C144.961 180.665 145.19 180.57 145.359 180.401C145.528 180.232 145.623 180.002 145.623 179.763Z" fill="#CBC7DB"/>
<path d="M143.58 180.304C142.793 178.045 142.151 175.737 141.658 173.396C141.594 173.165 141.441 172.968 141.233 172.85C141.025 172.732 140.778 172.701 140.547 172.765C140.315 172.829 140.119 172.982 140.001 173.19C139.883 173.398 139.852 173.645 139.916 173.876C140.409 176.218 141.051 178.525 141.838 180.785C142.199 181.927 143.941 181.446 143.58 180.304Z" fill="#CBC7DB"/>
<path d="M161.243 181.746C162.384 180.605 163.526 179.463 164.547 178.262C165.568 177.06 164.006 176.099 163.225 177C162.206 178.199 161.123 179.342 159.981 180.424C159.894 180.507 159.825 180.606 159.776 180.716C159.728 180.826 159.702 180.944 159.699 181.064C159.696 181.184 159.717 181.303 159.76 181.415C159.803 181.527 159.868 181.629 159.951 181.716C160.034 181.803 160.133 181.873 160.243 181.921C160.353 181.969 160.471 181.996 160.591 181.999C160.711 182.001 160.83 181.981 160.942 181.937C161.054 181.894 161.156 181.829 161.243 181.746Z" fill="#CBC7DB"/>
<path d="M173.799 54.7453C172.537 54.7453 171.696 53.6038 171.336 51.321C168.872 50.9605 167.611 50.1194 167.611 48.7978C167.611 47.4761 168.872 46.635 171.276 46.2746C171.516 44.2921 172.177 42.3096 173.799 42.3096C175.421 42.3096 176.142 44.232 176.382 46.2746C178.785 46.635 180.047 47.4761 180.047 48.7978C180.047 50.1194 178.725 50.9605 176.322 51.321C175.921 53.6038 175.08 54.7453 173.799 54.7453ZM173.558 48.7978H173.799H173.558Z" fill="#090909"/>
<path d="M185.754 37.804C183.231 37.804 182.209 33.7789 181.849 30.7751C178.545 30.4147 174.219 29.4535 174.219 26.8101C174.219 24.1668 178.485 23.2056 181.729 22.8451C182.029 19.7212 182.93 14.6748 185.754 14.6748C188.577 14.6748 189.479 19.7212 189.779 22.8451C193.023 23.2056 197.288 24.1668 197.288 26.8101C197.288 29.4535 192.903 30.4147 189.659 30.7751C189.238 33.7789 188.277 37.804 185.754 37.804ZM177.163 26.8101C177.884 27.2307 179.806 27.8915 183.171 28.1318L184.312 28.252L184.432 29.3934C184.733 32.3972 185.333 34.1394 185.754 34.8002C186.174 34.1394 186.775 32.3972 187.076 29.3934V28.252L188.277 28.1318C191.581 27.8915 193.504 27.2307 194.225 26.8101C193.504 26.3896 191.641 25.7288 188.337 25.4284H187.136V24.2269C186.895 20.5622 186.234 18.4596 185.754 17.7387C185.273 18.4596 184.552 20.5622 184.372 24.2269L184.252 25.4284H183.111C179.806 25.7288 177.884 26.3896 177.163 26.8101Z" fill="#CBC7DB"/>
<path d="M19.7638 169.251C17.2406 169.251 16.2193 165.286 15.7988 162.282C12.5547 161.922 8.16919 160.96 8.16919 158.317C8.16919 155.674 12.4947 154.712 15.6787 154.352C15.9791 151.228 16.8802 146.182 19.7638 146.182C22.6474 146.182 23.4886 151.228 23.7889 154.352C26.973 154.712 31.2984 155.674 31.2984 158.317C31.2984 160.96 26.9128 161.922 23.6687 162.282C23.2482 165.286 22.2269 169.251 19.7638 169.251ZM11.173 158.317C11.8939 158.738 13.8163 159.398 17.1806 159.639L18.322 159.759L18.4422 160.9C18.6825 163.904 19.3433 165.646 19.7638 166.307C20.1243 165.646 20.7851 163.904 21.0254 160.9L21.1456 159.759L22.287 159.639C25.6513 159.398 27.5737 158.738 28.2946 158.317C27.5737 157.896 25.7113 157.176 22.4072 156.935H21.2056V155.734C20.9653 152.069 20.2444 149.966 19.8239 149.246C19.3433 149.966 18.6224 152.069 18.3821 155.734V156.935H17.1806C13.7563 157.176 11.8939 157.896 11.173 158.317Z" fill="#CBC7DB"/>
<path d="M270.041 122.992C268.779 122.992 267.938 121.851 267.578 119.568C265.114 119.208 263.853 118.367 263.853 117.045C263.853 115.723 265.114 114.882 267.457 114.522C267.758 112.479 268.419 110.557 270.041 110.557C271.663 110.557 272.384 112.479 272.624 114.522C275.027 114.882 276.289 115.723 276.289 117.045C276.289 118.367 274.967 119.208 272.564 119.568C272.123 121.851 271.282 122.992 270.041 122.992ZM269.8 117.045H270.041H269.8Z" fill="#090909"/>
<path d="M6.6674 188.174C5.42583 188.174 4.58473 187.033 4.14417 184.75C1.74113 184.389 0.479553 183.548 0.479553 182.226C0.479553 180.905 1.68107 180.064 4.08411 179.703C4.32441 177.661 5.04535 175.738 6.6674 175.738C8.28945 175.738 8.95025 177.661 9.25063 179.703C11.5936 180.064 12.8552 180.905 12.8552 182.226C12.8552 183.548 11.5936 184.389 9.1305 184.75C8.77005 187.033 7.929 188.174 6.6674 188.174ZM6.36702 182.226H6.6674H6.36702Z" fill="#090909"/>
<path d="M172.117 144.379C178.905 144.319 186.415 144.259 192.362 148.164C194.705 149.666 196.688 151.768 199.151 153.21C201.562 154.583 204.179 155.557 206.901 156.094C208.042 156.334 208.523 154.592 207.381 154.352C204.021 153.706 200.842 152.332 198.069 150.326C195.606 148.524 193.504 146.482 190.68 145.22C184.853 142.577 178.365 142.517 172.117 142.577C171.878 142.577 171.649 142.672 171.48 142.841C171.311 143.01 171.216 143.239 171.216 143.478C171.216 143.717 171.311 143.946 171.48 144.115C171.649 144.284 171.878 144.379 172.117 144.379Z" fill="#090909"/>
<path d="M211.706 157.596L213.509 158.196C213.732 158.253 213.968 158.223 214.169 158.111C214.37 157.999 214.52 157.815 214.59 157.596C214.649 157.365 214.621 157.12 214.51 156.909C214.399 156.698 214.213 156.536 213.989 156.454L212.187 155.853C212.073 155.816 211.952 155.803 211.832 155.813C211.712 155.823 211.596 155.857 211.49 155.913C211.383 155.969 211.289 156.046 211.213 156.139C211.137 156.232 211.08 156.339 211.046 156.454C210.989 156.693 211.026 156.944 211.149 157.156C211.272 157.368 211.471 157.526 211.706 157.596Z" fill="#090909"/>
<path d="M193.143 135.007C198.19 133.685 203.176 135.307 207.982 136.749C212.788 138.191 217.354 139.693 221.679 141.976C222.761 142.517 223.662 140.955 222.64 140.414C217.774 137.891 212.608 136.269 207.441 134.707C202.275 133.145 197.709 131.943 192.662 133.265C192.431 133.329 192.235 133.482 192.117 133.69C191.999 133.898 191.968 134.145 192.032 134.376C192.096 134.607 192.248 134.804 192.457 134.922C192.665 135.04 192.912 135.071 193.143 135.007Z" fill="#090909"/>
<path d="M225.344 143.238C225.478 143.749 225.742 144.217 226.11 144.596C226.479 144.975 226.939 145.252 227.446 145.4C227.669 145.457 227.905 145.427 228.106 145.315C228.307 145.203 228.458 145.019 228.528 144.8C228.587 144.569 228.558 144.324 228.447 144.113C228.336 143.902 228.151 143.74 227.927 143.658C227.927 143.658 227.687 143.598 227.807 143.658L227.627 143.538H227.506L227.386 143.418H227.326C227.264 143.351 227.222 143.267 227.206 143.178C227.146 143.178 227.086 142.997 227.146 143.118V142.877C227.089 142.647 226.944 142.448 226.741 142.325C226.539 142.201 226.296 142.162 226.065 142.216C225.83 142.286 225.63 142.444 225.508 142.656C225.385 142.868 225.348 143.119 225.404 143.358L225.344 143.238Z" fill="#090909"/>
<path d="M180.707 181.025C180.707 180.184 181.488 179.283 181.789 178.562C182.155 177.731 182.32 176.825 182.269 175.919C182.274 175.309 182.092 174.712 181.749 174.207C181.405 173.703 180.916 173.315 180.347 173.095C179.266 172.675 178.785 174.417 179.866 174.837C180.948 175.258 180.287 177.721 179.866 178.502C179.446 179.283 178.845 180.004 178.905 181.025C178.905 181.264 179 181.493 179.169 181.662C179.338 181.831 179.567 181.926 179.806 181.926C180.045 181.926 180.274 181.831 180.443 181.662C180.612 181.493 180.707 181.264 180.707 181.025Z" fill="#090909"/>
<path d="M219.757 168.349C227.488 160.742 236.053 154.031 245.289 148.344C246.25 147.743 245.349 146.181 244.388 146.782C235.007 152.535 226.318 159.348 218.495 167.087C217.654 167.928 218.976 169.19 219.757 168.349Z" fill="#090909"/>
</svg>
