<svg width="277" height="200" viewBox="0 0 277 200" fill="none" xmlns="http://www.w3.org/2000/svg">
<path d="M217.864 190.409L221.06 190.291L220.862 187.609L233.801 187.333L233.998 190.054L234.55 197.549C234.629 198.417 233.761 199.127 232.617 199.167L213.052 199.561C212.184 199.6 211.474 199.088 211.395 198.417C211.079 194.078 212.066 190.528 217.864 190.409Z" fill="#80A5AE"/>
<path d="M212.302 197.115C214.077 197.746 216.089 197.233 217.943 197.036C219.797 196.839 221.257 196.602 222.914 196.484C225.448 196.221 228.005 196.274 230.527 196.642C230.606 195.064 231.513 193.683 233.209 192.618C233.801 192.224 234.59 192.973 233.998 193.368C232.42 194.314 231.631 195.616 231.75 197.155C231.75 197.549 231.395 197.786 230.921 197.667C227.332 196.918 223.702 197.312 220.152 197.707C217.549 198.022 214.432 198.89 211.868 197.983C211.119 197.707 211.553 196.839 212.302 197.115Z" fill="#090909"/>
<path d="M220.862 190.804C222.598 191.159 224.373 191.593 225.517 192.737C225.99 193.21 225.043 193.802 224.57 193.289C224.097 192.776 221.967 191.987 220.428 191.672C219.639 191.514 220.073 190.646 220.862 190.804Z" fill="#090909"/>
<path d="M215.142 190.607C217.549 190.962 219.955 191.435 221.651 192.895C222.203 193.368 221.257 193.921 220.704 193.487C219.245 192.224 217.075 191.869 215.024 191.514C214.235 191.396 214.354 190.449 215.142 190.607Z" fill="#090909"/>
<path d="M250.566 189.936L253.998 189.778L253.761 186.938L267.567 186.622L267.764 189.502L268.396 197.51C268.474 198.456 267.528 199.206 266.305 199.245L245.438 199.679C244.491 199.719 243.702 199.166 243.662 198.456C243.307 193.802 244.373 190.054 250.566 189.936Z" fill="#80A5AE"/>
<path d="M244.609 197.036C246.542 197.746 248.672 197.194 250.644 196.957C252.617 196.721 254.155 196.523 255.97 196.365C258.663 196.096 261.379 196.162 264.056 196.563C264.175 194.867 265.121 193.368 266.936 192.263C267.567 191.869 268.435 192.657 267.764 193.052C266.107 194.078 265.279 195.458 265.358 197.115C265.397 197.509 265.003 197.786 264.49 197.667C260.664 196.878 256.798 197.273 252.972 197.707C250.21 198.022 246.897 198.969 244.136 197.983C243.386 197.707 243.82 196.76 244.609 197.036Z" fill="#090909"/>
<path d="M253.761 190.33C255.615 190.685 257.508 191.159 258.731 192.382C259.244 192.894 258.218 193.526 257.705 192.973C257.193 192.421 254.905 191.553 253.287 191.238C252.459 191.08 252.932 190.173 253.761 190.33Z" fill="#090909"/>
<path d="M247.647 190.094C250.25 190.527 252.775 191.001 254.629 192.539C255.181 193.052 254.155 193.644 253.603 193.17C252.025 191.829 249.737 191.435 247.528 191.08C246.7 190.961 246.818 189.975 247.647 190.094Z" fill="#090909"/>
<path d="M276.009 182.717C275.22 181.376 273.958 180.35 273.366 178.89C272.828 177.493 272.457 176.036 272.261 174.551C271.681 171.237 270.823 167.978 269.697 164.808C269.185 163.427 268.632 162.086 268.001 160.784L263.268 139.996L259.441 83.311L229.383 89.662L223.15 88.6363L211.711 143.507H211.671L208.397 178.93L207.293 181.06C206.385 182.796 204.729 185.044 204.926 187.016C205.123 188.989 206.819 189.62 208.831 189.58C209.659 189.58 210.488 189.502 211.277 189.423L233.13 190.922C235.181 191.829 237.509 192.302 239.718 191.474C241.927 190.646 241.453 187.805 240.27 186.109C240.429 185.961 240.546 185.774 240.608 185.566C240.67 185.358 240.676 185.137 240.625 184.926C240.553 184.753 240.446 184.597 240.31 184.467C240.174 184.338 240.013 184.239 239.836 184.176L240.152 180.942L241.375 186.346C241.375 187.529 241.375 188.713 241.453 189.857C241.319 190.068 241.258 190.317 241.28 190.567C241.301 190.816 241.404 191.052 241.572 191.237C241.848 192.223 242.479 192.776 243.939 192.697C246.032 192.529 248.091 192.064 250.053 191.316C251 191.158 251.946 191.001 252.932 190.922C254.55 190.803 256.167 190.843 257.784 190.448C258.921 190.14 260.04 189.771 261.137 189.344L267.449 188.239C269.54 188.239 271.63 188.358 273.642 187.766C275.654 187.174 277.232 184.847 276.009 182.717Z" fill="#090909"/>
<path d="M242.518 193.447C242.334 193.451 242.154 193.39 242.01 193.274C241.866 193.159 241.766 192.997 241.73 192.816L230.487 137.393C230.453 137.189 230.499 136.98 230.617 136.811C230.735 136.641 230.915 136.524 231.118 136.486C231.317 136.45 231.521 136.492 231.69 136.602C231.858 136.712 231.978 136.882 232.026 137.078L243.268 192.5C243.304 192.698 243.262 192.903 243.152 193.072C243.042 193.24 242.872 193.36 242.676 193.408L242.518 193.447Z" fill="#F5F3F0"/>
<path d="M231.276 138.024C231.067 138.024 230.866 137.941 230.718 137.793C230.57 137.645 230.487 137.444 230.487 137.235V90.0172C230.487 89.808 230.57 89.6073 230.718 89.4594C230.866 89.3114 231.067 89.2283 231.276 89.2283C231.485 89.2283 231.686 89.3114 231.834 89.4594C231.982 89.6073 232.065 89.808 232.065 90.0172V137.235C232.065 137.444 231.982 137.645 231.834 137.793C231.686 137.941 231.485 138.024 231.276 138.024Z" fill="#F5F3F0"/>
<path d="M254.589 103.271C252.007 103.283 249.456 102.703 247.134 101.575C244.187 100.13 241.852 97.6826 240.546 94.6718C240.482 94.5762 240.439 94.4677 240.421 94.354C240.403 94.2402 240.411 94.1239 240.442 94.0132C240.474 93.9025 240.53 93.8001 240.606 93.7133C240.681 93.6264 240.775 93.5572 240.88 93.5104C240.985 93.4636 241.1 93.4404 241.215 93.4425C241.33 93.4446 241.443 93.4718 241.547 93.5224C241.65 93.5729 241.741 93.6455 241.814 93.735C241.886 93.8245 241.938 93.9289 241.966 94.0406C243.133 96.7146 245.218 98.8832 247.844 100.155C250.053 101.269 252.511 101.799 254.984 101.693C255.193 101.693 255.393 101.776 255.541 101.924C255.689 102.072 255.772 102.273 255.772 102.482C255.778 102.584 255.762 102.686 255.727 102.781C255.692 102.877 255.638 102.964 255.567 103.038C255.497 103.112 255.413 103.17 255.319 103.211C255.226 103.251 255.125 103.271 255.023 103.271H254.589Z" fill="#F5F3F0"/>
<path d="M245.635 141.298C245.425 141.298 245.225 141.215 245.077 141.067C244.929 140.919 244.846 140.718 244.846 140.509V107.374C244.846 107.164 244.929 106.964 245.077 106.816C245.225 106.668 245.425 106.585 245.635 106.585C245.844 106.585 246.045 106.668 246.193 106.816C246.34 106.964 246.424 107.164 246.424 107.374V140.509C246.424 140.718 246.34 140.919 246.193 141.067C246.045 141.215 245.844 141.298 245.635 141.298Z" fill="#F5F3F0"/>
<path d="M245.911 147.609C245.99 146.82 247.41 146.82 247.331 147.609C246.976 152.461 248.159 157.195 249.264 161.928C250.368 166.662 251.473 171.119 252.617 175.735C252.775 176.484 251.433 176.839 251.236 176.05C250.092 171.198 248.909 166.307 247.725 161.455C246.542 156.603 245.556 152.303 245.911 147.609Z" fill="#F5F3F0"/>
<path d="M258.376 102.088C258.469 102.064 258.566 102.062 258.661 102.082C258.755 102.101 258.843 102.142 258.919 102.201C258.995 102.26 259.057 102.336 259.099 102.422C259.142 102.508 259.163 102.603 259.163 102.699C259.163 102.796 259.142 102.891 259.099 102.977C259.057 103.063 258.995 103.139 258.919 103.198C258.843 103.257 258.755 103.298 258.661 103.317C258.566 103.337 258.469 103.335 258.376 103.311C258.283 103.335 258.185 103.337 258.091 103.317C257.997 103.298 257.908 103.257 257.832 103.198C257.756 103.139 257.695 103.063 257.652 102.977C257.61 102.891 257.588 102.796 257.588 102.699C257.588 102.603 257.61 102.508 257.652 102.422C257.695 102.336 257.756 102.26 257.832 102.201C257.908 102.142 257.997 102.101 258.091 102.082C258.185 102.062 258.283 102.064 258.376 102.088Z" fill="#F5F3F0"/>
<path d="M223.19 124.336C223.387 123.586 224.767 123.902 224.531 124.691C220.359 139.655 217.794 155.02 216.878 170.528C216.839 171.277 215.458 171.277 215.497 170.528C216.407 154.9 218.986 139.415 223.19 124.336Z" fill="#F5F3F0"/>
<path d="M54.4364 64.811C60.8662 63.3909 60.2745 53.0164 56.2115 49.0717C54.5547 47.4544 51.5173 45.8765 48.7166 46.7443C42.918 48.5589 43.1941 59.3673 43.2335 59.8407C43.3913 63.7459 43.628 68.6373 46.8232 71.5169C47.6121 72.2664 49.4267 73.7259 51.3596 73.7259C53.2925 73.7259 56.961 68.7162 54.4364 64.811Z" fill="#F5F3F0"/>
<path d="M51.3597 74.4758C49.3479 74.4758 47.4939 73.2135 46.3105 72.109C42.7998 68.9533 42.6025 63.7069 42.4447 59.8805C42.4447 59.3677 42.0897 48.0071 48.4801 45.9953C51.478 45.0486 54.7916 46.587 56.7639 48.5198C59.5252 51.2022 60.7874 56.4881 59.6435 60.5117C58.9729 62.839 57.5528 64.4958 55.5805 65.2847C55.973 66.2877 56.1309 67.3673 56.042 68.4407C55.9531 69.5142 55.6198 70.553 55.0677 71.4778C54.0815 73.2924 52.622 74.4758 51.3597 74.4758ZM50.413 47.2576C49.9168 47.2561 49.4237 47.3361 48.9534 47.4942C43.6676 49.151 43.9831 59.6833 44.0226 59.8016C44.1409 63.3518 44.3382 68.2038 47.3361 70.965C48.7562 72.2273 50.1763 72.9374 51.3597 72.9374C51.833 72.9374 52.8981 72.2273 53.7265 70.7284C54.1998 69.8211 55.2255 67.4543 53.8054 65.2058L53.2137 64.2985L54.2787 64.0619C56.685 63.5096 57.7106 61.5767 58.1445 60.0778C59.1307 56.6064 58.0262 51.9123 55.6988 49.6244C54.3576 48.3621 52.3458 47.2576 50.413 47.2576Z" fill="#090909"/>
<path d="M57.3162 141.022H29.0329C26.4186 141.022 24.2993 143.141 24.2993 145.756V148.402C24.2993 151.017 26.4186 153.136 29.0329 153.136H57.3162C59.9305 153.136 62.0498 151.017 62.0498 148.402V145.756C62.0498 143.141 59.9305 141.022 57.3162 141.022Z" fill="#80A5AE"/>
<path d="M26.4294 116.17C25.9653 121.177 26.9367 126.212 29.2302 130.687C31.2419 134.631 34.7132 139.247 39.0918 140.746C41.1825 141.456 43.6282 141.495 45.7978 141.692C47.9673 141.89 50.6103 142.008 53.0165 142.126C57.6318 142.363 62.2471 142.521 66.8623 142.521C67.0193 142.521 67.1698 142.458 67.2807 142.347C67.3917 142.236 67.454 142.086 67.454 141.929C67.454 141.772 67.3917 141.622 67.2807 141.511C67.1698 141.4 67.0193 141.337 66.8623 141.337C58.7757 141.337 50.6103 141.101 42.5632 140.193C31.952 138.97 26.7056 125.559 27.6128 116.17C27.6523 115.421 26.4689 115.421 26.4294 116.17Z" fill="#090909"/>
<path d="M94.9089 122.403C92.0293 118.064 88.5186 115.185 83.3511 114.198C77.5524 113.094 71.3592 112.739 65.4817 112.62C52.9376 112.463 40.5514 116.999 28.0073 115.066C27.2578 114.948 26.9422 116.092 27.6917 116.21C39.1313 117.946 50.2553 114.317 61.6159 113.843C67.4935 113.646 73.4105 114.198 79.2486 114.829C82.1677 115.145 85.1656 115.54 87.8085 116.92C90.4514 118.301 92.266 120.589 93.8833 122.995C94.2778 123.626 95.3034 123.034 94.9089 122.403Z" fill="#090909"/>
<path d="M27.5734 116.092C27.6128 116.052 27.6128 116.013 27.5734 116.052C27.5339 116.092 27.5734 116.092 27.6128 116.013C27.6522 115.934 27.6917 116.013 27.5734 116.052C27.6485 116.032 27.7188 115.996 27.7802 115.948C27.8417 115.9 27.8931 115.841 27.9316 115.773C27.9701 115.705 27.9948 115.631 28.0044 115.553C28.014 115.476 28.0083 115.398 27.9875 115.322C27.9668 115.247 27.9315 115.177 27.8836 115.116C27.8357 115.054 27.7762 115.003 27.7085 114.964C27.6407 114.926 27.566 114.901 27.4887 114.891C27.4114 114.882 27.3329 114.888 27.2578 114.908C27.1058 114.954 26.9646 115.03 26.8426 115.132C26.7206 115.234 26.6203 115.359 26.5477 115.5C26.4736 115.632 26.4527 115.787 26.4893 115.934C26.526 116.08 26.6175 116.208 26.745 116.289C26.8827 116.365 27.0441 116.388 27.1974 116.351C27.3507 116.315 27.4848 116.222 27.5734 116.092Z" fill="#090909"/>
<path d="M57.7896 40.7093C57.7774 40.5999 57.7328 40.4967 57.6615 40.4128C57.5903 40.329 57.4956 40.2683 57.3896 40.2386C57.2836 40.209 57.1712 40.2116 57.0668 40.2463C56.9623 40.281 56.8706 40.346 56.8034 40.4332L55.5411 42.0899L54.7127 38.4214C54.6717 38.3189 54.601 38.231 54.5096 38.1691C54.4182 38.1072 54.3103 38.0741 54.1999 38.0741C54.0895 38.0741 53.9817 38.1072 53.8902 38.1691C53.7988 38.231 53.7281 38.3189 53.6871 38.4214C53.1933 39.5866 52.6268 40.7196 51.9909 41.8138C51.3597 40.1571 50.6891 38.5003 49.9396 36.883C49.8836 36.7959 49.8041 36.7263 49.7104 36.6823C49.6167 36.6382 49.5124 36.6213 49.4096 36.6337C49.3067 36.646 49.2094 36.687 49.1288 36.752C49.0481 36.8171 48.9874 36.9034 48.9535 37.0013C48.7657 38.3353 48.3238 39.6208 47.6517 40.7882C46.9876 38.9913 45.9373 37.362 44.5749 36.0152C44.2199 35.6601 43.5098 36.0152 43.7071 36.528C44.4566 39.0131 45.2061 41.4983 44.851 44.1017C43.5439 43.1951 42.1077 42.4903 40.5908 42.011C40.1174 41.8533 39.8413 42.3661 39.9991 42.7605C40.1569 43.155 40.4725 43.8651 40.7091 44.4173C42.0109 50.5316 41.6953 57.1191 39.289 62.9178C39.0918 63.3517 39.4863 63.5884 39.8413 63.549L39.9991 63.6279C40.9853 63.9829 42.3264 63.3517 43.2732 63.115C43.3405 63.1073 43.4057 63.0863 43.4649 63.0534C43.5242 63.0204 43.5763 62.9761 43.6184 62.923C43.6606 62.8699 43.6918 62.809 43.7104 62.7438C43.729 62.6786 43.7346 62.6104 43.7268 62.5431C43.719 62.4757 43.6981 62.4106 43.6651 62.3513C43.6322 62.2921 43.5879 62.2399 43.5348 62.1978C43.4816 62.1557 43.4208 62.1244 43.3556 62.1058C43.2904 62.0872 43.2222 62.0817 43.1548 62.0894H42.3659C42.4182 62.0801 42.4681 62.0602 42.5125 62.0311C42.5569 62.002 42.595 61.9642 42.6245 61.92C42.654 61.8758 42.6742 61.8261 42.684 61.7738C42.6938 61.7216 42.6929 61.6679 42.6815 61.6161C42.7824 61.5974 42.8735 61.5436 42.9385 61.4641C43.0035 61.3847 43.0382 61.2848 43.0365 61.1822V60.9455C43.0419 60.8833 43.0349 60.8206 43.016 60.7611C42.9971 60.7016 42.9666 60.6464 42.9263 60.5988C42.8859 60.5511 42.8366 60.5119 42.781 60.4834C42.7254 60.4549 42.6648 60.4376 42.6026 60.4327C42.5697 60.0918 42.5566 59.7494 42.5631 59.4071C42.922 58.4865 43.1992 57.5361 43.3915 56.5669C43.3996 56.4749 43.3861 56.3823 43.352 56.2965C43.3179 56.2107 43.2642 56.1341 43.1952 56.0728C43.1262 56.0114 43.0438 55.9671 42.9546 55.9433C42.8654 55.9195 42.7719 55.9169 42.6815 55.9358C42.7209 55.3046 42.7998 54.7129 42.8787 54.0818C43.1548 54.3579 43.786 54.2395 43.7465 53.7267C43.7087 52.908 43.6297 52.0918 43.5098 51.281C43.598 51.235 43.6731 51.1675 43.7283 51.0848C43.7834 51.002 43.8168 50.9067 43.8254 50.8077C43.9116 50.8678 44.0141 50.8999 44.1192 50.8998C44.2242 50.8997 44.3267 50.8674 44.4128 50.8071C44.4989 50.7469 44.5644 50.6617 44.6004 50.563C44.6364 50.4643 44.6413 50.357 44.6143 50.2554C44.5354 49.9004 44.496 49.5848 44.4171 49.2693C44.5279 49.2858 44.641 49.2727 44.745 49.2311C44.849 49.1895 44.94 49.121 45.0088 49.0326C45.3244 48.5198 46.0739 47.7703 46.4289 47.0208C48.2503 46.4385 50.1851 46.3032 52.0698 46.6263C54.0027 46.9419 55.0283 47.8492 56.4089 49.1115C56.4839 49.1825 56.5819 49.2245 56.6851 49.2298V50.1765C56.7171 50.2932 56.7866 50.3961 56.8828 50.4694C56.979 50.5428 57.0966 50.5825 57.2176 50.5825C57.3386 50.5825 57.4562 50.5428 57.5524 50.4694C57.6486 50.3961 57.7181 50.2932 57.7501 50.1765L57.7896 40.7093Z" fill="#090909"/>
<path d="M45.6399 53.2921C45.6399 52.0693 44.496 51.6748 43.4704 51.9115C42.4448 52.1482 42.1686 53.5683 42.2475 54.5544C42.2436 54.7936 42.3038 55.0294 42.4217 55.2374C42.5396 55.4455 42.711 55.6183 42.9181 55.7378C43.3582 55.8883 43.8399 55.8599 44.2593 55.6589C45.1271 55.225 44.8116 53.8049 44.496 53.0555C44.4712 52.9606 44.4215 52.8741 44.3522 52.8048C44.2829 52.7354 44.1964 52.6858 44.1015 52.661C43.1548 52.5032 42.9181 53.9233 42.9181 54.6333C42.9181 55.3434 44.0621 55.3828 44.1015 54.6333C44.099 54.3786 44.139 54.1253 44.2199 53.8838C44.2593 53.805 44.3776 53.5683 44.2987 53.6472L43.7465 53.8049H43.7859L43.352 53.371C43.4489 53.6283 43.528 53.8919 43.5887 54.16C43.5887 54.3178 43.6282 54.4361 43.6282 54.5939C43.6282 54.7517 43.7465 54.5939 43.6676 54.6333C43.5887 54.6728 43.4309 54.6333 43.4309 54.4361C43.4309 54.2389 43.3915 53.3316 43.6282 53.0949C43.8648 52.8582 44.4565 52.9371 44.4565 53.2921C44.4565 53.6472 45.6005 54.0416 45.6399 53.2921Z" fill="#F5F3F0"/>
<path d="M69.6627 85.7572C68.9075 83.4537 67.3548 81.4953 65.2841 80.2347C62.8384 78.6568 61.0239 76.8028 59.0515 74.6333L57.9076 73.4893C57.5526 70.6097 57.0003 67.7695 55.8169 65.1661C55.5408 64.5349 54.6335 65.0872 54.9096 65.7183C55.3336 66.6741 55.6767 67.6637 55.9352 68.6768C55.8462 68.6609 55.7549 68.6633 55.6667 68.6836C55.5786 68.7039 55.4955 68.7419 55.4224 68.7952C55.1858 68.9135 54.8702 69.4263 55.1069 69.4263C54.9673 69.4363 54.8368 69.4989 54.7416 69.6014C54.6464 69.7039 54.5937 69.8387 54.5941 69.9786L54.7124 70.8069C51.5567 68.4401 48.0459 66.5467 44.6535 64.4955C43.7068 63.9038 42.8389 64.4166 42.4445 65.2055C39.2098 67.3356 36.843 70.7675 34.7129 73.9232C32.2047 77.6547 30.3258 81.7724 29.1509 86.1123C27.9675 90.4909 27.9675 95.1456 27.6914 99.603C27.4153 104.692 27.1392 109.78 26.9814 114.869C26.9025 116.289 28.4803 116.723 29.4665 116.131C36.2119 117.157 43.3517 115.303 50.0577 114.277C51.2411 114.119 53.0162 114.041 54.4363 113.567H54.7518C57.1581 112.739 60.1561 113.094 62.6806 113.015C62.748 113.023 62.8162 113.017 62.8814 112.999C62.9466 112.98 63.0075 112.949 63.0606 112.907C63.1137 112.864 63.158 112.812 63.1909 112.753C63.2239 112.694 63.2448 112.629 63.2526 112.561C63.2604 112.494 63.2548 112.426 63.2362 112.361C63.2176 112.295 63.1864 112.234 63.1443 112.181C63.1021 112.128 63.05 112.084 62.9907 112.051C62.9315 112.018 62.8663 111.997 62.799 111.989C61.3789 111.437 59.801 111.398 58.4993 110.609C57.8681 110.254 57.1186 109.662 56.3297 109.386C55.8683 108.964 55.3335 108.629 54.7518 108.4C54.1497 108.114 53.5696 107.785 53.0162 107.413L52.8978 107.137C52.6703 106.792 52.4199 106.463 52.1484 106.151L48.9532 101.93C54.4363 96.684 60.0377 91.5165 66.7042 87.8479H66.7436L67.3748 87.5323C68.4793 88.0846 70.1755 87.2562 69.6627 85.7572ZM46.113 70.018C46.0341 69.7813 46.2313 69.8602 46.1525 70.1364C46.0736 70.4125 46.113 70.0574 46.113 70.018Z" fill="#80A5AE"/>
<path d="M66.8227 82.0492C60.9846 85.8755 52.2274 86.5461 49.1111 93.686C48.7955 94.396 49.8211 94.9877 50.1367 94.2777C53.1347 87.4139 61.7735 86.7828 67.4144 83.0748C68.085 82.6409 67.4933 81.6153 66.8227 82.0492Z" fill="#CBC7DB"/>
<path d="M54.0816 65.7577C54.2394 66.1522 54.7522 68.4401 54.3972 68.7951C54.0422 69.1501 51.4781 67.5328 50.9259 67.2172C48.6379 65.9287 46.3106 64.7452 43.9438 63.667C42.9182 63.1542 42.0109 64.6926 43.076 65.166C45.0878 66.1127 47.0995 67.0989 49.0324 68.2034C50.9653 69.3079 52.3854 70.728 54.0816 70.9252C56.8429 71.2803 56.3301 66.8228 55.7778 65.2843C55.2256 63.7459 53.6871 64.6532 54.0816 65.7577Z" fill="#CBC7DB"/>
<path d="M54.042 65.3628C54.2013 65.4385 54.3744 65.4811 54.5507 65.4878C54.7271 65.4946 54.9029 65.4655 55.0676 65.4022C55.3894 65.3013 55.7055 65.1828 56.0143 65.0472C56.1447 64.9587 56.2372 64.8246 56.2737 64.6713C56.3102 64.518 56.288 64.3566 56.2116 64.2188C56.1711 64.1504 56.1173 64.0908 56.0533 64.0437C55.9894 63.9965 55.9165 63.9627 55.8392 63.9443C55.7619 63.9259 55.6817 63.9233 55.6033 63.9365C55.525 63.9498 55.4501 63.9788 55.3832 64.0216C55.0831 64.1955 54.7438 64.2905 54.397 64.2977L54.6731 64.3766H54.6337C54.4972 64.3058 54.3385 64.291 54.1913 64.3351C54.044 64.3793 53.9197 64.4791 53.8448 64.6133C53.8027 64.6771 53.7744 64.749 53.7615 64.8244C53.7487 64.8997 53.7516 64.9769 53.7701 65.0511C53.7887 65.1252 53.8224 65.1947 53.8692 65.2552C53.916 65.3156 53.9748 65.3657 54.042 65.4022V65.3628Z" fill="#090909"/>
<path d="M48.48 64.1011C49.2755 64.605 50.1837 64.9032 51.123 64.969C51.8724 65.0084 51.8724 63.825 51.123 63.7856C50.3934 63.711 49.6913 63.4679 49.0717 63.0755C48.4012 62.6416 47.8095 63.6672 48.48 64.1011Z" fill="#090909"/>
<path d="M42.0108 73.4497C39.0129 76.921 35.9755 83.3113 38.7368 87.7294C39.1312 88.3605 40.1568 87.7688 39.7624 87.1377C37.3167 83.193 40.1963 77.3549 42.8392 74.278C43.352 73.6863 42.5236 72.858 42.0108 73.4497Z" fill="#090909"/>
<path d="M39.8017 89.9778C39.9586 89.9778 40.1091 89.9155 40.22 89.8045C40.331 89.6936 40.3934 89.5431 40.3934 89.3861C40.3934 89.2292 40.331 89.0787 40.22 88.9677C40.1091 88.8568 39.9586 88.7944 39.8017 88.7944C39.6447 88.7944 39.4942 88.8568 39.3833 88.9677C39.2723 89.0787 39.21 89.2292 39.21 89.3861C39.21 89.5431 39.2723 89.6936 39.3833 89.8045C39.4942 89.9155 39.6447 89.9778 39.8017 89.9778Z" fill="#090909"/>
<path d="M44.1801 51.4387C44.4562 50.5709 45.2452 49.9398 45.6002 49.1508C45.9552 48.3619 45.8369 48.3224 46.2314 48.0069C46.6258 47.6913 46.9414 47.573 47.2964 47.2968C47.6514 47.0207 47.0203 45.9557 46.4286 46.4685C45.8369 46.9813 45.6002 46.9418 45.2452 47.2574C44.9601 47.5924 44.7454 47.9815 44.614 48.4013C44.2196 49.3875 43.3912 50.0976 43.0362 51.1232C42.6811 52.1488 43.9434 52.1488 44.1801 51.4387Z" fill="#090909"/>
<path d="M42.5236 62.681C42.6805 62.681 42.831 62.6186 42.942 62.5077C43.0529 62.3967 43.1153 62.2462 43.1153 62.0893C43.1153 61.9323 43.0529 61.7818 42.942 61.6709C42.831 61.5599 42.6805 61.4976 42.5236 61.4976C42.3667 61.4976 42.2162 61.5599 42.1052 61.6709C41.9942 61.7818 41.9319 61.9323 41.9319 62.0893C41.9319 62.2462 41.9942 62.3967 42.1052 62.5077C42.2162 62.6186 42.3667 62.681 42.5236 62.681Z" fill="#090909"/>
<path d="M42.6024 56.8033C42.7594 56.8033 42.9099 56.7409 43.0208 56.63C43.1318 56.519 43.1941 56.3685 43.1941 56.2116C43.1941 56.0546 43.1318 55.9042 43.0208 55.7932C42.9099 55.6822 42.7594 55.6199 42.6024 55.6199C42.4455 55.6199 42.295 55.6822 42.184 55.7932C42.0731 55.9042 42.0107 56.0546 42.0107 56.2116C42.0107 56.3685 42.0731 56.519 42.184 56.63C42.295 56.7409 42.4455 56.8033 42.6024 56.8033Z" fill="#090909"/>
<path d="M158.3 94.9879C158.208 94.8778 158.093 94.7891 157.964 94.7277C157.835 94.6664 157.693 94.6341 157.55 94.6329H109.622C109.46 94.6312 109.299 94.6683 109.154 94.7409C109.008 94.8136 108.882 94.9199 108.786 95.0509C108.689 95.1819 108.626 95.3339 108.6 95.4944C108.574 95.6549 108.586 95.8193 108.636 95.9741C107.058 96.6052 105.481 97.2363 103.863 97.7886C99.8397 98.6959 95.6188 98.8142 91.7531 100.313C88.9432 101.414 86.2801 102.859 83.8243 104.613C82.8776 105.323 82.4042 106.309 81.418 106.901L80.8658 107.177C79.9191 107.611 79.0118 107.848 78.1834 108.558C77.4783 108.798 76.7517 108.969 76.0138 109.07C75.821 109.088 75.6405 109.173 75.5035 109.31C75.3666 109.446 75.282 109.627 75.2644 109.82H74.1598C73.8878 109.82 73.6269 109.928 73.4346 110.12C73.2423 110.313 73.1342 110.573 73.1342 110.845H71.3591C71.2425 110.877 71.1396 110.947 71.0662 111.043C70.9929 111.139 70.9531 111.257 70.9531 111.378C70.9531 111.499 70.9929 111.617 71.0662 111.713C71.1396 111.809 71.2425 111.879 71.3591 111.911H73.8442L74.1598 111.989C97.0652 111.884 119.984 111.897 142.915 112.029L143.389 111.95C143.677 112.039 143.989 112.011 144.257 111.871C146.584 110.53 148.596 108.439 150.529 106.427L150.647 106.309L152.028 104.889C154.583 102.307 156.894 99.4947 158.931 96.4868C159.017 96.3521 159.07 96.1983 159.084 96.0388C159.097 95.8792 159.072 95.7188 159.01 95.5712C158.948 95.4236 158.851 95.2934 158.727 95.1917C158.603 95.0901 158.457 95.0201 158.3 94.9879ZM80.7869 109.82L81.063 109.662C81.063 109.741 81.063 109.78 81.1024 109.82H80.7869ZM156.012 96.9208L155.933 96.763H156.13L156.012 96.9208Z" fill="#CBC7DB"/>
<path d="M65.2843 112.857L63.9431 112.778C55.2254 111.989 47.3361 100.747 46.4682 99.445C46.4081 99.3597 46.3654 99.2634 46.3428 99.1615C46.3201 99.0596 46.3179 98.9543 46.3363 98.8516C46.3546 98.7489 46.3932 98.6508 46.4497 98.563C46.5062 98.4753 46.5795 98.3997 46.6655 98.3405C46.8407 98.2288 47.0516 98.1871 47.2562 98.2236C47.4608 98.2602 47.6442 98.3723 47.77 98.5377C48.0855 99.0505 55.9749 110.49 64.1009 111.2C68.0456 111.555 71.2408 110.135 76.5266 107.729C79.4928 106.377 82.3201 104.738 84.9682 102.837C87.1091 101.26 89.4097 99.9113 91.832 98.8138C93.4887 98.1038 95.3822 97.8671 97.5517 97.591C100.846 97.2512 104.098 96.5771 107.256 95.5792L107.611 95.5003H107.966C108.242 95.1058 107.177 92.5813 105.086 90.0961C101.654 85.9937 96.6839 84.7708 94.8299 84.2974C82.3253 81.2206 70.6885 87.0982 68.5189 88.321C68.4265 88.3761 68.3238 88.4116 68.2171 88.4255C68.1104 88.4394 68.002 88.4313 67.8985 88.4017C67.7951 88.3722 67.6988 88.3218 67.6155 88.2536C67.5323 88.1855 67.4638 88.101 67.4144 88.0054C67.3258 87.8204 67.3089 87.6089 67.3673 87.4122C67.4256 87.2154 67.5548 87.0473 67.73 86.9404C70.0179 85.6781 82.1281 79.5244 95.2244 82.759C97.1967 83.2718 102.561 84.613 106.309 89.1099C106.782 89.6622 110.806 94.5536 109.149 96.5259C108.967 96.7185 108.746 96.8706 108.502 96.9725C108.257 97.0744 107.994 97.1239 107.729 97.1176H107.69C104.456 98.1448 101.125 98.8323 97.749 99.1689C95.6188 99.445 93.9226 99.6422 92.5025 100.313C90.1618 101.361 87.94 102.657 85.8755 104.179C83.1411 106.131 80.2211 107.809 77.1578 109.188C72.2269 111.397 69.0317 112.857 65.2843 112.857Z" fill="#090909"/>
<path d="M27.1393 145.124C30.0189 145.046 32.8591 145.046 35.6993 145.085C35.8562 145.085 36.0067 145.023 36.1176 144.912C36.2286 144.801 36.291 144.65 36.291 144.493C36.291 144.336 36.2286 144.186 36.1176 144.075C36.0067 143.964 35.8562 143.902 35.6993 143.902C32.8591 143.862 30.0189 143.862 27.1393 143.941C26.9824 143.941 26.8319 144.003 26.7209 144.114C26.6099 144.225 26.5476 144.376 26.5476 144.533C26.5476 144.69 26.6099 144.84 26.7209 144.951C26.8319 145.062 26.9824 145.124 27.1393 145.124Z" fill="#090909"/>
<path d="M38.8944 145.203H41.7741C41.931 145.203 42.0815 145.141 42.1924 145.03C42.3034 144.919 42.3658 144.769 42.3658 144.612C42.3658 144.455 42.3034 144.304 42.1924 144.193C42.0815 144.082 41.931 144.02 41.7741 144.02H38.8944C38.7375 144.02 38.587 144.082 38.4761 144.193C38.3651 144.304 38.3027 144.455 38.3027 144.612C38.3027 144.769 38.3651 144.919 38.4761 145.03C38.587 145.141 38.7375 145.203 38.8944 145.203Z" fill="#090909"/>
<path d="M26.7448 144.217C26.3503 144.69 26.3898 145.282 26.3898 145.874V148.24C26.3898 148.397 26.4521 148.548 26.5631 148.659C26.674 148.77 26.8245 148.832 26.9815 148.832C27.1384 148.832 27.2889 148.77 27.3998 148.659C27.5108 148.548 27.5732 148.397 27.5732 148.24V146.465C27.5732 145.953 27.4154 145.242 27.7704 144.809C28.1254 144.375 27.1787 143.586 26.7448 144.217Z" fill="#090909"/>
<path d="M45.8046 152.843L42.6489 152.86L42.8383 189.02L45.994 189.004L45.8046 152.843Z" fill="#090909"/>
<path d="M44.4169 188.595C44.5738 188.595 44.7243 188.532 44.8353 188.421C44.9463 188.31 45.0086 188.16 45.0086 188.003C45.0086 187.846 44.9463 187.695 44.8353 187.584C44.7243 187.473 44.5738 187.411 44.4169 187.411C44.26 187.411 44.1095 187.473 43.9985 187.584C43.8876 187.695 43.8252 187.846 43.8252 188.003C43.8252 188.16 43.8876 188.31 43.9985 188.421C44.1095 188.532 44.26 188.595 44.4169 188.595Z" fill="#090909"/>
<path d="M28.6382 195.34C33.1352 193.013 38.8155 191.987 43.8647 191.908C48.9139 191.829 54.3575 193.21 58.7755 195.38C61.4974 196.721 63.9036 192.658 61.1818 191.317C50.4917 185.991 36.9615 185.755 26.232 191.238C23.5496 192.618 25.9164 196.721 28.6382 195.34Z" fill="#090909"/>
<path d="M31.0446 198.772C34.082 198.772 34.082 194.039 31.0446 194.039C28.0073 194.039 28.0073 198.772 31.0446 198.772Z" fill="#090909"/>
<path d="M56.4877 199.087C59.5251 199.087 59.5251 194.354 56.4877 194.354C53.4503 194.354 53.4108 199.087 56.4877 199.087Z" fill="#090909"/>
<path d="M43.6674 197.392C46.7048 197.392 46.7442 192.658 43.6674 192.658C40.5905 192.658 40.63 197.392 43.6674 197.392Z" fill="#090909"/>
<path d="M95.737 126.032C100.55 134.75 97.7883 145.637 96.4076 154.907C94.9481 164.966 93.1336 174.986 89.465 184.532C89.1889 185.242 90.3328 185.557 90.6089 184.847C94.5536 174.631 96.3287 163.822 97.8672 153.014C99.1689 143.98 101.417 133.882 96.7627 125.44C96.4077 124.77 95.382 125.362 95.737 126.032Z" fill="#090909"/>
<path d="M67.2174 182.007C66.4528 164.796 67.2715 147.551 69.6631 130.49C69.7814 129.74 68.6375 129.425 68.5191 130.174C66.0948 147.338 65.2628 164.69 66.034 182.007C66.0734 182.757 67.2568 182.757 67.2174 182.007Z" fill="#090909"/>
<path d="M66.1521 181.455C65.2448 183.309 64.1798 186.819 66.6649 187.924C69.1501 189.028 73.8837 188.555 76.9211 188.082C79.0533 187.759 81.2228 187.773 83.3509 188.121C85.0077 188.397 86.7038 188.752 88.4001 188.634C89.189 188.594 90.4513 188.594 91.0035 187.963C91.5558 187.332 90.6485 185.754 90.6091 184.689C90.6091 184.532 90.5467 184.382 90.4358 184.271C90.3248 184.16 90.1743 184.098 90.0174 184.098C89.8604 184.098 89.7099 184.16 89.599 184.271C89.488 184.382 89.4257 184.532 89.4257 184.689C89.4651 185.281 89.8202 185.754 89.8596 186.307C89.978 188.082 86.98 187.49 85.836 187.332C83.6665 187.056 81.4969 186.504 79.2879 186.622C77.0789 186.74 74.5937 187.332 72.148 187.372C71.0041 187.372 68.8739 187.529 67.8483 187.017C65.7577 185.951 66.3493 183.782 67.1777 182.046C67.5327 181.376 66.5071 180.745 66.1521 181.455Z" fill="#090909"/>
<path d="M67.7695 188.043L67.3356 196.8C67.3196 197.069 67.357 197.339 67.4455 197.594C67.5341 197.849 67.6721 198.084 67.8517 198.286C68.0313 198.488 68.2488 198.652 68.492 198.769C68.7351 198.886 68.999 198.954 69.2685 198.969L88.6368 199.995C89.0427 200.017 89.4416 199.882 89.7503 199.618C90.0589 199.353 90.2536 198.98 90.2936 198.575C90.6881 192.895 88.8341 188.003 83.0749 187.688L67.7695 188.043Z" fill="#090909"/>
<path d="M67.2173 198.535C68.4402 197.312 70.5308 198.969 71.8326 199.048C73.1343 199.127 73.4105 198.693 74.2783 198.456C76.724 197.786 78.4202 199.442 80.7475 199.363C81.5898 199.315 82.4237 199.169 83.2327 198.93C84.8894 198.535 85.9545 198.456 87.5718 199.127C89.1891 199.797 89.3469 199.876 90.6487 199.245C91.9504 198.614 90.7275 197.746 89.9386 198.101C89.1497 198.456 88.5185 198.022 87.5324 197.628C86.6748 197.262 85.7367 197.126 84.8105 197.233C83.8638 197.352 82.9566 197.667 82.0098 197.825C80.3925 198.18 79.3669 197.667 77.9074 197.194C76.9603 196.919 75.9673 196.838 74.9883 196.957C73.8049 197.115 72.6609 197.825 71.4381 197.628C69.5052 197.273 67.9668 195.892 66.2706 197.588C65.6789 198.219 66.6256 199.166 67.2173 198.535Z" fill="#F5F3F0"/>
<path d="M78.3412 195.459L83.5482 192.027L82.5621 191.435C82.5226 192.579 82.1676 194.276 82.5621 195.419C82.5849 195.505 82.6245 195.586 82.6786 195.656C82.7328 195.726 82.8003 195.785 82.8774 195.829C82.9544 195.873 83.0394 195.902 83.1275 195.912C83.2156 195.923 83.3049 195.917 83.3904 195.893C84.4949 195.656 85.56 194.631 86.5067 194.039C87.4534 193.447 88.6763 192.737 89.5441 191.751C90.4119 190.765 89.1496 190.134 88.5579 190.804C87.9662 191.475 86.8223 192.264 85.8361 192.895C84.8499 193.526 83.9427 194.394 83.0354 194.591L83.8638 195.064C83.5087 194.078 83.8638 192.461 83.9032 191.435C83.9074 191.314 83.8784 191.193 83.8194 191.087C83.7604 190.981 83.6735 190.892 83.5682 190.831C83.4628 190.771 83.3428 190.74 83.2212 190.742C83.0995 190.744 82.9808 190.779 82.8776 190.844L77.6706 194.315C76.9606 194.788 77.6312 195.972 78.3412 195.459Z" fill="#F5F3F0"/>
<path d="M73.0948 176.524V173.447C73.0948 173.29 73.0324 173.139 72.9215 173.029C72.8105 172.918 72.66 172.855 72.5031 172.855C72.3461 172.855 72.1956 172.918 72.0847 173.029C71.9737 173.139 71.9114 173.29 71.9114 173.447V176.524C71.9114 176.681 71.9737 176.831 72.0847 176.942C72.1956 177.053 72.3461 177.115 72.5031 177.115C72.66 177.115 72.8105 177.053 72.9215 176.942C73.0324 176.831 73.0948 176.681 73.0948 176.524Z" fill="#CBC7DB"/>
<path d="M30.0585 118.616C31.8415 125.032 35.8923 130.582 41.4586 134.237C48.204 138.655 56.3694 139.207 64.2193 138.734C64.9688 138.655 64.9688 137.471 64.2193 137.55C56.7639 137.984 49.0323 137.59 42.5236 133.527C36.9901 130.033 32.9545 124.606 31.2024 118.3C31.1606 118.149 31.0602 118.02 30.9233 117.942C30.7865 117.864 30.6244 117.844 30.4727 117.886C30.321 117.928 30.1921 118.028 30.1144 118.165C30.0368 118.302 30.0166 118.464 30.0585 118.616Z" fill="#CBC7DB"/>
<path d="M42.0109 120.786C44.7721 123.468 48.0462 125.125 51.6753 126.387C55.3044 127.649 59.8802 129.188 64.1799 129.306C64.9294 129.346 64.9294 128.162 64.1799 128.123C60.1958 128.044 56.4089 126.703 52.6615 125.48C48.914 124.257 45.64 122.679 42.8787 119.957C42.3264 119.405 41.4586 120.273 42.0109 120.786Z" fill="#CBC7DB"/>
<path d="M55.8959 118.813C64.3375 119.287 72.8054 119.392 81.2996 119.129C82.0491 119.089 82.0491 117.906 81.2996 117.945C72.8317 118.235 64.3638 118.13 55.8959 117.63C55.107 117.59 55.107 118.774 55.8959 118.813Z" fill="#CBC7DB"/>
<path d="M90.7274 126.269C91.3401 127.667 92.0657 129.012 92.897 130.293C93.2914 130.924 94.3171 130.332 93.9226 129.701C93.1074 128.411 92.3825 127.067 91.753 125.677C91.4769 124.967 90.4513 125.559 90.7274 126.269Z" fill="#CBC7DB"/>
<path d="M92.8577 134.75C93.3706 141.417 92.1477 147.965 91.1615 154.513C90.1753 161.061 89.4653 166.978 88.9131 173.25C88.8736 174 90.057 174 90.0965 173.25C90.6882 166.584 91.5165 159.917 92.5422 153.29C93.5678 146.663 94.5145 140.983 94.0411 134.75C94.0017 134.001 92.8183 134.001 92.8577 134.75Z" fill="#CBC7DB"/>
<path d="M82.7986 132.66C83.5087 139.839 82.7986 146.979 81.8519 154.119C80.9052 161.258 79.9584 168.438 78.9723 175.617C78.8934 176.366 80.0768 176.327 80.1557 175.617C81.1418 168.438 82.128 161.258 83.0353 154.119C83.9426 146.979 84.6921 139.839 83.982 132.66C83.9031 131.91 82.7197 131.871 82.7986 132.66Z" fill="#CBC7DB"/>
<path d="M75.935 129.267C73.292 141.298 72.8187 153.645 72.3848 165.952C72.3848 166.109 72.4471 166.26 72.5581 166.371C72.669 166.482 72.8195 166.544 72.9765 166.544C73.1334 166.544 73.2839 166.482 73.3949 166.371C73.5058 166.26 73.5682 166.109 73.5682 165.952C74.0021 153.763 74.4755 141.535 77.0789 129.582C77.2367 128.833 76.0928 128.517 75.935 129.267Z" fill="#CBC7DB"/>
<path d="M98.9324 137.117C99.0902 139.957 100.55 142.363 101.299 145.085C102.049 147.807 102.167 151.002 102.719 153.921C103.824 159.877 106.072 165.597 108.4 171.199C109.544 173.96 110.727 176.761 111.753 179.601C112.265 181.06 112.739 182.599 113.133 184.137C113.528 185.676 113.843 186.109 112.384 186.78C111.831 187.056 110.688 186.819 110.056 186.859L90.0963 187.372C89.9394 187.372 89.7889 187.434 89.6779 187.545C89.567 187.656 89.5046 187.806 89.5046 187.963C89.5046 188.12 89.567 188.271 89.6779 188.382C89.7889 188.493 89.9394 188.555 90.0963 188.555C97.2756 188.358 104.415 188.24 111.595 188.003C113.646 187.924 114.869 187.49 114.553 185.242C114.119 181.889 112.699 178.615 111.437 175.538C108.952 169.345 106.151 163.23 104.534 156.722C103.705 153.487 103.469 150.173 102.877 146.86C102.285 143.546 100.313 140.509 100.116 137.117C100.037 136.328 98.8535 136.328 98.9324 137.117Z" fill="#090909"/>
<path d="M97.3939 155.459C98.6167 159.562 99.6818 163.704 101.102 167.767C102.522 171.83 105.244 174.709 105.599 178.614C105.638 179.364 106.822 179.403 106.782 178.614C106.427 174.709 103.784 171.711 102.443 168.122C100.905 163.901 99.8001 159.443 98.5378 155.144C98.3012 154.394 97.1572 154.71 97.3939 155.459Z" fill="#CBC7DB"/>
<path d="M96.1316 170.41C96.5261 171.988 97.4333 173.211 98.3012 174.591C99.5635 176.603 99.8791 178.773 100.155 181.139C100.234 181.889 101.417 181.889 101.339 181.139C101.102 179.285 100.944 177.392 100.195 175.656C99.4451 173.921 97.7884 172.185 97.2756 170.094C97.1178 169.384 95.9738 169.7 96.1316 170.41Z" fill="#CBC7DB"/>
<path d="M68.6372 183.23C70.1671 182.908 71.7289 182.762 73.2919 182.796C73.4488 182.796 73.5994 182.734 73.7103 182.623C73.8213 182.512 73.8836 182.361 73.8836 182.204C73.8836 182.047 73.8213 181.897 73.7103 181.786C73.5994 181.675 73.4488 181.613 73.2919 181.613C71.6222 181.57 69.9534 181.729 68.3216 182.086C67.5721 182.244 67.8877 183.388 68.6372 183.23Z" fill="#090909"/>
<path d="M76.6844 183.309C77.3983 183.263 78.1152 183.316 78.8146 183.467C78.9663 183.509 79.1284 183.489 79.2652 183.411C79.4021 183.333 79.5025 183.204 79.5443 183.053C79.5862 182.901 79.566 182.739 79.4884 182.602C79.4107 182.465 79.2818 182.365 79.1301 182.323C78.332 182.119 77.5049 182.052 76.6844 182.126C75.9349 182.205 75.8955 183.388 76.6844 183.309Z" fill="#090909"/>
<path d="M102.167 184.256C105.204 184.413 108.202 182.796 110.963 181.691C111.674 181.415 111.358 180.271 110.648 180.548C108.005 181.613 105.086 183.23 102.167 183.072C101.378 183.033 101.417 184.216 102.167 184.256Z" fill="#090909"/>
<path d="M93.4097 188.043L92.9758 196.8C92.9598 197.069 92.9971 197.339 93.0857 197.594C93.1743 197.849 93.3123 198.084 93.4918 198.286C93.6714 198.488 93.889 198.652 94.1321 198.769C94.3752 198.886 94.6391 198.954 94.9087 198.969L114.277 199.995C114.479 200.011 114.682 199.987 114.875 199.925C115.068 199.862 115.247 199.762 115.401 199.63C115.555 199.498 115.681 199.337 115.773 199.156C115.864 198.975 115.919 198.777 115.934 198.575C116.328 192.895 114.474 188.003 108.715 187.688L93.4097 188.043Z" fill="#090909"/>
<path d="M92.8577 198.535C94.12 197.312 96.1712 198.969 97.5124 199.048C98.8536 199.127 99.0508 198.693 99.9187 198.456C102.364 197.786 104.061 199.442 106.388 199.363C107.23 199.315 108.064 199.169 108.873 198.93C110.569 198.535 111.634 198.456 113.212 199.127C114.79 199.797 114.987 199.876 116.289 199.245C117.591 198.614 116.368 197.746 115.579 198.101C114.79 198.456 114.159 198.022 113.173 197.628C112.316 197.258 111.377 197.122 110.451 197.233C109.504 197.352 108.597 197.667 107.65 197.825C106.033 198.18 105.047 197.667 103.548 197.194C102.601 196.919 101.608 196.838 100.629 196.957C99.4453 197.115 98.3013 197.825 97.0785 197.628C95.1456 197.273 93.6072 195.892 91.911 197.588C91.3193 198.219 92.266 199.166 92.8577 198.535Z" fill="#F5F3F0"/>
<path d="M103.981 195.459L109.188 192.027L108.202 191.435C108.163 192.579 107.808 194.276 108.202 195.419C108.225 195.505 108.265 195.586 108.319 195.656C108.373 195.726 108.44 195.785 108.517 195.829C108.595 195.873 108.68 195.902 108.768 195.912C108.856 195.923 108.945 195.917 109.031 195.893C110.135 195.656 111.2 194.631 112.147 194.039C113.094 193.447 114.316 192.737 115.184 191.751C116.052 190.765 114.79 190.134 114.238 190.804C113.685 191.475 112.462 192.264 111.476 192.895C110.49 193.526 109.583 194.394 108.676 194.591L109.504 195.064C109.149 194.078 109.504 192.461 109.543 191.435C109.548 191.314 109.519 191.193 109.46 191.087C109.401 190.981 109.314 190.892 109.208 190.831C109.103 190.771 108.983 190.74 108.861 190.742C108.74 190.744 108.621 190.779 108.518 190.844L103.311 194.315C102.601 194.788 103.271 195.972 103.981 195.459Z" fill="#F5F3F0"/>
<path d="M137.117 91.0434H134.158C130.687 85.5208 127.242 79.9851 123.823 74.4363C123.582 74.0172 123.199 73.6989 122.742 73.5395C122.286 73.3802 121.787 73.3904 121.338 73.5685C120.588 73.3712 119.8 73.529 119.05 73.6079L115.184 73.9629C114.865 73.9882 114.556 74.0824 114.277 74.2391C113.764 73.2529 113.094 71.8722 113.015 71.2017C112.699 68.5193 108.399 68.4798 108.715 71.2017C109.031 73.9235 110.766 77.0003 112.226 79.4855L119.011 91.0434H112.186C109.425 91.0434 109.425 95.3036 112.186 95.3036H137.117C139.878 95.3036 139.878 91.0434 137.117 91.0434Z" fill="#80A5AE"/>
<path d="M140.706 75.8558H93.6465C93.0659 75.8515 92.4934 75.7176 91.971 75.4641C91.4486 75.2106 90.9892 74.8437 90.6265 74.3903C90.2637 73.9368 90.0067 73.4082 89.874 72.8428C89.7413 72.2775 89.7365 71.6897 89.8597 71.1222L96.2894 42.8784C96.4865 42.0229 96.9688 41.2601 97.6571 40.7152C98.3453 40.1703 99.1985 39.8759 100.076 39.8804H145.48C146.042 39.8786 146.597 39.9994 147.108 40.2344C147.619 40.4694 148.072 40.8129 148.436 41.241C148.8 41.6691 149.067 42.1715 149.217 42.7132C149.367 43.2549 149.398 43.8228 149.306 44.3773L144.533 72.6212C144.376 73.5235 143.906 74.3417 143.207 74.933C142.507 75.5243 141.622 75.8509 140.706 75.8558Z" fill="#80A5AE"/>
<path d="M146.071 44.2196C145.892 43.9334 145.642 43.6991 145.344 43.5399C145.046 43.3808 144.712 43.3023 144.375 43.3123H101.97C100.944 43.0362 99.7608 43.3912 99.4057 44.7324C97.3545 52.9373 95.7766 61.2211 94.2382 69.5049C94.1989 69.7002 94.1989 69.9013 94.2382 70.0966C94.0804 71.28 94.751 72.5423 96.25 72.5423L139.365 72.6606C141.022 72.6606 141.693 71.1617 141.338 69.8994C142.876 61.9706 144.612 54.0812 146.623 46.2313C146.733 45.8783 146.74 45.5011 146.642 45.1446C146.544 44.788 146.346 44.4669 146.071 44.2196Z" fill="#CBC7DB"/>
<path d="M101.733 49.1111H111.24C111.397 49.1111 111.547 49.0488 111.658 48.9378C111.769 48.8269 111.831 48.6764 111.831 48.5194C111.831 48.3625 111.769 48.212 111.658 48.1011C111.547 47.9901 111.397 47.9277 111.24 47.9277H101.733C101.576 47.9277 101.426 47.9901 101.315 48.1011C101.204 48.212 101.141 48.3625 101.141 48.5194C101.141 48.6764 101.204 48.8269 101.315 48.9378C101.426 49.0488 101.576 49.1111 101.733 49.1111Z" fill="#090909"/>
<path d="M106.349 53.056H113.843C114 53.056 114.151 52.9936 114.262 52.8827C114.373 52.7717 114.435 52.6212 114.435 52.4643C114.435 52.3073 114.373 52.1568 114.262 52.0459C114.151 51.9349 114 51.8726 113.843 51.8726H106.349C106.192 51.8726 106.041 51.9349 105.93 52.0459C105.819 52.1568 105.757 52.3073 105.757 52.4643C105.757 52.6212 105.819 52.7717 105.93 52.8827C106.041 52.9936 106.192 53.056 106.349 53.056Z" fill="#090909"/>
<path d="M110.648 66.7047C118.143 66.6258 125.677 66.7047 133.212 66.9414C133.961 66.9808 133.961 65.7974 133.212 65.758C125.677 65.5213 118.143 65.4424 110.648 65.5213C109.859 65.5607 109.859 66.7441 110.648 66.7047Z" fill="#090909"/>
<path d="M100.55 117.512L141.85 117.235C142.007 117.235 142.158 117.173 142.269 117.062C142.38 116.951 142.442 116.801 142.442 116.644C142.442 116.487 142.38 116.336 142.269 116.225C142.158 116.114 142.007 116.052 141.85 116.052L100.55 116.328C99.7608 116.368 99.7608 117.551 100.55 117.512Z" fill="#090909"/>
<path d="M158.615 96.0134C159.041 98.1692 159.135 100.378 158.891 102.562C158.813 103.311 159.996 103.311 160.075 102.562C160.345 100.272 160.238 97.9532 159.759 95.6978C159.601 94.9878 158.457 95.3034 158.615 96.0134Z" fill="#090909"/>
<path d="M158.773 102.64C156.288 106.703 153.881 111.832 149.937 114.711C149.306 115.145 149.897 116.171 150.529 115.737C154.71 112.739 157.195 107.492 159.799 103.232C159.837 103.165 159.863 103.09 159.873 103.013C159.883 102.936 159.878 102.858 159.857 102.783C159.837 102.708 159.803 102.637 159.755 102.576C159.708 102.514 159.649 102.462 159.582 102.423C159.514 102.385 159.44 102.359 159.363 102.349C159.286 102.339 159.207 102.344 159.132 102.364C159.057 102.385 158.987 102.419 158.925 102.467C158.863 102.514 158.812 102.573 158.773 102.64Z" fill="#090909"/>
<path d="M143.901 117.236C146.071 117.393 148.596 116.683 150.528 115.737C151.199 115.382 150.607 114.356 149.937 114.711C148.201 115.539 145.874 116.171 143.901 116.052C143.152 116.013 143.152 117.196 143.901 117.236Z" fill="#090909"/>
<path d="M91.8715 102.365L108.321 102.286C108.478 102.286 108.628 102.223 108.739 102.112C108.85 102.001 108.912 101.851 108.912 101.694C108.912 101.537 108.85 101.387 108.739 101.276C108.628 101.165 108.478 101.102 108.321 101.102L91.8715 101.181C91.7146 101.181 91.5641 101.244 91.4531 101.354C91.3421 101.465 91.2798 101.616 91.2798 101.773C91.2798 101.93 91.3421 102.08 91.4531 102.191C91.5641 102.302 91.7146 102.365 91.8715 102.365Z" fill="#F5F3F0"/>
<path d="M107.532 98.7354H108.952C109.741 98.7749 109.741 97.5914 108.952 97.552H107.532C107.378 97.5614 107.233 97.6267 107.124 97.7357C107.015 97.8447 106.949 97.9898 106.94 98.1437C106.94 98.3006 107.002 98.4511 107.113 98.5621C107.224 98.6731 107.375 98.7354 107.532 98.7354Z" fill="#F5F3F0"/>
<path d="M112.818 98.814H114.198C114.355 98.814 114.506 98.7517 114.617 98.6407C114.728 98.5297 114.79 98.3792 114.79 98.2223C114.79 98.0654 114.728 97.9149 114.617 97.8039C114.506 97.693 114.355 97.6306 114.198 97.6306H112.818C112.661 97.6306 112.51 97.693 112.399 97.8039C112.288 97.9149 112.226 98.0654 112.226 98.2223C112.226 98.3792 112.288 98.5297 112.399 98.6407C112.51 98.7517 112.661 98.814 112.818 98.814Z" fill="#F5F3F0"/>
<path d="M116.999 98.8138C117.469 98.7417 117.946 98.7284 118.419 98.7744C119.168 98.8138 119.168 97.6304 118.419 97.591C117.946 97.545 117.469 97.5583 116.999 97.6304C116.842 97.6304 116.691 97.6927 116.581 97.8037C116.47 97.9147 116.407 98.0652 116.407 98.2221C116.407 98.379 116.47 98.5295 116.581 98.6405C116.691 98.7515 116.842 98.8138 116.999 98.8138Z" fill="#F5F3F0"/>
<path d="M121.377 98.814H122.916C123.073 98.814 123.223 98.7517 123.334 98.6407C123.445 98.5297 123.507 98.3792 123.507 98.2223C123.507 98.0654 123.445 97.9149 123.334 97.8039C123.223 97.693 123.073 97.6306 122.916 97.6306H121.377C121.22 97.6306 121.07 97.693 120.959 97.8039C120.848 97.9149 120.786 98.0654 120.786 98.2223C120.786 98.3792 120.848 98.5297 120.959 98.6407C121.07 98.7517 121.22 98.814 121.377 98.814Z" fill="#F5F3F0"/>
<path d="M100.944 100.234H102.562C102.718 100.234 102.869 100.172 102.98 100.061C103.091 99.9497 103.153 99.7992 103.153 99.6422C103.153 99.4853 103.091 99.3348 102.98 99.2238C102.869 99.1129 102.718 99.0505 102.562 99.0505H100.944C100.787 99.0505 100.637 99.1129 100.526 99.2238C100.415 99.3348 100.353 99.4853 100.353 99.6422C100.353 99.7992 100.415 99.9497 100.526 100.061C100.637 100.172 100.787 100.234 100.944 100.234Z" fill="#F5F3F0"/>
<path d="M105.48 100.431H106.585C106.742 100.431 106.892 100.369 107.003 100.258C107.114 100.147 107.177 99.9964 107.177 99.8395C107.177 99.6826 107.114 99.5321 107.003 99.4211C106.892 99.3101 106.742 99.2478 106.585 99.2478H105.48C105.323 99.2478 105.173 99.3101 105.062 99.4211C104.951 99.5321 104.889 99.6826 104.889 99.8395C104.889 99.9964 104.951 100.147 105.062 100.258C105.173 100.369 105.323 100.431 105.48 100.431Z" fill="#F5F3F0"/>
<path d="M109.07 100.589H110.53C110.687 100.589 110.837 100.527 110.948 100.416C111.059 100.305 111.121 100.154 111.121 99.9975C111.121 99.8405 111.059 99.69 110.948 99.5791C110.837 99.4681 110.687 99.4058 110.53 99.4058H109.07C108.913 99.4058 108.763 99.4681 108.652 99.5791C108.541 99.69 108.479 99.8405 108.479 99.9975C108.479 100.154 108.541 100.305 108.652 100.416C108.763 100.527 108.913 100.589 109.07 100.589Z" fill="#F5F3F0"/>
<path d="M113.725 100.589H114.908C115.065 100.589 115.216 100.527 115.327 100.416C115.438 100.305 115.5 100.154 115.5 99.9975C115.5 99.8405 115.438 99.69 115.327 99.5791C115.216 99.4681 115.065 99.4058 114.908 99.4058H113.725C113.568 99.4058 113.418 99.4681 113.307 99.5791C113.196 99.69 113.133 99.8405 113.133 99.9975C113.133 100.154 113.196 100.305 113.307 100.416C113.418 100.527 113.568 100.589 113.725 100.589Z" fill="#F5F3F0"/>
<path d="M119.129 100.629H120.47C120.627 100.629 120.778 100.566 120.889 100.455C121 100.344 121.062 100.194 121.062 100.037C121.068 99.9576 121.057 99.8781 121.029 99.8036C121.001 99.7292 120.958 99.6615 120.902 99.6054C120.846 99.5492 120.778 99.5058 120.703 99.4782C120.629 99.4505 120.549 99.4392 120.47 99.4451H119.129C118.972 99.4451 118.822 99.5075 118.711 99.6184C118.6 99.7294 118.537 99.8799 118.537 100.037C118.537 100.194 118.6 100.344 118.711 100.455C118.822 100.566 118.972 100.629 119.129 100.629Z" fill="#F5F3F0"/>
<path d="M123.666 100.708C123.99 100.775 124.321 100.801 124.652 100.787C124.806 100.777 124.951 100.712 125.06 100.603C125.169 100.494 125.234 100.349 125.243 100.195C125.204 99.8793 124.967 99.5638 124.652 99.6032H123.981C123.906 99.5789 123.827 99.5699 123.748 99.5766C123.67 99.5834 123.593 99.6058 123.523 99.6426C123.453 99.6793 123.392 99.7297 123.342 99.7907C123.292 99.8517 123.254 99.922 123.232 99.9977C123.204 100.154 123.232 100.315 123.311 100.452C123.391 100.589 123.516 100.694 123.666 100.747V100.708Z" fill="#F5F3F0"/>
<path d="M232.972 74.0418L231.552 74.1207L229.619 74.239L232.893 44.1018L236.088 43.9045L232.972 74.0418Z" fill="#80A5AE"/>
<path d="M127.018 98.7747H128.399C128.556 98.7747 128.707 98.7124 128.817 98.6014C128.928 98.4904 128.991 98.3399 128.991 98.183C128.991 98.0261 128.928 97.8756 128.817 97.7646C128.707 97.6536 128.556 97.5913 128.399 97.5913H127.018C126.862 97.5913 126.711 97.6536 126.6 97.7646C126.489 97.8756 126.427 98.0261 126.427 98.183C126.427 98.3399 126.489 98.4904 126.6 98.6014C126.711 98.7124 126.862 98.7747 127.018 98.7747Z" fill="#F5F3F0"/>
<path d="M127.61 100.392L128.873 100.313C129.029 100.313 129.18 100.251 129.291 100.14C129.402 100.029 129.464 99.8785 129.464 99.7216C129.455 99.5677 129.39 99.4226 129.281 99.3136C129.172 99.2046 129.026 99.1392 128.873 99.1299L127.61 99.2088C127.456 99.2181 127.311 99.2835 127.202 99.3925C127.093 99.5015 127.028 99.6466 127.019 99.8005C127.019 99.9574 127.081 100.108 127.192 100.219C127.303 100.33 127.453 100.392 127.61 100.392Z" fill="#F5F3F0"/>
<path d="M116.92 74.8301C117.077 74.8301 117.228 74.7678 117.338 74.6568C117.449 74.5459 117.512 74.3954 117.512 74.2384C117.512 74.0815 117.449 73.931 117.338 73.82C117.228 73.7091 117.077 73.6467 116.92 73.6467C116.763 73.6467 116.613 73.7091 116.502 73.82C116.391 73.931 116.328 74.0815 116.328 74.2384C116.328 74.3954 116.391 74.5459 116.502 74.6568C116.613 74.7678 116.763 74.8301 116.92 74.8301Z" fill="#F5F3F0"/>
<path d="M120.115 74.8301H122.009C122.166 74.8301 122.316 74.7678 122.427 74.6568C122.538 74.5459 122.6 74.3954 122.6 74.2384C122.6 74.0815 122.538 73.931 122.427 73.82C122.316 73.7091 122.166 73.6467 122.009 73.6467H120.115C119.958 73.6467 119.808 73.7091 119.697 73.82C119.586 73.931 119.523 74.0815 119.523 74.2384C119.523 74.3954 119.586 74.5459 119.697 74.6568C119.808 74.7678 119.958 74.8301 120.115 74.8301Z" fill="#F5F3F0"/>
<path d="M123.665 79.0908C124.218 80.5898 125.204 81.6548 126.151 82.9171C127.097 84.1794 128.084 86.2701 128.951 88.0058C129.267 88.6764 130.293 88.0847 129.977 87.4141C129.227 85.9151 128.557 84.3372 127.65 82.9566C126.742 81.576 125.401 80.3926 124.809 78.7752C124.533 78.0652 123.389 78.3808 123.665 79.0908Z" fill="#F5F3F0"/>
<path d="M144.572 41.5771C145.182 41.6448 145.765 41.8644 146.268 42.2159C146.771 42.5674 147.178 43.0394 147.452 43.5889C147.807 44.2989 148.832 43.6678 148.477 42.9972C148.129 42.3125 147.621 41.722 146.996 41.2756C146.372 40.8292 145.648 40.5402 144.888 40.4331C144.138 40.3148 143.823 41.4588 144.572 41.5771Z" fill="#F5F3F0"/>
<path d="M139.642 41.419H141.614C141.771 41.419 141.921 41.3567 142.032 41.2457C142.143 41.1347 142.206 40.9842 142.206 40.8273C142.206 40.6704 142.143 40.5199 142.032 40.4089C141.921 40.298 141.771 40.2356 141.614 40.2356H139.642C139.485 40.2356 139.334 40.298 139.223 40.4089C139.112 40.5199 139.05 40.6704 139.05 40.8273C139.05 40.9842 139.112 41.1347 139.223 41.2457C139.334 41.3567 139.485 41.419 139.642 41.419Z" fill="#F5F3F0"/>
<path d="M139.326 100.431C139.483 100.431 139.633 100.369 139.744 100.258C139.855 100.147 139.917 99.9964 139.917 99.8395C139.917 99.6826 139.855 99.5321 139.744 99.4211C139.633 99.3101 139.483 99.2478 139.326 99.2478C139.169 99.2478 139.018 99.3101 138.907 99.4211C138.796 99.5321 138.734 99.6826 138.734 99.8395C138.734 99.9964 138.796 100.147 138.907 100.258C139.018 100.369 139.169 100.431 139.326 100.431Z" fill="#F5F3F0"/>
<path d="M128.044 105.914C128.201 105.914 128.352 105.852 128.462 105.741C128.573 105.63 128.636 105.48 128.636 105.323C128.636 105.166 128.573 105.015 128.462 104.904C128.352 104.793 128.201 104.731 128.044 104.731C127.887 104.731 127.737 104.793 127.626 104.904C127.515 105.015 127.452 105.166 127.452 105.323C127.452 105.48 127.515 105.63 127.626 105.741C127.737 105.852 127.887 105.914 128.044 105.914Z" fill="#F5F3F0"/>
<path d="M102.325 106.703C108.518 106.782 114.711 106.901 120.904 107.098C121.653 107.137 121.653 105.954 120.904 105.914C114.711 105.717 108.518 105.599 102.325 105.52C102.168 105.52 102.017 105.582 101.906 105.693C101.795 105.804 101.733 105.955 101.733 106.112C101.733 106.269 101.795 106.419 101.906 106.53C102.017 106.641 102.168 106.703 102.325 106.703Z" fill="#F5F3F0"/>
<path d="M122.443 107.216C122.904 107.316 123.385 107.274 123.823 107.098C123.967 107.052 124.088 106.954 124.162 106.821C124.235 106.689 124.255 106.534 124.218 106.388C124.172 106.244 124.073 106.123 123.941 106.05C123.809 105.976 123.654 105.956 123.508 105.994C123.268 106.079 123.011 106.106 122.758 106.073C122.602 106.036 122.437 106.06 122.297 106.141C122.158 106.221 122.055 106.352 122.009 106.506C121.985 106.582 121.978 106.661 121.987 106.739C121.997 106.818 122.023 106.893 122.064 106.96C122.106 107.027 122.161 107.085 122.226 107.129C122.291 107.173 122.365 107.203 122.443 107.216Z" fill="#F5F3F0"/>
<path d="M125.046 48.638H134.632C134.789 48.638 134.939 48.5756 135.05 48.4647C135.161 48.3537 135.223 48.2032 135.223 48.0463C135.223 47.8894 135.161 47.7389 135.05 47.6279C134.939 47.5169 134.789 47.4546 134.632 47.4546H125.046C124.889 47.4546 124.739 47.5169 124.628 47.6279C124.517 47.7389 124.454 47.8894 124.454 48.0463C124.454 48.2032 124.517 48.3537 124.628 48.4647C124.739 48.5756 124.889 48.638 125.046 48.638Z" fill="#F5F3F0"/>
<path d="M125.125 49.8216H133.33C133.487 49.8216 133.637 49.7592 133.748 49.6483C133.859 49.5373 133.922 49.3868 133.922 49.2299C133.922 49.073 133.859 48.9225 133.748 48.8115C133.637 48.7005 133.487 48.6382 133.33 48.6382H125.125C124.968 48.6382 124.817 48.7005 124.707 48.8115C124.596 48.9225 124.533 49.073 124.533 49.2299C124.533 49.3868 124.596 49.5373 124.707 49.6483C124.817 49.7592 124.968 49.8216 125.125 49.8216Z" fill="#F5F3F0"/>
<path d="M124.928 51.2805C126.269 51.2016 127.61 51.2016 128.951 51.2411C129.701 51.2805 129.701 50.0971 128.951 50.0577C127.61 50.0182 126.269 50.0182 124.928 50.0971C123.586 50.176 124.178 51.3199 124.928 51.2805Z" fill="#F5F3F0"/>
<path d="M108.833 96.723L136.88 96.8018C137.037 96.8018 137.187 96.7395 137.298 96.6285C137.409 96.5176 137.472 96.3671 137.472 96.2101C137.472 96.0532 137.409 95.9027 137.298 95.7917C137.187 95.6808 137.037 95.6184 136.88 95.6184L108.833 95.5396C108.676 95.5396 108.526 95.6019 108.415 95.7129C108.304 95.8238 108.242 95.9743 108.242 96.1313C108.242 96.2882 108.304 96.4387 108.415 96.5497C108.526 96.6606 108.676 96.723 108.833 96.723Z" fill="#090909"/>
<path d="M87.0194 103.903L115.027 104.021C115.184 104.021 115.334 103.959 115.445 103.848C115.556 103.737 115.618 103.586 115.618 103.43C115.618 103.273 115.556 103.122 115.445 103.011C115.334 102.9 115.184 102.838 115.027 102.838L87.0194 102.719C86.8625 102.719 86.712 102.782 86.601 102.893C86.4901 103.004 86.4277 103.154 86.4277 103.311C86.4277 103.468 86.4901 103.619 86.601 103.73C86.712 103.841 86.8625 103.903 87.0194 103.903Z" fill="#090909"/>
<path d="M120.825 104.336H125.243C125.4 104.336 125.551 104.274 125.662 104.163C125.773 104.052 125.835 103.902 125.835 103.745C125.835 103.588 125.773 103.437 125.662 103.326C125.551 103.215 125.4 103.153 125.243 103.153H120.825C120.668 103.153 120.518 103.215 120.407 103.326C120.296 103.437 120.234 103.588 120.234 103.745C120.234 103.902 120.296 104.052 120.407 104.163C120.518 104.274 120.668 104.336 120.825 104.336Z" fill="#090909"/>
<path d="M129.701 102.956C131.478 102.182 133.192 101.272 134.829 100.234C134.965 100.15 135.062 100.016 135.099 99.8607C135.136 99.7054 135.11 99.5417 135.026 99.4057C134.942 99.2697 134.808 99.1725 134.653 99.1355C134.497 99.0985 134.334 99.1248 134.198 99.2085C132.588 100.269 130.885 101.18 129.109 101.93C128.399 102.246 128.991 103.271 129.701 102.956Z" fill="#090909"/>
<path d="M128.202 103.508C128.359 103.508 128.509 103.446 128.62 103.335C128.731 103.224 128.794 103.074 128.794 102.917C128.794 102.76 128.731 102.609 128.62 102.498C128.509 102.387 128.359 102.325 128.202 102.325C128.045 102.325 127.894 102.387 127.783 102.498C127.672 102.609 127.61 102.76 127.61 102.917C127.61 103.074 127.672 103.224 127.783 103.335C127.894 103.446 128.045 103.508 128.202 103.508Z" fill="#090909"/>
<path d="M149.937 115.5L149.345 191.75C149.306 192.5 150.489 192.5 150.529 191.75L151.12 115.5C151.16 114.75 149.976 114.75 149.937 115.5Z" fill="#090909"/>
<path d="M143.27 193.762H146.387C146.544 193.762 146.694 193.7 146.805 193.589C146.916 193.478 146.978 193.327 146.978 193.17C146.978 193.013 146.916 192.863 146.805 192.752C146.694 192.641 146.544 192.579 146.387 192.579H143.27C143.113 192.579 142.963 192.641 142.852 192.752C142.741 192.863 142.679 193.013 142.679 193.17C142.679 193.327 142.741 193.478 142.852 193.589C142.963 193.7 143.113 193.762 143.27 193.762Z" fill="#090909"/>
<path d="M141.692 187.963C141.483 187.963 141.283 187.88 141.135 187.732C140.987 187.584 140.904 187.384 140.904 187.175V133.724C140.904 133.515 140.987 133.314 141.135 133.166C141.283 133.018 141.483 132.935 141.692 132.935C141.902 132.935 142.102 133.018 142.25 133.166C142.398 133.314 142.481 133.515 142.481 133.724V187.175C142.481 187.384 142.398 187.584 142.25 187.732C142.102 187.88 141.902 187.963 141.692 187.963Z" fill="#090909"/>
<path d="M140.825 189.147V191.79C140.825 191.947 140.887 192.097 140.998 192.208C141.109 192.319 141.259 192.382 141.416 192.382C141.573 192.382 141.724 192.319 141.835 192.208C141.946 192.097 142.008 191.947 142.008 191.79V189.147C142.008 188.99 141.946 188.839 141.835 188.728C141.724 188.618 141.573 188.555 141.416 188.555C141.259 188.555 141.109 188.618 140.998 188.728C140.887 188.839 140.825 188.99 140.825 189.147Z" fill="#090909"/>
<path d="M140.549 117.157V125.362C140.549 125.519 140.611 125.669 140.722 125.78C140.833 125.891 140.984 125.954 141.141 125.954C141.297 125.954 141.448 125.891 141.559 125.78C141.67 125.669 141.732 125.519 141.732 125.362V117.157C141.732 117 141.67 116.849 141.559 116.738C141.448 116.628 141.297 116.565 141.141 116.565C140.984 116.565 140.833 116.628 140.722 116.738C140.611 116.849 140.549 117 140.549 117.157Z" fill="#090909"/>
<path d="M253.563 31.4788C257.697 34.1219 261.308 37.5052 264.214 41.4588C265.95 43.865 274.667 55.7779 271.354 68.2036C267.488 82.6411 249.974 87.8875 243.228 89.8993C243.228 89.8993 227.529 95.1063 211.158 89.8993" fill="#F5F3F0"/>
<path d="M226.7 93.0153C221.353 93.0464 216.032 92.2615 210.922 90.688C210.718 90.6252 210.547 90.4839 210.447 90.2953C210.347 90.1066 210.326 89.8861 210.389 89.6821C210.452 89.4781 210.593 89.3073 210.782 89.2075C210.97 89.1076 211.191 89.0868 211.395 89.1495C227.331 94.1987 242.795 89.2284 242.952 89.1495C249.501 87.2166 266.857 82.0097 270.605 67.9667C272.656 60.2351 270.171 50.9651 263.583 41.9318C260.748 38.0397 257.201 34.7202 253.13 32.149C253.042 32.0967 252.966 32.0271 252.906 31.9443C252.846 31.8615 252.804 31.7673 252.781 31.6676C252.759 31.5678 252.758 31.4646 252.777 31.3642C252.796 31.2639 252.836 31.1685 252.893 31.084C253 30.9083 253.171 30.7812 253.369 30.7296C253.568 30.678 253.78 30.7061 253.958 30.8078C258.187 33.5103 261.889 36.9587 264.885 40.9851C271.748 50.4129 274.313 60.1562 272.104 68.4006C268.159 83.272 250.211 88.6367 243.426 90.688C237.982 92.2179 232.355 93.0009 226.7 93.0153Z" fill="#090909"/>
<path d="M228.042 75.4617C228.982 80.6552 228.955 85.9776 227.963 91.1615C227.805 91.9109 228.949 92.2265 229.107 91.477C230.119 86.0828 230.146 80.5498 229.185 75.1461C229.067 74.3966 227.923 74.7122 228.042 75.4617Z" fill="#090909"/>
<path d="M234.866 30.5709C229.738 32.2671 224.452 34.0816 220.665 38.1052C218.693 40.2353 217.075 42.6021 214.985 44.6533C212.951 46.6318 210.746 48.4271 208.397 50.0181C199.324 56.2507 188.91 60.1559 179.759 66.3096C179.128 66.7435 179.719 67.7691 180.39 67.3352C189.344 61.2999 199.561 57.3946 208.515 51.3593C212.779 48.5215 216.572 45.0344 219.758 41.0242C221.562 38.6576 223.83 36.6844 226.424 35.2256C229.185 33.6872 232.183 32.701 235.181 31.7148C235.891 31.4782 235.576 30.3342 234.866 30.5709Z" fill="#090909"/>
<path d="M179.601 67.0988C183.026 71.6569 184.768 77.2597 184.532 82.9563C184.532 83.1133 184.594 83.2637 184.705 83.3747C184.816 83.4857 184.967 83.548 185.123 83.548C185.28 83.548 185.431 83.4857 185.542 83.3747C185.653 83.2637 185.715 83.1133 185.715 82.9563C185.959 77.0514 184.162 71.2426 180.627 66.5071C180.193 65.9154 179.167 66.5071 179.601 67.0988Z" fill="#090909"/>
<path d="M236.483 72.0691C238.179 74.9487 239.323 77.8677 239.599 81.2601C239.875 84.6526 239.994 87.7689 239.047 90.5301C238.81 91.2402 239.954 91.5558 240.191 90.8457C241.256 87.7294 241.019 83.7453 240.704 80.5501C240.388 77.3549 239.165 74.3175 237.508 71.4379C237.425 71.3019 237.291 71.2047 237.135 71.1677C236.98 71.1308 236.816 71.157 236.68 71.2407C236.544 71.3244 236.447 71.4587 236.41 71.614C236.373 71.7694 236.399 71.9331 236.483 72.0691Z" fill="#090909"/>
<path d="M224.333 75.6986C223.9 69.111 223.742 62.4839 223.86 55.8963C223.9 55.1469 222.716 55.1469 222.677 55.8963C222.558 62.4839 222.716 69.111 223.15 75.6986C223.229 76.4481 224.412 76.4481 224.333 75.6986Z" fill="#090909"/>
<path d="M184.532 82.8778V84.9685C184.529 85.0614 184.547 85.1539 184.586 85.2383C184.625 85.3227 184.684 85.3968 184.757 85.4544C184.83 85.5121 184.915 85.5517 185.006 85.57C185.097 85.5884 185.192 85.585 185.281 85.5602C194.236 83.1934 202.283 78.4598 211.671 77.6708C212.421 77.5919 212.421 76.4085 211.671 76.4874C202.125 77.2764 194.039 82.0099 184.966 84.4162L185.715 84.9685V82.8778C185.755 82.1283 184.571 82.1283 184.532 82.8778Z" fill="#090909"/>
<path d="M186.346 63.5485C190.207 68.8975 192.477 75.2289 192.894 81.8124C192.934 82.5619 194.117 82.5619 194.078 81.8124C193.669 75.0199 191.344 68.4823 187.372 62.9568C186.938 62.3257 185.912 62.9174 186.346 63.5485Z" fill="#090909"/>
<path d="M216.247 74.4357C218.929 73.4889 221.257 71.6349 223.623 70.0965C223.691 70.0577 223.75 70.0059 223.797 69.9443C223.844 69.8826 223.879 69.8122 223.899 69.7371C223.919 69.662 223.925 69.5837 223.914 69.5066C223.904 69.4295 223.879 69.3552 223.84 69.2879C223.801 69.2205 223.75 69.1615 223.688 69.1142C223.626 69.0668 223.556 69.0321 223.481 69.0119C223.406 68.9918 223.328 68.9866 223.25 68.9967C223.173 69.0069 223.099 69.0321 223.032 69.0709C220.783 70.5305 218.456 72.3845 215.931 73.2917C215.221 73.5679 215.537 74.7118 216.247 74.4357Z" fill="#090909"/>
<path d="M234.55 30.9654C234.267 34.2664 234.753 37.5881 235.97 40.6693C236.089 40.9455 236.365 41.2216 236.68 41.1032C239.323 40.0776 241.493 38.4209 243.662 36.6852C245.832 34.9496 250.053 30.4132 253.287 32.07C253.958 32.425 254.55 31.3994 253.879 31.0443C251.039 29.5454 248.08 31.6755 245.832 33.4111C242.795 35.7385 240.033 38.5392 236.404 39.9593L237.114 40.3538C235.932 37.3737 235.46 34.1596 235.734 30.9654C235.773 30.2159 234.59 30.2159 234.55 30.9654Z" fill="#090909"/>
<path d="M255.457 32.5437C251.591 33.5299 248.277 36.0545 245.24 38.5396C242.203 41.0248 239.915 43.5493 238.889 47.139L239.875 46.8629C238.889 46.0903 238.069 45.1257 237.465 44.0274C236.862 42.929 236.487 41.7197 236.365 40.4725C236.325 39.723 235.142 39.723 235.181 40.4725C235.297 41.8762 235.701 43.2411 236.366 44.4827C237.03 45.7244 237.943 46.8164 239.047 47.6913C239.119 47.764 239.208 47.8171 239.306 47.8452C239.404 47.8734 239.508 47.8756 239.607 47.8518C239.706 47.8279 239.798 47.7789 239.872 47.7093C239.947 47.6397 240.002 47.5519 240.033 47.4546C240.98 44.0622 243.386 41.5376 246.068 39.368C248.751 37.1984 252.104 34.6344 255.772 33.6877C256.522 33.5299 256.206 32.3859 255.457 32.5437Z" fill="#090909"/>
<path d="M208.002 183.663C208.968 183.334 209.98 183.161 211 183.151C212.263 183.19 213.091 183.782 214.156 184.334C215.303 184.905 216.597 185.112 217.864 184.926C218.614 184.847 218.614 183.663 217.864 183.742C216.712 183.885 215.544 183.679 214.511 183.151C213.762 182.756 213.209 182.243 212.381 182.046C210.882 181.731 209.146 182.086 207.687 182.52C206.977 182.756 207.292 183.9 208.002 183.663Z" fill="#F5F3F0"/>
<path d="M222.44 185.794C223.097 186.028 223.798 186.109 224.491 186.031C224.648 186.031 224.799 185.968 224.91 185.857C225.021 185.746 225.083 185.596 225.083 185.439C225.083 185.282 225.021 185.132 224.91 185.021C224.799 184.91 224.648 184.847 224.491 184.847C223.905 184.919 223.311 184.852 222.756 184.65C222.046 184.374 221.73 185.518 222.44 185.794Z" fill="#F5F3F0"/>
<path d="M261.216 185.242C263.089 184.576 265.036 184.139 267.015 183.94C267.764 183.861 267.804 182.678 267.015 182.757C264.929 182.949 262.875 183.4 260.9 184.098C260.19 184.374 260.506 185.518 261.216 185.242Z" fill="#F5F3F0"/>
<path d="M271.551 183.072C271.708 183.072 271.859 183.01 271.97 182.899C272.081 182.788 272.143 182.637 272.143 182.48C272.143 182.323 272.081 182.173 271.97 182.062C271.859 181.951 271.708 181.889 271.551 181.889C271.394 181.889 271.244 181.951 271.133 182.062C271.022 182.173 270.959 182.323 270.959 182.48C270.959 182.637 271.022 182.788 271.133 182.899C271.244 183.01 271.394 183.072 271.551 183.072Z" fill="#F5F3F0"/>
<path d="M233.958 80.432C235.457 80.432 235.457 78.0652 233.958 78.0652C232.459 78.0652 232.42 80.432 233.958 80.432Z" fill="#CBC7DB"/>
<path d="M232.972 44.4962H236.01C236.055 44.4966 236.099 44.4873 236.14 44.4691C236.181 44.4508 236.218 44.424 236.248 44.3903C236.278 44.3567 236.3 44.3171 236.314 44.2741C236.327 44.2312 236.331 44.1858 236.325 44.1412L235.418 40.946H234.432L232.736 44.1412C232.713 44.1796 232.702 44.2236 232.703 44.2681C232.704 44.3127 232.718 44.3561 232.742 44.3932C232.767 44.4303 232.802 44.4596 232.843 44.4779C232.883 44.4961 232.928 44.5025 232.972 44.4962Z" fill="#80A5AE"/>
<path d="M233.603 31.0052C231.079 34.6737 230.842 39.0918 230.763 43.4309C230.751 43.5368 230.77 43.6438 230.818 43.7392C230.865 43.8346 230.939 43.9142 231.031 43.9684C231.123 44.0226 231.228 44.0491 231.335 44.0447C231.441 44.0403 231.544 44.0053 231.631 43.9437C233.25 42.9562 234.793 41.8486 236.246 40.6302C236.838 40.1568 236.01 39.3284 235.418 39.8018C234.033 40.942 232.57 41.9833 231.039 42.9181L231.947 43.4309C232.026 39.3284 232.223 35.1076 234.629 31.5969C235.063 30.9657 234.037 30.374 233.603 31.0052Z" fill="#090909"/>
<path d="M238.219 29.3093C234.235 28.9937 230.527 26.2325 230.408 21.9722C230.329 18.5009 232.459 15.5818 234.866 13.2939C234.94 13.1731 234.971 13.0308 234.954 12.8901C234.937 12.7493 234.874 12.6183 234.774 12.5181C234.673 12.4179 234.542 12.3543 234.402 12.3376C234.261 12.321 234.119 12.3521 233.998 12.4261C231.079 15.2663 228.594 19.0926 229.383 23.3528C230.172 27.6131 234.077 30.1377 238.219 30.4927C238.968 30.5322 238.968 29.3488 238.219 29.3093Z" fill="#090909"/>
<path d="M254.313 31.0837C254.037 30.7286 253.327 30.6497 252.972 30.5708C252.617 30.4919 251.078 30.1764 250.132 29.9791C249.185 29.7819 248.357 29.7819 247.686 29.4663C245.99 28.638 246.266 25.9556 246.818 24.4961C247.134 23.786 245.99 23.5099 245.714 24.1805C244.846 26.3106 244.964 29.9791 247.647 30.6497C248.712 30.9259 249.816 31.1231 250.921 31.3203C252.025 31.5176 253.327 31.7148 253.485 31.912C253.642 32.1093 254.786 31.6754 254.313 31.0837Z" fill="#090909"/>
<path d="M249.895 27.3366C250.605 26.0743 247.134 25.522 245.516 23.5103C242.4 19.5656 243.071 18.6189 241.098 16.4098C237.588 12.4257 234.195 13.9641 228.002 8.87551C226.424 7.57377 224.925 6.03537 224.61 3.8658C224.294 1.69623 225.083 0 225.399 0C225.714 0 225.517 0.749488 225.833 1.38064C226.779 3.31352 230.606 3.39242 232.736 3.5502C234.866 3.70799 240.27 3.98413 243.978 5.562C248.791 7.57378 252.341 12.4257 252.617 17.1199C252.854 20.4729 251.433 24.023 251.118 24.8514C250.757 25.7022 250.349 26.5319 249.895 27.3366Z" fill="#090909"/>
<path d="M243.07 19.6046C243.268 19.0523 243.741 18.8946 244.017 19.4468C244.256 19.8944 244.366 20.3999 244.333 20.9063C244.333 21.2613 244.333 21.1036 244.175 20.9063L243.781 20.3146C243.741 20.1963 243.702 19.8807 243.544 19.8807C243.386 19.8807 243.741 20.6302 243.741 20.7091C243.741 20.866 243.803 21.0165 243.914 21.1275C244.025 21.2385 244.176 21.3008 244.333 21.3008C244.49 21.3008 244.64 21.2385 244.751 21.1275C244.862 21.0165 244.925 20.866 244.925 20.7091C244.925 19.999 244.727 19.2101 244.136 18.8157C244.022 18.7281 243.891 18.6654 243.751 18.6317C243.611 18.598 243.466 18.594 243.325 18.6201C243.183 18.6461 243.049 18.7016 242.93 18.7828C242.812 18.8641 242.712 18.9693 242.637 19.0918C241.966 20.1568 243.268 22.4053 244.491 22.3264C245.713 22.2475 245.516 19.5257 244.964 18.6973C244.412 17.8689 242.36 17.9084 241.927 19.289C241.69 20.0385 242.834 20.3541 243.07 19.6046Z" fill="#F5F3F0"/>
<path d="M243.662 19.8419C243.66 19.8206 243.663 19.799 243.67 19.7787C243.677 19.7584 243.687 19.7396 243.702 19.7236C243.662 19.8025 243.662 19.763 243.741 19.7236C243.82 19.6841 243.702 19.763 243.781 19.7236C243.86 19.6841 243.702 19.7236 243.741 19.7631H243.662C243.587 19.7423 243.509 19.7366 243.431 19.7462C243.354 19.7558 243.279 19.7805 243.212 19.819C243.144 19.8575 243.084 19.9089 243.036 19.9704C242.989 20.0318 242.953 20.1021 242.933 20.1772C242.912 20.2524 242.906 20.3308 242.916 20.4081C242.925 20.4855 242.95 20.5601 242.988 20.6279C243.027 20.6957 243.078 20.7552 243.14 20.8031C243.201 20.851 243.272 20.8863 243.347 20.907C243.541 20.974 243.75 20.9873 243.951 20.9457C244.152 20.904 244.339 20.8089 244.491 20.6703C244.639 20.5243 244.747 20.3416 244.802 20.1408C244.858 19.9399 244.859 19.7279 244.806 19.5264C244.788 19.4522 244.755 19.3825 244.709 19.3218C244.663 19.2611 244.604 19.2106 244.538 19.1735C244.471 19.1365 244.397 19.1136 244.321 19.1064C244.245 19.0993 244.169 19.1079 244.096 19.1319C243.95 19.1775 243.825 19.2747 243.746 19.4053C243.666 19.5359 243.636 19.6911 243.662 19.8419Z" fill="#F5F3F0"/>
<path d="M234.629 29.5851L234.55 31.3208C234.511 32.0703 235.694 32.0703 235.734 31.3208L235.813 29.5851C235.813 29.4282 235.75 29.2777 235.639 29.1667C235.528 29.0558 235.378 28.9934 235.221 28.9934C235.064 28.9934 234.913 29.0558 234.803 29.1667C234.692 29.2777 234.629 29.4282 234.629 29.5851Z" fill="#090909"/>
<path d="M229.619 47.3362H224.728C224.205 47.3362 223.781 47.7601 223.781 48.2829V51.0205C223.781 51.5434 224.205 51.9672 224.728 51.9672H229.619C230.142 51.9672 230.566 51.5434 230.566 51.0205V48.2829C230.566 47.7601 230.142 47.3362 229.619 47.3362Z" fill="#CBC7DB"/>
<path d="M10.4534 40.1965V38.6187C10.7689 38.5792 11.834 37.0013 12.2285 32.7805L12.3074 32.1099H12.9385C17.5932 31.7549 19.2894 30.6504 19.3683 30.2954H20.9462C20.9462 32.6228 16.0548 33.4117 13.7274 33.6484C13.4513 36.0152 12.6229 40.1965 10.4534 40.1965Z" fill="#CBC7DB"/>
<path d="M10.4534 40.1963C8.32326 40.1963 7.49487 36.015 7.21874 33.6087C4.89139 33.372 0 32.5831 0 30.2557C0 27.9284 4.8125 27.2183 7.10041 26.9817C7.29764 24.4965 8.04713 19.2896 10.4534 19.2896C12.8596 19.2896 13.6486 24.4965 13.8458 26.9817C16.1337 27.2183 20.9462 27.9678 20.9462 30.2557H19.3683C19.2894 29.9007 17.6327 28.7962 13.0174 28.4412L12.3468 28.3623V27.6917C12.0707 22.9581 10.9267 20.8674 10.4928 20.828C10.0589 20.7885 8.9544 22.9581 8.67828 27.6917V28.3623L7.96824 28.4412C3.39242 28.7962 1.73566 29.9007 1.65677 30.2557C1.57787 30.6108 3.43186 31.6758 8.08658 32.0308H8.71771L8.79661 32.7014C9.19108 36.9222 10.2561 38.5001 10.5717 38.5395L10.4534 40.1963Z" fill="#CBC7DB"/>
<path d="M18.7765 52.4646C18.5953 52.4468 18.4259 52.367 18.2968 52.2386C18.1678 52.1101 18.0871 51.941 18.0686 51.7599C18.05 51.5788 18.0946 51.3968 18.1949 51.2449C18.2952 51.0929 18.4449 50.9803 18.6188 50.9262C18.7766 50.6895 19.0921 49.9006 19.2499 48.441V47.7704H19.9205C21.5773 47.6521 22.4451 47.2971 22.6818 47.1393C22.7359 46.9654 22.8485 46.8157 23.0005 46.7154C23.1524 46.6152 23.3344 46.5705 23.5155 46.5891C23.6966 46.6077 23.8657 46.6883 23.9942 46.8173C24.1226 46.9464 24.2025 47.1159 24.2202 47.2971C24.2202 48.5988 22.2479 49.1116 20.7094 49.2694C20.5122 50.8473 19.9994 52.4646 18.7765 52.4646Z" fill="#090909"/>
<path d="M18.7766 52.4646C17.5932 52.4646 17.0805 50.8473 16.8438 49.23C15.3054 49.0722 13.333 48.5594 13.333 47.2576C13.333 45.9559 15.2659 45.4825 16.8043 45.2853C16.9621 43.668 17.4355 41.5378 18.7766 41.5378C20.1178 41.5378 20.6307 43.668 20.7884 45.2853C22.3269 45.4825 24.2598 45.9953 24.2598 47.2576C24.2598 47.4669 24.1766 47.6675 24.0287 47.8155C23.8807 47.9634 23.6801 48.0465 23.4708 48.0465C23.2966 48.0504 23.1264 47.9935 22.9897 47.8855C22.8529 47.7775 22.758 47.6252 22.7213 47.4548C22.4846 47.2576 21.6168 46.942 19.9995 46.7842H19.3289V46.1137C19.3005 45.2109 19.1273 44.3186 18.8161 43.4707C18.5432 44.3271 18.384 45.2157 18.3427 46.1137V46.7842H17.6721C16.8663 46.8408 16.071 46.9999 15.3053 47.2576C16.0754 47.5486 16.8887 47.7085 17.7116 47.731H18.3822V48.4016C18.54 49.8611 18.8556 50.65 19.0133 50.8867C19.1837 50.9233 19.336 51.0182 19.444 51.155C19.552 51.2918 19.6089 51.462 19.605 51.6362C19.6107 51.7465 19.5932 51.8567 19.5535 51.9598C19.5139 52.0628 19.4531 52.1565 19.375 52.2345C19.2969 52.3126 19.2033 52.3734 19.1003 52.4131C18.9972 52.4527 18.8869 52.4702 18.7766 52.4646Z" fill="#090909"/>
<path d="M178.338 56.2507V54.6728H178.181C178.378 54.5545 178.891 53.5683 179.088 51.4382V50.7676H179.759C182.086 50.5703 183.23 50.0576 183.388 49.8209C183.545 49.5842 183.348 49.8998 183.348 49.9786H184.926C184.926 51.5171 182.401 52.0693 180.547 52.2666C180.35 53.9628 179.759 56.2507 178.338 56.2507Z" fill="#CBC7DB"/>
<path d="M178.338 56.2512C176.879 56.2512 176.327 53.9633 176.09 52.2276C174.236 52.0304 171.711 51.4781 171.711 49.9397C171.711 48.4013 174.157 47.849 176.011 47.6518C176.169 45.8767 176.721 42.9971 178.338 42.9971C179.956 42.9971 180.469 45.8767 180.666 47.6518C182.52 47.849 184.966 48.4407 184.966 49.9397H183.388C183.388 50.0186 183.388 50.058 183.427 50.0975C183.467 50.1369 182.165 49.348 179.837 49.1508H179.167V48.4802C179.048 46.3895 178.654 45.2061 178.378 44.7722C178.102 45.2061 177.707 46.3895 177.589 48.4802V49.1508H176.879C175.025 49.3086 173.92 49.703 173.526 49.9397C173.92 50.1764 175.025 50.5709 176.958 50.7286H177.589L177.668 51.3992C177.865 53.5294 178.338 54.5155 178.536 54.6339H178.417L178.338 56.2512Z" fill="#CBC7DB"/>
<path d="M188.674 107.532V105.954C188.555 105.954 188.437 105.993 188.437 106.033C188.437 106.072 188.91 105.165 189.029 103.705L189.108 103.035L189.778 102.956C191.396 102.837 192.224 102.482 192.342 102.364C192.288 102.431 192.26 102.515 192.263 102.601H193.841C193.841 103.824 191.987 104.297 190.528 104.494C190.33 105.993 189.818 107.532 188.674 107.532Z" fill="#CBC7DB"/>
<path d="M188.674 107.532C187.53 107.532 187.017 105.994 186.78 104.495C185.321 104.298 183.467 103.824 183.467 102.601C183.467 101.378 185.281 100.866 186.741 100.668C186.899 99.1301 187.372 97.1577 188.674 97.1577C189.976 97.1577 190.449 99.1301 190.607 100.668C192.027 100.866 193.841 101.339 193.841 102.601H192.263C192.266 102.674 192.294 102.744 192.342 102.799C192.224 102.68 191.396 102.325 189.818 102.207L189.108 102.128V101.457C189.073 100.655 188.941 99.8605 188.713 99.0906C188.468 99.8577 188.322 100.653 188.279 101.457V102.128L187.609 102.207C186.897 102.242 186.194 102.375 185.518 102.601C186.209 102.813 186.926 102.932 187.648 102.956L188.319 103.035V103.706C188.477 105.165 188.792 105.915 188.95 106.033L188.713 105.954L188.674 107.532Z" fill="#CBC7DB"/>
<path d="M188.674 44.4566V42.8787C188.59 42.8851 188.508 42.9122 188.437 42.9576C188.555 42.8393 188.91 42.0898 189.029 40.6302L189.108 39.9597H189.778C191.396 39.8413 192.224 39.4863 192.342 39.3285C192.461 39.1707 192.263 39.4468 192.263 39.5652H193.841C193.841 40.8275 191.987 41.3008 190.528 41.4586C190.33 42.9576 189.818 44.4566 188.674 44.4566Z" fill="#CBC7DB"/>
<path d="M188.674 44.4565C187.53 44.4565 187.017 42.9575 186.78 41.4191C185.321 41.2613 183.467 40.788 183.467 39.5257C183.467 38.2634 185.281 37.8295 186.741 37.6322C186.899 36.0938 187.372 34.082 188.674 34.082C189.976 34.082 190.449 36.0938 190.607 37.6322C192.027 37.8295 193.841 38.3028 193.841 39.5257H192.263C192.263 39.644 192.342 39.7229 192.342 39.7624C192.342 39.8018 191.396 39.2495 189.818 39.1312H189.108V38.4212C189.075 37.6319 188.942 36.8499 188.713 36.0938C188.466 36.847 188.32 37.6296 188.279 38.4212V39.1312H187.609C186.897 39.1662 186.194 39.299 185.518 39.5257C186.206 39.7555 186.923 39.8882 187.648 39.9201H188.319V40.5907C188.477 42.0503 188.792 42.7998 188.95 42.9181C189.108 43.0364 188.832 42.8392 188.713 42.8392L188.674 44.4565Z" fill="#CBC7DB"/>
<path d="M12.899 173.013C30.4923 171.961 48.1249 171.58 65.7971 171.869C65.954 171.869 66.1045 171.807 66.2155 171.696C66.3264 171.585 66.3888 171.434 66.3888 171.277C66.3888 171.121 66.3264 170.97 66.2155 170.859C66.1045 170.748 65.954 170.686 65.7971 170.686C48.1249 170.37 30.4923 170.752 12.899 171.83C12.1495 171.869 12.1101 173.053 12.899 173.013Z" fill="#090909"/>
<path d="M33.727 163.704H65.2449C65.4018 163.704 65.5523 163.642 65.6633 163.531C65.7742 163.42 65.8366 163.269 65.8366 163.112C65.8366 162.955 65.7742 162.805 65.6633 162.694C65.5523 162.583 65.4018 162.521 65.2449 162.521H33.727C33.57 162.521 33.4195 162.583 33.3086 162.694C33.1976 162.805 33.1353 162.955 33.1353 163.112C33.1353 163.269 33.1976 163.42 33.3086 163.531C33.4195 163.642 33.57 163.704 33.727 163.704Z" fill="#090909"/>
<path d="M171.593 163.073C185.478 163.585 199.403 163.428 213.288 162.599C214.038 162.56 214.038 161.376 213.288 161.416C199.403 162.244 185.478 162.402 171.593 161.889C170.804 161.85 170.804 163.033 171.593 163.073Z" fill="#090909"/>
<path d="M158.734 163.191H165.164C165.321 163.191 165.471 163.128 165.582 163.017C165.693 162.906 165.755 162.756 165.755 162.599C165.755 162.442 165.693 162.292 165.582 162.181C165.471 162.07 165.321 162.007 165.164 162.007H158.734C158.577 162.007 158.426 162.07 158.315 162.181C158.204 162.292 158.142 162.442 158.142 162.599C158.142 162.756 158.204 162.906 158.315 163.017C158.426 163.128 158.577 163.191 158.734 163.191Z" fill="#090909"/>
<path d="M131.515 172.263H141.101C141.258 172.263 141.408 172.201 141.519 172.09C141.63 171.979 141.693 171.829 141.693 171.672C141.693 171.515 141.63 171.364 141.519 171.253C141.408 171.142 141.258 171.08 141.101 171.08H131.515C131.358 171.08 131.208 171.142 131.097 171.253C130.986 171.364 130.924 171.515 130.924 171.672C130.924 171.829 130.986 171.979 131.097 172.09C131.208 172.201 131.358 172.263 131.515 172.263Z" fill="#090909"/>
<path d="M150.726 172.263H208.989C209.146 172.263 209.296 172.201 209.407 172.09C209.518 171.979 209.581 171.829 209.581 171.672C209.581 171.515 209.518 171.364 209.407 171.253C209.296 171.142 209.146 171.08 208.989 171.08H150.726C150.569 171.08 150.419 171.142 150.308 171.253C150.197 171.364 150.134 171.515 150.134 171.672C150.134 171.829 150.197 171.979 150.308 172.09C150.419 172.201 150.569 172.263 150.726 172.263Z" fill="#090909"/>
<path d="M208.042 78.8932H207.056C206.846 78.8828 206.65 78.7896 206.509 78.6343C206.369 78.4789 206.296 78.2741 206.306 78.0648C206.317 77.8556 206.41 77.6591 206.565 77.5185C206.72 77.378 206.925 77.3049 207.135 77.3153C207.938 77.4073 208.751 77.3673 209.541 77.197C210.092 77.0386 210.585 76.7234 210.961 76.2897C210.729 76.0349 210.478 75.7976 210.211 75.5797L210.054 75.4219C208.555 74.0807 208.081 73.6863 208.239 72.8973C208.397 72.1084 208.989 71.8717 209.422 71.635H209.501C209.933 71.4642 210.383 71.345 210.843 71.28C212.815 71.0433 214.353 72.0295 215.734 72.9368L216.799 73.6074C218.456 74.5146 219.876 74.7908 222.716 74.988C227.45 75.343 232.144 73.9624 236.68 70.8461C238.365 69.6823 239.89 68.3031 241.216 66.7436C248.514 58.1837 244.53 49.3082 244.491 49.2293C244.4 49.0384 244.381 48.8207 244.439 48.6174C244.498 48.414 244.628 48.2388 244.806 48.1248C244.991 48.0361 245.203 48.0193 245.399 48.0776C245.596 48.1359 245.764 48.2652 245.871 48.4404C245.95 48.5587 250.486 58.302 242.4 67.7693C241.001 69.4399 239.382 70.9129 237.587 72.1478C232.735 75.4614 227.686 76.9603 222.598 76.5659C219.955 76.3686 218.061 76.1319 216.01 74.9485C215.615 74.7352 215.233 74.4981 214.866 74.2385C213.643 73.4496 212.46 72.6606 211.04 72.8579C210.728 72.8954 210.423 72.975 210.132 73.0946L209.935 73.2129L211.119 74.3174L211.276 74.4752C212.302 75.343 212.539 75.6192 212.578 76.1714C212.657 77.6704 210.527 78.5382 210.093 78.696C209.427 78.8845 208.732 78.9513 208.042 78.8932Z" fill="#090909"/>
<path d="M211.04 89.8988C209.423 89.6621 204.334 87.2953 203.782 86.8614C203.229 86.4275 203.111 86.3486 203.072 86.1119C202.835 84.2579 204.965 85.1258 207.529 84.9285" fill="#F5F3F0"/>
<path d="M211.04 90.6884H210.921C209.225 90.4123 203.979 88.006 203.308 87.4932C202.638 86.9804 202.401 86.8226 202.322 86.1914C202.259 85.9313 202.258 85.6599 202.32 85.3993C202.381 85.1388 202.504 84.8966 202.677 84.6925C203.269 84.0219 204.255 84.0613 205.478 84.1402C206.069 84.1402 206.78 84.1797 207.49 84.1402C207.693 84.1291 207.892 84.1967 208.046 84.329C208.201 84.4612 208.298 84.648 208.318 84.8503C208.329 84.9519 208.319 85.0546 208.289 85.1522C208.258 85.2498 208.208 85.3402 208.142 85.4177C208.075 85.4953 207.994 85.5585 207.902 85.6034C207.81 85.6482 207.71 85.6738 207.608 85.6786C206.873 85.7296 206.135 85.7428 205.399 85.7181C204.887 85.6465 204.368 85.6598 203.86 85.7575V85.9153C203.9 85.9942 204.058 86.0731 204.255 86.2309C204.452 86.3887 209.659 88.9133 211.158 89.1105C211.364 89.1491 211.547 89.264 211.672 89.4323C211.796 89.6006 211.852 89.8098 211.829 90.0178C211.8 90.2059 211.705 90.3774 211.56 90.5006C211.415 90.6238 211.23 90.6905 211.04 90.6884Z" fill="#090909"/>
<path d="M207.529 84.8498C205.872 84.5737 204.097 83.9031 203.506 83.4692C202.914 83.0353 202.835 82.9564 202.835 82.6803C202.559 80.7868 204.728 81.6941 207.371 81.4574" fill="#F5F3F0"/>
<path d="M207.529 85.6386H207.411C205.675 85.402 203.742 84.6525 203.032 84.1397C202.787 84.0018 202.574 83.8151 202.404 83.5912C202.234 83.3672 202.113 83.1109 202.046 82.8379C201.991 82.571 201.994 82.2954 202.056 82.0299C202.117 81.7644 202.235 81.5153 202.401 81.2995C203.032 80.6289 204.018 80.6684 205.241 80.7078C205.924 80.767 206.61 80.767 207.292 80.7078C207.506 80.6967 207.715 80.7685 207.877 80.9081C208.039 81.0478 208.14 81.2445 208.16 81.4573C208.171 81.5589 208.161 81.6617 208.131 81.7592C208.101 81.8568 208.051 81.9472 207.984 82.0248C207.918 82.1023 207.836 82.1655 207.744 82.2104C207.652 82.2553 207.552 82.2809 207.45 82.2857C206.689 82.3451 205.924 82.3451 205.162 82.2857C204.61 82.2857 203.821 82.2462 203.584 82.3646V82.5618L203.979 82.8774C205.126 83.4847 206.366 83.8979 207.648 84.1002C207.752 84.1146 207.852 84.1497 207.942 84.2034C208.033 84.257 208.111 84.3282 208.174 84.4127C208.236 84.4973 208.281 84.5934 208.306 84.6955C208.331 84.7977 208.335 84.9037 208.318 85.0075C208.275 85.185 208.174 85.3431 208.031 85.4573C207.888 85.5714 207.712 85.6352 207.529 85.6386Z" fill="#090909"/>
<path d="M207.371 81.4573C205.715 81.2206 203.9 80.5106 203.348 80.1161C202.796 79.7216 202.677 79.5639 202.638 79.3272C202.401 77.4337 204.571 78.3015 207.214 78.1043" fill="#F5F3F0"/>
<path d="M207.371 82.246H207.253C205.517 81.9698 203.585 81.2598 202.874 80.747C202.164 80.2342 201.967 80.037 201.888 79.4058C201.828 79.1392 201.828 78.8624 201.89 78.596C201.951 78.3296 202.072 78.0805 202.243 77.8674C202.874 77.1968 203.861 77.2757 205.083 77.3151C205.767 77.3546 206.452 77.3546 207.135 77.3151C207.238 77.3042 207.343 77.314 207.443 77.3439C207.543 77.3737 207.636 77.4231 207.717 77.4892C207.797 77.5552 207.864 77.6365 207.913 77.7285C207.962 77.8206 207.993 77.9214 208.003 78.0252C208.014 78.2386 207.942 78.448 207.802 78.6097C207.663 78.7715 207.466 78.8729 207.253 78.893C206.505 78.9523 205.753 78.9523 205.005 78.893C204.413 78.8536 203.663 78.8141 203.427 78.9325V79.1297C203.541 79.266 203.674 79.3855 203.821 79.4847C204.962 80.0998 206.205 80.5009 207.49 80.6681C207.695 80.7066 207.879 80.8216 208.003 80.99C208.128 81.1583 208.184 81.3674 208.16 81.5754C208.132 81.7635 208.036 81.935 207.891 82.0582C207.746 82.1815 207.562 82.2481 207.371 82.246Z" fill="#090909"/>
<path d="M170.765 77.5125C170.599 77.5061 170.439 77.4501 170.305 77.3516C170.172 77.2531 170.071 77.1168 170.015 76.9603C169.985 76.8592 169.976 76.7533 169.988 76.6486C169.999 76.5439 170.032 76.4426 170.083 76.3507C170.135 76.2587 170.204 76.1781 170.287 76.1134C170.371 76.0487 170.466 76.0013 170.568 75.9741C171.306 75.7419 172.009 75.4101 172.658 74.9879C173.097 74.6333 173.437 74.1713 173.644 73.6467L172.698 73.2523L172.501 73.1734C170.607 72.4239 170.015 72.2266 169.897 71.4377C169.87 71.1398 169.917 70.8399 170.034 70.5646C170.151 70.2893 170.334 70.0472 170.568 69.8598C170.902 69.4969 171.304 69.2022 171.751 68.992C172.965 68.4276 174.234 67.9914 175.538 67.6903C176.908 67.3622 178.243 66.8998 179.522 66.3096C179.615 66.263 179.717 66.2352 179.821 66.2278C179.925 66.2204 180.029 66.2336 180.128 66.2666C180.227 66.2995 180.318 66.3517 180.397 66.42C180.476 66.4883 180.54 66.5714 180.587 66.6646C180.634 66.7579 180.662 66.8594 180.669 66.9634C180.676 67.0674 180.663 67.1718 180.63 67.2707C180.597 67.3696 180.545 67.461 180.477 67.5398C180.408 67.6186 180.325 67.6831 180.232 67.7297C178.862 68.3512 177.435 68.8399 175.972 69.1892C174.631 69.5837 173.368 69.8993 172.501 70.3726C172.213 70.5192 171.948 70.7051 171.712 70.9249L171.554 71.0827L173.053 71.7138L173.289 71.7927C174.552 72.2661 174.867 72.4239 175.104 72.9367C175.735 74.3173 174.039 75.8952 173.684 76.1713C173.329 76.4474 171.08 77.4336 171.002 77.4731L170.765 77.5125Z" fill="#090909"/>
<path d="M185.794 84.7713C177.51 88.3215 171.317 86.3098 170.686 86.1125C170.055 85.9153 169.897 85.8758 169.779 85.6392C168.871 84.0218 171.159 84.0613 173.487 82.9568" fill="#F5F3F0"/>
<path d="M176.051 87.6508C174.183 87.6702 172.323 87.4177 170.528 86.9013H170.449C169.936 86.7436 169.345 86.5858 169.068 86.0335C168.926 85.7995 168.834 85.5378 168.8 85.2658C168.766 84.9937 168.79 84.7176 168.871 84.4556C169.226 83.6273 170.134 83.3511 171.277 82.9567C171.925 82.7657 172.558 82.5284 173.171 82.2466C173.36 82.1661 173.572 82.1623 173.764 82.2359C173.955 82.3096 174.11 82.4549 174.197 82.6411C174.243 82.7313 174.271 82.83 174.278 82.9312C174.285 83.0324 174.272 83.1341 174.239 83.23C174.206 83.3259 174.153 83.414 174.085 83.4891C174.017 83.5642 173.934 83.6246 173.842 83.6667C173.175 83.9719 172.49 84.2354 171.79 84.4556C171.296 84.5971 170.819 84.7956 170.37 85.0473C170.369 85.1025 170.383 85.1569 170.41 85.2051C170.558 85.2825 170.718 85.3358 170.883 85.3629H170.962C172.974 85.9546 178.457 87.0197 185.478 84.0217C185.574 83.9574 185.682 83.9148 185.796 83.8969C185.91 83.879 186.026 83.8862 186.137 83.9181C186.248 83.9499 186.35 84.0056 186.437 84.0813C186.524 84.1569 186.593 84.2506 186.64 84.3558C186.686 84.4611 186.71 84.5753 186.708 84.6905C186.706 84.8056 186.678 84.9189 186.628 85.0224C186.577 85.1259 186.505 85.2171 186.415 85.2895C186.326 85.362 186.221 85.414 186.109 85.4418C182.947 86.8713 179.521 87.6238 176.051 87.6508Z" fill="#090909"/>
<path d="M173.487 82.9173C171.83 83.2329 169.897 83.2329 169.227 83.0356C168.556 82.8384 168.438 82.799 168.319 82.5623C167.412 80.8661 169.739 80.945 172.146 79.801" fill="#F5F3F0"/>
<path d="M170.725 83.9822C170.153 83.9972 169.582 83.9308 169.029 83.785C168.743 83.7526 168.468 83.6581 168.223 83.5082C167.978 83.3583 167.768 83.1566 167.609 82.9172C167.456 82.6876 167.358 82.4255 167.324 82.1516C167.29 81.8777 167.32 81.5995 167.412 81.3393C167.767 80.5109 168.674 80.1953 169.857 79.8403C170.516 79.6289 171.161 79.3786 171.79 79.0908C171.886 79.0448 171.99 79.0186 172.096 79.0136C172.201 79.0086 172.307 79.025 172.407 79.0618C172.506 79.0986 172.597 79.1551 172.674 79.2279C172.751 79.3006 172.813 79.3882 172.855 79.4853C172.936 79.674 172.94 79.8866 172.866 80.0781C172.792 80.2695 172.647 80.4248 172.461 80.5109C171.711 80.8659 171.001 81.1026 170.37 81.3393C169.739 81.576 169.068 81.7338 168.911 81.931C168.911 81.9987 168.924 82.0657 168.95 82.1282L169.463 82.286C169.976 82.4438 171.79 82.4438 173.289 82.1282C173.492 82.0911 173.702 82.1312 173.877 82.2406C174.052 82.3501 174.18 82.521 174.236 82.7199C174.265 82.8211 174.273 82.9274 174.258 83.0317C174.244 83.136 174.207 83.2361 174.152 83.3255C174.096 83.4148 174.022 83.4913 173.934 83.5501C173.847 83.6089 173.748 83.6486 173.644 83.6667C172.684 83.8669 171.706 83.9726 170.725 83.9822Z" fill="#090909"/>
<path d="M172.146 79.8007C170.489 80.1558 168.556 80.1557 167.885 79.9585C167.215 79.7613 167.096 79.6824 166.939 79.4457C166.071 77.7889 168.398 77.8284 170.765 76.7239" fill="#F5F3F0"/>
<path d="M169.384 80.8654C168.801 80.8872 168.218 80.8342 167.649 80.7077C167.136 80.5499 166.544 80.3921 166.268 79.8398C166.115 79.6103 166.017 79.3481 165.983 79.0742C165.948 78.8003 165.979 78.5222 166.071 78.262C166.426 77.4336 167.333 77.118 168.516 76.7235C169.174 76.5265 169.82 76.2894 170.449 76.0135C170.542 75.9662 170.644 75.9379 170.748 75.9301C170.852 75.9224 170.957 75.9354 171.056 75.9685C171.155 76.0015 171.247 76.0539 171.325 76.1225C171.404 76.1912 171.468 76.2748 171.514 76.3685C171.597 76.5629 171.602 76.7813 171.528 76.9793C171.455 77.1772 171.309 77.3397 171.12 77.4336C170.443 77.7459 169.744 78.0095 169.029 78.2225C168.504 78.367 168 78.5791 167.53 78.8537C167.57 78.8537 167.57 78.9326 167.609 79.0115L168.122 79.2087C168.635 79.3665 170.449 79.3665 171.948 79.0509C172.049 79.0216 172.156 79.014 172.26 79.0286C172.364 79.0431 172.464 79.0795 172.554 79.1353C172.643 79.1911 172.72 79.2652 172.778 79.3526C172.837 79.44 172.877 79.5388 172.895 79.6426C172.918 79.7436 172.922 79.8482 172.904 79.9505C172.887 80.0528 172.85 80.1507 172.795 80.2386C172.74 80.3265 172.669 80.4028 172.584 80.4629C172.5 80.5231 172.404 80.5661 172.303 80.5893C171.342 80.777 170.364 80.8695 169.384 80.8654Z" fill="#090909"/>
</svg>
