<svg width="210" height="72" viewBox="0 0 210 72" fill="none" xmlns="http://www.w3.org/2000/svg">
<path d="M50 0H22C9.84974 0 0 9.84974 0 22V50C0 62.1503 9.84974 72 22 72H50C62.1503 72 72 62.1503 72 50V22C72 9.84974 62.1503 0 50 0Z" fill="#FB923C"/>
<path d="M93.5234 26.1641C93.5234 28.1797 92.8203 29.7148 91.4141 30.7695C90.0195 31.8242 87.9277 32.3516 85.1387 32.3516C83.709 32.3516 82.4902 32.252 81.4824 32.0527C80.4746 31.8652 79.5312 31.584 78.6523 31.209V26.7793C79.6484 27.248 80.7676 27.6406 82.0098 27.957C83.2637 28.2734 84.3652 28.4316 85.3145 28.4316C87.2598 28.4316 88.2324 27.8691 88.2324 26.7441C88.2324 26.3223 88.1035 25.9824 87.8457 25.7246C87.5879 25.4551 87.1426 25.1562 86.5098 24.8281C85.877 24.4883 85.0332 24.0957 83.9785 23.6504C82.4668 23.0176 81.3535 22.4316 80.6387 21.8926C79.9355 21.3535 79.4199 20.7383 79.0918 20.0469C78.7754 19.3438 78.6172 18.4824 78.6172 17.4629C78.6172 15.7168 79.291 14.3691 80.6387 13.4199C81.998 12.459 83.9199 11.9785 86.4043 11.9785C88.7715 11.9785 91.0742 12.4941 93.3125 13.5254L91.6953 17.3926C90.7109 16.9707 89.791 16.625 88.9355 16.3555C88.0801 16.0859 87.207 15.9512 86.3164 15.9512C84.7344 15.9512 83.9434 16.3789 83.9434 17.2344C83.9434 17.7148 84.1953 18.1309 84.6992 18.4824C85.2148 18.834 86.334 19.3555 88.0566 20.0469C89.5918 20.668 90.7168 21.248 91.4316 21.7871C92.1465 22.3262 92.6738 22.9473 93.0137 23.6504C93.3535 24.3535 93.5234 25.1914 93.5234 26.1641Z" fill="#554333"/>
<path d="M105.986 28.0801C106.924 28.0801 108.049 27.875 109.361 27.4648V31.4551C108.025 32.0527 106.385 32.3516 104.439 32.3516C102.295 32.3516 100.73 31.8125 99.7461 30.7344C98.7734 29.6445 98.2871 28.0156 98.2871 25.8477V16.373H95.7207V14.1055L98.6738 12.3125L100.221 8.16406H103.648V12.3477H109.15V16.373H103.648V25.8477C103.648 26.6094 103.859 27.1719 104.281 27.5352C104.715 27.8984 105.283 28.0801 105.986 28.0801Z" fill="#554333"/>
<path d="M125.832 32L124.795 29.3281H124.654C123.752 30.4648 122.82 31.2559 121.859 31.7012C120.91 32.1348 119.668 32.3516 118.133 32.3516C116.246 32.3516 114.758 31.8125 113.668 30.7344C112.59 29.6562 112.051 28.1211 112.051 26.1289C112.051 24.043 112.777 22.5078 114.23 21.5234C115.695 20.5273 117.898 19.9766 120.84 19.8711L124.25 19.7656V18.9043C124.25 16.9121 123.23 15.916 121.191 15.916C119.621 15.916 117.775 16.3906 115.654 17.3398L113.879 13.7188C116.141 12.5352 118.648 11.9434 121.402 11.9434C124.039 11.9434 126.061 12.5176 127.467 13.666C128.873 14.8145 129.576 16.5605 129.576 18.9043V32H125.832ZM124.25 22.8945L122.176 22.9648C120.617 23.0117 119.457 23.293 118.695 23.8086C117.934 24.3242 117.553 25.1094 117.553 26.1641C117.553 27.6758 118.42 28.4316 120.154 28.4316C121.396 28.4316 122.387 28.0742 123.125 27.3594C123.875 26.6445 124.25 25.6953 124.25 24.5117V22.8945Z" fill="#554333"/>
<path d="M146.082 11.9785C146.809 11.9785 147.412 12.0312 147.893 12.1367L147.488 17.1641C147.055 17.0469 146.527 16.9883 145.906 16.9883C144.195 16.9883 142.859 17.4277 141.898 18.3066C140.949 19.1855 140.475 20.416 140.475 21.998V32H135.113V12.3477H139.174L139.965 15.6523H140.229C140.838 14.5508 141.658 13.666 142.689 12.998C143.732 12.3184 144.863 11.9785 146.082 11.9785Z" fill="#554333"/>
<path d="M159.74 28.0801C160.678 28.0801 161.803 27.875 163.115 27.4648V31.4551C161.779 32.0527 160.139 32.3516 158.193 32.3516C156.049 32.3516 154.484 31.8125 153.5 30.7344C152.527 29.6445 152.041 28.0156 152.041 25.8477V16.373H149.475V14.1055L152.428 12.3125L153.975 8.16406H157.402V12.3477H162.904V16.373H157.402V25.8477C157.402 26.6094 157.613 27.1719 158.035 27.5352C158.469 27.8984 159.037 28.0801 159.74 28.0801Z" fill="#554333"/>
<path d="M181.027 32L180.307 29.4863H180.025C179.451 30.4004 178.637 31.1094 177.582 31.6133C176.527 32.1055 175.326 32.3516 173.979 32.3516C171.67 32.3516 169.93 31.7363 168.758 30.5059C167.586 29.2637 167 27.4824 167 25.1621V12.3477H172.361V23.8262C172.361 25.2441 172.613 26.3105 173.117 27.0254C173.621 27.7285 174.424 28.0801 175.525 28.0801C177.025 28.0801 178.109 27.582 178.777 26.5859C179.445 25.5781 179.779 23.9141 179.779 21.5938V12.3477H185.141V32H181.027Z" fill="#554333"/>
<path d="M201.559 32.3516C199.25 32.3516 197.439 31.5137 196.127 29.8379H195.846C196.033 31.4785 196.127 32.4277 196.127 32.6855V40.6484H190.766V12.3477H195.125L195.881 14.8965H196.127C197.381 12.9512 199.238 11.9785 201.699 11.9785C204.02 11.9785 205.836 12.875 207.148 14.668C208.461 16.4609 209.117 18.9512 209.117 22.1387C209.117 24.2363 208.807 26.0586 208.186 27.6055C207.576 29.1523 206.703 30.3301 205.566 31.1387C204.43 31.9473 203.094 32.3516 201.559 32.3516ZM199.977 16.2676C198.652 16.2676 197.686 16.6777 197.076 17.498C196.467 18.3066 196.15 19.6484 196.127 21.5234V22.1035C196.127 24.2129 196.438 25.7246 197.059 26.6387C197.691 27.5527 198.688 28.0098 200.047 28.0098C202.449 28.0098 203.65 26.0293 203.65 22.0684C203.65 20.1348 203.352 18.6875 202.754 17.7266C202.168 16.7539 201.242 16.2676 199.977 16.2676Z" fill="#554333"/>
<path d="M90.7812 42.9785C91.5078 42.9785 92.1113 43.0312 92.5918 43.1367L92.1875 48.1641C91.7539 48.0469 91.2266 47.9883 90.6055 47.9883C88.8945 47.9883 87.5586 48.4277 86.5977 49.3066C85.6484 50.1855 85.1738 51.416 85.1738 52.998V63H79.8125V43.3477H83.873L84.6641 46.6523H84.9277C85.5371 45.5508 86.3574 44.666 87.3887 43.998C88.4316 43.3184 89.5625 42.9785 90.7812 42.9785Z" fill="#554333"/>
<path d="M103.947 46.793C102.811 46.793 101.92 47.1562 101.275 47.8828C100.631 48.5977 100.262 49.6172 100.168 50.9414H107.691C107.668 49.6172 107.322 48.5977 106.654 47.8828C105.986 47.1562 105.084 46.793 103.947 46.793ZM104.703 63.3516C101.539 63.3516 99.0664 62.4785 97.2852 60.7324C95.5039 58.9863 94.6133 56.5137 94.6133 53.3145C94.6133 50.0215 95.4336 47.4785 97.0742 45.6855C98.7266 43.8809 101.006 42.9785 103.912 42.9785C106.689 42.9785 108.852 43.7695 110.398 45.3516C111.945 46.9336 112.719 49.1191 112.719 51.9082V54.5098H100.045C100.104 56.0332 100.555 57.2227 101.398 58.0781C102.242 58.9336 103.426 59.3613 104.949 59.3613C106.133 59.3613 107.252 59.2383 108.307 58.9922C109.361 58.7461 110.463 58.3535 111.611 57.8145V61.9629C110.674 62.4316 109.672 62.7773 108.605 63C107.539 63.2344 106.238 63.3516 104.703 63.3516Z" fill="#554333"/>
<path d="M125.059 63.3516C118.941 63.3516 115.883 59.9941 115.883 53.2793C115.883 49.9395 116.715 47.3906 118.379 45.6328C120.043 43.8633 122.428 42.9785 125.533 42.9785C127.807 42.9785 129.846 43.4238 131.65 44.3145L130.068 48.4629C129.225 48.123 128.439 47.8477 127.713 47.6367C126.986 47.4141 126.26 47.3027 125.533 47.3027C122.744 47.3027 121.35 49.2832 121.35 53.2441C121.35 57.0879 122.744 59.0098 125.533 59.0098C126.564 59.0098 127.52 58.875 128.398 58.6055C129.277 58.3242 130.156 57.8906 131.035 57.3047V61.8926C130.168 62.4434 129.289 62.8242 128.398 63.0352C127.52 63.2461 126.406 63.3516 125.059 63.3516Z" fill="#554333"/>
<path d="M135.377 38.2676C135.377 36.5215 136.35 35.6484 138.295 35.6484C140.24 35.6484 141.213 36.5215 141.213 38.2676C141.213 39.0996 140.967 39.75 140.475 40.2188C139.994 40.6758 139.268 40.9043 138.295 40.9043C136.35 40.9043 135.377 40.0254 135.377 38.2676ZM140.967 63H135.605V43.3477H140.967V63Z" fill="#554333"/>
<path d="M157.402 63.3516C155.094 63.3516 153.283 62.5137 151.971 60.8379H151.689C151.877 62.4785 151.971 63.4277 151.971 63.6855V71.6484H146.609V43.3477H150.969L151.725 45.8965H151.971C153.225 43.9512 155.082 42.9785 157.543 42.9785C159.863 42.9785 161.68 43.875 162.992 45.668C164.305 47.4609 164.961 49.9512 164.961 53.1387C164.961 55.2363 164.65 57.0586 164.029 58.6055C163.42 60.1523 162.547 61.3301 161.41 62.1387C160.273 62.9473 158.938 63.3516 157.402 63.3516ZM155.82 47.2676C154.496 47.2676 153.529 47.6777 152.92 48.498C152.311 49.3066 151.994 50.6484 151.971 52.5234V53.1035C151.971 55.2129 152.281 56.7246 152.902 57.6387C153.535 58.5527 154.531 59.0098 155.891 59.0098C158.293 59.0098 159.494 57.0293 159.494 53.0684C159.494 51.1348 159.195 49.6875 158.598 48.7266C158.012 47.7539 157.086 47.2676 155.82 47.2676Z" fill="#554333"/>
<path d="M177.529 46.793C176.393 46.793 175.502 47.1562 174.857 47.8828C174.213 48.5977 173.844 49.6172 173.75 50.9414H181.273C181.25 49.6172 180.904 48.5977 180.236 47.8828C179.568 47.1562 178.666 46.793 177.529 46.793ZM178.285 63.3516C175.121 63.3516 172.648 62.4785 170.867 60.7324C169.086 58.9863 168.195 56.5137 168.195 53.3145C168.195 50.0215 169.016 47.4785 170.656 45.6855C172.309 43.8809 174.588 42.9785 177.494 42.9785C180.271 42.9785 182.434 43.7695 183.98 45.3516C185.527 46.9336 186.301 49.1191 186.301 51.9082V54.5098H173.627C173.686 56.0332 174.137 57.2227 174.98 58.0781C175.824 58.9336 177.008 59.3613 178.531 59.3613C179.715 59.3613 180.834 59.2383 181.889 58.9922C182.943 58.7461 184.045 58.3535 185.193 57.8145V61.9629C184.256 62.4316 183.254 62.7773 182.188 63C181.121 63.2344 179.82 63.3516 178.285 63.3516Z" fill="#554333"/>
<path d="M204.371 57.1641C204.371 59.1797 203.668 60.7148 202.262 61.7695C200.867 62.8242 198.775 63.3516 195.986 63.3516C194.557 63.3516 193.338 63.252 192.33 63.0527C191.322 62.8652 190.379 62.584 189.5 62.209V57.7793C190.496 58.248 191.615 58.6406 192.857 58.957C194.111 59.2734 195.213 59.4316 196.162 59.4316C198.107 59.4316 199.08 58.8691 199.08 57.7441C199.08 57.3223 198.951 56.9824 198.693 56.7246C198.436 56.4551 197.99 56.1562 197.357 55.8281C196.725 55.4883 195.881 55.0957 194.826 54.6504C193.314 54.0176 192.201 53.4316 191.486 52.8926C190.783 52.3535 190.268 51.7383 189.939 51.0469C189.623 50.3438 189.465 49.4824 189.465 48.4629C189.465 46.7168 190.139 45.3691 191.486 44.4199C192.846 43.459 194.768 42.9785 197.252 42.9785C199.619 42.9785 201.922 43.4941 204.16 44.5254L202.543 48.3926C201.559 47.9707 200.639 47.625 199.783 47.3555C198.928 47.0859 198.055 46.9512 197.164 46.9512C195.582 46.9512 194.791 47.3789 194.791 48.2344C194.791 48.7148 195.043 49.1309 195.547 49.4824C196.062 49.834 197.182 50.3555 198.904 51.0469C200.439 51.668 201.564 52.248 202.279 52.7871C202.994 53.3262 203.521 53.9473 203.861 54.6504C204.201 55.3535 204.371 56.1914 204.371 57.1641Z" fill="#554333"/>
<path d="M36.11 28.5844C29.2925 28.5844 23.4688 32.8135 21.0885 38.7759H51.1315C48.7511 32.8135 42.9274 28.5844 36.11 28.5844Z" fill="#FED7AA"/>
<path d="M13 47.532C13 46.5379 13.8059 45.732 14.8 45.732H57.42C58.4141 45.732 59.22 46.5379 59.22 47.532V48.554C59.22 49.5481 58.4141 50.354 57.42 50.354H14.8C13.8059 50.354 13 49.5481 13 48.554V47.532ZM40.3622 24.4477C40.5933 23.8931 40.732 23.2691 40.732 22.622C40.732 20.0799 38.6521 18 36.11 18C33.5679 18 31.488 20.0799 31.488 22.622C31.488 23.2691 31.6267 23.8931 31.8578 24.4477C23.1651 26.2485 16.4614 33.4388 15.409 42.3565C15.3412 42.9308 15.8012 43.421 16.3795 43.421H55.8405C56.4188 43.421 56.8788 42.9308 56.811 42.3565C55.7586 33.4388 49.0549 26.2485 40.3622 24.4477ZM36.11 28.5844C42.403 28.5844 47.8493 32.1879 50.5222 37.4319C50.8433 38.0619 50.3627 38.7759 49.6555 38.7759H22.5645C21.8573 38.7759 21.3767 38.0619 21.6978 37.4318C24.3707 32.1879 29.817 28.5844 36.11 28.5844Z" fill="white"/>
</svg>
