<svg width="348" height="330" viewBox="0 0 348 330" fill="none" xmlns="http://www.w3.org/2000/svg">
<path d="M270.306 298.405L270.906 315.424C270.973 317.36 269.238 318.961 266.968 318.961L228.992 318.761C228.228 318.8 227.477 318.545 226.894 318.049C226.311 317.553 225.939 316.852 225.855 316.091C225.522 306.147 227.657 298.271 238.937 298.338L270.306 298.405Z" fill="#80A5AE"/>
<path d="M268.572 304.211C269.773 303.344 271.241 305.079 270.04 305.88C266.97 308.016 265.368 310.885 265.435 314.423C265.428 314.618 265.375 314.808 265.278 314.978C265.182 315.147 265.046 315.291 264.882 315.396C264.717 315.501 264.53 315.565 264.336 315.581C264.141 315.598 263.946 315.567 263.766 315.491C256.892 313.622 249.817 314.223 242.876 314.957C237.803 315.491 231.663 317.293 226.791 315.09C226.647 315.045 226.514 314.97 226.402 314.87C226.289 314.77 226.199 314.647 226.137 314.509C226.075 314.372 226.043 314.223 226.043 314.072C226.043 313.921 226.075 313.772 226.136 313.635C226.198 313.497 226.288 313.374 226.401 313.274C226.513 313.174 226.646 313.098 226.79 313.053C226.934 313.008 227.085 312.993 227.235 313.011C227.385 313.028 227.529 313.077 227.659 313.155C231.129 314.69 235.067 313.689 238.604 313.288C242.142 312.888 245.078 312.554 248.349 312.287C253.282 311.873 258.248 312.165 263.099 313.155C263.366 309.551 265.235 306.481 268.572 304.211Z" fill="#090909"/>
<path d="M244.744 299.339C248.081 300.274 251.485 301.341 253.621 304.011C254.555 305.146 252.686 306.347 251.752 305.212C249.883 302.876 246.746 302.076 243.81 301.275" fill="#090909"/>
<path d="M233.664 298.605C238.336 299.606 242.941 300.741 246.145 304.145C247.146 305.212 245.277 306.481 244.276 305.413C241.473 302.476 237.335 301.542 233.33 300.674" fill="#090909"/>
<path d="M274.911 269.705L294.067 270.306C296.269 270.373 297.871 272.442 297.737 274.911L294.734 317.493C294.6 319.362 293.132 320.83 291.53 320.763C280.384 320.496 271.708 317.426 272.642 304.812L274.911 269.705Z" fill="#80A5AE"/>
<path d="M281.319 272.041C280.451 270.64 282.453 269.105 283.321 270.506C285.457 274.111 288.594 276.179 292.532 276.313C292.749 276.333 292.958 276.406 293.14 276.525C293.323 276.644 293.474 276.806 293.579 276.997C293.684 277.188 293.741 277.402 293.745 277.62C293.748 277.839 293.698 278.054 293.599 278.249C290.996 285.857 291.197 293.799 291.464 301.675C291.731 307.348 293.266 314.356 290.463 319.695C290.388 319.836 290.287 319.96 290.164 320.061C290.042 320.162 289.9 320.238 289.749 320.284C289.597 320.331 289.437 320.347 289.279 320.332C289.121 320.317 288.968 320.271 288.827 320.196C288.687 320.122 288.563 320.02 288.462 319.898C288.361 319.775 288.285 319.634 288.238 319.482C288.192 319.33 288.176 319.171 288.191 319.013C288.206 318.855 288.252 318.701 288.327 318.561C290.329 314.823 289.461 310.285 289.328 306.28C289.194 302.276 288.927 299.005 288.927 295.335C288.823 289.773 289.497 284.224 290.93 278.849C286.925 278.249 283.588 275.979 281.319 272.041Z" fill="#090909"/>
<path d="M274.177 298.471C275.378 294.734 276.846 290.996 279.983 288.794C281.318 287.859 282.586 290.062 281.251 290.996C278.515 292.932 277.38 296.336 276.246 299.606" fill="#090909"/>
<path d="M272.442 310.819C273.977 305.68 275.579 300.54 279.65 297.203C280.919 296.136 282.187 298.338 280.919 299.406C277.448 302.276 276.046 306.881 274.778 311.286" fill="#090909"/>
<path d="M226.657 62.3373H225.255L223.854 70.0794V99.4001L228.792 103.227V70.0794L226.657 62.3373Z" fill="#80A5AE"/>
<path d="M109.324 317.026C108.645 320.139 108.532 323.35 108.99 326.503C109.324 328.372 110.525 329.774 112.46 329.974C118.267 330.574 117.333 320.697 117.533 317.359C117.6 316.025 115.597 316.025 115.531 317.359C115.464 318.694 115.264 320.964 115.197 322.766C115.13 324.568 115.264 327.037 113.395 327.705C109.657 329.106 110.859 319.362 111.259 317.56C111.66 315.758 109.591 315.758 109.324 317.026Z" fill="#090909"/>
<path d="M185.61 317.092C185.477 319.896 184.409 327.771 189.148 327.438C190.75 327.304 193.085 325.969 193.619 324.367C194.153 322.766 193.753 322.165 193.753 321.097V316.225C193.753 315.959 193.647 315.705 193.46 315.517C193.272 315.329 193.017 315.224 192.752 315.224C192.486 315.224 192.232 315.329 192.044 315.517C191.856 315.705 191.751 315.959 191.751 316.225V320.763C191.751 322.565 191.951 324.634 189.682 325.235C187.412 325.836 187.613 323.3 187.546 321.831C187.479 320.363 187.546 318.694 187.613 317.092C187.679 315.491 185.677 315.824 185.61 317.092Z" fill="#090909"/>
<path d="M168.991 316.959C168.858 319.696 166.989 329.84 172.596 328.839C178.202 327.838 177.201 319.695 177.267 315.491C177.334 314.223 175.332 314.223 175.265 315.491C175.198 318.294 176.2 324.634 173.396 326.236C170.593 327.838 170.727 324.167 170.793 322.632L170.994 316.959C171.06 315.691 169.058 315.691 168.991 316.959Z" fill="#090909"/>
<path d="M135.421 316.759L135.154 323.433C135.087 324.835 134.82 326.37 135.287 327.638C135.755 328.906 137.69 330.04 139.425 329.774C145.899 328.639 144.765 319.362 144.832 314.756C144.898 313.488 142.896 313.488 142.829 314.756C142.829 318.294 143.83 324.768 140.493 327.104C137.156 329.44 137.09 325.635 137.156 323.433L137.423 316.759C137.49 315.491 135.488 315.491 135.421 316.759Z" fill="#090909"/>
<path d="M272.375 245.278C270.506 244.41 268.571 243.743 266.769 242.742V242.208C264.766 220.85 262.631 199.537 260.361 178.269C258.226 158.246 257.492 137.422 247.68 119.335C247.013 118.067 245.545 117.934 244.343 118.468C241.404 119.67 238.298 120.412 235.133 120.67C234.741 120.698 234.36 120.816 234.022 121.016C233.683 121.216 233.396 121.492 233.182 121.822C232.968 122.152 232.834 122.528 232.791 122.918C232.747 123.309 232.795 123.705 232.93 124.074H232.797C232.463 124.408 232.263 125.142 231.929 125.342C231.595 125.542 230.394 125.609 229.727 125.742C229.059 125.876 225.722 123.673 224.788 124.741C223.853 125.809 225.322 130.348 223.586 130.948C221.851 131.549 218.848 128.879 217.446 130.081C216.045 131.282 218.047 134.753 217.112 135.754C216.178 136.755 212.44 136.288 210.638 135.754C210.126 135.633 209.588 135.68 209.103 135.887C206.901 134.018 205.499 130.281 204.298 128.345C202.276 125.188 199.164 122.884 195.555 121.871C195.009 121.687 194.415 121.711 193.886 121.938C193.47 121.788 193.022 121.752 192.587 121.834C192.153 121.916 191.749 122.114 191.417 122.405C187.746 125.275 186.478 129.88 185.744 134.285C184.809 140.025 184.208 145.899 183.675 151.705C182.696 163.426 182.518 175.2 183.141 186.945C184.336 210.699 188.736 234.182 196.222 256.757C199.693 267.103 203.163 277.114 212.107 283.988C215.978 286.992 220.249 289.328 224.521 291.73C229.342 294.495 233.92 297.666 238.203 301.208C242.675 304.879 246.879 308.816 251.418 312.421C255.956 316.025 259.761 319.429 264.833 320.563C269.906 321.698 273.71 320.229 275.779 316.225C276.98 313.956 276.713 311.353 276.513 308.883C276.313 306.414 276.246 302.476 276.179 299.272C276.035 292.124 276.258 284.973 276.847 277.848C277.381 271.04 278.716 264.299 279.249 257.492C279.65 252.086 277.514 247.681 272.375 245.278ZM222.051 241.407H221.918C221.918 241.006 221.918 241.006 222.051 241.407ZM227.858 252.353C227.791 251.885 227.724 251.552 227.524 251.485C227.324 251.418 228.258 251.952 227.858 252.353ZM224.321 254.021H224.12C223.853 254.155 223.787 252.619 224.321 254.021ZM238.804 186.545C239.004 186.945 239.004 187.145 238.804 186.545V186.545ZM227.724 159.381C227.724 159.114 227.724 158.913 227.791 158.98C227.858 159.047 227.925 159.247 227.724 159.381ZM199.759 213.242C199.225 213.442 199.426 213.242 199.759 213.242V213.242ZM248.214 278.449L248.081 278.182C248.288 278.237 248.474 278.353 248.615 278.516L248.214 278.449ZM261.363 238.203C261.353 238.109 261.376 238.015 261.429 237.936C261.419 238.095 261.441 238.254 261.496 238.403L261.363 238.203ZM259.894 222.852C259.894 222.835 259.901 222.818 259.914 222.805C259.926 222.793 259.943 222.786 259.961 222.786V222.986C259.957 222.934 259.933 222.887 259.894 222.852ZM269.906 315.424L270.907 314.49C270.66 314.883 270.315 315.205 269.906 315.424Z" fill="#090909"/>
<path d="M185.877 121.337H114.997C106.887 121.337 100.313 127.911 100.313 136.021V302.823C100.313 310.932 106.887 317.506 114.997 317.506H185.877C193.986 317.506 200.56 310.932 200.56 302.823V136.021C200.56 127.911 193.986 121.337 185.877 121.337Z" fill="#80A5AE"/>
<path d="M213.975 53.3938C209.771 53.3938 205.9 51.9255 203.363 49.1223C199.826 45.2513 199.893 39.9787 199.96 38.3101C200.055 34.005 201.662 29.8706 204.498 26.6302C204.607 26.4918 204.744 26.3778 204.9 26.2953C205.056 26.2128 205.227 26.1637 205.403 26.1511C205.579 26.1385 205.755 26.1628 205.921 26.2223C206.087 26.2818 206.239 26.3753 206.367 26.4967C206.505 26.606 206.619 26.7428 206.702 26.8987C206.784 27.0545 206.833 27.2258 206.846 27.4016C206.858 27.5775 206.834 27.754 206.775 27.92C206.715 28.086 206.622 28.2377 206.5 28.3655C204.087 31.0995 202.716 34.5976 202.629 38.2433C202.563 39.9786 202.496 44.2502 205.366 47.3203C208.236 50.3905 214.643 51.7253 220.383 49.3893C220.71 49.2572 221.077 49.2603 221.402 49.3979C221.727 49.5355 221.985 49.7964 222.118 50.1235C222.25 50.451 222.247 50.8175 222.109 51.1428C221.972 51.468 221.711 51.7255 221.384 51.8588C219.045 52.8702 216.524 53.3926 213.975 53.3938Z" fill="#090909"/>
<path d="M230.995 45.4515C229.204 45.1282 227.505 44.417 226.018 43.3678C224.53 42.3187 223.291 40.9569 222.385 39.378C221.05 37.1755 220.65 35.8406 218.581 33.7049C212.708 27.7648 207.435 30.5012 197.29 23.0261C194.687 21.0906 192.151 18.8213 191.484 15.4175C190.816 12.0136 191.817 9.27722 192.351 9.27722C192.885 9.27722 192.618 10.4118 193.219 11.3462C194.887 14.3496 200.894 14.1494 204.231 14.1494C207.568 14.1494 216.178 14.2161 222.185 16.3519C229.927 19.0883 235.934 26.4967 236.868 33.8384C237.469 39.111 235.6 44.8508 235.133 46.1857L230.995 45.4515Z" fill="#090909"/>
<path d="M220.449 35.1732C220.494 34.9714 220.592 34.7854 220.734 34.6354C220.876 34.4854 221.057 34.3771 221.256 34.3222C221.455 34.2672 221.666 34.2677 221.865 34.3236C222.064 34.3795 222.243 34.4886 222.385 34.6393C222.633 34.9949 222.808 35.3964 222.9 35.8204C222.992 36.2443 222.998 36.6823 222.919 37.1087C222.852 37.6427 222.452 37.7762 221.918 37.7762C221.384 37.7762 221.25 37.576 221.25 36.9753C221.25 36.3746 221.317 36.2411 221.651 36.0409L222.719 35.9074L222.518 35.6404C222.385 35.1732 221.984 34.7728 222.118 34.1721L221.451 34.9062H221.651L220.917 34.7728L221.117 34.9062L220.65 34.3056C220.791 34.8497 220.837 35.4144 220.783 35.9741V37.8429L222.051 36.9085V35.3734C222.002 34.8274 221.738 34.3234 221.317 33.9719C220.383 33.1042 218.914 34.5058 219.915 35.3734C220.917 36.2411 220.049 36.8418 220.182 37.4424C220.288 37.76 220.462 38.0504 220.693 38.2927C220.924 38.535 221.205 38.7233 221.517 38.8441C221.669 38.8861 221.828 38.8918 221.983 38.8608C222.137 38.8297 222.282 38.7627 222.405 38.6651C222.529 38.5676 222.628 38.4423 222.694 38.2995C222.76 38.1566 222.791 38.0002 222.785 37.8429C222.785 36.8418 222.719 35.7739 222.719 34.7728C222.74 34.4327 222.67 34.0933 222.518 33.7886C222.366 33.4839 222.136 33.2248 221.851 33.0375C220.049 32.2366 219.915 34.6393 220.249 35.7072C220.583 36.775 221.718 38.5103 223.119 37.9096C224.521 37.309 224.12 35.3067 223.119 34.5725C220.182 32.37 217.579 37.8429 220.182 39.5115C220.821 39.8258 221.534 39.9549 222.242 39.8841C222.95 39.8133 223.624 39.5455 224.187 39.111C225.188 38.1099 224.988 36.1743 224.587 34.9062C224.187 33.6381 223.119 32.2366 221.517 32.3033C220.728 32.3315 219.975 32.6444 219.399 33.1842C218.822 33.724 218.461 34.4542 218.38 35.24C218.247 36.5081 220.249 36.5081 220.383 35.24L220.449 35.1732Z" fill="white"/>
<path d="M206.901 48.9889C198.825 52.059 190.549 55.1959 183.608 60.4018C176.807 65.3948 171.985 72.6268 169.992 80.8249C167.79 89.2344 166.054 99.9132 171.327 107.455C173.759 111.107 176.729 114.369 180.137 117.133C183.341 119.535 187.145 120.737 190.949 121.938C196.289 123.607 200.56 125.409 203.897 130.081C205.966 133.084 207.835 136.288 211.506 137.422C212.707 137.823 213.241 135.887 212.04 135.554C207.501 134.085 205.966 128.612 202.763 125.475C199.559 122.339 196.088 121.404 192.418 120.27C187.278 118.668 182.607 117.066 178.735 113.195C174.864 109.324 170.192 103.717 169.992 96.9765C169.592 85.8973 172.662 73.4832 180.671 65.4742C188.68 57.4651 197.957 54.4617 207.435 50.9244C208.636 50.5239 208.102 48.5884 206.901 48.9889Z" fill="#090909"/>
<path d="M211.44 137.222C214.043 137.756 216.045 137.689 218.047 135.887C218.745 135.329 219.276 134.591 219.582 133.752C219.807 133.31 219.965 132.838 220.049 132.35C220.183 131.482 220.116 132.083 219.649 132.15C220.45 132.016 221.518 132.617 222.385 132.55C223.449 132.446 224.465 132.054 225.322 131.416C226.523 130.281 226.056 126.877 227.257 126.477C228.459 126.076 229.393 127.211 230.261 127.077C231.14 126.974 231.972 126.628 232.664 126.076C234.065 125.008 234.199 123.607 234.265 121.938C234.354 120.65 234.377 119.358 234.332 118.067C234.236 116.84 233.989 115.63 233.598 114.463C233.264 113.862 232.263 113.395 232.063 112.861L231.129 114.129C232.397 114.129 233.131 115.397 234.532 114.997C235.934 114.596 236.802 113.195 236.802 111.66C236.802 106.187 231.062 104.318 227.458 101.181C222.652 97.0432 218.381 91.8373 212.708 88.7672C210.238 87.4324 207.435 87.0986 204.699 86.7649C201.962 86.4312 197.157 85.8973 193.352 85.5636C192.084 85.4301 192.084 87.4324 193.352 87.5658C198.492 88.033 204.031 88.1665 208.97 89.5013C213.909 90.8362 217.647 94.774 221.117 98.0444C224.1 100.869 227.242 103.521 230.528 105.987C231.929 106.988 236.067 109.724 234.799 111.993C233.531 114.263 232.196 112.127 231.129 112.127C230.977 112.132 230.828 112.171 230.694 112.241C230.56 112.312 230.443 112.412 230.353 112.534C230.263 112.656 230.202 112.797 230.174 112.946C230.147 113.095 230.154 113.249 230.194 113.395C230.328 113.862 230.595 113.996 230.862 114.463C231.492 115.395 231.944 116.436 232.196 117.533C232.352 118.527 232.374 119.537 232.263 120.537C232.13 123.139 232.397 125.475 228.459 124.808C227.258 124.608 226.323 124.007 225.255 124.942C224.187 125.876 224.521 126.41 224.521 127.344C224.388 129.346 223.587 130.748 221.184 130.481C220.75 130.331 220.303 130.219 219.849 130.147C219.549 130.095 219.239 130.138 218.964 130.269C218.689 130.401 218.462 130.615 218.314 130.882C217.98 131.282 218.114 132.083 217.914 132.55C217.046 135.153 214.443 135.754 211.974 135.287C210.772 135.02 210.238 136.955 211.44 137.222Z" fill="#090909"/>
<path d="M206.901 87.5659C206.501 84.0285 206.968 80.5579 205.433 77.2876C204.899 76.0862 203.23 77.0873 203.764 78.2887C205.032 81.1586 204.565 84.4957 204.899 87.5659C205.032 88.834 207.035 88.834 206.901 87.5659Z" fill="#090909"/>
<path d="M199.092 122.138C199.359 119.335 201.628 116.398 203.163 113.996C204.673 111.652 206.322 109.401 208.102 107.255C211.408 103.256 215.617 100.099 220.382 98.0444C221.517 97.5772 221.05 95.5749 219.848 96.1088C214.309 98.3781 209.77 102.116 205.966 106.721C204.118 109.048 202.402 111.476 200.827 113.996C199.225 116.532 197.356 119.068 197.089 122.138C196.956 123.473 198.958 123.473 199.092 122.138Z" fill="#090909"/>
<path d="M245.878 118.334C244.676 102.049 250.55 84.8962 242.741 69.6122C242.14 68.4108 240.405 69.4787 241.005 70.6133C248.614 85.4968 242.741 102.516 243.875 118.334C243.942 119.602 245.944 119.602 245.878 118.334Z" fill="#090909"/>
<path d="M227.725 40.7795C227.62 42.754 227.914 44.7295 228.591 46.5875C229.267 48.4454 230.312 50.1475 231.663 51.5918C234.933 54.9956 239.004 55.5963 243.476 56.4639C249.75 57.732 255.556 60.4685 261.296 63.3384C267.036 66.2083 271.441 68.7445 274.645 74.0839C281.119 84.8962 282.053 98.1111 276.447 109.457C270.841 120.804 261.697 127.678 251.619 133.685C251.505 133.755 251.406 133.847 251.327 133.955C251.249 134.064 251.193 134.186 251.162 134.316C251.131 134.447 251.126 134.582 251.147 134.714C251.168 134.846 251.215 134.972 251.285 135.086C251.355 135.2 251.447 135.299 251.555 135.378C251.664 135.456 251.787 135.512 251.917 135.543C252.047 135.574 252.182 135.58 252.314 135.558C252.446 135.537 252.573 135.49 252.687 135.42C262.164 129.747 271.174 122.672 276.847 112.995C282.52 103.317 283.655 91.3034 279.65 80.1574C277.982 75.4855 275.646 70.8803 271.908 67.4764C268.171 64.0726 262.298 61.5364 257.359 59.2004C251.98 56.7839 246.335 55.014 240.539 53.9277C234.065 52.5262 229.394 47.654 229.727 40.7795C229.794 39.5114 227.792 39.5114 227.725 40.7795Z" fill="#090909"/>
<path d="M210.706 53.1268C212.194 55.7927 214.328 58.0418 216.913 59.6676C219.716 61.5364 221.518 63.2049 225.055 63.3384C230.862 63.5387 234.132 57.1981 233.798 52.1257C233.732 50.8576 231.729 50.8576 231.796 52.1257C232.13 57.4651 227.992 63.1382 222.119 60.7355C220.517 60.068 218.915 58.6665 217.447 57.6653C215.316 56.2672 213.59 54.3339 212.441 52.059C211.84 50.9244 210.105 51.9922 210.706 53.1268Z" fill="#090909"/>
<path d="M200.894 53.5941C204.098 56.8644 208.436 58.7332 211.239 62.404C212.374 63.8724 213.241 65.4742 214.443 66.9425C215.644 68.4108 217.246 69.9459 218.114 71.8815C218.201 72.0339 218.328 72.1606 218.48 72.2487C218.632 72.3368 218.805 72.3831 218.981 72.3831C219.157 72.3831 219.33 72.3368 219.482 72.2487C219.635 72.1606 219.761 72.0339 219.849 71.8815C220.917 69.6122 223.253 66.1416 225.522 64.8067C225.922 63.8056 226.323 63.6721 226.79 64.4063C227.313 64.8848 227.804 65.3976 228.258 65.9414C229.463 67.4078 230.39 69.0814 230.995 70.8803C231.06 71.063 231.175 71.2244 231.325 71.3471C231.476 71.4697 231.657 71.549 231.849 71.5765C232.041 71.604 232.237 71.5785 232.416 71.5029C232.595 71.4273 232.749 71.3043 232.864 71.1473C236.172 66.3698 238.026 60.7371 238.203 54.9289C238.27 53.6608 236.267 53.6608 236.201 54.9289C236.005 60.383 234.245 65.6657 231.128 70.1461L232.93 70.3464C232.129 68.0104 229.326 61.8034 226.189 61.8701C224.654 61.8701 223.386 64.0726 222.519 65.0737C221.651 66.0749 219.181 68.6111 218.114 70.8803H219.849C219.05 69.2879 218.015 67.8253 216.779 66.5421C215.11 64.6733 213.909 62.5375 212.307 60.602C209.504 57.1314 205.433 55.3294 202.296 52.1925C201.361 51.2581 199.96 52.7264 200.894 53.5941Z" fill="#090909"/>
<path d="M238.804 147.634C233.131 154.842 232.797 163.852 233.531 172.662C234.454 183.248 234.744 193.878 234.399 204.498C234.199 212.24 234.799 220.45 240.94 225.923C244.677 229.193 249.016 231.796 253.02 234.666L266.369 244.076C267.436 244.811 268.438 243.075 267.37 242.341C259.895 237.069 252.286 231.863 244.944 226.457C241.006 223.587 238.27 220.249 237.135 215.444C236.001 210.639 236.268 207.435 236.401 203.497C236.858 194.263 236.679 185.009 235.867 175.799C235 166.655 234.199 156.644 240.272 149.035C241.006 148.034 239.605 146.633 238.804 147.634Z" fill="white"/>
<path d="M258.76 281.786C258.226 279.917 255.957 279.183 254.288 278.315C251.658 277 248.963 275.82 246.213 274.778C239.939 272.242 233.598 269.839 228.192 265.634C227.191 264.833 225.79 266.235 226.791 267.036C230.862 270.239 235.467 272.509 240.206 274.444C243.076 275.712 246.012 276.78 248.949 278.048C250.551 278.716 256.291 280.518 256.825 282.32C256.896 282.577 257.065 282.795 257.297 282.926C257.528 283.057 257.803 283.091 258.059 283.021C258.316 282.95 258.534 282.78 258.666 282.548C258.797 282.317 258.831 282.043 258.76 281.786Z" fill="white"/>
<path d="M218.514 257.091C213.642 254.822 210.371 250.55 207.235 246.346C206.434 245.345 204.698 246.346 205.499 247.347C208.836 251.819 212.307 256.357 217.513 258.827C218.647 259.361 219.715 257.692 218.514 257.091Z" fill="white"/>
<path d="M244.678 163.652C247.467 177.061 249.561 190.606 250.951 204.231C251.085 205.566 253.087 205.566 252.954 204.231C251.541 190.428 249.425 176.706 246.613 163.118C246.346 161.85 244.411 162.384 244.678 163.652Z" fill="white"/>
<path d="M253.487 215.978C253.622 218.046 254.026 220.088 254.688 222.052C255.089 223.253 257.024 222.719 256.624 221.518C256.016 219.726 255.635 217.865 255.489 215.978C255.356 214.71 253.353 214.643 253.487 215.978Z" fill="white"/>
<path d="M208.37 157.578C211.742 155.234 214.065 151.666 214.844 147.634C215.111 146.366 213.175 145.832 212.908 147.1C212.271 150.625 210.284 153.762 207.369 155.843C206.301 156.577 207.302 158.379 208.37 157.578Z" fill="white"/>
<path d="M243.275 134.285C244.526 137.673 246.907 140.526 250.016 142.361C250.246 142.503 250.523 142.547 250.786 142.485C251.049 142.422 251.276 142.258 251.418 142.028C251.56 141.797 251.604 141.52 251.541 141.258C251.479 140.995 251.314 140.768 251.084 140.626C248.375 139.101 246.294 136.665 245.211 133.752C244.744 132.55 242.808 133.084 243.275 134.285Z" fill="white"/>
<path d="M269.238 308.75L267.769 290.129C267.636 288.86 265.634 288.86 265.767 290.129L267.235 308.75C267.302 310.018 269.304 310.018 269.238 308.75Z" fill="white"/>
<path d="M270.506 271.508V265.968C270.506 265.702 270.401 265.448 270.213 265.26C270.025 265.072 269.771 264.967 269.505 264.967C269.24 264.967 268.985 265.072 268.797 265.26C268.609 265.448 268.504 265.702 268.504 265.968V271.508C268.504 271.773 268.609 272.028 268.797 272.215C268.985 272.403 269.24 272.509 269.505 272.509C269.771 272.509 270.025 272.403 270.213 272.215C270.401 272.028 270.506 271.773 270.506 271.508Z" fill="white"/>
<path d="M218.915 75.5522H209.237C208.574 75.5522 208.036 76.0901 208.036 76.7536V81.4723C208.036 82.1358 208.574 82.6736 209.237 82.6736H218.915C219.579 82.6736 220.116 82.1358 220.116 81.4723V76.7536C220.116 76.0901 219.579 75.5522 218.915 75.5522Z" fill="#CBC7DB"/>
<path d="M56.6257 288.094C59.9751 287.564 60.3765 272.524 57.5222 254.503C54.6678 236.482 49.6387 222.302 46.2893 222.833C42.9399 223.363 42.5385 238.403 45.3928 256.424C48.2471 274.446 53.2762 288.625 56.6257 288.094Z" fill="#80A5AE"/>
<path d="M66.6763 288.727C71.8736 288.727 76.087 264.822 76.087 235.333C76.087 205.845 71.8736 181.939 66.6763 181.939C61.4789 181.939 57.2656 205.845 57.2656 235.333C57.2656 264.822 61.4789 288.727 66.6763 288.727Z" fill="#80A5AE"/>
<path d="M82.218 261.715C83.8651 247.694 83.1824 236.091 80.693 235.798C78.2035 235.506 74.8502 246.635 73.2031 260.656C71.556 274.678 72.2388 286.281 74.7282 286.574C77.2176 286.866 80.5709 275.737 82.218 261.715Z" fill="#80A5AE"/>
<path d="M83.1603 278.582L84.8289 264.5H42.7812L49.856 325.969H65.6738L73.149 326.169C74.6173 326.236 76.6863 326.703 78.0212 325.969C80.3571 324.835 79.8232 320.363 79.9567 318.361C80.2904 314.089 80.4239 309.884 80.4906 305.613C80.4906 305.212 80.5574 304.812 80.5574 304.411L81.2248 297.604C81.5585 294.534 81.8922 291.463 82.1592 288.393L82.3594 286.925C82.9413 284.294 83.2544 281.61 83.2938 278.916C83.2713 278.797 83.226 278.684 83.1603 278.582ZM78.0879 322.632L78.3549 320.496C78.3775 321.218 78.2874 321.938 78.0879 322.632Z" fill="#CBC7DB"/>
<path d="M53.7947 263.365L48.3886 234.065C48.1884 232.997 46.5866 233.464 46.7868 234.466L52.193 263.832C52.3932 264.833 53.9282 264.433 53.7947 263.365Z" fill="white"/>
<path d="M66.0749 192.018C65.1948 197.511 64.815 203.074 64.9403 208.636C65.0738 215.044 66.0749 221.317 64.9403 227.725C62.8045 239.204 63.8724 251.285 64.0726 262.898C64.1244 263.079 64.2339 263.239 64.3844 263.352C64.5349 263.466 64.7184 263.527 64.9069 263.527C65.0955 263.527 65.2789 263.466 65.4295 263.352C65.58 263.239 65.6894 263.079 65.7412 262.898C65.4742 251.018 64.6733 238.871 66.6756 227.124C67.61 221.584 66.8758 216.245 66.6088 210.705C66.4059 204.614 66.7409 198.517 67.61 192.485C67.8102 191.417 66.2084 190.95 66.0749 192.018Z" fill="white"/>
<path d="M78.4893 247.614C77.2879 250.417 77.6216 253.42 76.754 256.29C75.8863 259.16 74.8852 260.695 75.4191 263.298C75.6194 264.366 77.2212 263.899 77.0209 262.898C76.4203 260.161 78.2891 257.558 78.7563 254.955C79.2235 252.353 79.1567 250.284 80.0911 248.014C80.4916 247.013 78.8897 246.613 78.4893 247.614Z" fill="white"/>
<path d="M58.6669 275.245H51.3921C48.7224 275.245 44.7178 276.046 44.1171 272.442C43.784 270.564 43.3156 268.713 42.7156 266.902C42.0481 265.1 42.6488 265.434 44.3173 265.367C45.9859 265.3 47.1205 265.501 48.4554 265.567C48.6367 265.516 48.7962 265.406 48.9097 265.256C49.0233 265.105 49.0847 264.922 49.0847 264.733C49.0847 264.545 49.0233 264.361 48.9097 264.211C48.7962 264.06 48.6367 263.951 48.4554 263.899C46.5198 263.832 44.2506 263.432 42.3151 263.699C41.3807 263.765 40.9135 263.899 40.6465 264.767C40.3796 265.634 40.9135 266.836 41.2472 267.77C41.8033 269.515 42.2272 271.3 42.5153 273.109C42.849 274.845 43.5832 275.979 44.9848 276.513C44.8396 287.123 45.3299 297.732 46.4531 308.283C46.987 313.288 47.6545 318.227 48.3886 323.233C48.5889 324.367 48.5889 325.502 49.59 326.169C50.5911 326.837 51.926 326.37 52.7269 326.37H57.0651C57.2464 326.318 57.4059 326.208 57.5195 326.058C57.633 325.907 57.6945 325.724 57.6945 325.535C57.6945 325.347 57.633 325.163 57.5195 325.013C57.4059 324.862 57.2464 324.753 57.0651 324.701C55.3298 324.701 50.9916 325.369 50.1907 323.833C49.3898 322.298 49.3898 318.828 49.1228 317.026C48.5221 312.354 47.9882 307.682 47.5877 303.01C46.8536 294.333 46.5198 285.59 46.6533 276.914C50.5244 277.314 54.7291 276.847 58.6669 276.847C58.8793 276.847 59.0831 276.762 59.2333 276.612C59.3835 276.462 59.4678 276.258 59.4678 276.046C59.4678 275.834 59.3835 275.63 59.2333 275.48C59.0831 275.329 58.8793 275.245 58.6669 275.245Z" fill="#090909"/>
<path d="M63.8052 275.245H61.6027C61.3903 275.245 61.1866 275.329 61.0364 275.48C60.8862 275.63 60.8018 275.834 60.8018 276.046C60.8018 276.258 60.8862 276.462 61.0364 276.612C61.1866 276.763 61.3903 276.847 61.6027 276.847H63.8052C64.0176 276.847 64.2213 276.763 64.3715 276.612C64.5217 276.462 64.6061 276.258 64.6061 276.046C64.6061 275.834 64.5217 275.63 64.3715 275.48C64.2213 275.329 64.0176 275.245 63.8052 275.245Z" fill="#090909"/>
<path d="M67.8107 275.245C67.5983 275.245 67.3946 275.329 67.2444 275.48C67.0942 275.63 67.0098 275.834 67.0098 276.046C67.0098 276.258 67.0942 276.462 67.2444 276.612C67.3946 276.763 67.5983 276.847 67.8107 276.847C68.0231 276.847 68.2268 276.763 68.377 276.612C68.5272 276.462 68.6116 276.258 68.6116 276.046C68.6116 275.834 68.5272 275.63 68.377 275.48C68.2268 275.329 68.0231 275.245 67.8107 275.245Z" fill="#090909"/>
<path d="M85.6973 264.566C84.7629 263.165 81.6261 263.699 80.2245 263.632C80.1006 263.626 79.9769 263.647 79.8618 263.693C79.7467 263.739 79.6428 263.809 79.5571 263.899L69.4789 264.099C69.2976 264.151 69.1382 264.26 69.0246 264.411C68.9111 264.561 68.8496 264.745 68.8496 264.933C68.8496 265.122 68.9111 265.305 69.0246 265.456C69.1382 265.607 69.2976 265.716 69.4789 265.768L81.893 265.501C81.9909 265.505 82.0885 265.489 82.1802 265.455C82.2719 265.42 82.3558 265.368 82.427 265.301C82.9392 265.324 83.4303 265.512 83.8285 265.834C84.496 266.569 83.7618 267.57 83.695 268.571C83.4948 270.573 83.8953 276.313 80.3579 275.112C80.1544 275.05 79.9346 275.071 79.7468 275.171C79.5591 275.271 79.4187 275.442 79.3568 275.646C79.2948 275.849 79.3163 276.069 79.4164 276.257C79.5166 276.444 79.6872 276.585 79.8908 276.647C84.0955 278.048 85.0967 273.176 85.2301 270.173C85.2969 268.704 85.8308 267.503 86.031 266.101C86.0805 265.568 85.964 265.031 85.6973 264.566Z" fill="#090909"/>
<path d="M147.367 96.7095H110.859C110.048 96.7095 109.391 97.3669 109.391 98.1778V120.723C109.391 121.534 110.048 122.192 110.859 122.192H147.367C148.178 122.192 148.835 121.534 148.835 120.723V98.1778C148.835 97.3669 148.178 96.7095 147.367 96.7095Z" fill="#CBC7DB"/>
<path d="M106.721 71.481H140.493C141.236 71.481 141.949 71.7763 142.475 72.302C143.001 72.8277 143.296 73.5407 143.296 74.2841V94.1066C143.296 94.8563 143.003 95.5764 142.479 96.1127C141.955 96.649 141.242 96.9591 140.493 96.9765H106.721C105.983 96.9595 105.28 96.6588 104.758 96.1367C104.236 95.6146 103.935 94.9114 103.918 94.1733V74.2841C103.935 73.546 104.236 72.8428 104.758 72.3208C105.28 71.7987 105.983 71.4979 106.721 71.481Z" fill="#CBC7DB"/>
<path d="M147.568 46.7863H113.996C112.374 46.7863 111.06 48.1011 111.06 49.723V69.3319C111.06 70.9537 112.374 72.2686 113.996 72.2686H147.568C149.189 72.2686 150.504 70.9537 150.504 69.3319V49.723C150.504 48.1011 149.189 46.7863 147.568 46.7863Z" fill="#CBC7DB"/>
<path d="M115.13 52.059H121.137C121.402 52.059 121.657 51.9535 121.845 51.7658C122.033 51.578 122.138 51.3234 122.138 51.0578C122.138 50.7923 122.033 50.5377 121.845 50.3499C121.657 50.1622 121.402 50.0567 121.137 50.0567H115.13C114.865 50.0567 114.61 50.1622 114.422 50.3499C114.234 50.5377 114.129 50.7923 114.129 51.0578C114.129 51.3234 114.234 51.578 114.422 51.7658C114.61 51.9535 114.865 52.059 115.13 52.059Z" fill="#090909"/>
<path d="M125.943 52.1925H138.557C138.822 52.1925 139.077 52.087 139.265 51.8992C139.452 51.7115 139.558 51.4568 139.558 51.1913C139.558 50.9258 139.452 50.6712 139.265 50.4834C139.077 50.2957 138.822 50.1902 138.557 50.1902H125.943C125.677 50.1902 125.422 50.2957 125.235 50.4834C125.047 50.6712 124.941 50.9258 124.941 51.1913C124.941 51.4568 125.047 51.7115 125.235 51.8992C125.422 52.087 125.677 52.1925 125.943 52.1925Z" fill="#090909"/>
<path d="M119.936 59.0669H142.962C143.227 59.0669 143.482 58.9614 143.67 58.7737C143.857 58.5859 143.963 58.3313 143.963 58.0658C143.963 57.8003 143.857 57.5456 143.67 57.3579C143.482 57.1701 143.227 57.0646 142.962 57.0646H119.936C119.67 57.0646 119.416 57.1701 119.228 57.3579C119.04 57.5456 118.935 57.8003 118.935 58.0658C118.935 58.3313 119.04 58.5859 119.228 58.7737C119.416 58.9614 119.67 59.0669 119.936 59.0669Z" fill="#090909"/>
<path d="M115.398 64.8067H125.676C125.941 64.8067 126.196 64.7012 126.384 64.5135C126.572 64.3257 126.677 64.0711 126.677 63.8056C126.677 63.5401 126.572 63.2855 126.384 63.0977C126.196 62.91 125.941 62.8044 125.676 62.8044H115.398C115.132 62.8044 114.877 62.91 114.69 63.0977C114.502 63.2855 114.396 63.5401 114.396 63.8056C114.396 64.0711 114.502 64.3257 114.69 64.5135C114.877 64.7012 115.132 64.8067 115.398 64.8067Z" fill="#090909"/>
<path d="M127.878 64.8067H133.885C134.15 64.8067 134.405 64.7012 134.593 64.5135C134.781 64.3257 134.886 64.0711 134.886 63.8056C134.886 63.5401 134.781 63.2855 134.593 63.0977C134.405 62.91 134.15 62.8044 133.885 62.8044H127.878C127.613 62.8044 127.358 62.91 127.17 63.0977C126.982 63.2855 126.877 63.5401 126.877 63.8056C126.877 64.0711 126.982 64.3257 127.17 64.5135C127.358 64.7012 127.613 64.8067 127.878 64.8067Z" fill="#090909"/>
<path d="M122.405 77.2875H134.486C134.751 77.2875 135.006 77.1821 135.193 76.9943C135.381 76.8066 135.487 76.5519 135.487 76.2864C135.487 76.0209 135.381 75.7662 135.193 75.5785C135.006 75.3907 134.751 75.2853 134.486 75.2853H122.405C121.137 75.352 121.137 77.3543 122.405 77.2875Z" fill="#090909"/>
<path d="M110.859 77.2875H118.267C118.532 77.2875 118.787 77.1821 118.975 76.9943C119.163 76.8066 119.268 76.5519 119.268 76.2864C119.268 76.0209 119.163 75.7662 118.975 75.5785C118.787 75.3907 118.532 75.2853 118.267 75.2853H110.859C110.593 75.2853 110.338 75.3907 110.151 75.5785C109.963 75.7662 109.857 76.0209 109.857 76.2864C109.857 76.5519 109.963 76.8066 110.151 76.9943C110.338 77.1821 110.593 77.2875 110.859 77.2875Z" fill="#090909"/>
<path d="M108.724 83.0941H126.077C127.412 83.0274 127.412 81.0251 126.077 81.0918H108.724C107.389 81.1586 107.389 83.1609 108.724 83.0941Z" fill="#090909"/>
<path d="M131.015 82.8939H133.484C133.75 82.8939 134.004 82.7885 134.192 82.6007C134.38 82.413 134.485 82.1583 134.485 81.8928C134.485 81.6273 134.38 81.3726 134.192 81.1849C134.004 80.9971 133.75 80.8917 133.484 80.8917H131.015C130.749 80.8917 130.495 80.9971 130.307 81.1849C130.119 81.3726 130.014 81.6273 130.014 81.8928C130.014 82.1583 130.119 82.413 130.307 82.6007C130.495 82.7885 130.749 82.8939 131.015 82.8939Z" fill="#090909"/>
<path d="M114.329 91.3702H137.756C138.021 91.3702 138.276 91.2647 138.464 91.0769C138.651 90.8892 138.757 90.6346 138.757 90.3691C138.757 90.1035 138.651 89.8489 138.464 89.6611C138.276 89.4734 138.021 89.3679 137.756 89.3679H114.329C114.064 89.3679 113.809 89.4734 113.621 89.6611C113.434 89.8489 113.328 90.1035 113.328 90.3691C113.328 90.6346 113.434 90.8892 113.621 91.0769C113.809 91.2647 114.064 91.3702 114.329 91.3702Z" fill="#090909"/>
<path d="M115.265 102.383L124.876 102.583C126.144 102.65 126.144 100.647 124.876 100.581L115.265 100.38C114.999 100.38 114.745 100.486 114.557 100.674C114.369 100.861 114.264 101.116 114.264 101.382C114.264 101.647 114.369 101.902 114.557 102.089C114.745 102.277 114.999 102.383 115.265 102.383Z" fill="#090909"/>
<path d="M116.933 106.988H136.755C137.021 106.988 137.275 106.882 137.463 106.695C137.651 106.507 137.756 106.252 137.756 105.987C137.756 105.721 137.651 105.467 137.463 105.279C137.275 105.091 137.021 104.986 136.755 104.986H116.933C116.667 104.986 116.413 105.091 116.225 105.279C116.037 105.467 115.932 105.721 115.932 105.987C115.932 106.252 116.037 106.507 116.225 106.695C116.413 106.882 116.667 106.988 116.933 106.988Z" fill="#090909"/>
<path d="M128.68 102.316H129.281C129.546 102.316 129.801 102.21 129.988 102.023C130.176 101.835 130.282 101.58 130.282 101.315C130.282 101.049 130.176 100.795 129.988 100.607C129.801 100.419 129.546 100.314 129.281 100.314H128.68C128.414 100.314 128.16 100.419 127.972 100.607C127.784 100.795 127.679 101.049 127.679 101.315C127.695 101.575 127.805 101.821 127.99 102.005C128.174 102.19 128.42 102.3 128.68 102.316Z" fill="#090909"/>
<path d="M119.135 116.599C127.611 116.198 136.087 116.065 144.564 116.132C144.829 116.132 145.084 116.026 145.272 115.838C145.459 115.651 145.565 115.396 145.565 115.13C145.565 114.865 145.459 114.61 145.272 114.423C145.084 114.235 144.829 114.129 144.564 114.129C136.087 114.063 127.611 114.196 119.135 114.597C117.8 114.663 117.8 116.666 119.135 116.599Z" fill="#090909"/>
<path d="M135.82 112.327H143.095C143.361 112.327 143.616 112.222 143.803 112.034C143.991 111.846 144.096 111.592 144.096 111.326C144.096 111.061 143.991 110.806 143.803 110.618C143.616 110.43 143.361 110.325 143.095 110.325H135.82C135.555 110.325 135.3 110.43 135.113 110.618C134.925 110.806 134.819 111.061 134.819 111.326C134.819 111.592 134.925 111.846 135.113 112.034C135.3 112.222 135.555 112.327 135.82 112.327Z" fill="#090909"/>
<path d="M67.9436 110.392L79.49 103.784L87.0986 160.315C87.4547 162.844 87.0087 165.422 85.8234 167.685C84.6382 169.947 82.7733 171.782 80.4911 172.929L69.6789 178.335L55.8633 147.634C52.8987 141.034 52.4933 133.567 54.7258 126.685C56.9583 119.802 61.6692 113.995 67.9436 110.392Z" fill="#CBC7DB"/>
<path d="M78.1553 103.651C75.8858 104.931 73.8942 106.651 72.2965 108.71C70.6989 110.768 69.5273 113.124 68.85 115.641C68.1728 118.157 68.0036 120.783 68.3522 123.365C68.7008 125.948 69.5603 128.435 70.8804 130.681L71.7481 129.146C68.3442 129.347 64.7401 129.814 63.0716 133.151C61.403 136.488 61.136 142.762 61.403 146.967C61.721 151.721 62.8261 156.39 64.6734 160.782C66.9426 166.055 70.213 171.06 69.679 177.001C69.5455 178.335 71.5478 178.335 71.6813 177.001C72.4155 168.925 66.6756 162.117 64.6734 154.575C63.5092 150.228 63.1028 145.712 63.472 141.227C63.6722 139.224 63.8057 136.822 64.5399 134.886C65.808 131.682 68.6779 131.282 71.7481 131.149C71.9212 131.134 72.088 131.077 72.2342 130.983C72.3804 130.889 72.5015 130.761 72.587 130.61C72.6725 130.459 72.7198 130.289 72.7248 130.115C72.7298 129.942 72.6923 129.769 72.6157 129.614C71.4194 127.602 70.639 125.371 70.3206 123.053C70.0023 120.735 70.1526 118.376 70.7625 116.117C71.3724 113.857 72.4296 111.743 73.8715 109.9C75.3133 108.057 77.1105 106.522 79.1564 105.386C79.3866 105.253 79.5545 105.035 79.6234 104.778C79.6922 104.521 79.6563 104.248 79.5235 104.018C79.3908 103.788 79.172 103.62 78.9154 103.551C78.6589 103.482 78.3854 103.518 78.1553 103.651Z" fill="#090909"/>
<path d="M135.754 142.561L137.222 218.114C137.289 219.449 139.291 219.449 139.225 218.114L137.756 142.561C137.756 142.296 137.651 142.041 137.463 141.854C137.275 141.666 137.021 141.56 136.755 141.56C136.49 141.56 136.235 141.666 136.047 141.854C135.859 142.041 135.754 142.296 135.754 142.561Z" fill="#090909"/>
<path d="M138.823 231.996V236.802C138.823 237.067 138.929 237.322 139.116 237.51C139.304 237.697 139.559 237.803 139.824 237.803C140.09 237.803 140.345 237.697 140.532 237.51C140.72 237.322 140.826 237.067 140.826 236.802V231.996C140.826 231.731 140.72 231.476 140.532 231.288C140.345 231.101 140.09 230.995 139.824 230.995C139.559 230.995 139.304 231.101 139.116 231.288C138.929 231.476 138.823 231.731 138.823 231.996Z" fill="#090909"/>
<path d="M139.958 246.613L139.758 295.201C139.758 295.467 139.863 295.721 140.051 295.909C140.239 296.097 140.493 296.202 140.759 296.202C141.024 296.202 141.279 296.097 141.467 295.909C141.655 295.721 141.76 295.467 141.76 295.201L141.96 246.613C141.96 246.347 141.855 246.093 141.667 245.905C141.479 245.717 141.225 245.612 140.959 245.612C140.694 245.612 140.439 245.717 140.251 245.905C140.064 246.093 139.958 246.347 139.958 246.613Z" fill="#090909"/>
<path d="M110.459 202.896H128.813C129.079 202.896 129.333 202.791 129.521 202.603C129.709 202.416 129.814 202.161 129.814 201.895C129.814 201.63 129.709 201.375 129.521 201.187C129.333 201 129.079 200.894 128.813 200.894H110.459C110.194 200.894 109.939 201 109.751 201.187C109.563 201.375 109.458 201.63 109.458 201.895C109.458 202.161 109.563 202.416 109.751 202.603C109.939 202.791 110.194 202.896 110.459 202.896Z" fill="#090909"/>
<path d="M158.445 284.99C166.454 284.723 174.464 284.723 182.539 284.856C185.142 284.856 185.142 280.852 182.539 280.852C174.464 280.718 166.454 280.718 158.445 280.985C155.842 281.052 155.842 285.056 158.445 284.99Z" fill="#090909"/>
<path d="M158.046 245.345H174.531C177.067 245.345 177.067 241.34 174.531 241.34H158.046C155.51 241.34 155.51 245.345 158.046 245.345Z" fill="#090909"/>
<path d="M181.072 246.479H182.874C183.405 246.479 183.914 246.268 184.29 245.893C184.665 245.517 184.876 245.008 184.876 244.477C184.885 244.211 184.84 243.947 184.743 243.7C184.645 243.453 184.498 243.228 184.31 243.04C184.123 242.852 183.898 242.705 183.651 242.608C183.404 242.511 183.139 242.465 182.874 242.475H181.072C180.806 242.465 180.542 242.511 180.295 242.608C180.048 242.705 179.823 242.852 179.635 243.04C179.447 243.228 179.3 243.453 179.203 243.7C179.106 243.947 179.06 244.211 179.07 244.477C179.086 245.003 179.303 245.502 179.675 245.874C180.046 246.246 180.546 246.462 181.072 246.479Z" fill="#090909"/>
<path d="M157.311 205.566C166.322 205.366 175.332 205.433 184.342 205.833C186.945 205.967 186.945 201.962 184.342 201.829C175.332 201.428 166.322 201.361 157.311 201.562C154.775 201.628 154.775 205.633 157.311 205.566Z" fill="#090909"/>
<path d="M186.545 136.154H152.773C150.746 136.154 149.103 137.798 149.103 139.825V159.881C149.103 161.908 150.746 163.552 152.773 163.552H186.545C188.572 163.552 190.216 161.908 190.216 159.881V139.825C190.216 137.798 188.572 136.154 186.545 136.154Z" fill="white"/>
<path d="M111.459 227.658H102.182C98.6121 227.661 95.1315 226.541 92.2329 224.457C89.3344 222.373 87.1645 219.43 86.0305 216.045L82.293 204.632H110.191L129.413 212.841C129.413 219.649 124.808 223.854 118.534 226.39C116.273 227.242 113.875 227.671 111.459 227.658Z" fill="#CBC7DB"/>
<path d="M85.9649 216.645C88.7013 219.315 93.6402 218.848 97.1108 218.247L95.9762 217.78C97.839 221.627 101.151 224.579 105.187 225.989C110.192 227.725 115.398 226.19 120.337 225.055C121.605 224.788 121.071 222.852 119.803 223.119C115.532 224.054 110.993 225.522 106.655 224.321C104.709 223.782 102.902 222.829 101.359 221.528C99.8151 220.226 98.571 218.606 97.7115 216.779C97.5933 216.594 97.421 216.45 97.218 216.366C97.015 216.282 96.7911 216.263 96.5769 216.312C93.9072 216.779 89.5022 217.246 87.3664 215.244C87.1736 215.099 86.9352 215.029 86.6948 215.046C86.4544 215.063 86.2283 215.166 86.0579 215.337C85.8875 215.507 85.7843 215.733 85.7672 215.974C85.7501 216.214 85.8203 216.453 85.9649 216.645Z" fill="#090909"/>
<path d="M91.8364 232.931C100.111 235.626 108.946 236.11 117.465 234.332C118.734 234.065 118.2 232.13 116.931 232.397C108.762 234.075 100.296 233.591 92.3703 230.995C91.1689 230.595 90.635 232.53 91.8364 232.931Z" fill="#090909"/>
<path d="M108.123 241.674C113.364 241.156 118.472 239.71 123.207 237.402C124.341 236.868 123.34 235.133 122.206 235.734C117.782 237.871 113.013 239.204 108.123 239.671C106.855 239.805 106.855 241.807 108.123 241.674Z" fill="#090909"/>
<path d="M54.6618 174.398C52.8124 169.44 50.3934 164.714 47.4537 160.315C46.7195 159.247 44.9842 160.248 45.7184 161.316C48.5773 165.566 50.9293 170.135 52.7263 174.931C53.1935 176.066 55.129 175.599 54.6618 174.398Z" fill="#090909"/>
<path d="M46.4526 169.325L36.9084 164.319C35.7738 163.719 34.7727 165.454 35.9073 166.055L45.4515 171.06C46.5861 171.661 47.5872 169.926 46.4526 169.325Z" fill="#090909"/>
<path d="M97.5769 299.072H87.165V299.74H97.5769V299.072Z" fill="#090909"/>
<path d="M43.9161 283.655H8.80973C8.54421 283.655 8.28956 283.76 8.10181 283.948C7.91406 284.136 7.80859 284.39 7.80859 284.656C7.80859 284.921 7.91406 285.176 8.10181 285.364C8.28956 285.551 8.54421 285.657 8.80973 285.657H43.9161C44.1817 285.657 44.4363 285.551 44.6241 285.364C44.8118 285.176 44.9173 284.921 44.9173 284.656C44.9173 284.39 44.8118 284.136 44.6241 283.948C44.4363 283.76 44.1817 283.655 43.9161 283.655Z" fill="#090909"/>
<path d="M83.8957 286.191H94.8414C95.1069 286.191 95.3615 286.085 95.5493 285.898C95.737 285.71 95.8425 285.455 95.8425 285.19C95.8425 284.924 95.737 284.67 95.5493 284.482C95.3615 284.294 95.1069 284.189 94.8414 284.189H83.8957C83.6301 284.189 83.3755 284.294 83.1878 284.482C83 284.67 82.8945 284.924 82.8945 285.19C82.8945 285.455 83 285.71 83.1878 285.898C83.3755 286.085 83.6301 286.191 83.8957 286.191Z" fill="#090909"/>
<path d="M269.106 258.226H337.049C337.315 258.226 337.569 258.12 337.757 257.933C337.945 257.745 338.05 257.49 338.05 257.225C338.05 256.959 337.945 256.705 337.757 256.517C337.569 256.329 337.315 256.224 337.049 256.224H269.106C268.84 256.224 268.585 256.329 268.398 256.517C268.21 256.705 268.104 256.959 268.104 257.225C268.104 257.49 268.21 257.745 268.398 257.933C268.585 258.12 268.84 258.226 269.106 258.226Z" fill="#090909"/>
<path d="M212.108 303.744H226.123C226.389 303.744 226.644 303.639 226.831 303.451C227.019 303.263 227.125 303.008 227.125 302.743C227.125 302.477 227.019 302.223 226.831 302.035C226.644 301.847 226.389 301.742 226.123 301.742H212.108C211.842 301.742 211.587 301.847 211.4 302.035C211.212 302.223 211.106 302.477 211.106 302.743C211.106 303.008 211.212 303.263 211.4 303.451C211.587 303.639 211.842 303.744 212.108 303.744Z" fill="#090909"/>
<path d="M317.894 270.306H346.927C347.192 270.306 347.447 270.201 347.635 270.013C347.822 269.825 347.928 269.571 347.928 269.305C347.928 269.04 347.822 268.785 347.635 268.597C347.447 268.409 347.192 268.304 346.927 268.304H317.894C317.628 268.304 317.374 268.409 317.186 268.597C316.998 268.785 316.893 269.04 316.893 269.305C316.893 269.571 316.998 269.825 317.186 270.013C317.374 270.201 317.628 270.306 317.894 270.306Z" fill="#090909"/>
<path d="M86.0978 300.607H95.9757C96.2412 300.607 96.4958 300.502 96.6836 300.314C96.8713 300.126 96.9768 299.872 96.9768 299.606C96.9768 299.341 96.8713 299.086 96.6836 298.898C96.4958 298.71 96.2412 298.605 95.9757 298.605H86.0978C85.8323 298.605 85.5776 298.71 85.3899 298.898C85.2022 299.086 85.0967 299.341 85.0967 299.606C85.0967 299.872 85.2022 300.126 85.3899 300.314C85.5776 300.502 85.8323 300.607 86.0978 300.607Z" fill="#090909"/>
<path d="M1.00113 294.066C4.29557 293.889 7.59892 293.979 10.879 294.333C12.1471 294.467 12.1471 292.465 10.879 292.331C7.59892 291.976 4.29557 291.887 1.00113 292.064C-0.333711 292.131 -0.333711 294.133 1.00113 294.066Z" fill="#090909"/>
<path d="M16.3527 294.734C23.2939 294.867 30.2351 294.801 37.1763 294.4C38.4444 294.333 38.4444 292.331 37.1763 292.398C30.2351 292.798 23.2939 292.865 16.3527 292.732C16.0872 292.732 15.8325 292.837 15.6448 293.025C15.457 293.213 15.3516 293.467 15.3516 293.733C15.3516 293.998 15.457 294.253 15.6448 294.441C15.8325 294.628 16.0872 294.734 16.3527 294.734Z" fill="#090909"/>
<path d="M78.8896 50.5239C77.1543 50.5239 76.3533 48.3881 76.0196 46.1857C73.6836 45.9187 71.3477 45.1178 71.3477 43.3157C71.3477 41.5137 73.6169 40.7795 75.9529 40.4458C76.2199 38.1766 76.8873 35.4401 78.8896 35.4401C80.8918 35.4401 81.5592 38.1766 81.7595 40.4458C84.0955 40.7795 86.4314 41.5137 86.4314 43.3157C86.4314 45.1178 84.0287 45.9187 81.6927 46.1857C81.359 48.3881 80.6249 50.5239 78.8896 50.5239ZM75.0852 43.3157C75.8321 43.4842 76.5907 43.5957 77.3545 43.6495H78.4891V44.784C78.5379 45.4165 78.6497 46.0426 78.8228 46.6529C78.8895 46.1857 79.023 45.5849 79.0898 44.784L79.2233 43.6495H80.3579C81.1003 43.6017 81.8372 43.49 82.5604 43.3157C81.8372 43.1414 81.1003 43.0298 80.3579 42.982H79.29V41.7806C79.2431 40.928 79.1315 40.0802 78.9563 39.2444C78.7206 40.0705 78.5862 40.9221 78.5559 41.7806V42.982H77.2877C76.5453 43.0298 75.8085 43.1414 75.0852 43.3157Z" fill="#090909"/>
<path d="M63.6058 28.7659C60.6024 28.7659 59.401 23.56 58.9338 19.8225C55.3297 19.4888 49.1895 18.3541 49.1895 15.0837C49.1895 11.8134 55.1962 10.7455 58.8003 10.4118C59.0673 6.94118 60.1352 0 63.6058 0C67.0764 0 68.0775 6.94118 68.3445 10.4118C71.9485 10.7455 77.9554 11.8801 77.9554 15.0837C77.9554 18.2874 71.8151 19.4888 68.211 19.8225C67.7438 23.56 66.5424 28.7659 63.6058 28.7659ZM51.9259 15.0837C52.3931 15.7512 55.1295 16.8858 60.2687 17.2863H61.4033V18.4209C61.8705 23.293 63.0051 25.5623 63.539 25.9628C64.073 26.3632 65.1408 23.2263 65.608 18.4209L65.7415 17.2863H66.8094C71.9485 16.8858 74.685 15.7512 75.1522 15.0837C75.6194 14.4163 71.9486 13.3485 66.9429 12.948H65.8083V11.7466C65.4745 6.27376 64.2064 3.33712 63.6058 2.80318C62.9383 3.33712 61.6702 6.27376 61.3365 11.7466V12.948H60.2019C55.1295 13.3485 52.3931 14.4831 51.9259 15.0837Z" fill="#CBC7DB"/>
<path d="M287.459 208.903C285.724 208.903 284.923 206.701 284.589 204.565C282.253 204.231 279.917 203.497 279.917 201.695C279.917 199.893 282.186 199.092 284.522 198.825C284.789 196.556 285.457 193.753 287.459 193.753C289.461 193.753 290.062 196.556 290.329 198.825C292.665 199.092 295.001 199.893 295.001 201.695C295.001 203.497 292.598 204.231 290.262 204.565C289.928 206.701 289.127 208.903 287.459 208.903ZM283.655 201.695C284.4 201.869 285.159 201.98 285.924 202.029H286.992L287.125 203.163C287.174 203.796 287.286 204.422 287.459 205.032C287.526 204.565 287.659 203.964 287.726 203.163L287.859 202.029H288.927C289.692 201.98 290.451 201.869 291.196 201.695C290.473 201.521 289.736 201.409 288.994 201.361L287.859 201.228V200.093C287.812 199.241 287.701 198.393 287.526 197.557C287.29 198.383 287.156 199.235 287.125 200.093V201.228L285.991 201.361C285.203 201.401 284.421 201.513 283.655 201.695Z" fill="#090909"/>
<path d="M302.744 187.145C299.74 187.145 298.539 181.939 298.072 178.202C294.468 177.801 288.327 176.734 288.327 173.463C288.327 170.193 294.334 169.125 297.938 168.724C298.205 165.321 299.273 158.379 302.744 158.379C306.214 158.379 307.215 165.321 307.482 168.724C311.086 169.125 317.093 170.26 317.093 173.463C317.093 176.667 310.953 177.801 307.349 178.202C306.882 181.939 305.747 187.145 302.744 187.145ZM291.064 173.463C291.531 174.064 294.267 175.265 299.406 175.599L300.541 175.732V176.867C301.008 181.672 302.143 183.942 302.677 184.409C303.211 184.876 304.279 181.672 304.746 176.867L304.879 175.732L305.947 175.599C311.086 175.265 313.823 174.064 314.29 173.463C314.757 172.862 311.086 171.728 306.081 171.327L304.946 171.194V170.059C304.612 164.586 303.411 161.583 302.744 161.049C302.076 161.583 300.808 164.586 300.541 170.059L300.408 171.194L299.273 171.327C294.267 171.728 291.531 172.862 291.064 173.463Z" fill="#CBC7DB"/>
<path d="M33.1718 205.032C31.4365 205.032 30.7023 202.897 30.3686 200.694C27.9659 200.427 25.6299 199.693 25.6299 197.824C25.6299 195.955 27.9659 195.288 30.2351 194.954C30.5021 192.752 31.2363 189.948 33.1718 189.948C35.1073 189.948 35.8415 192.752 36.1084 194.954C38.3777 195.288 40.7137 196.022 40.7137 197.824C40.7137 199.626 38.3777 200.427 35.9749 200.694C35.6412 202.897 34.9071 205.032 33.1718 205.032ZM29.4342 197.824C30.1574 197.998 30.8943 198.11 31.6367 198.158H32.7713L32.9048 199.292C32.9422 199.944 33.0315 200.591 33.1718 201.228C33.3053 200.694 33.372 200.093 33.5055 199.292V198.225H34.6401C35.3825 198.177 36.1194 198.065 36.8426 197.891C36.1411 197.721 35.4267 197.61 34.7069 197.557H33.5055V196.422C33.4577 195.548 33.3461 194.678 33.1718 193.82C32.9974 194.678 32.8859 195.548 32.8381 196.422V197.557H31.6367C30.8963 197.584 30.1595 197.673 29.4342 197.824Z" fill="#090909"/>
<path d="M212.307 124.875C212.106 123.673 213.975 123.34 214.709 123.273C214.97 123.195 215.192 123.02 215.328 122.785C215.465 122.549 215.506 122.27 215.443 122.005C215.341 121.765 215.159 121.567 214.928 121.446C214.697 121.324 214.431 121.286 214.175 121.337C212.106 121.604 209.971 123.006 210.371 125.409C210.638 126.677 212.574 126.143 212.307 124.875Z" fill="#090909"/>
<path d="M221.385 119.135C222.605 117.772 223.945 116.521 225.389 115.397C226.39 114.596 224.989 113.195 223.988 113.996C222.537 115.136 221.176 116.385 219.916 117.733C219.049 118.668 220.517 120.136 221.385 119.135Z" fill="#090909"/>
</svg>
