<svg width="470" height="386" viewBox="0 0 470 386" fill="none" xmlns="http://www.w3.org/2000/svg">
<path d="M424.823 5.38135H341.567C329.172 5.38135 319.124 15.4294 319.124 27.8243V127.732C319.124 140.127 329.172 150.175 341.567 150.175H424.823C437.218 150.175 447.266 140.127 447.266 127.732V27.8243C447.266 15.4294 437.218 5.38135 424.823 5.38135Z" fill="#CBC7DB"/>
<path d="M160.937 79.1533C154.186 80.1587 147.736 82.6298 142.042 86.393C121.698 99.8588 119.744 124.908 119.526 128.673" fill="#80A5AE"/>
<path d="M233.696 165.74H232.393C225.025 165.008 217.957 162.445 211.833 158.283C206.377 154.405 201.912 149.296 198.801 143.369C198.672 143.201 198.582 143.007 198.536 142.799C198.49 142.592 198.491 142.378 198.537 142.171C198.583 141.964 198.675 141.77 198.804 141.602C198.934 141.434 199.099 141.297 199.288 141.2C199.476 141.103 199.684 141.049 199.896 141.041C200.108 141.033 200.319 141.072 200.514 141.154C200.709 141.237 200.884 141.361 201.026 141.519C201.168 141.676 201.273 141.863 201.335 142.066C204.24 147.572 208.408 152.311 213.498 155.894C219.178 159.791 225.754 162.183 232.61 162.844C232.9 162.916 265.768 164.654 296.175 127.37H296.247C296.82 126.644 297.476 125.988 298.202 125.415C299.362 124.556 300.697 123.963 302.111 123.677C302.998 123.53 303.84 123.184 304.573 122.664C305.369 122.085 306.817 120.781 306.672 119.551C306.527 118.32 306.455 118.827 306.31 118.754C306.165 118.682 304.211 119.116 303.414 119.406C302.618 119.696 300.663 120.492 299.795 119.406C298.926 118.32 299.795 116.51 302.473 113.107C303.125 112.239 303.704 111.442 304.283 110.791C306.165 108.402 307.034 107.316 307.613 105.433C308.193 103.551 307.975 103.334 307.903 103.261C307.831 103.189 307.469 102.827 304.935 103.623C303.974 104.007 303.126 104.63 302.473 105.433C301.512 106.727 300.17 107.689 298.636 108.184C297.985 108.329 296.247 108.836 295.306 107.678C294.365 106.519 295.234 104.565 296.102 103.261C296.981 101.937 298.143 100.824 299.505 100.004C300.519 99.3521 301.025 98.9901 301.315 98.1937C301.604 97.3973 301.604 96.8906 301.46 96.8182C301.315 96.7458 300.446 96.3838 299.288 96.5286C296.826 96.8182 295.161 99.0625 293.93 100.655C292.7 102.248 291.903 103.261 290.455 102.755C289.007 102.248 289.297 100.728 289.731 98.3385C290.162 96.0699 290.405 93.7694 290.455 91.4608C290.455 90.3025 290.238 90.0129 290.166 89.9405C290.093 89.8681 289.659 89.7957 288.79 90.0853C287.921 90.3749 286.763 91.4608 286.112 95.153V95.3702C285.388 98.9177 279.451 106.809 235.941 134.102C235.779 134.212 235.597 134.288 235.405 134.326C235.213 134.363 235.016 134.361 234.825 134.321C234.634 134.28 234.453 134.201 234.293 134.088C234.133 133.976 233.998 133.832 233.895 133.666C233.793 133.499 233.725 133.314 233.695 133.121C233.666 132.927 233.677 132.73 233.726 132.541C233.775 132.352 233.862 132.175 233.981 132.02C234.1 131.865 234.25 131.736 234.42 131.641C275.759 105.723 282.781 97.4697 283.288 94.7911V94.6463C284.157 89.7957 286.184 88.0582 287.777 87.4066C289.369 86.755 290.817 86.8274 291.831 87.6238C292.844 88.4202 293.351 90.6644 293.351 91.4608C293.331 93.4527 293.137 95.4391 292.772 97.3973C294.22 95.8046 296.175 93.9947 298.853 93.6327C299.939 93.4879 302.618 93.3431 303.849 95.153C305.08 96.963 304.79 97.1802 304.066 99.2073C303.485 100.563 302.465 101.685 301.17 102.393C300.108 103.008 299.194 103.848 298.491 104.854L298.274 105.216C299.098 104.805 299.816 104.211 300.374 103.479C301.321 102.265 302.605 101.359 304.066 100.872C305.441 100.438 308.41 99.4968 310.075 101.307C311.74 103.117 310.799 104.999 310.364 106.302C309.641 108.691 308.555 110.067 306.527 112.601L304.718 114.845L303.704 116.148C305.152 115.714 306.745 115.424 308.048 116.438C308.482 116.756 308.838 117.169 309.089 117.646C309.34 118.123 309.479 118.65 309.496 119.189C309.93 122.229 307.107 124.474 306.238 125.053C305.203 125.79 304.015 126.285 302.763 126.501C301.739 126.687 300.773 127.109 299.939 127.732C299.402 128.156 298.916 128.642 298.491 129.179V129.324C282.13 149.378 265.117 158.211 253.678 162.12C243.904 165.305 236.592 165.74 233.696 165.74Z" fill="#090909"/>
<path d="M204.158 116.076H142.042V160.187H204.158V116.076Z" fill="#80A5AE"/>
<path d="M170.903 141.849L96.2188 162.14L109.436 210.786L184.12 190.495L170.903 141.849Z" fill="#CBC7DB"/>
<path d="M162.016 150.111L105.007 165.6L115.088 202.705L172.097 187.216L162.016 150.111Z" fill="white"/>
<path d="M122.205 125.053C119.326 129.813 117.201 134.99 115.907 140.401C107.871 174.21 136.902 204.545 139.291 207.006C139.514 207.381 139.841 207.683 140.232 207.875C140.838 208.134 141.511 208.189 142.151 208.032C142.79 207.876 143.362 207.516 143.779 207.006C144.359 206.21 144.069 205.558 144.721 205.196C145.372 204.834 145.589 205.196 146.531 205.196C147.22 205.182 147.898 205.012 148.512 204.699C149.127 204.385 149.662 203.936 150.078 203.386C150.657 202.59 150.44 202.228 151.019 201.576C151.598 200.925 152.684 201.142 153.698 200.708C155.87 199.694 157.1 195.133 156.376 191.73C156.304 191.006 156.087 190.427 156.376 189.92C156.666 189.414 158.548 189.776 160.937 188.979C161.806 188.69 163.109 188.328 163.616 187.169C164.123 186.011 163.399 184.418 162.675 183.622C161.76 182.597 160.495 181.951 159.128 181.812C154.277 180.871 148.413 168.057 146.531 153.867C145.607 146.996 145.607 140.032 146.531 133.161" fill="white"/>
<path d="M141.318 209.612C140.712 209.615 140.114 209.466 139.581 209.178C139.026 208.953 138.566 208.544 138.277 208.019H138.205C134.73 204.472 106.423 174.283 114.459 140.111C115.825 134.576 118.022 129.279 120.975 124.401C121.182 124.092 121.495 123.87 121.856 123.776C122.216 123.683 122.598 123.725 122.929 123.894C123.099 123.991 123.247 124.122 123.365 124.277C123.482 124.433 123.568 124.611 123.615 124.8C123.662 124.989 123.671 125.186 123.64 125.379C123.609 125.572 123.54 125.756 123.436 125.922C120.665 130.539 118.591 135.54 117.282 140.763C109.536 173.631 137.192 202.807 140.305 206.065C140.449 206.137 140.522 206.282 140.667 206.427L140.811 206.644C141.123 206.751 141.459 206.766 141.779 206.689C142.1 206.613 142.392 206.446 142.621 206.209C142.737 206.091 142.813 205.939 142.838 205.775C142.884 205.424 143.005 205.088 143.192 204.788C143.379 204.488 143.629 204.232 143.924 204.038C144.214 203.861 144.537 203.744 144.872 203.694C145.208 203.645 145.551 203.663 145.879 203.748H146.531C146.987 203.729 147.435 203.616 147.846 203.417C148.257 203.218 148.622 202.936 148.92 202.59C149.022 202.435 149.096 202.264 149.137 202.083C149.303 201.515 149.601 200.994 150.006 200.563C150.637 199.922 151.496 199.558 152.395 199.549L153.119 199.404C154.422 198.753 155.58 195.06 155.001 192.02V191.73C154.856 191.289 154.806 190.821 154.856 190.359C154.906 189.897 155.054 189.451 155.291 189.051C156.015 187.966 157.245 187.966 158.187 187.966C158.994 187.931 159.795 187.809 160.576 187.604C161.227 187.386 162.168 187.097 162.386 186.59C162.603 186.083 162.168 185.142 161.662 184.563C160.989 183.815 160.058 183.349 159.055 183.26H158.911C152.684 182.101 146.893 167.26 145.155 154.156C144.214 147.165 144.214 140.08 145.155 133.089C145.173 132.901 145.228 132.718 145.319 132.553C145.41 132.387 145.534 132.242 145.684 132.127C145.833 132.012 146.005 131.928 146.188 131.882C146.371 131.836 146.562 131.827 146.748 131.858C146.938 131.876 147.123 131.932 147.292 132.022C147.461 132.112 147.61 132.235 147.732 132.383C147.853 132.531 147.943 132.701 147.998 132.885C148.053 133.068 148.071 133.26 148.051 133.451C147.122 140.199 147.098 147.04 147.979 153.794C149.933 167.912 155.725 179.712 159.417 180.436H159.562C161.232 180.689 162.766 181.507 163.906 182.753C164.919 183.911 165.788 186.011 164.992 187.821C164.195 189.631 162.458 190.137 161.444 190.427C160.409 190.735 159.338 190.905 158.259 190.934H157.68C157.706 190.963 157.726 190.998 157.738 191.035C157.751 191.072 157.755 191.112 157.752 191.151V191.513C158.549 195.35 157.173 200.707 154.277 202.083C153.745 202.303 153.184 202.449 152.612 202.517C152.105 202.517 152.105 202.59 151.96 202.662C151.816 202.734 151.888 202.734 151.888 202.952C151.737 203.438 151.517 203.902 151.236 204.327C150.674 205.063 149.952 205.66 149.124 206.074C148.296 206.489 147.384 206.708 146.458 206.716H145.517C145.391 207.19 145.169 207.634 144.866 208.019C144.425 208.526 143.88 208.931 143.267 209.206C142.654 209.481 141.99 209.62 141.318 209.612Z" fill="#090909"/>
<path d="M226.168 117.451C230.367 120.709 236.376 125.849 240.575 129.107L226.168 117.451Z" fill="white"/>
<path d="M240.573 130.555C240.257 130.574 239.946 130.47 239.705 130.265C237.533 128.6 234.999 126.501 232.465 124.401L225.298 118.537C225.105 118.442 224.936 118.305 224.803 118.137C224.67 117.969 224.576 117.773 224.528 117.564C224.48 117.355 224.479 117.138 224.525 116.928C224.571 116.719 224.663 116.522 224.794 116.353C224.926 116.183 225.093 116.045 225.284 115.948C225.476 115.851 225.686 115.797 225.9 115.792C226.115 115.786 226.328 115.828 226.524 115.914C226.72 116.001 226.895 116.13 227.035 116.293C229.207 117.958 231.813 120.13 234.275 122.157L241.442 128.021C241.603 128.128 241.739 128.268 241.842 128.432C241.944 128.595 242.012 128.779 242.039 128.97C242.066 129.161 242.053 129.356 242 129.542C241.947 129.727 241.856 129.9 241.732 130.048C241.589 130.215 241.411 130.347 241.211 130.435C241.01 130.522 240.792 130.563 240.573 130.555Z" fill="#090909"/>
<path d="M149.209 134.102C143.69 132.001 137.963 130.496 132.124 129.614C124.16 128.383 121.554 130.338 120.395 128.673C116.775 123.46 138.639 101.524 158.186 81.9044C158.476 81.6149 160.503 78.4294 160.937 79.1534C161.806 80.9633 162.313 85.0175 164.485 89.0717C167.67 94.7911 176.937 99.1349 179.833 96.3114C182.729 93.4879 184.322 88.203 182.512 80.0945C182.439 79.7325 183.96 80.0221 184.322 80.0945C186.566 80.3841 194.964 82.1216 200.538 85.4519C206.113 88.7821 217.778 99.7603 227.189 116.701" fill="#80A5AE"/>
<path d="M212.759 106.121L189.336 134.943L203.309 146.299L227.19 116.701L212.759 106.121Z" fill="#80A5AE"/>
<path d="M203.652 130.555C203.316 130.561 202.986 130.459 202.711 130.266C202.426 130.015 202.251 129.661 202.223 129.282C202.196 128.903 202.32 128.528 202.566 128.239L219.652 107.533C219.763 107.365 219.908 107.222 220.078 107.113C220.248 107.005 220.439 106.933 220.638 106.902C220.837 106.871 221.04 106.882 221.235 106.934C221.43 106.987 221.611 107.079 221.768 107.206C221.925 107.332 222.054 107.49 222.146 107.669C222.238 107.848 222.292 108.045 222.305 108.246C222.317 108.447 222.286 108.649 222.216 108.838C222.146 109.027 222.037 109.199 221.896 109.343L204.811 130.049C204.668 130.215 204.49 130.347 204.29 130.435C204.089 130.523 203.871 130.564 203.652 130.555Z" fill="#CBC7DB"/>
<path d="M176.793 98.266C174.291 98.1581 171.855 97.4372 169.698 96.1665C160.576 91.2435 157.752 77.9225 159.055 67.7146C159.128 66.9182 161.807 46.6472 173.752 44.9096C179.327 44.1133 184.756 47.7331 187.725 51.7873C190.693 55.8415 192.358 63.3708 190.693 69.6693C189.462 74.0855 187.001 77.5606 183.815 79.4429C185.697 85.5242 184.901 94.429 181.064 97.0353C179.793 97.8579 178.307 98.2861 176.793 98.266ZM175.345 47.6607H174.186C164.34 49.1087 161.951 67.8594 161.879 68.0042C160.721 77.5606 163.472 89.4336 171.073 93.5602C173.68 95.0082 177.299 96.0217 179.471 94.5738C181.643 93.1258 182.657 85.8862 181.136 80.5288C175.707 82.0491 170.132 79.4429 167.815 78.1397C167.488 77.9306 167.253 77.604 167.159 77.227C167.064 76.85 167.118 76.4513 167.309 76.1126C167.504 75.7902 167.818 75.5569 168.183 75.4622C168.548 75.3676 168.936 75.4191 169.263 75.6058C171.363 76.8366 176.793 79.3705 181.498 77.3434C184.467 76.0402 186.783 72.9272 187.869 68.8006C189.317 63.4432 188.304 57.3619 185.408 53.3801C182.512 49.3982 179.327 47.6607 175.345 47.6607Z" fill="#090909"/>
<path d="M193.879 359.763L187.001 359.546V357.084L158.694 357.808V359.546L158.549 380.468C158.53 381.051 158.628 381.631 158.837 382.175C159.047 382.719 159.364 383.215 159.769 383.634C160.175 384.053 160.66 384.386 161.197 384.613C161.733 384.84 162.31 384.957 162.893 384.957L205.028 385.464C205.925 385.465 206.788 385.118 207.435 384.498C208.083 383.877 208.466 383.03 208.503 382.134C208.865 369.826 206.403 359.908 193.879 359.763Z" fill="#090909"/>
<path d="M194.675 379.383C192.987 376.742 192.39 373.55 193.01 370.478C194.457 363.672 201.19 361.066 201.625 360.921" fill="#090909"/>
<path d="M156.81 381.337C159.344 378.296 163.254 381.409 166.294 381.771C167.65 381.943 169.026 381.743 170.276 381.192C173.751 379.962 176.575 379.238 180.195 380.396C182.366 381.047 184.032 381.844 186.348 381.771C191.561 381.482 195.615 378.296 200.828 380.324C206.04 382.351 208.212 381.047 212.266 379.093C213.497 378.514 212.411 376.631 211.108 377.21C209.805 377.79 206.33 379.527 203.506 379.02C202.566 378.722 201.646 378.359 200.755 377.934C198.995 377.297 197.1 377.123 195.253 377.428C193.154 377.79 191.127 378.586 189.099 379.093C185.552 379.962 183.525 379.02 180.195 378.079C178.162 377.55 176.041 377.451 173.968 377.79C171 378.224 168.828 380.106 165.715 379.455C162.602 378.803 158.258 376.197 155.218 379.817C154.349 380.903 155.869 382.423 156.81 381.337Z" fill="white"/>
<path d="M180.702 373.591L191.706 365.555L190.041 364.613C190.113 367.22 189.462 370.767 190.403 373.156C190.487 373.439 190.677 373.68 190.932 373.828C191.188 373.976 191.491 374.02 191.778 373.953C194.312 373.229 196.918 370.695 199.09 369.174C201.212 367.859 203.117 366.223 204.737 364.324C205.606 363.166 203.724 362.08 202.855 363.166C201.986 364.251 199.018 366.568 196.918 368.016C194.819 369.464 193.154 371.346 191.199 371.853L192.502 372.577C191.706 370.478 192.285 366.858 192.213 364.613C192.213 363.89 191.271 363.166 190.62 363.672L179.616 371.708C178.53 372.505 179.543 374.387 180.702 373.591Z" fill="white"/>
<path d="M193.879 359.763L187.001 359.546V357.084L158.694 357.808V359.546L158.549 380.468C158.53 381.051 158.628 381.631 158.837 382.175C159.047 382.719 159.364 383.215 159.769 383.634C160.175 384.053 160.66 384.386 161.197 384.613C161.733 384.84 162.31 384.957 162.893 384.957L205.028 385.464C205.925 385.465 206.788 385.118 207.435 384.498C208.083 383.877 208.466 383.03 208.503 382.134C208.865 369.826 206.403 359.908 193.879 359.763Z" fill="#090909"/>
<path d="M194.675 379.383C192.987 376.742 192.39 373.55 193.01 370.478C194.457 363.672 201.19 361.066 201.625 360.921" fill="#090909"/>
<path d="M72.1067 343.039L69.2108 336.813L71.3827 335.727L60.2337 310.171L56.9034 311.764L37.6459 320.886C37.1212 321.141 36.6522 321.497 36.2658 321.934C35.8795 322.371 35.5836 322.88 35.3951 323.432C35.2067 323.984 35.1294 324.568 35.1678 325.15C35.2062 325.732 35.3595 326.3 35.6188 326.823L54.2247 364.614C54.6157 365.414 55.3047 366.029 56.1439 366.326C56.9831 366.624 57.9055 366.581 58.7133 366.206C69.9348 360.921 77.6089 354.261 72.1067 343.039Z" fill="#090909"/>
<path d="M54.6602 352.741C56.4039 350.055 59.0476 348.079 62.117 347.166C68.9223 345.356 74.2073 350.207 74.5692 350.496" fill="#090909"/>
<path d="M383.92 135.912C416.747 135.912 443.358 109.301 443.358 76.4748C443.358 43.6483 416.747 17.0371 383.92 17.0371C351.094 17.0371 324.482 43.6483 324.482 76.4748C324.482 109.301 351.094 135.912 383.92 135.912Z" fill="#80A5AE"/>
<path d="M383.92 90.6647C391.757 90.6647 398.11 84.3117 398.11 76.4749C398.11 68.6381 391.757 62.2852 383.92 62.2852C376.083 62.2852 369.73 68.6381 369.73 76.4749C369.73 84.3117 376.083 90.6647 383.92 90.6647Z" fill="white"/>
<path d="M383.92 111.442C377.004 111.442 370.243 109.391 364.493 105.549C358.742 101.707 354.261 96.2457 351.614 89.8562C348.967 83.4667 348.275 76.4359 349.624 69.6528C350.973 62.8698 354.304 56.6392 359.194 51.7489C364.084 46.8586 370.315 43.5282 377.098 42.179C383.881 40.8298 390.912 41.5222 397.301 44.1688C403.691 46.8155 409.152 51.2973 412.994 57.0477C416.837 62.7981 418.887 69.5588 418.887 76.4747C418.868 85.7428 415.178 94.6258 408.624 101.179C402.071 107.733 393.188 111.423 383.92 111.442ZM383.92 44.403C377.577 44.403 371.376 46.2839 366.102 49.808C360.827 53.3321 356.717 58.341 354.289 64.2014C351.862 70.0617 351.227 76.5103 352.464 82.7316C353.702 88.9529 356.756 94.6675 361.242 99.1528C365.727 103.638 371.442 106.693 377.663 107.93C383.884 109.168 390.333 108.533 396.193 106.105C402.053 103.678 407.062 99.567 410.586 94.2928C414.111 89.0186 415.992 82.8179 415.992 76.4747C415.972 67.9746 412.587 59.8281 406.577 53.8177C400.566 47.8072 392.42 44.4221 383.92 44.403Z" fill="white"/>
<path d="M182.512 139.532C183.512 139.532 184.322 138.722 184.322 137.722C184.322 136.723 183.512 135.912 182.512 135.912C181.512 135.912 180.702 136.723 180.702 137.722C180.702 138.722 181.512 139.532 182.512 139.532Z" fill="#CBC7DB"/>
<path d="M182.512 125.125C183.512 125.125 184.322 124.315 184.322 123.315C184.322 122.316 183.512 121.505 182.512 121.505C181.512 121.505 180.702 122.316 180.702 123.315C180.702 124.315 181.512 125.125 182.512 125.125Z" fill="#CBC7DB"/>
<path d="M383.92 127.008C355.106 127.008 331.649 104.347 331.649 76.4748C331.649 48.6021 355.106 25.9419 383.92 25.9419C412.734 25.9419 436.263 48.6021 436.263 76.4748C436.263 104.347 412.806 127.008 383.92 127.008ZM383.92 28.8378C356.699 28.8378 334.545 50.1948 334.545 76.4748C334.545 102.755 356.699 124.112 383.92 124.112C411.141 124.112 433.367 102.755 433.367 76.4748C433.367 50.1948 411.141 28.8378 383.92 28.8378Z" fill="white"/>
<path d="M375.739 75.5335C375.534 75.5621 375.327 75.5102 375.16 75.3887L349.676 63.95C349.334 63.7919 349.068 63.507 348.932 63.1556C348.797 62.8042 348.804 62.414 348.952 62.0677C349.022 61.8919 349.128 61.7326 349.263 61.5997C349.398 61.4667 349.559 61.363 349.735 61.2951C349.912 61.2271 350.101 61.1963 350.29 61.2047C350.479 61.2131 350.664 61.2604 350.834 61.3437L376.318 72.7824C376.609 72.9231 376.845 73.1573 376.988 73.4477C377.131 73.7381 377.172 74.068 377.106 74.3847C377.039 74.7014 376.868 74.9866 376.62 75.1948C376.373 75.403 376.062 75.5223 375.739 75.5335Z" fill="#CBC7DB"/>
<path d="M353.586 65.543C353.26 65.541 352.943 65.4345 352.682 65.2389C352.422 65.0434 352.231 64.7693 352.138 64.457L350.69 58.8825C350.622 58.5096 350.695 58.1247 350.896 57.8033C351.097 57.4819 351.411 57.2471 351.776 57.145C352.14 57.0558 352.525 57.1117 352.849 57.3008C353.173 57.4898 353.411 57.7973 353.513 58.1585L354.961 63.7331C355.053 64.107 354.999 64.5018 354.811 64.8377C354.623 65.1737 354.314 65.4257 353.948 65.543H353.586Z" fill="#CBC7DB"/>
<path d="M357.639 67.4252C357.32 67.4323 357.007 67.3278 356.756 67.1296C356.505 66.9314 356.331 66.6519 356.264 66.3392L354.816 60.7647C354.762 60.584 354.745 60.3941 354.767 60.2068C354.79 60.0194 354.85 59.8386 354.945 59.6757C355.04 59.5127 355.168 59.371 355.32 59.2595C355.472 59.1479 355.646 59.0688 355.83 59.0272C356.015 58.9723 356.209 58.955 356.402 58.9765C356.594 58.9979 356.78 59.0577 356.948 59.1521C357.117 59.2466 357.265 59.3739 357.384 59.5265C357.503 59.6791 357.589 59.854 357.639 60.0407L359.087 65.6153C359.13 65.8007 359.136 65.9927 359.105 66.1804C359.074 66.3681 359.006 66.5478 358.905 66.7091C358.804 66.8705 358.672 67.0104 358.517 67.1209C358.362 67.2313 358.187 67.3101 358.001 67.3528L357.639 67.4252Z" fill="#CBC7DB"/>
<path d="M348.444 68.2216C348.176 68.2156 347.914 68.1388 347.686 67.999C347.457 67.8591 347.269 67.6612 347.141 67.4253C347.054 67.2544 347.003 67.068 346.988 66.8768C346.974 66.6857 346.998 66.4936 347.059 66.3118C347.119 66.1299 347.215 65.962 347.341 65.8176C347.467 65.6732 347.621 65.5552 347.793 65.4706L352.933 62.8643C353.257 62.7655 353.606 62.7838 353.919 62.9159C354.231 63.048 354.487 63.2856 354.642 63.5872C354.797 63.8889 354.842 64.2354 354.768 64.5663C354.693 64.8973 354.505 65.1917 354.236 65.3982L349.096 68.0768L348.444 68.2216Z" fill="#CBC7DB"/>
<path d="M353.368 70.3936C353.133 70.3891 352.902 70.3352 352.69 70.2354C352.478 70.1356 352.29 69.9921 352.137 69.8144C352.026 69.6579 351.948 69.4811 351.907 69.2941C351.865 69.1072 351.861 68.9138 351.895 68.7253C351.928 68.5368 351.999 68.3568 352.103 68.1958C352.206 68.0348 352.341 67.8959 352.499 67.7873L356.843 64.819C356.995 64.6983 357.172 64.6114 357.361 64.5639C357.549 64.5165 357.746 64.5097 357.938 64.5439C358.129 64.5781 358.311 64.6526 358.472 64.7624C358.633 64.8722 358.768 65.0149 358.87 65.181C358.978 65.3317 359.055 65.5029 359.096 65.6842C359.137 65.8654 359.14 66.053 359.106 66.2357C359.072 66.4184 359.002 66.5923 358.899 66.747C358.796 66.9017 358.663 67.0339 358.508 67.1357L354.164 70.1764C353.925 70.3245 353.648 70.4 353.368 70.3936Z" fill="#CBC7DB"/>
<path d="M428.806 108.836C428.602 108.852 428.399 108.801 428.227 108.691L402.816 97.3249C402.637 97.2469 402.477 97.1337 402.343 96.9922C402.21 96.8507 402.106 96.6838 402.038 96.5013C401.971 96.3189 401.941 96.1247 401.95 95.9303C401.959 95.736 402.007 95.5455 402.092 95.3702C402.162 95.1944 402.268 95.0351 402.403 94.9022C402.537 94.7692 402.698 94.6655 402.875 94.5975C403.052 94.5296 403.24 94.4988 403.429 94.5072C403.619 94.5156 403.804 94.5629 403.974 94.6462L429.458 106.085C429.799 106.243 430.066 106.528 430.201 106.879C430.336 107.231 430.329 107.621 430.182 107.967C430.058 108.227 429.863 108.447 429.62 108.601C429.376 108.755 429.094 108.836 428.806 108.836Z" fill="#CBC7DB"/>
<path d="M426.996 112.963C426.676 112.97 426.364 112.865 426.113 112.667C425.862 112.469 425.688 112.19 425.621 111.877L424.173 106.302C424.081 106.11 424.033 105.9 424.031 105.687C424.03 105.474 424.076 105.263 424.166 105.07C424.255 104.876 424.386 104.705 424.55 104.568C424.713 104.431 424.905 104.332 425.111 104.278C425.317 104.224 425.532 104.216 425.742 104.254C425.951 104.293 426.15 104.378 426.323 104.502C426.496 104.626 426.64 104.787 426.744 104.973C426.847 105.159 426.909 105.366 426.924 105.578L428.372 111.153C428.426 111.334 428.442 111.524 428.42 111.711C428.398 111.898 428.337 112.079 428.242 112.242C428.147 112.405 428.02 112.547 427.868 112.658C427.716 112.77 427.542 112.849 427.358 112.89L426.996 112.963Z" fill="#CBC7DB"/>
<path d="M422.869 111.081C422.549 111.088 422.237 110.983 421.986 110.785C421.735 110.587 421.561 110.307 421.493 109.995L420.045 104.42C419.956 104.056 420.012 103.671 420.201 103.347C420.39 103.023 420.698 102.784 421.059 102.683C421.433 102.591 421.828 102.645 422.164 102.833C422.499 103.021 422.752 103.329 422.869 103.696L424.317 109.271C424.405 109.654 424.342 110.057 424.139 110.395C423.937 110.732 423.611 110.978 423.231 111.081H422.869Z" fill="#CBC7DB"/>
<path d="M425.548 107.388C425.28 107.382 425.018 107.305 424.789 107.165C424.56 107.026 424.372 106.828 424.245 106.592C424.158 106.421 424.106 106.234 424.092 106.043C424.078 105.852 424.102 105.66 424.162 105.478C424.223 105.296 424.319 105.128 424.445 104.984C424.571 104.84 424.724 104.722 424.896 104.637L430.036 102.031C430.201 101.931 430.384 101.867 430.574 101.842C430.765 101.817 430.958 101.832 431.142 101.887C431.326 101.942 431.497 102.034 431.643 102.159C431.79 102.283 431.908 102.437 431.991 102.61C432.078 102.781 432.13 102.967 432.144 103.158C432.158 103.35 432.134 103.542 432.074 103.723C432.013 103.905 431.917 104.073 431.791 104.218C431.665 104.362 431.512 104.48 431.34 104.565L426.2 107.243L425.548 107.388Z" fill="#CBC7DB"/>
<path d="M421.421 105.506C421.197 105.501 420.977 105.446 420.777 105.346C420.577 105.246 420.401 105.103 420.263 104.927C420.152 104.77 420.074 104.593 420.033 104.406C419.991 104.219 419.987 104.026 420.021 103.838C420.054 103.649 420.125 103.469 420.229 103.308C420.332 103.147 420.467 103.008 420.625 102.9L424.896 99.859C425.053 99.7486 425.23 99.6703 425.416 99.6288C425.603 99.5872 425.797 99.5831 425.985 99.6168C426.174 99.6505 426.354 99.7212 426.515 99.8249C426.676 99.9286 426.815 100.063 426.923 100.221C427.034 100.377 427.112 100.554 427.153 100.741C427.195 100.928 427.199 101.122 427.165 101.31C427.132 101.499 427.061 101.679 426.957 101.84C426.854 102.001 426.719 102.139 426.561 102.248L422.29 105.289C422.021 105.427 421.724 105.502 421.421 105.506Z" fill="#CBC7DB"/>
<path d="M284.374 127.08C284.122 127.083 283.874 127.018 283.657 126.89C283.44 126.762 283.263 126.578 283.143 126.356C282.95 126.037 282.887 125.655 282.968 125.291C283.049 124.927 283.267 124.608 283.578 124.401L315.577 104.926C315.908 104.757 316.29 104.715 316.651 104.808C317.011 104.902 317.324 105.124 317.532 105.433C317.637 105.588 317.71 105.763 317.745 105.948C317.78 106.132 317.777 106.321 317.737 106.504C317.696 106.687 317.618 106.86 317.508 107.012C317.398 107.164 317.258 107.292 317.097 107.388L285.098 126.863C284.882 127.001 284.631 127.076 284.374 127.08Z" fill="#CBC7DB"/>
<path d="M288.501 124.546H287.994L280.754 121.94C280.572 121.876 280.405 121.775 280.262 121.645C280.12 121.515 280.004 121.357 279.923 121.182C279.842 121.007 279.797 120.817 279.791 120.624C279.784 120.431 279.817 120.238 279.886 120.058C280.017 119.707 280.278 119.421 280.616 119.259C280.953 119.097 281.34 119.072 281.696 119.189L289.008 121.868C289.358 121.999 289.645 122.26 289.807 122.598C289.969 122.935 289.994 123.322 289.876 123.678C289.753 123.938 289.558 124.158 289.315 124.311C289.071 124.465 288.789 124.547 288.501 124.546Z" fill="#CBC7DB"/>
<path d="M293.641 121.433H293.134L285.894 118.755C285.691 118.711 285.499 118.623 285.333 118.498C285.166 118.373 285.028 118.214 284.929 118.031C284.829 117.848 284.77 117.646 284.756 117.438C284.742 117.23 284.773 117.022 284.847 116.827C284.92 116.632 285.035 116.456 285.183 116.309C285.331 116.163 285.51 116.05 285.705 115.979C285.901 115.908 286.109 115.88 286.317 115.896C286.525 115.913 286.726 115.974 286.908 116.076L294.148 118.682C294.48 118.791 294.762 119.016 294.942 119.316C295.121 119.616 295.186 119.971 295.124 120.315C295.062 120.659 294.878 120.969 294.606 121.188C294.333 121.407 293.99 121.52 293.641 121.506V121.433Z" fill="#CBC7DB"/>
<path d="M287.487 132.22H287.342C287.152 132.202 286.967 132.147 286.798 132.057C286.629 131.967 286.48 131.844 286.358 131.696C286.237 131.548 286.147 131.377 286.092 131.194C286.037 131.01 286.019 130.818 286.039 130.628L287.053 122.954C287.106 122.576 287.3 122.233 287.595 121.992C287.89 121.75 288.265 121.629 288.645 121.65C289.029 121.721 289.373 121.929 289.613 122.236C289.853 122.542 289.973 122.927 289.949 123.316L288.935 130.99C288.883 131.335 288.707 131.65 288.441 131.876C288.175 132.102 287.836 132.224 287.487 132.22Z" fill="#CBC7DB"/>
<path d="M293.714 128.455C293.33 128.455 292.961 128.303 292.69 128.031C292.418 127.76 292.266 127.392 292.266 127.008V119.985C292.266 119.601 292.418 119.233 292.69 118.961C292.961 118.69 293.33 118.537 293.714 118.537C294.098 118.537 294.466 118.69 294.737 118.961C295.009 119.233 295.161 119.601 295.161 119.985V127.008C295.161 127.392 295.009 127.76 294.737 128.031C294.466 128.303 294.098 128.455 293.714 128.455Z" fill="#CBC7DB"/>
<path d="M382.399 78.3572C382.103 78.3513 381.816 78.2591 381.571 78.0919C381.327 77.9247 381.137 77.6898 381.024 77.416L371.033 51.3532C370.964 51.1728 370.932 50.9804 370.938 50.7873C370.945 50.5942 370.99 50.4044 371.071 50.229C371.152 50.0535 371.267 49.8961 371.41 49.7659C371.552 49.6357 371.72 49.5354 371.902 49.4709C372.267 49.3507 372.665 49.3735 373.014 49.5347C373.363 49.6959 373.639 49.9836 373.784 50.3397L383.775 76.4025C383.844 76.5829 383.876 76.7753 383.87 76.9684C383.863 77.1615 383.818 77.3513 383.737 77.5268C383.656 77.7022 383.541 77.8596 383.398 77.9898C383.256 78.12 383.088 78.2203 382.906 78.2848L382.399 78.3572Z" fill="#CBC7DB"/>
<path d="M373.712 55.6244C373.461 55.6564 373.207 55.6056 372.988 55.4796C372.648 55.2822 372.398 54.9607 372.29 54.5828C372.182 54.2048 372.225 53.7998 372.409 53.4525L375.377 48.5296C375.452 48.333 375.569 48.1551 375.72 48.0084C375.871 47.8617 376.052 47.7497 376.251 47.6801C376.449 47.6105 376.661 47.585 376.87 47.6055C377.08 47.626 377.282 47.6918 377.464 47.7985C377.645 47.9053 377.801 48.0502 377.921 48.2234C378.04 48.3965 378.121 48.5937 378.157 48.8011C378.192 49.0085 378.182 49.2212 378.127 49.4244C378.072 49.6275 377.974 49.8163 377.839 49.9775L374.943 54.9729C374.809 55.1762 374.626 55.3424 374.411 55.4563C374.196 55.5702 373.955 55.628 373.712 55.6244Z" fill="#CBC7DB"/>
<path d="M375.305 59.8234C375.055 59.846 374.804 59.7957 374.581 59.6786C374.412 59.5817 374.264 59.4515 374.146 59.2959C374.028 59.1403 373.943 58.9625 373.896 58.7731C373.848 58.5838 373.84 58.3868 373.871 58.1941C373.901 58.0013 373.971 57.8168 374.075 57.6515L376.97 52.7286C377.06 52.5615 377.183 52.4148 377.333 52.2977C377.482 52.1805 377.653 52.0955 377.837 52.0479C378.021 52.0003 378.212 51.9912 378.399 52.0211C378.587 52.0511 378.766 52.1194 378.925 52.2218C379.26 52.4054 379.509 52.7138 379.617 53.0799C379.726 53.446 379.685 53.8401 379.504 54.1765L376.536 59.1719C376.407 59.3802 376.226 59.5504 376.009 59.6649C375.793 59.7794 375.55 59.8342 375.305 59.8234Z" fill="#CBC7DB"/>
<path d="M373.712 55.6244H373.278L367.775 53.8145C367.589 53.7658 367.416 53.6787 367.265 53.5588C367.115 53.4389 366.992 53.2889 366.903 53.1183C366.814 52.9478 366.763 52.7606 366.751 52.5687C366.739 52.3769 366.767 52.1847 366.834 52.0045C366.951 51.6406 367.206 51.3374 367.545 51.1611C367.884 50.9848 368.279 50.9497 368.644 51.0634L374.146 52.8009C374.505 52.9466 374.799 53.218 374.972 53.5645C375.145 53.9109 375.186 54.3087 375.087 54.6832C374.975 54.957 374.784 55.1919 374.54 55.3591C374.296 55.5263 374.008 55.6185 373.712 55.6244Z" fill="#CBC7DB"/>
<path d="M375.305 59.8234H375.088L369.875 58.9546C369.497 58.8677 369.166 58.6393 368.951 58.3162C368.735 57.9931 368.652 57.5999 368.717 57.2171C368.787 56.8444 369.001 56.5143 369.313 56.2977C369.624 56.081 370.008 55.9953 370.382 56.0588L375.522 56.9999C375.713 57.0264 375.897 57.0908 376.063 57.1893C376.229 57.2878 376.373 57.4184 376.488 57.5735C376.603 57.7286 376.685 57.9051 376.731 58.0925C376.776 58.28 376.784 58.4746 376.753 58.6651C376.7 59.0039 376.521 59.3106 376.254 59.5249C375.986 59.7392 375.647 59.8456 375.305 59.8234Z" fill="#CBC7DB"/>
<path d="M400.643 53.7424C400.335 53.7134 400.038 53.6143 399.774 53.4528C399.467 53.2224 399.264 52.8794 399.21 52.4992C399.156 52.1191 399.254 51.7329 399.485 51.4257L416.353 29.1999C416.597 28.8879 416.952 28.6831 417.344 28.629C417.736 28.5749 418.134 28.6759 418.453 28.9103C418.749 29.1513 418.938 29.4995 418.979 29.8792C419.019 30.2588 418.908 30.6392 418.67 30.9375L401.802 53.1632C401.663 53.3391 401.487 53.4822 401.287 53.5823C401.087 53.6824 400.867 53.7371 400.643 53.7424Z" fill="#CBC7DB"/>
<path d="M415.34 34.3397C414.973 34.3239 414.624 34.1759 414.358 33.9231C414.092 33.6702 413.926 33.3296 413.892 32.9642C413.908 32.5783 414.063 32.2114 414.33 31.9317C414.596 31.652 414.955 31.4786 415.34 31.4439L421.059 31.2991H421.131C421.515 31.2991 421.884 31.4516 422.155 31.7232C422.427 31.9947 422.579 32.363 422.579 32.747C422.579 33.131 422.427 33.4993 422.155 33.7708C421.884 34.0424 421.515 34.1949 421.131 34.1949L415.412 34.3397H415.34Z" fill="#CBC7DB"/>
<path d="M412.661 37.9598C412.277 37.9598 411.908 37.8073 411.637 37.5357C411.365 37.2642 411.213 36.8959 411.213 36.5119C411.203 36.3252 411.231 36.1386 411.296 35.9632C411.361 35.7879 411.461 35.6276 411.589 35.4921C411.718 35.3566 411.873 35.2487 412.045 35.1751C412.217 35.1015 412.402 35.0637 412.588 35.0639L418.38 34.9191C418.567 34.9093 418.753 34.9376 418.929 35.0023C419.104 35.067 419.264 35.1668 419.4 35.2955C419.535 35.4242 419.643 35.5792 419.717 35.751C419.79 35.9228 419.828 36.1078 419.828 36.2947C419.848 36.4871 419.828 36.6817 419.768 36.8656C419.708 37.0496 419.61 37.2189 419.48 37.3624C419.35 37.5058 419.192 37.6203 419.015 37.6983C418.838 37.7763 418.646 37.8161 418.453 37.815L412.661 37.9598Z" fill="#CBC7DB"/>
<path d="M415.341 34.34C415.021 34.3472 414.708 34.2427 414.457 34.0445C414.206 33.8463 414.032 33.5668 413.965 33.2541L412.589 27.6795C412.535 27.4989 412.519 27.3089 412.541 27.1216C412.563 26.9342 412.624 26.7535 412.719 26.5905C412.814 26.4275 412.941 26.2859 413.093 26.1743C413.245 26.0627 413.419 25.9837 413.603 25.942C413.784 25.8877 413.974 25.8711 414.161 25.8934C414.348 25.9156 414.529 25.9761 414.692 26.0712C414.855 26.1662 414.997 26.2938 415.108 26.4459C415.22 26.5981 415.299 26.7716 415.341 26.9556L416.788 32.5301C416.877 32.9137 416.813 33.3167 416.611 33.6542C416.408 33.9918 416.083 34.2376 415.703 34.34H415.341Z" fill="#CBC7DB"/>
<path d="M412.662 37.9598C412.366 37.9539 412.078 37.8617 411.834 37.6945C411.589 37.5273 411.399 37.2924 411.286 37.0186L409.332 32.168C409.188 31.8128 409.192 31.4152 409.341 31.0624C409.49 30.7096 409.773 30.4303 410.128 30.2857C410.483 30.1425 410.881 30.1458 411.234 30.2951C411.586 30.4444 411.866 30.7273 412.01 31.0821L413.965 35.9327C414.108 36.2879 414.105 36.6855 413.956 37.0383C413.806 37.3911 413.523 37.6704 413.169 37.815L412.662 37.9598Z" fill="#CBC7DB"/>
<path d="M95.8532 27.1003C93.0297 27.1003 91.8714 22.3945 91.437 18.847C88.0344 18.485 82.5322 17.4715 82.5322 14.3584C82.5322 11.2454 87.962 10.2318 91.2922 9.86984C91.5818 6.25 92.6677 0.313477 95.8532 0.313477C99.0386 0.313477 100.125 6.25 100.487 9.86984C103.817 10.2318 109.247 11.3178 109.247 14.3584C109.247 17.3991 103.672 18.485 100.342 18.847C99.835 22.3945 98.7491 27.1003 95.8532 27.1003ZM85.5729 14.3584C86.2245 14.8652 88.5411 15.8064 92.8849 16.096H94.0433L94.1881 17.3267C94.5501 21.2361 95.3464 23.2632 95.8532 23.9148C96.36 23.2632 97.1563 21.2361 97.5907 17.3267V16.1684H98.8215C103.165 15.8788 105.41 14.9376 106.134 14.4308C105.41 13.9241 103.165 12.9829 98.8939 12.6933L97.6631 12.5485V11.2454C97.3735 6.53959 96.4324 4.0781 95.8532 3.35414C95.3464 4.0781 94.3329 6.53959 94.1157 11.2454L93.9709 12.4761L92.7401 12.6209C88.4687 12.9105 86.2245 13.8517 85.5729 14.3584Z" fill="#090909"/>
<path d="M356.916 198.97C354.092 198.97 352.934 194.337 352.5 190.789C349.097 190.427 343.522 189.341 343.522 186.301C343.522 183.26 348.952 182.174 352.355 181.74C352.644 178.192 353.658 172.256 356.916 172.256C360.174 172.256 361.187 178.192 361.549 181.74C364.88 182.174 370.309 183.26 370.309 186.301C370.309 189.341 364.735 190.427 361.332 190.789C360.898 194.337 359.812 198.97 356.916 198.97ZM346.636 186.301C347.287 186.807 349.604 187.676 353.875 188.038H355.106L355.251 189.269C355.613 193.178 356.409 195.205 356.916 195.857C357.423 195.205 358.219 193.178 358.581 189.269L358.726 188.038H359.957C364.228 187.676 366.545 186.807 367.269 186.301C366.545 185.794 364.3 184.853 360.029 184.563L358.798 184.418V183.188C358.509 178.699 357.567 176.093 356.988 175.296C356.409 176.093 355.468 178.699 355.178 183.188V184.418L353.948 184.563C349.531 184.853 347.287 185.794 346.636 186.301Z" fill="#CBC7DB"/>
<path d="M320.211 233.648C318.039 233.648 317.097 230.68 316.663 227.784C313.84 227.422 310.22 226.553 310.22 224.164C310.22 221.775 313.767 220.834 316.591 220.544C316.88 217.504 317.749 213.667 320.211 213.667C322.672 213.667 323.613 217.504 323.903 220.544C326.726 220.834 330.274 221.775 330.274 224.164C330.274 226.553 326.581 227.422 323.758 227.784C323.396 230.68 322.455 233.648 320.211 233.648ZM313.695 224.164C315.124 224.628 316.61 224.896 318.111 224.96H319.342V226.191C319.452 227.521 319.719 228.833 320.138 230.101C320.591 228.839 320.883 227.526 321.007 226.191V224.96H322.238C323.717 224.907 325.18 224.638 326.581 224.164C325.22 223.626 323.774 223.331 322.31 223.295H321.079V221.992C321.029 220.359 320.712 218.744 320.138 217.214C319.635 218.76 319.343 220.368 319.269 221.992V223.295H318.039C316.553 223.343 315.085 223.637 313.695 224.164Z" fill="#090909"/>
<path d="M350.401 333.121H216.25C215.866 333.121 215.497 332.969 215.226 332.697C214.954 332.426 214.802 332.057 214.802 331.673C214.802 331.289 214.954 330.921 215.226 330.649C215.497 330.378 215.866 330.225 216.25 330.225H350.401C350.785 330.225 351.153 330.378 351.425 330.649C351.696 330.921 351.849 331.289 351.849 331.673C351.849 332.057 351.696 332.426 351.425 332.697C351.153 332.969 350.785 333.121 350.401 333.121Z" fill="#090909"/>
<path d="M380.082 343.908H262.148C261.764 343.908 261.396 343.756 261.124 343.484C260.853 343.213 260.7 342.844 260.7 342.46C260.7 342.076 260.853 341.708 261.124 341.437C261.396 341.165 261.764 341.012 262.148 341.012H380.082C380.466 341.012 380.835 341.165 381.106 341.437C381.378 341.708 381.53 342.076 381.53 342.46C381.53 342.844 381.378 343.213 381.106 343.484C380.835 343.756 380.466 343.908 380.082 343.908Z" fill="#090909"/>
<path d="M31.7096 326.823H18.2438C17.8598 326.823 17.4915 326.67 17.22 326.399C16.9484 326.127 16.7959 325.759 16.7959 325.375C16.7959 324.991 16.9484 324.622 17.22 324.351C17.4915 324.079 17.8598 323.927 18.2438 323.927H31.7096C32.0936 323.927 32.4619 324.079 32.7334 324.351C33.005 324.622 33.1575 324.991 33.1575 325.375C33.1575 325.759 33.005 326.127 32.7334 326.399C32.4619 326.67 32.0936 326.823 31.7096 326.823Z" fill="#090909"/>
<path d="M32.9405 334.062H1.44793C1.06392 334.062 0.695607 333.91 0.424067 333.638C0.152527 333.366 0 332.998 0 332.614C0 332.23 0.152527 331.862 0.424067 331.59C0.695607 331.319 1.06392 331.166 1.44793 331.166H32.9405C33.3245 331.166 33.6928 331.319 33.9643 331.59C34.2359 331.862 34.3884 332.23 34.3884 332.614C34.3884 332.998 34.2359 333.366 33.9643 333.638C33.6928 333.91 33.3245 334.062 32.9405 334.062Z" fill="#090909"/>
<path d="M165.65 158.034L161.318 159.211L166.039 176.586L170.371 175.409L165.65 158.034Z" fill="#CBC7DB"/>
<path d="M176.359 98.9901H175.924C171.19 98.3147 166.906 95.8218 163.979 92.04C161.117 88.3776 159.426 83.9368 159.128 79.2982C159.109 79.0603 159.136 78.8209 159.209 78.5938C159.282 78.3666 159.399 78.1561 159.554 77.9744C159.709 77.7927 159.898 77.6435 160.111 77.5352C160.323 77.4269 160.555 77.3617 160.793 77.3435C161.27 77.322 161.736 77.4819 162.099 77.791C162.462 78.1 162.694 78.5351 162.748 79.0086C162.949 82.9156 164.366 86.6621 166.802 89.7233C167.945 91.2636 169.387 92.5576 171.041 93.5279C172.696 94.4982 174.529 95.1248 176.431 95.3702C177.922 95.1575 179.285 94.4116 180.268 93.2707C180.485 92.9811 181.209 92.1848 181.644 89.6509C182.078 87.117 182.15 86.1035 181.209 81.7597C181.113 81.2796 181.212 80.7811 181.483 80.3738C181.755 79.9665 182.177 79.6838 182.657 79.5878C183.137 79.4918 183.636 79.5904 184.043 79.8619C184.45 80.1335 184.733 80.5557 184.829 81.0357C185.698 85.5243 185.625 87.841 185.191 90.3025C184.757 92.764 183.743 94.7911 183.019 95.6598C181.326 97.6053 178.931 98.8024 176.359 98.9901Z" fill="#CBC7DB"/>
<path d="M169.047 113.469H156.884C156.5 113.469 156.132 113.317 155.861 113.045C155.589 112.774 155.437 112.405 155.437 112.021C155.437 111.637 155.589 111.269 155.861 110.998C156.132 110.726 156.5 110.573 156.884 110.573H169.047C169.431 110.573 169.799 110.726 170.071 110.998C170.342 111.269 170.495 111.637 170.495 112.021C170.495 112.405 170.342 112.774 170.071 113.045C169.799 113.317 169.431 113.469 169.047 113.469Z" fill="white"/>
<path d="M156.884 125.632C156.5 125.632 156.132 125.479 155.861 125.208C155.589 124.936 155.437 124.568 155.437 124.184V112.021C155.437 111.637 155.589 111.269 155.861 110.998C156.132 110.726 156.5 110.573 156.884 110.573C157.268 110.573 157.637 110.726 157.908 110.998C158.18 111.269 158.332 111.637 158.332 112.021V124.184C158.332 124.568 158.18 124.936 157.908 125.208C157.637 125.479 157.268 125.632 156.884 125.632Z" fill="white"/>
<path d="M169.046 125.632C168.853 125.643 168.66 125.612 168.479 125.543C168.299 125.474 168.135 125.368 167.999 125.231C167.862 125.095 167.756 124.931 167.687 124.751C167.618 124.57 167.587 124.377 167.598 124.184V112.022C167.587 111.829 167.618 111.636 167.687 111.455C167.756 111.275 167.862 111.111 167.999 110.975C168.135 110.838 168.299 110.732 168.479 110.663C168.66 110.594 168.853 110.563 169.046 110.574C169.43 110.574 169.798 110.726 170.069 110.998C170.341 111.269 170.494 111.638 170.494 112.022V124.184C170.494 124.568 170.341 124.937 170.069 125.208C169.798 125.48 169.43 125.632 169.046 125.632Z" fill="white"/>
<path d="M169.047 125.632H156.884C156.5 125.632 156.132 125.48 155.861 125.208C155.589 124.937 155.437 124.568 155.437 124.184C155.437 123.8 155.589 123.432 155.861 123.16C156.132 122.889 156.5 122.736 156.884 122.736H169.047C169.431 122.736 169.799 122.889 170.071 123.16C170.342 123.432 170.495 123.8 170.495 124.184C170.495 124.568 170.342 124.937 170.071 125.208C169.799 125.48 169.431 125.632 169.047 125.632Z" fill="white"/>
<path d="M169.046 116.148H156.884C156.691 116.159 156.498 116.128 156.317 116.059C156.137 115.99 155.973 115.884 155.836 115.747C155.7 115.611 155.594 115.447 155.525 115.267C155.455 115.086 155.425 114.893 155.436 114.7C155.436 114.316 155.588 113.948 155.86 113.677C156.131 113.405 156.5 113.252 156.884 113.252H169.046C169.43 113.252 169.798 113.405 170.07 113.677C170.342 113.948 170.494 114.316 170.494 114.7C170.505 114.893 170.474 115.086 170.405 115.267C170.336 115.447 170.23 115.611 170.093 115.747C169.957 115.884 169.793 115.99 169.612 116.059C169.432 116.128 169.239 116.159 169.046 116.148Z" fill="white"/>
<path d="M203.652 162.12C203.268 162.12 202.899 161.967 202.628 161.696C202.356 161.424 202.204 161.056 202.204 160.672L201.335 118.392C201.325 118.202 201.353 118.012 201.417 117.833C201.481 117.653 201.579 117.488 201.707 117.347C201.835 117.206 201.989 117.091 202.162 117.01C202.334 116.928 202.52 116.881 202.71 116.872H202.783C203.167 116.872 203.535 117.025 203.807 117.296C204.078 117.568 204.231 117.936 204.231 118.32L205.1 160.6C205.101 160.979 204.961 161.345 204.707 161.627C204.452 161.908 204.102 162.084 203.724 162.12H203.652Z" fill="#090909"/>
<path d="M146.024 139.605H145.879C145.688 139.578 145.504 139.514 145.338 139.416C145.173 139.317 145.028 139.186 144.913 139.031C144.799 138.876 144.716 138.7 144.671 138.512C144.625 138.325 144.618 138.13 144.648 137.94C144.67 137.575 144.719 137.212 144.793 136.854C145.083 134.248 145.662 129.325 146.458 126.863C147.562 123.768 149.177 120.881 151.236 118.32C151.348 118.152 151.493 118.009 151.663 117.901C151.832 117.792 152.023 117.72 152.222 117.689C152.421 117.658 152.625 117.669 152.819 117.721C153.014 117.774 153.196 117.866 153.353 117.993C153.51 118.119 153.638 118.277 153.731 118.456C153.823 118.635 153.877 118.832 153.889 119.033C153.901 119.234 153.871 119.436 153.801 119.625C153.73 119.814 153.621 119.986 153.481 120.13C151.649 122.439 150.206 125.031 149.209 127.804C148.485 129.976 147.906 134.682 147.617 137.216C147.544 137.65 147.544 138.012 147.472 138.302C147.436 138.66 147.268 138.992 147 139.233C146.732 139.474 146.384 139.607 146.024 139.605Z" fill="#090909"/>
<path d="M180.051 220.472C176.793 243.566 169.264 265.72 161.662 287.656L161.518 287.873C156.812 295.764 148.776 299.891 141.97 305.682C135.165 311.474 128.215 317.411 121.844 323.782C115.473 330.153 110.478 337.32 104.541 343.98C101.485 347.304 98.1687 350.379 94.623 353.175C91.51 355.564 87.8177 359.256 83.9083 360.632L58.2799 301.411L58.1351 301.194C57.6283 296.995 61.393 294.461 64.4336 292.434L72.904 286.787C78.1166 283.312 83.5463 279.909 88.6865 276.217C93.8267 272.525 96.7225 268.615 101.428 265.864C104.759 263.837 108.451 263.113 111.057 260.29L111.636 259.928C118.948 253.774 119.889 242.77 122.279 234.082C124.668 225.395 130.749 216.345 131.545 206.499C131.69 204.4 128.432 204.472 128.287 206.499C127.564 215.549 122.061 223.367 119.527 231.983C116.994 240.598 116.414 250.878 109.971 257.032C109.566 257.121 109.207 257.352 108.958 257.683C107.22 260.145 104.179 260.797 101.645 262.1C99.5094 263.138 97.5344 264.479 95.7814 266.081C90.4618 270.653 84.8776 274.908 79.0577 278.823C73.1212 282.733 67.1847 286.497 61.3929 290.552C57.3387 293.375 54.2981 296.922 55.022 302.135C55.0304 302.405 55.1269 302.664 55.297 302.873C55.467 303.082 55.7011 303.23 55.9632 303.293L81.4468 362.152C81.395 362.429 81.4115 362.715 81.495 362.985C81.5786 363.255 81.7265 363.5 81.9262 363.7C82.1258 363.899 82.371 364.047 82.6407 364.131C82.9104 364.214 83.1964 364.231 83.4739 364.179C87.5281 363.31 90.786 360.125 94.0438 357.663C97.5866 355.016 100.971 352.164 104.179 349.12C111.129 342.243 116.342 333.99 123.22 327.039C130.097 320.089 137.047 314.153 144.287 307.999C151.527 301.845 158.332 298.298 163.327 291.058C163.548 290.967 163.746 290.829 163.908 290.654C164.071 290.479 164.194 290.271 164.269 290.045C172.087 267.602 179.834 245.014 183.237 221.34C183.526 219.313 180.341 218.444 180.051 220.472Z" fill="#090909"/>
<path d="M206.04 326.895C205.171 313.502 206.257 300.253 206.909 286.787C208.357 259.349 207.922 231.911 207.271 204.472C206.909 189.776 206.563 175.259 205.405 160.562C205.26 158.463 202.002 158.463 202.22 160.562C204.03 185.467 204.303 210.336 204.52 235.241C204.664 248.417 204.592 261.521 204.158 274.625C203.723 287.729 202.42 300.181 202.275 312.995C202.203 319.945 202.71 326.968 203.289 333.918L204.158 345.067C204.303 347.745 205.606 353.537 203.072 355.564C185.986 355.781 169.045 358.75 152.032 357.736L148.412 303.728C148.376 303.357 148.197 303.014 147.914 302.771C147.63 302.529 147.264 302.405 146.892 302.425C146.698 302.424 146.507 302.464 146.33 302.542C146.153 302.62 145.994 302.734 145.864 302.878C145.735 303.021 145.636 303.19 145.576 303.374C145.516 303.558 145.496 303.753 145.516 303.945L149.136 357.953C149.13 358.125 149.155 358.297 149.209 358.46C149.094 358.715 149.039 358.992 149.049 359.271C149.06 359.55 149.134 359.823 149.268 360.068C149.401 360.314 149.589 360.525 149.817 360.686C150.046 360.846 150.308 360.952 150.584 360.994C168.249 362.297 185.769 359.039 203.361 358.894H203.941C204.146 358.896 204.348 358.844 204.526 358.742C204.704 358.64 204.852 358.493 204.954 358.315C208.357 355.781 207.705 351.148 207.488 347.311C207.126 340.433 206.474 333.7 206.04 326.895Z" fill="#090909"/>
<path d="M157.824 301.049C159.731 317.122 160.625 333.298 160.503 349.483C160.503 349.771 160.617 350.047 160.821 350.251C161.025 350.454 161.301 350.569 161.589 350.569C161.877 350.569 162.153 350.454 162.357 350.251C162.56 350.047 162.675 349.771 162.675 349.483C162.797 333.298 161.903 317.122 159.996 301.049C159.851 299.674 157.68 299.602 157.824 301.049Z" fill="#CBC7DB"/>
<path d="M174.548 269.412C176.43 282.516 176.358 295.837 176.72 309.086L177.806 348.542C177.806 348.83 177.92 349.106 178.124 349.31C178.328 349.513 178.604 349.628 178.892 349.628C179.18 349.628 179.456 349.513 179.66 349.31C179.864 349.106 179.978 348.83 179.978 348.542C179.616 334.931 179.254 321.248 178.82 307.638C178.385 294.027 178.458 281.647 176.648 268.833C176.503 267.385 174.403 268.037 174.548 269.412Z" fill="#CBC7DB"/>
<path d="M190.114 168.998C192.853 198.67 193.964 228.469 193.444 258.263C192.938 288.09 191.055 317.99 191.924 347.818C191.996 349.193 194.168 349.193 194.096 347.818C193.227 317.99 195.109 288.09 195.616 258.263C196.136 228.469 195.025 198.67 192.286 168.998C192.214 167.55 190.042 167.55 190.114 168.998Z" fill="#CBC7DB"/>
<path d="M85.3558 344.705C103.917 329.607 120.788 312.543 135.672 293.81C143.273 284.253 150.44 274.407 155.725 263.331C161.01 252.254 164.92 240.526 168.684 228.87C173.076 215.114 176.962 201.166 180.34 187.025C180.417 186.746 180.38 186.449 180.238 186.197C180.095 185.946 179.859 185.762 179.58 185.685C179.302 185.608 179.004 185.645 178.753 185.788C178.502 185.93 178.318 186.167 178.241 186.445C172.521 210.553 165.789 235.241 155.798 257.973C145.807 280.706 129.807 298.95 113.301 316.108C104.006 325.691 94.1683 334.731 83.8355 343.184C82.7496 344.053 84.2699 345.573 85.3558 344.705Z" fill="#CBC7DB"/>
<path d="M78.4059 326.388C111.717 301.559 138.438 268.947 156.232 231.404C158.875 226.045 161.196 220.533 163.182 214.897C165.427 208.381 165.354 201.142 168.105 194.916C168.685 193.613 166.802 192.527 166.223 193.83C164.124 198.535 163.906 203.531 162.748 208.454C161.59 213.377 159.056 219.965 156.594 225.467C152.429 234.824 147.691 243.915 142.405 252.688C131.749 270.338 118.985 286.626 104.396 301.194C95.9356 309.597 86.8872 317.388 77.3199 324.506C76.234 325.374 77.3199 327.257 78.4059 326.388Z" fill="#CBC7DB"/>
<path d="M72.0346 305.321C88.3962 292.217 105.047 278.679 118.658 262.607C130.676 248.417 141.68 230.245 141.68 210.988C141.68 210.7 141.566 210.424 141.362 210.22C141.158 210.016 140.882 209.902 140.594 209.902C140.306 209.902 140.03 210.016 139.826 210.22C139.623 210.424 139.508 210.7 139.508 210.988C139.508 230.824 127.49 249.43 114.821 263.765C102.152 278.1 86.0071 291.348 70.5142 303.8C69.4283 304.669 70.9486 306.189 72.0346 305.321Z" fill="#CBC7DB"/>
<path d="M156.81 381.337C159.344 378.296 163.254 381.409 166.294 381.771C167.65 381.943 169.026 381.743 170.276 381.192C173.751 379.962 176.575 379.238 180.195 380.396C182.366 381.047 184.032 381.844 186.348 381.771C191.561 381.482 195.615 378.296 200.828 380.324C206.04 382.351 208.212 381.047 212.266 379.093C213.497 378.514 212.411 376.631 211.108 377.21C209.805 377.79 206.33 379.527 203.506 379.02C202.566 378.722 201.646 378.359 200.755 377.934C198.995 377.297 197.1 377.123 195.253 377.428C193.154 377.79 191.127 378.586 189.099 379.093C185.552 379.962 183.525 379.02 180.195 378.079C178.162 377.55 176.041 377.451 173.968 377.79C171 378.224 168.828 380.106 165.715 379.455C162.602 378.803 158.258 376.197 155.218 379.817C154.349 380.903 155.869 382.423 156.81 381.337Z" fill="white"/>
<path d="M39.5285 320.452C45.5374 322.551 41.4832 329.284 45.8994 332.759C50.3156 336.234 51.0396 336.741 50.3156 341.809C50.0984 343.474 50.026 344.922 50.8224 346.442C52.9943 350.279 58.6412 350.641 58.6412 355.709C58.6412 360.777 59.0756 363.672 62.7679 366.641C63.8538 367.509 65.3741 365.989 64.2882 365.12C61.0303 362.442 60.8131 359.618 60.8131 355.709C60.9137 354.196 60.506 352.692 59.6548 351.437C58.4964 349.772 56.6865 348.831 55.1662 347.673C53.6459 346.514 53.2115 346.37 52.7047 345.356C52.1979 344.342 52.7771 341.519 52.8495 339.637C52.9646 337.652 52.3462 335.693 51.112 334.135C49.0125 331.528 46.0442 331.456 45.5374 327.474C45.3202 325.302 45.827 323.782 44.5963 321.755C43.5696 320.107 41.9715 318.895 40.1077 318.352C38.8045 317.918 38.2254 320.017 39.5285 320.452Z" fill="white"/>
<path d="M235.506 344.56H249.985C250.273 344.56 250.549 344.445 250.753 344.242C250.957 344.038 251.071 343.762 251.071 343.474C251.071 343.186 250.957 342.909 250.753 342.706C250.549 342.502 250.273 342.388 249.985 342.388H235.506C235.218 342.388 234.942 342.502 234.738 342.706C234.534 342.909 234.42 343.186 234.42 343.474C234.42 343.762 234.534 344.038 234.738 344.242C234.942 344.445 235.218 344.56 235.506 344.56Z" fill="#090909"/>
<path d="M387.901 344.198C388.189 344.198 388.466 344.083 388.669 343.88C388.873 343.676 388.987 343.4 388.987 343.112C388.987 342.824 388.873 342.548 388.669 342.344C388.466 342.14 388.189 342.026 387.901 342.026C387.613 342.026 387.337 342.14 387.133 342.344C386.93 342.548 386.815 342.824 386.815 343.112C386.815 343.4 386.93 343.676 387.133 343.88C387.337 344.083 387.613 344.198 387.901 344.198Z" fill="#090909"/>
<path d="M60.1615 341.229L64.6501 341.736L65.4464 341.881H65.8084C65.2613 341.994 64.7276 342.164 64.2157 342.388C62.8402 343.112 61.0302 344.198 60.9578 346.007C60.8855 347.817 62.261 347.673 63.4917 347.89C66.0796 348.326 68.69 348.616 71.3106 348.759C72.6861 348.903 72.6861 346.731 71.3106 346.587L67.3287 346.225C67.1116 346.225 62.9849 345.935 62.8401 345.573C62.6954 345.211 67.5459 343.112 67.9803 342.315C69.8626 339.057 61.7542 339.13 60.1615 338.985C58.5687 338.84 58.7859 341.084 60.1615 341.157V341.229Z" fill="white"/>
<path d="M180.702 373.591L191.706 365.555L190.041 364.613C190.113 367.22 189.462 370.767 190.403 373.156C190.487 373.439 190.677 373.68 190.932 373.828C191.188 373.976 191.491 374.02 191.778 373.953C194.312 373.229 196.918 370.695 199.09 369.174C201.212 367.859 203.117 366.223 204.737 364.324C205.606 363.166 203.724 362.08 202.855 363.166C201.986 364.251 199.018 366.568 196.918 368.016C194.819 369.464 193.154 371.346 191.199 371.853L192.502 372.577C191.706 370.478 192.285 366.858 192.213 364.613C192.213 363.89 191.271 363.166 190.62 363.672L179.616 371.708C178.53 372.505 179.543 374.387 180.702 373.591Z" fill="white"/>
<path d="M125.97 105.361C122.93 111.515 118.803 117.886 117.428 124.691C117.138 126.066 116.342 128.817 117.428 130.048C118.514 131.279 120.975 130.41 122.133 129.541C122.31 129.434 122.451 129.278 122.542 129.093C122.633 128.908 122.669 128.7 122.646 128.495C122.623 128.29 122.543 128.096 122.413 127.935C122.284 127.774 122.112 127.653 121.916 127.587L120.541 127.37C119.6 126.646 119.962 125.342 120.613 124.184L118.658 123.967C119.165 125.27 118.658 126.935 119.6 128.166C120.541 129.397 121.482 129.035 121.554 129.252L121.989 127.732L120.251 128.311C118.876 128.456 118.876 130.627 120.251 130.483C121.247 130.416 122.213 130.118 123.075 129.614C123.198 129.547 123.306 129.455 123.392 129.344C123.478 129.233 123.539 129.105 123.573 128.969C123.608 128.833 123.613 128.692 123.589 128.553C123.566 128.415 123.514 128.283 123.437 128.166C123.147 127.442 122.713 127.587 122.351 127.152C121.989 126.718 121.265 124.763 120.758 123.388C120.687 123.19 120.563 123.015 120.4 122.881C120.236 122.748 120.04 122.662 119.832 122.633C119.623 122.603 119.41 122.63 119.216 122.712C119.023 122.794 118.855 122.928 118.731 123.098C117.934 124.474 116.921 126.79 117.862 128.383C118.803 129.976 119.889 129.252 121.337 129.686L121.048 127.659L119.238 127.514L119.527 125.27C119.676 124.433 119.894 123.61 120.179 122.809C120.879 120.667 121.751 118.585 122.785 116.582C124.45 113.18 126.188 109.85 127.853 106.447C128.504 105.216 126.622 104.13 125.97 105.361Z" fill="#80A5AE"/>
<path d="M146.095 125.56H145.951L119.019 122.23C118.807 122.242 118.594 122.207 118.397 122.128C118.2 122.049 118.022 121.927 117.877 121.771C117.732 121.616 117.623 121.43 117.558 121.228C117.493 121.025 117.473 120.811 117.5 120.6C117.527 120.389 117.6 120.187 117.714 120.007C117.829 119.828 117.981 119.676 118.16 119.562C118.34 119.448 118.542 119.375 118.753 119.348C118.964 119.321 119.179 119.341 119.381 119.406L146.24 122.664C146.431 122.682 146.616 122.738 146.785 122.828C146.953 122.918 147.103 123.041 147.224 123.189C147.345 123.337 147.436 123.507 147.491 123.691C147.545 123.874 147.563 124.066 147.543 124.257C147.507 124.615 147.339 124.947 147.071 125.188C146.804 125.429 146.456 125.562 146.095 125.56Z" fill="#CBC7DB"/>
<path d="M190.693 37.3804L188.086 39.8419C187.942 37.7424 187.869 35.6429 187.724 33.5434C187.733 33.301 187.66 33.0626 187.518 32.8664C187.375 32.6701 187.171 32.5273 186.937 32.4607C186.704 32.394 186.455 32.4074 186.231 32.4987C186.006 32.5899 185.818 32.7538 185.697 32.9642C184.543 34.8361 183.261 36.6261 181.86 38.3216C181.281 35.3533 180.557 32.3127 179.761 29.3444C179.699 29.1128 179.563 28.908 179.373 28.7619C179.183 28.6157 178.951 28.5365 178.711 28.5365C178.471 28.5365 178.239 28.6157 178.049 28.7619C177.859 28.908 177.723 29.1128 177.661 29.3444C176.921 31.4798 175.846 33.4838 174.476 35.2809C173.834 32.0291 172.474 28.9618 170.494 26.3038C170.352 26.1063 170.147 25.9624 169.913 25.8952C169.679 25.828 169.429 25.8414 169.203 25.9333C168.978 26.0252 168.79 26.1901 168.669 26.4018C168.549 26.6134 168.503 26.8593 168.539 27.1001C169.191 31.5887 169.625 36.0049 168.394 40.3487C166.376 38.4917 164.14 36.8872 161.734 35.5705C161.547 35.4616 161.332 35.411 161.116 35.425C160.901 35.4391 160.694 35.5172 160.523 35.6494C160.352 35.7816 160.224 35.9618 160.156 36.167C160.088 36.3722 160.083 36.5931 160.141 36.8013C160.431 37.8872 160.72 38.9732 160.938 40.0591C161.444 51.2082 159.055 62.6469 153.119 72.2033C153.032 72.3673 152.989 72.5508 152.993 72.7363C152.998 72.9217 153.05 73.1029 153.144 73.2626C153.239 73.4224 153.372 73.5552 153.533 73.6486C153.693 73.742 153.874 73.7927 154.06 73.796H154.132C155.797 74.7371 158.331 74.0856 160.141 73.9408C161.951 73.796 161.662 72.1309 160.431 71.7689L159.417 71.5517C159.577 71.4145 159.701 71.2406 159.779 71.0449C159.963 70.9935 160.128 70.8916 160.256 70.7508C160.384 70.6099 160.469 70.4359 160.503 70.2485L160.648 69.8866C160.692 69.7632 160.711 69.632 160.701 69.5012C160.692 69.3704 160.656 69.243 160.594 69.1271C160.533 69.0112 160.448 68.9095 160.345 68.8283C160.242 68.7471 160.123 68.6884 159.996 68.6558C160.069 68.0766 160.214 67.4975 160.286 66.8459C161.188 65.2941 161.962 63.672 162.603 61.9953C162.892 61.199 162.168 60.6922 161.517 60.6922C160.865 60.6922 161.951 58.8099 162.241 57.8687C162.407 57.9664 162.595 58.021 162.788 58.0275C162.981 58.034 163.173 57.9922 163.345 57.9059C163.518 57.8196 163.666 57.6915 163.777 57.5333C163.887 57.3751 163.957 57.1917 163.978 56.9999C164.123 55.6244 164.195 54.2489 164.268 52.8733C164.413 52.8314 164.546 52.7576 164.659 52.6574C164.772 52.5572 164.861 52.4331 164.919 52.2942C165.083 52.3808 165.267 52.4239 165.452 52.4194C165.638 52.415 165.819 52.3631 165.979 52.2687C166.139 52.1743 166.271 52.0406 166.365 51.8803C166.458 51.72 166.509 51.5385 166.512 51.353V49.6155C166.681 49.6512 166.856 49.6433 167.02 49.5927C167.185 49.542 167.334 49.4502 167.453 49.3259C168.521 48.3424 169.536 47.3033 170.494 46.2128C173.669 45.728 176.913 45.9757 179.978 46.9368C183.598 48.0228 185.19 49.6155 187.435 52.5837C187.572 52.7436 187.746 52.8678 187.942 52.9457L187.724 54.4661C187.507 55.8416 189.534 56.4208 189.751 55.0452C190.693 49.4707 191.561 43.9685 192.503 38.394C192.647 37.4528 191.489 36.5841 190.693 37.3804Z" fill="#090909"/>
<path d="M167.236 57.2175C167.598 54.8284 165.136 53.3081 162.964 54.2492C160.792 55.1904 160.141 58.6654 161.227 60.1858C161.54 60.5744 161.964 60.8587 162.442 61.0009C162.921 61.1432 163.431 61.1366 163.905 60.9821C165.136 60.7649 165.426 59.679 165.498 58.5206C165.571 57.3623 165.353 55.9144 164.05 55.9144C162.747 55.9144 162.24 57.5795 162.023 58.593C161.806 59.6066 163.833 60.5478 164.123 59.1722C164.412 57.7967 164.267 58.0863 164.557 57.9415H163.905L163.181 57.2175C163.265 57.5249 163.313 57.8405 163.326 58.1587C163.344 58.3547 163.319 58.5522 163.254 58.7378C163.182 59.0274 163.181 59.0274 163.326 58.7378H163.037C162.892 58.7378 162.892 58.6654 162.964 58.593C163.037 58.5206 163.109 57.8691 163.109 57.6519C163.109 57.4347 163.471 56.2763 163.905 56.0592C164.34 55.842 165.209 56.0592 165.136 56.4935C165.064 56.9279 167.019 58.4482 167.236 57.0727V57.2175Z" fill="white"/>
<path d="M343.015 6.32263C351.327 6.90157 359.664 7.04656 367.992 6.757C368.28 6.757 368.556 6.64259 368.76 6.43894C368.963 6.23528 369.078 5.95907 369.078 5.67105C369.078 5.38304 368.963 5.10683 368.76 4.90317C368.556 4.69952 368.28 4.5851 367.992 4.5851C359.664 4.87466 351.327 4.72967 343.015 4.15072C341.64 4.00593 341.64 6.17783 343.015 6.32263Z" fill="#090909"/>
<path d="M377.403 6.10525H385.005C385.293 6.10525 385.569 5.99084 385.773 5.78718C385.977 5.58353 386.091 5.30731 386.091 5.0193C386.091 4.73129 385.977 4.45507 385.773 4.25142C385.569 4.04776 385.293 3.93335 385.005 3.93335H377.403C377.115 3.93335 376.839 4.04776 376.635 4.25142C376.432 4.45507 376.317 4.73129 376.317 5.0193C376.317 5.30731 376.432 5.58353 376.635 5.78718C376.839 5.99084 377.115 6.10525 377.403 6.10525Z" fill="#090909"/>
<path d="M379.575 150.898H413.602C413.89 150.898 414.166 150.784 414.37 150.58C414.573 150.377 414.688 150.101 414.688 149.813C414.688 149.525 414.573 149.248 414.37 149.045C414.166 148.841 413.89 148.727 413.602 148.727H379.575C379.287 148.727 379.011 148.841 378.807 149.045C378.604 149.248 378.489 149.525 378.489 149.813C378.489 150.101 378.604 150.377 378.807 150.58C379.011 150.784 379.287 150.898 379.575 150.898Z" fill="#090909"/>
<path d="M422.651 151.623H425.909C426.197 151.623 426.473 151.508 426.677 151.305C426.881 151.101 426.995 150.825 426.995 150.537C426.995 150.249 426.881 149.972 426.677 149.769C426.473 149.565 426.197 149.451 425.909 149.451H422.651C422.363 149.451 422.087 149.565 421.883 149.769C421.68 149.972 421.565 150.249 421.565 150.537C421.565 150.825 421.68 151.101 421.883 151.305C422.087 151.508 422.363 151.623 422.651 151.623Z" fill="#090909"/>
<path d="M327.667 121.94C327.594 126.718 328.174 130.555 331.359 134.32C334.69 137.996 338.795 140.889 343.377 142.79C344.68 143.37 345.766 141.487 344.463 140.98C340.783 139.44 337.42 137.231 334.545 134.465C330.708 130.772 329.766 127.153 329.839 121.94C329.911 120.565 327.739 120.565 327.667 121.94Z" fill="white"/>
<path d="M348.445 143.152C349.988 143.646 351.631 143.746 353.223 143.442C354.526 143.225 353.947 141.125 352.644 141.342C351.431 141.537 350.19 141.437 349.024 141.053C347.721 140.618 347.141 142.718 348.445 143.152Z" fill="white"/>
<path d="M160.286 150.319C160.938 152.129 162.024 154.301 162.241 156.256C162.458 158.211 161.807 157.631 161.083 159.079C160.359 160.527 161.517 165.305 162.096 167.767C162.675 170.228 162.965 174.862 165.282 176.889C166.006 177.54 166.657 177.54 167.598 177.83C170.712 178.699 171.797 181.812 171.942 184.925C171.942 185.213 172.057 185.489 172.26 185.693C172.464 185.896 172.74 186.011 173.028 186.011C173.316 186.011 173.592 185.896 173.796 185.693C174 185.489 174.114 185.213 174.114 184.925C173.969 182.101 173.101 178.916 171.001 176.889C170.354 176.356 169.619 175.94 168.829 175.658C165.861 174.355 165.571 172.835 164.847 169.722C164.123 166.609 163.761 165.45 163.327 163.278C162.893 161.106 162.82 161.179 163.979 159.152C164.123 158.935 164.485 158.862 164.63 158.573C165.427 156.039 163.182 152.202 162.386 149.74C161.952 148.365 159.852 148.944 160.286 150.319Z" fill="#090909"/>
<path d="M96.7225 187.604C96.9397 193.975 99.6183 200.997 101.79 206.934C102.297 208.237 104.397 207.658 103.89 206.354C101.79 200.635 99.1116 193.757 98.8944 187.604C98.822 186.228 96.6501 186.228 96.7225 187.604Z" fill="#090909"/>
<path d="M102.948 210.192C103.397 211.95 104.239 213.583 105.409 214.97C106.278 216.056 107.799 214.535 106.93 213.449C106.021 212.329 105.377 211.017 105.048 209.612C104.686 208.309 102.586 208.889 102.948 210.192Z" fill="#090909"/>
<path d="M145.878 204.4C144.358 202.879 142.114 201.938 141.172 199.911C140.231 197.884 138.711 199.766 139.29 200.997C139.869 202.228 142.62 204.255 144.285 205.92C144.487 206.131 144.764 206.254 145.056 206.261C145.348 206.267 145.631 206.158 145.842 205.956C146.053 205.755 146.176 205.477 146.182 205.185C146.189 204.894 146.08 204.611 145.878 204.4Z" fill="#090909"/>
<path d="M152.468 200.418C151.671 199.477 150.513 198.898 149.572 198.174C148.501 197.32 147.529 196.349 146.676 195.278C145.735 194.264 144.214 195.784 145.156 196.87C146.023 197.883 146.967 198.827 147.979 199.694C149.028 200.36 150.021 201.11 150.947 201.938C151.888 203.024 153.409 201.431 152.468 200.418Z" fill="#090909"/>
<path d="M449.801 380.758H415.702C414.331 380.748 413.012 380.232 411.997 379.311C410.982 378.389 410.343 377.126 410.2 375.763L404.626 319.728C404.556 318.96 404.645 318.186 404.889 317.455C405.133 316.724 405.526 316.052 406.043 315.481C406.56 314.909 407.19 314.451 407.893 314.135C408.596 313.82 409.357 313.653 410.128 313.646H454.073C454.833 313.644 455.586 313.799 456.284 314.103C456.981 314.406 457.608 314.85 458.125 315.408C458.642 315.966 459.038 316.625 459.288 317.344C459.537 318.062 459.635 318.825 459.575 319.583L455.303 375.618C455.211 377.013 454.591 378.322 453.569 379.276C452.547 380.231 451.2 380.761 449.801 380.758Z" fill="#80A5AE"/>
<path d="M403.178 328.994H455.81C456.098 328.994 456.374 328.88 456.578 328.676C456.782 328.473 456.896 328.196 456.896 327.908C456.896 327.62 456.782 327.344 456.578 327.141C456.374 326.937 456.098 326.823 455.81 326.823H403.178C402.89 326.823 402.614 326.937 402.41 327.141C402.206 327.344 402.092 327.62 402.092 327.908C402.092 328.196 402.206 328.473 402.41 328.676C402.614 328.88 402.89 328.994 403.178 328.994Z" fill="white"/>
<path d="M400.934 327.981C410.852 321.61 421.567 315.746 430.689 308.216C431.775 307.348 430.255 305.827 429.169 306.696C420.192 314.081 409.549 319.8 399.848 326.098C398.617 326.895 399.703 328.777 400.934 327.981Z" fill="white"/>
<path d="M403.54 344.632C406.797 340.288 412.517 337.754 416.861 334.641C421.204 331.528 424.969 328.56 428.806 325.302C432.643 322.044 436.046 318.352 439.81 315.094C443.575 311.836 447.34 311.112 449.801 307.492C450.597 306.334 448.715 305.248 447.919 306.406C445.385 310.099 440.317 311.547 437.059 314.66C433.801 317.773 429.385 321.972 425.259 325.374C421.015 328.928 416.593 332.262 412.01 335.365C408.318 337.827 404.408 339.926 401.657 343.473C400.789 344.632 402.671 345.718 403.54 344.632Z" fill="white"/>
<path d="M458.416 313.718C453.855 316.976 449.873 320.741 445.747 324.505C441.051 328.648 436.12 332.516 430.978 336.089C421.711 342.605 412.227 348.758 404.336 356.867C404.211 356.96 404.108 357.079 404.034 357.216C403.959 357.352 403.915 357.503 403.904 357.659C403.893 357.814 403.916 357.969 403.97 358.115C404.024 358.261 404.109 358.393 404.219 358.503C404.329 358.613 404.462 358.698 404.608 358.753C404.753 358.807 404.909 358.83 405.064 358.819C405.219 358.808 405.371 358.763 405.507 358.689C405.644 358.615 405.763 358.512 405.856 358.387C413.892 350.134 423.666 343.908 433.077 337.247C437.354 334.292 441.463 331.102 445.385 327.691C450.09 323.637 454.434 319.22 459.502 315.601C460.588 314.732 459.502 312.85 458.416 313.718Z" fill="white"/>
<path d="M457.691 333.555C452.986 337.537 448.497 341.446 443.285 344.632C438.787 347.316 434.437 350.241 430.253 353.392C425.982 356.794 422.145 360.631 418.163 364.324C414.181 368.016 407.883 371.781 402.308 374.894C401.077 375.545 402.163 377.428 403.394 376.776C408.389 374.025 413.385 371.201 417.801 367.509C422.217 363.817 426.199 359.401 430.76 355.781C435.321 352.161 441.257 348.614 446.615 345.139C451.972 341.664 455.085 338.623 459.212 335.075C460.225 334.207 458.705 332.614 457.691 333.555Z" fill="white"/>
<path d="M458.199 345.138C452.697 352.161 445.458 357.663 438.725 363.455C431.992 369.247 424.752 375.907 416.716 380.613C415.485 381.264 416.571 383.147 417.802 382.423C425.621 377.862 432.354 371.78 439.232 365.916C446.109 360.052 453.928 354.043 459.72 346.659C460.589 345.573 459.068 344.053 458.199 345.138Z" fill="white"/>
<path d="M401.802 352.958C407.521 358.532 411.865 364.831 416.281 371.346C419.901 376.704 423.738 381.771 428.951 385.609C430.109 386.477 431.195 384.595 430.037 383.726C424.245 379.455 420.263 373.373 416.281 367.437C412.554 361.65 408.209 356.285 403.322 351.437C402.309 350.496 400.788 352.016 401.802 352.958Z" fill="white"/>
<path d="M400.933 337.175C407.159 346.442 414.109 355.274 421.059 364.034C427.068 371.563 433.511 378.876 442.344 383.075C443.647 383.654 444.733 381.771 443.502 381.192C434.814 377.066 428.443 369.898 422.579 362.441C415.702 353.826 408.969 345.139 402.815 336.017C402.019 334.858 400.136 335.944 400.933 337.175Z" fill="white"/>
<path d="M407.159 328.705C414.544 338.695 422.218 348.541 430.181 358.098C438.145 367.654 446.181 376.993 455.593 385.029C456.679 385.898 458.199 384.378 457.113 383.437C448.063 375.69 440.244 366.713 432.57 357.591C424.896 348.469 416.571 337.827 409.042 327.619C408.173 326.533 406.29 327.619 407.159 328.705Z" fill="white"/>
<path d="M423.087 328.487C426.634 331.383 428.444 335.365 430.761 339.057C433.201 342.76 436.042 346.184 439.231 349.265C446.471 356.577 453.349 363.455 458.561 372.432C459.213 373.663 461.095 372.577 460.371 371.346C455.376 362.586 448.788 355.636 441.62 348.614C437.875 345.03 434.592 340.993 431.847 336.596C429.747 333.121 427.865 329.573 424.68 326.967C423.594 326.098 422.001 327.619 423.087 328.487Z" fill="white"/>
<path d="M439.521 328.85C449.222 337.03 456.896 347.238 464.426 357.374C465.222 358.46 467.104 357.446 466.308 356.288C458.634 345.935 450.96 335.655 441.042 327.329C440.028 326.388 438.435 327.981 439.521 328.85Z" fill="white"/>
<path d="M425.113 326.895C420.987 324.071 418.453 319.583 415.05 315.963C411.905 312.7 408.436 309.765 404.697 307.203C403.539 306.407 402.453 308.289 403.611 309.085C407.859 311.995 411.725 315.425 415.123 319.293C418.018 322.623 420.335 326.243 424.027 328.777C425.186 329.573 426.272 327.691 425.113 326.895Z" fill="white"/>
<path d="M408.68 327.329C404.721 322.862 400.386 318.745 395.721 315.022C394.635 314.153 393.042 315.673 394.128 316.542C398.815 320.265 403.175 324.383 407.159 328.85C408.1 329.863 409.621 328.343 408.68 327.329Z" fill="white"/>
<path d="M442.127 327.908C438.145 324.65 435.828 320.017 432.498 316.252C429.168 312.488 424.245 307.71 420.046 303.583C419.844 303.372 419.567 303.249 419.275 303.242C418.983 303.236 418.7 303.345 418.489 303.547C418.278 303.748 418.156 304.026 418.149 304.318C418.142 304.609 418.251 304.892 418.453 305.103C422.652 309.23 427.068 313.284 430.978 317.773C434.887 322.261 436.625 326.171 440.606 329.429C441.62 330.297 443.213 328.777 442.127 327.908Z" fill="white"/>
<path d="M460.515 326.677C456.533 322.478 452.768 318.062 448.569 314.225C444.37 310.388 439.954 308.216 436.262 304.452C435.248 303.438 433.728 305.031 434.741 305.972C438.434 309.737 443.14 312.198 446.977 315.746C450.814 319.293 455.013 323.999 458.922 328.198C459.124 328.409 459.401 328.531 459.693 328.538C459.985 328.545 460.267 328.436 460.479 328.234C460.69 328.032 460.812 327.755 460.819 327.463C460.826 327.171 460.716 326.889 460.515 326.677Z" fill="white"/>
</svg>
