<svg width="170" height="141" viewBox="0 0 170 141" fill="none" xmlns="http://www.w3.org/2000/svg">
<path d="M89.7094 3.83949L22.0745 38.7485C17.9662 40.8689 16.3547 45.9183 18.4752 50.0266L50.6866 112.435C52.8071 116.544 57.8565 118.155 61.9648 116.035L129.6 81.1256C133.708 79.0051 135.319 73.9557 133.199 69.8474L100.988 7.4388C98.8671 3.3305 93.8177 1.71903 89.7094 3.83949Z" fill="#090909"/>
<path d="M73.151 16.7706L10.5 59.9906C6.6944 62.6159 5.7376 67.8292 8.36288 71.6347L48.2432 129.445C50.8685 133.25 56.0817 134.207 59.8873 131.582L122.538 88.3616C126.344 85.7363 127.301 80.5231 124.675 76.7175L84.7951 18.9077C82.1698 15.1021 76.9565 14.1453 73.151 16.7706Z" fill="#80A5AE"/>
<path d="M18.3003 74.734C24.3238 70.0388 30.5018 65.5289 36.8033 61.2661C37.2975 60.9263 36.8342 60.1232 36.3399 60.463C29.956 64.7875 23.7266 69.3283 17.6516 74.0854C17.1882 74.456 17.8369 75.1047 18.3003 74.734Z" fill="#F5F3F0"/>
<path d="M26.4862 83.6298C30.1299 81.103 33.6261 78.3699 36.9578 75.444C37.4212 75.0424 36.7416 74.3937 36.3091 74.7953C33.0391 77.6698 29.6046 80.3515 26.0228 82.8267C25.5286 83.1664 25.9919 83.9696 26.4862 83.6298Z" fill="#F5F3F0"/>
<path d="M33.3123 95.4914C37.8104 92.833 42.087 89.8167 46.1007 86.4716C46.5641 86.07 45.8845 85.4214 45.4212 85.792C41.4856 89.1025 37.2802 92.0783 32.849 94.6883C32.3548 94.9972 32.8181 95.8003 33.3123 95.4914Z" fill="#F5F3F0"/>
<path d="M39.3047 105.809C44.2612 103.161 48.8165 99.8224 52.8344 95.8935C52.9246 95.8075 52.9768 95.6892 52.9797 95.5646C52.9826 95.4401 52.9359 95.3195 52.8499 95.2294C52.7639 95.1393 52.6456 95.087 52.521 95.0841C52.3965 95.0812 52.2759 95.1279 52.1858 95.2139C48.2185 99.0872 43.7264 102.383 38.8414 105.006C38.3162 105.284 38.7796 106.087 39.3047 105.809Z" fill="#F5F3F0"/>
<path d="M46.2861 115.755C51.255 113.014 55.7164 109.441 59.4761 105.191C59.8777 104.758 59.229 104.079 58.8274 104.542C55.1148 108.725 50.7171 112.245 45.8228 114.952C45.2977 115.23 45.761 116.033 46.2861 115.755Z" fill="#F5F3F0"/>
<path d="M51.4755 125.362C55.9178 122.601 59.8562 119.101 63.1209 115.014C63.4916 114.551 62.8429 113.902 62.4722 114.365C59.2662 118.408 55.3771 121.858 50.9812 124.559C50.8747 124.625 50.7986 124.73 50.7697 124.851C50.7407 124.973 50.7612 125.101 50.8268 125.208C50.8923 125.314 50.9975 125.39 51.1191 125.419C51.2408 125.448 51.369 125.428 51.4755 125.362Z" fill="#F5F3F0"/>
<path d="M92.5097 15.4925L26.5943 53.5488C22.5905 55.8604 21.2187 60.9801 23.5303 64.984L58.6458 125.806C60.9575 129.81 66.0772 131.182 70.0811 128.87L135.996 90.8137C140 88.5021 141.372 83.3824 139.06 79.3785L103.945 18.5566C101.633 14.5527 96.5136 13.1809 92.5097 15.4925Z" fill="#CBC7DB"/>
<path d="M34.3016 67.8454C39.7073 63.9842 46.6884 62.6559 51.5381 57.8989C51.9706 57.4973 51.3219 56.8177 50.8894 57.2502C46.1015 61.9454 39.1822 63.2119 33.8383 67.0423C33.344 67.3821 33.8074 68.1852 34.3016 67.8454Z" fill="#80A5AE"/>
<path d="M39.4912 78.6572C43.3464 77.2122 46.9445 75.1576 50.1482 72.5719C50.6115 72.2012 49.932 71.5525 49.4995 71.9232C46.4181 74.4093 42.9549 76.3808 39.2441 77.7614C38.6881 77.9776 38.9352 78.8734 39.4912 78.6572Z" fill="#80A5AE"/>
<path d="M45.5757 88.5731C45.2977 87.9553 53.1746 83.9705 53.9778 83.5072C54.7809 83.0438 54.0396 82.4261 53.5144 82.7041L46.6569 86.5344C45.7302 87.0286 44.1548 87.7082 44.7726 89.0365C45.0506 89.5616 45.8538 89.0983 45.5757 88.5731Z" fill="#80A5AE"/>
<path d="M53.4834 99.3838L63.1828 93.8545C63.2893 93.789 63.3654 93.6838 63.3944 93.5622C63.4234 93.4405 63.4028 93.3123 63.3373 93.2058C63.2717 93.0993 63.1666 93.0232 63.0449 92.9943C62.9233 92.9653 62.7951 92.9859 62.6886 93.0514L53.0201 98.5807C52.4949 98.8587 52.9583 99.6618 53.4834 99.3838Z" fill="#80A5AE"/>
<path d="M60.5259 111.029C65.0976 108.991 69.8237 107.137 74.0865 104.45C74.5807 104.141 74.1174 103.338 73.6232 103.647C69.3604 106.334 64.6342 108.218 60.0625 110.226C59.5065 110.473 59.9698 111.276 60.5259 111.029Z" fill="#80A5AE"/>
<path d="M76.8371 102.998L77.1151 102.751C77.1877 102.658 77.2272 102.544 77.2272 102.426C77.2272 102.309 77.1877 102.195 77.1151 102.102C77.0233 102.015 76.9017 101.967 76.7753 101.967C76.6489 101.967 76.5273 102.015 76.4355 102.102L76.1884 102.349C76.1215 102.438 76.089 102.549 76.0969 102.66C76.1048 102.771 76.1526 102.876 76.2314 102.955C76.3103 103.034 76.415 103.082 76.5262 103.089C76.6375 103.097 76.7478 103.065 76.8371 102.998Z" fill="#80A5AE"/>
<path d="M84.5586 39.4877C88.4376 37.3825 92.0297 34.7871 95.2464 31.7653C95.6789 31.3637 95.0302 30.715 94.5978 31.1166C91.4288 34.0705 87.9001 36.6132 84.0952 38.6846C83.9887 38.746 83.911 38.8473 83.8791 38.966C83.8473 39.0848 83.8639 39.2113 83.9253 39.3178C83.9868 39.4243 84.088 39.5021 84.2068 39.5339C84.3255 39.5658 84.4521 39.5492 84.5586 39.4877Z" fill="#80A5AE"/>
<path d="M92.8991 43.4421C97.0384 42.4537 101.301 41.2798 104.39 38.1909C104.823 37.7893 104.174 37.1097 103.741 37.5422C100.745 40.5076 96.6368 41.5887 92.652 42.5772C92.0651 42.7008 92.3122 43.5966 92.8991 43.4421Z" fill="#80A5AE"/>
<path d="M102.66 54.3159C106.742 52.6591 110.602 50.5009 114.151 47.8908C114.615 47.5201 114.182 46.7169 113.688 47.0876C110.212 49.666 106.424 51.7938 102.413 53.42C101.857 53.6363 102.104 54.5321 102.66 54.3159Z" fill="#80A5AE"/>
<path d="M108.22 76.1549C112.298 71.7685 118.383 70.0387 122.337 65.5288C122.708 65.0654 122.059 64.4168 121.657 64.8801C117.734 69.39 111.649 71.1198 107.572 75.5062C107.17 75.9387 107.819 76.5874 108.22 76.1549Z" fill="#80A5AE"/>
<path d="M83.3233 102.472C98.0577 96.078 109.332 84.0001 123.696 76.9572C124.252 76.7101 123.789 75.907 123.233 76.1541C108.869 83.197 97.5944 95.2749 82.8599 101.669C82.3348 101.916 82.7981 102.719 83.3233 102.472Z" fill="#80A5AE"/>
<path d="M54.2867 71.0577C67.7749 62.6335 81.6831 54.901 95.9571 47.8903C96.5131 47.6123 96.0498 46.84 95.4937 47.0871C81.2193 54.1084 67.3112 61.8512 53.8234 70.2854C53.7564 70.3063 53.6951 70.3421 53.644 70.3902C53.5929 70.4382 53.5534 70.4972 53.5284 70.5628C53.5034 70.6283 53.4937 70.6987 53.4998 70.7686C53.506 70.8384 53.528 70.906 53.5641 70.9661C53.6002 71.0262 53.6494 71.0774 53.7082 71.1157C53.7669 71.1541 53.8336 71.1786 53.9032 71.1874C53.9727 71.1962 54.0434 71.1891 54.1099 71.1666C54.1763 71.1442 54.2368 71.1069 54.2867 71.0577Z" fill="#80A5AE"/>
<path d="M62.627 88.6349C69.7934 86.3491 75.8478 81.8392 81.964 77.6382C88.7907 72.9738 96.0189 69.1435 103.865 66.456C104.421 66.2707 104.174 65.3749 103.618 65.5603C96.0904 68.1629 88.9434 71.7572 82.3656 76.2481C76.0023 80.5727 69.7934 85.3606 62.3799 87.7391C61.8238 87.9245 62.0401 88.8203 62.627 88.6349Z" fill="#80A5AE"/>
<path d="M72.7589 63.1804H72.45L73.593 63.5202C74.0872 63.86 73.9327 64.2616 73.9945 63.582C74.0563 62.9024 73.9328 62.9333 73.9328 62.6244C73.9328 62.3155 73.871 61.3888 74.2416 60.9564C74.6123 60.5239 76.8982 60.1841 77.8866 60.0915C80.4505 59.8752 83.0452 60.4621 82.9217 63.5511C82.7981 66.6401 80.4814 68.2155 78.4735 69.76C75.7552 71.8296 73.9019 74.6715 75.5081 78.0693C76.7746 80.7568 80.7594 78.4091 79.4929 75.7217C78.9369 74.5479 82.4892 72.5092 83.1379 71.9223C84.8035 70.5428 86.0988 68.7698 86.9065 66.7637C88.3892 62.9951 87.2463 58.1763 83.4468 56.292C81.5008 55.3344 79.2767 55.2726 77.1762 55.5198C75.0757 55.7669 72.7898 56.014 71.2144 57.4967C68.6197 59.8752 68.0328 67.5977 72.7589 67.8448C75.7552 67.9992 75.7244 63.3658 72.7589 63.2113V63.1804Z" fill="#090909"/>
<path d="M79.1838 86.8112C82.1492 86.8112 82.1801 82.1777 79.1838 82.1777C76.1874 82.1777 76.1874 86.8112 79.1838 86.8112Z" fill="#090909"/>
<path d="M78.6589 100.928C69.9692 100.92 61.6377 97.4647 55.4931 91.3201C49.3486 85.1756 45.8929 76.8441 45.8848 68.1544C45.8848 50.1147 60.5883 35.4111 78.6589 35.4111C87.3379 35.4275 95.6568 38.8824 101.794 45.0194C107.931 51.1565 111.386 59.4753 111.402 68.1544C111.402 86.2249 96.6985 100.928 78.6589 100.928ZM78.6589 44.987C74.0681 44.9809 69.5787 46.337 65.759 48.8837C61.9393 51.4304 58.9612 55.0532 57.2015 59.2934C55.4419 63.5336 54.9799 68.2005 55.874 72.7034C56.7681 77.2063 58.9782 81.3427 62.2244 84.5889C65.4706 87.8351 69.6069 90.0451 74.1098 90.9392C78.6127 91.8334 83.2797 91.3714 87.5199 89.6117C91.76 87.8521 95.3828 84.8739 97.9295 81.0542C100.476 77.2346 101.832 72.7452 101.826 68.1544C101.818 62.0125 99.3746 56.1245 95.0317 51.7816C90.6887 47.4386 84.8007 44.9952 78.6589 44.987Z" fill="#F5F3F0"/>
<path d="M75.6928 98.0556C75.8157 98.0556 75.9336 98.0068 76.0205 97.9199C76.1074 97.833 76.1562 97.7151 76.1562 97.5923C76.1562 97.4694 76.1074 97.3515 76.0205 97.2646C75.9336 97.1777 75.8157 97.1289 75.6928 97.1289C75.57 97.1289 75.4521 97.1777 75.3652 97.2646C75.2783 97.3515 75.2295 97.4694 75.2295 97.5923C75.2295 97.7151 75.2783 97.833 75.3652 97.9199C75.4521 98.0068 75.57 98.0556 75.6928 98.0556Z" fill="#090909"/>
<path d="M70.7508 99.5686C70.8435 99.9393 70.9053 100.279 70.998 100.65C70.9671 100.526 70.9671 99.8466 70.998 100.495C71.0289 101.144 71.0288 101.762 71.0288 102.41C70.9671 103.677 70.8126 104.974 70.6273 106.241C70.2875 109.021 69.9786 111.77 69.7315 114.55C69.299 120.357 68.8357 126.412 69.7006 132.157C70.3184 135.988 72.2953 140.034 76.7126 140.158C80.1413 140.22 83.2303 137.069 84.8057 134.289C87.7402 129.099 87.3078 122.798 87.0916 117.052C86.7683 110.416 86.0566 103.805 84.9602 97.2519C84.4659 94.3791 80.7591 92.4948 78.1026 93.3598C75.4461 94.2247 73.7163 97.1283 74.2414 100.217L74.6121 102.565L74.7974 103.739C74.8901 104.418 74.8901 104.511 74.8283 104.017C75.0342 105.582 75.2196 107.157 75.3843 108.743C75.6623 111.708 75.8785 114.674 75.9712 117.639C76.0639 120.605 76.2492 123.446 75.9403 126.319C76.0639 125.3 75.7241 127.339 75.6623 127.555C75.6005 127.771 75.477 128.173 75.3534 128.481C75.6005 127.895 75.6005 127.895 75.3225 128.481C75.1761 128.76 75.011 129.028 74.8283 129.285C75.2299 128.821 75.2299 128.79 74.7974 129.285C74.3649 129.779 74.365 129.717 74.8592 129.346C74.6268 129.531 74.366 129.677 74.0869 129.779L76.8979 129.037H76.4963L79.3073 129.779L79.0293 129.563L81.0372 131.57C80.79 131.138 80.79 131.138 81.0063 131.57C80.871 131.231 80.7676 130.879 80.6974 130.52C80.6075 130.174 80.5353 129.824 80.4811 129.47C80.5429 130.057 80.5738 129.995 80.4811 129.316C80.4502 127.802 80.3885 126.288 80.4194 124.775C80.4502 121.655 80.5738 118.566 80.79 115.446C81.0063 112.326 81.346 109.299 81.7476 106.241C82.1492 103.183 82.3654 99.8157 81.4696 96.6341C80.5738 93.4524 77.4848 91.8153 74.643 92.742C71.8011 93.6686 69.9168 96.5723 70.7508 99.5686Z" fill="#F5F3F0"/>
<path d="M81.6866 131.848C82.984 124.682 83.5709 117.454 83.0458 110.195C82.9531 108.99 81.0997 108.99 81.1924 110.195C81.6407 117.274 81.2048 124.382 79.895 131.354C79.6788 132.497 81.4704 133.022 81.6866 131.848Z" fill="#090909"/>
<path d="M84.7134 41.2806C88.1421 41.5586 90.7987 43.0722 93.4861 45.1109C96.1735 47.1497 98.3358 48.9104 99.7258 51.6905C100.282 52.7407 101.888 51.814 101.332 50.7329C99.7876 47.6748 97.0693 45.5743 94.4128 43.5355C91.7562 41.4968 88.5128 39.7361 84.7134 39.4272C83.5396 39.3345 83.5396 41.1879 84.7134 41.2806Z" fill="#090909"/>
<path d="M77.2075 40.8163H79.1845C80.3892 40.8163 80.3892 38.9629 79.1845 38.9629H77.2075C76.0337 38.9629 76.0337 40.8163 77.2075 40.8163Z" fill="#090909"/>
<path d="M69.2998 128.698C69.6396 131.725 70.6899 134.814 73.1611 136.729C74.3189 137.607 75.6837 138.17 77.1233 138.365C78.5629 138.56 80.0284 138.379 81.3777 137.841C88.7295 134.907 87.3395 125.331 87.4939 119.091C87.4939 118.968 87.4451 118.851 87.3582 118.764C87.2713 118.677 87.1535 118.628 87.0306 118.628C86.9077 118.628 86.7898 118.677 86.7029 118.764C86.6161 118.851 86.5672 118.968 86.5672 119.091C86.4128 124.682 87.8337 132.59 82.3662 136.297C81.163 137.073 79.7649 137.494 78.333 137.51C76.9011 137.527 75.4938 137.138 74.2731 136.39C71.6783 134.722 70.5354 131.663 70.2265 128.698C70.1647 128.111 69.2381 128.111 69.2998 128.698Z" fill="#090909"/>
<path d="M72.4498 91.2591C80.3885 93.8229 89.3774 91.3517 95.3392 85.6062C101.301 79.8607 104.143 71.1189 102.506 63.0875C102.382 62.5006 101.486 62.7478 101.61 63.3347C103.185 71.0262 100.312 79.5209 94.6905 84.9575C89.0685 90.3941 80.3267 92.8344 72.6969 90.3941C72.6359 90.3591 72.5678 90.3385 72.4976 90.3337C72.4274 90.329 72.3571 90.3402 72.292 90.3667C72.2268 90.3932 72.1685 90.4341 72.1215 90.4864C72.0745 90.5388 72.0401 90.6011 72.0208 90.6687C72.0014 90.7363 71.9978 90.8075 72.01 90.8767C72.0223 90.946 72.0501 91.0115 72.0915 91.0684C72.1328 91.1253 72.1866 91.172 72.2486 91.2051C72.3107 91.2381 72.3795 91.2566 72.4498 91.2591Z" fill="#090909"/>
<path d="M79.7094 84.5869C79.8323 84.5869 79.9502 84.538 80.0371 84.4511C80.124 84.3642 80.1728 84.2464 80.1728 84.1235C80.1728 84.0006 80.124 83.8828 80.0371 83.7959C79.9502 83.709 79.8323 83.6602 79.7094 83.6602C79.5866 83.6602 79.4687 83.709 79.3818 83.7959C79.2949 83.8828 79.2461 84.0006 79.2461 84.1235C79.2461 84.2464 79.2949 84.3642 79.3818 84.4511C79.4687 84.538 79.5866 84.5869 79.7094 84.5869Z" fill="#F5F3F0"/>
<path d="M75.3845 57.9293C77.9174 57.5895 80.6357 57.2806 82.7671 58.9796C83.2305 59.3502 83.9101 58.7016 83.4467 58.3309C80.9755 56.3848 78.041 56.6628 75.1373 57.0644C74.5504 57.1262 74.7976 58.022 75.3845 57.9293Z" fill="#F5F3F0"/>
<path d="M84.3118 61.0495C84.4662 61.7178 84.4976 62.4087 84.4045 63.0882C84.3427 63.6751 85.2694 63.6751 85.3312 63.0882C85.4299 62.3251 85.3881 61.5504 85.2077 60.8024C85.0532 60.2155 84.1883 60.4626 84.3118 61.0495Z" fill="#F5F3F0"/>
<path d="M80.79 103.091V104.821C80.79 106.026 82.6434 106.026 82.6434 104.821V103.091C82.6434 101.886 80.79 101.886 80.79 103.091Z" fill="#090909"/>
<path d="M132.808 63.0883C131.573 67.3202 129.133 70.996 126.847 74.7028C124.561 78.4096 122.244 82.4562 120.082 86.4101C115.743 94.4603 111.845 102.741 108.405 111.215C107.819 112.605 109.023 114.273 110.352 114.612C111.68 114.952 113.193 114.087 113.749 112.697C117.19 104.324 121.088 96.1467 125.426 88.2017C127.588 84.2478 129.874 80.3866 132.222 76.5562C134.569 72.7259 136.917 68.8955 138.152 64.571C139.141 61.1113 133.766 59.6286 132.808 63.0883Z" fill="#80A5AE"/>
<path d="M109.95 110.535C111.026 110.635 112.091 110.832 113.132 111.122C113.719 111.307 113.966 110.412 113.379 110.226C112.255 109.926 111.108 109.719 109.95 109.608C109.363 109.547 109.363 110.473 109.95 110.535Z" fill="#090909"/>
<path d="M111.896 107.045L111.958 109.392C111.961 109.493 111.997 109.59 112.06 109.669C112.124 109.747 112.211 109.803 112.309 109.827C112.407 109.852 112.51 109.844 112.603 109.804C112.695 109.765 112.773 109.696 112.823 109.608C114.985 105.778 117.271 101.979 118.785 97.8086C118.97 97.2526 118.074 97.0054 117.889 97.5615C116.406 101.639 114.151 105.377 112.02 109.145L112.885 109.392L112.823 107.045C112.792 106.458 111.865 106.458 111.896 107.045Z" fill="#090909"/>
<path d="M133.087 64.355C134.075 64.6331 135.743 64.8184 136.423 65.7142C137.103 66.61 137.566 65.7142 137.226 65.2509C136.33 64.077 134.693 63.8608 133.334 63.4592C132.778 63.3048 132.531 64.2006 133.087 64.355Z" fill="#090909"/>
<path d="M125.581 85.1433C126.167 84.0313 126.816 82.9501 127.496 81.869C127.835 81.3747 127.032 80.9114 126.693 81.4056C126.013 82.4868 125.364 83.5679 124.777 84.6799C124.499 85.2051 125.302 85.6684 125.581 85.1433Z" fill="#F5F3F0"/>
<path d="M129.256 78.626C129.956 77.205 130.605 75.7532 131.202 74.2705C131.419 73.7145 130.523 73.4674 130.307 74.0234C129.751 75.4443 129.133 76.8035 128.453 78.1626C128.175 78.6877 128.978 79.182 129.256 78.626Z" fill="#F5F3F0"/>
<path d="M44.7117 52.1224C42.7524 50.622 40.5006 49.5487 38.1013 48.9716C37.5144 48.8481 37.2672 49.7439 37.8541 49.8674C40.1717 50.4404 42.3476 51.481 44.2483 52.9255C44.7426 53.2653 45.2059 52.4622 44.7117 52.1224Z" fill="#090909"/>
<path d="M48.9742 47.3961C48.1147 44.9306 46.9636 42.5765 45.5455 40.3841C45.2366 39.8899 44.4334 40.3533 44.7423 40.8475C46.1268 42.9731 47.2569 45.254 48.1093 47.6433C48.2947 48.1993 49.1905 47.9521 48.9742 47.3961Z" fill="#090909"/>
<path d="M114.861 113.098C115.573 114.286 116.423 115.386 117.394 116.373C117.48 116.463 117.599 116.515 117.723 116.518C117.848 116.521 117.968 116.474 118.059 116.388C118.149 116.302 118.201 116.184 118.204 116.059C118.207 115.935 118.16 115.814 118.074 115.724C117.145 114.799 116.335 113.762 115.665 112.635C115.356 112.141 114.553 112.604 114.861 113.098Z" fill="#090909"/>
<path d="M111.896 116.589V118.474C111.896 118.596 111.945 118.714 112.032 118.801C112.119 118.888 112.237 118.937 112.36 118.937C112.483 118.937 112.601 118.888 112.687 118.801C112.774 118.714 112.823 118.596 112.823 118.474V116.589C112.823 116.466 112.774 116.349 112.687 116.262C112.601 116.175 112.483 116.126 112.36 116.126C112.237 116.126 112.119 116.175 112.032 116.262C111.945 116.349 111.896 116.466 111.896 116.589Z" fill="#090909"/>
<path d="M12.3075 53.4505C9.80541 55.4584 7.27244 57.4353 4.80126 59.5049C2.8552 61.1112 0.940028 62.9646 0.291341 65.4667C-1.0987 70.8415 2.73164 75.5059 6.56198 78.7184C6.99443 79.0891 7.67401 78.4404 7.21066 78.0697C3.41121 74.8572 -0.882474 69.6986 1.65049 64.4473C2.73164 62.2232 4.80126 60.6787 6.65465 59.1651L12.9562 54.0992C13.4195 53.7285 12.7708 53.0798 12.3075 53.4505Z" fill="#090909"/>
<path d="M9.80573 82.2703L14.0994 88.6954C14.4083 89.1897 15.2115 88.7263 14.9026 88.2321L10.6089 81.807C10.2691 81.3128 9.46594 81.7761 9.80573 82.2703Z" fill="#090909"/>
<path d="M139.883 73.0347C140.068 72.942 145.165 81.4058 145.659 82.2399C146.555 83.8461 147.976 86.688 146.308 88.2634C144.64 89.8388 143.188 90.5492 141.705 91.6304C141.211 92.001 141.674 92.8042 142.169 92.4335L145.752 89.8388C146.555 89.2827 147.482 88.7576 147.852 87.7383C148.439 86.0393 147.574 83.9697 146.802 82.4252C145.628 80.1085 144.115 77.9153 142.725 75.6912C142.107 74.7027 141.551 73.4363 140.779 72.6022C140.006 71.7682 139.975 71.9227 139.419 72.2316C139.313 72.293 139.235 72.3942 139.203 72.513C139.171 72.6317 139.188 72.7583 139.25 72.8648C139.311 72.9713 139.412 73.049 139.531 73.0809C139.65 73.1128 139.776 73.0961 139.883 73.0347Z" fill="#090909"/>
<path d="M135.002 97.314C136.404 96.748 137.653 95.859 138.647 94.7193C139.018 94.2559 138.369 93.6072 137.998 94.0397C137.122 95.0799 136.01 95.8954 134.755 96.4182C134.199 96.6653 134.446 97.5611 135.002 97.314Z" fill="#090909"/>
<path d="M126.754 27.9355C126.476 28.1826 126.476 28.3989 126.847 28.5842L127.063 28.8931C127.284 29.2294 127.431 29.6083 127.496 30.0051C127.56 30.4246 127.53 30.8533 127.407 31.2595C127.284 31.6658 127.071 32.0393 126.785 32.3528C125.673 33.6192 124.283 34.4224 124.345 36.3375C124.407 38.2527 127.187 38.1291 127.125 36.3375C127.094 35.5344 128.113 34.9784 128.608 34.4841C129.075 34.0395 129.462 33.5169 129.751 32.9397C130.379 31.6161 130.479 30.1022 130.029 28.7077C129.596 27.4104 128.7 26.1748 127.434 25.6188C126.167 25.0627 124.314 25.5879 124.067 27.1942C123.82 28.8004 126.507 29.6962 126.754 27.9355Z" fill="#80A5AE"/>
<path d="M125.734 44.3992C127.526 44.3992 127.526 41.6191 125.734 41.6191C123.943 41.6191 123.943 44.3992 125.734 44.3992Z" fill="#80A5AE"/>
<path d="M23.1495 113.315C22.8406 112.264 21.8831 109.114 23.9836 109.268C26.0841 109.423 26.1767 111.616 26.2076 112.944C26.2385 114.272 25.1883 115.384 24.3234 116.682C23.4584 117.979 23.3349 119.246 23.582 120.697C23.8291 122.149 26.5474 121.717 26.2385 119.956C25.9296 118.195 27.4123 117.578 28.1537 116.373C28.6908 115.476 28.9787 114.453 28.9877 113.407C29.0804 111.276 28.3699 108.805 26.6092 107.477C24.8485 106.148 22.6244 106.087 21.1417 107.569C19.659 109.052 19.8134 111.925 20.4621 114.056C21.1108 116.188 23.6747 115.045 23.1495 113.315Z" fill="#80A5AE"/>
<path d="M27.8134 128.421C29.5742 128.421 29.605 125.641 27.8134 125.641C26.0218 125.641 26.0218 128.421 27.8134 128.421Z" fill="#80A5AE"/>
<path d="M53.3902 8.69083C53.9463 8.41282 54.4096 8.50549 54.7185 8.99973L55.1819 9.58664C55.5118 9.93749 55.7551 10.3606 55.8923 10.8222C56.1703 12.1814 54.3787 12.3049 53.5447 12.9227C52.9058 13.3306 52.4474 13.9676 52.2636 14.703C52.0798 15.4383 52.1845 16.2161 52.5562 16.8766C53.1431 17.9269 54.7494 17.0002 54.1625 15.9499C53.2667 14.3437 55.7688 14.0348 56.5719 13.6023C57.1394 13.3138 57.5717 12.815 57.7766 12.2123C58.2091 10.884 57.4059 9.46307 56.6646 8.47459C55.9232 7.48612 54.7494 6.31231 53.3594 6.59032C53.0658 6.62927 52.7838 6.72985 52.5319 6.88544C52.28 7.04103 52.0638 7.24813 51.8975 7.49315C51.7313 7.73817 51.6187 8.01555 51.5672 8.30714C51.5157 8.59872 51.5264 8.89792 51.5986 9.18508C51.8458 10.3589 53.6374 9.86464 53.3902 8.69083Z" fill="#CBC7DB"/>
<path d="M53.7619 20.9237C54.9666 20.9237 54.9666 19.0703 53.7619 19.0703C52.5572 19.0703 52.5572 20.9237 53.7619 20.9237Z" fill="#CBC7DB"/>
<path d="M153.134 63.6752C152.207 63.6752 151.806 62.4396 151.651 61.2349C150.447 61.0805 148.964 60.7098 148.964 59.6904C148.964 58.6711 150.416 58.3313 151.59 58.1768C151.713 56.9412 152.084 55.335 153.134 55.335C154.184 55.335 154.555 56.9412 154.678 58.1768C155.821 58.3313 157.304 58.702 157.304 59.6904C157.304 60.6789 155.791 61.0805 154.617 61.2349C154.462 62.4396 154.061 63.6752 153.134 63.6752ZM150.447 59.6904C151.021 59.8999 151.627 60.0147 152.238 60.0302L152.763 60.092V60.5862C152.812 61.1333 152.926 61.6726 153.103 62.1925C153.281 61.6743 153.385 61.1335 153.412 60.5862L153.474 60.092L153.999 60.0302C154.601 60.0194 155.197 59.9044 155.76 59.6904C155.2 59.5087 154.618 59.4048 154.03 59.3815L153.474 59.3198V58.7946C153.448 58.1337 153.334 57.4792 153.134 56.8486C152.904 57.4712 152.788 58.1307 152.794 58.7946L152.732 59.3198L152.207 59.3815C151.61 59.409 151.018 59.5128 150.447 59.6904Z" fill="#090909"/>
<path d="M161.906 51.2269C160.207 51.2269 159.59 47.9526 159.373 46.0992C157.582 45.9139 153.782 45.327 153.782 43.5354C153.782 41.7437 157.52 41.1568 159.281 40.9715C159.435 39.0563 159.991 35.0098 161.906 35.0098C163.821 35.0098 164.347 39.0563 164.501 40.9715C166.293 41.1568 169.999 41.7437 169.999 43.5354C169.999 45.327 166.231 45.9139 164.439 46.0992C164.192 47.9526 163.574 51.2269 161.906 51.2269ZM161.906 36.2454C161.566 36.3071 160.702 37.9443 160.485 41.5584V42.1144H159.96C156.439 42.3924 155.11 43.2265 155.049 43.5045C154.987 43.7825 156.439 44.6165 160.022 44.8945H160.516L160.578 45.4196C160.887 48.6631 161.69 49.8678 161.937 49.9295C162.184 49.9913 162.957 48.6631 163.265 45.4196L163.327 44.8945H163.852C167.405 44.6165 168.733 43.7516 168.795 43.5045C168.856 43.2573 167.405 42.3924 163.914 42.1144H163.389V41.5584C163.111 37.9443 162.215 36.3071 161.906 36.2454Z" fill="#CBC7DB"/>
<path d="M14.2539 128.76C12.555 128.76 11.9372 125.486 11.7209 123.632C9.92933 123.447 6.12988 122.86 6.12988 121.069C6.12988 119.277 9.86755 118.69 11.6283 118.505C11.7827 116.59 12.3387 112.543 14.2539 112.543C16.1691 112.543 16.6942 116.59 16.8487 118.505C18.6403 118.69 22.347 119.277 22.347 121.069C22.347 122.86 18.5785 123.447 16.7869 123.632C16.5398 125.486 15.922 128.76 14.2539 128.76ZM14.2539 113.779C13.9141 113.84 13.0492 115.477 12.833 119.092V119.648H12.3078C8.78641 119.926 7.45815 120.76 7.39637 121.038C7.33459 121.316 8.78641 122.15 12.3696 122.428H12.8639L12.9256 122.953C13.2345 126.196 14.0377 127.401 14.2848 127.463C14.5319 127.525 15.3351 126.196 15.6131 122.953L15.6748 122.428H16.2C19.7523 122.15 21.0806 121.285 21.1423 121.038C21.2041 120.791 19.7523 119.926 16.2617 119.648H15.7366V119.092C15.4586 115.477 14.5628 113.84 14.2539 113.779Z" fill="#CBC7DB"/>
<path d="M19.0725 40.8168C18.1458 40.8168 17.7442 39.5812 17.5898 38.3765C16.3851 38.2221 14.9023 37.8514 14.9023 36.832C14.9023 35.8127 16.3542 35.4729 17.528 35.3184C17.6515 34.0828 18.0222 32.4766 19.0725 32.4766C20.1227 32.4766 20.4934 34.0828 20.617 35.3184C21.7599 35.4729 23.2426 35.8436 23.2426 36.832C23.2426 37.8205 21.729 38.2221 20.5552 38.3765C20.4007 39.5812 19.9992 40.8168 19.0725 40.8168ZM16.3851 36.832C16.9599 37.0415 17.565 37.1563 18.1767 37.1718L18.7018 37.2336V37.7278C18.7503 38.2749 18.8644 38.8142 19.0416 39.3341C19.2198 38.8159 19.3238 38.2751 19.3505 37.7278L19.4123 37.2336L19.9374 37.1718C20.5395 37.161 21.1352 37.046 21.6981 36.832C21.1384 36.6503 20.5563 36.5464 19.9683 36.5231L19.4123 36.4614V35.9362C19.3863 35.2753 19.272 34.6208 19.0725 33.9902C18.842 34.6128 18.7268 35.2723 18.7327 35.9362L18.6709 36.4614L18.1458 36.5231C17.5481 36.5506 16.9564 36.6544 16.3851 36.832Z" fill="#090909"/>
</svg>
