<svg width="170" height="175" viewBox="0 0 170 175" fill="none" xmlns="http://www.w3.org/2000/svg">
<path d="M106.45 158.193L103.926 159.19L102.763 156.399L92.6973 160.618L93.86 163.376L97.0823 171.116C97.2591 171.547 97.5996 171.891 98.0293 172.071C98.459 172.252 98.9427 172.255 99.3745 172.079L115.818 165.236L115.32 164.007C113.427 159.522 110.935 156.333 106.45 158.193Z" fill="#090909"/>
<path d="M105.918 163.209C105.783 163.207 105.65 163.164 105.538 163.088C105.426 163.011 105.339 162.903 105.287 162.778L103.527 158.492C103.469 158.411 103.43 158.318 103.413 158.219C103.396 158.121 103.401 158.02 103.429 157.924C103.456 157.828 103.505 157.74 103.571 157.665C103.638 157.591 103.72 157.532 103.812 157.493C103.904 157.455 104.004 157.438 104.104 157.443C104.203 157.449 104.3 157.476 104.388 157.525C104.475 157.573 104.551 157.64 104.609 157.721C104.667 157.802 104.706 157.896 104.722 157.994L106.516 162.279C106.554 162.359 106.574 162.446 106.576 162.535C106.577 162.623 106.56 162.711 106.526 162.792C106.491 162.874 106.44 162.947 106.376 163.008C106.311 163.068 106.234 163.114 106.151 163.143L105.918 163.209Z" fill="#F5F3F0"/>
<path d="M108.045 162.313C107.918 162.307 107.796 162.267 107.69 162.196C107.585 162.126 107.501 162.029 107.447 161.914L105.653 157.596C105.599 157.435 105.608 157.26 105.679 157.107C105.75 156.953 105.876 156.832 106.033 156.768C106.19 156.705 106.365 156.703 106.523 156.765C106.68 156.826 106.809 156.945 106.882 157.097L108.676 161.383C108.741 161.546 108.74 161.728 108.671 161.89C108.603 162.052 108.473 162.18 108.31 162.246L108.045 162.313Z" fill="#F5F3F0"/>
<path d="M59.3441 161.25L56.62 159.954L58.0153 156.865L46.8533 151.782L45.4581 154.872L41.5714 163.442C41.46 163.678 41.3966 163.933 41.3848 164.193C41.3731 164.453 41.4132 164.712 41.5029 164.957C41.5926 165.201 41.73 165.425 41.9071 165.615C42.0843 165.806 42.2976 165.96 42.5347 166.067L60.7393 174.339L61.3373 173.01C63.6294 167.994 64.3271 163.509 59.3441 161.25Z" fill="#090909"/>
<path d="M55.3573 164.804L55.0915 164.738C54.9323 164.659 54.8093 164.522 54.7475 164.355C54.6858 164.189 54.69 164.005 54.7593 163.841L56.9519 159.091C57.0244 158.934 57.1551 158.811 57.3164 158.749C57.4776 158.687 57.6567 158.691 57.8156 158.758C57.8974 158.794 57.9711 158.846 58.0324 158.911C58.0937 158.976 58.1412 159.053 58.1722 159.136C58.2032 159.22 58.217 159.309 58.2128 159.398C58.2086 159.487 58.1865 159.575 58.1478 159.655L55.9885 164.406C55.9288 164.523 55.8387 164.622 55.7276 164.692C55.6165 164.762 55.4886 164.801 55.3573 164.804Z" fill="#F5F3F0"/>
<path d="M113.559 151.749L112.064 147.863L109.008 139.79L108.709 139.026L94.2912 75.7753L82.5977 78.4329L82.7971 77.0376L61.6691 74.0811L56.1878 113.247L50.3079 131.585C49.8428 132.449 49.3777 133.312 48.9459 134.209C47.5506 137.099 46.8198 140.122 45.6903 143.079C45.1232 144.546 44.3636 145.931 43.4313 147.198C42.6673 148.295 41.9032 149.391 41.7371 150.72C41.571 152.048 41.7371 152.945 42.8002 153.444C43.0256 153.541 43.259 153.619 43.4978 153.676L63.5627 160.088L63.6291 159.855L63.8284 159.922C64.0467 159.97 64.2731 159.971 64.4915 159.922C64.71 159.874 64.9151 159.779 65.0926 159.642C65.27 159.506 65.4154 159.333 65.5184 159.134C65.6214 158.935 65.6795 158.717 65.6887 158.493C65.7552 157.031 66.6853 155.736 66.9843 154.307C67.2833 152.879 67.2833 151.284 67.5491 149.789C67.8148 148.295 68.1802 146.301 68.5457 144.574L76.452 119.958H76.7842L78.0134 111.155L87.1157 151.052C87.0591 151.2 87.0364 151.359 87.0492 151.517C87.1488 153.643 87.6472 155.669 88.1122 157.729C88.4112 159.124 88.4112 160.951 89.5739 161.915L89.6404 162.147L89.8065 162.081L90.0722 162.214C91.8329 163.044 93.1284 161.848 94.6898 161.284C95.5867 160.951 96.5169 160.885 97.4139 160.52L97.9122 160.254L112.761 156.865V156.732C113.625 156.533 114.356 156.068 114.489 155.071C114.622 154.075 113.957 152.779 113.559 151.749Z" fill="#80A5AE"/>
<path d="M57.7497 165.901L57.4839 165.834C57.4022 165.799 57.3284 165.747 57.2671 165.682C57.2059 165.617 57.1583 165.54 57.1273 165.456C57.0963 165.373 57.0825 165.284 57.0867 165.194C57.0909 165.105 57.113 165.018 57.1517 164.937L59.311 160.187C59.3481 160.106 59.4007 160.034 59.4659 159.973C59.531 159.913 59.6074 159.866 59.6907 159.835C59.774 159.804 59.8626 159.79 59.9513 159.793C60.0401 159.797 60.1273 159.818 60.208 159.855C60.2887 159.892 60.3613 159.944 60.4217 160.01C60.482 160.075 60.529 160.151 60.5599 160.234C60.5907 160.318 60.6048 160.406 60.6015 160.495C60.5981 160.584 60.5773 160.671 60.5402 160.752L58.3477 165.502C58.2936 165.617 58.2093 165.714 58.104 165.784C57.9986 165.855 57.8762 165.895 57.7497 165.901Z" fill="#F5F3F0"/>
<path d="M70.4396 32.0908C68.4132 32.5227 61.9685 34.0508 57.4174 39.5321C54.9339 42.6149 53.3273 46.3102 52.7666 50.2289C51.3381 58.7665 54.2282 69.6294 62.5332 75.3765C65.8552 77.6686 69.2437 78.5988 72.2999 79.0971C89.375 81.9208 102.763 75.7751 111.4 71.6558" fill="#F5F3F0"/>
<path d="M81.0369 80.4919C78.0765 80.4867 75.1214 80.2423 72.2004 79.7611C69.4431 79.296 65.8221 78.4322 62.1679 75.9075C53.2649 69.7618 50.707 58.5335 52.1023 50.1288C52.6842 46.0854 54.3486 42.2746 56.9192 39.0998C60.9388 34.2497 66.4201 32.2565 70.3068 31.426C70.4824 31.396 70.6629 31.4343 70.8111 31.5332C70.9594 31.632 71.0642 31.7838 71.1041 31.9575C71.1341 32.1331 71.0957 32.3136 70.9969 32.4618C70.898 32.6101 70.7462 32.7149 70.5726 32.7548C66.8851 33.5188 61.7028 35.3791 57.949 39.9635C55.5239 42.9531 53.9616 46.5485 53.4311 50.3614C52.1355 58.0684 54.5605 69.031 62.932 74.8113C66.3536 77.2031 69.8085 78.0004 72.4329 78.4323C75.2646 78.9131 78.1314 79.1576 81.0037 79.1631C94.1256 79.1631 104.457 74.2133 111.134 71.0574C111.21 71.0182 111.293 70.9949 111.379 70.9888C111.464 70.9826 111.549 70.9939 111.63 71.0218C111.711 71.0498 111.785 71.0939 111.848 71.1514C111.912 71.2089 111.962 71.2786 111.998 71.3564C112.038 71.4348 112.062 71.5204 112.068 71.6081C112.075 71.6958 112.064 71.7839 112.036 71.8674C112.008 71.9508 111.964 72.0279 111.906 72.0941C111.848 72.1604 111.778 72.2145 111.699 72.2533C104.922 75.4757 94.4245 80.4919 81.0369 80.4919Z" fill="#090909"/>
<path d="M111.4 66.9717C111.633 67.4368 111.334 68.0347 110.968 68.3669C110.603 68.6991 110.038 68.7656 110.038 68.832C110.038 68.8984 110.47 68.8652 110.935 68.8652H111.267C111.505 68.8681 111.736 68.9379 111.936 69.0665C112.136 69.1952 112.295 69.3775 112.395 69.5926C112.496 69.8077 112.534 70.0468 112.505 70.2824C112.476 70.5181 112.381 70.7407 112.231 70.9248C112.007 71.1896 111.75 71.4241 111.467 71.6225" fill="#F5F3F0"/>
<path d="M111.466 72.2866C111.363 72.2842 111.262 72.2591 111.17 72.2131C111.079 72.1672 110.998 72.1015 110.934 72.0208C110.829 71.8799 110.783 71.7027 110.808 71.5283C110.833 71.3538 110.926 71.1964 111.067 71.0907C111.31 70.9169 111.533 70.7163 111.732 70.4927C111.805 70.4063 111.85 70.2999 111.862 70.1873C111.874 70.0748 111.851 69.9613 111.798 69.8615C111.752 69.7599 111.677 69.6741 111.583 69.6149C111.488 69.5558 111.378 69.526 111.267 69.5293H110.502C110.137 69.5626 109.506 69.5958 109.373 68.9646C109.24 68.3334 109.406 68.3334 110.004 68.1341C110.194 68.0726 110.373 67.983 110.536 67.8683C110.735 67.669 110.868 67.3368 110.801 67.2372C110.734 67.0782 110.73 66.8992 110.792 66.738C110.854 66.5767 110.977 66.446 111.134 66.3734C111.214 66.3347 111.302 66.3126 111.391 66.3084C111.48 66.3042 111.569 66.318 111.653 66.349C111.736 66.38 111.813 66.4276 111.878 66.4888C111.943 66.5501 111.995 66.6239 112.031 66.7056C112.134 66.9651 112.173 67.2457 112.144 67.5234C112.115 67.8011 112.019 68.0676 111.865 68.3002C112.119 68.3723 112.355 68.4988 112.555 68.6708C112.756 68.8429 112.917 69.0565 113.027 69.2968C113.18 69.6327 113.233 70.0054 113.18 70.3705C113.127 70.7356 112.97 71.0778 112.728 71.3564C112.472 71.6545 112.182 71.922 111.865 72.1537C111.754 72.2476 111.611 72.2952 111.466 72.2866Z" fill="#090909"/>
<path d="M79.209 32.8215C76.1196 32.8215 73.8938 30.2968 73.628 29.9646C73.5367 29.8267 73.5001 29.6596 73.5254 29.4961C73.5507 29.3326 73.6361 29.1844 73.7649 29.0805C73.8937 28.9767 74.0566 28.9246 74.2218 28.9345C74.3869 28.9444 74.5424 29.0156 74.6579 29.1341C74.8904 29.3999 77.0165 31.8581 79.8402 31.4263C81.4015 31.227 82.4314 30.2303 82.9961 29.6988C84.7568 27.9714 85.089 25.8785 85.2883 24.7158C85.5532 23.0861 85.4511 21.4177 84.9893 19.8325C84.9371 19.6651 84.9533 19.4838 85.0342 19.3283C85.1151 19.1727 85.2541 19.0554 85.4211 19.002C85.5062 18.9768 85.5955 18.9689 85.6836 18.9787C85.7718 18.9886 85.8571 19.016 85.9345 19.0593C86.0119 19.1027 86.0799 19.1611 86.1343 19.2311C86.1888 19.3011 86.2287 19.3814 86.2516 19.4671C86.7909 21.2428 86.9047 23.1205 86.5838 24.9484C86.3845 26.1443 85.9859 28.6358 83.9262 30.629C83.2951 31.227 82.0327 32.4561 80.0395 32.7551L79.209 32.8215Z" fill="#090909"/>
<path d="M75.854 40.993C74.7907 40.996 73.7503 40.6839 72.8642 40.0961C71.2364 38.9334 70.8378 37.1063 70.2731 34.5483C70.0036 33.2905 69.837 32.0129 69.7748 30.728C69.6801 27.7294 69.8468 24.7283 70.2731 21.7586C70.281 21.6724 70.3067 21.5887 70.3484 21.5127C70.3901 21.4368 70.4471 21.3703 70.5156 21.3173C70.5842 21.2643 70.6629 21.226 70.7469 21.2048C70.8309 21.1835 70.9184 21.1799 71.0039 21.1939C71.0916 21.206 71.1759 21.2356 71.252 21.2808C71.3281 21.326 71.3944 21.3859 71.447 21.4571C71.4997 21.5283 71.5375 21.6092 71.5584 21.6952C71.5793 21.7813 71.5828 21.8706 71.5686 21.958C71.1698 24.841 71.0142 27.7525 71.1036 30.6616C71.1645 31.8788 71.32 33.0895 71.5686 34.2826C72.1002 36.7077 72.3991 38.1361 73.6283 38.9998C74.1332 39.3595 74.7214 39.5848 75.3374 39.6546C75.9534 39.7243 76.5771 39.6362 77.1496 39.3985C78.7774 38.6344 80.4052 35.4453 79.1428 32.3226C79.0855 32.159 79.0912 31.9798 79.1587 31.8202C79.2263 31.6605 79.3509 31.5317 79.5082 31.4589C79.591 31.4272 79.6793 31.4124 79.7679 31.4154C79.8565 31.4183 79.9436 31.439 80.0241 31.4762C80.1046 31.5133 80.1768 31.5662 80.2366 31.6317C80.2963 31.6972 80.3423 31.774 80.3719 31.8575C81.8004 35.3788 80.1062 39.4649 77.7143 40.5944C77.1342 40.8718 76.4969 41.0084 75.854 40.993Z" fill="#090909"/>
<path d="M72.7653 66.2737C72.6555 66.2694 72.5487 66.2365 72.4554 66.1782C72.3622 66.1199 72.2858 66.0383 72.2338 65.9415C71.3653 64.5654 70.567 63.1462 69.842 61.6893C68.3969 58.6771 67.2938 55.5126 66.5532 52.2548C66.5285 52.1696 66.5221 52.0802 66.5344 51.9923C66.5466 51.9044 66.5772 51.8201 66.6243 51.7449C66.6713 51.6697 66.7336 51.6052 66.8073 51.5557C66.8809 51.5062 66.9641 51.4727 67.0515 51.4575C67.1366 51.4379 67.2247 51.4351 67.3108 51.4495C67.3969 51.4639 67.4794 51.4952 67.5534 51.5414C67.6275 51.5877 67.6917 51.6482 67.7423 51.7193C67.793 51.7904 67.8292 51.8707 67.8488 51.9558C68.571 55.1202 69.6406 58.195 71.0379 61.1246C71.7355 62.5198 72.4996 63.915 73.3301 65.2438C73.4207 65.3953 73.4505 65.5756 73.4135 65.7482C73.3766 65.9208 73.2755 66.073 73.1307 66.174C73.0212 66.242 72.8942 66.2766 72.7653 66.2737Z" fill="#090909"/>
<path d="M55.0917 67.2036C54.9164 67.2011 54.7492 67.1295 54.6266 67.0043C54.5027 66.8745 54.4336 66.702 54.4336 66.5226C54.4336 66.3432 54.5027 66.1707 54.6266 66.0409C55.7893 64.9114 57.9154 63.483 60.3736 62.2206C63.7621 60.4599 67.8149 59.9617 69.941 59.8288C70.0266 59.8196 70.1131 59.828 70.1953 59.8536C70.2775 59.8791 70.3536 59.9211 70.4189 59.9771C70.4842 60.0331 70.5374 60.1019 70.5752 60.1792C70.613 60.2565 70.6346 60.3408 70.6386 60.4267C70.6478 60.514 70.6396 60.6023 70.6144 60.6865C70.5893 60.7706 70.5477 60.8489 70.4921 60.9169C70.4365 60.9848 70.368 61.0411 70.2905 61.0824C70.213 61.1237 70.1281 61.1493 70.0407 61.1576C68.0143 61.2905 64.1607 61.7555 60.9716 63.3833C58.6794 64.5792 56.6198 65.9745 55.5567 67.0043C55.4341 67.1295 55.2669 67.2011 55.0917 67.2036Z" fill="#090909"/>
<path d="M71.702 119.725H71.6356C71.5493 119.717 71.4656 119.691 71.3897 119.65C71.3137 119.608 71.2472 119.551 71.1942 119.482C71.1413 119.414 71.103 119.335 71.0817 119.251C71.0605 119.167 71.0568 119.08 71.0709 118.994L75.9874 83.7476C75.9863 83.6511 76.0061 83.5556 76.0456 83.4676C76.0851 83.3795 76.1433 83.3012 76.2161 83.238C76.289 83.1747 76.3747 83.1281 76.4674 83.1013C76.56 83.0745 76.6575 83.0683 76.7528 83.0829C76.8481 83.0976 76.9391 83.1329 77.0195 83.1862C77.0998 83.2396 77.1676 83.3099 77.2181 83.3921C77.2685 83.4743 77.3004 83.5665 77.3116 83.6623C77.3229 83.7581 77.3131 83.8553 77.283 83.9469L72.3664 119.16C72.3424 119.319 72.2619 119.463 72.1398 119.567C72.0177 119.671 71.8623 119.727 71.702 119.725Z" fill="#F5F3F0"/>
<path d="M59.6423 151.018H59.4097C59.247 150.951 59.1171 150.823 59.0486 150.661C58.9801 150.499 58.9786 150.317 59.0443 150.154L71.1032 119.027C71.1695 118.864 71.2977 118.734 71.4596 118.666C71.6214 118.597 71.8039 118.596 71.9669 118.661C72.1297 118.728 72.2595 118.856 72.328 119.018C72.3965 119.18 72.3981 119.362 72.3323 119.525L60.2734 150.586C60.2217 150.712 60.1344 150.819 60.0223 150.896C59.9102 150.973 59.7781 151.015 59.6423 151.018Z" fill="#F5F3F0"/>
<path d="M103.958 149.722C103.806 149.724 103.659 149.672 103.543 149.574C103.428 149.476 103.351 149.34 103.327 149.191L88.411 82.9501C88.3808 82.7832 88.4157 82.6111 88.5083 82.469C88.6009 82.3269 88.7444 82.2257 88.9093 82.186C88.9945 82.1613 89.084 82.1549 89.1718 82.1672C89.2597 82.1794 89.344 82.2101 89.4192 82.2571C89.4944 82.3041 89.5589 82.3664 89.6084 82.4401C89.6579 82.5137 89.6914 82.5969 89.7066 82.6843L104.622 148.925C104.645 149.1 104.603 149.276 104.505 149.423C104.408 149.569 104.261 149.676 104.091 149.722H103.958Z" fill="#F5F3F0"/>
<path d="M90.9362 37.8708C90.8438 37.8741 90.7518 37.858 90.666 37.8237C90.5802 37.7894 90.5025 37.7375 90.4379 37.6715C88.883 35.9838 86.8953 34.7544 84.6908 34.117C83.2562 33.7075 81.7593 33.5612 80.2725 33.6851C80.187 33.6942 80.1005 33.6858 80.0183 33.6603C79.9361 33.6348 79.86 33.5927 79.7946 33.5367C79.7293 33.4807 79.6761 33.412 79.6383 33.3346C79.6006 33.2573 79.579 33.1731 79.5749 33.0871C79.5658 32.9998 79.574 32.9115 79.5991 32.8274C79.6243 32.7432 79.6659 32.665 79.7215 32.597C79.7771 32.529 79.8456 32.4728 79.9231 32.4315C80.0006 32.3902 80.0855 32.3646 80.1729 32.3563C81.8175 32.22 83.4731 32.3889 85.0562 32.8546C87.4875 33.5441 89.6824 34.8887 91.4012 36.7413C91.5251 36.8711 91.5943 37.0436 91.5943 37.223C91.5943 37.4024 91.5251 37.5749 91.4012 37.7047C91.2677 37.8079 91.1049 37.866 90.9362 37.8708Z" fill="#090909"/>
<path d="M168.406 16.0458C169.735 15.9129 169.203 16.9095 167.808 18.3379C161.695 24.683 151.796 25.3473 144.753 20.0986C137.71 14.8498 132.129 9.06956 133.525 9.53464C147.344 14.119 151.198 6.71094 151.198 6.71094C151.198 6.71094 152.593 17.441 168.406 16.0458Z" fill="#80A5AE"/>
<path d="M120.004 3.45508H96.7827C96.2507 3.45508 95.8193 3.88641 95.8193 4.41847V9.00617C95.8193 9.53823 96.2507 9.96952 96.7827 9.96952H120.004C120.536 9.96952 120.967 9.53823 120.967 9.00617V4.41847C120.967 3.88641 120.536 3.45508 120.004 3.45508Z" fill="#CBC7DB"/>
<path d="M114.589 9.99902H90.5709C89.8737 9.99902 89.3086 10.5642 89.3086 11.2614V26.8881C89.3086 27.5852 89.8737 28.1504 90.5709 28.1504H114.589C115.286 28.1504 115.851 27.5852 115.851 26.8881V11.2614C115.851 10.5642 115.286 9.99902 114.589 9.99902Z" fill="#80A5AE"/>
<path d="M118.077 28.1377H92.1985C91.8866 28.1377 91.6338 28.3905 91.6338 28.7024V30.8318C91.6338 31.1437 91.8866 31.3966 92.1985 31.3966H118.077C118.389 31.3966 118.642 31.1437 118.642 30.8318V28.7024C118.642 28.3905 118.389 28.1377 118.077 28.1377Z" fill="#CBC7DB"/>
<path d="M114.921 31.3926H90.2387C89.725 31.3926 89.3086 31.809 89.3086 32.3228V35.1166C89.3086 35.6303 89.725 36.0467 90.2387 36.0467H114.921C115.435 36.0467 115.851 35.6303 115.851 35.1166V32.3228C115.851 31.809 115.435 31.3926 114.921 31.3926Z" fill="#80A5AE"/>
<path d="M113.393 36.0439H87.5813C87.2511 36.0439 86.9834 36.3117 86.9834 36.6419V38.7049C86.9834 39.0351 87.2511 39.3028 87.5813 39.3028H113.393C113.724 39.3028 113.991 39.0351 113.991 38.7049V36.6419C113.991 36.3117 113.724 36.0439 113.393 36.0439Z" fill="#80A5AE"/>
<path d="M111.466 38.3691H90.4048C89.7994 38.3691 89.3086 38.86 89.3086 39.4654V51.2353C89.3086 51.8407 89.7994 52.3315 90.4048 52.3315H111.466C112.072 52.3315 112.563 51.8407 112.563 51.2353V39.4654C112.563 38.86 112.072 38.3691 111.466 38.3691Z" fill="#CBC7DB"/>
<path d="M116.183 52.3213H93.1617C92.5746 52.3213 92.0986 52.7973 92.0986 53.3844V56.3775C92.0986 56.9646 92.5746 57.4405 93.1617 57.4405H116.183C116.77 57.4405 117.246 56.9646 117.246 56.3775V53.3844C117.246 52.7973 116.77 52.3213 116.183 52.3213Z" fill="#80A5AE"/>
<path d="M111.666 56.042H90.2055C89.7102 56.042 89.3086 56.4435 89.3086 56.9389V69.5725C89.3086 70.0679 89.7102 70.4694 90.2055 70.4694H111.666C112.161 70.4694 112.563 70.0679 112.563 69.5725V56.9389C112.563 56.4435 112.161 56.042 111.666 56.042Z" fill="#80A5AE"/>
<path d="M22.8689 10.4311C21.7062 10.4311 21.2743 8.6372 21.075 7.3084C19.6133 7.1423 17.6533 6.67722 17.6533 5.4813C17.6533 4.28538 19.5469 3.8203 21.0085 3.6542C21.1414 2.22574 21.5733 0 22.8689 0C24.1644 0 24.5631 2.22574 24.7292 3.6542C26.1576 3.8203 28.0844 4.25216 28.0844 5.4813C28.0844 6.71044 26.1244 7.1423 24.6627 7.3084C24.4634 8.6372 23.9983 10.4311 22.8689 10.4311ZM19.1482 5.44809C19.5136 5.64741 20.3441 5.91319 21.7394 6.01285H22.2709L22.3373 6.57758C22.379 7.37757 22.5589 8.16431 22.8689 8.90298C23.1626 8.15919 23.3418 7.37513 23.4004 6.57758V6.01285H23.9651C25.3604 5.91319 26.1909 5.64741 26.5563 5.44809C25.739 5.13029 24.8746 4.95068 23.9983 4.91658H23.4336V4.3186C23.3339 2.8237 23.0682 1.92679 22.8689 1.52815C22.6695 1.92679 22.4038 2.8237 22.3041 4.3186V4.91658H21.7062C20.8293 4.94558 19.964 5.12537 19.1482 5.44809Z" fill="#090909"/>
<path d="M9.6774 150.095C11.6526 149.782 11.888 140.906 10.2033 130.269C8.51855 119.632 5.5516 111.262 3.57641 111.575C1.60122 111.888 1.36575 120.765 3.05049 131.402C4.73523 142.039 7.70221 150.408 9.6774 150.095Z" fill="#80A5AE"/>
<path d="M15.5263 150.519C18.5902 150.519 21.074 136.405 21.074 118.994C21.074 101.582 18.5902 87.4678 15.5263 87.4678C12.4623 87.4678 9.97852 101.582 9.97852 118.994C9.97852 136.405 12.4623 150.519 15.5263 150.519Z" fill="#80A5AE"/>
<path d="M24.7041 134.689C25.6759 126.416 25.2673 119.57 23.7913 119.396C22.3154 119.223 20.331 125.789 19.3592 134.061C18.3874 142.334 18.7961 149.181 20.2721 149.354C21.748 149.527 23.7323 142.962 24.7041 134.689Z" fill="#80A5AE"/>
<path d="M140.367 81.6212C138.739 81.6212 138.141 78.565 137.909 76.7711C135.982 76.5718 132.627 75.9738 132.627 74.2463C132.627 72.5189 135.916 71.9541 137.842 71.7548C137.975 69.8945 138.54 66.1074 140.367 66.1074C142.194 66.1074 142.759 69.8945 142.925 71.7548C144.852 71.9541 148.141 72.5521 148.141 74.2463C148.141 75.9405 144.785 76.5718 142.859 76.7711C142.626 78.565 141.995 81.6212 140.367 81.6212ZM133.956 74.2463C134.122 74.5453 135.417 75.2429 138.573 75.4755L139.138 75.5419V76.1067C139.404 78.9304 140.101 80.1263 140.334 80.2924C140.567 80.4585 141.264 78.9304 141.563 76.1067V75.5419L142.128 75.4755C145.251 75.2429 146.579 74.5453 146.745 74.2463C146.912 73.9473 145.284 73.2497 142.194 73.0172H141.663V72.4192C141.497 69.2965 140.766 67.6688 140.4 67.4695C140.035 67.2702 139.337 69.2965 139.138 72.4192V73.0172H138.573C135.417 73.2497 134.122 73.9806 133.956 74.2463Z" fill="#CBC7DB"/>
<path d="M25.2602 144.54L26.2236 136.202H1.4082L5.59394 172.478H14.6962L14.9288 172.545L19.347 172.645C20.2107 172.678 21.4399 172.943 22.2372 172.545C23.566 171.847 23.267 169.223 23.3666 168.027C23.566 165.535 23.6656 163.011 23.6656 160.519C23.6932 160.277 23.7044 160.032 23.6988 159.788L24.0975 155.769C24.2968 153.975 24.4961 152.148 24.6622 150.354C24.6954 150.088 24.7287 149.789 24.7951 149.49C25.1069 147.925 25.2847 146.335 25.3266 144.74C25.32 144.669 25.2972 144.601 25.2602 144.54ZM22.2704 170.552L22.4033 169.256C22.4136 169.692 22.369 170.127 22.2704 170.552Z" fill="#CBC7DB"/>
<path d="M59.5103 170.053H39.9769C39.8007 170.053 39.6317 169.983 39.5071 169.859C39.3825 169.734 39.3125 169.565 39.3125 169.389C39.3125 169.213 39.3825 169.044 39.5071 168.919C39.6317 168.795 39.8007 168.725 39.9769 168.725H59.5103C59.6865 168.725 59.8555 168.795 59.9801 168.919C60.1047 169.044 60.1747 169.213 60.1747 169.389C60.1747 169.565 60.1047 169.734 59.9801 169.859C59.8555 169.983 59.6865 170.053 59.5103 170.053Z" fill="#090909"/>
<path d="M28.0843 173.076C27.9107 173.068 27.7464 172.995 27.6235 172.872C27.5006 172.75 27.428 172.585 27.4199 172.412C27.4199 172.235 27.4899 172.066 27.6145 171.942C27.7391 171.817 27.9081 171.747 28.0843 171.747L56.0224 171.515C56.1986 171.515 56.3676 171.585 56.4922 171.709C56.6168 171.834 56.6868 172.003 56.6868 172.179C56.6868 172.355 56.6168 172.524 56.4922 172.649C56.3676 172.773 56.1986 172.843 56.0224 172.843L28.1176 173.076H28.0843Z" fill="#090909"/>
<path d="M157.941 129.093H111.4C111.224 129.093 111.055 129.023 110.93 128.899C110.805 128.774 110.735 128.605 110.735 128.429C110.735 128.253 110.805 128.084 110.93 127.959C111.055 127.835 111.224 127.765 111.4 127.765H157.941C158.117 127.765 158.286 127.835 158.411 127.959C158.535 128.084 158.605 128.253 158.605 128.429C158.605 128.605 158.535 128.774 158.411 128.899C158.286 129.023 158.117 129.093 157.941 129.093Z" fill="#090909"/>
<path d="M169.336 124.442H122.794C122.618 124.442 122.449 124.372 122.324 124.247C122.2 124.123 122.13 123.954 122.13 123.778C122.13 123.601 122.2 123.432 122.324 123.308C122.449 123.183 122.618 123.113 122.794 123.113H169.336C169.512 123.113 169.681 123.183 169.805 123.308C169.93 123.432 170 123.601 170 123.778C170 123.954 169.93 124.123 169.805 124.247C169.681 124.372 169.512 124.442 169.336 124.442Z" fill="#090909"/>
<path d="M152.725 109.56C151.563 109.56 151.098 107.766 150.931 106.437C149.437 106.271 147.51 105.806 147.51 104.61C147.51 103.414 149.403 102.949 150.865 102.783C150.998 101.355 151.43 99.1289 152.725 99.1289C154.021 99.1289 154.42 101.355 154.552 102.783C156.014 102.949 157.908 103.381 157.908 104.61C157.908 105.839 155.981 106.271 154.486 106.437C154.32 107.766 153.855 109.56 152.725 109.56ZM149.005 104.61C149.822 104.928 150.686 105.108 151.563 105.142H152.127L152.194 105.706C152.218 106.509 152.399 107.299 152.725 108.032C153.019 107.288 153.198 106.504 153.257 105.706V105.142H153.822C154.698 105.108 155.562 104.928 156.38 104.61C156.014 104.411 155.217 104.145 153.855 104.045H153.29V103.448C153.19 101.953 152.925 101.056 152.725 100.657C152.355 101.542 152.152 102.488 152.127 103.448V104.045H151.563C150.167 104.145 149.37 104.411 149.005 104.61Z" fill="#090909"/>
<path d="M7.88649 135.538L4.69738 118.23C4.59772 117.599 3.66756 117.865 3.76722 118.496L6.95634 135.803C7.08922 136.435 8.01937 136.169 7.88649 135.538Z" fill="#F5F3F0"/>
<path d="M15.1615 93.4152C14.6593 96.6567 14.437 99.9354 14.4971 103.215C14.5636 107.035 15.1615 110.723 14.4639 114.51C13.2347 121.254 13.8659 128.429 13.9988 135.272C14.027 135.379 14.0895 135.473 14.1766 135.54C14.2637 135.607 14.3706 135.643 14.4805 135.643C14.5904 135.643 14.6973 135.607 14.7844 135.54C14.8715 135.473 14.934 135.379 14.9622 135.272C14.8293 128.263 14.331 121.087 15.5269 114.144C16.0917 110.889 15.6266 107.7 15.4937 104.444C15.344 100.846 15.5443 97.2409 16.0917 93.6809C16.1913 93.083 15.228 92.8172 15.1615 93.4152Z" fill="#F5F3F0"/>
<path d="M22.5027 126.237C21.8051 127.864 21.9712 129.658 21.4729 131.352C20.9746 133.047 20.3434 133.977 20.6756 135.505C20.8085 136.136 21.7386 135.87 21.6057 135.272C21.2735 133.645 22.3698 132.117 22.6356 130.588C22.9013 129.06 22.8681 127.798 23.4328 126.469C23.6654 125.904 22.7352 125.639 22.5027 126.237Z" fill="#F5F3F0"/>
<path d="M168.306 18.1379C167.808 18.1712 167.409 18.5033 167.01 18.7691L166.811 18.8355C164.452 20.2308 161.529 19.9318 158.905 19.8986C156.28 19.8654 152.992 19.8321 150.932 17.5732C150.889 17.529 150.837 17.4939 150.78 17.4699C150.723 17.4459 150.662 17.4336 150.6 17.4336C150.538 17.4336 150.477 17.4459 150.419 17.4699C150.362 17.4939 150.311 17.529 150.267 17.5732C148.374 19.5664 145.019 19.1345 142.594 18.6694C141.996 18.5366 141.73 19.4999 142.361 19.5996C144.985 20.1311 148.407 20.4965 150.6 18.603C152.659 20.563 155.549 20.8287 158.307 20.862C161.064 20.8952 164.32 21.2274 166.911 19.8986H167.143L167.376 19.8321L168.538 19.0681C168.937 18.8023 168.804 18.1047 168.306 18.1379Z" fill="#F5F3F0"/>
<path d="M81.668 80.8245C79.8077 85.4421 80.3392 90.3918 80.3392 95.242C80.3633 97.9014 80.0167 100.551 79.3094 103.115C78.645 105.54 77.9474 107.899 77.9806 110.457C77.9806 111.088 78.9772 111.088 78.944 110.457C78.9108 107.699 79.8077 105.142 80.4721 102.517C81.0158 100.322 81.2946 98.0686 81.3026 95.8067C81.3691 90.8569 80.7046 85.8075 82.5982 81.057C82.8307 80.4923 81.9006 80.2265 81.668 80.8245Z" fill="#090909"/>
<path d="M49.3777 148.66C48.7838 148.565 48.2037 148.397 47.6502 148.162C47.1519 147.929 46.7865 147.464 46.3214 147.198C45.5951 146.786 44.735 146.679 43.9296 146.899C43.3316 147.032 43.5641 147.996 44.1953 147.829C45.3912 147.564 45.956 148.295 46.8862 148.859C47.5859 149.216 48.3367 149.463 49.1119 149.59C49.7099 149.723 49.9756 148.793 49.3777 148.66Z" fill="#090909"/>
<path d="M50.9059 149.324C50.7996 149.352 50.7056 149.415 50.6386 149.502C50.5715 149.589 50.5352 149.696 50.5352 149.806C50.5352 149.916 50.5715 150.023 50.6386 150.11C50.7056 150.197 50.7996 150.259 50.9059 150.288C51.0121 150.259 51.1061 150.197 51.1732 150.11C51.2402 150.023 51.2766 149.916 51.2766 149.806C51.2766 149.696 51.2402 149.589 51.1732 149.502C51.1061 149.415 51.0121 149.352 50.9059 149.324Z" fill="#090909"/>
<path d="M110.336 150.652C108.543 152.147 106.848 153.111 104.523 153.31C102.762 153.443 101.002 153.31 99.2742 153.343C98.643 153.376 98.643 154.34 99.2742 154.306C101.4 154.273 103.593 154.473 105.719 154.107C107.845 153.742 109.406 152.679 111.001 151.35C111.499 150.951 110.801 150.254 110.336 150.652Z" fill="#090909"/>
<path d="M96.3177 153.676C95.1661 153.97 94.0754 154.465 93.0954 155.138C92.5638 155.47 93.0621 156.334 93.5604 155.968C94.479 155.345 95.5034 154.895 96.5835 154.639C97.1814 154.473 96.9156 153.543 96.3177 153.676Z" fill="#090909"/>
<path d="M66.3207 154.805C65.5566 154.274 64.5932 154.374 63.7295 154.075C62.8658 153.776 62.8658 154.805 63.4637 155.005C64.0617 155.204 65.158 155.171 65.8556 155.636C66.5532 156.101 66.8522 155.171 66.3207 154.805Z" fill="#090909"/>
<path d="M79.5747 32.788C77.9137 36.6415 72.964 33.1202 71.2697 31.127C70.8711 30.6287 70.2067 31.3263 70.6053 31.7914C72.6982 34.3161 78.4453 37.8042 80.4052 33.2863C80.671 32.6883 79.8405 32.2232 79.5747 32.788Z" fill="#80A5AE"/>
<path d="M77.2496 35.9772C74.6253 35.9772 71.6355 33.8179 70.207 32.1237C70.0898 31.9893 70.0122 31.8249 69.9828 31.6489C69.9535 31.473 69.9736 31.2923 70.0409 31.1271C70.1055 30.9631 70.2086 30.8171 70.3416 30.7014C70.4746 30.5857 70.6336 30.5039 70.805 30.4627C70.9653 30.4411 71.1284 30.4603 71.2793 30.5183C71.4303 30.5764 71.5642 30.6715 71.6687 30.7949C72.9311 32.323 75.6551 34.2498 77.4822 33.984C78.2131 33.8844 78.7445 33.4193 79.11 32.5888C79.1658 32.4351 79.2642 32.3005 79.3936 32.2005C79.523 32.1005 79.678 32.0393 79.8408 32.024C80.0193 32.0147 80.1974 32.0492 80.3595 32.1245C80.5216 32.1998 80.6629 32.3136 80.771 32.4559C80.8741 32.5985 80.9376 32.7658 80.9551 32.9408C80.9726 33.1158 80.9435 33.2924 80.8706 33.4525C80.2727 34.881 79.2429 35.7115 77.8808 35.9108L77.2496 35.9772ZM79.4422 33.9508C79.1457 34.3226 78.756 34.6091 78.3127 34.7813C78.7601 34.6167 79.1516 34.3287 79.4422 33.9508Z" fill="#80A5AE"/>
<path d="M62.3342 172.744C61.7362 170.95 60.64 169.156 58.8461 168.392C57.7831 167.927 56.72 168.027 55.6238 168.193C54.5275 168.359 53.099 168.757 52.2021 167.827C51.8035 167.429 51.6706 166.831 51.3716 166.366C51.0726 165.9 50.5411 165.236 49.777 165.037C49.013 164.837 47.5513 165.236 46.5215 164.904C45.4916 164.572 45.1595 162.778 44.0632 162.147C43.6811 161.935 43.258 161.808 42.8225 161.773C42.3869 161.739 41.9491 161.798 41.5385 161.947C40.9737 162.147 41.2063 163.077 41.8042 162.877C44.3622 162.08 44.4286 165.535 46.6544 165.9C47.3852 166.033 48.116 165.867 48.8469 165.9C50.4746 165.967 50.4747 167.163 51.2387 168.159C52.0028 169.156 53.7967 169.455 55.2916 169.222C56.7865 168.99 58.1817 168.824 59.4441 169.887C60.7064 170.95 61.0054 171.847 61.404 173.01C61.6034 173.608 62.5335 173.342 62.3342 172.744Z" fill="#F5F3F0"/>
<path d="M114.821 162.412C112.928 162.778 110.303 162.844 108.609 163.94C107.779 164.472 107.247 165.568 106.217 165.867C105.187 166.166 104.158 165.768 103.161 166.033C102.525 166.198 101.963 166.573 101.567 167.096C100.636 168.093 100.105 168.591 98.7096 168.857C97.3143 169.123 95.8859 169.555 95.3211 171.05C95.0886 171.648 96.052 171.913 96.2513 171.315C96.9489 169.455 99.8058 170.02 101.168 168.957C101.666 168.591 101.965 168.06 102.364 167.628C103.261 166.665 104.49 166.964 105.653 166.897C106.815 166.831 107.613 166.033 108.676 165.136C110.27 163.808 113.094 163.741 115.087 163.343C115.718 163.21 115.452 162.279 114.821 162.412Z" fill="#F5F3F0"/>
<path d="M88.8436 64.7126C86.8504 64.6794 84.9568 65.1445 83.0301 65.7092C81.1033 66.274 78.5786 67.1709 76.2532 66.4733C75.6552 66.274 75.3895 67.2373 75.9875 67.4034C80.3393 68.699 84.4918 65.6096 88.8436 65.676C88.9499 65.6479 89.0438 65.5853 89.1109 65.4982C89.178 65.4111 89.2143 65.3042 89.2143 65.1943C89.2143 65.0843 89.178 64.9775 89.1109 64.8904C89.0438 64.8033 88.9499 64.7408 88.8436 64.7126Z" fill="#090909"/>
<path d="M10.8092 142.548H6.52387C4.89609 142.548 2.53746 143.013 2.17204 140.887C2.00918 139.776 1.73084 138.685 1.34154 137.631C0.97612 136.568 1.34154 136.767 2.33814 136.734C3.33474 136.701 3.96594 136.801 4.76322 136.834C5.5605 136.867 5.3944 135.87 4.76322 135.87C3.60052 135.804 2.27172 135.571 1.10902 135.704C0.577496 135.771 0.311728 135.837 0.145628 136.336C-0.0204725 136.834 0.311719 137.598 0.51104 138.163C0.83576 139.185 1.09104 140.228 1.27512 141.285C1.47444 142.315 1.87307 142.98 2.70357 143.312C2.64241 149.568 2.93076 155.823 3.56728 162.048C3.89949 165.004 4.26491 167.928 4.72999 170.851C4.82965 171.516 4.82966 172.213 5.42762 172.612C6.02558 173.01 6.82285 172.745 7.28793 172.711H9.84588C9.95215 172.683 10.0461 172.621 10.1132 172.534C10.1802 172.447 10.2166 172.34 10.2166 172.23C10.2166 172.12 10.1802 172.013 10.1132 171.926C10.0461 171.839 9.95215 171.776 9.84588 171.748C8.81606 171.748 6.25812 172.147 5.75982 171.217C5.26152 170.286 5.32794 168.293 5.16184 167.197C4.79642 164.473 4.49746 161.716 4.26492 158.958C3.79984 153.809 3.63372 148.66 3.66694 143.511C5.99234 143.744 8.48384 143.511 10.8092 143.511C10.9155 143.483 11.0095 143.42 11.0766 143.333C11.1436 143.246 11.18 143.139 11.18 143.029C11.18 142.919 11.1436 142.813 11.0766 142.726C11.0095 142.638 10.9155 142.576 10.8092 142.548Z" fill="#090909"/>
<path d="M13.8323 142.547H12.5367C12.4304 142.575 12.3365 142.638 12.2694 142.725C12.2024 142.812 12.166 142.919 12.166 143.029C12.166 143.138 12.2024 143.245 12.2694 143.332C12.3365 143.42 12.4304 143.482 12.5367 143.51H13.8323C13.9386 143.482 14.0326 143.42 14.0996 143.332C14.1667 143.245 14.203 143.138 14.203 143.029C14.203 142.919 14.1667 142.812 14.0996 142.725C14.0326 142.638 13.9386 142.575 13.8323 142.547Z" fill="#090909"/>
<path d="M16.191 142.547C16.0847 142.575 15.9908 142.638 15.9237 142.725C15.8567 142.812 15.8203 142.919 15.8203 143.029C15.8203 143.138 15.8567 143.245 15.9237 143.332C15.9908 143.42 16.0847 143.482 16.191 143.51C16.2973 143.482 16.3913 143.42 16.4583 143.332C16.5254 143.245 16.5617 143.138 16.5617 143.029C16.5617 142.919 16.5254 142.812 16.4583 142.725C16.3913 142.638 16.2973 142.575 16.191 142.547Z" fill="#090909"/>
<path d="M26.7555 136.269C26.1907 135.438 24.3304 135.737 23.4999 135.704C23.4301 135.7 23.3604 135.713 23.2967 135.742C23.2331 135.771 23.1774 135.815 23.1345 135.87L17.1549 136.003C17.0486 136.031 16.9546 136.093 16.8876 136.181C16.8205 136.268 16.7842 136.375 16.7842 136.484C16.7842 136.594 16.8205 136.701 16.8876 136.788C16.9546 136.875 17.0486 136.938 17.1549 136.966L24.4965 136.8C24.5536 136.806 24.6111 136.796 24.6635 136.773C24.7159 136.75 24.7614 136.713 24.7955 136.667C25.1024 136.679 25.3959 136.796 25.626 136.999C26.0246 137.431 25.626 138.029 25.5596 138.627C25.4267 139.79 25.6924 143.178 23.5996 142.447C23.0016 142.248 22.7359 143.212 23.3338 143.411C25.7921 144.208 26.3901 141.318 26.4897 139.557C26.5229 138.694 26.8219 137.963 26.9216 137.165C26.9709 136.856 26.9123 136.54 26.7555 136.269Z" fill="#090909"/>
<path d="M63.6625 39.7645C62.6327 38.9672 60.872 38.7014 59.975 39.7977H59.9418C59.8894 39.7882 59.8356 39.7893 59.7836 39.801C59.7316 39.8126 59.6825 39.8346 59.6391 39.8656C59.5958 39.8966 59.5591 39.9359 59.5312 39.9813C59.5033 40.0267 59.4848 40.0772 59.4767 40.1299C59.2774 41.2262 59.2774 43.0533 60.4733 43.5848C61.6693 44.1163 63.4299 44.1495 64.1275 42.9536C64.8252 41.7577 64.5926 40.4621 63.6625 39.7645ZM63.2638 42.4885C62.832 43.1529 61.6693 43.0533 61.0049 42.7543C60.3405 42.4553 60.274 41.3922 60.3737 40.6614C60.4788 40.6385 60.5727 40.5798 60.6394 40.4953C61.2042 39.7977 62.234 40.0302 62.9316 40.4289C63.6293 40.8275 63.6957 41.8906 63.2638 42.4885Z" fill="#CBC7DB"/>
<path d="M85.9532 48.5013C85.2224 46.4749 82.8637 46.2756 81.0034 46.3088C80.934 46.3074 80.8651 46.3217 80.8019 46.3504C80.7386 46.3791 80.6826 46.4217 80.638 46.4749C79.0434 46.641 79.0766 49.3983 79.442 50.561C79.8075 51.7237 82.2658 53.0525 83.8271 52.6206C85.3885 52.1887 86.4515 49.9298 85.9532 48.5013ZM84.425 50.8932C83.7939 51.6572 83.4285 51.7901 82.5647 51.624C82.0467 51.5915 81.5446 51.4318 81.103 51.1589C80.4386 50.6938 80.2393 50.1291 80.2393 49.3318C80.2393 48.5345 80.2061 47.4051 80.8373 47.4051C80.8996 47.4217 80.9656 47.4177 81.0255 47.3938C81.0853 47.3698 81.1359 47.3272 81.1695 47.2722C82.1329 47.2722 83.1627 47.239 84.0264 47.7373C85.3884 48.4681 85.2888 49.7969 84.425 50.8932Z" fill="#CBC7DB"/>
<path d="M62.6988 53.3845C61.0046 53.2516 58.646 53.617 58.4467 55.7431C58.3882 56.7377 58.6438 57.7255 59.1775 58.5668C59.8419 59.497 61.0046 59.6963 61.7355 60.5268C61.7932 60.5996 61.8728 60.6519 61.9626 60.6758C62.0524 60.6997 62.1475 60.6941 62.2338 60.6597C64.0941 60.9255 65.6554 59.0319 65.7219 57.2712C65.7883 55.5106 64.3266 53.5174 62.6988 53.3845ZM62.3666 59.6963H62.267C61.6358 59.0984 60.7721 58.8658 60.1741 58.2346C59.0779 57.0719 59.0779 54.8794 60.8053 54.4143C61.4926 54.2542 62.2062 54.2429 62.8982 54.3811C63.4961 54.5804 63.7619 55.0787 64.0941 55.577C64.4263 56.0753 64.9246 56.8726 64.6588 57.7695C64.3931 58.6665 63.4961 59.9289 62.3666 59.6963Z" fill="#CBC7DB"/>
<path d="M75.7881 59.4976H75.5556C74.6255 59.1654 73.496 59.0989 73.2634 60.1952C73.0309 61.2914 73.1638 63.0853 74.3929 63.6501C75.6221 64.2148 76.7848 63.484 77.1502 62.3545C77.5156 61.225 76.9841 59.8298 75.7881 59.4976ZM74.5922 62.6535C74.1272 62.2216 74.094 61.3579 74.1936 60.7599C74.2933 60.1619 74.3265 60.1952 74.858 60.2948C75.2039 60.3573 75.5325 60.4932 75.8214 60.6935L76.0539 60.7599C76.818 61.6568 75.6885 63.6169 74.5922 62.6535Z" fill="#CBC7DB"/>
<path d="M88.3454 55.4438C88.3781 55.3841 88.396 55.3174 88.398 55.2494C88.3999 55.1813 88.3858 55.1137 88.3566 55.0521C88.3275 54.9906 88.2842 54.9368 88.2303 54.8952C88.1764 54.8536 88.1134 54.8253 88.0464 54.8127C87.3488 54.6466 86.2194 54.6798 85.7875 55.3774C85.5958 55.7331 85.5148 56.138 85.5549 56.5401C85.5442 56.7317 85.5811 56.923 85.6622 57.0969C85.7434 57.2708 85.8663 57.4219 86.02 57.5367C86.5848 57.9354 87.5814 58.0682 88.1793 57.7028C88.7773 57.3374 88.578 56.075 88.3454 55.4438ZM87.382 56.9387C87.1678 56.938 86.9549 56.9044 86.7509 56.8391C86.5848 56.7727 86.5183 56.7394 86.5183 56.5401C86.5057 56.3494 86.5282 56.1579 86.5848 55.9754C86.6844 55.7428 87.0831 55.6764 87.4153 55.7096C87.5878 56.072 87.6677 56.4715 87.6478 56.8723H87.382V56.9387Z" fill="#CBC7DB"/>
<path d="M85.4217 37.7711C85.0895 37.4721 84.5912 37.5053 84.1926 37.5053C83.9804 37.4624 83.7618 37.4631 83.5499 37.5074C83.3381 37.5517 83.1375 37.6387 82.9604 37.763C82.7832 37.8873 82.6332 38.0463 82.5195 38.2305C82.4058 38.4147 82.3308 38.62 82.299 38.8341C82.1329 39.7975 82.8638 40.4951 83.7939 40.4951C84.2317 40.5103 84.6604 40.3678 85.0019 40.0934C85.3433 39.819 85.5749 39.431 85.6543 39.0002C85.7207 38.6016 85.7207 38.0701 85.4217 37.7711ZM84.6909 38.8673C84.6524 39.0287 84.5699 39.1762 84.4526 39.2935C84.3353 39.4108 84.1878 39.4932 84.0265 39.5317C83.6943 39.5982 83.2624 39.4985 83.2292 39.0999C83.2238 39.0084 83.2385 38.9167 83.2721 38.8314C83.3058 38.7461 83.3576 38.6692 83.424 38.606C83.4904 38.5427 83.5698 38.4947 83.6566 38.4653C83.7434 38.4359 83.8356 38.4257 83.9268 38.4355H84.6577C84.7573 38.5352 84.7241 38.7344 84.6909 38.8673Z" fill="#CBC7DB"/>
<path d="M87.6809 29.5653C87.548 28.4026 87.2823 27.3396 87.3155 26.1437C87.3487 24.9478 87.4152 23.9844 87.4816 22.9213C87.548 21.8583 87.6809 20.4963 87.4151 19.3336C87.4529 19.1168 87.4363 18.8941 87.3667 18.6853C87.2971 18.4766 87.1768 18.2884 87.0165 18.1377L86.9501 18.038L86.7507 17.7722H86.7175C86.3521 17.1743 86.1528 16.4102 85.8538 15.8455C85.5779 15.1953 85.13 14.6325 84.5582 14.2177L84.3257 14.0516C83.8713 13.1949 83.2366 12.4469 82.4654 11.8591C80.439 10.331 78.6783 9.53367 76.1203 9.63333C73.5624 9.73299 70.938 9.69979 68.4465 10.2313C67.3428 10.4598 66.2937 10.8998 65.3571 11.5269C64.3605 12.2577 63.6629 13.2875 62.7327 14.0848C60.9056 15.6129 58.5138 16.2441 57.2846 18.4699C56.0555 20.6956 57.1517 22.6224 57.6168 24.8149C58.0819 27.0074 56.2216 28.8677 55.5572 30.9606C54.8928 33.0535 55.3246 36.1097 56.4873 38.0032C57.1849 39.1327 58.7131 38.7673 59.1449 37.6378C59.8425 35.8439 61.7693 34.9802 63.4635 34.4155C65.1577 33.8508 67.3835 33.1864 69.3435 32.5884C70.1075 32.3226 70.0743 31.6914 70.0079 31.027C69.9414 30.3626 70.3069 29.6982 69.8418 29.3328C69.9911 29.0059 70.0918 28.659 70.1408 28.303C70.2744 27.0231 70.3077 25.7346 70.2404 24.4495C70.385 24.7771 70.5631 25.0888 70.7719 25.3796C71.3034 21.2603 74.8912 17.8055 79.1434 17.8719C80.44 17.8926 81.7124 18.2267 82.852 18.8457C83.9915 19.4646 84.9645 20.3501 85.6877 21.4264C85.6545 22.2902 85.5216 23.1871 85.4884 23.8183C85.3446 25.276 85.3335 26.7437 85.4552 28.2033C85.463 28.2593 85.4741 28.3148 85.4884 28.3694C85.3809 28.4599 85.2929 28.5714 85.2301 28.697C85.1672 28.8227 85.1308 28.96 85.123 29.1003C85.123 29.4657 84.1596 30.1633 83.8938 30.3958C83.6281 30.6284 82.8308 31.326 82.0667 31.2263C81.3027 31.1267 80.3061 32.8874 81.5352 33.0867C82.2035 33.1881 82.8862 33.1312 83.5284 32.9206C83.6945 33.5518 84.5582 34.0501 85.1562 33.4189C86.2857 32.2894 87.8802 31.2928 87.6809 29.5653Z" fill="#090909"/>
<path d="M72.1004 31.36C70.9709 29.8984 69.775 29.234 67.9147 29.4997C67.2187 29.5836 66.5593 29.8573 66.0085 30.2908C65.4577 30.7244 65.0368 31.3012 64.792 31.958C64.6591 32.2902 64.9913 32.5559 65.2571 32.5559C66.6343 32.6964 68.0257 32.5494 69.3431 32.1241C69.775 31.958 70.5058 31.7587 70.7716 31.2936C71.0093 31.5337 71.2312 31.7889 71.436 32.0577C71.8014 32.5227 72.499 31.8583 72.1004 31.36Z" fill="#80A5AE"/>
<path d="M70.3065 21.0621C69.7749 22.1252 70.0407 24.4174 71.6685 24.1184C72.3993 23.9855 72.7647 23.0553 72.6651 22.2581C72.7306 22.2626 72.7962 22.2541 72.8584 22.2332C72.9206 22.2122 72.9781 22.1792 73.0275 22.136C73.0768 22.0927 73.1172 22.0402 73.1462 21.9813C73.1753 21.9225 73.1924 21.8585 73.1966 21.793C73.2963 20.1984 71.0041 19.7333 70.3065 21.0621Z" fill="#F5F3F0"/>
<path d="M99.8723 6.17922H106.317C106.449 6.17922 106.576 6.12672 106.669 6.03327C106.763 5.93982 106.815 5.81307 106.815 5.68092C106.815 5.54876 106.763 5.42201 106.669 5.32856C106.576 5.23511 106.449 5.18262 106.317 5.18262H99.8723C99.7402 5.18262 99.6134 5.23511 99.52 5.32856C99.4265 5.42201 99.374 5.54876 99.374 5.68092C99.374 5.81307 99.4265 5.93982 99.52 6.03327C99.6134 6.12672 99.7402 6.17922 99.8723 6.17922Z" fill="#090909"/>
<path d="M114.954 5.97903H116.748C117.014 5.94581 118.642 5.74649 118.542 6.31123C118.442 6.87597 119.373 7.20818 119.506 6.577C119.638 5.94582 119.472 5.08209 118.575 4.94921C117.678 4.81633 116.117 4.98246 114.954 5.01568C114.822 5.01568 114.695 5.06817 114.602 5.16162C114.509 5.25507 114.456 5.38182 114.456 5.51398C114.456 5.64614 114.509 5.77288 114.602 5.86633C114.695 5.95978 114.822 6.01228 114.954 6.01228V5.97903Z" fill="#090909"/>
<path d="M108.178 6.27883H109.141C109.274 6.27883 109.4 6.22633 109.494 6.13288C109.587 6.03943 109.64 5.91268 109.64 5.78053C109.64 5.64837 109.587 5.52162 109.494 5.42817C109.4 5.33472 109.274 5.28223 109.141 5.28223H108.178C108.046 5.28223 107.919 5.33472 107.826 5.42817C107.732 5.52162 107.68 5.64837 107.68 5.78053C107.68 5.91268 107.732 6.03943 107.826 6.13288C107.919 6.22633 108.046 6.27883 108.178 6.27883Z" fill="#090909"/>
<path d="M92.3313 16.0786H108.609C108.741 16.0786 108.868 16.0261 108.961 15.9327C109.055 15.8392 109.107 15.7125 109.107 15.5803C109.107 15.4482 109.055 15.3214 108.961 15.228C108.868 15.1345 108.741 15.082 108.609 15.082H92.3313C92.1992 15.082 92.0724 15.1345 91.979 15.228C91.8855 15.3214 91.833 15.4482 91.833 15.5803C91.833 15.7125 91.8855 15.8392 91.979 15.9327C92.0724 16.0261 92.1992 16.0786 92.3313 16.0786Z" fill="#090909"/>
<path d="M98.7756 19.2007H111.831C111.963 19.2007 112.09 19.1482 112.183 19.0548C112.277 18.9613 112.329 18.8346 112.329 18.7024C112.329 18.5702 112.277 18.4435 112.183 18.35C112.09 18.2566 111.963 18.2041 111.831 18.2041H98.7756C98.6435 18.2041 98.5167 18.2566 98.4233 18.35C98.3298 18.4435 98.2773 18.5702 98.2773 18.7024C98.2773 18.8346 98.3298 18.9613 98.4233 19.0548C98.5167 19.1482 98.6435 19.2007 98.7756 19.2007Z" fill="#090909"/>
<path d="M92.8626 19.5337H95.3208C95.453 19.5337 95.5798 19.4812 95.6732 19.3878C95.7667 19.2943 95.8191 19.1676 95.8191 19.0354C95.8191 18.9033 95.7667 18.7765 95.6732 18.6831C95.5798 18.5896 95.453 18.5371 95.3208 18.5371H92.8626C92.7304 18.5371 92.6037 18.5896 92.5102 18.6831C92.4168 18.7765 92.3643 18.9033 92.3643 19.0354C92.3643 19.1676 92.4168 19.2943 92.5102 19.3878C92.6037 19.4812 92.7304 19.5337 92.8626 19.5337Z" fill="#090909"/>
<path d="M108.709 10.4312C112.164 10.4976 115.619 10.4976 119.041 10.4644C119.173 10.4644 119.3 10.4119 119.393 10.3184C119.486 10.225 119.539 10.0982 119.539 9.96608C119.539 9.83392 119.486 9.70718 119.393 9.61373C119.3 9.52028 119.173 9.46778 119.041 9.46778C115.619 9.501 112.164 9.50101 108.709 9.43457C108.577 9.43457 108.45 9.48707 108.357 9.58052C108.263 9.67397 108.211 9.80071 108.211 9.93287C108.211 10.065 108.263 10.1918 108.357 10.2852C108.45 10.3787 108.577 10.4312 108.709 10.4312Z" fill="#090909"/>
<path d="M101.168 10.6968H103.195C103.327 10.6968 103.454 10.6443 103.547 10.5508C103.64 10.4574 103.693 10.3307 103.693 10.1985C103.693 10.0663 103.64 9.93959 103.547 9.84614C103.454 9.75269 103.327 9.7002 103.195 9.7002H101.168C101.036 9.7002 100.909 9.75269 100.816 9.84614C100.722 9.93959 100.67 10.0663 100.67 10.1985C100.67 10.3307 100.722 10.4574 100.816 10.5508C100.909 10.6443 101.036 10.6968 101.168 10.6968Z" fill="#090909"/>
<path d="M91.0354 25.7456H97.015C97.1472 25.7456 97.2739 25.6931 97.3674 25.5997C97.4608 25.5062 97.5133 25.3795 97.5133 25.2473C97.5133 25.1152 97.4608 24.9884 97.3674 24.895C97.2739 24.8015 97.1472 24.749 97.015 24.749H91.0354C90.9033 24.749 90.7765 24.8015 90.6831 24.895C90.5896 24.9884 90.5371 25.1152 90.5371 25.2473C90.5371 25.3795 90.5896 25.5062 90.6831 25.5997C90.7765 25.6931 90.9033 25.7456 91.0354 25.7456Z" fill="#090909"/>
<path d="M92.8967 23.7525H107.514C107.646 23.7525 107.772 23.7 107.866 23.6065C107.959 23.5131 108.012 23.3863 108.012 23.2542C108.012 23.122 107.959 22.9953 107.866 22.9018C107.772 22.8084 107.646 22.7559 107.514 22.7559H92.8967C92.7646 22.7559 92.6378 22.8084 92.5444 22.9018C92.4509 22.9953 92.3984 23.122 92.3984 23.2542C92.3984 23.3863 92.4509 23.5131 92.5444 23.6065C92.6378 23.7 92.7646 23.7525 92.8967 23.7525Z" fill="#090909"/>
<path d="M102.896 26.2437H108.975C109.107 26.2437 109.234 26.1912 109.327 26.0977C109.421 26.0043 109.473 25.8775 109.473 25.7454C109.473 25.6132 109.421 25.4865 109.327 25.393C109.234 25.2996 109.107 25.2471 108.975 25.2471H102.896C102.764 25.2471 102.637 25.2996 102.543 25.393C102.45 25.4865 102.397 25.6132 102.397 25.7454C102.397 25.8775 102.45 26.0043 102.543 26.0977C102.637 26.1912 102.764 26.2437 102.896 26.2437Z" fill="#090909"/>
<path d="M93.76 30.1968H98.0454C98.1775 30.1968 98.3043 30.1443 98.3977 30.0508C98.4912 29.9574 98.5437 29.8307 98.5437 29.6985C98.5437 29.5663 98.4912 29.4396 98.3977 29.3461C98.3043 29.2527 98.1775 29.2002 98.0454 29.2002H93.76C93.6279 29.2002 93.5011 29.2527 93.4077 29.3461C93.3142 29.4396 93.2617 29.5663 93.2617 29.6985C93.2617 29.8307 93.3142 29.9574 93.4077 30.0508C93.5011 30.1443 93.6279 30.1968 93.76 30.1968Z" fill="#090909"/>
<path d="M100.636 30.1968H104.124C104.256 30.1968 104.383 30.1443 104.476 30.0508C104.57 29.9574 104.622 29.8307 104.622 29.6985C104.622 29.5663 104.57 29.4396 104.476 29.3461C104.383 29.2527 104.256 29.2002 104.124 29.2002H100.636C100.504 29.2002 100.377 29.2527 100.284 29.3461C100.19 29.4396 100.138 29.5663 100.138 29.6985C100.138 29.8307 100.19 29.9574 100.284 30.0508C100.377 30.1443 100.504 30.1968 100.636 30.1968Z" fill="#090909"/>
<path d="M105.951 30.3296C106.084 30.3296 106.21 30.2771 106.304 30.1837C106.397 30.0902 106.45 29.9635 106.45 29.8313C106.45 29.6992 106.397 29.5724 106.304 29.479C106.21 29.3855 106.084 29.333 105.951 29.333C105.819 29.333 105.693 29.3855 105.599 29.479C105.506 29.5724 105.453 29.6992 105.453 29.8313C105.453 29.9635 105.506 30.0902 105.599 30.1837C105.693 30.2771 105.819 30.3296 105.951 30.3296Z" fill="#090909"/>
<path d="M91.5012 33.6187H108.078C108.21 33.6187 108.337 33.5662 108.43 33.4727C108.524 33.3793 108.576 33.2525 108.576 33.1204C108.576 32.9882 108.524 32.8615 108.43 32.768C108.337 32.6746 108.21 32.6221 108.078 32.6221H91.5012C91.3691 32.6221 91.2423 32.6746 91.1489 32.768C91.0554 32.8615 91.0029 32.9882 91.0029 33.1204C91.0029 33.2525 91.0554 33.3793 91.1489 33.4727C91.2423 33.5662 91.3691 33.6187 91.5012 33.6187Z" fill="#090909"/>
<path d="M100.238 34.981H118.675C118.807 34.981 118.934 34.9285 119.027 34.835C119.12 34.7416 119.173 34.6148 119.173 34.4827C119.173 34.3505 119.12 34.2238 119.027 34.1303C118.934 34.0369 118.807 33.9844 118.675 33.9844H100.238C100.105 33.9844 99.9787 34.0369 99.8852 34.1303C99.7918 34.2238 99.7393 34.3505 99.7393 34.4827C99.7393 34.6148 99.7918 34.7416 99.8852 34.835C99.9787 34.9285 100.105 34.981 100.238 34.981Z" fill="#090909"/>
<path d="M90.3049 41.9234H101.865C101.998 41.9234 102.124 41.8709 102.218 41.7774C102.311 41.684 102.364 41.5572 102.364 41.4251C102.364 41.2929 102.311 41.1662 102.218 41.0727C102.124 40.9793 101.998 40.9268 101.865 40.9268H90.3049C90.1728 40.9268 90.046 40.9793 89.9526 41.0727C89.8591 41.1662 89.8066 41.2929 89.8066 41.4251C89.8066 41.5572 89.8591 41.684 89.9526 41.7774C90.046 41.8709 90.1728 41.9234 90.3049 41.9234Z" fill="#090909"/>
<path d="M95.2219 43.9497H109.041C109.174 43.9497 109.3 43.8972 109.394 43.8038C109.487 43.7103 109.54 43.5836 109.54 43.4514C109.54 43.3193 109.487 43.1925 109.394 43.0991C109.3 43.0056 109.174 42.9531 109.041 42.9531H95.2219C95.0898 42.9531 94.963 43.0056 94.8696 43.0991C94.7761 43.1925 94.7236 43.3193 94.7236 43.4514C94.7236 43.5836 94.7761 43.7103 94.8696 43.8038C94.963 43.8972 95.0898 43.9497 95.2219 43.9497Z" fill="#090909"/>
<path d="M91.4348 48.5347C95.6205 48.5679 99.8395 48.6011 104.025 48.5679C104.157 48.5679 104.284 48.5154 104.378 48.422C104.471 48.3285 104.523 48.2018 104.523 48.0696C104.523 47.9374 104.471 47.8107 104.378 47.7172C104.284 47.6238 104.157 47.5713 104.025 47.5713C99.8395 47.6045 95.6205 47.5713 91.4348 47.5381C91.3027 47.5381 91.1759 47.5906 91.0825 47.684C90.989 47.7775 90.9365 47.9042 90.9365 48.0364C90.9365 48.1685 90.989 48.2953 91.0825 48.3887C91.1759 48.4822 91.3027 48.5347 91.4348 48.5347Z" fill="#090909"/>
<path d="M101.301 50.8931H108.809C108.941 50.8931 109.068 50.8406 109.161 50.7471C109.255 50.6537 109.307 50.5269 109.307 50.3948C109.307 50.2626 109.255 50.1359 109.161 50.0424C109.068 49.949 108.941 49.8965 108.809 49.8965H101.301C101.169 49.8965 101.042 49.949 100.949 50.0424C100.855 50.1359 100.803 50.2626 100.803 50.3948C100.803 50.5269 100.855 50.6537 100.949 50.7471C101.042 50.8406 101.169 50.8931 101.301 50.8931Z" fill="#090909"/>
<path d="M110.171 54.2149H112.397C112.995 54.2149 114.29 53.9823 114.191 54.9457C114.091 55.9091 115.121 55.5769 115.187 54.9457C115.254 54.3145 114.988 53.4176 114.091 53.2515C113.194 53.0854 111.434 53.2183 110.171 53.2183C110.039 53.2183 109.912 53.2708 109.819 53.3642C109.725 53.4577 109.673 53.5844 109.673 53.7166C109.673 53.8488 109.725 53.9755 109.819 54.069C109.912 54.1624 110.039 54.2149 110.171 54.2149Z" fill="#090909"/>
<path d="M105.088 54.3814H108.643C108.775 54.3814 108.902 54.3289 108.995 54.2354C109.088 54.142 109.141 54.0152 109.141 53.8831C109.141 53.7509 109.088 53.6242 108.995 53.5307C108.902 53.4373 108.775 53.3848 108.643 53.3848H105.088C104.956 53.3848 104.829 53.4373 104.736 53.5307C104.642 53.6242 104.59 53.7509 104.59 53.8831C104.59 54.0152 104.642 54.142 104.736 54.2354C104.829 54.3289 104.956 54.3814 105.088 54.3814Z" fill="#090909"/>
<path d="M91.3352 60.0952H107.048C107.18 60.0952 107.307 60.0427 107.401 59.9493C107.494 59.8558 107.547 59.7291 107.547 59.5969C107.547 59.4648 107.494 59.338 107.401 59.2446C107.307 59.1511 107.18 59.0986 107.048 59.0986H91.3352C91.2031 59.0986 91.0763 59.1511 90.9829 59.2446C90.8894 59.338 90.8369 59.4648 90.8369 59.5969C90.8369 59.7291 90.8894 59.8558 90.9829 59.9493C91.0763 60.0427 91.2031 60.0952 91.3352 60.0952Z" fill="#090909"/>
<path d="M97.8128 62.6196H108.642C108.775 62.6196 108.901 62.5672 108.995 62.4737C109.088 62.3803 109.141 62.2535 109.141 62.1213C109.141 61.9892 109.088 61.8624 108.995 61.769C108.901 61.6755 108.775 61.623 108.642 61.623H97.8128C97.6806 61.623 97.5538 61.6755 97.4604 61.769C97.3669 61.8624 97.3145 61.9892 97.3145 62.1213C97.3145 62.2535 97.3669 62.3803 97.4604 62.4737C97.5538 62.5672 97.6806 62.6196 97.8128 62.6196Z" fill="#090909"/>
<path d="M93.2952 66.3404H98.8761C99.0083 66.3404 99.135 66.2879 99.2285 66.1944C99.3219 66.101 99.3744 65.9742 99.3744 65.8421C99.3744 65.7099 99.3219 65.5831 99.2285 65.4897C99.135 65.3962 99.0083 65.3438 98.8761 65.3438H93.2952C93.163 65.3437 93.0363 65.3962 92.9428 65.4897C92.8494 65.5831 92.7969 65.7099 92.7969 65.8421C92.7969 65.9742 92.8494 66.101 92.9428 66.1944C93.0363 66.2879 93.163 66.3404 93.2952 66.3404Z" fill="#090909"/>
<path d="M101.6 66.2075H107.679C107.811 66.2075 107.938 66.155 108.031 66.0616C108.125 65.9681 108.177 65.8414 108.177 65.7092C108.177 65.5771 108.125 65.4503 108.031 65.3569C107.938 65.2634 107.811 65.2109 107.679 65.2109H101.6C101.468 65.2109 101.341 65.2634 101.248 65.3569C101.154 65.4503 101.102 65.5771 101.102 65.7092C101.102 65.8414 101.154 65.9681 101.248 66.0616C101.341 66.155 101.468 66.2075 101.6 66.2075Z" fill="#090909"/>
</svg>
