<svg width="470" height="451" viewBox="0 0 470 451" fill="none" xmlns="http://www.w3.org/2000/svg">
<path d="M258.992 421.813L265.039 421.503L264.806 414.758L289.225 413.906L289.457 420.65L290.077 439.487C290.098 440.002 290.016 440.517 289.835 441C289.654 441.483 289.379 441.926 289.025 442.301C288.672 442.676 288.246 442.977 287.775 443.186C287.303 443.395 286.795 443.508 286.279 443.518L246.434 444.913V441.968C245.969 431.037 248.062 422.2 258.992 421.813Z" fill="#090909"/>
<path d="M415.892 431.425V398.092C415.737 395.379 413.876 393.131 411.628 392.976L392.016 392.511L385.271 393.518L386.977 420.96L393.876 421.503L394.264 427.937C394.275 428.584 394.249 429.231 394.186 429.875L393.954 431.735C391.894 432.934 390.185 434.654 389.002 436.723C387.818 438.791 387.199 441.135 387.209 443.518C387.209 443.95 387.381 444.364 387.686 444.67C387.992 444.975 388.406 445.146 388.837 445.146H405.814C408.362 445.151 410.816 444.183 412.675 442.44C414.533 440.697 415.656 438.31 415.814 435.767C415.842 435.735 415.864 435.698 415.877 435.658C415.89 435.618 415.895 435.576 415.892 435.534V435.069V431.425Z" fill="#090909"/>
<path d="M392.092 412.278C391.86 410.728 391.55 409.178 391.395 407.55V395.147C391.55 394.371 391.705 393.519 391.937 392.743C392.713 388.712 393.643 384.681 392.325 381.038C391.627 379.178 390.465 378.712 388.759 378.402C386.541 378.209 384.311 378.209 382.093 378.402H358.062C354.947 378.587 351.822 378.379 348.759 377.782C348.217 375.457 347.674 373.131 347.286 370.805C344.496 350.185 349.922 329.022 348.682 308.325C348.679 308.133 348.625 307.946 348.527 307.782C348.459 305.977 348.199 304.184 347.751 302.433C347.628 302.094 347.378 301.817 347.054 301.658V301.348C347.048 301.18 347.003 301.015 346.922 300.867C346.841 300.719 346.727 300.592 346.589 300.495C346.589 300.418 346.589 300.34 346.666 300.34L346.821 299.953L346.511 299.798C345.815 299.413 345.024 299.231 344.23 299.272C343.435 299.313 342.668 299.576 342.015 300.03C341.521 300.342 341.118 300.779 340.846 301.296C340.574 301.813 340.442 302.392 340.465 302.976C328.527 305.612 296.821 303.519 296.511 303.519C289.174 303.496 281.937 305.22 275.399 308.55C268.861 311.88 263.21 316.718 258.914 322.666C256.941 324.782 255.389 327.255 254.341 329.953C253.255 332.898 251.55 335.534 251.472 338.635C251.339 339.145 251.236 339.663 251.162 340.185H251.085V340.728C251.007 341.503 251.007 342.356 251.007 343.209V395.922C250.633 397.406 250.141 398.857 249.534 400.263C248.683 402.092 248.058 404.019 247.674 405.999C247.209 409.022 246.744 413.209 248.682 415.147C250.62 417.085 254.341 416.697 257.441 416.464H274.728C276.279 416.619 277.829 416.852 279.379 416.929C283.41 417.162 287.829 417.472 291.782 416.309C293.174 416.338 294.553 416.046 295.813 415.457C297.829 414.371 298.217 412.433 298.294 410.805C302.015 418.247 309.767 422.898 318.527 422.898H354.728C357.546 423.181 360.343 423.647 363.1 424.294C369.735 425.838 376.521 426.643 383.333 426.697H384.418C387.286 426.697 389.534 425.844 390.93 424.294C392.325 422.743 393.023 420.418 392.79 417.472C392.713 415.689 392.403 413.984 392.092 412.278ZM296.046 353.053V353.286H295.813V353.131L296.046 353.053Z" fill="#80A5AE"/>
<path d="M145.426 237.705H138.759V178.325H145.426V237.705Z" fill="#80A5AE"/>
<path d="M297.27 3.57131L284.961 0.388186C284.132 0.173797 283.287 0.672022 283.072 1.501L168.751 443.547C168.537 444.376 169.035 445.221 169.864 445.436L182.173 448.619C183.002 448.833 183.847 448.335 184.062 447.506L298.382 5.4605C298.597 4.63152 298.099 3.7857 297.27 3.57131Z" fill="#80A5AE"/>
<path d="M311.24 219.1C315.247 219.73 319.123 221.013 322.713 222.898C330.698 227.472 335.504 234.991 337.985 241.038C344.651 257.317 332.481 272.743 326.512 281.193C322.403 287.084 311.55 302.666 294.961 307.007C258.915 316.464 229.07 271.658 224.264 261.115C222.946 258.247 221.938 254.604 218.527 248.712C217.442 246.774 212.636 244.139 215.659 241.658C217.054 240.495 219.768 242.511 220.31 240.883C220.853 239.255 218.14 235.689 218.76 233.906C219.38 232.123 221.008 232.356 221.395 232.433C223.411 233.131 224.729 235.069 224.961 234.681C225.194 234.294 222.093 229.255 222.326 227.704C222.558 226.154 223.256 225.224 224.264 224.836C225.271 224.449 228.76 226.464 230 227.704C233.876 231.348 235.271 235.534 236.667 239.177C238.062 242.821 242.093 248.557 245.271 254.449" fill="#F5F3F0"/>
<path d="M284.883 309.875C252.015 309.875 226.821 270.495 222.868 261.813L221.705 259.022C220.456 255.732 218.953 252.544 217.209 249.487C216.819 248.954 216.378 248.461 215.891 248.014C214.573 246.697 213.023 245.224 213.1 243.286C213.151 242.738 213.314 242.208 213.581 241.727C213.848 241.247 214.213 240.827 214.651 240.495C215.891 239.487 217.286 239.72 218.372 239.875H218.759C218.604 239.332 218.294 238.635 218.139 238.17C217.442 236.464 216.821 234.759 217.286 233.363C217.633 232.476 218.282 231.74 219.119 231.286C219.957 230.832 220.928 230.689 221.86 230.883C221.162 229.565 220.697 228.402 220.852 227.394C220.944 226.533 221.247 225.707 221.734 224.991C222.22 224.274 222.876 223.689 223.643 223.286C226.434 222.123 229.457 224.991 231.085 226.464C234.883 230.108 236.356 234.061 237.752 237.472L238.139 238.48C239.419 241.268 240.895 243.963 242.558 246.542C243.876 248.79 245.349 251.193 246.666 253.596C246.845 253.971 246.881 254.399 246.767 254.798C246.653 255.198 246.396 255.542 246.046 255.766C245.863 255.859 245.664 255.915 245.459 255.93C245.254 255.945 245.049 255.92 244.854 255.855C244.659 255.79 244.479 255.687 244.325 255.552C244.17 255.417 244.044 255.253 243.953 255.069C242.635 252.743 241.24 250.418 239.845 248.092C238.097 245.402 236.567 242.577 235.271 239.642L234.883 238.635C233.566 235.301 232.248 231.813 228.914 228.712C225.581 225.611 225.193 225.999 224.883 226.154C224.61 226.357 224.381 226.612 224.208 226.905C224.035 227.198 223.922 227.522 223.876 227.859C224.195 228.692 224.584 229.496 225.038 230.263C226.201 232.278 227.131 233.984 226.279 235.379C226.17 235.599 226.006 235.786 225.801 235.923C225.597 236.059 225.361 236.139 225.116 236.154C224.263 236.309 223.721 235.844 223.1 235.301C222.492 234.715 221.783 234.242 221.007 233.906C220.775 233.906 220.31 234.061 220.232 234.294C220.349 235.233 220.61 236.148 221.007 237.007C221.628 238.557 222.248 240.03 221.783 241.348C221.317 242.666 218.914 243.053 217.829 242.898C216.744 242.743 216.821 242.666 216.666 242.821C216.551 242.867 216.448 242.941 216.368 243.035C216.287 243.13 216.23 243.242 216.201 243.363C216.201 243.906 217.364 245.069 218.062 245.767C218.744 246.385 219.343 247.088 219.845 247.859C221.696 251.029 223.278 254.348 224.573 257.782C224.961 258.79 225.271 259.642 225.659 260.418C227.442 264.371 235.581 278.325 248.914 290.34C259.535 299.875 276.046 310.263 294.573 305.456C310.542 301.27 321.24 285.999 325.271 280.263L326.511 278.48C332.48 270.03 342.48 255.922 336.589 241.58C334.728 237.162 330.387 229.022 321.938 224.216C317.752 221.813 312.635 220.883 310.93 220.573C310.525 220.48 310.17 220.235 309.94 219.889C309.709 219.543 309.62 219.122 309.69 218.712C309.783 218.307 310.027 217.953 310.373 217.722C310.719 217.492 311.14 217.402 311.55 217.472C315.719 218.171 319.749 219.532 323.488 221.503C332.713 226.774 337.442 235.611 339.457 240.418C345.969 256.387 335.348 271.348 329.069 280.263L327.829 282.046C323.566 288.015 312.48 303.984 295.348 308.402C291.945 309.376 288.423 309.872 284.883 309.875Z" fill="#090909"/>
<path d="M51.1628 419.875L46.5117 415.689L51.0853 410.805L32.9458 393.441L27.3644 399.1L14.6512 413.829C14.2957 414.229 14.0234 414.696 13.8502 415.202C13.677 415.708 13.6064 416.244 13.6425 416.778C13.6786 417.312 13.8206 417.834 14.0603 418.312C14.3001 418.791 14.6327 419.217 15.0388 419.565L43.9535 444.604C44.5729 445.133 45.3753 445.396 46.1876 445.338C46.9998 445.28 47.7567 444.905 48.2946 444.294C55.7365 435.767 59.7675 427.317 51.1628 419.875Z" fill="#CBC7DB"/>
<path d="M142.17 422.356L135.891 422.201L136.124 415.534L111.085 414.216L110.542 422.201V441.658C110.542 442.748 110.975 443.793 111.746 444.563C112.516 445.334 113.561 445.767 114.651 445.767H152.868C153.268 445.777 153.666 445.706 154.038 445.558C154.409 445.41 154.747 445.188 155.03 444.905C155.312 444.622 155.535 444.284 155.683 443.913C155.831 443.541 155.902 443.143 155.891 442.743C155.969 431.425 153.488 422.356 142.17 422.356Z" fill="#CBC7DB"/>
<path d="M461.783 9.33267C452.945 45.5342 440.232 72.666 430.232 90.5729C414.961 117.937 405.736 124.681 400.62 127.782C379.612 140.728 347.752 143.286 327.984 128.79C313.798 118.402 315.814 106.697 304.031 102.976C283.023 96.3094 263.798 129.798 252.48 123.984C241.162 118.17 245.814 70.0303 270.62 38.0148C285.891 18.2474 301.628 13.2086 305.038 12.2009C308.449 11.1931 326.666 5.68924 341.317 14.0613C347.209 17.3947 348.062 20.3404 352.79 24.604C372.713 42.666 406.434 36.2318 412.093 35.1466C435.271 30.6504 455.271 15.6893 461.783 9.33267Z" fill="#CBC7DB"/>
<path d="M118.139 149.952C119.612 148.479 121.86 147.162 123.953 144.061C128.062 138.092 127.209 136.774 129.845 133.363C134.496 127.317 138.992 129.41 147.131 121.58C149.224 119.565 151.24 117.239 151.627 113.983C152.015 110.727 151.085 108.324 150.697 108.324C150.31 108.324 150.465 109.41 150.077 110.417C148.759 113.286 143.798 113.673 140.93 113.906C138.062 114.138 130.93 115.069 126.046 117.549C119.689 120.727 115.038 128.092 114.573 135.068C114.263 139.952 116.124 145.146 116.589 146.386C117.054 147.627 117.752 149.099 118.139 149.952Z" fill="#090909"/>
<path d="M184.574 329.642V329.487L156.9 256.851L137.52 264.216L140.621 251.115L90.3109 250.96L70.6209 332.898C68.5279 336.541 66.1248 340.03 63.7217 343.441C61.3186 346.851 58.2954 350.882 55.5047 354.526L40.0008 373.596C35.5047 377.006 30.3884 379.797 26.745 384.138C24.962 386.154 23.2566 389.022 24.4969 391.735C25.7372 394.448 28.2179 395.611 30.621 397.006C35.9698 401.192 41.3961 405.301 46.0473 409.952C48.5279 412.433 50.0008 415.611 52.5589 417.937C53.5946 418.851 54.7404 419.632 55.9698 420.262C57.8303 422.123 61.6287 424.681 64.1093 422.975C65.1946 422.278 65.1946 421.192 65.5822 420.107C66.3574 417.782 68.2954 416.309 69.8457 414.526C71.1303 413.042 72.1291 411.334 72.7915 409.487L100.931 370.805C102.791 368.557 104.497 366.231 106.28 363.906C109.923 359.099 113.954 354.448 116.9 349.177C117.133 348.634 117.443 348.169 117.675 347.704C121.784 339.487 123.412 329.797 124.187 320.495L125.737 313.751L131.706 327.549C131.861 329.536 131.861 331.531 131.706 333.518L118.295 375.456C111.474 387.471 107.908 401.192 103.489 414.371C103.089 415.215 102.777 416.098 102.559 417.006C102.326 418.014 102.249 418.712 103.102 419.41C103.954 420.107 104.807 419.875 105.737 419.797L107.365 419.565C112.016 419.72 116.667 419.72 121.319 419.642C121.567 419.625 121.807 419.545 122.016 419.41H145.427C148.116 419.949 150.834 420.337 153.567 420.572C157.675 420.805 161.784 419.72 163.722 415.766C165.66 411.813 165.04 405.921 164.962 401.425C164.885 400.34 164.885 399.332 164.885 398.324L172.404 371.89C176.125 364.836 179.226 357.471 180.621 349.565C181.086 347.084 181.319 344.603 181.939 342.2C182.559 339.797 183.799 338.092 184.574 335.921C185.171 333.871 185.171 331.693 184.574 329.642Z" fill="#090909"/>
<path d="M403.256 436.154C402.847 436.148 402.457 435.981 402.171 435.689C401.24 434.728 400.117 433.976 398.874 433.481C397.631 432.987 396.298 432.761 394.961 432.82C392.657 433.009 390.491 433.996 388.837 435.611C388.705 435.766 388.542 435.893 388.358 435.982C388.174 436.07 387.973 436.12 387.769 436.127C387.565 436.135 387.362 436.099 387.172 436.024C386.982 435.948 386.81 435.834 386.667 435.689C386.372 435.409 386.199 435.025 386.185 434.619C386.17 434.213 386.315 433.818 386.589 433.518C388.765 431.281 391.692 429.927 394.806 429.72C396.583 429.668 398.351 429.978 400.003 430.631C401.656 431.284 403.158 432.266 404.419 433.518C404.693 433.818 404.838 434.213 404.824 434.619C404.809 435.025 404.636 435.409 404.341 435.689C404.209 435.845 404.042 435.969 403.854 436.05C403.665 436.13 403.461 436.166 403.256 436.154Z" fill="#F5F3F0"/>
<path d="M393.411 428.944C393.017 428.933 392.637 428.798 392.326 428.557C392.037 428.254 391.875 427.851 391.875 427.433C391.875 427.014 392.037 426.612 392.326 426.309L397.132 421.58C397.431 421.356 397.8 421.247 398.172 421.274C398.544 421.3 398.895 421.46 399.159 421.724C399.422 421.988 399.582 422.338 399.609 422.71C399.635 423.083 399.527 423.452 399.303 423.751L394.496 428.557C394.185 428.798 393.805 428.933 393.411 428.944Z" fill="#F5F3F0"/>
<path d="M392.48 425.146C392.204 425.152 391.933 425.071 391.705 424.914C391.347 424.717 391.08 424.387 390.964 423.995C390.848 423.603 390.891 423.181 391.085 422.821L394.961 416.154C395.158 415.796 395.488 415.529 395.88 415.413C396.272 415.297 396.694 415.341 397.054 415.534C397.235 415.638 397.394 415.777 397.52 415.944C397.646 416.11 397.737 416.301 397.788 416.504C397.839 416.706 397.848 416.917 397.815 417.124C397.782 417.33 397.708 417.528 397.597 417.705L393.798 424.371C393.67 424.609 393.48 424.807 393.248 424.943C393.015 425.08 392.75 425.15 392.48 425.146Z" fill="#F5F3F0"/>
<path d="M258.682 429.952C258.526 429.96 258.371 429.937 258.224 429.884C258.078 429.83 257.944 429.748 257.829 429.642L249.225 423.906C248.893 423.684 248.659 423.342 248.572 422.952C248.485 422.562 248.553 422.154 248.76 421.813C248.995 421.475 249.351 421.239 249.753 421.153C250.156 421.066 250.577 421.136 250.93 421.347L259.535 427.084C259.704 427.2 259.848 427.349 259.959 427.521C260.07 427.694 260.146 427.886 260.182 428.088C260.218 428.29 260.213 428.497 260.169 428.697C260.124 428.897 260.041 429.087 259.922 429.254C259.797 429.471 259.616 429.65 259.398 429.773C259.18 429.896 258.932 429.958 258.682 429.952Z" fill="#F5F3F0"/>
<path d="M265.35 427.084C265.074 427.08 264.806 427 264.574 426.851L255.97 422.123C255.619 421.899 255.367 421.549 255.266 421.145C255.165 420.742 255.223 420.315 255.427 419.952C255.523 419.773 255.655 419.616 255.815 419.491C255.974 419.365 256.158 419.274 256.355 419.223C256.551 419.172 256.756 419.162 256.957 419.194C257.157 419.227 257.349 419.3 257.52 419.409L266.125 424.138C266.45 424.294 266.712 424.558 266.863 424.885C267.015 425.213 267.048 425.583 266.956 425.932C266.864 426.281 266.653 426.587 266.36 426.797C266.067 427.007 265.71 427.109 265.35 427.084Z" fill="#F5F3F0"/>
<path d="M101.007 344.914H100.62C100.229 344.804 99.8927 344.553 99.6776 344.209C99.4625 343.864 99.3837 343.452 99.4567 343.053L115.736 265.689C115.811 265.29 116.04 264.936 116.374 264.704C116.707 264.472 117.118 264.38 117.519 264.448C117.924 264.542 118.278 264.786 118.509 265.132C118.739 265.478 118.829 265.899 118.759 266.309L102.48 343.751C102.395 344.079 102.205 344.37 101.939 344.58C101.673 344.79 101.346 344.907 101.007 344.914Z" fill="#F5F3F0"/>
<path d="M170.775 331.503C170.458 331.497 170.15 331.398 169.888 331.219C169.627 331.04 169.423 330.788 169.302 330.495L144.419 265.534C144.265 265.143 144.272 264.707 144.439 264.322C144.606 263.937 144.92 263.634 145.31 263.48C145.701 263.325 146.137 263.333 146.522 263.5C146.907 263.667 147.21 263.981 147.364 264.371L172.171 329.41C172.324 329.79 172.32 330.216 172.161 330.594C172.001 330.972 171.698 331.271 171.318 331.425L170.775 331.503Z" fill="#F5F3F0"/>
<path d="M95.6585 277.471C92.9995 277.452 90.3686 276.925 87.9065 275.921C87.535 275.736 87.2479 275.417 87.1038 275.028C86.9597 274.639 86.9696 274.21 87.1313 273.828C87.222 273.644 87.3483 273.48 87.5029 273.345C87.6575 273.21 87.8374 273.107 88.0321 273.042C88.2268 272.977 88.4324 272.951 88.6371 272.966C88.8418 272.982 89.0414 273.037 89.2244 273.13C89.5344 273.285 96.5887 276.464 103.023 272.278C104.597 271.178 105.937 269.775 106.962 268.151C107.987 266.527 108.677 264.715 108.992 262.82C109.02 262.616 109.089 262.419 109.195 262.241C109.3 262.064 109.44 261.909 109.606 261.786C109.772 261.663 109.961 261.575 110.162 261.526C110.362 261.478 110.571 261.469 110.775 261.502C111.179 261.578 111.54 261.804 111.784 262.135C112.029 262.466 112.139 262.877 112.093 263.285C111.783 265.068 110.387 271.115 104.728 274.836C102.03 276.587 98.8751 277.504 95.6585 277.471Z" fill="#F5F3F0"/>
<path d="M294.961 224.604C292.275 224.623 289.649 223.81 287.442 222.278C278.992 216.387 281.628 202.201 282.016 200.65C282.417 198.529 283.094 196.47 284.031 194.526C284.229 194.195 284.542 193.95 284.911 193.838C285.279 193.725 285.676 193.754 286.025 193.919C286.373 194.083 286.647 194.372 286.795 194.728C286.942 195.083 286.952 195.481 286.822 195.844C286.032 197.582 285.434 199.402 285.039 201.27C284.884 201.813 282.248 214.914 289.148 219.72C291.326 221.2 293.992 221.783 296.589 221.348C298.457 221.045 300.188 220.179 301.551 218.867C301.88 218.615 302.29 218.492 302.704 218.521C303.118 218.549 303.507 218.728 303.799 219.022C303.94 219.171 304.048 219.347 304.117 219.54C304.187 219.733 304.215 219.938 304.2 220.142C304.185 220.346 304.128 220.545 304.033 220.726C303.937 220.907 303.804 221.066 303.644 221.193C301.824 222.872 299.567 224 297.132 224.449L294.961 224.604Z" fill="#090909"/>
<path d="M298.76 241.657C296.558 241.655 294.444 240.792 292.868 239.254C289.69 235.844 290.93 228.092 295.659 221.968C295.917 221.655 296.283 221.45 296.684 221.392C297.086 221.335 297.494 221.429 297.83 221.657C298.159 221.904 298.376 222.272 298.434 222.679C298.492 223.086 298.386 223.499 298.14 223.828C294.109 229.022 293.256 235.146 295.194 237.161C296.17 238.051 297.44 238.548 298.76 238.557C302.713 238.479 305.504 233.44 306.977 230.727C308.45 228.014 310.465 224.603 309.69 220.34C309.558 219.394 309.27 218.477 308.837 217.626C308.215 216.312 307.847 214.892 307.752 213.44C307.597 210.805 308.217 209.875 309.148 208.789C309.44 208.499 309.677 208.158 309.845 207.782C310.069 207.431 310.419 207.179 310.822 207.078C311.226 206.977 311.653 207.035 312.016 207.239C312.195 207.335 312.352 207.467 312.477 207.627C312.603 207.786 312.694 207.97 312.745 208.167C312.795 208.363 312.805 208.568 312.773 208.769C312.741 208.969 312.668 209.161 312.558 209.332C312.268 209.872 311.902 210.367 311.473 210.805C311.008 211.425 310.775 211.658 310.853 213.285C310.941 214.388 311.23 215.465 311.706 216.464C312.194 217.529 312.558 218.648 312.791 219.797C313.721 225.146 311.241 229.564 309.69 232.278C308.14 234.991 304.496 241.58 298.837 241.657H298.76Z" fill="#090909"/>
<path d="M257.674 243.596C257.418 243.586 257.169 243.509 256.951 243.373C256.734 243.237 256.555 243.046 256.434 242.82C256.321 242.654 256.244 242.467 256.206 242.27C256.168 242.072 256.171 241.869 256.215 241.673C256.258 241.477 256.342 241.292 256.459 241.13C256.577 240.967 256.727 240.83 256.899 240.727C262.015 237.472 268.992 234.061 275.194 231.037L276.279 230.572C282.636 227.471 289.225 224.216 294.961 224.216C295.372 224.216 295.767 224.379 296.057 224.67C296.348 224.961 296.512 225.355 296.512 225.766C296.512 226.177 296.348 226.572 296.057 226.862C295.767 227.153 295.372 227.316 294.961 227.316C289.922 227.316 283.721 230.34 277.674 233.285L276.512 233.828C270.465 236.851 263.566 240.185 258.527 243.363C258.271 243.522 257.975 243.602 257.674 243.596Z" fill="#090909"/>
<path d="M281.009 277.239C276.202 277.239 271.784 275.611 267.675 274.061C256.202 269.72 249.303 262.2 244.032 255.379C243.785 255.05 243.679 254.636 243.737 254.229C243.795 253.822 244.013 253.455 244.342 253.208C244.671 252.961 245.084 252.855 245.491 252.914C245.898 252.972 246.266 253.189 246.512 253.518C249.768 257.704 256.59 266.541 268.76 271.192C274.497 273.363 280.466 275.534 286.745 273.053C294.187 270.185 297.288 262.743 298.295 259.72C298.444 259.361 298.721 259.071 299.073 258.908C299.424 258.744 299.825 258.718 300.195 258.834C300.565 258.951 300.877 259.202 301.071 259.539C301.265 259.875 301.325 260.271 301.241 260.65C300.078 264.138 296.512 272.51 287.908 275.921C285.722 276.828 283.374 277.277 281.009 277.239Z" fill="#090909"/>
<path d="M280.62 277.007C280.235 277.009 279.862 276.867 279.575 276.609C279.289 276.351 279.109 275.996 279.07 275.612C278.682 271.736 278.372 266.542 278.14 261.193C277.907 255.844 277.907 248.945 278.14 242.899C278.16 242.487 278.343 242.101 278.649 241.825C278.954 241.549 279.356 241.405 279.768 241.426C280.179 241.446 280.565 241.629 280.841 241.935C281.117 242.24 281.261 242.642 281.241 243.054C281.008 249.023 281.008 255.069 281.241 261.038C281.473 267.007 281.783 271.503 282.171 275.302C282.192 275.505 282.173 275.711 282.114 275.908C282.056 276.104 281.959 276.287 281.829 276.445C281.699 276.604 281.539 276.735 281.358 276.832C281.178 276.928 280.979 276.988 280.775 277.007H280.62Z" fill="#090909"/>
<path d="M294.031 270.727C297.21 272.82 301.318 275.068 304.574 277.394C309.845 281.192 315.892 285.068 320.775 288.867" fill="#F5F3F0"/>
<path d="M320.776 290.418C320.444 290.396 320.124 290.289 319.845 290.108C316.9 287.782 313.411 285.379 310 283.053L303.644 278.635C301.938 277.395 299.845 276.154 297.907 274.914C296.282 274.013 294.704 273.03 293.179 271.968C292.981 271.871 292.806 271.732 292.666 271.562C292.526 271.391 292.424 271.193 292.367 270.98C292.309 270.767 292.298 270.544 292.334 270.326C292.37 270.109 292.451 269.901 292.574 269.717C292.696 269.534 292.856 269.379 293.044 269.262C293.231 269.145 293.441 269.07 293.659 269.041C293.878 269.011 294.1 269.029 294.312 269.093C294.523 269.157 294.718 269.265 294.884 269.41L299.458 272.278C301.551 273.519 303.644 274.836 305.427 276.154L311.783 280.495C315.194 282.821 318.683 285.224 321.706 287.627C322.035 287.874 322.252 288.241 322.31 288.648C322.369 289.055 322.263 289.469 322.016 289.798C321.868 289.986 321.68 290.139 321.465 290.246C321.251 290.354 321.015 290.412 320.776 290.418Z" fill="#090909"/>
<path d="M261.55 248.324C261.117 248.322 260.702 248.156 260.387 247.859C258.53 245.75 256.845 243.494 255.348 241.115L253.798 238.79C250.077 233.363 246.201 228.014 242.558 224.991C242.375 224.869 242.221 224.709 242.105 224.522C241.989 224.336 241.914 224.127 241.885 223.909C241.856 223.691 241.874 223.47 241.937 223.26C242 223.049 242.107 222.854 242.25 222.688C242.394 222.523 242.572 222.389 242.771 222.297C242.97 222.205 243.187 222.156 243.407 222.154C243.626 222.151 243.844 222.196 244.045 222.284C244.246 222.372 244.426 222.502 244.573 222.665C248.449 225.844 252.558 231.425 256.356 237.007L257.984 239.41C259.339 241.641 260.896 243.743 262.635 245.689C262.924 245.992 263.086 246.394 263.086 246.813C263.086 247.231 262.924 247.634 262.635 247.937C262.324 248.178 261.944 248.313 261.55 248.324Z" fill="#090909"/>
<path d="M333.101 305.844H302.636C302.225 305.844 301.831 305.68 301.54 305.39C301.249 305.099 301.086 304.705 301.086 304.293C301.086 303.882 301.249 303.488 301.54 303.197C301.831 302.906 302.225 302.743 302.636 302.743H329.07C335.815 302.898 338.683 302.976 341.939 300.96C345.194 298.945 344.574 295.069 342.171 278.634C341.861 276.231 341.474 273.363 341.008 270.262C340.233 264.526 339.38 258.092 338.373 251.89C338.34 251.686 338.348 251.478 338.397 251.277C338.445 251.077 338.534 250.888 338.657 250.721C338.779 250.555 338.934 250.415 339.112 250.31C339.289 250.205 339.486 250.136 339.691 250.107C339.89 250.075 340.094 250.083 340.29 250.133C340.486 250.182 340.67 250.272 340.83 250.395C340.99 250.519 341.123 250.674 341.22 250.851C341.318 251.028 341.377 251.224 341.396 251.425C342.404 257.627 343.334 264.138 344.109 269.797C344.497 272.898 344.884 275.766 345.272 278.169C347.675 294.836 348.14 300.882 343.567 303.673C340.388 305.456 337.52 305.844 333.101 305.844Z" fill="#090909"/>
<path d="M279.691 267.472C279.487 267.478 279.284 267.44 279.096 267.359C278.909 267.279 278.741 267.158 278.605 267.006L260.388 247.859C260.114 247.559 259.969 247.164 259.983 246.758C259.998 246.352 260.171 245.968 260.466 245.689C260.609 245.543 260.781 245.429 260.971 245.353C261.161 245.278 261.364 245.242 261.568 245.25C261.772 245.257 261.973 245.307 262.156 245.396C262.34 245.484 262.504 245.611 262.636 245.766L280.853 264.836C281.127 265.136 281.273 265.531 281.258 265.937C281.244 266.343 281.07 266.727 280.776 267.006C280.49 267.298 280.1 267.466 279.691 267.472Z" fill="#090909"/>
<path d="M145.426 178.324H138.759L140.62 168.945H142.558L145.426 178.324Z" fill="#80A5AE"/>
<path d="M423.023 440.418C422.734 440.42 422.451 440.341 422.204 440.19C421.957 440.039 421.758 439.823 421.628 439.565C421.466 439.183 421.456 438.753 421.6 438.364C421.744 437.975 422.032 437.656 422.403 437.472L450.155 425.069C450.509 424.981 450.882 425.02 451.21 425.18C451.538 425.34 451.799 425.61 451.947 425.943C452.095 426.277 452.121 426.651 452.02 427.002C451.919 427.352 451.698 427.656 451.395 427.859L423.643 440.34L423.023 440.418Z" fill="#090909"/>
<path d="M427.83 428.014C427.494 428.02 427.165 427.911 426.9 427.704C426.728 427.589 426.582 427.439 426.472 427.264C426.362 427.089 426.29 426.893 426.26 426.688C426.231 426.483 426.245 426.275 426.302 426.076C426.359 425.877 426.457 425.692 426.59 425.533L439.923 407.394C440.17 407.065 440.537 406.848 440.944 406.789C441.351 406.731 441.765 406.837 442.094 407.084C442.262 407.2 442.407 407.349 442.518 407.521C442.629 407.694 442.704 407.886 442.741 408.088C442.777 408.29 442.772 408.497 442.728 408.697C442.683 408.897 442.599 409.087 442.481 409.254L429.07 427.394C428.922 427.582 428.734 427.735 428.52 427.843C428.305 427.95 428.07 428.008 427.83 428.014Z" fill="#090909"/>
<path d="M149.767 160.417H147.752C147.552 160.418 147.354 160.377 147.17 160.298C146.986 160.219 146.82 160.104 146.682 159.959C146.544 159.814 146.437 159.642 146.368 159.454C146.299 159.267 146.268 159.067 146.279 158.867C146.279 158.456 146.442 158.061 146.733 157.771C147.024 157.48 147.418 157.316 147.829 157.316C158.956 157.502 170.059 156.225 180.853 153.518C212.17 145.766 235.194 125.921 246.124 114.758C246.257 114.581 246.427 114.434 246.622 114.327C246.817 114.221 247.033 114.158 247.254 114.142C247.476 114.126 247.698 114.158 247.906 114.236C248.114 114.314 248.303 114.435 248.46 114.592C248.618 114.749 248.739 114.938 248.817 115.146C248.894 115.355 248.926 115.577 248.911 115.798C248.895 116.02 248.832 116.236 248.725 116.431C248.619 116.626 248.472 116.796 248.294 116.929C237.132 128.324 213.721 148.557 181.628 156.541C171.209 159.15 160.507 160.452 149.767 160.417Z" fill="#090909"/>
<path d="M168.295 197.782H164.962C164.754 197.783 164.549 197.74 164.36 197.657C164.17 197.573 164 197.451 163.861 197.297C163.722 197.143 163.617 196.962 163.553 196.765C163.489 196.568 163.467 196.36 163.489 196.154C163.488 195.954 163.529 195.756 163.608 195.572C163.687 195.388 163.802 195.222 163.947 195.084C164.092 194.946 164.264 194.839 164.452 194.77C164.639 194.701 164.839 194.67 165.039 194.681C172.297 194.923 179.557 194.298 186.667 192.821C214.496 186.852 233.411 167.859 242.171 157.007C242.429 156.69 242.802 156.487 243.208 156.444C243.615 156.4 244.022 156.519 244.341 156.774C244.658 157.032 244.861 157.405 244.904 157.811C244.948 158.218 244.829 158.625 244.574 158.945C235.504 170.107 216.047 189.642 187.287 195.844C181.041 197.152 174.676 197.801 168.295 197.782Z" fill="#090909"/>
<path d="M161.163 226.387H160.93C160.531 226.311 160.178 226.082 159.946 225.749C159.714 225.415 159.622 225.004 159.69 224.604C161.201 217.115 162.134 209.522 162.481 201.89C162.713 196.852 162.713 191.735 162.481 186.774C162.47 186.57 162.5 186.367 162.568 186.175C162.637 185.983 162.742 185.806 162.879 185.655C163.016 185.503 163.181 185.381 163.366 185.293C163.55 185.206 163.75 185.156 163.953 185.146C164.159 185.124 164.368 185.146 164.565 185.21C164.762 185.275 164.943 185.38 165.097 185.519C165.25 185.658 165.373 185.828 165.456 186.017C165.54 186.207 165.582 186.412 165.581 186.619C165.814 191.735 165.814 196.929 165.581 202.045C165.224 209.834 164.266 217.583 162.713 225.224C162.625 225.565 162.424 225.866 162.142 226.077C161.86 226.289 161.515 226.398 161.163 226.387Z" fill="#090909"/>
<path d="M135.891 157.627C133.872 157.616 131.873 157.221 130 156.464C129.815 156.396 129.645 156.291 129.501 156.155C129.358 156.02 129.242 155.857 129.163 155.676C129.083 155.495 129.041 155.3 129.038 155.103C129.036 154.905 129.073 154.709 129.147 154.526C129.216 154.331 129.324 154.152 129.463 153.999C129.603 153.847 129.771 153.723 129.959 153.636C130.147 153.55 130.35 153.502 130.557 153.495C130.764 153.488 130.97 153.522 131.163 153.596C133.053 154.364 135.102 154.657 137.132 154.449C143.023 153.829 146.512 149.022 147.442 147.55C151.473 141.116 149.147 130.65 141.86 122.666C141.583 122.358 141.439 121.952 141.461 121.537C141.483 121.123 141.668 120.734 141.977 120.457C142.285 120.179 142.691 120.035 143.105 120.057C143.52 120.079 143.909 120.265 144.186 120.573C152.481 129.72 154.961 141.503 150.078 149.178C148.992 150.96 144.729 156.774 137.442 157.55L135.891 157.627Z" fill="#090909"/>
<path d="M141.085 169.952C140.749 169.958 140.42 169.849 140.155 169.642L121.007 154.371C120.69 154.113 120.488 153.74 120.444 153.333C120.401 152.927 120.52 152.52 120.775 152.2C121.033 151.883 121.406 151.681 121.812 151.637C122.219 151.594 122.626 151.712 122.945 151.968L142.093 167.239C142.259 167.36 142.398 167.515 142.501 167.693C142.604 167.871 142.668 168.068 142.69 168.273C142.712 168.477 142.691 168.684 142.628 168.88C142.565 169.075 142.462 169.256 142.325 169.41C142.173 169.588 141.982 169.729 141.767 169.823C141.553 169.917 141.319 169.961 141.085 169.952Z" fill="#090909"/>
<path d="M142.093 169.952C141.8 169.975 141.506 169.921 141.24 169.797C140.902 169.561 140.666 169.206 140.58 168.803C140.494 168.401 140.563 167.98 140.775 167.627L146.511 158.092C146.607 157.913 146.739 157.756 146.899 157.63C147.059 157.505 147.243 157.414 147.439 157.363C147.636 157.312 147.841 157.302 148.041 157.334C148.242 157.366 148.433 157.439 148.604 157.549C148.95 157.759 149.199 158.095 149.301 158.485C149.402 158.876 149.347 159.291 149.147 159.642L143.411 169.255C143.267 169.472 143.071 169.65 142.841 169.772C142.611 169.894 142.353 169.956 142.093 169.952Z" fill="#090909"/>
<path d="M147.829 160.418C147.59 160.412 147.354 160.354 147.14 160.246C146.925 160.139 146.737 159.986 146.589 159.798L146.434 159.642C145.544 158.709 144.857 157.6 144.418 156.387C144.062 154.883 144.062 153.317 144.418 151.813C144.463 151.616 144.548 151.43 144.667 151.267C144.787 151.105 144.938 150.968 145.113 150.866C145.287 150.764 145.481 150.7 145.682 150.676C145.882 150.652 146.085 150.67 146.279 150.728C146.476 150.772 146.662 150.857 146.825 150.977C146.988 151.096 147.124 151.248 147.226 151.422C147.328 151.597 147.393 151.79 147.416 151.991C147.44 152.191 147.422 152.395 147.364 152.588C147.057 153.489 147.033 154.463 147.296 155.378C147.56 156.293 148.097 157.105 148.837 157.705L149.07 157.937C149.316 158.266 149.422 158.68 149.364 159.087C149.306 159.494 149.089 159.861 148.76 160.108C148.494 160.314 148.166 160.424 147.829 160.418Z" fill="#090909"/>
<path d="M146.822 174.759H146.357C145.978 174.618 145.666 174.342 145.48 173.984C145.293 173.626 145.247 173.211 145.349 172.821L150.155 158.48C150.304 158.121 150.581 157.832 150.933 157.668C151.284 157.504 151.684 157.478 152.054 157.594C152.424 157.711 152.737 157.963 152.931 158.299C153.125 158.635 153.185 159.031 153.101 159.41L148.295 173.751C148.206 174.065 148.009 174.337 147.74 174.521C147.471 174.705 147.146 174.789 146.822 174.759Z" fill="#090909"/>
<path d="M134.419 175.689C134.195 175.698 133.973 175.654 133.771 175.559C133.569 175.465 133.392 175.323 133.256 175.147C133.115 174.998 133.006 174.822 132.937 174.629C132.868 174.436 132.84 174.231 132.854 174.027C132.869 173.823 132.926 173.624 133.022 173.443C133.118 173.262 133.25 173.103 133.411 172.976L140.077 167.24C140.392 167.029 140.772 166.94 141.147 166.99C141.522 167.04 141.866 167.225 142.113 167.511C142.361 167.797 142.496 168.164 142.492 168.542C142.488 168.92 142.346 169.284 142.093 169.565L135.426 175.302C135.292 175.43 135.134 175.53 134.961 175.597C134.788 175.663 134.604 175.695 134.419 175.689Z" fill="#090909"/>
<path d="M146.822 174.758C146.413 174.752 146.023 174.585 145.737 174.293L141.008 169.564C140.719 169.262 140.558 168.859 140.558 168.44C140.558 168.022 140.719 167.619 141.008 167.316C141.146 167.166 141.314 167.046 141.5 166.964C141.687 166.882 141.889 166.839 142.093 166.839C142.297 166.839 142.499 166.882 142.686 166.964C142.873 167.046 143.041 167.166 143.179 167.316L147.985 172.123C148.252 172.421 148.399 172.807 148.399 173.208C148.399 173.608 148.252 173.995 147.985 174.293C147.67 174.59 147.254 174.756 146.822 174.758Z" fill="#090909"/>
<path d="M122.015 153.131C121.085 156.697 118.682 157.084 113.41 160.805C113.41 160.805 111.472 161.736 101.007 170.34C90.5421 178.945 89.6894 198.557 89.5343 202.821C88.6816 226.387 103.333 255.224 126.744 263.053C126.744 263.053 147.209 269.875 186.046 255.379L189.534 254.216L191.782 253.519C196.511 252.123 201.782 251.581 207.054 248.712C210.542 246.852 210.93 245.612 210.852 244.914C210.775 244.216 209.457 242.433 207.131 242.433C206.666 242.433 210.697 241.193 210.852 241.038C211.237 240.848 211.56 240.552 211.782 240.185H211.86C212.01 239.884 212.088 239.553 212.088 239.216C212.088 238.88 212.01 238.548 211.86 238.247C211.472 237.627 210.852 237.705 210.852 237.317C210.852 236.929 206.356 237.86 211.86 236.387C212.558 236.154 212.635 235.689 212.79 235.379C212.961 235.099 213.052 234.777 213.052 234.449C213.052 234.12 212.961 233.799 212.79 233.519C212.635 233.305 212.419 233.143 212.17 233.053C211.472 232.666 211.162 232.821 210.852 232.511C210.542 232.201 206.744 231.425 207.131 230.883C207.519 230.34 211.782 230.34 212.79 229.643C213.287 229.378 213.661 228.931 213.835 228.396C214.008 227.861 213.967 227.28 213.72 226.774C213.1 224.914 209.379 224.294 207.054 223.906C204.195 223.575 201.308 223.575 198.449 223.906C196.046 224.216 194.728 224.371 193.643 223.906C192.558 223.441 191.55 222.046 191.782 221.038C192.015 220.03 193.1 220.263 193.643 219.177C193.895 218.741 194.027 218.247 194.027 217.743C194.027 217.24 193.895 216.745 193.643 216.309C192.325 214.526 186.434 216.774 185.116 217.239C168.914 223.363 154.651 228.712 146.821 226.774C141.162 225.379 134.263 218.945 129.612 196.232" fill="#F5F3F0"/>
<path d="M141.008 266.231C131.705 266.231 126.744 264.681 126.279 264.526C101.55 256.231 87.1318 225.999 87.9845 202.82V202.51C88.6822 182.51 94.8838 173.286 100 169.177C109.302 161.58 111.938 159.797 112.558 159.487L116.279 157.084C119.147 155.301 120 154.681 120.465 152.743C120.591 152.35 120.861 152.02 121.22 151.818C121.58 151.617 122.003 151.56 122.403 151.658C122.6 151.702 122.786 151.787 122.949 151.906C123.112 152.026 123.248 152.178 123.35 152.352C123.452 152.527 123.517 152.72 123.541 152.921C123.564 153.121 123.547 153.325 123.488 153.518C122.713 156.696 120.775 157.937 117.907 159.72C116.899 160.34 115.659 161.038 114.264 162.045L114.109 162.2C114.031 162.2 111.938 163.363 101.938 171.58C97.3644 175.301 91.7055 183.751 91.0853 202.665V202.898C90.2326 225.069 103.876 253.751 127.287 261.58C127.442 261.658 147.752 268.014 185.504 253.983L189.07 252.665L191.318 251.968L195.814 250.882C199.225 250.107 202.791 249.255 206.357 247.317C209.923 245.379 209.302 244.991 209.302 244.991C209.302 244.991 208.682 243.983 207.132 243.983H205.814L205.581 242.665C205.349 241.27 206.047 241.038 208.992 240.107L210.155 239.72L210.465 239.332C210.543 239.255 210.543 239.022 210.465 239.022H210.388L210.155 238.867H210.078C209.302 238.867 207.829 238.944 207.597 237.549C207.364 236.154 208.527 235.689 211.318 234.914L211.473 234.681V234.448L211.008 234.293C210.644 234.207 210.301 234.049 210 233.828L208.915 233.441C207.132 232.898 205.969 232.588 205.659 231.503C205.564 231.246 205.536 230.969 205.576 230.698C205.617 230.427 205.725 230.17 205.891 229.952C206.512 229.177 207.519 229.022 209.457 228.789C210.293 228.729 211.123 228.599 211.938 228.402C212.093 228.247 212.326 228.092 212.326 228.014C212.326 227.937 212.481 227.782 212.326 227.317C212.171 226.851 208.062 225.689 206.822 225.456C204.118 225.131 201.386 225.131 198.682 225.456C196.047 225.844 194.496 225.999 193.023 225.379C191.55 224.758 189.767 222.51 190.233 220.727C190.491 219.931 191.046 219.265 191.783 218.867C192.093 218.712 192.248 218.634 192.326 218.402C192.52 218.047 192.575 217.632 192.481 217.239C192.171 217.162 190.698 216.774 185.659 218.712C169.07 224.913 154.729 230.34 146.512 228.324C138.295 226.309 132.093 215.844 128.14 196.541C128.067 196.142 128.145 195.73 128.36 195.386C128.576 195.042 128.912 194.79 129.302 194.681C129.712 194.611 130.133 194.701 130.479 194.931C130.825 195.162 131.07 195.516 131.163 195.921C134.806 213.673 140.233 223.596 147.209 225.301C154.186 227.007 169.07 221.58 184.496 215.766C190.31 213.596 193.566 213.518 194.961 215.379C195.353 216.06 195.566 216.83 195.579 217.617C195.593 218.403 195.407 219.18 195.039 219.875C194.67 220.567 194.103 221.133 193.411 221.503H193.333C193.572 221.904 193.922 222.227 194.341 222.433C194.961 222.743 196.202 222.588 198.295 222.355C201.278 221.94 204.304 221.94 207.287 222.355C210.078 222.743 214.264 223.441 215.194 226.231C215.405 226.723 215.507 227.255 215.494 227.79C215.48 228.325 215.351 228.851 215.116 229.332C214.796 229.987 214.281 230.529 213.643 230.882C213.299 231.129 212.9 231.288 212.481 231.348L212.946 231.658C213.388 231.821 213.768 232.119 214.031 232.51C214.399 233.029 214.603 233.646 214.617 234.281C214.631 234.917 214.454 235.542 214.109 236.076C213.927 236.594 213.605 237.05 213.178 237.394C213.484 237.924 213.646 238.526 213.646 239.138C213.646 239.751 213.484 240.352 213.178 240.882V241.037C212.85 241.528 212.429 241.95 211.938 242.278C211.783 242.433 211.628 242.433 211.473 242.51C212.04 243.133 212.393 243.921 212.481 244.758C212.713 247.162 209.923 248.944 207.907 250.107C203.954 252.2 200.233 253.053 196.589 253.906L192.248 254.991L190.078 255.689L186.667 256.851C166.434 264.371 151.163 266.231 141.008 266.231Z" fill="#090909"/>
<path d="M134.419 175.689C134.025 175.678 133.645 175.542 133.333 175.301L117.054 159.022C116.787 158.724 116.64 158.337 116.64 157.937C116.64 157.537 116.787 157.15 117.054 156.852C117.357 156.563 117.76 156.401 118.178 156.401C118.597 156.401 118.999 156.563 119.302 156.852L135.504 173.053C135.793 173.356 135.954 173.759 135.954 174.177C135.954 174.596 135.793 174.999 135.504 175.301C135.192 175.542 134.812 175.678 134.419 175.689Z" fill="#090909"/>
<path d="M122.015 154.681C121.63 154.683 121.257 154.541 120.971 154.283C120.684 154.025 120.504 153.669 120.465 153.286L119.535 143.751C119.513 143.547 119.533 143.341 119.591 143.145C119.65 142.948 119.747 142.766 119.877 142.607C120.007 142.448 120.166 142.317 120.347 142.221C120.528 142.124 120.726 142.065 120.93 142.045C121.13 142.024 121.332 142.044 121.524 142.103C121.715 142.163 121.893 142.261 122.045 142.391C122.198 142.522 122.322 142.683 122.41 142.863C122.498 143.043 122.549 143.24 122.558 143.441L123.566 152.975C123.587 153.179 123.568 153.385 123.509 153.582C123.451 153.778 123.354 153.961 123.224 154.119C123.094 154.278 122.934 154.409 122.753 154.505C122.573 154.602 122.374 154.662 122.171 154.681H122.015Z" fill="#090909"/>
<path d="M90.4653 254.061H90.3878C90.1806 254.062 89.9755 254.02 89.7859 253.936C89.5963 253.853 89.4264 253.73 89.2874 253.576C89.1484 253.423 89.0434 253.241 88.9792 253.044C88.915 252.847 88.8931 252.639 88.9149 252.433L90.8529 223.751C90.8623 223.55 90.9127 223.354 91.0009 223.174C91.089 222.993 91.2132 222.833 91.3656 222.702C91.5181 222.571 91.6957 222.473 91.8874 222.414C92.0792 222.354 92.2812 222.334 92.4808 222.356C92.6845 222.366 92.8842 222.416 93.0685 222.503C93.2529 222.59 93.4182 222.713 93.555 222.864C93.6918 223.015 93.7975 223.192 93.8659 223.384C93.9343 223.576 93.9641 223.78 93.9537 223.984L92.0157 252.666C91.9771 253.049 91.7969 253.405 91.5102 253.663C91.2235 253.921 90.851 254.063 90.4653 254.061Z" fill="#090909"/>
<path d="M184.109 447.162C183.829 447.168 183.553 447.09 183.318 446.938C183.083 446.786 182.9 446.567 182.791 446.309C182.684 446.134 182.615 445.937 182.588 445.734C182.562 445.53 182.578 445.322 182.637 445.125C182.695 444.928 182.794 444.745 182.928 444.589C183.061 444.432 183.226 444.305 183.411 444.216L206.357 431.813C206.717 431.62 207.139 431.576 207.531 431.692C207.923 431.809 208.253 432.075 208.45 432.433C208.624 432.797 208.657 433.212 208.542 433.599C208.428 433.986 208.174 434.316 207.83 434.526L184.884 446.929C184.652 447.078 184.384 447.158 184.109 447.162Z" fill="#090909"/>
<path d="M209.922 450.96H191.783C191.372 450.96 190.977 450.796 190.687 450.506C190.396 450.215 190.232 449.82 190.232 449.409C190.232 448.998 190.396 448.604 190.687 448.313C190.977 448.022 191.372 447.859 191.783 447.859H209.922C210.334 447.859 210.728 448.022 211.019 448.313C211.309 448.604 211.473 448.998 211.473 449.409C211.473 449.82 211.309 450.215 211.019 450.506C210.728 450.796 210.334 450.96 209.922 450.96Z" fill="#090909"/>
<path d="M35.0388 447.162H1.55039C1.1392 447.162 0.744851 446.999 0.454097 446.708C0.163343 446.417 0 446.023 0 445.612C0 445.2 0.163343 444.806 0.454097 444.515C0.744851 444.225 1.1392 444.061 1.55039 444.061H35.0388C35.4499 444.061 35.8443 444.225 36.135 444.515C36.4258 444.806 36.5891 445.2 36.5891 445.612C36.5891 446.023 36.4258 446.417 36.135 446.708C35.8443 446.999 35.4499 447.162 35.0388 447.162Z" fill="#090909"/>
<path d="M24.1865 439.72C23.9434 439.743 23.6993 439.689 23.4888 439.565L2.48103 429.1C2.29779 429.009 2.13439 428.882 2.00016 428.727C1.86593 428.572 1.7635 428.393 1.69871 428.198C1.63393 428.004 1.60805 427.799 1.62258 427.594C1.6371 427.39 1.69173 427.19 1.78335 427.007C1.87497 426.824 2.00178 426.661 2.15655 426.526C2.31132 426.392 2.49101 426.29 2.68537 426.225C2.87972 426.16 3.08494 426.134 3.28929 426.149C3.49364 426.163 3.69314 426.218 3.87638 426.309L24.8841 436.775C25.0683 436.865 25.2326 436.992 25.3675 437.146C25.5025 437.301 25.6054 437.481 25.6703 437.675C25.7352 437.87 25.7608 438.076 25.7456 438.28C25.7304 438.485 25.6747 438.685 25.5818 438.868C25.4451 439.12 25.244 439.332 24.999 439.482C24.7539 439.632 24.4736 439.714 24.1865 439.72Z" fill="#090909"/>
<path d="M177.442 260.03C177.056 260.032 176.683 259.89 176.397 259.632C176.11 259.374 175.93 259.019 175.891 258.635L172.093 222.123C172.06 221.924 172.069 221.72 172.118 221.524C172.168 221.328 172.257 221.144 172.381 220.984C172.504 220.824 172.66 220.691 172.837 220.594C173.014 220.496 173.209 220.437 173.411 220.418C173.614 220.397 173.82 220.416 174.017 220.474C174.213 220.533 174.396 220.63 174.554 220.76C174.713 220.89 174.844 221.05 174.941 221.23C175.037 221.411 175.097 221.609 175.116 221.813L178.992 258.325C179.013 258.529 178.994 258.735 178.935 258.931C178.877 259.127 178.78 259.31 178.65 259.469C178.52 259.627 178.36 259.759 178.18 259.855C177.999 259.951 177.801 260.011 177.597 260.03H177.442Z" fill="#090909"/>
<path d="M155.427 265.533C155.041 265.535 154.668 265.393 154.382 265.135C154.095 264.877 153.915 264.522 153.876 264.138L151.086 227.239C151.064 227.039 151.084 226.837 151.143 226.645C151.203 226.454 151.301 226.276 151.432 226.124C151.562 225.971 151.723 225.847 151.903 225.759C152.084 225.671 152.28 225.62 152.481 225.611C152.685 225.59 152.891 225.609 153.087 225.667C153.283 225.726 153.466 225.823 153.625 225.953C153.783 226.083 153.914 226.243 154.011 226.423C154.107 226.604 154.167 226.802 154.186 227.006L156.977 263.905C156.998 264.105 156.979 264.307 156.919 264.499C156.86 264.691 156.761 264.868 156.631 265.021C156.5 265.173 156.34 265.297 156.159 265.385C155.979 265.474 155.782 265.524 155.582 265.533H155.427Z" fill="#090909"/>
<path d="M169.768 251.115C171.095 251.115 172.171 250.039 172.171 248.712C172.171 247.385 171.095 246.309 169.768 246.309C168.441 246.309 167.365 247.385 167.365 248.712C167.365 250.039 168.441 251.115 169.768 251.115Z" fill="#CBC7DB"/>
<path d="M161.705 180.495H148.294V189.007H161.705V180.495Z" fill="#CBC7DB"/>
<path d="M243.411 159.487C243.062 159.485 242.723 159.371 242.444 159.162C242.165 158.952 241.96 158.659 241.86 158.324L233.721 127.239C233.648 126.84 233.727 126.428 233.942 126.084C234.157 125.739 234.493 125.488 234.884 125.379C235.077 125.321 235.28 125.303 235.481 125.327C235.682 125.35 235.875 125.415 236.05 125.517C236.224 125.619 236.376 125.755 236.495 125.918C236.615 126.081 236.7 126.267 236.744 126.464L244.884 157.549C244.979 157.94 244.919 158.352 244.717 158.699C244.514 159.046 244.185 159.301 243.798 159.41L243.411 159.487Z" fill="#090909"/>
<path d="M227.131 175.689C226.789 175.696 226.455 175.584 226.186 175.372C225.917 175.16 225.73 174.861 225.658 174.526L217.054 139.177C216.953 138.968 216.9 138.739 216.899 138.507C216.898 138.275 216.949 138.046 217.049 137.836C217.149 137.626 217.294 137.442 217.475 137.296C217.655 137.15 217.866 137.046 218.092 136.993C218.318 136.939 218.553 136.937 218.78 136.987C219.006 137.036 219.219 137.136 219.402 137.279C219.585 137.421 219.734 137.603 219.837 137.811C219.941 138.019 219.996 138.247 220 138.479L228.604 173.828C228.7 174.218 228.64 174.631 228.437 174.978C228.235 175.325 227.906 175.58 227.519 175.689H227.131Z" fill="#090909"/>
<path d="M225.194 144.061C226.521 144.061 227.597 142.985 227.597 141.658C227.597 140.331 226.521 139.255 225.194 139.255C223.866 139.255 222.791 140.331 222.791 141.658C222.791 142.985 223.866 144.061 225.194 144.061Z" fill="#CBC7DB"/>
<path d="M308.373 205.224C309.7 205.224 310.776 204.148 310.776 202.821C310.776 201.494 309.7 200.418 308.373 200.418C307.046 200.418 305.97 201.494 305.97 202.821C305.97 204.148 307.046 205.224 308.373 205.224Z" fill="#F5F3F0"/>
<path d="M124.884 142.2C126.211 142.2 127.287 141.124 127.287 139.797C127.287 138.47 126.211 137.394 124.884 137.394C123.557 137.394 122.481 138.47 122.481 139.797C122.481 141.124 123.557 142.2 124.884 142.2Z" fill="#F5F3F0"/>
<path d="M429.535 331.968C427.132 331.968 426.124 328.712 425.659 325.533C422.558 325.146 418.604 324.216 418.604 321.657C418.604 319.099 422.48 318.092 425.504 317.704C425.814 314.448 426.822 310.262 429.535 310.262C432.248 310.262 433.178 314.448 433.488 317.704C436.511 318.092 440.387 319.099 440.387 321.657C440.387 324.216 436.434 325.146 433.333 325.533C432.868 328.712 431.86 331.968 429.535 331.968ZM422.325 321.657C423.884 322.159 425.498 322.471 427.132 322.588H428.449L428.605 323.906C428.652 325.372 428.967 326.817 429.535 328.169C430.028 326.798 430.316 325.361 430.387 323.906L430.542 322.588H431.86C433.494 322.471 435.107 322.159 436.666 321.657C435.149 321.088 433.555 320.748 431.938 320.65H430.542V319.332C430.465 317.516 430.152 315.718 429.612 313.983C428.997 315.702 428.657 317.507 428.605 319.332V320.65H427.209C425.539 320.733 423.892 321.073 422.325 321.657Z" fill="#CBC7DB"/>
<path d="M453.876 302.821C450.465 302.821 449.147 297.084 448.605 292.821C444.574 292.433 437.752 291.193 437.752 287.55C437.752 283.906 444.419 282.666 448.45 282.201C448.837 278.325 450 270.573 453.876 270.573C457.752 270.573 458.915 278.325 459.302 282.201C463.256 282.666 470 283.906 470 287.55C470 291.193 463.178 292.433 459.07 292.821C458.605 297.084 457.287 302.821 453.876 302.821ZM440.93 287.55C441.55 288.17 444.341 289.41 450.155 289.875H451.473V291.193C452.016 296.464 453.178 299.022 453.798 299.565C454.419 300.108 455.581 296.464 456.047 291.193L456.202 289.875H457.519C463.333 289.41 466.124 288.17 466.744 287.55C466.124 286.852 463.411 285.612 457.597 285.146H456.279V283.751C455.892 277.782 454.574 274.526 453.876 273.829C453.101 274.526 451.783 277.782 451.473 283.751V285.146H450.078C444.264 285.612 441.55 286.852 440.93 287.55Z" fill="#090909"/>
<path d="M70.1554 109.797C67.5972 109.797 66.512 106.154 66.0469 102.666C62.7135 102.355 58.2949 101.27 58.2949 98.557C58.2949 95.8439 62.636 94.7586 65.8918 94.371C66.2794 91.1152 67.2097 86.1539 70.1554 86.1539C73.1011 86.1539 74.0314 91.1152 74.419 94.371C77.6748 94.7586 82.0159 95.7663 82.0159 98.557C82.0159 101.348 77.5972 102.355 74.2639 102.666C73.7988 106.154 72.7135 109.797 70.1554 109.797ZM61.8608 98.557C63.6982 99.25 65.6351 99.6426 67.5972 99.7198H68.9151V101.038C68.995 102.799 69.3888 104.531 70.0779 106.154C70.7669 104.531 71.1607 102.799 71.2407 101.038L71.3957 99.7198H72.636C74.5982 99.6426 76.5351 99.25 78.3724 98.557C77.5197 98.0919 75.7368 97.5493 72.7135 97.3167H71.4732V95.9214C71.2407 92.6655 70.698 90.65 70.2329 89.7198C69.7678 90.65 69.2252 92.6655 68.9926 95.9214V97.3167H67.6748C64.4965 97.5493 62.7135 98.0919 61.8608 98.557Z" fill="#090909"/>
<path d="M246.124 128.944C245.966 130.126 245.463 131.235 244.676 132.132C243.89 133.029 242.856 133.673 241.705 133.983C241.407 134.065 241.154 134.263 241.001 134.532C240.848 134.801 240.809 135.119 240.891 135.417C240.973 135.715 241.171 135.969 241.44 136.121C241.709 136.274 242.027 136.314 242.325 136.231C243.859 135.803 245.24 134.95 246.31 133.77C247.38 132.591 248.094 131.133 248.372 129.565C248.604 128.092 246.356 127.472 246.124 128.944Z" fill="#090909"/>
<path d="M50.2324 439.022C47.9283 437.79 45.7019 436.418 43.5657 434.914C39.756 430.743 35.5502 426.953 31.0076 423.596C28.0618 421.425 23.7982 419.332 23.1006 415.379C22.713 412.898 22.4029 411.193 21.0076 408.945C19.6122 406.697 18.2169 408.867 18.9921 410.108C19.7672 411.348 20.3099 414.216 20.8525 416.697C21.0597 417.546 21.3998 418.357 21.8603 419.1C23.1006 420.805 25.0386 421.968 26.6665 423.208C32.1703 427.472 37.6742 431.658 42.2479 436.929C42.4227 437.142 42.6722 437.281 42.9455 437.317C44.8678 438.703 46.8887 439.946 48.992 441.038C50.3099 441.735 51.5502 439.72 50.2324 439.022Z" fill="#090909"/>
<path d="M154.574 440.107L143.566 440.34L143.101 440.495L123.876 440.262H121.628C120.155 440.34 119.38 439.797 119.225 438.557C119.07 437.316 118.217 436.309 117.597 435.378C116.21 433.433 114.41 431.818 112.326 430.65C111.008 429.952 109.845 431.968 111.163 432.665C112.892 433.633 114.397 434.953 115.582 436.541C116.512 437.937 116.822 439.564 117.597 440.96C118.373 442.355 120.31 442.588 122.404 442.588L146.822 442.82C147.1 442.838 147.375 442.755 147.597 442.588L154.574 442.433C156.124 442.355 156.124 440.03 154.574 440.107Z" fill="#090909"/>
<path d="M46.9762 416.696C45.8196 416.308 44.5893 416.19 43.3798 416.351C42.1704 416.512 41.014 416.949 39.9995 417.627C38.7592 418.402 39.922 420.417 41.1623 419.642C41.9076 419.116 42.7692 418.777 43.6736 418.656C44.5779 418.534 45.4983 418.633 46.3561 418.944C46.5037 418.985 46.6579 418.996 46.8098 418.978C46.9618 418.959 47.1086 418.91 47.2417 418.834C47.3749 418.759 47.4919 418.658 47.586 418.537C47.6801 418.416 47.7495 418.278 47.7902 418.131C47.8309 417.983 47.8422 417.829 47.8233 417.677C47.8044 417.525 47.7558 417.378 47.6802 417.245C47.6047 417.112 47.5036 416.995 47.3828 416.901C47.262 416.807 47.1239 416.737 46.9762 416.696Z" fill="#090909"/>
<path d="M51.628 422.665C49.3933 422.209 47.0736 422.425 44.9613 423.286C43.566 423.828 44.1861 426.076 45.5815 425.534C47.2887 424.793 49.1776 424.577 51.0078 424.913C52.4807 425.146 53.1009 422.898 51.628 422.665Z" fill="#090909"/>
<path d="M139.38 424.526C136.899 424.991 132.016 426.541 132.481 429.797C132.791 431.27 134.961 430.65 134.729 429.177C134.496 427.704 136.589 427.859 136.977 427.704C137.941 427.267 138.957 426.955 140 426.774C141.473 426.464 140.853 424.216 139.38 424.526Z" fill="#090909"/>
<path d="M146.512 427.86C143.488 427.549 141.473 428.79 138.837 430.108C137.519 430.805 138.682 432.821 140.077 432.123C141.473 431.425 143.876 429.953 146.512 430.185C147.984 430.418 147.984 428.092 146.512 427.86Z" fill="#090909"/>
<path d="M375.582 404.449C356.977 403.88 338.372 404.035 319.768 404.914C318.295 404.991 318.295 407.317 319.768 407.239C338.372 406.413 356.977 406.258 375.582 406.774C375.89 406.774 376.186 406.652 376.404 406.434C376.622 406.216 376.744 405.92 376.744 405.612C376.744 405.303 376.622 405.007 376.404 404.789C376.186 404.571 375.89 404.449 375.582 404.449Z" fill="#F5F3F0"/>
<path d="M312.016 397.085C306.124 386.387 307.055 372.356 306.9 360.495C306.745 348.635 307.132 334.759 307.985 321.968C308.14 320.495 305.814 320.495 305.659 321.968C304.729 335.844 304.341 349.72 304.652 363.596C304.884 375.069 304.341 387.937 310 398.247C310.698 399.565 312.714 398.402 312.016 397.085Z" fill="#F5F3F0"/>
<path d="M315.348 405.534C315.033 404.694 314.588 403.91 314.03 403.208C313.792 403.006 313.49 402.895 313.178 402.895C312.865 402.895 312.563 403.006 312.325 403.208C312.112 403.425 311.993 403.718 311.993 404.022C311.993 404.326 312.112 404.619 312.325 404.836C312.684 405.207 312.95 405.659 313.1 406.154C313.144 406.302 313.218 406.441 313.316 406.561C313.415 406.68 313.536 406.779 313.673 406.852C313.811 406.924 313.961 406.968 314.115 406.981C314.27 406.994 314.426 406.977 314.573 406.929C314.856 406.839 315.094 406.645 315.238 406.385C315.382 406.126 315.422 405.821 315.348 405.534Z" fill="#F5F3F0"/>
<path d="M95.9689 349.488C92.3833 358.848 87.5601 367.687 81.6278 375.767C75.2712 384.294 67.7518 391.658 60.2324 399.022C59.1471 400.03 60.7751 401.658 61.8603 400.65C69.5347 393.131 77.2092 385.612 83.5658 376.929C89.6301 368.686 94.558 359.665 98.2169 350.108C98.682 348.712 96.434 348.092 95.9689 349.488Z" fill="#F5F3F0"/>
<path d="M131.938 406.154C127.597 406.309 123.566 404.293 119.148 404.526C115.323 404.734 111.556 405.545 107.985 406.929C106.589 407.472 107.21 409.72 108.605 409.177C112.395 407.633 116.45 406.843 120.543 406.852C124.496 406.852 128.062 408.557 131.938 408.479C133.411 408.402 133.411 406.076 131.938 406.154Z" fill="#F5F3F0"/>
<path d="M136.821 407.395C136.513 407.395 136.217 407.517 135.999 407.735C135.781 407.953 135.659 408.249 135.659 408.557C135.659 408.866 135.781 409.162 135.999 409.38C136.217 409.598 136.513 409.72 136.821 409.72C137.13 409.72 137.426 409.598 137.644 409.38C137.862 409.162 137.984 408.866 137.984 408.557C137.984 408.249 137.862 407.953 137.644 407.735C137.426 407.517 137.13 407.395 136.821 407.395Z" fill="#F5F3F0"/>
<path d="M49.7673 392.511C46.9766 392.278 44.496 391.658 43.3332 388.867C42.7131 387.317 42.558 385.534 41.7053 384.061C40.9816 382.815 39.9848 381.749 38.7898 380.943C37.5949 380.138 36.2328 379.613 34.8061 379.41C33.4107 379.177 32.7131 381.425 34.1859 381.658C36.8991 382.123 38.9146 383.441 39.9999 385.921C41.0852 388.402 40.9301 389.797 42.0929 391.503C43.2557 393.208 46.8991 394.604 49.7673 394.836C51.2402 394.914 51.2402 392.588 49.7673 392.511Z" fill="#F5F3F0"/>
<path d="M52.3259 394.216C52.0175 394.216 51.7217 394.339 51.5037 394.557C51.2856 394.775 51.1631 395.071 51.1631 395.379C51.1631 395.687 51.2856 395.983 51.5037 396.201C51.7217 396.419 52.0175 396.542 52.3259 396.542C52.6343 396.542 52.93 396.419 53.1481 396.201C53.3662 395.983 53.4887 395.687 53.4887 395.379C53.4887 395.071 53.3662 394.775 53.1481 394.557C52.93 394.339 52.6343 394.216 52.3259 394.216Z" fill="#F5F3F0"/>
<path d="M172.946 338.169C172.946 337.861 172.824 337.565 172.605 337.347C172.387 337.129 172.092 337.006 171.783 337.006C171.475 337.006 171.179 337.129 170.961 337.347C170.743 337.565 170.62 337.861 170.62 338.169C170.853 343.983 170.853 349.642 168.76 355.146C166.667 360.65 163.954 366.309 161.551 371.813C160.931 373.208 162.946 374.371 163.566 373.053C166.047 367.316 168.837 361.657 171.008 355.766C173.179 349.875 173.179 344.216 172.946 338.169Z" fill="#F5F3F0"/>
<path d="M300.311 410.805C297.985 402.975 299.303 394.526 298.76 386.464C298.218 378.402 296.9 370.65 295.582 362.82C292.714 346.231 289.458 329.255 293.024 312.51C293.334 311.037 291.086 310.417 290.776 311.89C287.365 328.169 290.001 344.526 292.869 360.65C294.342 369.41 295.97 378.247 296.512 387.161C297.055 396.076 295.737 403.596 298.063 411.425C298.145 411.723 298.342 411.976 298.611 412.129C298.88 412.282 299.199 412.321 299.497 412.239C299.795 412.157 300.048 411.959 300.201 411.69C300.353 411.422 300.393 411.103 300.311 410.805Z" fill="#090909"/>
<path d="M342.945 227.859C342.868 224.061 342.17 219.875 339.069 217.316C338.255 216.698 337.37 216.178 336.434 215.766C334.263 214.371 333.953 212.433 334.108 210.03C334.263 207.627 334.573 205.611 333.721 203.518C331.938 199.255 326.744 198.867 324.418 195.223C322.79 192.743 323.333 189.487 322.17 186.851C321.655 185.729 320.947 184.706 320.077 183.828C319.201 182.599 318.028 181.612 316.666 180.96C314.416 179.981 311.988 179.48 309.535 179.487C308.025 179.196 306.497 179.015 304.961 178.944C299.612 178.479 293.488 179.72 289.302 183.053C284.522 184.744 280.103 187.321 276.279 190.65C268.759 197.006 276.124 207.704 273.566 215.689C272.48 219.254 270.542 222.665 271.317 226.464C272.093 230.262 273.798 231.735 276.744 232.123C276.957 232.162 277.177 232.144 277.382 232.072C277.586 232 277.768 231.875 277.91 231.71C278.051 231.545 278.146 231.346 278.187 231.133C278.227 230.92 278.211 230.7 278.139 230.495C279.09 230.39 280.012 230.1 280.852 229.642C283.953 228.169 286.279 226.929 290 227.472C291.938 227.704 294.263 225.146 292.248 223.518C291.441 222.962 290.509 222.615 289.535 222.51C289.457 222.355 289.457 222.2 289.38 222.123C286.846 217.688 284.693 213.046 282.945 208.247C282.95 204.981 283.473 201.736 284.496 198.634C290 193.828 298.682 193.208 304.418 198.092C306.489 199.838 308.043 202.116 308.914 204.681C308.811 205.633 308.785 206.592 308.837 207.549C308.837 213.053 308.527 218.169 315.038 219.41C318.682 220.107 322.17 223.441 324.961 225.844C325.589 226.427 326.34 226.862 327.158 227.117C327.976 227.372 328.841 227.44 329.69 227.317C329.828 228.456 330.334 229.519 331.132 230.345C331.929 231.17 332.974 231.713 334.108 231.89C335.038 234.293 336.124 236.386 336.434 239.099C336.468 239.651 336.697 240.172 337.081 240.57C337.464 240.968 337.977 241.216 338.527 241.27C338.53 241.312 338.525 241.354 338.512 241.394C338.499 241.434 338.477 241.471 338.449 241.503C337.752 242.82 339.767 243.983 340.465 242.665C342.945 238.169 343.1 232.898 342.945 227.859Z" fill="#090909"/>
<path d="M316.476 213.763C319.15 210.474 320.643 207.26 319.813 206.585C318.982 205.91 316.142 208.03 313.468 211.319C310.795 214.608 309.302 217.822 310.132 218.497C310.963 219.172 313.803 217.052 316.476 213.763Z" fill="#80A5AE"/>
<path d="M310.311 219.333C310.084 219.327 309.865 219.245 309.691 219.1C308.528 218.092 310.543 214.449 313.024 211.426C315.427 208.402 318.605 205.612 319.846 206.619C321.086 207.627 318.993 211.348 316.59 214.294C315.432 215.763 314.105 217.09 312.636 218.247C311.988 218.835 311.178 219.213 310.311 219.333ZM313.566 211.891C310.621 215.534 309.768 218.17 310.233 218.48C310.698 218.79 310.853 218.635 312.171 217.627C313.589 216.522 314.864 215.246 315.97 213.829C318.915 210.185 319.768 207.55 319.38 207.24C318.993 206.929 316.59 208.247 313.566 211.891Z" fill="#80A5AE"/>
<path d="M291.861 436.386C290.559 435.322 289.018 434.589 287.371 434.252C285.724 433.914 284.019 433.982 282.403 434.448C279.768 435.146 277.365 437.549 274.574 437.549C271.783 437.549 270.775 435.921 268.682 435.766C266.589 435.611 264.884 436.541 263.101 437.239C261.318 437.937 258.062 438.092 255.272 437.316C251.318 436.309 248.14 437.859 244.806 439.952C243.566 440.805 244.729 442.82 246.047 441.968C247.365 441.115 250.078 439.409 252.636 439.409C255.194 439.409 256.357 440.34 258.372 440.572C262.248 440.882 265.272 437.937 268.992 438.557C272.713 439.177 274.186 440.417 277.52 439.177C282.403 437.394 285.892 434.758 290.698 438.402C291.938 439.254 293.101 437.239 291.861 436.386Z" fill="#F5F3F0"/>
<path d="M411.628 390.96C413.023 390.495 412.403 388.247 411.008 388.712C407.752 389.797 401.783 390.263 401.473 394.526C401.163 398.79 404.263 401.115 406.046 403.906C407.829 406.697 407.364 408.092 406.512 410.805C405.945 412.592 405.918 414.507 406.434 416.309C407.132 418.945 408.76 421.348 409.38 424.061C410 426.774 409.07 431.58 408.062 435.146C407.597 436.542 409.845 437.162 410.31 435.766C411.55 431.348 412.713 426.852 411.318 422.278C410.62 420.185 409.457 418.325 408.837 416.232C408.217 414.139 409.147 411.58 409.69 408.79C410.232 405.999 408.605 403.441 406.977 401.193C405.349 398.945 403.876 397.627 403.953 395.999C404.186 392.278 408.837 391.89 411.628 390.96Z" fill="#F5F3F0"/>
<path d="M331.938 245.767C331.085 242.433 327.597 241.736 324.651 242.433H324.496C324.29 242.31 324.049 242.258 323.811 242.286C323.573 242.314 323.35 242.42 323.179 242.588C321.008 244.604 319.07 248.247 320 251.27C320.388 252.666 321.551 253.208 322.946 253.441C324.894 253.789 326.889 253.789 328.837 253.441C331.861 252.743 332.558 248.402 331.938 245.767ZM329.458 249.72C329.07 251.27 327.597 251.425 326.202 251.425L323.566 251.27C322.403 251.115 322.093 250.728 322.171 249.565C322.343 247.69 323.166 245.935 324.496 244.604C324.61 244.677 324.74 244.723 324.875 244.736C325.009 244.75 325.145 244.731 325.272 244.681C327.365 244.139 329.69 244.604 329.768 247.239C329.779 248.077 329.675 248.911 329.458 249.72Z" fill="#CBC7DB"/>
<path d="M323.101 270.495C321.163 268.17 317.674 265.146 314.419 266.852C311.163 268.557 312.558 273.519 313.643 275.844C315.271 279.643 318.605 279.953 322.093 278.557C322.259 278.66 322.453 278.708 322.648 278.694C322.843 278.68 323.028 278.605 323.178 278.48C326.279 276.464 325.116 272.898 323.101 270.495ZM320.93 276.464C318.527 277.55 316.434 277.084 315.581 274.449C315.116 273.286 314.341 269.643 315.736 268.79C317.132 267.937 324.884 274.526 322.016 276.464C321.845 276.387 321.66 276.347 321.473 276.347C321.286 276.347 321.101 276.387 320.93 276.464Z" fill="#CBC7DB"/>
<path d="M310.465 245.766C308.604 245.068 305.503 244.913 304.418 246.929C304.418 247.006 304.418 247.084 304.341 247.084C304.104 247.251 303.938 247.499 303.875 247.782C303.565 249.099 303.1 250.882 303.41 252.2C303.72 253.518 304.961 253.906 306.046 254.293C308.527 255.146 311.55 254.836 312.403 251.968C313.255 249.099 313.023 246.774 310.465 245.766ZM310.232 251.192C309.689 252.82 307.984 252.51 306.666 252.045C305.348 251.58 305.658 251.658 305.736 250.727C305.745 249.987 305.876 249.254 306.124 248.557L306.434 248.169C306.899 247.317 308.527 247.627 309.302 247.859C310.077 248.092 310.62 249.952 310.232 251.192Z" fill="#CBC7DB"/>
<path d="M290.232 257.782C290.167 257.654 290.077 257.54 289.967 257.448C289.857 257.355 289.73 257.285 289.593 257.241C289.456 257.198 289.312 257.183 289.169 257.195C289.026 257.208 288.887 257.25 288.76 257.317C288.66 257.213 288.539 257.131 288.406 257.078C288.272 257.024 288.128 257 287.984 257.007C286.977 256.948 285.974 257.18 285.095 257.675C284.215 258.169 283.496 258.906 283.023 259.797C282.015 261.735 282.248 263.983 284.418 264.836C288.76 266.542 292.558 261.658 290.232 257.782ZM285.581 262.821C285.039 262.666 284.729 262.51 284.729 261.89C284.756 261.402 284.947 260.938 285.271 260.573C285.566 260.137 285.975 259.791 286.454 259.572C286.932 259.353 287.462 259.27 287.984 259.332H288.372C288.544 259.754 288.6 260.214 288.535 260.664C288.469 261.115 288.285 261.54 288 261.895C287.716 262.251 287.342 262.524 286.917 262.687C286.491 262.849 286.03 262.896 285.581 262.821Z" fill="#CBC7DB"/>
<path d="M286.822 230.728C285.814 229.565 284.186 231.27 285.194 232.356C286.202 233.441 286.9 235.999 285.194 236.619C283.489 237.239 281.241 236.154 281.241 234.449C281.241 234.14 281.118 233.844 280.9 233.626C280.682 233.408 280.386 233.286 280.078 233.286C279.769 233.286 279.474 233.408 279.256 233.626C279.038 233.844 278.915 234.14 278.915 234.449C278.838 237.937 283.179 239.953 286.202 238.79C289.225 237.627 288.683 232.821 286.822 230.728Z" fill="#CBC7DB"/>
<path d="M271.551 244.681C269.768 242.743 266.202 243.518 264.186 244.371C262.171 245.223 263.411 247.161 264.807 246.619C266.202 246.076 269.07 245.068 270 246.541C270.931 248.014 270.31 250.495 269.768 252.045C269.225 253.596 271.473 254.061 272.016 252.665C272.558 251.27 273.334 246.696 271.551 244.681Z" fill="#CBC7DB"/>
<path d="M327.83 230.417C326.047 231.503 323.799 231.425 321.861 231.038C319.923 230.65 320.543 226.929 321.396 225.379C322.248 223.828 320.078 222.82 319.38 224.216C318.683 225.611 316.822 230.727 319.535 232.588C320.698 233.441 322.559 233.518 323.954 233.596C325.712 233.719 327.467 233.314 328.993 232.433C330.233 231.58 329.07 229.565 327.83 230.417Z" fill="#CBC7DB"/>
<path d="M339.923 285.301C339.931 285.145 339.907 284.99 339.854 284.843C339.801 284.697 339.719 284.562 339.613 284.448C336.202 280.727 328.45 292.355 334.961 295.456C336.383 296.072 337.98 296.155 339.458 295.688C340.698 295.146 341.085 293.75 341.473 292.51C342.326 289.487 341.861 287.239 339.923 285.301ZM339.535 290.727C339.225 292.278 338.837 293.906 336.899 293.595C334.961 293.285 334.496 291.192 335.116 289.409C335.194 289.099 336.589 286.696 337.442 286.154H337.52C339.147 287.394 339.845 288.712 339.535 290.727Z" fill="#CBC7DB"/>
<path d="M380.388 379.022C379.21 379.662 378.211 380.586 377.48 381.709C376.749 382.832 376.31 384.12 376.202 385.456C375.892 389.177 378.14 391.735 378.993 395.224C379.303 396.619 381.551 395.999 381.241 394.604C380.155 390.03 375.582 384.449 381.551 381.038C382.869 380.34 381.706 378.324 380.388 379.022Z" fill="#090909"/>
<path d="M380.233 400.728C379.924 400.728 379.628 400.85 379.41 401.068C379.192 401.286 379.07 401.582 379.07 401.89C379.07 402.199 379.192 402.494 379.41 402.713C379.628 402.931 379.924 403.053 380.233 403.053C380.541 403.053 380.837 402.931 381.055 402.713C381.273 402.494 381.395 402.199 381.395 401.89C381.395 401.582 381.273 401.286 381.055 401.068C380.837 400.85 380.541 400.728 380.233 400.728Z" fill="#090909"/>
<path d="M273.798 403.285C270.816 402.925 267.911 402.087 265.194 400.805C263.638 400.117 261.995 399.647 260.31 399.409C256.605 399.062 252.885 399.904 249.69 401.813C248.45 402.588 249.612 404.603 250.853 403.828C252.708 402.703 254.788 402.001 256.946 401.773C259.103 401.546 261.284 401.797 263.333 402.51C264.961 403.13 266.434 404.216 268.14 404.758C269.845 405.301 271.938 405.378 273.798 405.611C275.659 405.844 275.271 403.44 273.798 403.285Z" fill="#090909"/>
<path d="M288.527 403.519H280.543C280.234 403.519 279.939 403.641 279.72 403.859C279.502 404.077 279.38 404.373 279.38 404.682C279.38 404.99 279.502 405.286 279.72 405.504C279.939 405.722 280.234 405.844 280.543 405.844H288.527C288.836 405.844 289.131 405.722 289.349 405.504C289.567 405.286 289.69 404.99 289.69 404.682C289.69 404.373 289.567 404.077 289.349 403.859C289.131 403.641 288.836 403.519 288.527 403.519Z" fill="#090909"/>
<path d="M268.527 328.945C269.613 327.937 267.985 326.309 266.9 327.317C261.396 332.433 260.543 339.953 260 347.085C259.148 357.007 258.605 367.007 260.155 376.929C260.388 378.402 262.636 377.782 262.403 376.309C261.008 367.55 261.396 358.712 262.093 349.953C262.636 342.666 262.791 334.294 268.527 328.945Z" fill="#F5F3F0"/>
<path d="M261.008 381.58C260.699 381.58 260.403 381.703 260.185 381.921C259.967 382.139 259.845 382.434 259.845 382.743C259.845 383.051 259.967 383.347 260.185 383.565C260.403 383.783 260.699 383.906 261.008 383.906C261.316 383.906 261.612 383.783 261.83 383.565C262.048 383.347 262.17 383.051 262.17 382.743C262.17 382.434 262.048 382.139 261.83 381.921C261.612 381.703 261.316 381.58 261.008 381.58Z" fill="#F5F3F0"/>
<path d="M425.582 76.2313C422.714 80.4949 418.838 83.9832 415.117 87.4716C411.694 90.8175 407.896 93.7569 403.799 96.2313C399.303 98.867 394.032 100.572 388.76 100.262C385.892 100.185 381.551 97.4716 378.915 99.0995C376.28 100.727 376.047 105.146 374.729 107.549C372.502 111.468 369.227 114.689 365.272 116.851C356.435 121.968 345.737 121.813 335.815 121.27C334.342 121.193 334.342 123.518 335.815 123.596C345.427 124.138 355.582 124.138 364.497 119.875C368.161 118.158 371.413 115.672 374.032 112.588C375.276 111.116 376.343 109.503 377.21 107.782C377.985 106.154 378.218 103.053 379.458 101.89C380.698 100.727 385.505 102.355 387.52 102.51C389.482 102.73 391.464 102.678 393.411 102.355C397.94 101.666 402.272 100.028 406.125 97.5491C410.303 94.8167 414.198 91.6746 417.753 88.1693C421.241 84.836 424.884 81.4251 427.598 77.3941C428.45 76.1538 426.435 74.991 425.582 76.2313Z" fill="#F5F3F0"/>
<path d="M434.031 61.425C432.636 64.8095 430.922 68.054 428.915 71.115C428.062 72.3553 430.077 73.5181 430.93 72.2778C433.016 69.0343 434.807 65.6097 436.279 62.0452C436.821 60.6499 434.573 60.0297 434.031 61.425Z" fill="#F5F3F0"/>
<path d="M246.201 258.712C245.271 266.153 238.217 269.952 231.627 271.735C231.329 271.817 231.076 272.014 230.923 272.283C230.771 272.552 230.731 272.871 230.813 273.169C230.896 273.467 231.093 273.72 231.362 273.873C231.631 274.026 231.949 274.065 232.248 273.983C240.077 271.89 247.441 267.316 248.527 258.712C248.759 257.161 246.434 257.239 246.201 258.712Z" fill="#CBC7DB"/>
<path d="M308.682 218.634C308.062 225.068 300.93 226.309 295.736 226.154C294.264 226.076 294.264 228.402 295.736 228.479C302.403 228.712 310.31 226.386 311.008 218.634C311.163 217.161 308.837 217.161 308.682 218.634Z" fill="#80A5AE"/>
<path d="M310 219.41C310.309 219.41 310.604 219.288 310.822 219.07C311.04 218.851 311.163 218.556 311.163 218.247C311.163 217.939 311.04 217.643 310.822 217.425C310.604 217.207 310.309 217.085 310 217.085C309.692 217.085 309.396 217.207 309.178 217.425C308.96 217.643 308.837 217.939 308.837 218.247C308.837 218.556 308.96 218.851 309.178 219.07C309.396 219.288 309.692 219.41 310 219.41Z" fill="#80A5AE"/>
<path d="M311.163 200.34C310.971 199.561 310.551 198.858 309.957 198.32C309.364 197.781 308.623 197.432 307.829 197.316C307.426 197.285 307.02 197.334 306.637 197.463C306.253 197.591 305.899 197.794 305.595 198.062C305.291 198.329 305.044 198.655 304.869 199.02C304.694 199.384 304.593 199.78 304.574 200.185C304.548 200.429 304.613 200.674 304.756 200.874C304.899 201.074 305.11 201.215 305.349 201.27C304.806 202.975 305.349 205.223 307.287 205.688C310.388 206.464 312.016 202.898 311.163 200.34Z" fill="#F5F3F0"/>
</svg>
