<svg width="363" height="82" viewBox="0 0 363 82" fill="none" xmlns="http://www.w3.org/2000/svg">
<circle cx="38.0264" cy="38.0264" r="38.0264" fill="#FFCB3B"/>
<path fill-rule="evenodd" clip-rule="evenodd" d="M18.8478 56.9711C20.1044 55.5313 22.2898 55.3824 23.7291 56.6386C33.0844 64.8036 47.2897 63.836 55.4576 54.4775C63.6255 45.1189 62.663 30.9132 53.3077 22.7482C51.8685 21.492 51.7204 19.3065 52.977 17.8667C54.2336 16.427 56.419 16.2781 57.8583 17.5343C70.0921 28.2116 71.3508 46.7882 60.6697 59.0264C49.9886 71.2645 31.4123 72.5298 19.1785 61.8525C17.7393 60.5963 17.5912 58.4109 18.8478 56.9711Z" fill="black"/>
<path d="M12.5246 33.0589C12.3526 32.9371 12.2326 32.8768 12.1646 32.8779C12.0352 32.5968 11.8894 32.3442 11.727 32.1203C11.5642 31.8737 11.4018 31.6498 11.2398 31.4485C11.1009 31.2695 10.9734 31.1016 10.8575 30.9449C10.7527 30.7767 10.6592 30.6083 10.5771 30.4397C10.7204 30.1993 10.779 29.9773 10.753 29.7738C10.7265 29.5476 10.6951 29.3611 10.6586 29.2144C10.8476 28.996 11.0045 28.8914 11.1293 28.9006C11.2653 28.8983 11.4529 28.9349 11.6921 29.0102C11.8745 29.0752 12.0907 29.1282 12.3407 29.1694C12.5792 29.1994 12.839 29.1497 13.1201 29.0204C13.2802 29.1084 13.4402 29.185 13.5999 29.2503C13.7597 29.3157 13.9307 29.3808 14.1131 29.4458C14.4553 29.576 14.8033 29.7232 15.1574 29.8873C15.4999 30.0402 15.7919 30.2223 16.0334 30.4336C16.1646 30.8281 16.364 31.2327 16.6316 31.6475C16.9103 32.0508 17.217 32.4367 17.5518 32.805C17.8862 33.1508 18.2314 33.4623 18.5873 33.7397C18.9432 34.017 19.2696 34.2212 19.5664 34.3523L19.9431 34.516L20.2761 34.1024C20.5735 33.5875 20.8204 33.1018 21.0168 32.6453C21.2016 32.1776 21.3411 31.7106 21.4353 31.2444C21.5296 30.7782 21.5896 30.3013 21.6155 29.8136C21.6298 29.3147 21.615 28.7654 21.571 28.1655C21.5158 27.5771 21.3925 26.9786 21.201 26.3698C20.9981 25.75 20.7446 25.1593 20.4406 24.5977C20.1477 24.0247 19.8214 23.4862 19.4617 22.9822C19.102 22.4783 18.7433 22.031 18.3854 21.6403C18.4934 21.3212 18.4434 21.0388 18.2353 20.7929L17.9606 20.6275C17.8696 20.6064 17.801 20.5735 17.755 20.529C17.7085 20.4617 17.6734 20.3943 17.6496 20.3267C17.4738 19.9784 17.4674 19.5932 17.6303 19.1712C17.9691 19.0975 18.3026 19.0523 18.631 19.0355C18.9705 19.0072 19.2932 18.9961 19.5993 19.0024C19.9326 19.2801 20.2478 19.4958 20.545 19.6495C20.8307 19.7921 21.1162 19.9233 21.4015 20.0432C21.6753 20.1519 21.9321 20.2666 22.1721 20.3873C22.4233 20.4964 22.6924 20.6676 22.9796 20.9008C23.2138 21.3501 23.4585 21.754 23.7137 22.1124C23.9687 22.4481 24.2408 22.8005 24.5303 23.1697L24.6869 23.388C24.8435 23.9407 25.0115 24.5045 25.1911 25.0794C25.3703 25.6317 25.5368 26.1049 25.6907 26.4989C25.693 26.6349 25.7123 26.7762 25.7488 26.9229C25.7964 27.0581 25.844 27.1933 25.8915 27.3285C25.9038 27.385 25.928 27.4752 25.964 27.5993C26.0113 27.7118 26.0354 27.802 26.0366 27.87L25.48 28.1343L25.9153 28.7559L25.7171 29.0992L25.7585 29.5405C25.9629 30.251 26.0759 30.9064 26.0972 31.5066C26.1297 32.0953 26.0886 32.691 25.974 33.2935C25.8706 33.8845 25.7055 34.5162 25.4787 35.1885C25.2516 35.8383 24.9749 36.5738 24.6486 37.3952C24.3913 37.5921 24.179 37.7769 24.0119 37.9497C23.8445 38.0998 23.677 38.2499 23.5095 38.4C23.3535 38.5613 23.1974 38.7112 23.041 38.8498C22.8847 38.9884 22.7003 39.1445 22.4879 39.318C22.3397 39.2638 22.2036 39.2547 22.0795 39.2908C21.9555 39.3269 21.86 39.3795 21.7932 39.4486C21.4552 39.5675 21.1268 39.5843 20.8081 39.499C20.4894 39.4137 20.1421 39.3118 19.7661 39.1934C19.5722 39.1173 19.3727 39.047 19.1677 38.9824C18.9738 38.9063 18.7689 38.8531 18.5531 38.8227L18.7836 38.3769L17.8308 38.3248C17.7629 38.3259 17.6893 38.3328 17.6102 38.3455C17.5422 38.3466 17.4685 38.3422 17.389 38.3322L17.0608 38.0147C16.0717 37.1473 15.1798 36.3292 14.3851 35.5606C13.59 34.7693 12.9875 33.9747 12.5775 33.177L12.5246 33.0589Z" fill="black"/>
<path d="M33.2274 29.9428C32.4589 30.069 31.7325 30.0018 31.0482 29.7412C30.3413 29.481 29.8239 29.0364 29.4961 28.4072C29.1614 28.0389 28.9051 27.6239 28.7275 27.1622C28.5494 26.6779 28.4165 26.1815 28.3287 25.673C28.252 25.153 28.2093 24.6325 28.2006 24.1113C28.1919 23.5902 28.1838 23.103 28.1762 22.6499C28.0826 22.4701 28.0396 22.2725 28.0474 22.0571C28.0551 21.8417 28.0742 21.626 28.1046 21.4102C28.1346 21.1717 28.1533 20.9334 28.1606 20.6954C28.1791 20.4457 28.1525 20.2082 28.0808 19.9828C27.8749 19.8729 27.6413 19.7918 27.3798 19.7395C27.1183 19.6872 26.8456 19.6464 26.5618 19.6171C26.278 19.5879 25.9887 19.5644 25.6937 19.5466C25.3988 19.5289 25.1093 19.4941 24.8251 19.4421C24.7564 19.3979 24.6945 19.4273 24.6396 19.5302C24.5958 19.6216 24.5399 19.6679 24.4719 19.669C24.3099 19.4677 24.0751 19.3187 23.7675 19.2218C23.4596 19.1023 23.1527 19.0507 22.847 19.0672C22.7645 18.8759 22.6361 18.6514 22.4618 18.3937C22.2987 18.1244 22.0514 17.9076 21.7201 17.7431C21.5938 17.6432 21.4955 17.5259 21.4252 17.3911C21.3661 17.2447 21.3128 17.104 21.2652 16.9688C21.2176 16.8336 21.1647 16.7155 21.1063 16.6145C21.0364 16.5023 20.9387 16.419 20.8132 16.3644C20.9572 16.1693 21.1191 16.025 21.2989 15.9313C21.4783 15.815 21.6524 15.7271 21.8214 15.6676C21.99 15.5855 22.1418 15.5093 22.2766 15.4391C22.4225 15.3573 22.5226 15.2423 22.5768 15.0941C22.6236 15.184 22.6699 15.2399 22.7156 15.2618C22.7609 15.261 22.8062 15.2603 22.8515 15.2595C22.8965 15.2361 22.9358 15.2184 22.9696 15.2065C23.0146 15.1831 23.0601 15.1937 23.1061 15.2383C23.3869 15.0863 23.765 14.995 24.2404 14.9644C24.727 14.9223 25.2255 14.9139 25.7359 14.9394C26.2462 14.9649 26.7343 15.0134 27.2001 15.085C27.6544 15.1454 28.001 15.2019 28.2399 15.2546C28.3556 14.7201 28.4533 14.1235 28.533 13.4649C28.6238 12.7948 28.7144 12.1134 28.8048 11.4206C28.9064 10.7163 29.0253 10.0287 29.1614 9.35787C29.2971 8.66435 29.4793 8.03804 29.708 7.47895C30.0344 7.34885 30.3396 7.29844 30.6234 7.3277C30.9183 7.34544 31.1969 7.40312 31.4592 7.50074C31.721 7.57569 31.9776 7.66774 32.2287 7.77687C32.4794 7.86334 32.7352 7.91007 32.9959 7.91705C33.1149 8.25503 33.1937 8.56535 33.2324 8.84801C33.2596 9.11953 33.3548 9.38991 33.5179 9.65916C33.3546 10.0585 33.2047 10.5823 33.0682 11.2305C32.9528 11.7877 32.829 12.515 32.6966 13.4125C32.5643 14.3099 32.4582 15.4222 32.3784 16.7494C32.7413 16.766 33.0592 16.806 33.3323 16.8695C33.6164 16.9214 33.8553 16.9741 34.0488 17.0275C34.2765 17.0917 34.476 17.162 34.6473 17.2385C34.862 17.2009 35.0716 17.2031 35.2763 17.245C35.481 17.2869 35.6859 17.3402 35.8909 17.4047C36.0956 17.4467 36.3001 17.4772 36.5044 17.4965C36.7087 17.5158 36.9178 17.4839 37.1317 17.401C37.3836 17.5555 37.6351 17.6873 37.8862 17.7964C38.1258 17.8944 38.3599 17.9982 38.5883 18.1077C38.828 18.2057 39.0509 18.3209 39.257 18.4535C39.4629 18.5634 39.6466 18.7076 39.8082 18.8862C40.0301 19.2792 40.1555 19.668 40.1846 20.0528C40.2137 20.4376 40.2987 20.7762 40.4395 21.0685C40.3516 21.2286 40.2693 21.3943 40.1929 21.5655C40.116 21.7141 40.0789 21.8677 40.0816 22.0263L38.116 22.3991C37.2244 21.938 36.2725 21.5969 35.2602 21.3758C34.248 21.1547 33.3333 21.0057 32.5161 20.9287C32.4075 21.8937 32.3673 22.8803 32.3954 23.8884C32.4236 24.8964 32.5309 25.8919 32.7172 26.8747C32.9829 27.1762 33.1914 27.4447 33.3426 27.6802C33.4823 27.9045 33.5654 28.1297 33.5919 28.3559C33.6183 28.5821 33.5996 28.8204 33.5358 29.0708C33.472 29.3212 33.3692 29.6118 33.2274 29.9428Z" fill="black"/>
<path d="M107.91 65.5023C111.202 65.5023 114.112 64.8131 116.639 63.4348C119.204 62.0565 121.214 60.1613 122.669 57.7493C124.124 55.3373 124.851 52.5998 124.851 49.5369V22.0282H117.041V49.1349C117.041 50.9343 116.639 52.5424 115.835 53.959C115.069 55.3373 113.997 56.4284 112.619 57.2324C111.279 57.9981 109.709 58.381 107.91 58.381C106.149 58.381 104.579 57.9981 103.2 57.2324C101.822 56.4284 100.731 55.3373 99.927 53.959C99.1613 52.5424 98.7784 50.9343 98.7784 49.1349V22.0282H90.968V49.5369C90.968 52.5998 91.6955 55.3373 93.1503 57.7493C94.6052 60.1613 96.5961 62.0565 99.123 63.4348C101.688 64.8131 104.617 65.5023 107.91 65.5023Z" fill="black"/>
<path d="M129.146 64.8131H138.104L147.523 50.3409L156.884 64.8131H165.843L151.888 43.2771L165.728 22.0282H156.769L147.523 36.2707L138.219 22.0282H129.26L143.158 43.2771L129.146 64.8131Z" fill="black"/>
<path d="M180.824 64.8131H188.635V36.845L208.965 64.8131H215.11V22.0282H207.299V49.4795L186.912 22.0282H180.824V64.8131Z" fill="black"/>
<path d="M238.036 65.5023C241.061 65.5023 243.817 64.8131 246.306 63.4348C248.794 62.0182 250.785 60.0848 252.278 57.6344C253.772 55.1458 254.518 52.3318 254.518 49.1923C254.518 46.0528 253.772 43.258 252.278 40.8076C250.824 38.3573 248.852 36.4239 246.363 35.0073C243.875 33.5907 241.099 32.8824 238.036 32.8824C234.935 32.8824 232.14 33.5907 229.651 35.0073C227.163 36.4239 225.172 38.3573 223.679 40.8076C222.224 43.258 221.496 46.0528 221.496 49.1923C221.496 52.3318 222.224 55.1267 223.679 57.577C225.172 60.0273 227.163 61.9608 229.651 63.3774C232.178 64.794 234.973 65.5023 238.036 65.5023ZM238.036 58.6107C236.351 58.6107 234.839 58.2087 233.499 57.4047C232.197 56.6007 231.164 55.4904 230.398 54.0738C229.67 52.6189 229.307 50.9918 229.307 49.1923C229.307 47.3929 229.67 45.7848 230.398 44.3683C231.164 42.9517 232.197 41.8414 233.499 41.0374C234.839 40.1951 236.351 39.7739 238.036 39.7739C239.721 39.7739 241.195 40.1951 242.458 41.0374C243.76 41.8414 244.774 42.9517 245.502 44.3683C246.268 45.7848 246.65 47.3929 246.65 49.1923C246.65 50.9918 246.268 52.6189 245.502 54.0738C244.774 55.4904 243.76 56.6007 242.458 57.4047C241.195 58.2087 239.721 58.6107 238.036 58.6107Z" fill="black"/>
<path d="M273.905 65.1577C275.169 65.1577 276.413 65.062 277.638 64.8705V58.381C276.911 58.4959 276.241 58.5533 275.628 58.5533C273.79 58.5533 272.45 58.1322 271.608 57.2899C270.766 56.4476 270.344 55.2415 270.344 53.6718V40.2908H277.523V33.5715H270.344V26.4503H262.821V28.8623C262.821 30.3938 262.4 31.5615 261.558 32.3655C260.716 33.1695 259.529 33.5715 257.997 33.5715H257.423V40.2908H262.821V54.0738C262.821 57.5579 263.778 60.2762 265.693 62.2288C267.645 64.1814 270.383 65.1577 273.905 65.1577Z" fill="black"/>
<path d="M283.386 30.0684H290.909V22.0282H283.386V30.0684ZM283.386 64.8131H290.909V33.5715H283.386V64.8131Z" fill="black"/>
<path d="M313.132 65.5023C316.156 65.5023 318.913 64.8131 321.401 63.4348C323.89 62.0182 325.881 60.0848 327.374 57.6344C328.867 55.1458 329.614 52.3318 329.614 49.1923C329.614 46.0528 328.867 43.258 327.374 40.8076C325.919 38.3573 323.947 36.4239 321.459 35.0073C318.97 33.5907 316.194 32.8824 313.132 32.8824C310.03 32.8824 307.235 33.5907 304.747 35.0073C302.258 36.4239 300.267 38.3573 298.774 40.8076C297.319 43.258 296.592 46.0528 296.592 49.1923C296.592 52.3318 297.319 55.1267 298.774 57.577C300.267 60.0273 302.258 61.9608 304.747 63.3774C307.274 64.794 310.069 65.5023 313.132 65.5023ZM313.132 58.6107C311.447 58.6107 309.935 58.2087 308.595 57.4047C307.293 56.6007 306.259 55.4904 305.493 54.0738C304.766 52.6189 304.402 50.9918 304.402 49.1923C304.402 47.3929 304.766 45.7848 305.493 44.3683C306.259 42.9517 307.293 41.8414 308.595 41.0374C309.935 40.1951 311.447 39.7739 313.132 39.7739C314.816 39.7739 316.29 40.1951 317.554 41.0374C318.855 41.8414 319.87 42.9517 320.597 44.3683C321.363 45.7848 321.746 47.3929 321.746 49.1923C321.746 50.9918 321.363 52.6189 320.597 54.0738C319.87 55.4904 318.855 56.6007 317.554 57.4047C316.29 58.2087 314.816 58.6107 313.132 58.6107Z" fill="black"/>
<path d="M335.319 64.8131H342.842V46.4931C342.842 44.464 343.417 42.8368 344.565 41.6116C345.752 40.3865 347.283 39.7739 349.159 39.7739C351.036 39.7739 352.548 40.3865 353.696 41.6116C354.883 42.7985 355.477 44.4257 355.477 46.4931V64.8131H363V44.7128C363 42.3774 362.502 40.3291 361.507 38.5679C360.511 36.7684 359.114 35.371 357.314 34.3756C355.553 33.3801 353.524 32.8824 351.227 32.8824C349.274 32.8824 347.513 33.2653 345.943 34.031C344.412 34.7967 343.225 35.9261 342.383 37.4193V33.5715H335.319V64.8131Z" fill="black"/>
</svg>
